<?xml version="1.0" encoding="UTF-8"?>
<svg xmlns="http://www.w3.org/2000/svg" width="600" height="600">
   <defs>
      <style xmlns:g="http://code.google.com/p/golfml"
             xmlns:xlink="http://www.w3.org/1999/xlink"
             xmlns:xs="http://www.w3.org/2001/XMLSchema"
             type="text/css">
/* Stylesheet for SVG elements
 *
 *
 * Classes for area of interest (surfaces)
 *
 * DRAWING
 */
.background {
		fill: url(#background-gradient);
}

.hole-limits {
	fill: none;
	stroke: #ccc;
	stroke-width: 1px;
	stroke-dasharray: 10,10;
}

.hole-contour {
	fill: #030;
	stroke: #fff;
	stroke-width: 2px;
}


/* GROUND
 */
.fairway {
	fill: url(#fairway-pattern);
	stroke: #0b0;
	stroke-width: 3px; /* fairway fringe... */
}

.tee {
	fill: #00c800;
	stroke: #0f0;
	stroke-width: 1px;
}

.fringe {
	fill: #0A0;
}

.green {
	fill: url(#green-gradient);
	stroke: #0f0;
	stroke-width: 1px;
}

.semi-rough,
.light-rough {
	fill: #080;
	stroke: #08800D;
	stroke-width: 1px;
}

.rough {
	fill: url(#rough-gradient);
	stroke: #07660A;
	stroke-width: 1px;
}

.heavy-rough {
	fill: #040;
	stroke: #074D08;
	stroke-width: 1px;
}

.ground {
	fill: #7f400c;
	stroke: #fdcc6a;
	stroke-width: 1px;
}


/* WATER
 */
.lateral-water {
	fill: url(#lateral-water-gradient);
	stroke: red;
	stroke-width: 4px;
}

.front-water, .water {
	fill: #37f;
	stroke: yellow;
	stroke-width: 3px;
}


/* SPECIAL
 */
.under-repair {
	fill: none;
	stroke: #00d;
	stroke-width: 2px;
}

.out-of-bound { /* line only */
	fill: none;
	stroke: white;
	stroke-width: 4px;
}

.out-of-bound-area {
	fill: #ccc;
	stroke: white;
	stroke-width: 4px;
}


/* TRAPS
 */
.trap,
.bunker {
	fill: #92cf94;
	stroke: #4c994c;
	stroke-width: 1px;
}

.grass-trap,
.grass-bunker {
	fill: #050;
	stroke: #0A0;
	stroke-width: 1px;
}

.sand-trap,
.sand-bunker,
.greenside-trap,
.greenside-bunker {
	fill: #eec;
	stroke: #040;
	stroke-width: 2px;
}

.fairway-trap,
.fairway-bunker {
	fill: #eec;
	stroke: #030;
	stroke-width: 2px;
}


/* OBSTACLES
 */
.tree {
	fill: #062;
	stroke: #0c6;
	stroke-width: 1px;
}

.trees {
	fill: #062;
	stroke: #0c6;
	stroke-width: 1px;
}

.bush {
	fill: #00b259;
	stroke: #7f400c;
	stroke-width: 1px;
}


.path {
	fill: #666;
	stroke: #bbb;
	stroke-width: 1px;
}

.building,
.construction {
	fill: #fdcc6a;
	stroke: #7f400C;
	stroke-width: 1px;
}

.obstruction {
	fill: #555;
	stroke: #999;
	stroke-width: 1px;
}


.other {
	fill: #ddd;
	stroke: #666;
	stroke-width: 1px;
}

/* Classes for point of interest (points)
 *
 */
.dogleg {
	fill: #000;
}

.aim {
	fill: #fff;
	stroke: #f00;
	stroke-width: 1px;
}

.tees {
	fill: #00f;
}

.tees-hollow {
	stroke: #fff;
	stroke-width: 0.5px;
}

.hole {
	fill: #fff;
}

.distance-marker-100,
.distance-marker-close {
	fill: #44f;
	stroke: #00f;
	stroke-width: 1px;
}

.distance-marker-150,
.distance-marker-135,
.distance-marker,
.distance-marker-mid {
	fill: #f44;
	stroke: #f00;
	stroke-width: 1px;
}

.distance-marker-200,
.distance-marker-far {
	fill: #dd4;
	stroke: #ff0;
	stroke-width: 1px;
}

.green-region-delimiter {
	fill: none;
	stroke: #fff;
	stroke-width: 0.5;
	stroke-dasharray: 4,2;
}

.neutral {
	fill: none;
	stroke: #888;
	stroke-width: 1px;
}
.one-tree {
	fill: #14920D;
	stroke: #165822;
	stroke-width: 3px;
	stroke-linecap: round;
	stroke-linejoin: round; 
}

/* Classes for special decorative objects
 *
 */
.compass-center {
	fill: #ddd;
	stroke: #fff;
	stroke-width: 1px;
}
.compass-needle {
	fill: #ddd;
	stroke: #fff;
	stroke-width: 1px;
}
.compass-north {
	fill: #fff;
}
.flag-pole {
	fill: none;
	stroke: #f00;
	stroke-width: 2px;
}
.flag-flag {
	fill: #ff0;
	stroke: #f00;
	stroke-width: 1px;
}
.flag-cup {
	fill: #fff;
}
/* Information box */
.info-background {
	fill: #ddd;
}
.info-hole {
	font-family: Georgia, "Times New Roman", Times, serif;
	font-size: xx-large;
}
.info-par {
	font-family: Georgia, "Times New Roman", Times, serif;
	font-size: x-large;
}
.info-length {
	font-family: Georgia, "Times New Roman", Times, serif;
	font-size: large;
}
/* Circle for distances */
.circle-from-green {
	fill: none;
	stroke: #fff;
	stroke-width: 1px;
	stroke-dasharray: 4,4;
}
.circle-from-tee {
	fill: none;
	stroke: #f00;
	stroke-width: 1px;
	stroke-dasharray: 8,8;
}
/* Dynamic objects */
.target {
	fill: none;
	stroke: #f00;
	stroke-width: 2px;
}
.target-filled {
	fill: #f00;
	fill-opacity: 0.5;
	stroke: #f00;
}
.ball {
	fill: #fff;
	stroke: none;
}
.trajectory {
	fill: none;
	stroke: #fff;
	stroke-width: 2px;
}
.distance {
	fill: #fff;
}
</style>
      <linearGradient xmlns:g="http://code.google.com/p/golfml"
                      xmlns:xlink="http://www.w3.org/1999/xlink"
                      xmlns:xs="http://www.w3.org/2001/XMLSchema"
                      id="background-straight">
         <stop offset="5%" stop-color="#002"/>
         <stop offset="95%" stop-color="#004"/>
      </linearGradient>
      <linearGradient xmlns:g="http://code.google.com/p/golfml"
                      xmlns:xlink="http://www.w3.org/1999/xlink"
                      xmlns:xs="http://www.w3.org/2001/XMLSchema"
                      id="background-gradient"
                      gradientTransform="rotate(30)"
                      xlink:href="#background-straight"/>
      <linearGradient xmlns:g="http://code.google.com/p/golfml"
                      xmlns:xlink="http://www.w3.org/1999/xlink"
                      xmlns:xs="http://www.w3.org/2001/XMLSchema"
                      id="lateral-water-straight">
         <stop offset="5%" stop-color="#006"/>
         <stop offset="95%" stop-color="#008"/>
      </linearGradient>
      <linearGradient xmlns:g="http://code.google.com/p/golfml"
                      xmlns:xlink="http://www.w3.org/1999/xlink"
                      xmlns:xs="http://www.w3.org/2001/XMLSchema"
                      id="lateral-water-gradient"
                      gradientTransform="rotate(60)"
                      xlink:href="#lateral-water-straight"/>
      <linearGradient xmlns:g="http://code.google.com/p/golfml"
                      xmlns:xlink="http://www.w3.org/1999/xlink"
                      xmlns:xs="http://www.w3.org/2001/XMLSchema"
                      id="rough-straight">
         <stop offset="0%" stop-color="#030"/>
         <stop offset="25%" stop-color="#060"/>
         <stop offset="50%" stop-color="#040"/>
         <stop offset="75%" stop-color="#060"/>
         <stop offset="100%" stop-color="#080"/>
      </linearGradient>
      <linearGradient xmlns:g="http://code.google.com/p/golfml"
                      xmlns:xlink="http://www.w3.org/1999/xlink"
                      xmlns:xs="http://www.w3.org/2001/XMLSchema"
                      id="rough-gradient"
                      gradientTransform="rotate(70)"
                      xlink:href="#rough-straight"/>
      <linearGradient xmlns:g="http://code.google.com/p/golfml"
                      xmlns:xlink="http://www.w3.org/1999/xlink"
                      xmlns:xs="http://www.w3.org/2001/XMLSchema"
                      id="green-straight">
         <stop offset="0%" stop-color="#0d0"/>
         <stop offset="25%" stop-color="#0e0"/>
         <stop offset="50%" stop-color="#0c0"/>
         <stop offset="75%" stop-color="#0e0"/>
         <stop offset="100%" stop-color="#0b0"/>
      </linearGradient>
      <linearGradient xmlns:g="http://code.google.com/p/golfml"
                      xmlns:xlink="http://www.w3.org/1999/xlink"
                      xmlns:xs="http://www.w3.org/2001/XMLSchema"
                      id="green-gradient"
                      gradientTransform="rotate(75)"
                      xlink:href="#green-straight"/>
      <pattern xmlns:g="http://code.google.com/p/golfml"
               xmlns:xlink="http://www.w3.org/1999/xlink"
               xmlns:xs="http://www.w3.org/2001/XMLSchema"
               id="fairway-straight"
               patternUnits="userSpaceOnUse"
               x="0"
               y="0"
               width="20"
               height="20"
               viewBox="0 0 20 20">
         <rect x="0" y="0" width="10" height="10" fill="#00c000"/>
         <rect x="10" y="10" width="10" height="10" fill="#00c800"/>
         <rect x="10" y="0" width="10" height="10" fill="#00bc00"/>
         <rect x="0" y="10" width="10" height="10" fill="#00b800"/>
      </pattern>
      <pattern xmlns:g="http://code.google.com/p/golfml"
               xmlns:xlink="http://www.w3.org/1999/xlink"
               xmlns:xs="http://www.w3.org/2001/XMLSchema"
               id="fairway-pattern"
               patternTransform="rotate(60)"
               xlink:href="#fairway-straight"/>
      <g xmlns:g="http://code.google.com/p/golfml"
         xmlns:xlink="http://www.w3.org/1999/xlink"
         xmlns:xs="http://www.w3.org/2001/XMLSchema"
         id="Tree"
         transform="translate(-76 -66) scale(0.4)">
         <path class="one-tree"
               d="M191.991,126.799c-11.163,0-21.022,4.032-27.033,10.191c-17.556,0.615-31.556,11.151-31.556,24.079       c0,7.537,4.759,14.266,12.203,18.693c0.876,12.855,18.43,23.128,39.939,23.128c22.07,0,39.979-10.812,39.979-24.136       c0-0.065-0.012-0.13-0.013-0.195c6.33-2.866,10.33-6.992,10.33-11.595c0-4.806-4.343-9.104-11.164-11.977       c0.31-1.318,0.478-2.67,0.478-4.054C225.154,137.612,210.297,126.799,191.991,126.799z"/>
      </g>
      <g xmlns:g="http://code.google.com/p/golfml"
         xmlns:xlink="http://www.w3.org/1999/xlink"
         xmlns:xs="http://www.w3.org/2001/XMLSchema"
         id="TeeSet">
         <circle cx="-5" cy="0" r="2"/>
         <circle cx="5" cy="0" r="2"/>
      </g>
      <g xmlns:g="http://code.google.com/p/golfml"
         xmlns:xlink="http://www.w3.org/1999/xlink"
         xmlns:xs="http://www.w3.org/2001/XMLSchema"
         id="DistanceMarker">
         <circle r="6"/>
      </g>
      <g xmlns:g="http://code.google.com/p/golfml"
         xmlns:xlink="http://www.w3.org/1999/xlink"
         xmlns:xs="http://www.w3.org/2001/XMLSchema"
         id="Dogleg">
         <circle r="4"/>
      </g>
      <g xmlns:g="http://code.google.com/p/golfml"
         xmlns:xlink="http://www.w3.org/1999/xlink"
         xmlns:xs="http://www.w3.org/2001/XMLSchema"
         id="Aim">
         <circle r="4"/>
      </g>
      <g xmlns:g="http://code.google.com/p/golfml"
         xmlns:xlink="http://www.w3.org/1999/xlink"
         xmlns:xs="http://www.w3.org/2001/XMLSchema"
         id="Hole">
         <circle r="2"/>
      </g>
      <g xmlns:g="http://code.google.com/p/golfml"
         xmlns:xlink="http://www.w3.org/1999/xlink"
         xmlns:xs="http://www.w3.org/2001/XMLSchema"
         id="Ball">
         <image xlink:href="../stylesheets/images/golf-ball.png" width="16" height="16"
                transform="translate(-8 -8)"/>
      </g>
      <g xmlns:g="http://code.google.com/p/golfml"
         xmlns:xlink="http://www.w3.org/1999/xlink"
         xmlns:xs="http://www.w3.org/2001/XMLSchema"
         id="Target">
         <circle class="target-filled" r="12"/>
      </g>
      <g xmlns:g="http://code.google.com/p/golfml"
         xmlns:xlink="http://www.w3.org/1999/xlink"
         xmlns:xs="http://www.w3.org/2001/XMLSchema"
         id="Flag"
         transform="translate(0 -30) scale(-0.2 0.2)">
         <line id="FlagPole" class="flag-pole" x1="0.5" y1="0" x2="0.5" y2="150"/>
         <circle id="FlagCup" class="flag-cup" r="10" cx="0" cy="145"/>
         <g id="FlagFlag">
            <path class="flag-flag"
                  d="M55.339,45.968c-18.28-14.516-36.559,14.516-54.839,0c0-12.097,0-24.193,0-36.29        c18.28,14.516,36.559-14.516,54.839,0C55.339,21.774,55.339,33.871,55.339,45.968z"/>
         </g>
      </g>
      <g xmlns:g="http://code.google.com/p/golfml"
         xmlns:xlink="http://www.w3.org/1999/xlink"
         xmlns:xs="http://www.w3.org/2001/XMLSchema"
         id="Compass">
         <polygon id="CompassNeedle" class="compass-needle" points="0,30 -8,0 0,-20 8,0"/>
         <circle id="CompassCenter" class="compass-center" r="10"/>
         <text id="CompassNorth" class="compass-north" x="-4.7" y="40">N</text>
      </g>
      <g xmlns:g="http://code.google.com/p/golfml"
         xmlns:xlink="http://www.w3.org/1999/xlink"
         xmlns:xs="http://www.w3.org/2001/XMLSchema"
         id="GolfMLLogoSmall">
         <image xlink:href="../stylesheets/images/golfml-small.png" width="80" height="15"/>
      </g>
   </defs>
   <rect class="background" x="0" y="0" width="600" height="600"/>
   <g transform="translate(300,300) scale(-0.995524692465931,0.995524692465931) rotate(-95.42264498225599)">
      <path class="hole-contour"
            d="M-271.4268485302614,-55.274472438745846Q-271.4268485302614,-55.274472438745846 -282.85610911295703,-62.059173734840556 L-288.57073940430485,-65.45152438288791Q-299.9999999870005,-72.23622567898262 -291.9427177203385,-83.89820516315277 L-287.91407658700757,-89.72919490523785Q-279.8567943203456,-101.391174389408 -232.63531284126418,-73.21197850859498 L-209.02457210172344,-59.12238056818849Q-161.803090622642,-30.943184687375485 -144.60103024641492,-35.73080848806285 L-136.0000000583014,-38.12462038840653Q-118.79793968207433,-42.91224418909389 -113.82539334290468,-44.47845166210832 L-111.33912017331984,-45.261555398615535Q-106.36657383415019,-46.827762871629965 -91.96977195622785,-20.207249324241154 L-84.77137101726667,-6.896992550546749Q-70.37456913934433,19.723520996842062 -54.98543726262978,24.799114001381213 L-47.2908713242725,27.336910503650792Q-31.901739447557954,32.41250350818994 34.717842557860365,22.86834494969494 L68.02763356056951,18.096265670447437Q134.64721556598784,8.552107111952436 184.26420002971525,-0.512502078568982 L209.07269226157894,-5.044806673829692Q258.68967672530636,-14.10941586435111 270.8647521102531,-14.03273160522871 L276.95228980272645,-13.994389475667509Q289.1273651876732,-13.917705216545109 293.4764191024461,-0.9078945529391618 L295.65094605983245,5.597010778863808Q299.9999999746053,18.606821442469755 294.8897473332111,28.41442163261451 L292.334621012514,33.31822172768688Q287.2243683711198,43.12582191783164 278.1749946675029,45.76486906794109 L273.65030781569453,47.08439264299582Q264.60093411207765,49.72343979310528 220.42192491452116,59.76639682798452 L198.3324203157429,64.78787534542414Q154.1534111181864,74.83083238030339 126.37001194111855,82.86524720131082 L112.47831235258462,86.88245461181452Q84.69491317551676,94.91686943282195 65.11965226613736,97.50783437900127 L55.33202181144768,98.80331685209092Q35.756760902068294,101.39428179827023 14.588099018336724,100.66133445745972 L4.003768076470941,100.29486078705445Q-17.16489380726063,99.56191344624393 -38.07359243457434,98.45309882333373 L-48.52794174823118,97.89869151187862Q-69.43664037554488,96.78987688896842 -90.23571202950392,89.087897797962 L-100.63524785648342,85.2369082524588Q-121.43431951044245,77.53492916145238 -133.3830218444475,71.50217222257739 L-139.35737301145002,68.48579375313989Q-151.30607534545507,62.45303681426489 -153.77494977093704,50.74345654403034 L-155.00938698367804,44.88866640891306Q-157.47826140916,33.17908613867851 -203.05769625760058,-2.20233729229124 L-225.84741368182085,-19.8930490077761Q-271.4268485302614,-55.274472438745846 -271.4268485302614,-55.274472438745846 Z"/>
      <clipPath id="HoleContour" transform="scale(1.2)">
         <path class="hole-contour"
               d="M-271.4268485302614,-55.274472438745846Q-271.4268485302614,-55.274472438745846 -282.85610911295703,-62.059173734840556 L-288.57073940430485,-65.45152438288791Q-299.9999999870005,-72.23622567898262 -291.9427177203385,-83.89820516315277 L-287.91407658700757,-89.72919490523785Q-279.8567943203456,-101.391174389408 -232.63531284126418,-73.21197850859498 L-209.02457210172344,-59.12238056818849Q-161.803090622642,-30.943184687375485 -144.60103024641492,-35.73080848806285 L-136.0000000583014,-38.12462038840653Q-118.79793968207433,-42.91224418909389 -113.82539334290468,-44.47845166210832 L-111.33912017331984,-45.261555398615535Q-106.36657383415019,-46.827762871629965 -91.96977195622785,-20.207249324241154 L-84.77137101726667,-6.896992550546749Q-70.37456913934433,19.723520996842062 -54.98543726262978,24.799114001381213 L-47.2908713242725,27.336910503650792Q-31.901739447557954,32.41250350818994 34.717842557860365,22.86834494969494 L68.02763356056951,18.096265670447437Q134.64721556598784,8.552107111952436 184.26420002971525,-0.512502078568982 L209.07269226157894,-5.044806673829692Q258.68967672530636,-14.10941586435111 270.8647521102531,-14.03273160522871 L276.95228980272645,-13.994389475667509Q289.1273651876732,-13.917705216545109 293.4764191024461,-0.9078945529391618 L295.65094605983245,5.597010778863808Q299.9999999746053,18.606821442469755 294.8897473332111,28.41442163261451 L292.334621012514,33.31822172768688Q287.2243683711198,43.12582191783164 278.1749946675029,45.76486906794109 L273.65030781569453,47.08439264299582Q264.60093411207765,49.72343979310528 220.42192491452116,59.76639682798452 L198.3324203157429,64.78787534542414Q154.1534111181864,74.83083238030339 126.37001194111855,82.86524720131082 L112.47831235258462,86.88245461181452Q84.69491317551676,94.91686943282195 65.11965226613736,97.50783437900127 L55.33202181144768,98.80331685209092Q35.756760902068294,101.39428179827023 14.588099018336724,100.66133445745972 L4.003768076470941,100.29486078705445Q-17.16489380726063,99.56191344624393 -38.07359243457434,98.45309882333373 L-48.52794174823118,97.89869151187862Q-69.43664037554488,96.78987688896842 -90.23571202950392,89.087897797962 L-100.63524785648342,85.2369082524588Q-121.43431951044245,77.53492916145238 -133.3830218444475,71.50217222257739 L-139.35737301145002,68.48579375313989Q-151.30607534545507,62.45303681426489 -153.77494977093704,50.74345654403034 L-155.00938698367804,44.88866640891306Q-157.47826140916,33.17908613867851 -203.05769625760058,-2.20233729229124 L-225.84741368182085,-19.8930490077761Q-271.4268485302614,-55.274472438745846 -271.4268485302614,-55.274472438745846 Z"/>
      </clipPath>
      <path class="tee"
            d="M-284.98732844185076,-78.27462729702052Q-284.98732844185076,-78.27462729702052 -283.39366876636075,-80.84713714597527 L-282.59683892861574,-82.13339207045263Q-281.0031792531257,-84.70590191940738 -267.48972076896035,-75.55335019731788 L-260.73299152687764,-70.97707433627313Q-247.2195330427123,-61.82452261418363 -248.65046840430168,-58.955899254717856 L-249.3659360850964,-57.52158757498498Q-250.79687144668577,-54.652964215519205 -264.4730542447518,-64.10162944811972 L-271.31114564378476,-68.82596206442Q-284.98732844185076,-78.27462729702052 -284.98732844185076,-78.27462729702052 Z"/>
      <path class="tee"
            d="M-193.62353315967613,17.451220100345463Q-193.62353315967613,17.451220100345463 -197.8868371046817,16.709790743616423 L-200.01848907718448,16.339076065251902Q-204.28179302219004,15.597646708522863 -204.51234727885824,14.336281551630899 L-204.62762440719237,13.705598973184916Q-204.85817866386057,12.444233816292952 -205.19496167977283,10.007398440621719 L-205.363353187729,8.788980752786102Q-205.70013620364125,6.35214537711487 -203.0056000149837,5.64232642929087 L-201.65833192065497,5.287416955378871Q-198.96379573199744,4.577598007554871 -195.6657264463027,5.386851153770819 L-194.01669180345533,5.791477726878793Q-190.7186225177606,6.600730873094742 -186.27224167116748,8.938103321094363 L-184.04905124787095,10.106789545094173Q-179.60267040127783,12.444161993093795 -179.74287745444687,15.837196288215075 L-179.81298098103142,17.533713435775717Q-179.95318803420045,20.926747730896995 -185.42132608439073,19.53653667867638 L-188.15539510948585,18.841431152566077Q-193.62353315967613,17.451220100345463 -193.62353315967613,17.451220100345463 Z"/>
      <path class="fairway"
            d="M284.45821242174395,33.00558321405562Q284.45821242174395,33.00558321405562 281.26631080169307,35.17410960948226 L279.6703599916677,36.25837280719557Q276.4784583716168,38.42689920262221 273.87353985816236,40.15442216954312 L272.5710806014352,41.018183653003575Q269.96616208798076,42.74570661992448 266.00169764527953,42.969263994541016 L264.019465423929,43.08104268184929Q260.05500098122775,43.30460005646582 256.18445775354706,41.75867340491465 L254.2491861397067,40.98571007913906Q250.37864291202598,39.43978342758789 247.41965428428514,39.22934161620416 L245.9401599704147,39.1241207105123Q242.98117134267386,38.91367889912857 237.61527319826033,40.14429126067894 L234.93232412605354,40.75959744145412Q229.56642598164,41.99020980300449 224.6850292925186,43.13232867832572 L222.24433094795788,43.70338811598634Q217.36293425883648,44.84550699130757 208.36258066020042,45.82227215588406 L203.86240386088238,46.3106547381723Q194.86205026224633,47.28741990274879 186.9347714633943,49.57019045910015 L182.97113206396827,50.71157573727582Q175.04385326511624,52.99434629362718 168.43806435787474,55.202602583402935 L165.135169904254,56.30673072829081Q158.5293809970125,58.51498701806656 151.8871173871818,60.98027327211822 L148.56598558226648,62.21291639914404Q141.92372197243577,64.6782026531957 135.4778325800433,65.02152232363918 L132.25488788384706,65.1931821588609Q125.8089984914546,65.53650182930438 121.02152112597635,64.90926499785996 L118.62778244323722,64.59564658213776Q113.84030507775897,63.96840975069335 110.15378662262951,62.97312476846823 L108.3105273950648,62.475482277355674Q104.62400893993534,61.48019729513056 80.01753278762985,65.64282144442376 L67.71429471147712,67.72413351907036Q43.10781855917163,71.88675766836356 27.816006607252625,73.59649732284166 L20.170100631293117,74.4513671500807Q4.878288679374108,76.1611068045588 -5.455505070174506,75.95611504620445 L-10.62240194494881,75.85361916702726Q-20.956195694497424,75.64862740867291 -29.27401908769007,76.2508914075922 L-33.43293078428639,76.55202340705186Q-41.75075417747904,77.15428740597116 -48.71063147979886,77.42496537289284 L-52.190570130958776,77.5603043563537Q-59.1504474332786,77.83098232327538 -65.16391432267004,77.34459936364334 L-68.17064776736576,77.1014078838273Q-74.1841146567572,76.61502492419527 -77.79771562656809,75.10591640585463 L-79.60451611147353,74.35136214668431Q-83.21811708128442,72.84225362834367 -86.2673247388271,70.3120926381899 L-87.79192856759843,69.04701214311302Q-90.84113622514111,66.51685115295925 -94.07440583357554,63.436220370642495 L-95.69104063779275,61.895904979484115Q-98.92431024622718,58.81527419716736 -103.2220726423633,55.845768823701896 L-105.37095384043137,54.36101613696917Q-109.66871623656749,51.3915107635037 -116.08851234172953,48.22576322704952 L-119.29841039431055,46.64288945882243Q-125.71820649947259,43.47714192236825 -131.53552152201354,40.868854508226406 L-134.44417903328403,39.564710801155485Q-140.26149405582498,36.95642338701364 -142.9303623319182,32.85473787979356 L-144.2647964699648,30.80389512618352Q-146.933664746058,26.702209618963433 -147.9291280038792,22.62840557205476 L-148.42685963278984,20.591503548600425Q-149.42232289061104,16.51769950169175 -147.88374578675644,13.065491951945772 L-147.11445723482916,11.339388177072781Q-145.57588013097455,7.887180627326802 -142.60431854291477,5.424795698914385 L-141.1185377488849,4.193603234708176Q-138.14697616082512,1.731218306295759 -134.25528065475618,2.0212592406985954 L-132.3094329017217,2.1662797079000136Q-128.41773739565275,2.4563206423028503 -121.70259550410707,7.237038133593234 L-118.34502455833423,9.627396879238425Q-111.62988266678855,14.408114370528809 -104.95307134704535,17.610367472538268 L-101.61466568717377,19.211494023542997Q-94.93785436743057,22.413747125552458 -90.39003963060821,25.838245119174946 L-88.11613226219703,27.55049411598619Q-83.56831752537467,30.974992109608678 -78.4544505568908,35.21393917987238 L-75.89751707264887,37.33341271500423Q-70.783650104165,41.572359785267935 -65.39888312723252,45.01079940188581 L-62.70649963876628,46.73001921019475Q-57.3217326618338,50.168458826812625 -51.73370991352614,51.06640979954818 L-48.939698539372316,51.51538528591597Q-43.351675791064665,52.413336258651526 -38.52239562676324,50.52939563809246 L-36.10775554461253,49.58742532781292Q-31.27847538031111,47.70348470725386 -17.638230634761182,46.54580370797058 L-10.81810826198622,45.96696320832894Q2.822136483563709,44.80928220904566 11.388379420404341,42.826611964171576 L15.671500888824658,41.83527684173454Q24.23774382566529,39.852606596860454 33.98817150452989,40.24038790926485 L38.86338534396219,40.43427856546705Q48.61381302282679,40.82205987787144 61.05066774122156,40.38524188056168 L67.26909510041895,40.16683288190679Q79.70594981881372,39.73001488459703 86.46627638719076,37.91062206716512 L89.84643967137929,37.00092565844917Q96.60676623975633,35.18153284101726 103.45564344677788,33.8466606828059 L106.88008205028865,33.17922460370021Q113.72895925731021,31.84435244548885 117.54588213014132,30.813158966782815 L119.45434356655687,30.2975622274298Q123.27126643938799,29.266368748723767 125.36376484261592,29.301263740268748 L126.4100140442299,29.31871123604124Q128.50251244745783,29.35360622758622 131.1539439629527,30.960912400789248 L132.47965972070014,31.76456548739076Q135.131091236195,33.37187166059379 138.67866238896357,34.97670410494012 L140.45244796534783,35.77912032711328Q144.0000191181164,37.38395277145961 146.7696100329686,39.29782903049939 L148.1544054903947,40.25476716001929Q150.9239964052469,42.16864341905907 153.78748098977724,42.31302055201158 L155.21922328204244,42.38520911848783Q158.08270786657278,42.529586251440335 159.97560431345113,41.01550145653372 L160.92205253689028,40.25845905908041Q162.81494898376863,38.74437426417379 164.61932287828307,36.74579477735316 L165.52150982554028,35.746505033942846Q167.32588372005472,33.747925547122215 170.03324710616306,31.66781562136623 L171.38692879921723,30.627760658488235Q174.09429218532557,28.54765073273225 177.79317620082196,26.870511570902906 L179.64261820857013,26.031941989988237Q183.34150222406652,24.354802828158892 187.44493257141795,23.521661847305918 L189.49664774509367,23.105091356879427Q193.6000780924451,22.271950376026453 198.07854868267643,22.121312757950893 L200.31778397779206,22.045993948913114Q204.7962545680234,21.895356330837554 208.9742623645797,22.38374140145113 L211.0632662628578,22.627933936757916Q215.2412740594141,23.11631900737149 218.57371318542013,22.17373438922603 L220.23993274842312,21.702442080153297Q223.57237187442914,20.759857462007837 225.1787829446316,19.047816653213086 L225.98198847973285,18.191796248815713Q227.5883995499353,16.479755440020963 228.17378358350376,14.2032377112434 L228.46647560028796,13.064978846854618Q229.05185963385642,10.788461118077056 228.97729543870454,9.46696198777508 L228.94001334112858,8.806212422624094Q228.8654491459767,7.48471329232212 228.15186865476647,5.862727551292502 L227.7950784091614,5.051734680777693Q227.08149791795117,3.429748939748075 226.72042298984556,1.9102562529495146 L226.53988552579278,1.1505099095502345Q226.17881059768717,-0.3689827772483258 227.13225204748926,-1.5445069376178109 L227.60897277239033,-2.132269017802553Q228.56241422219242,-3.307793178172038 229.88391058255564,-3.3823221394645087 L230.54465876273727,-3.4195866201107443Q231.8661551231005,-3.4941155814032148 232.9966445516629,-3.700641455212938 L233.5618892659441,-3.8039043921177997Q234.69237869450652,-4.010430265927523 235.91139517209533,-3.732453408526792 L236.52090341088976,-3.593464979826426Q237.73991988847857,-3.315488122425695 239.65537786731818,-4.249526819902966 L240.61310685673797,-4.716546168641601Q242.52856483557758,-5.650584866118872 244.56205289981858,-5.938623657246339 L245.57879693193908,-6.082643052810072Q247.61228499618008,-6.370681843937539 248.74277930147386,-6.577200460301677 L249.30802645412075,-6.680459768483747Q250.43852075941453,-6.886978384847885 252.20104859524386,-6.37450631108025 L253.0823125131585,-6.1182702741964325Q254.84484034898784,-5.605798200428797 257.50859339446436,-5.390079711103029 L258.84046991720265,-5.282220466440145Q261.5042229626792,-5.066501977114377 264.2792002207143,-5.406545640801994 L265.6666888497318,-5.576567472645802Q268.44166610776693,-5.91661113633342 270.5411442381295,-6.300140263455711 L271.5908833033108,-6.491904827016857Q273.6903614336734,-6.875433954139148 276.36285523866604,-6.862970279623422 L277.6991021411624,-6.856738442365559Q280.3715959461551,-6.844274767849833 282.5091368914588,-5.6493031768212205 L283.5779073641107,-5.051817381306914Q285.7154483094144,-3.8568457902783013 287.07656896777564,-0.5173752319815108 L287.75712929695624,1.1523600471668827Q289.1182499553175,4.491830605463673 289.4148764196881,7.942311551982844 L289.5631896518734,9.667552025242431Q289.859816116244,13.118032971761602 289.87692344847676,15.95201837298126 L289.88547711459313,17.36901107359109Q289.90258444682587,20.202996474810746 289.43519633057144,23.12548399576263 L289.2015022724442,24.58672775623857Q288.7341141561898,27.509215277190453 287.02375346241143,29.70776245193652 L286.1685731155223,30.80703603930955Q284.45821242174395,33.00558321405562 284.45821242174395,33.00558321405562 Z"/>
      <path class="greenside-trap"
            d="M262.4991082823136,39.68247504669628Q262.4991082823136,39.68247504669628 260.89116136266045,39.61587665630483 L260.0871879028338,39.582577461109096Q258.47924098318066,39.51597907071764 256.1868168884803,38.80226593114145 L255.04060484113012,38.445409361353356Q252.74818074642977,37.73169622177716 252.49334268375839,36.3368844694964 L252.36592365242268,35.63947859335601Q252.1110855897513,34.244666841075244 253.3334426755575,33.609543268268986 L253.94462121846058,33.291981481865854Q255.1669783042668,32.656857909059596 257.3726976293632,32.614252053332805 L258.4755572919114,32.59294912546942Q260.6812766170078,32.550343269742626 262.58811037081955,32.56234091831648 L263.5415272477254,32.568339742603406Q265.44836100153714,32.58033739117726 266.44130890125444,33.788833059281444 L266.9377828511131,34.39308089333353Q267.93073075083043,35.60157656143772 267.256813316843,36.70275848893481 L266.91985459984926,37.25334945268336Q266.24593716586185,38.354531380180454 264.74720561244254,38.885708846786784 L263.9978398357329,39.15129758008995Q262.4991082823136,39.68247504669628 262.4991082823136,39.68247504669628 Z"/>
      <path class="greenside-trap"
            d="M231.82579811317638,14.785722202629854Q231.82579811317638,14.785722202629854 231.36739112955027,13.685488737726034 L231.13818763773725,13.135372005274126Q230.67978065411114,12.035138540370307 231.1319272421438,11.128898782585907 L231.35800053616012,10.675778903693708Q231.81014712419278,9.769539145909308 232.4433488944374,8.72726726277635 L232.7599497795597,8.206131321209869Q233.39315154980432,7.16385943807691 232.77189264928455,6.2992869762469805 L232.46126319902467,5.867000745332016Q231.8400042985049,5.002428283502086 230.76561976247197,3.9117738861655327 L230.2284274944555,3.3664466874972563Q229.15404295842256,2.275792290160703 228.73204074223483,1.3748177818684115 L228.52103963414095,0.9243305277222658Q228.0990374179532,0.02335601942997423 228.39263972933588,-0.9053972214498539 L228.53944088502723,-1.369773841889768Q228.8330431964099,-2.298527082769596 230.00607975908744,-2.358396441646917 L230.5925980404262,-2.3883311210855775Q231.76563460310373,-2.4482004799628987 232.92144523298404,-1.4753757524269506 L233.49935054792422,-0.9889633886589767Q234.65516117780453,-0.016138661123028752 235.91490489411885,0.6803143049674676 L236.544776752276,1.0285407880127158Q237.8045204685903,1.724993754103212 239.12651186153832,1.0716633137306235 L239.78750755801235,0.7449980935443293Q241.10949895096036,0.0916676531717407 242.31796492822042,-0.901262016437844 L242.92219791685045,-1.397726851242636Q244.1306638941105,-2.390656520852221 245.27160081669314,-2.907953011614241 L245.84206927798442,-3.1666012569952517Q246.98300620056705,-3.683897747757272 248.1110217544686,-3.426672383485461 L248.67502953141937,-3.298059701349556Q249.80304508532092,-3.040834337077745 250.68247580228325,-2.171945950594503 L251.12219116076443,-1.7375017573528824Q252.00162187772676,-0.8686133708696405 252.07971512568398,0.40405271268137943 L252.11876174966258,1.040385754456889Q252.1968549976198,2.313051838007909 251.51765587469777,2.540086011257668 L251.17805631323674,2.653603097882548Q250.4988571903147,2.880637271132307 248.81475803541417,3.8060238749747186 L247.97270845796393,4.268717176895924Q246.2886093030634,5.194103780738336 244.63660915720385,6.576925633946974 L243.81060908427406,7.268336560551292Q242.15860893841452,8.65115841375993 240.3566797766515,9.495120867721509 L239.45571519577,9.9171020947023Q237.653786034007,10.761064548663878 236.49562448033748,12.311058761445647 L235.91654370350273,13.086055867836532Q234.7583821498332,14.6360500806183 233.58534853517048,14.695918929422922 L232.9988317278391,14.725853353825233Q231.82579811317638,14.785722202629854 231.82579811317638,14.785722202629854 Z"/>
      <path class="fairway-trap"
            d="M157.00561112152036,40.39897153333706Q157.00561112152036,40.39897153333706 156.126173546894,39.967853677820266 L155.68645475958084,39.75229475006187Q154.80701718495447,39.321176894545076 154.39270404641368,38.38733641818556 L154.18554747714327,37.92041618000581Q153.77123433860248,36.986575703646295 153.97850516181916,35.834730182159575 L154.08214057342752,35.25880742141622Q154.2894113966442,34.1069618999295 153.76788210758605,33.157898969273276 L153.507117463057,32.68336750394516Q152.98558817399885,31.734304573288938 152.3821352631636,31.670502914058943 L152.08040880774598,31.638602084443942Q151.47695589691074,31.574800425213947 150.77277715359668,31.912332026067375 L150.42068778193962,32.08109782649409Q149.71650903862556,32.41862942734752 148.96084881171248,33.42698978992065 L148.58301869825596,33.931169971207204Q147.82735847134288,34.93953033378033 146.92687927662934,34.96481151672517 L146.47663967927255,34.977452108197596Q145.576160484559,35.002733291142434 144.65687848387478,34.54408712544806 L144.19723748353266,34.31476404260086Q143.27795548284843,33.85611787690649 143.267883139177,32.84841798828274 L143.26284696734126,32.34456804397087Q143.25277462366984,31.336868155347123 143.89539941429234,30.66246469859871 L144.21671180960357,30.325262970224504Q144.85933660022607,29.650859513476092 145.49256034887594,28.734492530959734 L145.80917222320085,28.27630903970155Q146.44239597185071,27.359942057185194 146.03457190196906,26.84265752636172 L145.8306598670282,26.584015260949982Q145.42283579714655,26.06673073012651 144.60203998279127,26.147076391707497 L144.19164207561363,26.18724922249799Q143.37084626125835,26.267594884078978 142.20087051452703,26.342117689145798 L141.61588264116136,26.379379091679205Q140.44590689443004,26.453901896746025 139.29115146790528,26.421209171531363 L138.71377375464292,26.40486280892403Q137.55901832811816,26.372170083709367 136.82954517549052,25.80922103151372 L136.46480859917673,25.52774650541589Q135.7353354465491,24.964797453220243 135.4007038988511,24.08602221015292 L135.23338812500208,23.646634588619257Q134.89875657730408,22.767859345551933 135.2009297350284,21.563861036541013 L135.3520163138906,20.961861882035553Q135.65418947161493,19.757863573024633 136.85460808607854,19.46890673330218 L137.45481739331032,19.324428313440954Q138.65523600777394,19.035471473718502 139.9939834376459,19.313041173957675 L140.66335715258188,19.45182602407726Q142.00210458245385,19.729395724316433 143.19088332045655,20.138802122235102 L143.7852726894579,20.34350532119444Q144.9740514274606,20.752911719113108 146.32219889559192,21.272447467609044 L146.9962726296576,21.532215341857015Q148.3444200977889,22.05175109035295 149.2449007536318,22.026470845969072 L149.69514108155326,22.013830723777133Q150.59562173739616,21.988550479393254 151.30562123914146,21.30183907803241 L151.66062099001414,20.958483377351982Q152.37062049175944,20.271771975991136 152.45545460266334,19.211920370638925 L152.49787165811532,18.681994567962818Q152.5827057690192,17.622142962610607 152.10101731203278,16.7006124912105 L151.8601730835396,16.239847255510448Q151.37848462655316,15.318316784110342 151.77265581481066,14.236758704779344 L151.96974140893943,13.695979665113844Q152.36391259719693,12.614421585782846 153.1260663812452,12.022616496693958 L153.50714327326935,11.726713952149515Q154.26929705731763,11.134908863060627 155.22484217180065,11.029946091717598 L155.70261472904212,10.977464706046085Q156.65815984352514,10.872501934703056 157.63899645653737,11.668023212531267 L158.12941476304348,12.065783851445374Q159.11025137605571,12.861305129273585 159.0471278266783,14.230494699287824 L159.01556605198957,14.915089484294946Q158.95244250261214,16.284279054309184 158.316306600056,17.37523358124365 L157.9982386487779,17.92071084471088Q157.36210274622178,19.011665371645343 157.00777321119367,20.120755460838183 L156.83060844367964,20.675300505434606Q156.47627890865152,21.784390594627446 157.28543413193336,22.40240901967563 L157.69001174357427,22.711418232199726Q158.4991669668561,23.32943665724791 159.60758913074446,22.918049024105493 L160.16180021268866,22.712355207534287Q161.270222376577,22.30096757439187 162.5561449622155,21.717903609824496 L163.1991062550348,21.42637162754081Q164.4850288406733,20.843307662973437 165.60934169743751,21.090440907956648 L166.1714981258196,21.21400753044825Q167.29581098258382,21.46114077543146 168.10496566565124,22.07916067120909 L168.50954300718496,22.388170619097906Q169.31869769025238,23.006190514875538 169.10560397159085,24.507215571210352 L168.99905711226012,25.257728099377758Q168.7859633935986,26.758753155712572 168.04552154259937,27.65989288404784 L167.67530061709977,28.11046274821547Q166.93485876610055,29.011602476550735 165.70042004329838,28.92383748274592 L165.08320068189732,28.879954985843515Q163.84876195909516,28.7921899920387 163.12869246585456,28.47119957700354 L162.76865771923428,28.310704369485958Q162.04858822599368,27.989713954450796 160.83877137164703,28.036698522723608 L160.2338629444737,28.060190806860014Q159.02404609012706,28.107175375132826 158.27420445677794,28.766353228425253 L157.8992836401034,29.09594215507147Q157.14944200675427,29.755120008363896 157.05229696675923,30.74759698156889 L157.0037244467617,31.24383546817139Q156.90657940676667,32.236312441376384 157.65484987248436,33.28319505163676 L158.0289851053432,33.806636356766944Q158.7772555710609,34.85351896702732 159.09374626424,36.01414074261431 L159.25199161082955,36.594451630407804Q159.56848230400865,37.75507340599479 158.54333383101334,38.8126326569317 L158.03075959451567,39.34141228240016Q157.00561112152036,40.39897153333706 157.00561112152036,40.39897153333706 Z"/>
      <path class="green"
            d="M244.04436562693212,30.971036285488346Q244.04436562693212,30.971036285488346 241.9600314192793,29.132553359895223 L240.91786431545287,28.21331189709866Q238.83353010780004,26.374828971505536 238.52310472344604,23.54880657524984 L238.36789203126907,22.135795377121994Q238.05746664691506,19.3097729808663 238.66287605765248,17.551896682862836 L238.96558076302122,16.672958533861106Q239.57099017375864,14.915082235857641 243.31421507875777,12.017721105828398 L245.18582753125736,10.569040540813777Q248.92905243625648,7.671679410784535 253.86352154119623,4.814098502334092 L256.33075609366614,3.385308048108871Q261.2652251986059,0.5277271396584277 263.9585390342826,-1.3541746752789035 L265.3051959521209,-2.295125582747569Q267.9985097877976,-4.1770273976849 271.10187019647884,-3.2511016286425054 L272.6535504008194,-2.788138744121308Q275.75691080950065,-1.8622129750789134 277.4161354846163,-0.10622296093191874 L278.24574782217417,0.7717720461415782Q279.9049724972898,2.527762060288573 281.46984557001815,5.176103906571384 L282.25228210638227,6.500274829712788Q283.8171551791106,9.1486166759956 284.4532695181865,11.503323204992475 L284.77132668772447,12.680676469490912Q285.40744102680037,15.035382998487787 285.24652625168017,17.535688930769453 L285.16606886412006,18.785841896910288Q285.00515408899986,21.286147829191954 284.56689751425614,22.55018547366582 L284.3477692268843,23.182204295902757Q283.90951265214056,24.446241940376623 282.4074375649946,26.367907341146154 L281.6564000214216,27.328740041530917Q280.1543249342756,29.250405442300448 278.35336704010484,31.226674211226587 L277.45288809301945,32.214808595689654Q275.6519301988487,34.19107736461579 272.65682794201626,32.73060337871428 L271.15927681360006,32.00036638576352Q268.16417455676765,30.539892399862005 265.4646201650161,30.415321514251517 L264.11484296914034,30.35303607144627Q261.41528857738876,30.22846518583578 258.07294319085105,30.530191297358865 L256.4017704975822,30.681054353120405Q253.05942511104448,30.98278046464349 251.0582434813778,31.863140039407043 L250.0576526665444,32.303319826788815Q248.05647103687772,33.18367940155237 246.45162887289948,32.29862215512676 L245.64920779091037,31.856093531913956Q244.04436562693212,30.971036285488346 244.04436562693212,30.971036285488346 Z"/>
      <path class="trees"
            d="M-94.56547197456757,-52.174359970164495Q-94.56547197456757,-52.174359970164495 -90.21788826256041,-47.16702879555258 L-88.04409640655682,-44.66336320824662Q-83.69651269454965,-39.65603203363471 -82.14159660133798,-34.527472933626264 L-81.36413855473215,-31.96319338362204Q-79.80922246152048,-26.834634283613592 -74.32856798041932,-20.277701647949414 L-71.58824073986874,-16.99923533011733Q-66.10758625876758,-10.442302694453153 -61.881517618555876,-5.16322569422202 L-59.76848329845003,-2.5236871941064556Q-55.54241465823832,2.755389806124677 -51.05040797945133,8.022930517943864 L-48.804404640057825,10.65670087385346Q-44.31239796127083,15.924241585672647 -43.57273834957627,20.688486754868464 L-43.20290854372898,23.070609339466372Q-42.46324893203442,27.83485450866219 -49.320572465498344,29.464812264807012 L-52.74923423223031,30.27979114287942Q-59.60655776569424,31.909748899024244 -66.7930850334637,29.024140630773868 L-70.38634866734843,27.581336496648678Q-77.57287593511789,24.695728228398302 -82.63147718499484,18.653425685342636 L-85.16077780993331,15.632274413814805Q-90.21937905981025,9.589971870759141 -96.14517487639938,1.9865420399136244 L-99.10807278469396,-1.815172875509134Q-105.03386860128309,-9.418602706354651 -109.43895512049048,-18.820078084352353 L-111.64149838009416,-23.520815773351202Q-116.04658489930155,-32.9222911513489 -115.67027998773601,-39.600257957359915 L-115.48212753195325,-42.939241360365415Q-115.10582262038771,-49.61720816637643 -111.104537307063,-52.58881084813378 L-109.10389465040063,-54.07461218901246Q-105.10260933707592,-57.046214870769816 -100.88775439207258,-55.097472910527685 L-98.78032691957091,-54.12310193040663Q-94.56547197456757,-52.174359970164495 -94.56547197456757,-52.174359970164495 Z"/>
      <path class="trees"
            d="M32.81201816402052,91.89669227649895Q32.81201816402052,91.89669227649895 29.947902544422597,88.85321808994833 L28.515844734623634,87.33148099667302Q25.651729115025706,84.2880068101224 28.712695801677253,80.37157860227046 L30.243179145003026,78.41336449834448Q33.30414583165457,74.49693629049254 34.4656678009095,72.81596354904876 L35.04642878553697,71.97547717832688Q36.207950754791895,70.2945044368831 40.9890476035403,70.05025221559188 L43.379596027914495,69.92812610494627Q48.1606928766629,69.68387388365505 53.033517431796014,68.7934265684776 L55.46992970936257,68.34820291088887Q60.34275426449568,67.45775559571142 60.95390944859338,69.65405012641712 L61.25948704064222,70.75219739176995Q61.87064222473992,72.94849192247565 58.696298072321326,73.94819358120488 L57.10912599611203,74.44804441056948Q53.934781843693436,75.4477460692987 51.223192978635865,77.83159759230797 L49.867398546107076,79.02352335381259Q47.155809681049504,81.40737487682186 46.216901429016545,84.30655800896982 L45.74744730300007,85.75614957504379Q44.80853905096711,88.65533270719175 40.009930696188476,89.95187653491463 L37.61062651879916,90.60014844877607Q32.81201816402052,91.89669227649895 32.81201816402052,91.89669227649895 Z"/>
      <path class="trees"
            d="M161.9241457671938,69.3536504592043Q161.9241457671938,69.3536504592043 160.9244924314065,66.17925038906921 L160.42466576351282,64.59205035400166Q159.4250124277255,61.417650283866564 170.07457208495953,58.84248298555126 L175.39935191357657,57.554899336393596Q186.0489115708106,54.97973203807829 187.38042846904253,57.67387547472628 L188.0461869181585,59.02094719305028Q189.37770381639044,61.715090629698274 178.3962805967118,64.77051456150069 L172.90556898687245,66.2982265274019Q161.9241457671938,69.3536504592043 161.9241457671938,69.3536504592043 Z"/>
      <use xmlns:xlink="http://www.w3.org/1999/xlink" xlink:href="#Tree"
           x="-10.118905551663609"
           y="80.85883400904632 "/>
      <use xmlns:xlink="http://www.w3.org/1999/xlink" xlink:href="#Dogleg"
           x="-56.81635020990141"
           y="62.43789650614815 "/>
      <use xmlns:xlink="http://www.w3.org/1999/xlink" xlink:href="#TeeSet"
           x="-232.294999413092"
           y="-31.889568705080496"
           class="tees"
           transform="rotate(95.42264498225599 -232.294999413092 -31.889568705080496)"/>
      <use xmlns:xlink="http://www.w3.org/1999/xlink" xlink:href="#Flag"
           x="261.7324538360511"
           y="15.006781283315673"
           transform="rotate(95.42264498225599 261.7324538360511 15.006781283315673)"/>
      <g clip-path="url(#HoleContour)">
         <circle cx="-232.294999413092" cy="-31.889568705080496" r="120.22949144318798"
                 class="circle-from-tee"/>
         <circle cx="-232.294999413092" cy="-31.889568705080496" r="180.344237164782"
                 class="circle-from-tee"/>
         <circle cx="-232.294999413092" cy="-31.889568705080496" r="240.45898288637596"
                 class="circle-from-tee"/>
         <circle cx="261.7324538360511" cy="15.006781283315673" r="120.22949144318798"
                 class="circle-from-green"/>
         <circle cx="261.7324538360511" cy="15.006781283315673" r="180.344237164782"
                 class="circle-from-green"/>
         <circle cx="261.7324538360511" cy="15.006781283315673" r="240.45898288637596"
                 class="circle-from-green"/>
      </g>
   </g>
   <rect x="470" y="400" rx="4" ry="4" width="110" height="180" class="info-background"/>
   <text x="525" y="420" class="info-hole" text-anchor="middle">
					Hole 8</text>
   <text x="525" y="440" class="info-par" text-anchor="middle">
					Par 5</text>
   <circle cx="485.625" cy="457.1875" r="5.625" style="fill:blue"/>
   <text x="496.875" y="460" class="info-length">479 meters</text>
   <use xmlns:xlink="http://www.w3.org/1999/xlink" xlink:href="#Compass" x="550" y="50"
        transform="rotate(-95.42264498225599 550 50)"/>
   <use xmlns:xlink="http://www.w3.org/1999/xlink" xlink:href="#GolfMLLogoSmall" x="10"
        y="575"/>
</svg>