<?xml version="1.0" encoding="UTF-8"?>
<svg xmlns="http://www.w3.org/2000/svg" width="600" height="600">
   <defs>
      <style xmlns:g="http://code.google.com/p/golfml"
             xmlns:xlink="http://www.w3.org/1999/xlink"
             xmlns:xs="http://www.w3.org/2001/XMLSchema"
             type="text/css">
/* Stylesheet for SVG elements
 *
 *
 * Classes for area of interest (surfaces)
 *
 * DRAWING
 */
.background {
		fill: url(#background-gradient);
}

.hole-limits {
	fill: none;
	stroke: #ccc;
	stroke-width: 1px;
	stroke-dasharray: 10,10;
}

.hole-contour {
	fill: #030;
	stroke: #fff;
	stroke-width: 2px;
}


/* GROUND
 */
.fairway {
	fill: url(#fairway-pattern);
	stroke: #0b0;
	stroke-width: 3px; /* fairway fringe... */
}

.tee {
	fill: #00c800;
	stroke: #0f0;
	stroke-width: 1px;
}

.fringe {
	fill: #0A0;
}

.green {
	fill: url(#green-gradient);
	stroke: #0f0;
	stroke-width: 1px;
}

.semi-rough,
.light-rough {
	fill: #080;
	stroke: #08800D;
	stroke-width: 1px;
}

.rough {
	fill: url(#rough-gradient);
	stroke: #07660A;
	stroke-width: 1px;
}

.heavy-rough {
	fill: #040;
	stroke: #074D08;
	stroke-width: 1px;
}

.ground {
	fill: #7f400c;
	stroke: #fdcc6a;
	stroke-width: 1px;
}


/* WATER
 */
.lateral-water {
	fill: url(#lateral-water-gradient);
	stroke: red;
	stroke-width: 4px;
}

.front-water, .water {
	fill: #37f;
	stroke: yellow;
	stroke-width: 3px;
}


/* SPECIAL
 */
.under-repair {
	fill: none;
	stroke: #00d;
	stroke-width: 2px;
}

.out-of-bound { /* line only */
	fill: none;
	stroke: white;
	stroke-width: 4px;
}

.out-of-bound-area {
	fill: #ccc;
	stroke: white;
	stroke-width: 4px;
}


/* TRAPS
 */
.trap,
.bunker {
	fill: #92cf94;
	stroke: #4c994c;
	stroke-width: 1px;
}

.grass-trap,
.grass-bunker {
	fill: #050;
	stroke: #0A0;
	stroke-width: 1px;
}

.sand-trap,
.sand-bunker,
.greenside-trap,
.greenside-bunker {
	fill: #eec;
	stroke: #040;
	stroke-width: 2px;
}

.fairway-trap,
.fairway-bunker {
	fill: #eec;
	stroke: #030;
	stroke-width: 2px;
}


/* OBSTACLES
 */
.tree {
	fill: #062;
	stroke: #0c6;
	stroke-width: 1px;
}

.trees {
	fill: #062;
	stroke: #0c6;
	stroke-width: 1px;
}

.bush {
	fill: #00b259;
	stroke: #7f400c;
	stroke-width: 1px;
}


.path {
	fill: #666;
	stroke: #bbb;
	stroke-width: 1px;
}

.building,
.construction {
	fill: #fdcc6a;
	stroke: #7f400C;
	stroke-width: 1px;
}

.obstruction {
	fill: #555;
	stroke: #999;
	stroke-width: 1px;
}


.other {
	fill: #ddd;
	stroke: #666;
	stroke-width: 1px;
}

/* Classes for point of interest (points)
 *
 */
.dogleg {
	fill: #000;
}

.aim {
	fill: #fff;
	stroke: #f00;
	stroke-width: 1px;
}

.tees {
	fill: #00f;
}

.tees-hollow {
	stroke: #fff;
	stroke-width: 0.5px;
}

.hole {
	fill: #fff;
}

.distance-marker-100,
.distance-marker-close {
	fill: #44f;
	stroke: #00f;
	stroke-width: 1px;
}

.distance-marker-150,
.distance-marker-135,
.distance-marker,
.distance-marker-mid {
	fill: #f44;
	stroke: #f00;
	stroke-width: 1px;
}

.distance-marker-200,
.distance-marker-far {
	fill: #dd4;
	stroke: #ff0;
	stroke-width: 1px;
}

.green-region-delimiter {
	fill: none;
	stroke: #fff;
	stroke-width: 0.5;
	stroke-dasharray: 4,2;
}

.neutral {
	fill: none;
	stroke: #888;
	stroke-width: 1px;
}
.one-tree {
	fill: #14920D;
	stroke: #165822;
	stroke-width: 3px;
	stroke-linecap: round;
	stroke-linejoin: round; 
}

/* Classes for special decorative objects
 *
 */
.compass-center {
	fill: #ddd;
	stroke: #fff;
	stroke-width: 1px;
}
.compass-needle {
	fill: #ddd;
	stroke: #fff;
	stroke-width: 1px;
}
.compass-north {
	fill: #fff;
}
.flag-pole {
	fill: none;
	stroke: #f00;
	stroke-width: 2px;
}
.flag-flag {
	fill: #ff0;
	stroke: #f00;
	stroke-width: 1px;
}
.flag-cup {
	fill: #fff;
}
/* Information box */
.info-background {
	fill: #ddd;
}
.info-hole {
	font-family: Georgia, "Times New Roman", Times, serif;
	font-size: xx-large;
}
.info-par {
	font-family: Georgia, "Times New Roman", Times, serif;
	font-size: x-large;
}
.info-length {
	font-family: Georgia, "Times New Roman", Times, serif;
	font-size: large;
}
/* Circle for distances */
.circle-from-green {
	fill: none;
	stroke: #fff;
	stroke-width: 1px;
	stroke-dasharray: 4,4;
}
.circle-from-tee {
	fill: none;
	stroke: #f00;
	stroke-width: 1px;
	stroke-dasharray: 8,8;
}
/* Dynamic objects */
.target {
	fill: none;
	stroke: #f00;
	stroke-width: 2px;
}
.target-filled {
	fill: #f00;
	fill-opacity: 0.5;
	stroke: #f00;
}
.ball {
	fill: #fff;
	stroke: none;
}
.trajectory {
	fill: none;
	stroke: #fff;
	stroke-width: 2px;
}
.distance {
	fill: #fff;
}
</style>
      <linearGradient xmlns:g="http://code.google.com/p/golfml"
                      xmlns:xlink="http://www.w3.org/1999/xlink"
                      xmlns:xs="http://www.w3.org/2001/XMLSchema"
                      id="background-straight">
         <stop offset="5%" stop-color="#002"/>
         <stop offset="95%" stop-color="#004"/>
      </linearGradient>
      <linearGradient xmlns:g="http://code.google.com/p/golfml"
                      xmlns:xlink="http://www.w3.org/1999/xlink"
                      xmlns:xs="http://www.w3.org/2001/XMLSchema"
                      id="background-gradient"
                      gradientTransform="rotate(30)"
                      xlink:href="#background-straight"/>
      <linearGradient xmlns:g="http://code.google.com/p/golfml"
                      xmlns:xlink="http://www.w3.org/1999/xlink"
                      xmlns:xs="http://www.w3.org/2001/XMLSchema"
                      id="lateral-water-straight">
         <stop offset="5%" stop-color="#006"/>
         <stop offset="95%" stop-color="#008"/>
      </linearGradient>
      <linearGradient xmlns:g="http://code.google.com/p/golfml"
                      xmlns:xlink="http://www.w3.org/1999/xlink"
                      xmlns:xs="http://www.w3.org/2001/XMLSchema"
                      id="lateral-water-gradient"
                      gradientTransform="rotate(60)"
                      xlink:href="#lateral-water-straight"/>
      <linearGradient xmlns:g="http://code.google.com/p/golfml"
                      xmlns:xlink="http://www.w3.org/1999/xlink"
                      xmlns:xs="http://www.w3.org/2001/XMLSchema"
                      id="rough-straight">
         <stop offset="0%" stop-color="#030"/>
         <stop offset="25%" stop-color="#060"/>
         <stop offset="50%" stop-color="#040"/>
         <stop offset="75%" stop-color="#060"/>
         <stop offset="100%" stop-color="#080"/>
      </linearGradient>
      <linearGradient xmlns:g="http://code.google.com/p/golfml"
                      xmlns:xlink="http://www.w3.org/1999/xlink"
                      xmlns:xs="http://www.w3.org/2001/XMLSchema"
                      id="rough-gradient"
                      gradientTransform="rotate(70)"
                      xlink:href="#rough-straight"/>
      <linearGradient xmlns:g="http://code.google.com/p/golfml"
                      xmlns:xlink="http://www.w3.org/1999/xlink"
                      xmlns:xs="http://www.w3.org/2001/XMLSchema"
                      id="green-straight">
         <stop offset="0%" stop-color="#0d0"/>
         <stop offset="25%" stop-color="#0e0"/>
         <stop offset="50%" stop-color="#0c0"/>
         <stop offset="75%" stop-color="#0e0"/>
         <stop offset="100%" stop-color="#0b0"/>
      </linearGradient>
      <linearGradient xmlns:g="http://code.google.com/p/golfml"
                      xmlns:xlink="http://www.w3.org/1999/xlink"
                      xmlns:xs="http://www.w3.org/2001/XMLSchema"
                      id="green-gradient"
                      gradientTransform="rotate(75)"
                      xlink:href="#green-straight"/>
      <pattern xmlns:g="http://code.google.com/p/golfml"
               xmlns:xlink="http://www.w3.org/1999/xlink"
               xmlns:xs="http://www.w3.org/2001/XMLSchema"
               id="fairway-straight"
               patternUnits="userSpaceOnUse"
               x="0"
               y="0"
               width="20"
               height="20"
               viewBox="0 0 20 20">
         <rect x="0" y="0" width="10" height="10" fill="#00c000"/>
         <rect x="10" y="10" width="10" height="10" fill="#00c800"/>
         <rect x="10" y="0" width="10" height="10" fill="#00bc00"/>
         <rect x="0" y="10" width="10" height="10" fill="#00b800"/>
      </pattern>
      <pattern xmlns:g="http://code.google.com/p/golfml"
               xmlns:xlink="http://www.w3.org/1999/xlink"
               xmlns:xs="http://www.w3.org/2001/XMLSchema"
               id="fairway-pattern"
               patternTransform="rotate(60)"
               xlink:href="#fairway-straight"/>
      <g xmlns:g="http://code.google.com/p/golfml"
         xmlns:xlink="http://www.w3.org/1999/xlink"
         xmlns:xs="http://www.w3.org/2001/XMLSchema"
         id="Tree"
         transform="translate(-76 -66) scale(0.4)">
         <path class="one-tree"
               d="M191.991,126.799c-11.163,0-21.022,4.032-27.033,10.191c-17.556,0.615-31.556,11.151-31.556,24.079       c0,7.537,4.759,14.266,12.203,18.693c0.876,12.855,18.43,23.128,39.939,23.128c22.07,0,39.979-10.812,39.979-24.136       c0-0.065-0.012-0.13-0.013-0.195c6.33-2.866,10.33-6.992,10.33-11.595c0-4.806-4.343-9.104-11.164-11.977       c0.31-1.318,0.478-2.67,0.478-4.054C225.154,137.612,210.297,126.799,191.991,126.799z"/>
      </g>
      <g xmlns:g="http://code.google.com/p/golfml"
         xmlns:xlink="http://www.w3.org/1999/xlink"
         xmlns:xs="http://www.w3.org/2001/XMLSchema"
         id="TeeSet">
         <circle cx="-5" cy="0" r="2"/>
         <circle cx="5" cy="0" r="2"/>
      </g>
      <g xmlns:g="http://code.google.com/p/golfml"
         xmlns:xlink="http://www.w3.org/1999/xlink"
         xmlns:xs="http://www.w3.org/2001/XMLSchema"
         id="DistanceMarker">
         <circle r="6"/>
      </g>
      <g xmlns:g="http://code.google.com/p/golfml"
         xmlns:xlink="http://www.w3.org/1999/xlink"
         xmlns:xs="http://www.w3.org/2001/XMLSchema"
         id="Dogleg">
         <circle r="4"/>
      </g>
      <g xmlns:g="http://code.google.com/p/golfml"
         xmlns:xlink="http://www.w3.org/1999/xlink"
         xmlns:xs="http://www.w3.org/2001/XMLSchema"
         id="Aim">
         <circle r="4"/>
      </g>
      <g xmlns:g="http://code.google.com/p/golfml"
         xmlns:xlink="http://www.w3.org/1999/xlink"
         xmlns:xs="http://www.w3.org/2001/XMLSchema"
         id="Hole">
         <circle r="2"/>
      </g>
      <g xmlns:g="http://code.google.com/p/golfml"
         xmlns:xlink="http://www.w3.org/1999/xlink"
         xmlns:xs="http://www.w3.org/2001/XMLSchema"
         id="Ball">
         <image xlink:href="../stylesheets/images/golf-ball.png" width="16" height="16"
                transform="translate(-8 -8)"/>
      </g>
      <g xmlns:g="http://code.google.com/p/golfml"
         xmlns:xlink="http://www.w3.org/1999/xlink"
         xmlns:xs="http://www.w3.org/2001/XMLSchema"
         id="Target">
         <circle class="target-filled" r="12"/>
      </g>
      <g xmlns:g="http://code.google.com/p/golfml"
         xmlns:xlink="http://www.w3.org/1999/xlink"
         xmlns:xs="http://www.w3.org/2001/XMLSchema"
         id="Flag"
         transform="translate(0 -30) scale(-0.2 0.2)">
         <line id="FlagPole" class="flag-pole" x1="0.5" y1="0" x2="0.5" y2="150"/>
         <circle id="FlagCup" class="flag-cup" r="10" cx="0" cy="145"/>
         <g id="FlagFlag">
            <path class="flag-flag"
                  d="M55.339,45.968c-18.28-14.516-36.559,14.516-54.839,0c0-12.097,0-24.193,0-36.29        c18.28,14.516,36.559-14.516,54.839,0C55.339,21.774,55.339,33.871,55.339,45.968z"/>
         </g>
      </g>
      <g xmlns:g="http://code.google.com/p/golfml"
         xmlns:xlink="http://www.w3.org/1999/xlink"
         xmlns:xs="http://www.w3.org/2001/XMLSchema"
         id="Compass">
         <polygon id="CompassNeedle" class="compass-needle" points="0,30 -8,0 0,-20 8,0"/>
         <circle id="CompassCenter" class="compass-center" r="10"/>
         <text id="CompassNorth" class="compass-north" x="-4.7" y="40">N</text>
      </g>
      <g xmlns:g="http://code.google.com/p/golfml"
         xmlns:xlink="http://www.w3.org/1999/xlink"
         xmlns:xs="http://www.w3.org/2001/XMLSchema"
         id="GolfMLLogoSmall">
         <image xlink:href="../stylesheets/images/golfml-small.png" width="80" height="15"/>
      </g>
   </defs>
   <rect class="background" x="0" y="0" width="600" height="600"/>
   <g transform="translate(300,300) scale(-0.7912825230953695,0.7912825230953695) rotate(-37.6944726952521)">
      <path class="hole-contour"
            d="M-197.63079187503206,297.4025669584304Q-197.63079187503206,297.4025669584304 -202.60076189264439,298.44129963264487 L-205.08574690145053,298.9606659697521Q-210.05571691906286,299.9993986439666 -220.03600832590925,291.85628317503495 L-225.02615402933247,287.78472544056916Q-235.00644543617886,279.64160997163754 -221.45338390576188,242.03428693502133 L-214.67685314055342,223.23062541671322Q-201.12379161013644,185.62330238009702 -46.43547957659163,-8.62639725104475 L30.908676440180756,-105.75124706661563Q185.59698847372556,-300.0009466977574 205.36077125306633,-282.5716258859825 L215.24266264273672,-273.8569654800951Q235.00644542207752,-256.42764466832017 61.951550503233676,-34.89556001761997 L-24.575896956188217,75.87048230773019Q-197.63079187503206,297.4025669584304 -197.63079187503206,297.4025669584304 Z"/>
      <clipPath id="HoleContour" transform="scale(1.2)">
         <path class="hole-contour"
               d="M-197.63079187503206,297.4025669584304Q-197.63079187503206,297.4025669584304 -202.60076189264439,298.44129963264487 L-205.08574690145053,298.9606659697521Q-210.05571691906286,299.9993986439666 -220.03600832590925,291.85628317503495 L-225.02615402933247,287.78472544056916Q-235.00644543617886,279.64160997163754 -221.45338390576188,242.03428693502133 L-214.67685314055342,223.23062541671322Q-201.12379161013644,185.62330238009702 -46.43547957659163,-8.62639725104475 L30.908676440180756,-105.75124706661563Q185.59698847372556,-300.0009466977574 205.36077125306633,-282.5716258859825 L215.24266264273672,-273.8569654800951Q235.00644542207752,-256.42764466832017 61.951550503233676,-34.89556001761997 L-24.575896956188217,75.87048230773019Q-197.63079187503206,297.4025669584304 -197.63079187503206,297.4025669584304 Z"/>
      </clipPath>
      <path class="tee"
            d="M-119.2490431968622,166.09000128018724Q-119.2490431968622,166.09000128018724 -120.4551809521939,169.79376207835057 L-121.05824982985973,171.6456424774322Q-122.26438758519143,175.34940327559553 -125.62605457891821,178.1619160710718 L-127.3068880757816,179.5681724688099Q-130.6685550695084,182.38068526428617 -133.03606516380486,182.44265041440386 L-134.21982021095312,182.4736329894627Q-136.5873303052496,182.53559813958037 -137.26901234205923,179.11815786833995 L-137.60985336046406,177.40943773271977Q-138.2915353972737,173.99199746147934 -136.58712640508165,171.22285476331177 L-135.73492190898563,169.83828341422796Q-134.03051291679358,167.0691407160604 -130.90559190368157,164.26282171562306 L-129.34313139712557,162.85966221540443Q-126.21821038401357,160.0533432149671 -123.43054350915303,162.46800644105517 L-122.03671007172275,163.67533805409917Q-119.2490431968622,166.09000128018724 -119.2490431968622,166.09000128018724 Z"/>
      <path class="tee"
            d="M-159.15957316361252,202.67203211457664Q-159.15957316361252,202.67203211457664 -154.23496028954077,205.26765583858227 L-151.77265385250487,206.5654677005851Q-146.84804097843312,209.16109142459072 -148.06655296960247,212.39135297756195 L-148.67580896518717,214.00648375404757Q-149.89432095635652,217.2367453070188 -152.7762817391246,220.27364356949533 L-154.21726213050866,221.79209270073363Q-157.09922291327675,224.82899096321017 -159.95261577782375,224.42986022564625 L-161.37931221009723,224.23029485686428Q-164.23270507464423,223.83116411930035 -166.77743242127573,221.64708719156778 L-168.0497960945915,220.55504872770146Q-170.594523441223,218.37097179996888 -169.5098685240213,214.55190906990808 L-168.96754106542048,212.64237770487767Q-167.88288614821877,208.82331497481687 -164.39356095437628,206.36280183072077 L-162.648898357455,205.13254525867274Q-159.15957316361252,202.67203211457664 -159.15957316361252,202.67203211457664 Z"/>
      <path class="tee"
            d="M-196.6994770607625,239.7955730290835Q-196.6994770607625,239.7955730290835 -193.6886445916127,241.48926489416064 L-192.1832283570378,242.33611082669918Q-189.172395887888,244.02980269177633 -188.1820321666721,245.66228225606577 L-187.68685030606412,246.4785220382105Q-186.6964865848482,248.11100160249995 -195.74771070187208,259.8385243846792 L-200.273322760384,265.7022857757688Q-209.32454687740787,277.4298085579481 -212.22905515220032,279.03084246450504 L-213.68130928959653,279.8313594177836Q-216.58581756438898,281.4323933243405 -219.0027694885198,279.6002732284266 L-220.21124545058518,278.6842131804696Q-222.628197374716,276.8520930845557 -221.18536093836784,273.14211367664916 L-220.46394272019376,271.28712397269584Q-219.0211062838456,267.5771445647893 -210.09245459461235,256.464515950507 L-205.62812874999574,250.90820164336583Q-196.6994770607625,239.7955730290835 -196.6994770607625,239.7955730290835 Z"/>
      <path class="fairway"
            d="M188.91925348439975,-270.5291298266245Q188.91925348439975,-270.5291298266245 193.5701934196586,-269.3474996835852 L195.89566338728807,-268.7566846120656Q200.54660332254693,-267.5750544690263 205.6608889414686,-262.259338833896 L208.21803175092947,-259.6014810163308Q213.33231736985115,-254.2857653812005 212.78277387728681,-248.1113936951089 L212.50800213100464,-245.02420785206306Q211.9584586384403,-238.84983616597145 192.06900261208514,-215.70436851770813 L182.12427459890756,-204.1316346935765Q162.2348185725524,-180.98616704531318 155.31358818920987,-169.3147458536587 L151.85297299753861,-163.47903525783144Q144.93174261419608,-151.80761406617697 138.11131090318997,-145.35120998684937 L134.7010950476869,-142.12300794718558Q127.88066333668078,-135.666603867858 119.57379379102487,-127.15729352118393 L115.42035901819692,-122.90263834784692Q107.113489472541,-114.39332800117286 102.80460399366734,-111.55618409819974 L100.6501612542305,-110.13761214671317Q96.34127577535683,-107.30046824374004 94.68624041149971,-102.63731073233386 L93.85872272957116,-100.30573197663075Q92.20368736571403,-95.64257446522457 91.48331532515066,-91.47767817635547 L91.12312930486898,-89.3952300319209Q90.4027572643056,-85.2303337430518 84.52941228188583,-78.79853432458717 L81.59273979067595,-75.58263461535483Q75.71939480825617,-69.1508351968902 67.9953392513689,-61.01223523144397 L64.13331147292527,-56.94293524872086Q56.409255916038006,-48.804335283274625 45.98651693151398,-35.14607625385445 L40.77514743925197,-28.316946739144363Q30.352408454727943,-14.658687709724187 22.235397947978235,-3.4298447571529103 L18.17689269460338,2.1845767191327266Q10.059882187853672,13.413419671704004 -5.309816357660429,28.148793654661144 L-12.99466563041748,35.51648064613971Q-28.36436417593158,50.251854629096854 -35.86772440514312,62.29396034348889 L-39.61940451974889,68.31501320068492Q-47.12276474896043,80.35711891507695 -52.36999875233741,88.07573265919918 L-54.9936157540259,91.93503953126029Q-60.240849757402884,99.65365327538251 -65.55233804650476,100.3849040600512 L-68.20808219105568,100.75052945238555Q-73.51957048015755,101.48178023705424 -79.69994756484293,100.69581547074117 L-82.79013610718562,100.30283308758463Q-88.97051319187099,99.51686832127156 -92.93196519377355,92.98683618147656 L-94.91269119472483,89.72182011157905Q-98.87414319662739,83.19178797178405 -99.4119419731755,76.2167901116602 L-99.68084136144955,72.72929118159828Q-100.21864013799767,65.75429332147444 -92.12414991358466,58.19805814279627 L-88.07690480137816,54.41994055345719Q-79.98241457696516,46.86370537477902 -74.05822340284378,33.322885461692444 L-71.0961278157831,26.55247550514916Q-65.17193664166173,13.011655592062583 -51.74344841806876,1.0514736733867274 L-45.02920430627227,-4.9286172859512Q-31.600716082679295,-16.888799204627055 -21.3676243958273,-33.26679085047229 L-16.251078552401303,-41.4557866733949Q-6.017986865549306,-57.83377831924013 18.28454156260463,-79.79171154189537 L30.4358057766816,-90.77067815322297Q54.73833420483554,-112.72861137587822 62.684549536401484,-125.96683810213106 L66.65765720218445,-132.5859514652575Q74.6038725337504,-145.82417819151033 86.8922963928202,-156.09590941960377 L93.0365083223551,-161.2317750336505Q105.3249321814249,-171.50350626174395 111.13034240634063,-180.53971034760482 L114.03304751879848,-185.05781239053528Q119.83845774371422,-194.09401647639615 124.95443207415971,-197.78148959174732 L127.51241923938245,-199.6252261494229Q132.62839356982795,-203.31269926477407 137.3985177247604,-206.63574933040888 L139.78357980222663,-208.29727436322628Q144.5537039571591,-211.6203244288611 146.0502206094749,-217.81939667320043 L146.7984789356328,-220.91893279537007Q148.29499558794862,-227.1180050397094 151.10919025395236,-232.7592014500077 L152.51628758695426,-235.57979965515688Q155.330482252958,-241.22099606545518 157.99451552721337,-243.54135652532102 L159.32653216434102,-244.70153675525395Q161.99056543859638,-247.0218972151198 163.45222350679387,-250.021616216581 L164.18305254089265,-251.5214757173116Q165.64471060909014,-254.52119471877282 168.36838469105547,-259.09389095031753 L169.7302217320381,-261.38023906608987Q172.45389581400343,-265.95293529763455 174.68152203946312,-266.8403531234449 L175.79533515219293,-267.28406203635006Q178.02296137765262,-268.1714798621604 182.38147822035148,-269.11453984794605 L184.56073664170088,-269.5860698408389Q188.91925348439975,-270.5291298266245 188.91925348439975,-270.5291298266245 Z"/>
      <path class="greenside-trap"
            d="M183.318848373872,-208.5388459733275Q183.318848373872,-208.5388459733275 182.38980877337582,-207.01852195360706 L181.92528897312772,-206.25835994374685Q180.99624937263155,-204.7380359240264 179.72933513971276,-203.97785772275188 L179.09587802325336,-203.59776862211464Q177.82896379033457,-202.83759042084012 176.47756790996047,-202.66863906126792 L175.8018699697734,-202.58416338148186Q174.4504740893993,-202.41521202190967 173.35243417073661,-203.1753408475111 L172.80341421140525,-203.5554052603118Q171.70537429274256,-204.31553408591324 171.45193458631317,-205.8358336158731 L171.32521473309845,-206.59598338085303Q171.07177502666906,-208.11628291081288 172.00082712626812,-209.21430199029354 L172.46535317606762,-209.76331153003383Q173.39440527566668,-210.86133060951448 174.40792072888834,-211.9593506967263 L174.9146784554992,-212.5083607403322Q175.92819390872086,-213.606380827544 177.78635720617743,-214.11318784282577 L178.7154388549057,-214.36659135046662Q180.57360215236227,-214.8733983657484 181.58716057118804,-214.70449622095484 L182.09393978060092,-214.62004514855803Q183.1074981994267,-214.45114300376449 183.52984488383933,-213.43761368864554 L183.74101822604567,-212.93084903108604Q184.1633649104583,-211.9173197159671 183.82555829582378,-210.56593021891126 L183.65665498850652,-209.89023547038335Q183.318848373872,-208.5388459733275 183.318848373872,-208.5388459733275 Z"/>
      <path class="greenside-trap"
            d="M167.05886887631402,-234.9327190499867Q167.05886887631402,-234.9327190499867 167.39677903660845,-233.24349495073574 L167.56573411675564,-232.39888290111023Q167.90364427705006,-230.70965880185926 167.81923397946613,-229.18934896541438 L167.77702883067414,-228.4291940471919Q167.6926185330902,-226.90888421074703 166.84804579537862,-225.30409650396265 L166.42575942652286,-224.50170265057048Q165.58118668881127,-222.8969149437861 164.48319674341818,-222.13673585578928 L163.93420177072164,-221.75664631179086Q162.83621182532855,-220.99646722379404 160.80911061816732,-220.82749547591817 L159.7955600145867,-220.74300960198025Q157.76845880742547,-220.57403785410438 156.50146157827103,-222.09431367759382 L155.8679629636938,-222.8544515893385Q154.60096573453936,-224.37472741282795 154.4319633422485,-226.48626156668968 L154.34746214610306,-227.54202864362057Q154.1784597538122,-229.6535627974823 155.023009522179,-231.84958422522158 L155.44528440636242,-232.9475949390912Q156.2898341747292,-235.14361636683049 157.5567304198412,-236.4950329545488 L158.19017854239718,-237.17074124840795Q159.45707478750916,-238.52215783612627 161.399711859258,-238.86005060617865 L162.3710303951324,-239.02899699120482Q164.31366746688124,-239.3668897612572 165.41174803065437,-237.593221476749 L165.9607883125409,-236.7063873344949Q167.05886887631402,-234.9327190499867 167.05886887631402,-234.9327190499867 Z"/>
      <path class="green"
            d="M194.71986079055077,-255.41524065993076Q194.71986079055077,-255.41524065993076 196.83150276398152,-253.38819617601223 L197.8873237506969,-252.374673934053Q199.99896572412766,-250.34762945013446 201.0970772155713,-247.30702614296132 L201.6461329612931,-245.78672448937473Q202.74424445273672,-242.7461211822016 202.23757950282396,-238.94533872371042 L201.98424702786758,-237.04494749446482Q201.47758207795482,-233.24416503597365 199.11273602170306,-229.44335513641255 L197.93031299357716,-227.54295018663203Q195.5654669373254,-223.74214028707092 192.86268257624945,-222.89747517179066 L191.5112903957115,-222.47514261415054Q188.80850603463557,-221.63047749887028 186.19016090713177,-221.54596567055887 L184.8809883433799,-221.5037097564032Q182.2626432158761,-221.4191979280918 179.4753021000111,-223.44621604176746 L178.08163154207864,-224.4597250986053Q175.29429042621365,-226.48674321228097 173.520492588208,-228.76716675047257 L172.63359366920517,-229.9073785195684Q170.8597958311995,-232.18780205776 170.0150676633764,-235.05947768839576 L169.59270357946488,-236.49531550371367Q168.7479754116418,-239.36699113434943 169.33910368314707,-242.66100910778076 L169.63466781889971,-244.3080180944964Q170.225796090405,-247.6020360679277 170.98586664558107,-250.47375311784737 L171.36590192316908,-251.9096116428072Q172.12597247834515,-254.78132869272685 174.6597956720393,-256.97738802170454 L175.9267072688864,-258.0754176861934Q178.46053046258055,-260.2714770151711 180.74104412148984,-260.10260094880203 L181.88130095094448,-260.01816291561744Q184.16181460985376,-259.84928684924836 186.1889516320884,-259.25809255893074 L187.20252014320573,-258.9624954137719Q189.22965716544036,-258.37130112345426 191.42573861548453,-257.18887693804487 L192.5237793405066,-256.59766484534015Q194.71986079055077,-255.41524065993076 194.71986079055077,-255.41524065993076 Z"/>
      <path class="trees"
            d="M224.04845623890816,-239.42389759979116Q224.04845623890816,-239.42389759979116 181.5118150389697,-185.36172601675224 L160.24349443900047,-158.3306402252328Q117.70685323906201,-104.26846864219388 114.67229992368532,-102.5307643183321 L113.15502326599696,-101.6619121564012Q110.12046995062026,-99.92420783253942 108.55988570226351,-100.71265250608333 L107.77959357808513,-101.10687484285528Q106.21900932972838,-101.89531951639918 124.0079690946695,-123.80111853188257 L132.90244897714007,-134.75401803962427Q150.6914087420812,-156.65981705510765 155.908020272679,-165.56205052788854 L158.5163260379779,-170.01316726427902Q163.73293756857572,-178.9154007370599 166.72422923707262,-182.31038097515807 L168.2198750713211,-184.00787109420713Q171.211166739818,-187.4028513323053 181.10120541093025,-198.7962962153775 L186.0462247464864,-204.4930186569136Q195.93626341759864,-215.8864635399858 206.03222646246394,-228.4698696841579 L211.08020798489662,-234.761572756244Q221.17617102976192,-247.3449789004161 222.3250851134204,-244.17654638016612 L222.89954215524966,-242.59233012004114Q224.04845623890816,-239.42389759979116 224.04845623890816,-239.42389759979116 Z"/>
      <use xmlns:xlink="http://www.w3.org/1999/xlink" xlink:href="#Dogleg"
           x="86.59520593533199"
           y="-70.87932737950962 "/>
      <use xmlns:xlink="http://www.w3.org/1999/xlink" xlink:href="#TeeSet"
           x="-170.93862027565876"
           y="220.74287881370606"
           class="tees"
           transform="rotate(37.6944726952521 -170.93862027565876 220.74287881370606)"/>
      <use xmlns:xlink="http://www.w3.org/1999/xlink" xlink:href="#Flag"
           x="185.74610993189114"
           y="-240.84525813815196"
           transform="rotate(37.6944726952521 185.74610993189114 -240.84525813815196)"/>
      <g clip-path="url(#HoleContour)">
         <circle cx="-170.93862027565876" cy="220.74287881370606" r="159.39982029308317"
                 class="circle-from-tee"/>
         <circle cx="-170.93862027565876" cy="220.74287881370606" r="239.09973043962475"
                 class="circle-from-tee"/>
         <circle cx="-170.93862027565876" cy="220.74287881370606" r="318.79964058616633"
                 class="circle-from-tee"/>
         <circle cx="185.74610993189114" cy="-240.84525813815196" r="159.39982029308317"
                 class="circle-from-green"/>
         <circle cx="185.74610993189114" cy="-240.84525813815196" r="239.09973043962475"
                 class="circle-from-green"/>
         <circle cx="185.74610993189114" cy="-240.84525813815196" r="318.79964058616633"
                 class="circle-from-green"/>
      </g>
   </g>
   <rect x="470" y="400" rx="4" ry="4" width="110" height="180" class="info-background"/>
   <text x="525" y="420" class="info-hole" text-anchor="middle">
					Hole 18</text>
   <text x="525" y="440" class="info-par" text-anchor="middle">
					Par 4</text>
   <circle cx="485.625" cy="457.1875" r="5.625" style="fill:blue"/>
   <text x="496.875" y="460" class="info-length">395 meters</text>
   <use xmlns:xlink="http://www.w3.org/1999/xlink" xlink:href="#Compass" x="550" y="50"
        transform="rotate(-37.6944726952521 550 50)"/>
   <use xmlns:xlink="http://www.w3.org/1999/xlink" xlink:href="#GolfMLLogoSmall" x="10"
        y="575"/>
</svg>