<?xml version="1.0" encoding="utf-8"?>
<!-- Generator: Adobe Illustrator 13.0.0, SVG Export Plug-In . SVG Version: 6.00 Build 14948)  -->
<!DOCTYPE svg PUBLIC "-//W3C//DTD SVG 1.0//EN" "http://www.w3.org/TR/2001/REC-SVG-20010904/DTD/svg10.dtd">
<svg version="1.0" xmlns="http://www.w3.org/2000/svg" xmlns:xlink="http://www.w3.org/1999/xlink" width="600px" height="850px" xml:space="preserve">

	<defs>
		<style type="text/css"><![CDATA[
/* Stylesheet for SVG elements
 *
 *
 * Classes for area of interest (surfaces)
 *
 * DRAWING
 */
.background {
		fill: url(#background-gradient);
}

.hole-limits {
	fill: none;
	stroke: #ccc;
	stroke-width: 1px;
	stroke-dasharray: 10,10;
}

.hole-contour {
	fill: #030;
	stroke: #fff;
	stroke-width: 2px;
}


/* GROUND
 */
.fairway {
	fill: url(#fairway-pattern);
	stroke: #0b0;
	stroke-width: 3px; /* fairway fringe... */
}

.tee {
	fill: #00c800;
	stroke: #0f0;
	stroke-width: 1px;
}

.fringe {
	fill: #0A0;
}

.green {
	fill: url(#green-gradient);
	stroke: #0f0;
	stroke-width: 1px;
}

.semi-rough,
.light-rough {
	fill: #080;
	stroke: #08800D;
	stroke-width: 1px;
}

.rough {
	fill: url(#rough-gradient);
	stroke: #07660A;
	stroke-width: 1px;
}

.heavy-rough {
	fill: #040;
	stroke: #074D08;
	stroke-width: 1px;
}

.ground {
	fill: #7f400c;
	stroke: #fdcc6a;
	stroke-width: 1px;
}


/* WATER
 */
.lateral-water {
	fill: url(#lateral-water-gradient);
	stroke: red;
	stroke-width: 4px;
}

.front-water, .water {
	fill: #37f;
	stroke: yellow;
	stroke-width: 3px;
}


/* SPECIAL
 */
.under-repair {
	fill: none;
	stroke: #00d;
	stroke-width: 2px;
}

.out-of-bound { /* line only */
	fill: none;
	stroke: white;
	stroke-width: 4px;
}

.out-of-bound-area {
	fill: #ccc;
	stroke: white;
	stroke-width: 4px;
}


/* TRAPS
 */
.trap,
.bunker {
	fill: #92cf94;
	stroke: #4c994c;
	stroke-width: 1px;
}

.grass-trap,
.grass-bunker {
	fill: #050;
	stroke: #0A0;
	stroke-width: 1px;
}

.sand-trap,
.sand-bunker,
.greenside-trap,
.greenside-bunker {
	fill: #eec;
	stroke: #040;
	stroke-width: 2px;
}

.fairway-trap,
.fairway-bunker {
	fill: #eec;
	stroke: #030;
	stroke-width: 2px;
}


/* OBSTACLES
 */
.tree {
	fill: #062;
	stroke: #0c6;
	stroke-width: 1px;
}

.trees {
	fill: #062;
	stroke: #0c6;
	stroke-width: 1px;
}

.bush {
	fill: #00b259;
	stroke: #7f400c;
	stroke-width: 1px;
}


.path {
	fill: #666;
	stroke: #bbb;
	stroke-width: 1px;
}

.whiteline {
	stroke: #fff;
	fill: none;
}
	stroke-width: 0.5px;

.building,
.construction {
	fill: #fdcc6a;
	stroke: #7f400C;
	stroke-width: 1px;
}

.obstruction {
	fill: #555;
	stroke: #999;
	stroke-width: 1px;
}


.other {
	fill: #ddd;
	stroke: #666;
	stroke-width: 1px;
}

/* Classes for point of interest (points)
 *
 */
.dogleg {
	fill: #000;
}

.aim {
	fill: #fff;
	stroke: #f00;
	stroke-width: 1px;
}

.tees {
	fill: #00f;
}

.tees-hollow {
	stroke: #fff;
	stroke-width: 0.5px;
}

.hole {
	fill: #fff;
}

.distance-marker-close {
	fill: #44f;
	stroke: #00f;
	stroke-width: 1px;
}

.distance-marker,
.distance-marker-mid {
	fill: #f44;
	stroke: #f00;
	stroke-width: 1px;
}

.distance-marker-far {
	fill: #dd4;
	stroke: #ff0;
	stroke-width: 1px;
}

.green-region-delimiter {
	fill: none;
	stroke: #fff;
	stroke-width: 0.5;
	stroke-dasharray: 4,2;
}

/* Classes for special decorative objects
 *
 */
.compass {
	fill: #ddd;
	stroke: #fff;
	stroke-width: 1px;
}


     ]]></style>
		
		<linearGradient id="background-straight">
			<stop offset="5%" stop-color="#002"/>
			<stop offset="95%" stop-color="#004"/>
		</linearGradient>		
		<linearGradient id="background-gradient" gradientTransform="rotate(30)" xlink:href="#background-straight"/>
		
		<linearGradient id="lateral-water-straight">
			<stop offset="5%" stop-color="#006"/>
			<stop offset="95%" stop-color="#008"/>
		</linearGradient>		
		<linearGradient id="lateral-water-gradient" gradientTransform="rotate(60)" xlink:href="#lateral-water-straight"/>
		
		<linearGradient id="rough-straight">
			<stop offset="0%" stop-color="#030"/>
			<stop offset="25%" stop-color="#060"/>
			<stop offset="50%" stop-color="#040"/>
			<stop offset="75%" stop-color="#060"/>
			<stop offset="100%" stop-color="#080"/>
		</linearGradient>		
		<linearGradient id="rough-gradient" gradientTransform="rotate(70)" xlink:href="#rough-straight"/>
		
		<linearGradient id="green-straight">
			<stop offset="0%" stop-color="#0d0"/>
			<stop offset="25%" stop-color="#0e0"/>
			<stop offset="50%" stop-color="#0c0"/>
			<stop offset="75%" stop-color="#0e0"/>
			<stop offset="100%" stop-color="#0b0"/>
		</linearGradient>		
		<linearGradient id="green-gradient" gradientTransform="rotate(75)" xlink:href="#green-straight"/>
		
		<pattern id="fairway-straight" patternUnits="userSpaceOnUse" x="0" y="0" width="20" height="20" viewBox="0 0 20 20">	
			<rect x="0" y="0" width="10" height="10" fill="#00c000"/>
			<rect x="10" y="10" width="10" height="10" fill="#00c800"/>
			<rect x="10" y="0" width="10" height="10" fill="#00bc00"/>
			<rect x="0" y="10" width="10" height="10" fill="#00b800"/>
		</pattern>
		<pattern id="fairway-pattern" patternTransform="rotate(60)" xlink:href="#fairway-straight"/>
		
		<g id="TeeSet">
			<circle cx="-5" cy="0" r="2"/>
			<circle cx="5" cy="0" r="2"/>			
		</g>
		
		<g id="DistanceMarker">
			<circle r="6"/>
		</g>
		
		<g id="Dogleg">
			<circle r="4"/>
		</g>
		
		<g id="Hole">
			<circle r="1.2"/>
		</g>
		
		<g id="Compass">
			<polygon id="Needle"        class="compass-needle" points="0,30 -8,0 0,-20 8,0"/>
			<circle  id="CompassCenter" class="compass"        r="10"/>
			<text id="North" x="-4.7" y="40">N</text>
		</g>
		
	</defs>

	
<!-- Bounding box of the hole -->
<clipPath id="HoleLimitsClip">
	<rect x="48" y="0" width="382" height="827"/>
</clipPath>
<g id="hole-10" clip-path="url(#HoleLimitsClip)">
	
	<!-- Decor -->
	<rect class="background" id="background" width="600" height="850"/>
	
	<path class="hole-contour" id="hole-contour" fill="none" stroke="#fff" d="M93.177,31.145C102.047-3.952,226.241,5.339,248.822,5.339
		s93.548-4.032,101.613,26.613c0,0,28.489,265.069,25,304.032c-4.839,54.032-1.964,72.295,25,125
		c17.741,34.678,13.016,51.812-17.742,191.936c-7.258,33.064-25.001,138.709-31.452,149.193s-105.645,17.742-111.29,9.678
		s-31.452-52.42-37.903-56.452S74.628,637.596,73.015,627.113S78.235,90.263,93.177,31.145z"/>
	
	
	<!-- Lower-level: Hole limits -->
	<polyline class="out-of-bound" id="out-of-bound_1_" fill="none" stroke="#000" stroke-width="1.0024" points="198.822,809.371 198.822,758.564 
	68.983,630.338 68.983,306.12 "/>
	
	
	<!-- Intermediate-level: Grounds -->
	<path class="ground" id="ground" fill="none" stroke="#000" d="M356.08,318.242c9.808-0.265,13.71,24.193,13.71,37.903
		s-1.613,50.806,4.032,62.097s9.677,41.937-4.839,47.581s-30.646-6.451-29.032-16.129s7.258-35.484,8.871-57.258
		S326.241,319.048,356.08,318.242z"/>

	<path class="grass-bunker" id="grass-bunker" fill="none" stroke="#000" d="M147.336,109.989c2.927,11.71,22.492,53.981,22.492,62.079
		s-0.899,26.99-6.298,31.489s-20.693,15.295-21.593-9.896s-9.896-45.884-13.495-70.175S142.838,91.995,147.336,109.989z"/>
	<path class="rough" id="rough_1_" fill="none" stroke="#000" d="M173.822,322.274c-1.751-20.581,39.516-24.193,70.968-28.226
		s42.741-12.097,69.354-4.839s34.678,11.291,34.678,19.355s-2.381,9.341-6.452,12.903c-12.902,11.29,1.614,53.226,3.227,66.936
		s-13.711,61.291-10.484,68.548s16.13,8.065,28.227,30.646s4.032,62.098-1.613,91.936s-37.903,82.259-37.097,112.097
		s4.032,97.579-4.839,104.838s-51.613,14.516-61.291,4.032s0.835-67.057-14.516-83.87c-16.936-18.549-31.452-40.323-34.677-55.646
		s-17.742-99.193-18.548-141.936s-12.097-77.166-12.097-86.29c0-16.129-15.317-25.667-16.129-44.355
		C161.725,369.855,177.047,360.177,173.822,322.274z"/>
	<path class="rough" id="rough" fill="none" stroke="#000" d="M248.015,31.145c17.74,0.269,86.291-4.032,91.936,25s-2.419,97.581,0.807,120.968
		s8.871,76.613-5.646,84.678s-62.903,0-73.387,3.226s-83.871,25-98.387,13.709s21.776-88.427,12.788-110.257
		c-6.297-15.294-35.368-91.355-26.498-105.065S194.79,30.338,248.015,31.145z"/>
	<path class="light-rough" id="light-rough" d="M245.596,41.629
		c22.573-0.579,46.773,7.258,55.645,19.355s26.613,42.742,20.969,66.936c-5.646,24.193-4.84,31.451-24.193,38.709
		c-19.355,7.258-77.42,18.549-108.872-11.29s-27.42-39.517-28.226-51.613s4.838-34.677,18.548-44.354S214.145,42.435,245.596,41.629z
		"/>


	<!-- Intermediate-level: Features -->
	<circle class="obstruction" id="obstruction" fill="none" stroke="#000" stroke-width="1.0024" cx="367.773" cy="492.033" r="13.306"/>
	
	<rect class="construction" id="Construction" x="89.951" y="555.338" fill="none" stroke="#000" stroke-width="1.0024" width="43.548" height="82.259"/>
	
	<polygon class="path" id="path" points="194.521,830 194.521,758.277 123.188,690.766 123.188,644.715 
		135.854,644.715 143.854,596.715 133.499,596.715 133.499,637.597 89.951,637.597 89.854,644.715 105.188,644.715 105.188,673.888 
		37.188,608.706 37.188,669.523 146.521,774.048 146.521,830 "/>
	
	
	<!-- Intermediate-level: Ground -->
	<path class="lateral-water" id="Lateral-water" d="M376.241,365.228
		c-12.522,31.512,39.517,104.601,40.323,132.826c0.807,28.226-25.807,124.523-29.839,164.371s86.289,88.828,102.419,45.659
		c16.13-43.168,72.582-153.58,57.259-220.822c-15.323-67.243-43.55-167.691-107.259-156.9S383.499,346.964,376.241,365.228z"/>
	
	<path class="front-water" id="Front-water" d="M29.467,278.288
		c23.133,5.056,108.871,19.741,148.387,12.955c39.516-6.786,76.613-27.145,126.614-24.677c50,2.468,77.42,19.125,129.031,20.358
		c51.613,1.233,91.936,8.02,115.322-0.617s0,17.273,0,17.273s-91.934-0.617-118.547-3.702s-76.615-18.507-104.033-17.89
		c-27.42,0.617-44.355-8.637-91.936,7.403s-85.484,19.124-126.613,14.189c-41.129-4.936-78.227-6.786-99.194-12.955
		S12.532,274.586,29.467,278.288z"/>
	
	<path class="fairway" id="fairway2" d="M185.112,179.532
		c5.856-16.689,51.613,12.097,70.162,10.484s36.29-2.419,54.032-12.097s25,3.226,25.807,33.064s2.419,47.58-12.903,49.193
		s-22.344-2.081-62.903,0c-31.452,1.613-52.419,18.548-66.129,11.291C167.038,257.629,168.983,225.5,185.112,179.532z"/>
	
	<path class="fairway" id="fairway" d="M259.306,296.468c14.104-3.526,50.807-5.646,57.258,1.613
		s-12.098,183.064,9.677,204.032s1.613,101.613-10.483,116.936s-76.613,16.13-88.71-3.226s-45.161-184.679-27.419-197.581
		c17.742-12.903,16.936-1.613,25-9.677s7.258-32.258-4.032-41.129s-29.033-1.613-30.646-14.516s-7.258-33.064,2.419-41.129
		S243.177,300.5,259.306,296.468z"/>
	<path class="fairway-bunker" id="fairway-bunker" d="M189.145,365.016
		c10.021,1.909,25.807,3.226,26.613,12.097s8.871,13.709,1.613,22.581s-12.097,10.484-20.968,11.291s-25-3.226-25-16.129
		S172.209,361.791,189.145,365.016z"/>
	

	<!-- Upper-level: Ground -->
	<rect class="tee" id="TeeGround" x="278.66" y="740.209" width="20.162" height="43.548"/>
	<rect class="tee" id="TeeGroundW" x="229.467" y="651.306" transform="matrix(0.9832 0.1827 -0.1827 0.9832 125.8084 -32.615)" fill="none" stroke="#000" width="20.968" height="30.646"/>

	<path class="fringe" id="fringe" d="M235.112,48.081c16.146-0.278,71.228-2.305,67.742,39.516
		c-1.613,19.355-28.226,10.484-34.677,20.968s17.743,29.032,8.871,44.355c-8.871,15.323-19.355,15.323-47.581,12.097
		s-65.322-34.677-60.483-58.064S188.338,48.887,235.112,48.081z"/>
	
	<path class="green" id="green" d="M236.024,52.923c14.597-0.251,63.604,1.609,61.186,32.254
		c-0.936,11.84-29.652,11.49-35.484,20.968c-5.832,9.478,14.471,30.502,6.452,44.355c-8.021,13.852-11.739,11.053-37.257,8.136
		c-25.517-2.916-59.053-31.349-54.679-52.491C180.615,85.002,193.739,53.652,236.024,52.923z"/>
	
	<path class="greenside-bunker" id="greenside-bunker" d="M292.37,107.758
		c6.65,0,26.613,2.42,24.193,16.129c-2.418,13.709-0.807,24.193-12.902,24.193c-12.098,0-21.775-8.064-24.194-16.936
		S260.918,107.758,292.37,107.758z"/>
	

	<!-- Upper-level: Features -->
	<path class="tree" id="Tree" d="M184.306,47.274c-3.266,9.798-16.935,12.098-21.774,8.065
		s-19.355-10.484-12.097-20.968s9.678-16.129,20.162-12.903S186.725,40.016,184.306,47.274z"/>
	<path class="bush" id="bush" d="M146.521,554.048c1.148-8.616,7.333-12.001,9.333-0.667s-4.667,19.334-4.667,25.334
		s0,12.667,3.333,18s0.667,18-2,26s-0.667,9.999,0,18.666s-16.667,10.001-16,1.334s2.667-8,4.667-18.667s4-16.001,2.667-26.667
		s-8.667-21.999-6.667-30.666S145.188,564.048,146.521,554.048z"/>
	<path class="trees" id="Trees" d="M121.854,315.382c11.33,5.665,7.333,0.667,15.333-5.333s14.667-5.333,17.333,1.333
		s11.333,14.667,1.333,20s-20,4.667-13.333,12s10.667,18.667,0,22.667s-27.333,0-26-8.667s6-17.333-4-20s-24-12-15.333-21.333
		S116.521,312.715,121.854,315.382z"/>
	<path class="trees" id="Trees_1_" d="M397.854,159.382c11.239,1.605,21.333,7.333,20,17.333
		s-15.333,12-11.333,18.667s10.667,7.333,10,17.333s-13.999,19.333-11.333,24s12,12.667,8,21.333s-12,14.667-24,5.333
		s6.667-16,6-27.333s-11.334-9.333-13.334-22s16-10.667,16-20s-26-14.667-17.333-24.667S388.52,158.049,397.854,159.382z"/>
	<path class="trees" id="Trees_2_" d="M342.521,310.048c10.414-10.414,18.667-5.333,26,3.333
		s12.666,14.667,11.333,24.667s-19.999,19.333-14.666,28s22.667,16.667,14,26.667s-18,18-14,25.333s13.999,10.666,16.666,19.333
		s-16,18.667-28,14.667s-27.334-16.668-20-28.667c7.334-12,19.333-3.999,24-13.333c4.667-9.333-25.999-23.333-22.666-32
		s21.332-12.667,18.666-26S327.854,324.715,342.521,310.048z"/>
	
	
	<!-- Upper-level: Specials -->
	<path class="under-repair" id="under-repair" d="M188.521,449.381c14.049,0.639,15.333,1.333,25.333-4
		s15.334,9.334,14.667,17.334s-13.334,9.332-20.667,8.666s-36.666,2.667-37.333-7.333S173.854,448.714,188.521,449.381z"/>


	<!-- Upper-level: Markers -->
	<!-- Tees with color from definition file (fill="color", color has to be a valid html color name.) -->
	<use id="TeesM" xlink:href="#TeeSet" fill="red" class="tees-hollow" x="288.422" y="749.752" transform="rotate(0)"/>
	<use id="TeesW" xlink:href="#TeeSet" fill="yellow" class="tees" transform="rotate(10, 242.399,657.742) translate(242.399,657.742)"/>
	
	<use xlink:href="#DistanceMarker" class="distance-marker" x="266.487" y="391.358"/>
	
	<use xlink:href="#Dogleg" class="dogleg" x="253.521" y="453.714"/>
		
	<line class="green-region-delimiter" id="green-region_1_" x1="212.854" y1="56.715" x2="270.188" y2="99.715"/>
	<line class="green-region-delimiter" id="green-region" x1="181.188" y1="90.382" x2="266.854" y2="151.715"/>
	
	<use xlink:href="#Hole" class="hole" x="267.188" y="72.381"/>
		

	<!-- Upper-level: Clipping, masking, frame, decoration -->
	<rect class="hole-limits" id="hole-limits" x="49.628" y="0.5" width="379.032" height="825.806"/>	
	
	<!-- Orientation: Compass -->
	<use xlink:href="#Compass" class="compass" transform="rotate(30,400,40) translate(400,40)"/>
		
	
	<path class="whiteline" d="M 100,300 a 300,300 0 0,1 300,0"/>
	<path class="whiteline" d="M 100,500 a 200,200 0 0,1 300,0"/>
	
</g> <!-- hole-10 -->
	
</svg>
