<?xml version="1.0" encoding="UTF-8" standalone="no"?>
<?xml-stylesheet type="text/css" href="../stylesheets/golfml-svg.css" ?>

<svg xmlns="http://www.w3.org/2000/svg" width="600" height="600"
	xmlns:kml2svg="http://kml2svg.free.fr">
	<path
		class="hole-contour"
		d="M 579.45119764359357406087,538.83293039644784280368 L 569.18737618787492829775,522.63887167090595323532 L 538.43556243349228769102,485.32291941186544050758 L 508.67143353339370262263,447.79651142434238534050 L 470.88949173192640386121,398.96207301551972853462 L 432.18640525905261805919,359.34218456214473855486 L 378.73909126943606479900,307.74448179767981300171 L 338.19242995874948316193,267.20339103174736413113 L 305.01656052646381613151,219.29010741851154721973 L 259.86061875365231626435,162.16298890359560418512 L 221.15668571229876040830,132.67919759946410360535 L 179.68992145548221051415,124.38946047993818747213 L 158.49238878337843492181,82.92510577804561680528 L 140.98097040743851810785,46.06761334599497101075 L 108.72708588455237731868,23.95498944228477045415 L 70.02240397574186608041,0.00000000000000000000 L 47.90808232899158638077,12.90288082632257155315 L 0.00000000000000000000,97.68365612831332531014 L 397.18011551812407046602,491.11056460633988972621 L 450.62381871613536875240,498.47884036917819824667 L 485.63929605493378726653,514.14135663411270068193 L 516.04755167333560323945,529.80424690359013973350 L 545.53548123043831220992,566.66033145378550978181 L 568.57219848649481666299,583.24518124173930398835 L 575.94318066269903283076,574.03050942825408199421 L 581.97762515522673437201,559.34883540522589420299 L 579.45119764359357406087,538.83293039644784280368 z"
		id="10-Hole contour_5" kml2svg:originalId="10-Hole contour"/>
	<path
		class="tee"
		d="M 519.87514296716435162516,509.79704172139852085878 L 568.98907945437964052315,561.39259549254706470677 L 576.44857911746324275879,552.06732333152961723007 L 528.57802794509063032514,501.71494686585285143037 L 519.87514296716435162516,509.79704172139852085878 z"
		id="10-Tee Men_5" kml2svg:originalId="10-Tee Men"/>
	<path
		class="tee"
		d="M 468.27381060357063899867,455.09320670295693548065 L 483.81632646859618548244,469.39069988730852255916 L 490.03279087895807791125,465.66034868635138668717 L 475.73343871575546290827,448.25442480617013381587 L 468.27381060357063899867,455.09320670295693548065 z"
		id="10-Tee Woman_5" kml2svg:originalId="10-Tee Woman"/>
	<path
		class="bunker"
		d="M 271.94311381705101042979,334.60436988977254572672 L 278.77202700617828297633,341.43221445288670712248 L 283.94570045699484812957,350.12244529366382617752 L 291.80934552052172315526,359.22630446605454104417 L 297.97143174729208927471,366.27085400569039481647 L 307.91339121618218638051,377.63137841707995669533 L 312.88368072064482889650,374.08062297139658090181 L 308.62289122318902353993,369.82046291285689934361 L 303.29673832745712544699,362.36502339864005740325 L 296.90526591000668199735,352.42437734480203447128 L 290.51385789337948232613,343.54884181465210850406 L 284.83284597718471889326,338.93373688321329160643 L 278.08639389981423048735,330.41325505515327351863 L 271.94311381705101042979,334.60436988977254572672 z"
		id="10-Fairway bunker left_5" kml2svg:originalId="10-Fairway bunker left"/>
	<path
		class="green"
		d="M 70.67896002993906366207,60.62256803881256669212 L 65.17710658259989771512,71.87914907697307409090 L 65.67885054547393823108,86.88713593249144425329 L 71.68335531523319698657,100.14362809092481157135 L 74.68541992377457861768,104.89586853237555572677 L 78.43780864499775035884,108.89763513670289481853 L 88.19281421009721293922,106.89562713850078370621 L 94.69592243118188995508,103.14300503997562502031 L 101.94903289878463353438,95.13804708860512886608 L 108.95201989603003259545,87.13311289571994221001 L 114.70441797503080527121,79.87869622491502001746 L 120.45684736924802136939,72.87441195305950220294 L 119.70602765456267512757,68.37206785851057128247 L 112.95144711726935819061,58.11719131156637367613 L 107.69787131290773177254,50.11337683310174111108 L 97.19173907349272423403,45.11167306230401812278 L 87.68675947699250699908,46.61338713930274754581 L 79.18280615892134361423,53.11770704313820896819 L 70.67896002993906366207,60.62256803881256669212 z"
		id="10-Green_5" kml2svg:originalId="10-Green"/>
	<path
		class="green"
		d="M 48.41892475709544960360,80.13523191885671011111 L 46.16834173631999923727,86.38880553513847979959 L 44.41810382478773125000,93.39272653208958786795 L 40.91627687965572667229,93.89334694086528717722 L 36.91448381910539132645,97.39562281407325600158 L 37.91557375494701959324,102.89845971708771230798 L 40.16710511482366737688,106.14996707706218373887 L 44.41977899726676636978,110.15167083636386544838 L 49.92304140708908826916,113.40285017596051542071 L 53.92557261312187964628,117.40457999295576238628 L 56.67782762388893778751,125.40856308002581719638 L 63.18207103306573014498,133.41216909694192771299 L 68.93500537940007579033,132.16093613214472594753 L 70.93563120089521052962,127.65834832152068469103 L 69.68418798116704722459,119.65421578591400561827 L 65.18113079484162051462,112.90106560140465070127 L 61.17825980414876571775,105.39746303904894446088 L 56.42493073357308531794,97.39366388863935028176 L 55.92382122955319367173,88.88916998838712062168 L 57.17387231700263317208,82.63570060287961195741 L 58.17383951113283726663,76.88252054015897346666 L 56.42247849001582418585,72.63041460813921178703 L 53.67099861132802970111,72.63068668111614313701 L 50.91974288245308905277,74.88216720549825611376 L 48.41892475709544960360,80.13523191885671011111 z"
		id="10-Green-side bunker_7" kml2svg:originalId="10-Green-side bunker"/>
	<path
		class="water"
		d="M 109.95299997570120075039,91.88555796670544881738 L 104.95087046051075907414,97.63909823871948937711 L 97.19735074341852498992,104.14329935012840330865 L 89.94451177399064882112,114.89971982116436297559 L 81.94099785569323644628,122.65461511623587940770 L 77.43976460828501991058,134.66142857465293729200 L 77.44118466828002365440,149.41925697352833782030 L 80.69400978114614512233,160.92503310007265229847 L 85.69760721051942038324,170.92984085949585482832 L 93.45266728218259946393,181.18451430971079382130 L 98.95627088684604831455,188.68795209547483741311 L 110.46322979509337232259,198.44201050173334053189 L 116.71620924231366153869,195.18971144771613646854 L 119.96742984503447484590,189.93663447191365176246 L 123.96847005283354482919,178.43018544375315214266 L 128.21992547752553244901,169.92529837888918788389 L 132.72211475105454815256,167.92382839541892411714 L 138.47514761079862550418,167.92330570874211515747 L 140.97626155229045076311,165.67188879578841148226 L 140.97594301231467054623,162.17003597689950210913 L 137.47377567706442853253,158.66849968234713540512 L 134.97229505017594748657,156.91780051131862478974 L 131.21999257225444922376,153.41628874165431950319 L 129.96882646076929737847,147.91348862597195532299 L 128.96749277819644869887,139.15894049985101705304 L 129.46727520220319945021,133.90610877292914652159 L 140.47058706991110958154,106.14034718972009273917 L 134.21654826248697991894,98.38678313622866012370 L 124.71074097400677240222,90.38338404805556781693 L 115.20526868016942880964,86.13199316980334684019 L 109.95299997570120075039,91.88555796670544881738 z"
		id="10-Water_5" kml2svg:originalId="10-Water"/>
	<path
		class="fairway"
		d="M 173.88094637573062755046,168.06262623299976432732 L 171.61092103535171795327,187.16034050308600306889 L 183.03251890944551807038,206.71946065234048651637 L 200.32623074309142429540,227.70313881434972813031 L 214.16110605129885397458,244.49001926533421595850 L 230.79862651583303589561,272.27828779815888369791 L 250.56173057450772696259,294.35831582642720468885 L 276.99593685066646594067,327.38333619003572421651 L 305.51531168659161179775,361.03850439231356746275 L 318.19674937400319023575,376.42615337588322217038 L 341.49978570804254272552,401.85190955204422088697 L 371.44318018178130600140,429.63482782725774002305 L 401.38635721939532225390,457.41770395031990359787 L 426.08311527482568485548,468.38375626688009246128 L 438.75492790934062435774,457.15779455146426476452 L 448.32677206868315993234,446.92062037528389905039 L 446.40081049083662620511,431.28236688866965767858 L 430.34658377142096170616,413.70176142765995125287 L 393.12775360988437599738,372.33999203332003407411 L 356.51324420403991046929,333.61198715522783032794 L 338.50817821287347625193,315.56485777747256213961 L 305.16213477455268644723,287.45383482013487331900 L 283.72404497087338073516,260.49088395157504138469 L 271.23223738135783629205,238.68284153032435156952 L 259.34494879293425099384,219.50851304273974851344 L 235.73909517425808582781,192.76571059826598235126 L 222.67307739832032183918,176.91166185519657680692 L 212.07678491071927178004,162.15418140317054763887 L 204.30884393866069517320,153.67883916439307222954 L 193.33313482480188287682,151.76225671612814157445 L 173.88094637573062755046,168.06262623299976432732 z"
		id="10-Fairway_5" kml2svg:originalId="10-Fairway"/>
	<path
		class="path"
		d="M 348.00682210344009953395,414.49798874267018635086 L 353.63277677254902608469,418.47433759973012200055 L 395.29192090369522121481,369.26538115812706296221 L 420.27730098563953993195,341.62758507600322206446 L 416.65474923671746528445,339.13206505454946311053 L 348.00682210344009953395,414.49798874267018635086 z"
		id="10-Path_5" kml2svg:originalId="10-Path"/>
	<path
		class="contruction"
		d="M 476.62781132192760240015,546.54009106251881782206 L 468.19217317550745260190,549.78788290195198450738 L 465.35134092910246876451,558.19020228652658942187 L 470.68615499598199945258,562.21204864295421406112 L 512.31546657045655267206,597.60852604974405271177 L 523.71469635178533157018,599.99999999999999999999 L 528.30290089917704707142,594.53524105131190198144 L 528.24153467062157566220,587.51449444834515769516 L 484.09799365071340964203,549.47565118722281535621 L 476.62781132192760240015,546.54009106251881782206 z"
		id="Building_5" kml2svg:originalId="Building"/>
	<path
		class="fairway"
		d="M 112.61149368765593829142,44.25167490711208226772 L 97.23630705661080294418,38.50695976278639239804 L 80.80320407086164442662,41.41001904598974835920 L 64.62988844965793663295,48.60081739076060173452 L 56.40263716581166073126,59.47408515815968106333 L 46.90061863531973136801,74.26277812866037546829 L 43.64937813678347823588,84.71822150937910084149 L 27.44670765774339982859,89.88702867059429938826 L 27.72528005190018123777,105.61835870581813154634 L 37.26477058804669141690,113.71699713116673089185 L 46.68908109103271724681,120.68278805840435016026 L 51.10797641826249314946,126.04438383186484754178 L 57.54884248142250267385,131.37651908354156719637 L 60.86434045523181523905,138.87524349238130711958 L 60.22158696971544580937,145.54374142733016814872 L 62.24622983781649372833,152.46933606303512419596 L 67.56762534211404542753,155.45007946197852380843 L 73.15951839051804675958,153.29689315614106818310 L 72.88369410970090492660,144.52072634119399041989 L 75.71983568003109694493,136.04450733766831933628 L 78.44082696129160660192,126.43543547121240474049 L 84.23094543707885713730,117.57088019328922652285 L 90.82450795975743306917,109.68115626048905991302 L 103.11675581469863681513,97.29571685054131237128 L 112.45367765775455098863,85.84578849252935697119 L 120.63164965850990221287,82.86049572685056441941 L 126.48764788493130983131,86.16941508337406221091 L 136.59844896867231801581,91.60374860921371610925 L 142.99916866377492434196,85.70271949241207052605 L 143.83052495327462762339,80.63704025189788432872 L 139.98938984366215407832,70.66123163980180410977 L 131.61080539284048085074,65.05079945444539787927 L 121.52046615129172757860,55.84480332011190231252 L 112.61149368765593829142,44.25167490711208226772 z"
		id="10-Fairway 2_5" kml2svg:originalId="10-Fairway 2"/>
	<path
		class="fairway"
		d="M 172.69729276696634917500,119.14358462439273646850 L 169.32301072875333169167,107.60083033147106789183 L 161.74674332191225901706,95.42865551609164700821 L 153.52762708138845063318,89.92501618939593119921 L 144.46482166725730133412,90.84621466993963049355 L 136.42233230635492309939,97.47452397738334749447 L 139.63604603209594326277,101.37390453887353211503 L 143.99862602380246916343,109.64667426787470696063 L 143.68522691673754902185,115.22520417227972058810 L 140.64815326807334705789,123.45772242875009402324 L 139.54735664107930169688,132.54992384888136448291 L 142.46368613428394762883,146.51631265073776975350 L 144.99171333538910652832,157.52872390335880489484 L 146.44316553965673058326,165.74516916131592686045 L 151.87968147397274986805,169.85879148088313524115 L 164.15869198992669346181,179.79200879284680443984 L 165.60234089596704578528,167.14333992732210367576 L 175.56504807527586370074,156.88630519022850133271 L 188.75489658646015341612,148.06209565237461059890 L 192.76942929937870756192,145.98125470070732881100 L 191.17601540135379757947,141.56502208655854611742 L 184.23436281928563775766,139.10106559603983143783 L 177.30613556713575637209,134.17056753852017829425 L 172.69729276696634917500,119.14358462439273646850 z"
		id="10-Fairway 3_5" kml2svg:originalId="10-Fairway 3"/>
	<path
		class="tree"
		d="M 154.15577873212207031578,175.61047322622377150879 L 145.74375936345377131600,174.79959842181885483127 L 136.18406364573259647745,178.12320052226362248990 L 136.21973802307644050848,188.11510052653900024148 L 140.62835628793240965375,196.78053287347226664537 L 147.39785119138668150739,201.67816068336485311544 L 155.68168151461508780233,201.22812668822958691922 L 158.95175783993706883067,195.79999412705571204243 L 160.88046777637212274827,188.74428652975466524395 L 162.17125638131360335723,183.12534804025470675041 L 154.15577873212207031578,175.61047322622377150879 z"
		id="10-Tree 1_5" kml2svg:originalId="10-Tree 1"/>
	<path
		class="trees"
		d="M 162.03680584838261256405,207.83379339277060024782 L 155.39837400835195829334,211.93837752468442437426 L 154.98690595916727995811,221.38770653275229632753 L 150.03868574236474036610,220.91072121844303617853 L 140.98879380840997268245,221.53662012025571932173 L 141.64745124698460274262,232.83705625668655265937 L 146.96522189618640174892,239.84211076330774936608 L 172.35283242166596514629,264.01407802149389546604 L 186.40146489149038001494,271.11164270509101459948 L 194.38409300892123076142,276.37591912430729597371 L 201.77363531384922689716,274.84089335169639436283 L 203.17478428262922449962,265.48702747040758988265 L 200.50416268397493269805,251.74528204477725705351 L 196.25366835898996195182,238.85005528273810350657 L 185.60323203843086746556,227.58525687427151741924 L 178.72342390490732165510,226.42263769485948038115 L 171.58441885118243126535,214.99691386855864017803 L 162.03680584838261256405,207.83379339277060024782 z"
		id="10-Trees 2_5" kml2svg:originalId="10-Trees 2"/>
	<path
		class="tree"
		d="M 473.29489913712515207873,403.57159700211906912093 L 458.26742030676902583431,399.71051205333678786819 L 453.50294718070642997385,408.71360919032166525124 L 457.91882931887675997350,420.64286498945274616801 L 465.99816488693066684239,429.21458543989508068950 L 474.13526335669759384062,433.33893969719741496796 L 482.44765744917781213297,429.87309631160743370356 L 484.44813249625956178922,418.74810126113220594236 L 473.29489913712515207873,403.57159700211906912093 z"
		id="10-Tree 3_5" kml2svg:originalId="10-Tree 3"/>
	<path
		class="trees"
		d="M 446.22584164692869826028,387.97361568090993098056 L 443.14075627634899846124,383.40871472813833946742 L 447.00578796171881099188,379.88506311577658956653 L 443.02843967715023498464,367.25589076985796376591 L 432.62554887801185408165,361.61427978774797674750 L 425.48300784125432356053,352.94732076653288710657 L 415.67360859589969086263,348.84726990689666561422 L 416.59019823685444828032,358.58376312848393039473 L 420.45923402405777324815,366.56398619743898319936 L 426.58283424834860420833,378.10131895729357467820 L 435.05020979183209869234,376.87684034616312360654 L 435.07649968243910373536,384.30097690638057383310 L 436.69094331176738578990,388.72406729235353038465 L 442.49146608044928920494,392.06648228114966099496 L 446.22584164692869826028,387.97361568090993098056 z"
		id="10-Trees 4_5" kml2svg:originalId="10-Trees 4"/>
	<path
		class="trees"
		d="M 372.83924025161661451877,323.56543343790758376100 L 382.26078788034599880685,337.46174620414224822875 L 390.99356383016167070619,348.87959754137537342638 L 398.78338285706569133434,343.13677387904142037851 L 392.99192816574449702610,332.00251378569824025152 L 384.98332482734852426103,322.69541456673430311459 L 372.83924025161661451877,323.56543343790758376100 z"
		id="10-Trees 5_5" kml2svg:originalId="10-Trees 5"/>
	<path
		class="trees"
		d="M 338.94890770306309375783,270.94370623488220276658 L 334.05177073581297400070,273.62576178852835102159 L 330.06720899956708590953,274.54038606626608659737 L 328.39704063234021038146,280.31669539763689751321 L 320.65174082234716383867,277.90006887546571085922 L 321.32936381670133917423,282.41840243062793404600 L 325.75659175055497235073,292.30786887509553833004 L 330.59600539313018109096,294.07324619162880729679 L 334.73348621356601310662,289.64807732139264561528 L 340.14212151938717117743,291.28279982958421688872 L 339.61039407981158080312,296.79777961780008251628 L 343.50178129818410026445,300.69825690162826364899 L 342.82825838228006021948,307.68389229532132924111 L 347.45496988560254835352,311.65526566571580482307 L 350.19268934009684272837,306.35298563324010133269 L 348.75543739856204526714,300.09154335990437623520 L 352.77543997390521254155,298.80926418602967572001 L 352.38142296902992920389,291.34961252228828533045 L 343.98283905446026149424,286.08685511332630800032 L 343.36498876106768441069,282.87307622802331965842 L 346.09157827721375367831,279.61066832170830008470 L 344.01419981821923048051,274.21520597704324094525 L 338.94890770306309375783,270.94370623488220276658 z"
		id="10-Trees 6_5" kml2svg:originalId="10-Trees 6"/>
	<path
		class="tree"
		d="M 309.50922788957854619812,260.68364497332127112479 L 305.32517083490961622661,267.51639068203395641659 L 310.53433049586637418540,275.06920549789590447283 L 316.36835137230179911858,272.29192440232378372640 L 315.64208820577555212545,264.42914259186458803780 L 309.50922788957854619812,260.68364497332127112479 z"
		id="10-Tree 7_5" kml2svg:originalId="10-Tree 7"/>
</svg>
