<?xml version="1.0" encoding="UTF-8"?>
<svg xmlns="http://www.w3.org/2000/svg" width="600" height="600">
   <defs>
      <style xmlns:g="http://code.google.com/p/golfml"
             xmlns:xlink="http://www.w3.org/1999/xlink"
             xmlns:xs="http://www.w3.org/2001/XMLSchema"
             type="text/css">
/* Stylesheet for SVG elements
 *
 *
 * Classes for area of interest (surfaces)
 *
 * DRAWING
 */
.background {
		fill: url(#background-gradient);
}

.hole-limits {
	fill: none;
	stroke: #ccc;
	stroke-width: 1px;
	stroke-dasharray: 10,10;
}

.hole-contour {
	fill: #030;
	stroke: #fff;
	stroke-width: 2px;
}


/* GROUND
 */
.fairway {
	fill: url(#fairway-pattern);
	stroke: #0b0;
	stroke-width: 3px; /* fairway fringe... */
}

.tee {
	fill: #00c800;
	stroke: #0f0;
	stroke-width: 1px;
}

.fringe {
	fill: #0A0;
}

.green {
	fill: url(#green-gradient);
	stroke: #0f0;
	stroke-width: 1px;
}

.semi-rough,
.light-rough {
	fill: #080;
	stroke: #08800D;
	stroke-width: 1px;
}

.rough {
	fill: url(#rough-gradient);
	stroke: #07660A;
	stroke-width: 1px;
}

.heavy-rough {
	fill: #040;
	stroke: #074D08;
	stroke-width: 1px;
}

.ground {
	fill: #7f400c;
	stroke: #fdcc6a;
	stroke-width: 1px;
}


/* WATER
 */
.lateral-water {
	fill: url(#lateral-water-gradient);
	stroke: red;
	stroke-width: 4px;
}

.front-water, .water {
	fill: #37f;
	stroke: yellow;
	stroke-width: 3px;
}


/* SPECIAL
 */
.under-repair {
	fill: none;
	stroke: #00d;
	stroke-width: 2px;
}

.out-of-bound { /* line only */
	fill: none;
	stroke: white;
	stroke-width: 4px;
}

.out-of-bound-area {
	fill: #ccc;
	stroke: white;
	stroke-width: 4px;
}


/* TRAPS
 */
.trap,
.bunker {
	fill: #92cf94;
	stroke: #4c994c;
	stroke-width: 1px;
}

.grass-trap,
.grass-bunker {
	fill: #050;
	stroke: #0A0;
	stroke-width: 1px;
}

.sand-trap,
.sand-bunker,
.greenside-trap,
.greenside-bunker {
	fill: #eec;
	stroke: #040;
	stroke-width: 2px;
}

.fairway-trap,
.fairway-bunker {
	fill: #eec;
	stroke: #030;
	stroke-width: 2px;
}


/* OBSTACLES
 */
.tree {
	fill: #062;
	stroke: #0c6;
	stroke-width: 1px;
}

.trees {
	fill: #062;
	stroke: #0c6;
	stroke-width: 1px;
}

.bush {
	fill: #00b259;
	stroke: #7f400c;
	stroke-width: 1px;
}


.path {
	fill: #666;
	stroke: #bbb;
	stroke-width: 1px;
}

.building,
.construction {
	fill: #fdcc6a;
	stroke: #7f400C;
	stroke-width: 1px;
}

.obstruction {
	fill: #555;
	stroke: #999;
	stroke-width: 1px;
}


.other {
	fill: #ddd;
	stroke: #666;
	stroke-width: 1px;
}

/* Classes for point of interest (points)
 *
 */
.dogleg {
	fill: #000;
}

.aim {
	fill: #fff;
	stroke: #f00;
	stroke-width: 1px;
}

.tees {
	fill: #00f;
}

.tees-hollow {
	stroke: #fff;
	stroke-width: 0.5px;
}

.hole {
	fill: #fff;
}

.distance-marker-100,
.distance-marker-close {
	fill: #44f;
	stroke: #00f;
	stroke-width: 1px;
}

.distance-marker-150,
.distance-marker-135,
.distance-marker,
.distance-marker-mid {
	fill: #f44;
	stroke: #f00;
	stroke-width: 1px;
}

.distance-marker-200,
.distance-marker-far {
	fill: #dd4;
	stroke: #ff0;
	stroke-width: 1px;
}

.green-region-delimiter {
	fill: none;
	stroke: #fff;
	stroke-width: 0.5;
	stroke-dasharray: 4,2;
}

.neutral {
	fill: none;
	stroke: #888;
	stroke-width: 1px;
}
.one-tree {
	fill: #14920D;
	stroke: #165822;
	stroke-width: 3px;
	stroke-linecap: round;
	stroke-linejoin: round; 
}

/* Classes for special decorative objects
 *
 */
.compass-center {
	fill: #ddd;
	stroke: #fff;
	stroke-width: 1px;
}
.compass-needle {
	fill: #ddd;
	stroke: #fff;
	stroke-width: 1px;
}
.compass-north {
	fill: #fff;
}
.flag-pole {
	fill: none;
	stroke: #f00;
	stroke-width: 2px;
}
.flag-flag {
	fill: #ff0;
	stroke: #f00;
	stroke-width: 1px;
}
.flag-cup {
	fill: #fff;
}
/* Information box */
.info-background {
	fill: #ddd;
}
.info-hole {
	font-family: Georgia, "Times New Roman", Times, serif;
	font-size: xx-large;
}
.info-par {
	font-family: Georgia, "Times New Roman", Times, serif;
	font-size: x-large;
}
.info-length {
	font-family: Georgia, "Times New Roman", Times, serif;
	font-size: large;
}
/* Circle for distances */
.circle-from-green {
	fill: none;
	stroke: #fff;
	stroke-width: 1px;
	stroke-dasharray: 4,4;
}
.circle-from-tee {
	fill: none;
	stroke: #f00;
	stroke-width: 1px;
	stroke-dasharray: 8,8;
}
/* Dynamic objects */
.target {
	fill: none;
	stroke: #f00;
	stroke-width: 2px;
}
.target-filled {
	fill: #f00;
	fill-opacity: 0.5;
	stroke: #f00;
}
.ball {
	fill: #fff;
	stroke: none;
}
.trajectory {
	fill: none;
	stroke: #fff;
	stroke-width: 2px;
}
.distance {
	fill: #fff;
}
</style>
      <linearGradient xmlns:g="http://code.google.com/p/golfml"
                      xmlns:xlink="http://www.w3.org/1999/xlink"
                      xmlns:xs="http://www.w3.org/2001/XMLSchema"
                      id="background-straight">
         <stop offset="5%" stop-color="#002"/>
         <stop offset="95%" stop-color="#004"/>
      </linearGradient>
      <linearGradient xmlns:g="http://code.google.com/p/golfml"
                      xmlns:xlink="http://www.w3.org/1999/xlink"
                      xmlns:xs="http://www.w3.org/2001/XMLSchema"
                      id="background-gradient"
                      gradientTransform="rotate(30)"
                      xlink:href="#background-straight"/>
      <linearGradient xmlns:g="http://code.google.com/p/golfml"
                      xmlns:xlink="http://www.w3.org/1999/xlink"
                      xmlns:xs="http://www.w3.org/2001/XMLSchema"
                      id="lateral-water-straight">
         <stop offset="5%" stop-color="#006"/>
         <stop offset="95%" stop-color="#008"/>
      </linearGradient>
      <linearGradient xmlns:g="http://code.google.com/p/golfml"
                      xmlns:xlink="http://www.w3.org/1999/xlink"
                      xmlns:xs="http://www.w3.org/2001/XMLSchema"
                      id="lateral-water-gradient"
                      gradientTransform="rotate(60)"
                      xlink:href="#lateral-water-straight"/>
      <linearGradient xmlns:g="http://code.google.com/p/golfml"
                      xmlns:xlink="http://www.w3.org/1999/xlink"
                      xmlns:xs="http://www.w3.org/2001/XMLSchema"
                      id="rough-straight">
         <stop offset="0%" stop-color="#030"/>
         <stop offset="25%" stop-color="#060"/>
         <stop offset="50%" stop-color="#040"/>
         <stop offset="75%" stop-color="#060"/>
         <stop offset="100%" stop-color="#080"/>
      </linearGradient>
      <linearGradient xmlns:g="http://code.google.com/p/golfml"
                      xmlns:xlink="http://www.w3.org/1999/xlink"
                      xmlns:xs="http://www.w3.org/2001/XMLSchema"
                      id="rough-gradient"
                      gradientTransform="rotate(70)"
                      xlink:href="#rough-straight"/>
      <linearGradient xmlns:g="http://code.google.com/p/golfml"
                      xmlns:xlink="http://www.w3.org/1999/xlink"
                      xmlns:xs="http://www.w3.org/2001/XMLSchema"
                      id="green-straight">
         <stop offset="0%" stop-color="#0d0"/>
         <stop offset="25%" stop-color="#0e0"/>
         <stop offset="50%" stop-color="#0c0"/>
         <stop offset="75%" stop-color="#0e0"/>
         <stop offset="100%" stop-color="#0b0"/>
      </linearGradient>
      <linearGradient xmlns:g="http://code.google.com/p/golfml"
                      xmlns:xlink="http://www.w3.org/1999/xlink"
                      xmlns:xs="http://www.w3.org/2001/XMLSchema"
                      id="green-gradient"
                      gradientTransform="rotate(75)"
                      xlink:href="#green-straight"/>
      <pattern xmlns:g="http://code.google.com/p/golfml"
               xmlns:xlink="http://www.w3.org/1999/xlink"
               xmlns:xs="http://www.w3.org/2001/XMLSchema"
               id="fairway-straight"
               patternUnits="userSpaceOnUse"
               x="0"
               y="0"
               width="20"
               height="20"
               viewBox="0 0 20 20">
         <rect x="0" y="0" width="10" height="10" fill="#00c000"/>
         <rect x="10" y="10" width="10" height="10" fill="#00c800"/>
         <rect x="10" y="0" width="10" height="10" fill="#00bc00"/>
         <rect x="0" y="10" width="10" height="10" fill="#00b800"/>
      </pattern>
      <pattern xmlns:g="http://code.google.com/p/golfml"
               xmlns:xlink="http://www.w3.org/1999/xlink"
               xmlns:xs="http://www.w3.org/2001/XMLSchema"
               id="fairway-pattern"
               patternTransform="rotate(60)"
               xlink:href="#fairway-straight"/>
      <g xmlns:g="http://code.google.com/p/golfml"
         xmlns:xlink="http://www.w3.org/1999/xlink"
         xmlns:xs="http://www.w3.org/2001/XMLSchema"
         id="Tree"
         transform="translate(-76 -66) scale(0.4)">
         <path class="one-tree"
               d="M191.991,126.799c-11.163,0-21.022,4.032-27.033,10.191c-17.556,0.615-31.556,11.151-31.556,24.079       c0,7.537,4.759,14.266,12.203,18.693c0.876,12.855,18.43,23.128,39.939,23.128c22.07,0,39.979-10.812,39.979-24.136       c0-0.065-0.012-0.13-0.013-0.195c6.33-2.866,10.33-6.992,10.33-11.595c0-4.806-4.343-9.104-11.164-11.977       c0.31-1.318,0.478-2.67,0.478-4.054C225.154,137.612,210.297,126.799,191.991,126.799z"/>
      </g>
      <g xmlns:g="http://code.google.com/p/golfml"
         xmlns:xlink="http://www.w3.org/1999/xlink"
         xmlns:xs="http://www.w3.org/2001/XMLSchema"
         id="TeeSet">
         <circle cx="-5" cy="0" r="2"/>
         <circle cx="5" cy="0" r="2"/>
      </g>
      <g xmlns:g="http://code.google.com/p/golfml"
         xmlns:xlink="http://www.w3.org/1999/xlink"
         xmlns:xs="http://www.w3.org/2001/XMLSchema"
         id="DistanceMarker">
         <circle r="6"/>
      </g>
      <g xmlns:g="http://code.google.com/p/golfml"
         xmlns:xlink="http://www.w3.org/1999/xlink"
         xmlns:xs="http://www.w3.org/2001/XMLSchema"
         id="Dogleg">
         <circle r="4"/>
      </g>
      <g xmlns:g="http://code.google.com/p/golfml"
         xmlns:xlink="http://www.w3.org/1999/xlink"
         xmlns:xs="http://www.w3.org/2001/XMLSchema"
         id="Aim">
         <circle r="4"/>
      </g>
      <g xmlns:g="http://code.google.com/p/golfml"
         xmlns:xlink="http://www.w3.org/1999/xlink"
         xmlns:xs="http://www.w3.org/2001/XMLSchema"
         id="Hole">
         <circle r="2"/>
      </g>
      <g xmlns:g="http://code.google.com/p/golfml"
         xmlns:xlink="http://www.w3.org/1999/xlink"
         xmlns:xs="http://www.w3.org/2001/XMLSchema"
         id="Ball">
         <image xlink:href="../stylesheets/images/golf-ball.png" width="16" height="16"
                transform="translate(-8 -8)"/>
      </g>
      <g xmlns:g="http://code.google.com/p/golfml"
         xmlns:xlink="http://www.w3.org/1999/xlink"
         xmlns:xs="http://www.w3.org/2001/XMLSchema"
         id="Target">
         <circle class="target-filled" r="12"/>
      </g>
      <g xmlns:g="http://code.google.com/p/golfml"
         xmlns:xlink="http://www.w3.org/1999/xlink"
         xmlns:xs="http://www.w3.org/2001/XMLSchema"
         id="Flag"
         transform="translate(0 -30) scale(-0.2 0.2)">
         <line id="FlagPole" class="flag-pole" x1="0.5" y1="0" x2="0.5" y2="150"/>
         <circle id="FlagCup" class="flag-cup" r="10" cx="0" cy="145"/>
         <g id="FlagFlag">
            <path class="flag-flag"
                  d="M55.339,45.968c-18.28-14.516-36.559,14.516-54.839,0c0-12.097,0-24.193,0-36.29        c18.28,14.516,36.559-14.516,54.839,0C55.339,21.774,55.339,33.871,55.339,45.968z"/>
         </g>
      </g>
      <g xmlns:g="http://code.google.com/p/golfml"
         xmlns:xlink="http://www.w3.org/1999/xlink"
         xmlns:xs="http://www.w3.org/2001/XMLSchema"
         id="Compass">
         <polygon id="CompassNeedle" class="compass-needle" points="0,30 -8,0 0,-20 8,0"/>
         <circle id="CompassCenter" class="compass-center" r="10"/>
         <text id="CompassNorth" class="compass-north" x="-4.7" y="40">N</text>
      </g>
      <g xmlns:g="http://code.google.com/p/golfml"
         xmlns:xlink="http://www.w3.org/1999/xlink"
         xmlns:xs="http://www.w3.org/2001/XMLSchema"
         id="GolfMLLogoSmall">
         <image xlink:href="../stylesheets/images/golfml-small.png" width="80" height="15"/>
      </g>
   </defs>
   <rect class="background" x="0" y="0" width="600" height="600"/>
   <g transform="translate(300,300) scale(-0.8379409377958599,0.8379409377958599) rotate(146.9233222238506)">
      <path class="hole-contour"
            d="M-199.9945186506605,222.55086994861577Q-199.9945186506605,222.55086994861577 -196.24745392237782,207.41054983669687 L-194.3739215582365,199.8403897807374Q-190.62685682995382,184.70006966881851 -186.3765983330535,146.21447998297094 L-184.25146908460331,126.97168514004714Q-180.00121058770299,88.48609545419956 -171.0381042846139,49.4048551006822 L-166.55655113306938,29.864234923923526Q-157.59344482998029,-9.217005429593833 -141.4662577930314,-47.24569336223046 L-133.40266427455694,-66.26003732854878Q-117.27547723760806,-104.2887252611854 -78.66199141516613,-182.5741043567744 L-59.355248503945155,-221.71679390456885Q-20.741762681503225,-300.0021730001578 72.10256579289805,-265.62870741601625 L118.5247300300987,-248.44197462394544Q211.36905850449998,-214.06850903980384 145.81088007671218,-158.42256103051756 L113.03179086281826,-130.59958702587443Q47.47361243503045,-74.95363901658817 28.566022755153146,-58.645719812237246 L19.112227915214493,-50.4917602100618Q0.20463823533719241,-34.183841005710875 -33.704865997092924,-5.033577333171834 L-50.65961811330799,9.541554503097679Q-84.56912234573811,38.69181817563672 -82.55242565380125,46.48234561546292 L-81.54407730783282,50.37760933537602Q-79.52738061589596,58.16813677520222 -78.78721798099187,77.83196811240106 L-78.41713666353982,87.66388378100046Q-77.67697402863573,107.32771511819931 -83.10700797434853,133.52038525664952 L-85.82202494720494,146.61672032587464Q-91.25205889291774,172.80939046432485 -96.5077069384197,206.58040463341018 L-99.13553096117067,223.46591171795285Q-104.39117900667263,257.2369258870382 -115.48783418137819,266.6133532559568 L-121.03616176873096,271.3015669404161Q-132.13281694343652,280.6779943093347 -145.6803830335109,288.40631697693584 L-152.45416607854807,292.2704783107364Q-166.00173216862245,299.99880097833756 -184.14866270989103,280.0607583719153 L-193.22212798052533,270.0917370687042Q-211.3690585217939,250.15369446228195 -206.81924257334055,239.11256465681547 L-204.54433459911385,233.59199975408225Q-199.9945186506605,222.55086994861577 -199.9945186506605,222.55086994861577 Z"/>
      <clipPath id="HoleContour" transform="scale(1.2)">
         <path class="hole-contour"
               d="M-199.9945186506605,222.55086994861577Q-199.9945186506605,222.55086994861577 -196.24745392237782,207.41054983669687 L-194.3739215582365,199.8403897807374Q-190.62685682995382,184.70006966881851 -186.3765983330535,146.21447998297094 L-184.25146908460331,126.97168514004714Q-180.00121058770299,88.48609545419956 -171.0381042846139,49.4048551006822 L-166.55655113306938,29.864234923923526Q-157.59344482998029,-9.217005429593833 -141.4662577930314,-47.24569336223046 L-133.40266427455694,-66.26003732854878Q-117.27547723760806,-104.2887252611854 -78.66199141516613,-182.5741043567744 L-59.355248503945155,-221.71679390456885Q-20.741762681503225,-300.0021730001578 72.10256579289805,-265.62870741601625 L118.5247300300987,-248.44197462394544Q211.36905850449998,-214.06850903980384 145.81088007671218,-158.42256103051756 L113.03179086281826,-130.59958702587443Q47.47361243503045,-74.95363901658817 28.566022755153146,-58.645719812237246 L19.112227915214493,-50.4917602100618Q0.20463823533719241,-34.183841005710875 -33.704865997092924,-5.033577333171834 L-50.65961811330799,9.541554503097679Q-84.56912234573811,38.69181817563672 -82.55242565380125,46.48234561546292 L-81.54407730783282,50.37760933537602Q-79.52738061589596,58.16813677520222 -78.78721798099187,77.83196811240106 L-78.41713666353982,87.66388378100046Q-77.67697402863573,107.32771511819931 -83.10700797434853,133.52038525664952 L-85.82202494720494,146.61672032587464Q-91.25205889291774,172.80939046432485 -96.5077069384197,206.58040463341018 L-99.13553096117067,223.46591171795285Q-104.39117900667263,257.2369258870382 -115.48783418137819,266.6133532559568 L-121.03616176873096,271.3015669404161Q-132.13281694343652,280.6779943093347 -145.6803830335109,288.40631697693584 L-152.45416607854807,292.2704783107364Q-166.00173216862245,299.99880097833756 -184.14866270989103,280.0607583719153 L-193.22212798052533,270.0917370687042Q-211.3690585217939,250.15369446228195 -206.81924257334055,239.11256465681547 L-204.54433459911385,233.59199975408225Q-199.9945186506605,222.55086994861577 -199.9945186506605,222.55086994861577 Z"/>
      </clipPath>
      <path class="rough"
            d="M-187.6983622599687,261.5526145319298Q-187.6983622599687,261.5526145319298 -190.85844120151097,256.14515948164495 L-192.43848067228214,253.4414319565025Q-195.59855961382442,248.03397690621762 -199.46051735783186,245.25178546390708 L-201.3914962298356,243.86068974275184Q-205.25345397384305,241.0784983004413 -203.99352583955474,237.34852616038748 L-203.3635617724106,235.48354009036058Q-202.1036336381223,231.75356795030675 -200.0126217854922,227.7502447048537 L-198.96711585917714,225.74858308212723Q-196.87610400654705,221.7452598366742 -193.67513366631914,216.9163717354309 L-192.0746484962052,214.50192768480923Q-188.8736781559773,209.67303958356592 -183.74164020477258,206.23519516084002 L-181.17562122917022,204.5162729494771Q-176.0435832779655,201.0784285267512 -174.37143157987015,198.04177934237137 L-173.5353557308225,196.5234547501815Q-171.86320403272714,193.48680556580166 -171.41992948835247,186.43359592364246 L-171.19829221616513,182.90699110256284Q-170.75501767179045,175.85378146040364 -170.4406482142802,166.44839932169586 L-170.28346348552506,161.74570825234198Q-169.9690940280148,152.3403261136342 -171.603543009794,145.97047798735193 L-172.42076750068364,142.7855539242108Q-174.05521648246284,136.41570579792852 -172.64862817204497,130.61133344327476 L-171.94533401683603,127.70914726594786Q-170.53874570641815,121.9047749112941 -169.11552116373218,111.95047351129577 L-168.4039088923892,106.9733228112966Q-166.98068434970324,97.01902141129827 -167.5162655380641,92.59021617282036 L-167.78405613224453,90.37581355358142Q-168.31963732060538,85.94700831510352 -165.79974811423466,78.48707558230304 L-164.5398035110493,74.7571092159028Q-162.0199143046786,67.29717648310232 -161.0166660909929,58.5861711480546 L-160.51504198415006,54.23066848053075Q-159.51179377046438,45.51966314548304 -156.01857448969406,36.81860837323047 L-154.27196484930892,32.46808098710419Q-150.7787455685386,23.76702621485162 -150.89434494100087,18.09486712784041 L-150.95214462723203,15.258787584334808Q-151.0677439996943,9.5866284973236 -150.76002916121413,1.8411451830382566 L-150.60617174197404,-2.0315964741044157Q-150.29845690349387,-9.77707978838976 -144.73299512067595,-17.77820021814044 L-141.95026422926696,-21.77876043301578Q-136.38480244644904,-29.77988086276646 -128.88487771390606,-37.2199121007711 L-125.13491534763457,-40.939927719773415Q-117.6349906150916,-48.37995895777805 -110.68948189166254,-55.545537212965804 L-107.216727529948,-59.12832634055968Q-100.27121880651895,-66.29390459574743 -91.81122902733325,-71.65503125014996 L-87.58123413774042,-74.33559457735122Q-79.12124435855473,-79.69672123175374 -72.60345486983415,-83.68227525564444 L-69.34456012547385,-85.67505226758978Q-62.82677063675327,-89.66060629148048 -56.30340460279181,-95.02948503361671 L-53.041721585811075,-97.71392440468482Q-46.518355551849616,-103.08280314682105 -40.40606334083014,-109.42168197641013 L-37.3499172353204,-112.59112139120467Q-31.237625024300915,-118.93000022079374 -22.631940232779087,-126.08886667330626 L-18.329097837018175,-129.66829989956253Q-9.723413045496343,-136.82716635207504 -3.753288107757964,-142.19826081193412 L-0.7682256388887767,-144.88380804186363Q5.201899298849603,-150.2549025017227 12.943066084411814,-148.84034193739558 L16.81364947719292,-148.133061655232Q24.554816262755132,-146.71850109090488 30.90034500807826,-142.26613829396487 L34.07310938073983,-140.03995689549487Q40.41863812606296,-135.58759409855486 44.12407031372703,-128.2408129569138 L45.97678640755906,-124.56742238609326Q49.682218595223134,-117.2206412444522 50.486535452032626,-110.853935271219 L50.88869388043738,-107.67058228460242Q51.69301073724687,-101.30387631136922 46.67503556864071,-91.91729909400907 L44.166047984337624,-87.22401048532898Q39.14807281573146,-77.83743326796882 27.502428798255053,-71.52095898221367 L21.679606789516853,-68.36272183933609Q10.033962772040445,-62.04624755358093 -1.3382913834267374,-54.89862703523947 L-7.024418461160323,-51.324816776068744Q-18.396672616627505,-44.17719625772728 -33.5199610182661,-33.032915007441645 L-41.08160521908539,-27.460774382298826Q-56.204893620723986,-16.31649313201319 -67.58923731063055,-6.125481621943889 L-73.28140915558383,-1.0299758669092434Q-84.66575284549039,9.161035643160057 -90.22900917679019,16.608747394099016 L-93.01063734244009,20.332603269568494Q-98.57389367373989,27.780315020507455 -99.0194392896916,35.386877976550586 L-99.24221209766746,39.190159454572154Q-99.68775771361918,46.79672241061528 -98.3355593709203,54.54881858138171 L-97.65946019957084,58.42486666676492Q-96.30726185687196,66.17696283753135 -98.9938686217803,80.6911762350326 L-100.33717200423447,87.94828293378323Q-103.02377876914281,102.46249633128448 -105.02816636502942,119.33108333188147 L-106.03036016297273,127.76537683217998Q-108.03474775885934,144.63396383277697 -109.31581704848598,153.62046434176855 L-109.9563516932993,158.11371459626432Q-111.23742098292594,167.1002151052559 -113.06180355865285,173.5945479949003 L-113.97399484651632,176.8417144397225Q-115.79837742224323,183.3360473293669 -120.95263644372008,192.30704303896056 L-123.52976595445851,196.79254089375738Q-128.68402497593536,205.76353660335104 -129.2551093917899,210.18790131178392 L-129.54065159971717,212.40008366600034Q-130.1117360155717,216.82444837443322 -128.88622024505062,221.67100140898972 L-128.27346235979007,224.09427792626798Q-127.047946589269,228.94083096082448 -126.37352500153378,233.2318483542502 L-126.03631420766615,235.37735705096307Q-125.36189261993093,239.66837444438877 -126.07408514097769,244.78384259230177 L-126.43018140150106,247.34157666625828Q-127.14237392254782,252.45704481417127 -131.31442145997832,257.97367072965045 L-133.40044522869354,260.73198368739Q-137.57249276612404,266.2486096028692 -142.56562052697248,269.5486434383317 L-145.0621844073967,271.1986603560629Q-150.05531216824514,274.4986941915254 -152.9663000528512,276.0087261465559 L-154.42179399515425,276.7637421240712Q-157.33278187976032,278.2737740791017 -161.34595492136262,278.67275043929845 L-163.35254144216378,278.87223861939685Q-167.36571448376608,279.2712149795936 -169.43008693919504,276.6346430520139 L-170.46227316690948,275.3163570882241Q-172.52664562233844,272.6797851606444 -175.00878436030638,270.7332188911134 L-176.24985372929038,269.7599357563479Q-178.73199246725832,267.81336948681684 -182.31854038434247,265.309067504862 L-184.11181434288454,264.05691651388463Q-187.6983622599687,261.5526145319298 -187.6983622599687,261.5526145319298 Z"/>
      <path class="tee"
            d="M159.37793171212957,-225.75134418557732Q159.37793171212957,-225.75134418557732 166.6351725837319,-222.90341684223583 L170.26379301953304,-221.47945317056508Q177.52103389113537,-218.63152582722358 176.0268246294624,-215.96747698959229 L175.27971999862592,-214.63545257077666Q173.78551073695294,-211.97140373314537 165.9313136959546,-213.93170875051268 L162.0042151754554,-214.91186125919631Q154.15001813445707,-216.87216627656363 156.24118356552606,-220.4238374401691 L157.28676628106058,-222.19967302197185Q159.37793171212957,-225.75134418557732 159.37793171212957,-225.75134418557732 Z"/>
      <path class="tee"
            d="M71.36821086963973,-196.8107205377078Q71.36821086963973,-196.8107205377078 75.3572103157403,-192.7894184506508 L77.3517100387906,-190.77876740712233Q81.34070948489118,-186.75746532006534 77.46591664214019,-182.32294159578097 L75.52852022076469,-180.1056797336388Q71.6537273780137,-175.67115600935443 67.21791503676484,-179.24923339271015 L65.0000088661404,-181.038272084388Q60.56419652489155,-184.61634946774373 64.88580226279082,-189.49409789572937 L67.04660513174045,-191.93297210972216Q71.36821086963973,-196.8107205377078 71.36821086963973,-196.8107205377078 Z"/>
      <path class="tee"
            d="M92.25858504406409,-227.13591310796792Q92.25858504406409,-227.13591310796792 96.85053585885473,-225.48558565654747 L99.14651126625006,-224.66042193083723Q103.7384620810407,-223.01009447941678 102.82804544203685,-217.97022289063938 L102.37283712253492,-215.4502870962507Q101.46242048353108,-210.4104155074733 95.82910168747327,-211.32325308970428 L93.01244228944438,-211.7796718808198Q87.37912349338657,-212.69250946305078 89.33090811365759,-218.46987092101764 L90.30680042379308,-221.35855165000106Q92.25858504406409,-227.13591310796792 92.25858504406409,-227.13591310796792 Z"/>
      <path class="tee"
            d="M116.004987483844,-230.00657056230946Q116.004987483844,-230.00657056230946 121.18909178901473,-228.05714369974334 L123.78114394160009,-227.08243026846029Q128.9652482467708,-225.13300340589416 127.76293448997885,-221.28103829746766 L127.16177761158288,-219.35505574325444Q125.95946385479091,-215.50309063482794 120.62162909258832,-216.11807644470062 L117.95271171148704,-216.42556934963693Q112.61487694928445,-217.0405551595096 113.97092116310827,-222.22696132062956 L114.64894327002018,-224.82016440118952Q116.004987483844,-230.00657056230946 116.004987483844,-230.00657056230946 Z"/>
      <path class="fairway"
            d="M-158.1944356568772,148.2373862116268Q-158.1944356568772,148.2373862116268 -158.01782987301178,138.69311348366745 L-157.92952698107905,133.92097711968776Q-157.75292119721362,124.37670439172838 -157.44076150024074,115.52463240390686 L-157.2846816517543,111.0985964099961Q-156.97252195478143,102.24652442217459 -155.82151160603692,91.18446255426352 L-155.24600643166465,85.65343162030797Q-154.09499608292015,74.5913697523969 -150.46178606373334,65.47589392757341 L-148.64518105413995,60.91815601516167Q-145.01197103495315,51.80268019033818 -143.59315873948637,42.95500058932154 L-142.883752591753,38.531160788813224Q-141.46494029628622,29.68348118779658 -139.7461597816553,15.026954516513829 L-138.88676952433988,7.698691180872458Q-137.16798900970898,-6.957835490410294 -131.19251649514575,-13.712286712555532 L-128.20478023786413,-17.08951232362815Q-122.22930772330089,-23.843963545773388 -117.64491278635423,-28.66730263574796 L-115.35271531788088,-31.078972180735246Q-110.76832038093421,-35.902311270709816 -102.2939309666504,-44.860087700658596 L-98.05673625950848,-49.33897591563298Q-89.58234684522466,-58.29675234558176 -82.37125220008781,-62.69452822470115 L-78.76570487751938,-64.89341616426086Q-71.55461023238253,-69.29119204338025 -65.03905165217388,-72.72339909417889 L-61.781272362069565,-74.4395026195782Q-55.265713781860924,-77.87170967037684 -48.600121298024845,-84.20835088777085 L-45.26732505610681,-87.37667149646785Q-38.601732572270734,-93.71331271386185 -30.271648672459023,-101.14993787016118 L-26.106606722553167,-104.86825044831086Q-17.776522822741452,-112.30487560461019 -9.718589966539486,-120.84928710233574 L-5.6896235384385045,-125.12149285119852Q2.368309317763461,-133.66590434892407 6.660576145317186,-134.61697155528216 L8.806709559094049,-135.0925051584612Q13.098976386647774,-136.04357236481928 16.826751994534046,-134.2301722130331 L18.69063979847718,-133.32347213713996Q22.41841540636345,-131.51007198535376 27.103922571042315,-127.06441636481786 L29.44667615338175,-124.8415885545499Q34.13218331806061,-120.395932934014 35.49431454684619,-115.13366461628415 L36.17538016123898,-112.50253045741923Q37.537511390024555,-107.24026213968938 35.44520205361048,-102.96028771550253 L34.399047385403435,-100.82030050340911Q32.30673804898936,-96.54032607922227 26.056630372272963,-90.3404225267545 L22.931576533914768,-87.24047075052061Q16.68146885719837,-81.04056719805284 3.781381021915072,-72.37739979211591 L-2.668662895726575,-68.04581608914745Q-15.568750731009874,-59.382648683210526 -27.915418672107688,-50.71721784309252 L-34.088752642656594,-46.384502423033524Q-46.43542058375441,-37.71907158291552 -56.98981404248911,-27.52472445227474 L-62.267010771856455,-22.42755088695435Q-72.82140423059116,-12.23320375631357 -78.38246327319132,-5.338817995358638 L-81.1629927944914,-1.8916251148811742Q-86.72405183709157,5.0027606460737575 -91.45510045453025,11.900477889719888 L-93.8206247632496,15.34933651154295Q-98.55167338068829,22.24705375518908 -101.7593946658518,28.735878548620295 L-103.36325530843355,31.980290945335906Q-106.57097659359707,38.46911573876712 -107.30983677366787,50.22449934070298 L-107.67926686370326,56.10219114167091Q-108.41812704377406,67.85757474360676 -110.38474138365703,75.31969082300199 L-111.36804855359853,79.05074886269959Q-113.3346628934815,86.51286494209482 -114.7557256729771,95.91382444961015 L-115.46625706272492,100.61430420336781Q-116.88731984222053,110.01526371088313 -119.01723851570628,123.70169613206083 L-120.08219785244917,130.54491234264967Q-122.21211652593492,144.23134476382737 -122.80652571747726,154.46559490112935 L-123.10373031324842,159.58271996978033Q-123.69813950479076,169.8169701070823 -126.90691114109596,176.58243317228695 L-128.51129695924857,179.96516470488925Q-131.72006859555376,186.7306277700939 -136.0354637828038,193.49167376123225 L-138.19316137642878,196.87219675680143Q-142.5085565636788,203.6332427479398 -142.39521032489938,209.85867430357067 L-142.33853720550965,212.9713900813861Q-142.22519096673022,219.19682163701697 -140.1708077154258,224.32335153503738 L-139.1436160897736,226.8866164840476Q-137.08923283846917,232.01314638206802 -136.13481880798977,235.47528524580378 L-135.6576117927501,237.20635467767164Q-134.7031977622707,240.6684935414074 -135.96092424568786,243.8451214189384 L-136.58978748739642,245.4334353577039Q-137.8475139708136,248.6100632352349 -139.10634865366106,252.06335388831806 L-139.73576599508482,253.78999921485968Q-140.99460067793228,257.24328986794285 -146.12328145668715,259.85111749418604 L-148.6876218460646,261.1550313073077Q-153.81630262481946,263.7628589335509 -156.5806388130972,263.1984810791175 L-157.96280690723611,262.9162921519009Q-160.72714309551387,262.35191429746754 -165.01142966147748,261.3664784807328 L-167.1535729444593,260.8737605723654Q-171.43785951042292,259.88832475563066 -172.95891396391244,259.74392051953663 L-173.7194411906572,259.67171840148967Q-175.2404956441467,259.52731416539564 -177.1815312734329,260.62623569849745 L-178.152049088076,261.1756964650483Q-180.09308471736222,262.2746179981501 -181.4730365998627,261.439112776628 L-182.16301254111292,261.0213601658669Q-183.5429644236134,260.1858549443448 -185.6095687636251,258.1026160196385 L-186.64287093363097,257.06099655728536Q-188.70947527364268,254.97775763257906 -190.0805594393148,251.92896359437364 L-190.7661015221509,250.40456657527093Q-192.13718568782303,247.35577253706552 -193.65380816885414,246.10472709584656 L-194.4121194093697,245.47920437523706Q-195.9287418904008,244.2281589340181 -197.718698063883,242.1460285593135 L-198.61367615062412,241.1049633719612Q-200.40363232410633,239.0228329972566 -198.8703706020868,236.12394895313116 L-198.10373974107702,234.67450693106846Q-196.5704780190575,231.77562288694304 -193.09285234299276,226.94783831177259 L-191.35403950496035,224.53394602418737Q-187.8764138288956,219.70616144901692 -184.26765995690252,216.67723261659887 L-182.463283020906,215.16276820038988Q-178.85452914891292,212.13383936797183 -174.69357140319806,209.38379480819523 L-172.61309253034065,208.00877252830693Q-168.4521347846258,205.25872796853034 -164.54896544320215,197.80434390691724 L-162.5973807724903,194.07715187611072Q-158.69421143106666,186.62276781449762 -157.8309476137186,178.32624537036773 L-157.39931570504453,174.1779841483028Q-156.53605188769646,165.88146170417292 -157.19940539536876,158.82383150715447 L-157.5310821492049,155.29501640864527Q-158.1944356568772,148.2373862116268 -158.1944356568772,148.2373862116268 Z"/>
      <path class="greenside-trap"
            d="M-174.8902114491367,267.48451740606646Q-174.8902114491367,267.48451740606646 -176.02128143806198,266.1688127167429 L-176.58681643252464,265.5109603720811Q-177.71788642144992,264.19525568275753 -176.57630678018486,262.8886280178886 L-176.00551695955235,262.2353141854542Q-174.8639373182873,260.92868652058525 -172.2423505018959,261.11398293359167 L-170.93155709370023,261.20663114009494Q-168.30997027730885,261.39192755310137 -165.95306738434934,262.1880579214457 L-164.7746159378696,262.5861231056179Q-162.4177130449101,263.38225347396224 -161.90236901226794,265.6570386788251 L-161.64469699594687,266.79443128125644Q-161.1293529633047,269.0692164861193 -161.92339677904013,270.9017045268633 L-162.32041868690783,271.81794854723535Q-163.11446250264325,273.65043658797936 -165.21438992450638,274.1665201931514 L-166.26435363543797,274.4245619957374Q-168.3642810573011,274.9406456009095 -168.96808980815632,272.92774777475154 L-169.26999418358395,271.9212988616726Q-169.87380293443917,269.90840103551466 -171.88036634031818,268.93884758373537 L-172.8836480432577,268.45407085784575Q-174.8902114491367,267.48451740606646 -174.8902114491367,267.48451740606646 Z"/>
      <path class="greenside-trap"
            d="M-195.80428839067028,238.630850012967Q-195.80428839067028,238.630850012967 -195.26499501781564,237.62195762669265 L-194.99534833138833,237.11751143355545Q-194.45605495853368,236.1086190472811 -193.5599334957439,235.10114891520558 L-193.111872764349,234.59741384916785Q-192.2157513015592,233.58994371709232 -191.49447070600672,231.68967877247647 L-191.1338304082305,230.7395463001685Q-190.412549812678,228.83928135555266 -188.85628630216436,226.34761886609283 L-188.07815454690757,225.1017876213629Q-186.52189103639392,222.61012513190306 -184.25577872148838,221.07287050651954 L-183.12272256403563,220.30424319382777Q-180.85661024913009,218.76698856844425 -178.7137305344774,218.2997610553522 L-177.64229067715107,218.06614729880616Q-175.4994109624984,217.59891978571412 -174.66871741783982,218.07802425725612 L-174.25337064551053,218.3175764930271Q-173.42267710085196,218.7966809645691 -173.07013810651097,219.86860832433806 L-172.89386860934047,220.4045720042225Q-172.54132961499948,221.47649936399145 -173.3777416392757,222.42472972095095 L-173.79594765141385,222.89884489943069Q-174.63235967569008,223.84707525639018 -176.83685420387582,224.84931474911127 L-177.9391014679687,225.3504344954718Q-180.14359599615443,226.3526739881929 -181.63776832089977,228.19037678864368 L-182.38485448327242,229.10922818886905Q-183.87902680801776,230.94693098931984 -185.19645266149843,233.2016539721981 L-185.85516558823878,234.3290154636372Q-187.17259144171945,236.58373844651547 -187.9852479136112,238.0820321741018 L-188.3915761495571,238.831179037895Q-189.20423262144885,240.32947276548134 -191.04159177989567,240.75920435954112 L-191.9602713591191,240.97407015657103Q-193.79763051756592,241.4038017506308 -194.60029366680766,240.29462105556527 L-195.00162524142854,239.74003070803252Q-195.80428839067028,238.630850012967 -195.80428839067028,238.630850012967 Z"/>
      <path class="green"
            d="M-187.69644823786453,245.7987822486554Q-187.69644823786453,245.7987822486554 -186.72128267936117,242.39358219794642 L-186.23369990010946,240.6909821725919Q-185.2585343416061,237.2857821218829 -183.49983057585555,234.6704262723821 L-182.62047869298027,233.36274834763165Q-180.86177492722973,230.74739249813084 -178.75833333285237,229.35719350749653 L-177.70661253566368,228.66209401217938Q-175.60317094128632,227.27189502154508 -173.06793299447227,227.19461060804792 L-171.80031402106522,227.15596840129936Q-169.26507607425117,227.0786839878022 -168.73360994545817,225.33255446586654 L-168.46787688106164,224.4594897048987Q-167.93641075226864,222.71336018296302 -169.41642513246694,221.2214308665357 L-170.15643232256608,220.47546620832205Q-171.63644670276437,218.98353689189474 -171.36826076270546,217.49859501652963 L-171.23416779267603,216.75612407884705Q-170.96598185261712,215.27118220348194 -169.29853496914964,213.61700439643323 L-168.46481152741592,212.7899154929089Q-166.79736464394844,211.1357376858602 -164.17296149242677,210.6217512050146 L-162.86075991666593,210.3647579645918Q-160.23635676514425,209.8507714837462 -157.35498133209452,210.64900643602715 L-155.91429361556965,211.04812391216765Q-153.03291818251992,211.8463588644486 -150.24701652522614,214.65470701748103 L-148.85406569657928,216.05888109399726Q-146.0681640392855,218.86722924702968 -144.42034934111368,222.1080879060275 L-143.5964419920278,223.7285172355264Q-141.94862729385596,226.9693758945242 -142.13887367351163,230.81476774533422 L-142.23399686333943,232.73746367073926Q-142.4242432429951,236.58285552154928 -144.18646078763766,240.07230772562355 L-145.06756955995894,241.81703382766068Q-146.8297871046015,245.30648603173495 -149.19931018960227,247.65714647356927 L-150.38407173210265,248.83247669448642Q-152.75359481710342,251.18313713632074 -156.08076690275962,252.56843579170993 L-157.7443529455877,253.26108511940453Q-161.0715250312439,254.64638377479372 -164.30813298527136,255.24533773245676 L-165.92643696228507,255.5448147112883Q-169.16304491631251,256.14376866895134 -173.0947267217277,255.6910015822777 L-175.0605676244353,255.46461803894087Q-178.9922494298505,255.01185095226722 -181.60963683948543,253.77762564916677 L-182.91833054430288,253.1605129976165Q-185.53571795393782,251.92628769451605 -186.4000100675085,249.4752855161718 L-186.83215612429385,248.24978442699967Q-187.69644823786453,245.7987822486554 -187.69644823786453,245.7987822486554 Z"/>
      <path class="trees"
            d="M-144.95279116988686,-58.213842894602735Q-144.95279116988686,-58.213842894602735 -140.7880784595881,-55.612572959301716 L-138.70572210443873,-54.311937991651206Q-134.54100939413996,-51.71066805635019 -133.3640825447682,-47.729652695236666 L-132.77561912008233,-45.73914501467991Q-131.59869227071056,-41.75812965356639 -135.20283667790756,-35.41047499217675 L-137.00490888150603,-32.23664766148193Q-140.60905328870302,-25.888993000092288 -143.01393669310514,-21.127057642487664 L-144.21637839530618,-18.746089963685357Q-146.6212617997083,-13.984154606080732 -149.22096686941575,-10.21707340385208 L-150.52081940426947,-8.333532802737754Q-153.12052447397693,-4.566451600509101 -154.73174617808763,0.5962879769564191 L-155.537357030143,3.1776577656891787Q-157.1485787342537,8.340397343154699 -158.3605766244007,13.107099087868535 L-158.9665755694742,15.490449960225453Q-160.1785734596212,20.25715170493929 -159.3944866157181,23.043687711181022 L-159.00244319376657,24.436955714301885Q-158.21835634986348,27.223491720543617 -157.6434477998241,32.59377995441923 L-157.35599352480438,35.278924071357046Q-156.78108497476498,40.649212305232666 -158.57755807912426,42.431359948744095 L-159.4757946313039,43.322433770499806Q-161.27226773566318,45.104581414011236 -162.47628924722622,47.88316973086327 L-163.0783000030077,49.272463889289284Q-164.28232151457075,52.05105220614132 -166.28796437058475,56.41694943191087 L-167.2907857985917,58.59989804479565Q-169.2964286546057,62.9657952705652 -169.323524509966,69.72536695780985 L-169.33707243764619,73.10515280143218Q-169.3641682930065,79.86472448867683 -170.17375490513737,83.44014507060957 L-170.5785482112028,85.22785536157593Q-171.38813482333367,88.80327594350868 -173.01049302213653,96.74935517510417 L-173.82167212153797,100.7223947909019Q-175.44403032034083,108.66847402249739 -175.8528094729334,111.45023813311879 L-176.05719904922967,112.84112018842949Q-176.46597820182222,115.62288429905088 -178.0708001385634,119.19512967037086 L-178.873211106934,120.98125235603085Q-180.4780330436752,124.55349772735083 -180.30552729080895,131.11504855574583 L-180.2192744143758,134.39582396994334Q-180.04676866150956,140.95737479833835 -179.0694581668498,145.13636385117096 L-178.58080291951993,147.22585837758726Q-177.60349242486018,151.40484743041986 -176.03694277238944,157.37552067010512 L-175.25366794615408,160.36085728994775Q-173.68711829368334,166.331530529633 -174.3082541203547,172.49227780824833 L-174.61882203369038,175.57265144755598Q-175.23995786036173,181.73339872617132 -178.63165621475105,184.7020754988929 L-180.32750539194572,186.1864138852537Q-183.71920374633504,189.15509065797528 -183.54192022378527,194.52377592183555 L-183.45327846251035,197.2081185537657Q-183.27599493996058,202.57680381762597 -186.85931481568446,203.75539242335 L-188.65097475354642,204.344686726212Q-192.2342946292703,205.52327533193602 -194.81959666641185,205.71178491651824 L-196.11224768498263,205.80603970880935Q-198.6975497221242,205.99454929339157 -192.78786255102943,170.03279147553724 L-189.83301896548207,152.0519125666101Q-183.9233317943873,116.09015474875577 -180.64674964011607,92.24554463835305 L-179.00845856298045,80.32323958315169Q-175.7318764087092,56.47862947274898 -174.89998049925438,47.336492486582785 L-174.48403254452697,42.76542399349968Q-173.65213663507214,33.62328700733349 -168.81371714395814,16.942197013703765 L-166.39450739840115,8.60165201688891Q-161.55608790728715,-8.079437976740813 -154.91476921232703,-28.133199943885582 L-151.59410986484698,-38.16008092745797Q-144.95279116988686,-58.213842894602735 -144.95279116988686,-58.213842894602735 Z"/>
      <path class="trees"
            d="M-86.60645088935568,17.56956610040614Q-86.60645088935568,17.56956610040614 -82.82504671684273,16.590666810711337 L-80.93434463058625,16.10121716586394Q-77.1529404580733,15.122317876169138 -74.76081576059133,13.541405375628514 L-73.56475341185033,12.7509491253582Q-71.17262871436836,11.170036624817577 -71.35785413605508,7.789448173000639 L-71.45046684689845,6.099153947092169Q-71.63569226858517,2.7185654952752314 -70.02921801698531,-1.2512752582385973 L-69.22598089118539,-3.2361956349955108Q-67.61950663958552,-7.2060363885093395 -61.63117437558329,-13.146421565048144 L-58.63700824358217,-16.116614153317546Q-52.64867597957994,-22.05699932985635 -48.461630006825764,-25.022391641396162 L-46.36810702044867,-26.505087797166066Q-42.18106104769449,-29.47048010870588 -35.99308322800011,-35.60885576013451 L-32.899094318152926,-38.678043585848826Q-26.711116498458544,-44.81641923727746 -24.93381019096406,-41.827043565056286 L-24.04515703721682,-40.33235572894571Q-22.267850729722337,-37.342980056724535 -19.87730152996122,-38.52624859631197 L-18.682026930080664,-39.117882866105695Q-16.291477730319546,-40.30115140569313 -11.917609303570858,-40.28354169952775 L-9.730675090196513,-40.274736846445066Q-5.356806663447826,-40.257127140279685 -5.966854352450541,-36.879729863407455 L-6.2718781969518975,-35.19103122497135Q-6.881925885954613,-31.813633948099117 -11.663020161026246,-29.447104157149546 L-14.05356729856206,-28.26383926167476Q-18.834661573633692,-25.89730947072519 -24.623407715841893,-20.15497376265843 L-27.51778078694599,-17.283805908625048Q-33.30652692915419,-11.541470200558287 -40.67774661040063,-7.7936272050300754 L-44.36335645102385,-5.919705707265969Q-51.73457613227029,-2.171862711737757 -57.52648148744015,4.365746411010807 L-60.42243416502508,7.634550972385091Q-66.21433952019494,14.172160095133655 -70.20813947669149,18.530040516815024 L-72.20503945493977,20.708980727655707Q-76.19883941143631,25.066861149337075 -81.16990893999676,25.24573033426361 L-83.65544370427698,25.335164926726872Q-88.62651323283742,25.514034111653405 -87.81848829544472,22.336246907154496 L-87.41447582674839,20.747353304905047Q-86.60645088935568,17.56956610040614 -86.60645088935568,17.56956610040614 Z"/>
      <path class="trees"
            d="M-116.34418183444939,244.09817770576214Q-116.34418183444939,244.09817770576214 -118.3178714935101,240.51162581566317 L-119.30471632304044,238.7183498706137Q-121.27840598210115,235.13179798051473 -118.08791747339257,232.7588045781591 L-116.49267321903828,231.5723078769813Q-113.3021847103297,229.19931447462568 -118.4456091194879,222.81667980606787 L-121.01732132406701,219.62536247178895Q-126.16074573322521,213.24272780323113 -121.3813970070047,211.27372460820857 L-118.99172264389443,210.28922301069727Q-114.21237391767392,208.3202198156747 -111.42747675499069,207.9337446560709 L-110.03502817364907,207.74050707626898Q-107.25013101096584,207.35403191666518 -107.02177378179236,199.9988385576052 L-106.90759516720563,196.3212418780752Q-106.67923793803214,188.96604851901523 -103.06715280034821,180.6303448848103 L-101.26111023150624,176.46249306770784Q-97.6490250938223,168.12678943350292 -92.86325823960428,164.56733243368384 L-90.47037481249525,162.7876039337743Q-85.68460795827723,159.22814693395523 -83.72689658454622,166.79091873252995 L-82.74804089768074,170.57230463181733Q-80.79032952394974,178.13507643039205 -84.60043095753164,186.27115513326805 L-86.50548167432258,190.33919448470607Q-90.31558310790449,198.47527318758208 -91.12679181347907,202.4482989665725 L-91.53239616626635,204.43481185606774Q-92.34360487184094,208.40783763505817 -91.77994489937952,216.56146083944031 L-91.49811491314881,220.63827244163136Q-90.93445494068739,228.7918956460135 -93.1397035221351,233.35577729645118 L-94.24232781285895,235.63771812167Q-96.44757639430665,240.20159977210767 -99.24204826578381,242.973797341212 L-100.63928420152237,244.35989612576418Q-103.43375607299953,247.1320936948685 -108.59792637757947,245.91852729922596 L-111.18001152986945,245.31174410140468Q-116.34418183444939,244.09817770576214 -116.34418183444939,244.09817770576214 Z"/>
      <use xmlns:xlink="http://www.w3.org/1999/xlink" xlink:href="#Dogleg"
           x="-107.48350443545152"
           y="-4.2336823058873 "/>
      <use xmlns:xlink="http://www.w3.org/1999/xlink" xlink:href="#TeeSet"
           x="119.04261520511508"
           y="-202.83867029891528"
           class="tees"
           transform="rotate(-146.9233222238506 119.04261520511508 -202.83867029891528)"/>
      <use xmlns:xlink="http://www.w3.org/1999/xlink" xlink:href="#Flag"
           x="-164.82253776377965"
           y="232.99728384342595"
           transform="rotate(-146.9233222238506 -164.82253776377965 232.99728384342595)"/>
      <g clip-path="url(#HoleContour)">
         <circle cx="119.04261520511508" cy="-202.83867029891528" r="158.47324541744484"
                 class="circle-from-tee"/>
         <circle cx="119.04261520511508" cy="-202.83867029891528" r="237.70986812616727"
                 class="circle-from-tee"/>
         <circle cx="119.04261520511508" cy="-202.83867029891528" r="316.9464908348897"
                 class="circle-from-tee"/>
         <circle cx="-164.82253776377965" cy="232.99728384342595" r="158.47324541744484"
                 class="circle-from-green"/>
         <circle cx="-164.82253776377965" cy="232.99728384342595" r="237.70986812616727"
                 class="circle-from-green"/>
         <circle cx="-164.82253776377965" cy="232.99728384342595" r="316.9464908348897"
                 class="circle-from-green"/>
      </g>
   </g>
   <rect x="470" y="400" rx="4" ry="4" width="110" height="180" class="info-background"/>
   <text x="525" y="420" class="info-hole" text-anchor="middle">
					Hole 14</text>
   <text x="525" y="440" class="info-par" text-anchor="middle">
					Par 4</text>
   <circle cx="485.625" cy="457.1875" r="5.625" style="fill:blue"/>
   <text x="496.875" y="460" class="info-length">388 meters</text>
   <use xmlns:xlink="http://www.w3.org/1999/xlink" xlink:href="#Compass" x="550" y="50"
        transform="rotate(146.9233222238506 550 50)"/>
   <use xmlns:xlink="http://www.w3.org/1999/xlink" xlink:href="#GolfMLLogoSmall" x="10"
        y="575"/>
</svg>