<?xml version="1.0" encoding="UTF-8"?>
<svg xmlns="http://www.w3.org/2000/svg" width="600" height="600">
   <defs>
      <style xmlns:g="http://code.google.com/p/golfml"
             xmlns:xlink="http://www.w3.org/1999/xlink"
             xmlns:xs="http://www.w3.org/2001/XMLSchema"
             type="text/css">
/* Stylesheet for SVG elements
 *
 *
 * Classes for area of interest (surfaces)
 *
 * DRAWING
 */
.background {
		fill: url(#background-gradient);
}

.hole-limits {
	fill: none;
	stroke: #ccc;
	stroke-width: 1px;
	stroke-dasharray: 10,10;
}

.hole-contour {
	fill: #030;
	stroke: #fff;
	stroke-width: 2px;
}


/* GROUND
 */
.fairway {
	fill: url(#fairway-pattern);
	stroke: #0b0;
	stroke-width: 3px; /* fairway fringe... */
}

.tee {
	fill: #00c800;
	stroke: #0f0;
	stroke-width: 1px;
}

.fringe {
	fill: #0A0;
}

.green {
	fill: url(#green-gradient);
	stroke: #0f0;
	stroke-width: 1px;
}

.semi-rough,
.light-rough {
	fill: #080;
	stroke: #08800D;
	stroke-width: 1px;
}

.rough {
	fill: url(#rough-gradient);
	stroke: #07660A;
	stroke-width: 1px;
}

.heavy-rough {
	fill: #040;
	stroke: #074D08;
	stroke-width: 1px;
}

.ground {
	fill: #7f400c;
	stroke: #fdcc6a;
	stroke-width: 1px;
}


/* WATER
 */
.lateral-water {
	fill: url(#lateral-water-gradient);
	stroke: red;
	stroke-width: 4px;
}

.front-water, .water {
	fill: #37f;
	stroke: yellow;
	stroke-width: 3px;
}


/* SPECIAL
 */
.under-repair {
	fill: none;
	stroke: #00d;
	stroke-width: 2px;
}

.out-of-bound { /* line only */
	fill: none;
	stroke: white;
	stroke-width: 4px;
}

.out-of-bound-area {
	fill: #ccc;
	stroke: white;
	stroke-width: 4px;
}


/* TRAPS
 */
.trap,
.bunker {
	fill: #92cf94;
	stroke: #4c994c;
	stroke-width: 1px;
}

.grass-trap,
.grass-bunker {
	fill: #050;
	stroke: #0A0;
	stroke-width: 1px;
}

.sand-trap,
.sand-bunker,
.greenside-trap,
.greenside-bunker {
	fill: #eec;
	stroke: #040;
	stroke-width: 2px;
}

.fairway-trap,
.fairway-bunker {
	fill: #eec;
	stroke: #030;
	stroke-width: 2px;
}


/* OBSTACLES
 */
.tree {
	fill: #062;
	stroke: #0c6;
	stroke-width: 1px;
}

.trees {
	fill: #062;
	stroke: #0c6;
	stroke-width: 1px;
}

.bush {
	fill: #00b259;
	stroke: #7f400c;
	stroke-width: 1px;
}


.path {
	fill: #666;
	stroke: #bbb;
	stroke-width: 1px;
}

.building,
.construction {
	fill: #fdcc6a;
	stroke: #7f400C;
	stroke-width: 1px;
}

.obstruction {
	fill: #555;
	stroke: #999;
	stroke-width: 1px;
}


.other {
	fill: #ddd;
	stroke: #666;
	stroke-width: 1px;
}

/* Classes for point of interest (points)
 *
 */
.dogleg {
	fill: #000;
}

.aim {
	fill: #fff;
	stroke: #f00;
	stroke-width: 1px;
}

.tees {
	fill: #00f;
}

.tees-hollow {
	stroke: #fff;
	stroke-width: 0.5px;
}

.hole {
	fill: #fff;
}

.distance-marker-100,
.distance-marker-close {
	fill: #44f;
	stroke: #00f;
	stroke-width: 1px;
}

.distance-marker-150,
.distance-marker-135,
.distance-marker,
.distance-marker-mid {
	fill: #f44;
	stroke: #f00;
	stroke-width: 1px;
}

.distance-marker-200,
.distance-marker-far {
	fill: #dd4;
	stroke: #ff0;
	stroke-width: 1px;
}

.green-region-delimiter {
	fill: none;
	stroke: #fff;
	stroke-width: 0.5;
	stroke-dasharray: 4,2;
}

.neutral {
	fill: none;
	stroke: #888;
	stroke-width: 1px;
}
.one-tree {
	fill: #14920D;
	stroke: #165822;
	stroke-width: 3px;
	stroke-linecap: round;
	stroke-linejoin: round; 
}

/* Classes for special decorative objects
 *
 */
.compass-center {
	fill: #ddd;
	stroke: #fff;
	stroke-width: 1px;
}
.compass-needle {
	fill: #ddd;
	stroke: #fff;
	stroke-width: 1px;
}
.compass-north {
	fill: #fff;
}
.flag-pole {
	fill: none;
	stroke: #f00;
	stroke-width: 2px;
}
.flag-flag {
	fill: #ff0;
	stroke: #f00;
	stroke-width: 1px;
}
.flag-cup {
	fill: #fff;
}
/* Information box */
.info-background {
	fill: #ddd;
}
.info-hole {
	font-family: Georgia, "Times New Roman", Times, serif;
	font-size: xx-large;
}
.info-par {
	font-family: Georgia, "Times New Roman", Times, serif;
	font-size: x-large;
}
.info-length {
	font-family: Georgia, "Times New Roman", Times, serif;
	font-size: large;
}
/* Circle for distances */
.circle-from-green {
	fill: none;
	stroke: #fff;
	stroke-width: 1px;
	stroke-dasharray: 4,4;
}
.circle-from-tee {
	fill: none;
	stroke: #f00;
	stroke-width: 1px;
	stroke-dasharray: 8,8;
}
/* Dynamic objects */
.target {
	fill: none;
	stroke: #f00;
	stroke-width: 2px;
}
.target-filled {
	fill: #f00;
	fill-opacity: 0.5;
	stroke: #f00;
}
.ball {
	fill: #fff;
	stroke: none;
}
.trajectory {
	fill: none;
	stroke: #fff;
	stroke-width: 2px;
}
.distance {
	fill: #fff;
}
</style>
      <linearGradient xmlns:g="http://code.google.com/p/golfml"
                      xmlns:xlink="http://www.w3.org/1999/xlink"
                      xmlns:xs="http://www.w3.org/2001/XMLSchema"
                      id="background-straight">
         <stop offset="5%" stop-color="#002"/>
         <stop offset="95%" stop-color="#004"/>
      </linearGradient>
      <linearGradient xmlns:g="http://code.google.com/p/golfml"
                      xmlns:xlink="http://www.w3.org/1999/xlink"
                      xmlns:xs="http://www.w3.org/2001/XMLSchema"
                      id="background-gradient"
                      gradientTransform="rotate(30)"
                      xlink:href="#background-straight"/>
      <linearGradient xmlns:g="http://code.google.com/p/golfml"
                      xmlns:xlink="http://www.w3.org/1999/xlink"
                      xmlns:xs="http://www.w3.org/2001/XMLSchema"
                      id="lateral-water-straight">
         <stop offset="5%" stop-color="#006"/>
         <stop offset="95%" stop-color="#008"/>
      </linearGradient>
      <linearGradient xmlns:g="http://code.google.com/p/golfml"
                      xmlns:xlink="http://www.w3.org/1999/xlink"
                      xmlns:xs="http://www.w3.org/2001/XMLSchema"
                      id="lateral-water-gradient"
                      gradientTransform="rotate(60)"
                      xlink:href="#lateral-water-straight"/>
      <linearGradient xmlns:g="http://code.google.com/p/golfml"
                      xmlns:xlink="http://www.w3.org/1999/xlink"
                      xmlns:xs="http://www.w3.org/2001/XMLSchema"
                      id="rough-straight">
         <stop offset="0%" stop-color="#030"/>
         <stop offset="25%" stop-color="#060"/>
         <stop offset="50%" stop-color="#040"/>
         <stop offset="75%" stop-color="#060"/>
         <stop offset="100%" stop-color="#080"/>
      </linearGradient>
      <linearGradient xmlns:g="http://code.google.com/p/golfml"
                      xmlns:xlink="http://www.w3.org/1999/xlink"
                      xmlns:xs="http://www.w3.org/2001/XMLSchema"
                      id="rough-gradient"
                      gradientTransform="rotate(70)"
                      xlink:href="#rough-straight"/>
      <linearGradient xmlns:g="http://code.google.com/p/golfml"
                      xmlns:xlink="http://www.w3.org/1999/xlink"
                      xmlns:xs="http://www.w3.org/2001/XMLSchema"
                      id="green-straight">
         <stop offset="0%" stop-color="#0d0"/>
         <stop offset="25%" stop-color="#0e0"/>
         <stop offset="50%" stop-color="#0c0"/>
         <stop offset="75%" stop-color="#0e0"/>
         <stop offset="100%" stop-color="#0b0"/>
      </linearGradient>
      <linearGradient xmlns:g="http://code.google.com/p/golfml"
                      xmlns:xlink="http://www.w3.org/1999/xlink"
                      xmlns:xs="http://www.w3.org/2001/XMLSchema"
                      id="green-gradient"
                      gradientTransform="rotate(75)"
                      xlink:href="#green-straight"/>
      <pattern xmlns:g="http://code.google.com/p/golfml"
               xmlns:xlink="http://www.w3.org/1999/xlink"
               xmlns:xs="http://www.w3.org/2001/XMLSchema"
               id="fairway-straight"
               patternUnits="userSpaceOnUse"
               x="0"
               y="0"
               width="20"
               height="20"
               viewBox="0 0 20 20">
         <rect x="0" y="0" width="10" height="10" fill="#00c000"/>
         <rect x="10" y="10" width="10" height="10" fill="#00c800"/>
         <rect x="10" y="0" width="10" height="10" fill="#00bc00"/>
         <rect x="0" y="10" width="10" height="10" fill="#00b800"/>
      </pattern>
      <pattern xmlns:g="http://code.google.com/p/golfml"
               xmlns:xlink="http://www.w3.org/1999/xlink"
               xmlns:xs="http://www.w3.org/2001/XMLSchema"
               id="fairway-pattern"
               patternTransform="rotate(60)"
               xlink:href="#fairway-straight"/>
      <g xmlns:g="http://code.google.com/p/golfml"
         xmlns:xlink="http://www.w3.org/1999/xlink"
         xmlns:xs="http://www.w3.org/2001/XMLSchema"
         id="Tree"
         transform="translate(-76 -66) scale(0.4)">
         <path class="one-tree"
               d="M191.991,126.799c-11.163,0-21.022,4.032-27.033,10.191c-17.556,0.615-31.556,11.151-31.556,24.079       c0,7.537,4.759,14.266,12.203,18.693c0.876,12.855,18.43,23.128,39.939,23.128c22.07,0,39.979-10.812,39.979-24.136       c0-0.065-0.012-0.13-0.013-0.195c6.33-2.866,10.33-6.992,10.33-11.595c0-4.806-4.343-9.104-11.164-11.977       c0.31-1.318,0.478-2.67,0.478-4.054C225.154,137.612,210.297,126.799,191.991,126.799z"/>
      </g>
      <g xmlns:g="http://code.google.com/p/golfml"
         xmlns:xlink="http://www.w3.org/1999/xlink"
         xmlns:xs="http://www.w3.org/2001/XMLSchema"
         id="TeeSet">
         <circle cx="-5" cy="0" r="2"/>
         <circle cx="5" cy="0" r="2"/>
      </g>
      <g xmlns:g="http://code.google.com/p/golfml"
         xmlns:xlink="http://www.w3.org/1999/xlink"
         xmlns:xs="http://www.w3.org/2001/XMLSchema"
         id="DistanceMarker">
         <circle r="6"/>
      </g>
      <g xmlns:g="http://code.google.com/p/golfml"
         xmlns:xlink="http://www.w3.org/1999/xlink"
         xmlns:xs="http://www.w3.org/2001/XMLSchema"
         id="Dogleg">
         <circle r="4"/>
      </g>
      <g xmlns:g="http://code.google.com/p/golfml"
         xmlns:xlink="http://www.w3.org/1999/xlink"
         xmlns:xs="http://www.w3.org/2001/XMLSchema"
         id="Aim">
         <circle r="4"/>
      </g>
      <g xmlns:g="http://code.google.com/p/golfml"
         xmlns:xlink="http://www.w3.org/1999/xlink"
         xmlns:xs="http://www.w3.org/2001/XMLSchema"
         id="Hole">
         <circle r="2"/>
      </g>
      <g xmlns:g="http://code.google.com/p/golfml"
         xmlns:xlink="http://www.w3.org/1999/xlink"
         xmlns:xs="http://www.w3.org/2001/XMLSchema"
         id="Ball">
         <image xlink:href="../stylesheets/images/golf-ball.png" width="16" height="16"
                transform="translate(-8 -8)"/>
      </g>
      <g xmlns:g="http://code.google.com/p/golfml"
         xmlns:xlink="http://www.w3.org/1999/xlink"
         xmlns:xs="http://www.w3.org/2001/XMLSchema"
         id="Target">
         <circle class="target-filled" r="12"/>
      </g>
      <g xmlns:g="http://code.google.com/p/golfml"
         xmlns:xlink="http://www.w3.org/1999/xlink"
         xmlns:xs="http://www.w3.org/2001/XMLSchema"
         id="Flag"
         transform="translate(0 -30) scale(-0.2 0.2)">
         <line id="FlagPole" class="flag-pole" x1="0.5" y1="0" x2="0.5" y2="150"/>
         <circle id="FlagCup" class="flag-cup" r="10" cx="0" cy="145"/>
         <g id="FlagFlag">
            <path class="flag-flag"
                  d="M55.339,45.968c-18.28-14.516-36.559,14.516-54.839,0c0-12.097,0-24.193,0-36.29        c18.28,14.516,36.559-14.516,54.839,0C55.339,21.774,55.339,33.871,55.339,45.968z"/>
         </g>
      </g>
      <g xmlns:g="http://code.google.com/p/golfml"
         xmlns:xlink="http://www.w3.org/1999/xlink"
         xmlns:xs="http://www.w3.org/2001/XMLSchema"
         id="Compass">
         <polygon id="CompassNeedle" class="compass-needle" points="0,30 -8,0 0,-20 8,0"/>
         <circle id="CompassCenter" class="compass-center" r="10"/>
         <text id="CompassNorth" class="compass-north" x="-4.7" y="40">N</text>
      </g>
      <g xmlns:g="http://code.google.com/p/golfml"
         xmlns:xlink="http://www.w3.org/1999/xlink"
         xmlns:xs="http://www.w3.org/2001/XMLSchema"
         id="GolfMLLogoSmall">
         <image xlink:href="../stylesheets/images/golfml-small.png" width="80" height="15"/>
      </g>
   </defs>
   <rect class="background" x="0" y="0" width="600" height="600"/>
   <g transform="translate(300,300) scale(-0.9845279205802888,0.9845279205802888) rotate(10.09191355092122)">
      <path class="hole-contour"
            d="M133.49064211337043,-269.40661391590805Q133.49064211337043,-269.40661391590805 128.56621047261225,-248.4075961159493 L126.10399465223318,-237.9080872159699Q121.17956301147501,-216.90906941601116 99.57320321027491,-176.95417372379646 L88.77002330967487,-156.9767258776891Q67.16366350847477,-117.02183018547439 76.10302753301548,-104.28164669475206 L80.57270954528582,-97.91155494939089Q89.51207356982653,-85.17137145866856 93.85951294699561,-52.17607779303606 L96.03323263558015,-35.678430960219806Q100.38067201274923,-2.6831372945873047 101.3407934451734,36.29338620397934 L101.82085416138548,55.78164795326264Q102.78097559380966,94.75817145182928 101.3195358242791,136.75685177252706 L100.58881593951384,157.75619193287594Q99.12737616998328,199.7548722535737 98.3498916172903,215.46874118410483 L97.96114934094379,223.3256756493704Q97.18366478825081,239.03954457990153 91.97436609635294,261.8739537422507 L89.369716750404,273.29115832342524Q84.16041805850612,296.1255674857744 73.65270787245773,297.6749811791257 L68.39885277943353,298.4496880258013Q57.89114259338512,299.99910171915263 55.34555921649464,283.33529606090485 L54.07276752804941,275.00339323178093Q51.527184151158934,258.33958757353315 41.54662305919151,221.57739510395464 L36.5563425132078,203.1962988691654Q26.575781421240382,166.43410639958685 7.2939410621734595,100.17339207859293 L-2.34697911736,67.04303491809597Q-21.628819476426923,0.7823205971020495 -37.751953892973965,-17.845462418737593 L-45.81352110124749,-27.159353926657413Q-61.936655517794534,-45.78713694249706 -77.2835757750553,-71.74170541184691 L-84.95703590368566,-84.71898964652183Q-100.30395616094643,-110.6735581158717 -113.57863053951904,-130.88348456113312 L-120.21596772880535,-140.98844778376383Q-133.49064210737797,-161.19837422902523 -132.09586119270173,-179.49178708917913 L-131.39847073536362,-188.6384935192561Q-130.00368982068738,-206.93190637940998 -109.22237930824626,-232.2651226002078 L-98.8317240520257,-244.93173071060673Q-78.05041353958458,-270.26494693140455 -52.539342611327456,-279.0288015312194 L-39.78380714719889,-283.41072883112685Q-14.27273621894176,-292.1745834309417 7.471297678908419,-295.305120253991 L18.343314627833507,-296.87038866551563Q40.08734852568369,-300.0009254885649 77.44866596075838,-287.76320085950215 L96.12932467829573,-281.6443385449708Q133.49064211337043,-269.40661391590805 133.49064211337043,-269.40661391590805 Z"/>
      <clipPath id="HoleContour" transform="scale(1.2)">
         <path class="hole-contour"
               d="M133.49064211337043,-269.40661391590805Q133.49064211337043,-269.40661391590805 128.56621047261225,-248.4075961159493 L126.10399465223318,-237.9080872159699Q121.17956301147501,-216.90906941601116 99.57320321027491,-176.95417372379646 L88.77002330967487,-156.9767258776891Q67.16366350847477,-117.02183018547439 76.10302753301548,-104.28164669475206 L80.57270954528582,-97.91155494939089Q89.51207356982653,-85.17137145866856 93.85951294699561,-52.17607779303606 L96.03323263558015,-35.678430960219806Q100.38067201274923,-2.6831372945873047 101.3407934451734,36.29338620397934 L101.82085416138548,55.78164795326264Q102.78097559380966,94.75817145182928 101.3195358242791,136.75685177252706 L100.58881593951384,157.75619193287594Q99.12737616998328,199.7548722535737 98.3498916172903,215.46874118410483 L97.96114934094379,223.3256756493704Q97.18366478825081,239.03954457990153 91.97436609635294,261.8739537422507 L89.369716750404,273.29115832342524Q84.16041805850612,296.1255674857744 73.65270787245773,297.6749811791257 L68.39885277943353,298.4496880258013Q57.89114259338512,299.99910171915263 55.34555921649464,283.33529606090485 L54.07276752804941,275.00339323178093Q51.527184151158934,258.33958757353315 41.54662305919151,221.57739510395464 L36.5563425132078,203.1962988691654Q26.575781421240382,166.43410639958685 7.2939410621734595,100.17339207859293 L-2.34697911736,67.04303491809597Q-21.628819476426923,0.7823205971020495 -37.751953892973965,-17.845462418737593 L-45.81352110124749,-27.159353926657413Q-61.936655517794534,-45.78713694249706 -77.2835757750553,-71.74170541184691 L-84.95703590368566,-84.71898964652183Q-100.30395616094643,-110.6735581158717 -113.57863053951904,-130.88348456113312 L-120.21596772880535,-140.98844778376383Q-133.49064210737797,-161.19837422902523 -132.09586119270173,-179.49178708917913 L-131.39847073536362,-188.6384935192561Q-130.00368982068738,-206.93190637940998 -109.22237930824626,-232.2651226002078 L-98.8317240520257,-244.93173071060673Q-78.05041353958458,-270.26494693140455 -52.539342611327456,-279.0288015312194 L-39.78380714719889,-283.41072883112685Q-14.27273621894176,-292.1745834309417 7.471297678908419,-295.305120253991 L18.343314627833507,-296.87038866551563Q40.08734852568369,-300.0009254885649 77.44866596075838,-287.76320085950215 L96.12932467829573,-281.6443385449708Q133.49064211337043,-269.40661391590805 133.49064211337043,-269.40661391590805 Z"/>
      </clipPath>
      <path class="tee"
            d="M72.94788779530042,121.57708128115715Q72.94788779530042,121.57708128115715 73.64206850915586,137.59181814153436 L73.9891588660836,145.59918657172295Q74.68333957993904,161.61392343210017 75.34596549119999,176.90071507426396 L75.67727844683046,184.54411089534588Q76.3399043580914,199.83090253750967 76.63856203613958,215.13347248078134 L76.78789087516365,222.78475745241718Q77.08654855321183,238.08732739568885 78.25513101176895,256.63409544550234 L78.8394222410475,265.9074794704091Q80.00800469960463,284.45424752022257 76.00436617015174,284.6277807421814 L74.0025469054253,284.7145473531608Q69.99890837597242,284.88808057511966 65.85546694605297,265.0116339257529 L63.78374623109324,255.07341060106955Q59.64030480117379,235.19696395170283 58.53371927726334,226.4932104809459 L57.98042651530811,222.14133374556744Q56.87384099139766,213.4375802748105 54.565999933406715,193.84623910171035 L53.41207940441124,184.0505685151603Q51.104238346420296,164.45922734206016 47.05542697336989,146.76663251929145 L45.031021286844684,137.92033510790708Q40.98220991379428,120.22774028513838 42.360293206697264,109.95766029472136 L43.049334853148764,104.82262029951285Q44.42741814605175,94.55254030909583 53.795981394235305,91.95852204343112 L58.480263018327086,90.66151291059874Q67.84882626651064,88.06749464493403 69.88845087802655,101.47132929942327 L70.90826318378451,108.1732466266679Q72.94788779530042,121.57708128115715 72.94788779530042,121.57708128115715 Z"/>
      <path class="fairway"
            d="M86.98358166179567,-215.5881826816856Q86.98358166179567,-215.5881826816856 83.57519266055765,-203.6648850049876 L81.87099815993865,-197.7032361666386Q78.46260915870063,-185.7799384899406 74.46147379421227,-171.78303472417014 L72.46090611196809,-164.78458284128493Q68.45977074747972,-150.78767907551446 61.370880080929204,-141.0941038950001 L57.82643474765394,-136.24731630474292Q50.73754408110342,-126.55374112422857 40.027451225720256,-117.72673921362545 L34.67240479802868,-113.31323825832389Q23.96231194264551,-104.48623634772078 12.47544226839288,-105.69520371038865 L6.732007431266567,-106.29968739172259Q-4.7548622429860625,-107.50865475439046 -11.338092831132373,-113.70838286831416 L-14.629708125205525,-116.80824692527602Q-21.212938713351836,-123.00797503919972 -27.85621412282127,-122.72003485557296 L-31.177851827555987,-122.57606476375958Q-37.82112723702542,-122.28812458013282 -35.84449213311521,-116.05939401259123 L-34.856174581160104,-112.94502872882043Q-32.87953947724989,-106.71629816127884 -32.325202449176174,-97.86600440761518 L-32.04803393513932,-93.44085753078335Q-31.493696907065605,-84.59056377711968 -36.145070832306075,-81.658350001229 L-38.470757794926314,-80.19224311328365Q-43.122131720166784,-77.26002933739296 -50.831752915371695,-77.94973865008923 L-54.686563512974146,-78.29459330643735Q-62.39618470817906,-78.98430261913362 -69.4756551554039,-84.82112820967123 L-73.01539037901631,-87.73954100494002Q-80.09486082624115,-93.57636659547764 -79.32390497505799,-99.41223663653295 L-78.93842704946641,-102.3301716570606Q-78.16747119828325,-108.16604169811592 -82.23942006899031,-119.42372506410557 L-84.27539450434384,-125.05256674710039Q-88.3473433750509,-136.31025011309004 -80.53284486712232,-145.0114117787365 L-76.62559561315804,-149.36199261155969Q-68.81109710522946,-158.06315427720614 -76.79400049068664,-165.05543421882788 L-80.78545218341525,-168.55157418963879Q-88.76835556887242,-175.54385413126053 -88.09244231886363,-191.4445770244315 L-87.75448569385925,-199.39493847101699Q-87.07857244385046,-215.29566136418796 -84.13652083443186,-230.10003160379935 L-82.66549502972258,-237.50221672360507Q-79.72344342030398,-252.30658696321646 -73.15347479690632,-258.22323401237395 L-69.86849048520749,-261.18155753695265Q-63.29852186180983,-267.0982045861101 -49.70020857882962,-272.29558343786135 L-42.9010519373395,-274.894272863737Q-29.302738654359285,-280.09165171548824 -15.408530273660137,-282.4005879690283 L-8.46142608331057,-283.55505609579836Q5.432782297388578,-285.86399234933845 18.089572792638723,-285.2175605311894 L24.417968040263794,-284.89434462211483Q37.074758535513936,-284.2479128039658 51.52360259164774,-273.7822881437172 L58.748024619714634,-268.5494758135929Q73.19686867584844,-258.0838511533443 78.71155387022733,-241.08558376468082 L81.46889646741677,-232.5864500703491Q86.98358166179567,-215.5881826816856 86.98358166179567,-215.5881826816856 Z"/>
      <path class="path"
            d="M79.03227224554387,-116.62462075446273Q79.03227224554387,-116.62462075446273 41.26617183340369,-54.08995505862825 L22.383121627333608,-22.822622210711017Q-15.38297878480657,39.71204348512346 -17.518405842078806,32.51150493730051 L-18.586119370714925,28.911235663389036Q-20.721546427987164,21.710697115566088 15.335136024884775,-38.19732206306176 L33.363477251320745,-68.15133165237566Q69.42015970419268,-128.0593508310035 73.26500472073316,-123.48545880038719 L75.18742722900339,-121.19851278507905Q79.03227224554387,-116.62462075446273 79.03227224554387,-116.62462075446273 Z"/>
      <path class="path"
            d="M3.299656840452441,-34.029037565959655Q3.299656840452441,-34.029037565959655 7.031896024399931,-15.228717072339606 L8.898015616373675,-5.828556825529583Q12.630254800321165,12.971763668090466 12.913181176757764,27.910378753808253 L13.054644364976062,35.379686296667145Q13.33757074141266,50.31830138238493 13.667828513520519,66.34881990524809 L13.832957399574449,74.36407916667969Q14.163215171682307,90.39459768954285 9.698756029389852,105.17434110113507 L7.466526458243628,112.56421280693118Q3.002067315951174,127.34395621852342 -0.004358139332306443,125.28635425925654 L-1.5075708669740466,124.2575532796231Q-4.513996322257527,122.19995132035622 -0.9510405520050811,103.4480776664078 L0.8304373331211417,94.07214083943359Q4.393393103373588,75.32026718548516 3.889566331668095,55.286056137181816 L3.637652945815349,45.26895061303014Q3.133826174109856,25.234739564726798 -2.543443861145319,-4.785596464845167 L-5.382078878772905,-19.79576447963114Q-11.05934891402808,-49.8161005092031 -18.03583416494878,-67.74649168648376 L-21.52407679040913,-76.71168727512409Q-28.50056204132983,-94.64207845240475 -24.607302360589188,-97.36345979470879 L-22.660672520218867,-98.7241504658608Q-18.767412839478222,-101.44553180816484 -9.940584967505956,-74.47893411128277 L-5.527171031519826,-60.99563526284173Q3.299656840452441,-34.029037565959655 3.299656840452441,-34.029037565959655 Z"/>
      <path class="trap"
            d="M19.631158878691014,-263.44026108420934Q19.631158878691014,-263.44026108420934 25.852077736752584,-261.661997399115 L28.96253716578337,-260.7728655565678Q35.18345602384494,-258.9946018714735 39.79694179353401,-254.9280642900345 L42.10368467837855,-252.89479549931505Q46.71717044806762,-248.82825791787607 51.752560466423105,-242.90274056428595 L54.27025547560085,-239.93998188749092Q59.305645493956334,-234.0144645339008 61.17098862382413,-226.4155943419377 L62.103660188758035,-222.61615924595617Q63.96900331862583,-215.01728905399307 65.20466193330682,-206.19650866278846 L65.82249124064731,-201.78611846718613Q67.0581498553283,-192.96533807598152 64.14655074610342,-185.33008308019348 L62.69075119149097,-181.51245558229945Q59.77915208226608,-173.8772005865114 56.51210966249275,-166.5678606559882 L54.87858845260609,-162.9131906907266Q51.611546032832756,-155.6038507602034 47.744880964790994,-150.316441936262 L45.81154843077012,-147.67273752429134Q41.944883362728355,-142.38532870034996 37.28610145543088,-139.62348287689488 L34.95671050178215,-138.24255996516737Q30.297928594484674,-135.4807141417123 26.891113709724262,-135.33303660406452 L25.187706267344055,-135.2591978352406Q21.780891382583643,-135.11152029759282 18.929907651936187,-137.88915722964074 L17.50441578661246,-139.2779756956647Q14.653432055965004,-142.05561262771263 16.749716662598694,-144.87704541625828 L17.797858965915538,-146.28776181053112Q19.89414357254923,-149.10919459907677 23.034626275014077,-151.4639106618363 L24.6048676262465,-152.64126869321606Q27.745350328711346,-154.9959847559756 30.70072724248735,-157.6839948583869 L32.17841569937535,-159.02799990959255Q35.13379261315136,-161.71601001200386 38.074915048281184,-168.66990665655257 L39.545476265846105,-172.14685497882695Q42.48659870097593,-179.10075162337566 43.95372497865176,-184.6254754691952 L44.68728811748967,-187.387837392105Q46.1544143951655,-192.91256123792456 45.6665663821704,-200.22980946266122 L45.42264237567285,-203.88843357502958Q44.93479436267775,-211.20568179976624 41.9287394284852,-217.56047760848344 L40.425711961388934,-220.73787551284204Q37.419657027196386,-227.09267132155924 32.07311788993712,-232.3220484019133 L29.399848321307495,-234.93673694209033Q24.05330918404823,-240.1661140224444 18.299117401300588,-242.98856770025736 L15.422021509926765,-244.39979453916382Q9.667829727179122,-247.2222482169768 5.209407141693852,-247.71161914472344 L2.980195848951217,-247.95630460859678Q-1.478226736534053,-248.44567553634343 -6.4181375591022185,-248.2315274836443 L-8.8880929703863,-248.12445345729472Q-13.828003792954465,-247.9103054045956 -18.553264836085855,-246.68149377257294 L-20.91589535765155,-246.0670879565616Q-25.64115640078294,-244.83827632453895 -29.803697664597856,-242.43923297692155 L-31.884968296505313,-241.23971130311284Q-36.04750956032023,-238.84066795549543 -38.66909727296472,-240.26295945205973 L-39.97989112928696,-240.9741052003419Q-42.60147884193145,-242.3963966969062 -43.045549305760716,-244.76639369905473 L-43.26758453767534,-245.951392200129Q-43.7116550015046,-248.32138920227752 -41.25991462032282,-250.81692924517088 L-40.03404442973193,-252.06469926661754Q-37.58230404855014,-254.5602393095109 -30.849861696887075,-256.7293742526781 L-27.48364052105554,-257.8139417242617Q-20.75119816939247,-259.9830766674289 -16.040701422373264,-261.5525673662404 L-13.68545304886366,-262.3373127156461Q-8.974956301844452,-263.90680341445756 -3.2128684079447822,-264.83923358415313 L-0.3318244609949472,-265.3054486690009Q5.430263432904723,-266.2378788386965 11.11062161121924,-265.1188317369016 L13.950800700376497,-264.5593081860042Q19.631158878691014,-263.44026108420934 19.631158878691014,-263.44026108420934 Z"/>
      <path class="green"
            d="M13.869727419824581,-238.87136528847552Q13.869727419824581,-238.87136528847552 18.80912930232934,-235.16028852561266 L21.27883024358172,-233.3047501441812Q26.218232126086477,-229.59367338131835 31.0906629480643,-223.490443939163 L33.526878359053214,-220.43882921808532Q38.399309181031036,-214.33559977592995 39.0870374072623,-206.3443733554911 L39.43090152037793,-202.34876014527168Q40.118629746609194,-194.35753372483282 36.95496810579639,-184.66342386083213 L35.373137285389994,-179.8163689288318Q32.20947564457719,-170.1222590648311 27.35768880984671,-163.938838696662 L24.931795392481472,-160.84712851257748Q20.080008557750993,-154.6637081444084 10.636916364488503,-152.03577450048934 L5.9153702678572575,-150.72180767852984Q-3.5277219254052326,-148.0938740346108 -10.526463824799896,-148.13179152730683 L-14.025834774497223,-148.15075027365484Q-21.024576673891886,-148.18866776635087 -26.778746679482857,-151.01109449227621 L-29.655831682278347,-152.42230785523887Q-35.41000168786932,-155.2447345811642 -39.86052623049945,-159.48895398432342 L-42.08578850181452,-161.61106368590305Q-46.536313044444654,-165.85528308906225 -49.98646097933784,-174.58003827745722 L-51.71153494678443,-178.94241587165467Q-55.16168288167762,-187.66717106004964 -54.056931181311896,-197.61336852807025 L-53.50455533112903,-202.58646726208056Q-52.39980363076331,-212.53266473010117 -48.06643561629583,-218.86430858829942 L-45.899751609062086,-222.03013051739853Q-41.566383594594605,-228.36177437559678 -33.91528612942814,-232.95998292337944 L-30.089737396844914,-235.2590871972708Q-22.438639931678452,-239.85729574505345 -14.647229911863196,-241.2190251823616 L-10.75152490195557,-241.8998899010157Q-2.9601148821403136,-243.26161933832387 3.771822038645645,-241.50551771838454 L7.137790499038623,-240.62746690841485Q13.869727419824581,-238.87136528847552 13.869727419824581,-238.87136528847552 Z"/>
      <path class="tree"
            d="M53.50365974201146,-32.55870424071243Q53.50365974201146,-32.55870424071243 58.74126883393261,-29.503825139230685 L61.36007337989318,-27.976385588489812Q66.59768247181432,-24.921506487008067 65.03025258120913,-19.01907121606561 L64.24653763590652,-16.06785358059438Q62.679107745301316,-10.165418309651924 57.4730576096846,-12.492350792045192 L54.87003254187625,-13.655817033241824Q49.663982406259535,-15.982749515635092 51.1998533405603,-22.613131405666028 L51.96778880771069,-25.928322350681494Q53.50365974201146,-32.55870424071243 53.50365974201146,-32.55870424071243 Z"/>
      <path class="tree"
            d="M64.73287465867271,16.183106884608442Q64.73287465867271,16.183106884608442 63.07078675438545,19.90170654114204 L62.23974280224183,21.76100636940884Q60.57765489795457,25.47960602594244 56.906386330247834,24.909427985205472 L55.07075204639447,24.62433896483699Q51.399483478687735,24.05416092410002 50.13401858720382,20.097801471458492 L49.50128614146187,18.119621745137728Q48.23582124997795,14.163262292496198 51.021376880338586,11.125274220202044 L52.41415469551891,9.60628018405497Q55.19971032587954,6.568292111760817 59.01297605899681,10.414218020899867 L60.919608925555444,12.337180975469392Q64.73287465867271,16.183106884608442 64.73287465867271,16.183106884608442 Z"/>
      <path class="tree"
            d="M-3.267149738815099,-38.30267944284351Q-3.267149738815099,-38.30267944284351 -6.923697959618339,-30.121685207088497 L-8.75197207001996,-26.031188089210985Q-12.4085202908232,-17.85019385345597 -19.387108479901393,-19.006282817459866 L-22.87640257444049,-19.584327299461812Q-29.854990763518682,-20.740416263465708 -32.95611721752659,-24.981847998958408 L-34.506680444530545,-27.102563866704756Q-37.60780689853845,-31.343995602197456 -34.28365976180087,-38.78123199719158 L-32.62158619343208,-42.49985019468865Q-29.297439056694504,-49.93708658968278 -22.87215523055823,-53.13288644669969 L-19.659513317490095,-54.73078637520815Q-13.234229491353824,-57.92658623222506 -9.247397590338334,-50.077023516472444 L-7.25398163983059,-46.15224215859613Q-3.267149738815099,-38.30267944284351 -3.267149738815099,-38.30267944284351 Z"/>
      <path class="tree"
            d="M-45.710423181241495,-92.07270424433646Q-45.710423181241495,-92.07270424433646 -50.74293777502977,-90.39589736997348 L-53.259195071923905,-89.557493932792Q-58.29170966571218,-87.88068705842902 -63.54514098468272,-91.29949077279845 L-66.17185664416799,-93.00889262998317Q-71.42528796313852,-96.4276963443526 -68.41778112828689,-102.75726307048858 L-66.91402771086109,-105.92204643355656Q-63.906520876009466,-112.25161315969254 -57.022566583902524,-113.27937299668531 L-53.580589437849056,-113.79325291518168Q-46.696635145742114,-114.82101275217445 -46.30215035994187,-105.72168934903925 L-46.10490796704174,-101.17202764747167Q-45.710423181241495,-92.07270424433646 -45.710423181241495,-92.07270424433646 Z"/>
      <use xmlns:xlink="http://www.w3.org/1999/xlink" xlink:href="#TeeSet"
           x="60.49510730536368"
           y="186.47787286947158"
           class="tees"
           transform="rotate(-10.09191355092122 60.49510730536368 186.47787286947158)"/>
      <use xmlns:xlink="http://www.w3.org/1999/xlink" xlink:href="#Flag"
           x="-7.521526567480429"
           y="-195.67772205896983"
           transform="rotate(-10.09191355092122 -7.521526567480429 -195.67772205896983)"/>
   </g>
   <rect x="470" y="400" rx="4" ry="4" width="110" height="180" class="info-background"/>
   <text x="525" y="420" class="info-hole" text-anchor="middle">
					Hole 3</text>
   <text x="525" y="440" class="info-par" text-anchor="middle">
					Par 3</text>
   <circle cx="485.625" cy="457.1875" r="5.625" style="fill:blue"/>
   <text x="496.875" y="460" class="info-length">121 meters</text>
   <use xmlns:xlink="http://www.w3.org/1999/xlink" xlink:href="#Compass" x="550" y="50"
        transform="rotate(10.09191355092122 550 50)"/>
   <use xmlns:xlink="http://www.w3.org/1999/xlink" xlink:href="#GolfMLLogoSmall" x="10"
        y="575"/>
</svg>