<?xml version="1.0" encoding="UTF-8"?>
<svg xmlns="http://www.w3.org/2000/svg" width="600" height="600">
   <defs>
      <style xmlns:g="http://code.google.com/p/golfml"
             xmlns:xlink="http://www.w3.org/1999/xlink"
             xmlns:xs="http://www.w3.org/2001/XMLSchema"
             type="text/css">
/* Stylesheet for SVG elements
 *
 *
 * Classes for area of interest (surfaces)
 *
 * DRAWING
 */
.background {
		fill: url(#background-gradient);
}

.hole-limits {
	fill: none;
	stroke: #ccc;
	stroke-width: 1px;
	stroke-dasharray: 10,10;
}

.hole-contour {
	fill: #030;
	stroke: #fff;
	stroke-width: 2px;
}


/* GROUND
 */
.fairway {
	fill: url(#fairway-pattern);
	stroke: #0b0;
	stroke-width: 3px; /* fairway fringe... */
}

.tee {
	fill: #00c800;
	stroke: #0f0;
	stroke-width: 1px;
}

.fringe {
	fill: #0A0;
}

.green {
	fill: url(#green-gradient);
	stroke: #0f0;
	stroke-width: 1px;
}

.semi-rough,
.light-rough {
	fill: #080;
	stroke: #08800D;
	stroke-width: 1px;
}

.rough {
	fill: url(#rough-gradient);
	stroke: #07660A;
	stroke-width: 1px;
}

.heavy-rough {
	fill: #040;
	stroke: #074D08;
	stroke-width: 1px;
}

.ground {
	fill: #7f400c;
	stroke: #fdcc6a;
	stroke-width: 1px;
}


/* WATER
 */
.lateral-water {
	fill: url(#lateral-water-gradient);
	stroke: red;
	stroke-width: 4px;
}

.front-water, .water {
	fill: #37f;
	stroke: yellow;
	stroke-width: 3px;
}


/* SPECIAL
 */
.under-repair {
	fill: none;
	stroke: #00d;
	stroke-width: 2px;
}

.out-of-bound { /* line only */
	fill: none;
	stroke: white;
	stroke-width: 4px;
}

.out-of-bound-area {
	fill: #ccc;
	stroke: white;
	stroke-width: 4px;
}


/* TRAPS
 */
.trap,
.bunker {
	fill: #92cf94;
	stroke: #4c994c;
	stroke-width: 1px;
}

.grass-trap,
.grass-bunker {
	fill: #050;
	stroke: #0A0;
	stroke-width: 1px;
}

.sand-trap,
.sand-bunker,
.greenside-trap,
.greenside-bunker {
	fill: #eec;
	stroke: #040;
	stroke-width: 2px;
}

.fairway-trap,
.fairway-bunker {
	fill: #eec;
	stroke: #030;
	stroke-width: 2px;
}


/* OBSTACLES
 */
.tree {
	fill: #062;
	stroke: #0c6;
	stroke-width: 1px;
}

.trees {
	fill: #062;
	stroke: #0c6;
	stroke-width: 1px;
}

.bush {
	fill: #00b259;
	stroke: #7f400c;
	stroke-width: 1px;
}


.path {
	fill: #666;
	stroke: #bbb;
	stroke-width: 1px;
}

.building,
.construction {
	fill: #fdcc6a;
	stroke: #7f400C;
	stroke-width: 1px;
}

.obstruction {
	fill: #555;
	stroke: #999;
	stroke-width: 1px;
}


.other {
	fill: #ddd;
	stroke: #666;
	stroke-width: 1px;
}

/* Classes for point of interest (points)
 *
 */
.dogleg {
	fill: #000;
}

.aim {
	fill: #fff;
	stroke: #f00;
	stroke-width: 1px;
}

.tees {
	fill: #00f;
}

.tees-hollow {
	stroke: #fff;
	stroke-width: 0.5px;
}

.hole {
	fill: #fff;
}

.distance-marker-100,
.distance-marker-close {
	fill: #44f;
	stroke: #00f;
	stroke-width: 1px;
}

.distance-marker-150,
.distance-marker-135,
.distance-marker,
.distance-marker-mid {
	fill: #f44;
	stroke: #f00;
	stroke-width: 1px;
}

.distance-marker-200,
.distance-marker-far {
	fill: #dd4;
	stroke: #ff0;
	stroke-width: 1px;
}

.green-region-delimiter {
	fill: none;
	stroke: #fff;
	stroke-width: 0.5;
	stroke-dasharray: 4,2;
}

.neutral {
	fill: none;
	stroke: #888;
	stroke-width: 1px;
}
.one-tree {
	fill: #14920D;
	stroke: #165822;
	stroke-width: 3px;
	stroke-linecap: round;
	stroke-linejoin: round; 
}

/* Classes for special decorative objects
 *
 */
.compass-center {
	fill: #ddd;
	stroke: #fff;
	stroke-width: 1px;
}
.compass-needle {
	fill: #ddd;
	stroke: #fff;
	stroke-width: 1px;
}
.compass-north {
	fill: #fff;
}
.flag-pole {
	fill: none;
	stroke: #f00;
	stroke-width: 2px;
}
.flag-flag {
	fill: #ff0;
	stroke: #f00;
	stroke-width: 1px;
}
.flag-cup {
	fill: #fff;
}
/* Information box */
.info-background {
	fill: #ddd;
}
.info-hole {
	font-family: Georgia, "Times New Roman", Times, serif;
	font-size: xx-large;
}
.info-par {
	font-family: Georgia, "Times New Roman", Times, serif;
	font-size: x-large;
}
.info-length {
	font-family: Georgia, "Times New Roman", Times, serif;
	font-size: large;
}
/* Circle for distances */
.circle-from-green {
	fill: none;
	stroke: #fff;
	stroke-width: 1px;
	stroke-dasharray: 4,4;
}
.circle-from-tee {
	fill: none;
	stroke: #f00;
	stroke-width: 1px;
	stroke-dasharray: 8,8;
}
/* Dynamic objects */
.target {
	fill: none;
	stroke: #f00;
	stroke-width: 2px;
}
.target-filled {
	fill: #f00;
	fill-opacity: 0.5;
	stroke: #f00;
}
.ball {
	fill: #fff;
	stroke: none;
}
.trajectory {
	fill: none;
	stroke: #fff;
	stroke-width: 2px;
}
.distance {
	fill: #fff;
}
</style>
      <linearGradient xmlns:g="http://code.google.com/p/golfml"
                      xmlns:xlink="http://www.w3.org/1999/xlink"
                      xmlns:xs="http://www.w3.org/2001/XMLSchema"
                      id="background-straight">
         <stop offset="5%" stop-color="#002"/>
         <stop offset="95%" stop-color="#004"/>
      </linearGradient>
      <linearGradient xmlns:g="http://code.google.com/p/golfml"
                      xmlns:xlink="http://www.w3.org/1999/xlink"
                      xmlns:xs="http://www.w3.org/2001/XMLSchema"
                      id="background-gradient"
                      gradientTransform="rotate(30)"
                      xlink:href="#background-straight"/>
      <linearGradient xmlns:g="http://code.google.com/p/golfml"
                      xmlns:xlink="http://www.w3.org/1999/xlink"
                      xmlns:xs="http://www.w3.org/2001/XMLSchema"
                      id="lateral-water-straight">
         <stop offset="5%" stop-color="#006"/>
         <stop offset="95%" stop-color="#008"/>
      </linearGradient>
      <linearGradient xmlns:g="http://code.google.com/p/golfml"
                      xmlns:xlink="http://www.w3.org/1999/xlink"
                      xmlns:xs="http://www.w3.org/2001/XMLSchema"
                      id="lateral-water-gradient"
                      gradientTransform="rotate(60)"
                      xlink:href="#lateral-water-straight"/>
      <linearGradient xmlns:g="http://code.google.com/p/golfml"
                      xmlns:xlink="http://www.w3.org/1999/xlink"
                      xmlns:xs="http://www.w3.org/2001/XMLSchema"
                      id="rough-straight">
         <stop offset="0%" stop-color="#030"/>
         <stop offset="25%" stop-color="#060"/>
         <stop offset="50%" stop-color="#040"/>
         <stop offset="75%" stop-color="#060"/>
         <stop offset="100%" stop-color="#080"/>
      </linearGradient>
      <linearGradient xmlns:g="http://code.google.com/p/golfml"
                      xmlns:xlink="http://www.w3.org/1999/xlink"
                      xmlns:xs="http://www.w3.org/2001/XMLSchema"
                      id="rough-gradient"
                      gradientTransform="rotate(70)"
                      xlink:href="#rough-straight"/>
      <linearGradient xmlns:g="http://code.google.com/p/golfml"
                      xmlns:xlink="http://www.w3.org/1999/xlink"
                      xmlns:xs="http://www.w3.org/2001/XMLSchema"
                      id="green-straight">
         <stop offset="0%" stop-color="#0d0"/>
         <stop offset="25%" stop-color="#0e0"/>
         <stop offset="50%" stop-color="#0c0"/>
         <stop offset="75%" stop-color="#0e0"/>
         <stop offset="100%" stop-color="#0b0"/>
      </linearGradient>
      <linearGradient xmlns:g="http://code.google.com/p/golfml"
                      xmlns:xlink="http://www.w3.org/1999/xlink"
                      xmlns:xs="http://www.w3.org/2001/XMLSchema"
                      id="green-gradient"
                      gradientTransform="rotate(75)"
                      xlink:href="#green-straight"/>
      <pattern xmlns:g="http://code.google.com/p/golfml"
               xmlns:xlink="http://www.w3.org/1999/xlink"
               xmlns:xs="http://www.w3.org/2001/XMLSchema"
               id="fairway-straight"
               patternUnits="userSpaceOnUse"
               x="0"
               y="0"
               width="20"
               height="20"
               viewBox="0 0 20 20">
         <rect x="0" y="0" width="10" height="10" fill="#00c000"/>
         <rect x="10" y="10" width="10" height="10" fill="#00c800"/>
         <rect x="10" y="0" width="10" height="10" fill="#00bc00"/>
         <rect x="0" y="10" width="10" height="10" fill="#00b800"/>
      </pattern>
      <pattern xmlns:g="http://code.google.com/p/golfml"
               xmlns:xlink="http://www.w3.org/1999/xlink"
               xmlns:xs="http://www.w3.org/2001/XMLSchema"
               id="fairway-pattern"
               patternTransform="rotate(60)"
               xlink:href="#fairway-straight"/>
      <g xmlns:g="http://code.google.com/p/golfml"
         xmlns:xlink="http://www.w3.org/1999/xlink"
         xmlns:xs="http://www.w3.org/2001/XMLSchema"
         id="Tree"
         transform="translate(-76 -66) scale(0.4)">
         <path class="one-tree"
               d="M191.991,126.799c-11.163,0-21.022,4.032-27.033,10.191c-17.556,0.615-31.556,11.151-31.556,24.079       c0,7.537,4.759,14.266,12.203,18.693c0.876,12.855,18.43,23.128,39.939,23.128c22.07,0,39.979-10.812,39.979-24.136       c0-0.065-0.012-0.13-0.013-0.195c6.33-2.866,10.33-6.992,10.33-11.595c0-4.806-4.343-9.104-11.164-11.977       c0.31-1.318,0.478-2.67,0.478-4.054C225.154,137.612,210.297,126.799,191.991,126.799z"/>
      </g>
      <g xmlns:g="http://code.google.com/p/golfml"
         xmlns:xlink="http://www.w3.org/1999/xlink"
         xmlns:xs="http://www.w3.org/2001/XMLSchema"
         id="TeeSet">
         <circle cx="-5" cy="0" r="2"/>
         <circle cx="5" cy="0" r="2"/>
      </g>
      <g xmlns:g="http://code.google.com/p/golfml"
         xmlns:xlink="http://www.w3.org/1999/xlink"
         xmlns:xs="http://www.w3.org/2001/XMLSchema"
         id="DistanceMarker">
         <circle r="6"/>
      </g>
      <g xmlns:g="http://code.google.com/p/golfml"
         xmlns:xlink="http://www.w3.org/1999/xlink"
         xmlns:xs="http://www.w3.org/2001/XMLSchema"
         id="Dogleg">
         <circle r="4"/>
      </g>
      <g xmlns:g="http://code.google.com/p/golfml"
         xmlns:xlink="http://www.w3.org/1999/xlink"
         xmlns:xs="http://www.w3.org/2001/XMLSchema"
         id="Aim">
         <circle r="4"/>
      </g>
      <g xmlns:g="http://code.google.com/p/golfml"
         xmlns:xlink="http://www.w3.org/1999/xlink"
         xmlns:xs="http://www.w3.org/2001/XMLSchema"
         id="Hole">
         <circle r="2"/>
      </g>
      <g xmlns:g="http://code.google.com/p/golfml"
         xmlns:xlink="http://www.w3.org/1999/xlink"
         xmlns:xs="http://www.w3.org/2001/XMLSchema"
         id="Ball">
         <image xlink:href="../stylesheets/images/golf-ball.png" width="16" height="16"
                transform="translate(-8 -8)"/>
      </g>
      <g xmlns:g="http://code.google.com/p/golfml"
         xmlns:xlink="http://www.w3.org/1999/xlink"
         xmlns:xs="http://www.w3.org/2001/XMLSchema"
         id="Target">
         <circle class="target-filled" r="12"/>
      </g>
      <g xmlns:g="http://code.google.com/p/golfml"
         xmlns:xlink="http://www.w3.org/1999/xlink"
         xmlns:xs="http://www.w3.org/2001/XMLSchema"
         id="Flag"
         transform="translate(0 -30) scale(-0.2 0.2)">
         <line id="FlagPole" class="flag-pole" x1="0.5" y1="0" x2="0.5" y2="150"/>
         <circle id="FlagCup" class="flag-cup" r="10" cx="0" cy="145"/>
         <g id="FlagFlag">
            <path class="flag-flag"
                  d="M55.339,45.968c-18.28-14.516-36.559,14.516-54.839,0c0-12.097,0-24.193,0-36.29        c18.28,14.516,36.559-14.516,54.839,0C55.339,21.774,55.339,33.871,55.339,45.968z"/>
         </g>
      </g>
      <g xmlns:g="http://code.google.com/p/golfml"
         xmlns:xlink="http://www.w3.org/1999/xlink"
         xmlns:xs="http://www.w3.org/2001/XMLSchema"
         id="Compass">
         <polygon id="CompassNeedle" class="compass-needle" points="0,30 -8,0 0,-20 8,0"/>
         <circle id="CompassCenter" class="compass-center" r="10"/>
         <text id="CompassNorth" class="compass-north" x="-4.7" y="40">N</text>
      </g>
      <g xmlns:g="http://code.google.com/p/golfml"
         xmlns:xlink="http://www.w3.org/1999/xlink"
         xmlns:xs="http://www.w3.org/2001/XMLSchema"
         id="GolfMLLogoSmall">
         <image xlink:href="../stylesheets/images/golfml-small.png" width="80" height="15"/>
      </g>
   </defs>
   <rect class="background" x="0" y="0" width="600" height="600"/>
   <g transform="translate(300,300) scale(-0.9719464846709764,0.9719464846709764) rotate(-76.39646344015937)">
      <path class="hole-contour"
            d="M204.98657500139882,-108.32266343171493Q204.98657500139882,-108.32266343171493 219.5598904460023,-106.95235234614083 L226.84654816830403,-106.26719680335378Q241.4198636129075,-104.89688571777968 264.85191816569727,-83.89129107791402 L276.56794544209214,-73.3884937579812Q299.99999999488193,-52.382899118115525 292.85333857067377,-44.065603428175066 L289.28000785856966,-39.90695558320484Q282.1333464343615,-31.589659893264386 267.64521834222523,-19.450879967582 L260.40115429615713,-13.381490004740813Q245.91302620402087,-1.2427100790584278 229.36186659505364,9.484109188427828 L221.08628679057006,14.847518822170958Q204.53512718160283,25.574338089657214 180.42604213210797,35.12742555167123 L168.37149960736053,39.90396928267824Q144.26241455786567,49.45705674469226 -29.382286243091244,73.00428242404436 L-116.20463664356964,84.77789526372041Q-289.84933744452655,108.32512094307252 -293.90960246536736,95.4889313582353 L-295.9397349757878,89.0708365658167Q-299.9999999966286,76.2346469809795 -295.4813959878007,65.02800898739076 L-293.2220939833867,59.424689990596384Q-288.70348997455875,48.218051997007635 -256.5356710187455,28.30440095885247 L-240.4517615408389,18.347575439774886Q-208.28394258502567,-1.5660755983802797 -167.47217323186194,-18.351007640083207 L-147.06628855528007,-26.743473660934665Q-106.25451920211634,-43.52840570263759 -53.237051271374305,-55.83733633919307 L-26.728317306003312,-61.99180165747081Q26.289150624738724,-74.30073229402629 58.216373067071274,-76.68597711407864 L74.17998428823753,-77.87859952410481Q106.10720673057008,-80.26384434415716 135.7980697433225,-88.05710765276997 L150.64350124969866,-91.95373930707638Q180.33436426245106,-99.74700261568918 190.19524855803016,-103.17726694209948 L195.12569070581972,-104.89239910530463Q204.98657500139882,-108.32266343171493 204.98657500139882,-108.32266343171493 Z"/>
      <clipPath id="HoleContour" transform="scale(1.2)">
         <path class="hole-contour"
               d="M204.98657500139882,-108.32266343171493Q204.98657500139882,-108.32266343171493 219.5598904460023,-106.95235234614083 L226.84654816830403,-106.26719680335378Q241.4198636129075,-104.89688571777968 264.85191816569727,-83.89129107791402 L276.56794544209214,-73.3884937579812Q299.99999999488193,-52.382899118115525 292.85333857067377,-44.065603428175066 L289.28000785856966,-39.90695558320484Q282.1333464343615,-31.589659893264386 267.64521834222523,-19.450879967582 L260.40115429615713,-13.381490004740813Q245.91302620402087,-1.2427100790584278 229.36186659505364,9.484109188427828 L221.08628679057006,14.847518822170958Q204.53512718160283,25.574338089657214 180.42604213210797,35.12742555167123 L168.37149960736053,39.90396928267824Q144.26241455786567,49.45705674469226 -29.382286243091244,73.00428242404436 L-116.20463664356964,84.77789526372041Q-289.84933744452655,108.32512094307252 -293.90960246536736,95.4889313582353 L-295.9397349757878,89.0708365658167Q-299.9999999966286,76.2346469809795 -295.4813959878007,65.02800898739076 L-293.2220939833867,59.424689990596384Q-288.70348997455875,48.218051997007635 -256.5356710187455,28.30440095885247 L-240.4517615408389,18.347575439774886Q-208.28394258502567,-1.5660755983802797 -167.47217323186194,-18.351007640083207 L-147.06628855528007,-26.743473660934665Q-106.25451920211634,-43.52840570263759 -53.237051271374305,-55.83733633919307 L-26.728317306003312,-61.99180165747081Q26.289150624738724,-74.30073229402629 58.216373067071274,-76.68597711407864 L74.17998428823753,-77.87859952410481Q106.10720673057008,-80.26384434415716 135.7980697433225,-88.05710765276997 L150.64350124969866,-91.95373930707638Q180.33436426245106,-99.74700261568918 190.19524855803016,-103.17726694209948 L195.12569070581972,-104.89239910530463Q204.98657500139882,-108.32266343171493 204.98657500139882,-108.32266343171493 Z"/>
      </clipPath>
      <path class="rough"
            d="M193.09977793259745,-100.23973003726428Q193.09977793259745,-100.23973003726428 200.12457791429665,-101.48805412653775 L203.63697790514627,-102.1122161711745Q210.66177788684547,-103.36054026044796 218.4952454713658,-102.28427171224897 L222.41197926362594,-101.74613743814946Q230.24544684814626,-100.66986888995046 234.03895967214848,-97.53079672463161 L235.93571608414962,-95.96126064197217Q239.72922890815184,-92.82218847665332 244.06013800688763,-88.17264507095534 L246.22559255625552,-85.84787336810636Q250.5565016549913,-81.19832996240838 252.5730325606566,-75.50463590837478 L253.58129801348926,-72.65778888135799Q255.59782891915455,-66.96409482732439 254.42425485924554,-58.654554481549816 L253.83746782929106,-54.49978430866253Q252.66389376938204,-46.190243962887955 250.57412420553032,-39.96466547393958 L249.52923942360448,-36.8518762294654Q247.43946985975276,-30.62629774051702 241.67361891844465,-24.831316455889496 L238.79069344779057,-21.933825813575734Q233.02484250648246,-16.13884452894821 225.6005150049879,-13.221503835589033 L221.88835125424063,-11.762833488909445Q214.46402375274607,-8.84549279555027 203.77340981390168,-7.792241742702293 L198.4281028444795,-7.265616216278305Q187.7374889056351,-6.212365163430328 183.89226226126922,-5.101851572690921 L181.9696489390863,-4.546594777321218Q178.12442229472043,-3.436081186581811 175.35911783901184,0.8131098971890234 L173.97646561115758,2.937705439074441Q171.211161155449,7.1868965228452755 164.3399342841558,9.254450904547403 L160.9043208485092,10.288228095398466Q154.033093977216,12.355782477100593 146.48628317361917,12.446963083533888 L142.71287777182076,12.492553386750535Q135.16606696822393,12.583733993183829 124.31145619336209,15.295933553444215 L118.88415080593118,16.65203333357441Q108.02954003106935,19.364232893834792 94.34360375038473,22.081249261885393 L87.50063561004244,23.43975744591069Q73.81469932935782,26.15677381396129 62.770847927957455,27.22553585645803 L57.24892222725727,27.7599168777064Q46.2050708258569,28.82867892020314 34.382844131655254,30.993065472707737 L28.47173078455443,32.07525874896004Q16.64950409035278,34.239645301464634 8.329415654603869,35.54431131292475 L4.169371436729416,36.1966443186548Q-4.1507169990194965,37.50131033011491 -10.586041862196241,33.29712180029584 L-13.803704293784612,31.195027535386306Q-20.239029156961358,26.990839005567235 -24.05781456340726,20.549515231648982 L-25.967207266630208,17.328853344689858Q-29.78599267307611,10.887529570771607 -30.76832840750535,4.5591476867988385 L-31.25949627471997,1.394956744812455Q-32.24183200914921,-4.933425139160313 -30.70013430478438,-10.191462666311532 L-29.929285452601967,-12.82048142988714Q-28.387587748237134,-18.07851895703836 -23.43053075318646,-26.19824243653384 L-20.952002255661128,-30.258104176281577Q-15.994945260610454,-38.37782765577706 -10.19884737726666,-40.75284632433288 L-7.300798435594763,-41.94035565861079Q-1.5047005522509689,-44.31537432716661 6.759257606810711,-46.91537772137462 L10.89123668634155,-48.21537941847862Q19.15519484540323,-50.81538281268663 34.387421708848784,-53.24558053534387 L42.003535140571564,-54.46067939667248Q57.23576200401712,-56.89087711932972 64.88506006938212,-57.340512629580985 L68.70970910206464,-57.56533038470662Q76.35900716742964,-58.01496589495788 84.35647791421562,-58.59766006977392 L88.35521328760859,-58.88900715718195Q96.35268403439457,-59.47170133199799 105.11320294238334,-61.50323046437206 L109.49346239637772,-62.51899503055909Q118.25398130436649,-64.55052416293316 126.54857162106836,-66.44385192158454 L130.6958667794193,-67.39051580091022Q138.99045709612116,-69.2838435595616 146.33786865767533,-71.2540764954486 L150.01157443845244,-72.2391929633921Q157.3589860000066,-74.2094258992791 162.6381144604745,-77.62374888688328 L165.27767869070843,-79.33091038068535Q170.55680715117632,-82.74523336828953 175.34458878106247,-86.61029217346825 L177.73847959600553,-88.54282157605762Q182.5262612258917,-92.40788038123634 186.755667908574,-95.54062024364751 L188.87037124991514,-97.10699017485311Q193.09977793259745,-100.23973003726428 193.09977793259745,-100.23973003726428 Z"/>
      <path class="semi-rough"
            d="M215.70313311972524,-89.12632524620312Q215.70313311972524,-89.12632524620312 222.09248305248707,-85.98178202233825 L225.28715801886796,-84.40951041040583Q231.6765079516298,-81.26496718654096 235.42371959563533,-76.47215305351398 L237.29732541763812,-74.0757459870005Q241.04453706164367,-69.28293185397352 244.37685124502735,-63.17434222593876 L246.04300833671923,-60.120047411921384Q249.3753225201029,-54.01145778388662 247.4798814231173,-46.02458193424215 L246.53216087462448,-42.03114400941992Q244.63671977763886,-34.044268159775456 240.38133456029857,-28.78666878502687 L238.2536419516284,-26.15786909765258Q233.9982567342881,-20.900269722903992 228.58094587039477,-17.95193025237716 L225.87229043844812,-16.477760517113744Q220.45497957455478,-13.529421046586908 212.01711031053827,-12.219873694678338 L207.79817567853004,-11.565100018724053Q199.36030641451353,-10.255552666815483 192.5098227459852,-10.43055714294597 L189.08458091172105,-10.518059381011215Q182.2340972431927,-10.693063857141702 174.21623233521228,-10.581490473321239 L170.20729988122207,-10.525703781411005Q162.18943497324165,-10.414130397590542 157.7452034019546,-9.513601391587748 L155.52308761631105,-9.06333688858635Q151.078856045024,-8.162807882583557 146.71631443430329,-5.378119742268543 L144.5350436289429,-3.9857756721110373Q140.1725020182222,-1.2010875317960235 133.37819263402102,-0.08068652753658268 L129.98103794192045,0.4795139745931378Q123.18672855771928,1.5999149788525786 112.88006177673718,3.34452690778178 L107.72672838624614,4.21683287224638Q97.42006160526404,5.961444801175582 85.83846438640903,8.233294610345109 L80.04766577698152,9.369219514929872Q68.46606855812651,11.6410693240994 55.07691087611147,15.761058788329468 L48.38233203510394,17.8210535204445Q34.993174353088904,21.94104298467457 26.698621683384758,23.834482118883624 L22.551345348532685,24.781201685988155Q14.256792678828537,26.674640820197208 5.225339767503112,25.178609867259684 L0.709613311840398,24.430594390790922Q-8.321839599485028,22.9345634378534 -12.197095607504522,17.911459806884057 L-14.134723611514271,15.399907991399386Q-18.009979619533766,10.376804360430045 -19.652603868127507,2.4253230967842025 L-20.47391599242438,-1.5504175350387168Q-22.11654024101812,-9.501898798684559 -20.170187500491007,-16.311237755912664 L-19.197011130227448,-19.715907234526718Q-17.250658389700334,-26.525246191754825 -12.150610399365132,-31.347687365677363 L-9.600586404197532,-33.75890795263863Q-4.50053841386233,-38.58134912656117 3.5534279071603905,-40.58234438398337 L7.580411067671751,-41.58284201269447Q15.634377388694471,-43.58383727011667 22.321178724111775,-44.46370005499636 L25.66457939182043,-44.90363144743621Q32.35138072723773,-45.7834942323159 41.403588185833215,-46.5299439313928 L45.92969191513096,-46.903168780931246Q54.98189937372644,-47.649618480008144 67.56689873551875,-48.54921049682686 L73.85939841641489,-48.999006505236224Q86.44439777820719,-49.89859852205494 93.11076107299918,-51.24944341750175 L96.44394272039517,-51.92486586522515Q103.11030601518716,-53.27571076067196 109.9917675641892,-55.107792292079786 L113.43249833869024,-56.023833057783705Q120.31395988769228,-57.85591458919153 126.84725164645634,-59.55490835119117 L130.11389752583838,-60.404405232191Q136.64718928460243,-62.10339899419065 142.98070338883122,-62.96785348301287 L146.1474604409456,-63.40008072742398Q152.48097454517438,-64.2645352162462 158.16953496914016,-66.39881337466834 L161.01381518112305,-67.46595245387941Q166.70237560508883,-69.60023061230154 171.55675190825656,-74.64787465745499 L173.98394005984042,-77.1716966800317Q178.83831636300815,-82.21934072518515 186.48798271558357,-85.38245711452237 L190.31281589187125,-86.96401530919098Q197.96248224444668,-90.1271316985282 205.0587425945581,-89.72680911759817 L208.6068727696138,-89.52664782713316Q215.70313311972524,-89.12632524620312 215.70313311972524,-89.12632524620312 Z"/>
      <path class="tee"
            d="M-159.41247495173133,36.065106888467355Q-159.41247495173133,36.065106888467355 -161.7154624987005,40.310243483843415 L-162.86695627218506,42.43281178153145Q-165.16994381915424,46.67794837690751 -181.0004964336063,51.233692799201144 L-188.91577274083232,53.511565010347965Q-204.74632535528437,58.0673094326416 -220.80484630914128,63.73842358686704 L-228.83410678606975,66.57398066397977Q-244.89262773992667,72.2450948182052 -256.933381885779,74.97843669522643 L-262.9537589587052,76.34510763373706Q-274.9945131045575,79.07844951075829 -279.46762357309194,77.8908511034267 L-281.70417880735914,77.29705189976089Q-286.1772892758936,76.1094534924293 -284.48582056350403,70.50907003127531 L-283.6400862073092,67.70887830069833Q-281.94861749491963,62.108494839544356 -268.82845832911136,58.775605119413676 L-262.2683787462072,57.10916025934833Q-249.14821958039892,53.77627053921765 -232.53801840638485,48.08121402522252 L-224.23291781937783,45.233685768224966Q-207.62271664536377,39.53862925422984 -191.78017915547076,35.25870969987037 L-183.85891041052423,33.11874992269064Q-168.01637292063123,28.838830368331177 -164.57481373307127,31.72934097638565 L-162.8540341392913,33.174596280412885Q-159.41247495173133,36.065106888467355 -159.41247495173133,36.065106888467355 Z"/>
      <path class="fairway"
            d="M203.7730632134312,-85.36477063775813Q203.7730632134312,-85.36477063775813 210.19849216431254,-84.10950103340366 L213.4112066397532,-83.48186623122643Q219.83663559063456,-82.22659662687197 223.13868566612763,-79.5381569565912 L224.78971070387416,-78.1939371214508Q228.09176077936723,-75.50549745117003 230.83052489654455,-72.20273699637004 L232.19990695513317,-70.55135676897005Q234.93867107231048,-67.24859631417006 236.8221329603048,-61.90308877076998 L237.76386390430196,-59.23033499906994Q239.64732579229627,-53.884827455669864 239.3086502189812,-48.08907671483121 L239.13931243232363,-45.19120134441188Q238.80063685900856,-39.39545060357322 233.29583492711393,-33.021870564780926 L230.54343396116664,-29.835080545384777Q225.038632029272,-23.461500506592483 218.7867964157222,-20.71294854351283 L215.6608786089473,-19.338672561973002Q209.4090429953975,-16.59012059889335 202.33834844980242,-16.401646581740884 L198.80300117700486,-16.307409573164648Q191.73230663140978,-16.118935556012183 186.18772925929062,-18.828135924712683 L183.41544057323105,-20.182736109062937Q177.8708632011119,-22.891936477763437 177.04688470830624,-25.569782481355958 L176.6348954619034,-26.908705483152218Q175.81091696909775,-29.58655148674474 172.3958830668589,-29.438525829378243 L170.68836611573946,-29.364513000695Q167.2733322135006,-29.216487343328502 162.0609347017901,-26.98487233948579 L159.45473594593483,-25.86906483756443Q154.24233843422434,-23.637449833721718 149.89000306888875,-20.61724337235869 L147.71383538622098,-19.107140141677174Q143.3615000208854,-16.086933680314146 136.009018800867,-14.234453648298281 L132.33277819085782,-13.30821363229035Q124.98029697083943,-11.455733600274485 113.38337198712017,-9.537204265134411 L107.58490949526055,-8.577939597564374Q95.9879845115413,-6.659410262424301 77.62738196444816,-2.913817910528751 L68.44708069090159,-1.0410217345809767Q50.08647814380845,2.7045706173145736 40.071483171104376,5.73442280712935 L35.063985684752346,7.249348902036738Q25.048990712048273,10.279201091851515 17.891175420376726,11.17950453829151 L14.312267774540949,11.629656261511506Q7.154452482869401,12.529959707951502 2.213951898355865,10.148630042771671 L-0.25629839390090403,8.957965210181756Q-5.19679897841444,6.576635545001927 -8.667712841894858,2.7158029410632256 L-10.403169773635065,0.7853866390938751Q-13.874083637115483,-3.075445964844826 -13.074691190411336,-9.12715276883283 L-12.674994967059261,-12.153006170826831Q-11.875602520355114,-18.204712974814836 -7.277236136222924,-23.71328161527895 L-4.978052944156828,-26.467565935511004Q-0.3796865600246378,-31.97613457597512 7.617793991262625,-32.55890388360847 L11.616534266906255,-32.85028853742515Q19.614014818193517,-33.4330578450585 26.403249699543107,-34.67130375939796 L29.7978671402179,-35.29042671656768Q36.58710202156749,-36.52867263090714 45.40888910534357,-37.14714724688271 L49.81978264723161,-37.4563845548705Q58.64156973100769,-38.074859170846075 78.2155603848132,-41.04716309387805 L88.00255571171596,-42.533315055394034Q107.57654636552147,-45.50561897842601 116.28089529076698,-48.83249134796427 L120.63306975338972,-50.49592753273341Q129.33741867863523,-53.822799902271676 140.83194556159964,-55.38290177362471 L146.57920900308187,-56.16295270930122Q158.07373588604628,-57.72305458065426 162.34406825270247,-59.91383648867603 L164.4792344360306,-61.00922744268693Q168.7495668026868,-63.200009350708704 172.22144914911382,-67.4798390776407 L173.95739032232734,-69.61975394110671Q177.42927266875438,-73.8995836680387 181.42835918086013,-76.90447032034359 L183.42790243691297,-78.40691364649602Q187.42698894901872,-81.41180029880091 193.96541865478372,-82.9929884343838 L197.2346335076662,-83.78358250217524Q203.7730632134312,-85.36477063775813 203.7730632134312,-85.36477063775813 Z"/>
      <path class="greenside-trap"
            d="M172.25175021688304,-23.23828124968633Q172.25175021688304,-23.23828124968633 170.9815810864667,-19.879760526242375 L170.3464965212585,-18.2005001645204Q169.07632739084215,-14.841979441076441 166.12212504119236,-14.949888340899046 L164.64502386636744,-15.00384279081035Q161.69082151671765,-15.111751690632953 160.40090773767034,-17.65141793819541 L159.75595084814668,-18.921251061976637Q158.46603706909937,-21.460917309539095 161.44610424032308,-23.477786703786556 L162.93613782593496,-24.48622140091029Q165.91620499715867,-26.50309079515775 168.4504230850484,-25.197166976969182 L169.7175321289933,-24.5442050678749Q172.25175021688304,-23.23828124968633 172.25175021688304,-23.23828124968633 Z"/>
      <path class="greenside-trap"
            d="M164.86370883535247,-3.156246912646452Q164.86370883535247,-3.156246912646452 165.534191238792,-1.2976160711161433 L165.86943244051176,-0.3683006503509887Q166.5399148439513,1.49033019117932 164.38927580667644,3.5892272406904784 L163.313956288039,4.638675765446056Q161.16331725076415,6.737572814957215 158.09136090363035,6.634770177910871 L156.55538273006343,6.5833688593877Q153.48342638292962,6.4805662223413565 153.23803119054458,3.5416827075036452 L153.11533359435208,2.0722409500847903Q152.86993840196703,-0.866642564752921 155.18202980067423,-2.8198431214499795 L156.3380755000278,-3.796443399798508Q158.650166898735,-5.749643956495566 161.13558367338197,-4.71228513895592 L162.3782920607055,-4.193605730186098Q164.86370883535247,-3.156246912646452 164.86370883535247,-3.156246912646452 Z"/>
      <path class="green"
            d="M226.0811102825421,-67.45462703651351Q226.0811102825421,-67.45462703651351 229.29056781852387,-61.45870169139564 L230.89529658651475,-58.460739018836705Q234.1047541224965,-52.46481367371883 234.43180543047248,-47.641762971547685 L234.5953310844605,-45.23023762046211Q234.92238239243648,-40.40718691829097 232.14172908441466,-36.511285766683606 L230.75140243040377,-34.563335190879926Q227.97074912238196,-30.667434039272564 223.50572534697488,-27.524399424206255 L221.27321345927132,-25.952882116673102Q216.80818968386424,-22.809847501606793 211.87248417210026,-22.359970051104906 L209.40463141621828,-22.13503132585396Q204.4689259044543,-21.68515387535207 199.91236949405388,-23.37535869513966 L197.63409128885365,-24.22046110503345Q193.07753487845324,-25.91066592482104 189.90857248999006,-28.25091274203378 L188.32409129575848,-29.421036150640152Q185.1551289072953,-31.761282967852893 183.40438682241782,-34.04501783142585 L182.52901577997906,-35.18688526321234Q180.77827369510157,-37.4706201267853 178.51564975812622,-40.676014554910786 L177.38433778963852,-42.27871176897353Q175.12171385266316,-45.48410619709902 174.82527235285514,-49.600592189458276 L174.67705160295114,-51.6588351856379Q174.3806101031431,-55.77532117799716 177.50942229014106,-59.80431403920103 L179.07382838364003,-61.81881046980297Q182.20264057063798,-65.84780333100684 186.9954195098992,-69.59497415687716 L189.39180897952977,-71.46855956981231Q194.18458791879098,-75.21573039568263 202.28963407886815,-76.03894387646983 L206.34215715890676,-76.45055061686344Q214.44720331898392,-77.27376409765064 219.1007661044072,-73.3461092731958 L221.42754749711884,-71.38228186096836Q226.0811102825421,-67.45462703651351 226.0811102825421,-67.45462703651351 Z"/>
      <path class="trees"
            d="M89.02795955036633,-87.95729260531752Q89.02795955036633,-87.95729260531752 90.99605873783916,-85.41088403521644 L91.98010833157556,-84.13767975016589Q93.9482075190484,-81.59127118006481 95.74870507527956,-82.90771212393591 L96.64895385339514,-83.56593259587144Q98.4494514096263,-84.88237353974255 100.69337549607283,-86.68242775056525 L101.8153375392961,-87.58245485597661Q104.05926162574262,-89.38250906679932 106.60507524986356,-87.79010467908942 L107.87798206192404,-86.99390248523447Q110.42379568604498,-85.40149809752458 110.23536491745115,-82.60697128676028 L110.14114953315425,-81.20970788137814Q109.95271876456042,-78.41518107061384 107.40647983647976,-76.4472250460096 L106.13336037243944,-75.46324703370749Q103.58712144435879,-73.49529100910325 100.72559460537043,-75.22880285478224 L99.29483118587625,-76.09555877762175Q96.4333043468879,-77.82907062330074 92.68450493275753,-75.03498597757324 L90.81010522569235,-73.63794365470949Q87.061305811562,-70.843859008982 84.33418596872141,-73.04758684296704 L82.97062604730112,-74.14945075995955Q80.24350620446054,-76.35317859394459 80.42523076489317,-79.30221169152023 L80.51609304510949,-80.77672824030803Q80.69781760554211,-83.72576133788367 84.0298743834718,-85.41837384485721 L85.69590277243664,-86.26468009834397Q89.02795955036633,-87.95729260531752 89.02795955036633,-87.95729260531752 Z"/>
      <path class="trees"
            d="M269.54041798666884,-62.32375446098045Q269.54041798666884,-62.32375446098045 272.7541841633422,-57.458250696293064 L274.3610672516789,-55.02549881394937Q277.57483342835224,-50.15999504926197 277.94292649353554,-41.66784679237291 L278.12697302612713,-37.42177266392838Q278.49506609131043,-28.929624407039324 269.45855378848205,-18.02804121530827 L264.9402976370679,-12.577249619442744Q255.9037853342395,-1.67566642771169 242.34982859286376,8.92123540998236 L235.5728502221759,14.219686328829384Q222.01889348080016,24.816588166523434 207.6839367853837,28.941211872159204 L200.5164584376755,31.003523724977086Q186.18150174225906,35.128147430612856 169.08759113646994,44.877657698017615 L160.54063583357538,49.75241283171999Q143.44672522778626,59.501923099124745 99.00980800860944,61.92899118735349 L76.79134939902104,63.142525231467864Q32.35443217984422,65.56959331969661 16.99883408931418,69.23834407152272 L9.321035044049164,71.07271944743577Q-6.034563046480871,74.74147019926188 -83.55041886538801,87.61313279649725 L-122.30834677484157,94.04896409511493Q-199.8242025937487,106.9206266923503 -200.17091183421806,98.92804042420633 L-200.3442664544527,94.93174729013434Q-200.69097569492206,86.93916102199037 -54.10780799529715,62.564898516394265 L19.183775854515233,50.377767263596226Q165.76694355414014,26.003504758000123 182.59958438458094,21.77059151816643 L191.01590479980132,19.654134898249584Q207.8485456302421,15.42122165841589 218.07896600762928,8.972133624448226 L223.19417619632284,5.747589607464393Q233.42459657371,-0.7014984265032704 245.93620540786273,-12.254173196482043 L252.1920098249391,-18.030510581471425Q264.70361865909183,-29.583185351450197 266.55020114638694,-33.166539022199466 L267.4734923900345,-34.9582158575741Q269.3200748773296,-38.54156952832337 265.58511874698735,-43.88495922770346 L263.7176406818162,-46.55665407739351Q259.98268455147394,-51.9000437767736 263.8057779255519,-56.06952805045634 L265.71732461259086,-58.15427018729771Q269.54041798666884,-62.32375446098045 269.54041798666884,-62.32375446098045 Z"/>
      <path class="tree"
            d="M246.76026217790823,-91.69797091503963Q246.76026217790823,-91.69797091503963 245.53711983748403,-87.77502211067382 L244.92554866727195,-85.8135477084909Q243.70240632684775,-81.89059890412508 239.95402575220803,-82.65693597754802 L238.07983546488816,-83.04010451425947Q234.33145489024844,-83.8064415876824 232.88060370790464,-85.13674221501594 L232.1551781167327,-85.80189252868271Q230.70432693438892,-87.13219315601626 230.5502828553629,-90.6858661536065 L230.47326081584987,-92.4627026524016Q230.31921673682385,-96.01637564999184 234.02072114298477,-96.33159010023324 L235.87147334606522,-96.48919732535393Q239.57297775222614,-96.80441177559533 242.44789152249896,-94.76183543137304 L243.8853484076354,-93.74054725926192Q246.76026217790823,-91.69797091503963 246.76026217790823,-91.69797091503963 Z"/>
      <use xmlns:xlink="http://www.w3.org/1999/xlink" xlink:href="#TeeSet"
           x="-222.79488211238436"
           y="53.95859841925152"
           class="tees"
           transform="rotate(76.39646344015937 -222.79488211238436 53.95859841925152)"/>
      <use xmlns:xlink="http://www.w3.org/1999/xlink" xlink:href="#Flag"
           x="204.65149624767562"
           y="-49.47949228049806"
           transform="rotate(76.39646344015937 204.65149624767562 -49.47949228049806)"/>
   </g>
   <rect x="470" y="400" rx="4" ry="4" width="110" height="180" class="info-background"/>
   <text x="525" y="420" class="info-hole" text-anchor="middle">
					Hole 16</text>
   <text x="525" y="440" class="info-par" text-anchor="middle">
					Par 3</text>
   <circle cx="485.625" cy="457.1875" r="5.625" style="fill:blue"/>
   <text x="496.875" y="460" class="info-length">194 meters</text>
   <use xmlns:xlink="http://www.w3.org/1999/xlink" xlink:href="#Compass" x="550" y="50"
        transform="rotate(-76.39646344015937 550 50)"/>
   <use xmlns:xlink="http://www.w3.org/1999/xlink" xlink:href="#GolfMLLogoSmall" x="10"
        y="575"/>
</svg>