<?xml version="1.0" encoding="UTF-8"?>
<svg xmlns="http://www.w3.org/2000/svg" width="600" height="600">
   <defs>
      <style xmlns:g="http://code.google.com/p/golfml"
             xmlns:xlink="http://www.w3.org/1999/xlink"
             xmlns:xs="http://www.w3.org/2001/XMLSchema"
             type="text/css">
/* Stylesheet for SVG elements
 *
 *
 * Classes for area of interest (surfaces)
 *
 * DRAWING
 */
.background {
		fill: url(#background-gradient);
}

.hole-limits {
	fill: none;
	stroke: #ccc;
	stroke-width: 1px;
	stroke-dasharray: 10,10;
}

.hole-contour {
	fill: #030;
	stroke: #fff;
	stroke-width: 2px;
}


/* GROUND
 */
.fairway {
	fill: url(#fairway-pattern);
	stroke: #0b0;
	stroke-width: 3px; /* fairway fringe... */
}

.tee {
	fill: #00c800;
	stroke: #0f0;
	stroke-width: 1px;
}

.fringe {
	fill: #0A0;
}

.green {
	fill: url(#green-gradient);
	stroke: #0f0;
	stroke-width: 1px;
}

.semi-rough,
.light-rough {
	fill: #080;
	stroke: #08800D;
	stroke-width: 1px;
}

.rough {
	fill: url(#rough-gradient);
	stroke: #07660A;
	stroke-width: 1px;
}

.heavy-rough {
	fill: #040;
	stroke: #074D08;
	stroke-width: 1px;
}

.ground {
	fill: #7f400c;
	stroke: #fdcc6a;
	stroke-width: 1px;
}


/* WATER
 */
.lateral-water {
	fill: url(#lateral-water-gradient);
	stroke: red;
	stroke-width: 4px;
}

.front-water, .water {
	fill: #37f;
	stroke: yellow;
	stroke-width: 3px;
}


/* SPECIAL
 */
.under-repair {
	fill: none;
	stroke: #00d;
	stroke-width: 2px;
}

.out-of-bound { /* line only */
	fill: none;
	stroke: white;
	stroke-width: 4px;
}

.out-of-bound-area {
	fill: #ccc;
	stroke: white;
	stroke-width: 4px;
}


/* TRAPS
 */
.trap,
.bunker {
	fill: #92cf94;
	stroke: #4c994c;
	stroke-width: 1px;
}

.grass-trap,
.grass-bunker {
	fill: #050;
	stroke: #0A0;
	stroke-width: 1px;
}

.sand-trap,
.sand-bunker,
.greenside-trap,
.greenside-bunker {
	fill: #eec;
	stroke: #040;
	stroke-width: 2px;
}

.fairway-trap,
.fairway-bunker {
	fill: #eec;
	stroke: #030;
	stroke-width: 2px;
}


/* OBSTACLES
 */
.tree {
	fill: #062;
	stroke: #0c6;
	stroke-width: 1px;
}

.trees {
	fill: #062;
	stroke: #0c6;
	stroke-width: 1px;
}

.bush {
	fill: #00b259;
	stroke: #7f400c;
	stroke-width: 1px;
}


.path {
	fill: #666;
	stroke: #bbb;
	stroke-width: 1px;
}

.building,
.construction {
	fill: #fdcc6a;
	stroke: #7f400C;
	stroke-width: 1px;
}

.obstruction {
	fill: #555;
	stroke: #999;
	stroke-width: 1px;
}


.other {
	fill: #ddd;
	stroke: #666;
	stroke-width: 1px;
}

/* Classes for point of interest (points)
 *
 */
.dogleg {
	fill: #000;
}

.aim {
	fill: #fff;
	stroke: #f00;
	stroke-width: 1px;
}

.tees {
	fill: #00f;
}

.tees-hollow {
	stroke: #fff;
	stroke-width: 0.5px;
}

.hole {
	fill: #fff;
}

.distance-marker-100,
.distance-marker-close {
	fill: #44f;
	stroke: #00f;
	stroke-width: 1px;
}

.distance-marker-150,
.distance-marker-135,
.distance-marker,
.distance-marker-mid {
	fill: #f44;
	stroke: #f00;
	stroke-width: 1px;
}

.distance-marker-200,
.distance-marker-far {
	fill: #dd4;
	stroke: #ff0;
	stroke-width: 1px;
}

.green-region-delimiter {
	fill: none;
	stroke: #fff;
	stroke-width: 0.5;
	stroke-dasharray: 4,2;
}

.neutral {
	fill: none;
	stroke: #888;
	stroke-width: 1px;
}
.one-tree {
	fill: #14920D;
	stroke: #165822;
	stroke-width: 3px;
	stroke-linecap: round;
	stroke-linejoin: round; 
}

/* Classes for special decorative objects
 *
 */
.compass-center {
	fill: #ddd;
	stroke: #fff;
	stroke-width: 1px;
}
.compass-needle {
	fill: #ddd;
	stroke: #fff;
	stroke-width: 1px;
}
.compass-north {
	fill: #fff;
}
.flag-pole {
	fill: none;
	stroke: #f00;
	stroke-width: 2px;
}
.flag-flag {
	fill: #ff0;
	stroke: #f00;
	stroke-width: 1px;
}
.flag-cup {
	fill: #fff;
}
/* Information box */
.info-background {
	fill: #ddd;
}
.info-hole {
	font-family: Georgia, "Times New Roman", Times, serif;
	font-size: xx-large;
}
.info-par {
	font-family: Georgia, "Times New Roman", Times, serif;
	font-size: x-large;
}
.info-length {
	font-family: Georgia, "Times New Roman", Times, serif;
	font-size: large;
}
/* Circle for distances */
.circle-from-green {
	fill: none;
	stroke: #fff;
	stroke-width: 1px;
	stroke-dasharray: 4,4;
}
.circle-from-tee {
	fill: none;
	stroke: #f00;
	stroke-width: 1px;
	stroke-dasharray: 8,8;
}
/* Dynamic objects */
.target {
	fill: none;
	stroke: #f00;
	stroke-width: 2px;
}
.target-filled {
	fill: #f00;
	fill-opacity: 0.5;
	stroke: #f00;
}
.ball {
	fill: #fff;
	stroke: none;
}
.trajectory {
	fill: none;
	stroke: #fff;
	stroke-width: 2px;
}
.distance {
	fill: #fff;
}
</style>
      <linearGradient xmlns:g="http://code.google.com/p/golfml"
                      xmlns:xlink="http://www.w3.org/1999/xlink"
                      xmlns:xs="http://www.w3.org/2001/XMLSchema"
                      id="background-straight">
         <stop offset="5%" stop-color="#002"/>
         <stop offset="95%" stop-color="#004"/>
      </linearGradient>
      <linearGradient xmlns:g="http://code.google.com/p/golfml"
                      xmlns:xlink="http://www.w3.org/1999/xlink"
                      xmlns:xs="http://www.w3.org/2001/XMLSchema"
                      id="background-gradient"
                      gradientTransform="rotate(30)"
                      xlink:href="#background-straight"/>
      <linearGradient xmlns:g="http://code.google.com/p/golfml"
                      xmlns:xlink="http://www.w3.org/1999/xlink"
                      xmlns:xs="http://www.w3.org/2001/XMLSchema"
                      id="lateral-water-straight">
         <stop offset="5%" stop-color="#006"/>
         <stop offset="95%" stop-color="#008"/>
      </linearGradient>
      <linearGradient xmlns:g="http://code.google.com/p/golfml"
                      xmlns:xlink="http://www.w3.org/1999/xlink"
                      xmlns:xs="http://www.w3.org/2001/XMLSchema"
                      id="lateral-water-gradient"
                      gradientTransform="rotate(60)"
                      xlink:href="#lateral-water-straight"/>
      <linearGradient xmlns:g="http://code.google.com/p/golfml"
                      xmlns:xlink="http://www.w3.org/1999/xlink"
                      xmlns:xs="http://www.w3.org/2001/XMLSchema"
                      id="rough-straight">
         <stop offset="0%" stop-color="#030"/>
         <stop offset="25%" stop-color="#060"/>
         <stop offset="50%" stop-color="#040"/>
         <stop offset="75%" stop-color="#060"/>
         <stop offset="100%" stop-color="#080"/>
      </linearGradient>
      <linearGradient xmlns:g="http://code.google.com/p/golfml"
                      xmlns:xlink="http://www.w3.org/1999/xlink"
                      xmlns:xs="http://www.w3.org/2001/XMLSchema"
                      id="rough-gradient"
                      gradientTransform="rotate(70)"
                      xlink:href="#rough-straight"/>
      <linearGradient xmlns:g="http://code.google.com/p/golfml"
                      xmlns:xlink="http://www.w3.org/1999/xlink"
                      xmlns:xs="http://www.w3.org/2001/XMLSchema"
                      id="green-straight">
         <stop offset="0%" stop-color="#0d0"/>
         <stop offset="25%" stop-color="#0e0"/>
         <stop offset="50%" stop-color="#0c0"/>
         <stop offset="75%" stop-color="#0e0"/>
         <stop offset="100%" stop-color="#0b0"/>
      </linearGradient>
      <linearGradient xmlns:g="http://code.google.com/p/golfml"
                      xmlns:xlink="http://www.w3.org/1999/xlink"
                      xmlns:xs="http://www.w3.org/2001/XMLSchema"
                      id="green-gradient"
                      gradientTransform="rotate(75)"
                      xlink:href="#green-straight"/>
      <pattern xmlns:g="http://code.google.com/p/golfml"
               xmlns:xlink="http://www.w3.org/1999/xlink"
               xmlns:xs="http://www.w3.org/2001/XMLSchema"
               id="fairway-straight"
               patternUnits="userSpaceOnUse"
               x="0"
               y="0"
               width="20"
               height="20"
               viewBox="0 0 20 20">
         <rect x="0" y="0" width="10" height="10" fill="#00c000"/>
         <rect x="10" y="10" width="10" height="10" fill="#00c800"/>
         <rect x="10" y="0" width="10" height="10" fill="#00bc00"/>
         <rect x="0" y="10" width="10" height="10" fill="#00b800"/>
      </pattern>
      <pattern xmlns:g="http://code.google.com/p/golfml"
               xmlns:xlink="http://www.w3.org/1999/xlink"
               xmlns:xs="http://www.w3.org/2001/XMLSchema"
               id="fairway-pattern"
               patternTransform="rotate(60)"
               xlink:href="#fairway-straight"/>
      <g xmlns:g="http://code.google.com/p/golfml"
         xmlns:xlink="http://www.w3.org/1999/xlink"
         xmlns:xs="http://www.w3.org/2001/XMLSchema"
         id="Tree"
         transform="translate(-76 -66) scale(0.4)">
         <path class="one-tree"
               d="M191.991,126.799c-11.163,0-21.022,4.032-27.033,10.191c-17.556,0.615-31.556,11.151-31.556,24.079       c0,7.537,4.759,14.266,12.203,18.693c0.876,12.855,18.43,23.128,39.939,23.128c22.07,0,39.979-10.812,39.979-24.136       c0-0.065-0.012-0.13-0.013-0.195c6.33-2.866,10.33-6.992,10.33-11.595c0-4.806-4.343-9.104-11.164-11.977       c0.31-1.318,0.478-2.67,0.478-4.054C225.154,137.612,210.297,126.799,191.991,126.799z"/>
      </g>
      <g xmlns:g="http://code.google.com/p/golfml"
         xmlns:xlink="http://www.w3.org/1999/xlink"
         xmlns:xs="http://www.w3.org/2001/XMLSchema"
         id="TeeSet">
         <circle cx="-5" cy="0" r="2"/>
         <circle cx="5" cy="0" r="2"/>
      </g>
      <g xmlns:g="http://code.google.com/p/golfml"
         xmlns:xlink="http://www.w3.org/1999/xlink"
         xmlns:xs="http://www.w3.org/2001/XMLSchema"
         id="DistanceMarker">
         <circle r="6"/>
      </g>
      <g xmlns:g="http://code.google.com/p/golfml"
         xmlns:xlink="http://www.w3.org/1999/xlink"
         xmlns:xs="http://www.w3.org/2001/XMLSchema"
         id="Dogleg">
         <circle r="4"/>
      </g>
      <g xmlns:g="http://code.google.com/p/golfml"
         xmlns:xlink="http://www.w3.org/1999/xlink"
         xmlns:xs="http://www.w3.org/2001/XMLSchema"
         id="Aim">
         <circle r="4"/>
      </g>
      <g xmlns:g="http://code.google.com/p/golfml"
         xmlns:xlink="http://www.w3.org/1999/xlink"
         xmlns:xs="http://www.w3.org/2001/XMLSchema"
         id="Hole">
         <circle r="2"/>
      </g>
      <g xmlns:g="http://code.google.com/p/golfml"
         xmlns:xlink="http://www.w3.org/1999/xlink"
         xmlns:xs="http://www.w3.org/2001/XMLSchema"
         id="Ball">
         <image xlink:href="../stylesheets/images/golf-ball.png" width="16" height="16"
                transform="translate(-8 -8)"/>
      </g>
      <g xmlns:g="http://code.google.com/p/golfml"
         xmlns:xlink="http://www.w3.org/1999/xlink"
         xmlns:xs="http://www.w3.org/2001/XMLSchema"
         id="Target">
         <circle class="target-filled" r="12"/>
      </g>
      <g xmlns:g="http://code.google.com/p/golfml"
         xmlns:xlink="http://www.w3.org/1999/xlink"
         xmlns:xs="http://www.w3.org/2001/XMLSchema"
         id="Flag"
         transform="translate(0 -30) scale(-0.2 0.2)">
         <line id="FlagPole" class="flag-pole" x1="0.5" y1="0" x2="0.5" y2="150"/>
         <circle id="FlagCup" class="flag-cup" r="10" cx="0" cy="145"/>
         <g id="FlagFlag">
            <path class="flag-flag"
                  d="M55.339,45.968c-18.28-14.516-36.559,14.516-54.839,0c0-12.097,0-24.193,0-36.29        c18.28,14.516,36.559-14.516,54.839,0C55.339,21.774,55.339,33.871,55.339,45.968z"/>
         </g>
      </g>
      <g xmlns:g="http://code.google.com/p/golfml"
         xmlns:xlink="http://www.w3.org/1999/xlink"
         xmlns:xs="http://www.w3.org/2001/XMLSchema"
         id="Compass">
         <polygon id="CompassNeedle" class="compass-needle" points="0,30 -8,0 0,-20 8,0"/>
         <circle id="CompassCenter" class="compass-center" r="10"/>
         <text id="CompassNorth" class="compass-north" x="-4.7" y="40">N</text>
      </g>
      <g xmlns:g="http://code.google.com/p/golfml"
         xmlns:xlink="http://www.w3.org/1999/xlink"
         xmlns:xs="http://www.w3.org/2001/XMLSchema"
         id="GolfMLLogoSmall">
         <image xlink:href="../stylesheets/images/golfml-small.png" width="80" height="15"/>
      </g>
   </defs>
   <rect class="background" x="0" y="0" width="600" height="600"/>
   <g transform="translate(300,300) scale(-0.7446408322622821,0.7446408322622821) rotate(138.12825841181933)">
      <path class="hole-contour"
            d="M-276.687663803179,212.84987246564324Q-276.687663803179,212.84987246564324 -266.8106138445211,204.49658462367802 L-261.8720888651921,200.31994070269542Q-251.99503890653418,191.9666528607302 -233.83661485668785,187.77648939474236 L-224.75740283176467,185.6814076617484Q-206.59897878191833,181.49124419576057 -178.26720888310075,174.35443902948614 L-164.101323933692,170.78603644634893Q-135.7695540348744,163.6492312800745 -112.73845861196813,146.97844584438644 L-101.222910900515,138.6430531265424Q-78.19181547760873,121.97226769085435 -45.72251154583643,80.11500262403915 L-29.48785957995029,59.186370090631556Q2.981444351822007,17.329105023816354 24.178845373968105,-5.871145942328983 L34.77754588504115,-17.47127142540165Q55.97494690718725,-40.671522391546986 81.22956962293802,-74.58995650094582 L93.8568809808134,-91.54917355564521Q119.11150369656416,-125.46760766504404 149.28676909479807,-180.32577753835858 L164.374401793915,-207.75486247501587Q194.54966719214895,-262.6130323483304 204.80573341927595,-277.2949217489323 L209.93376653283948,-284.6358664492333Q220.1898327599665,-299.3177558498352 235.9597765885448,-299.590566626712 L243.84474850283394,-299.72697201515047Q259.61469233141224,-299.9997827920273 251.23136591988447,-220.72544088335457 L247.0397027141206,-181.0882699290182Q238.65637630259283,-101.81392802034546 219.91906573294446,-76.81621149069097 L210.55041044812026,-64.31735322586374Q191.8130998784719,-39.319636696209265 161.85024491634508,-4.12380371846114 L146.86881743528167,13.474112770412923Q116.90596247315486,48.66994574816105 66.94082644972508,98.97445116638667 L41.958258438010205,124.12670387549946Q-8.006877585419563,174.4312092937251 -30.848355213970965,194.07094385284495 L-42.269094028246656,203.89081113240485Q-65.11057165679806,223.5305456915247 -106.61979918498076,237.08034364926246 L-127.37441294907211,243.85524262813132Q-168.8836404772548,257.4050405858691 -190.76693462194606,274.4428764636869 L-201.7085816942917,282.96179440259584Q-223.59187583898296,299.99963028041367 -251.57220280102928,274.3680446804326 L-265.56236628205244,261.5522518804421Q-293.54269324409876,235.920666280461 -286.80068146773084,226.6923487545339 L-283.42967557954694,222.07818999157035Q-276.687663803179,212.84987246564324 -276.687663803179,212.84987246564324 Z"/>
      <clipPath id="HoleContour" transform="scale(1.2)">
         <path class="hole-contour"
               d="M-276.687663803179,212.84987246564324Q-276.687663803179,212.84987246564324 -266.8106138445211,204.49658462367802 L-261.8720888651921,200.31994070269542Q-251.99503890653418,191.9666528607302 -233.83661485668785,187.77648939474236 L-224.75740283176467,185.6814076617484Q-206.59897878191833,181.49124419576057 -178.26720888310075,174.35443902948614 L-164.101323933692,170.78603644634893Q-135.7695540348744,163.6492312800745 -112.73845861196813,146.97844584438644 L-101.222910900515,138.6430531265424Q-78.19181547760873,121.97226769085435 -45.72251154583643,80.11500262403915 L-29.48785957995029,59.186370090631556Q2.981444351822007,17.329105023816354 24.178845373968105,-5.871145942328983 L34.77754588504115,-17.47127142540165Q55.97494690718725,-40.671522391546986 81.22956962293802,-74.58995650094582 L93.8568809808134,-91.54917355564521Q119.11150369656416,-125.46760766504404 149.28676909479807,-180.32577753835858 L164.374401793915,-207.75486247501587Q194.54966719214895,-262.6130323483304 204.80573341927595,-277.2949217489323 L209.93376653283948,-284.6358664492333Q220.1898327599665,-299.3177558498352 235.9597765885448,-299.590566626712 L243.84474850283394,-299.72697201515047Q259.61469233141224,-299.9997827920273 251.23136591988447,-220.72544088335457 L247.0397027141206,-181.0882699290182Q238.65637630259283,-101.81392802034546 219.91906573294446,-76.81621149069097 L210.55041044812026,-64.31735322586374Q191.8130998784719,-39.319636696209265 161.85024491634508,-4.12380371846114 L146.86881743528167,13.474112770412923Q116.90596247315486,48.66994574816105 66.94082644972508,98.97445116638667 L41.958258438010205,124.12670387549946Q-8.006877585419563,174.4312092937251 -30.848355213970965,194.07094385284495 L-42.269094028246656,203.89081113240485Q-65.11057165679806,223.5305456915247 -106.61979918498076,237.08034364926246 L-127.37441294907211,243.85524262813132Q-168.8836404772548,257.4050405858691 -190.76693462194606,274.4428764636869 L-201.7085816942917,282.96179440259584Q-223.59187583898296,299.99963028041367 -251.57220280102928,274.3680446804326 L-265.56236628205244,261.5522518804421Q-293.54269324409876,235.920666280461 -286.80068146773084,226.6923487545339 L-283.42967557954694,222.07818999157035Q-276.687663803179,212.84987246564324 -276.687663803179,212.84987246564324 Z"/>
      </clipPath>
      <path class="water"
            d="M147.27561660392038,-165.98284126405406Q147.27561660392038,-165.98284126405406 146.6461460442415,-171.11079907491688 L146.33141076440205,-173.67477798034827Q145.70194020472317,-178.8027357912111 140.22238030634642,-183.68168529989796 L137.48260035715805,-186.1211600542414Q132.0030404587813,-191.00010956292826 126.67770639967833,-187.30556344169068 L124.01503937012684,-185.45829038107186Q118.68970531102387,-181.76374425983428 106.43668789063291,-178.17112239375825 L100.31017918043744,-176.37481146072022Q88.05716176004648,-172.7821895946442 97.7055487355923,-181.19540511595432 L102.52974222336522,-185.40201287660935Q112.17812919891104,-193.81522839791947 117.26203167686171,-197.97794333286916 L119.80398291583705,-200.05930080034398Q124.88788539378773,-204.22201573529367 131.56650781479843,-208.97003638011586 L134.90581902530377,-211.34404670252698Q141.5844414463145,-216.09206734734917 147.08529915838625,-220.8253712312079 L149.8357280144221,-223.19202317313727Q155.33658572649387,-227.925327056996 163.67589266786544,-231.7516742550143 L167.84554613855124,-233.66484785402344Q176.18485307992282,-237.49119505204175 182.21272946365855,-237.75485690453422 L185.2266676555264,-237.8866878307805Q191.25454403926213,-238.15034968327296 191.81806110531815,-234.52931804379307 L192.09981963834616,-232.71880222405312Q192.66333670440218,-229.09777058457323 193.68791208602926,-222.5140797743396 L194.2001997768428,-219.22223436922275Q195.22477515846987,-212.6385435589891 194.99852518746573,-204.34302337822294 L194.88540020196368,-200.19526328783988Q194.65915023095954,-191.8997431070737 193.862276472888,-184.021170138253 L193.4638395938522,-180.08188365384268Q192.66696583578067,-172.203310685022 187.9928956970209,-165.40719934547712 L185.65586062764106,-162.0091436757047Q180.9817904888813,-155.21303233615984 174.7931758103998,-152.7328211845788 L171.69886847115902,-151.49271560878825Q165.5102537926775,-149.0125044572072 156.92197539443788,-150.03614006686345 L152.62783619531805,-150.54795787169155Q144.03955779707843,-151.5715934813478 145.33398131981522,-157.3360925944303 L145.9811930811836,-160.21834215097155Q147.27561660392038,-165.98284126405406 147.27561660392038,-165.98284126405406 Z"/>
      <path class="water"
            d="M211.54068618520176,-170.08282239707017Q211.54068618520176,-170.08282239707017 213.0912866060301,-174.20138184749723 L213.8665868164443,-176.26066157271075Q215.41718723727266,-180.3792210231378 215.08041635100406,-184.709838232254 L214.91203090786973,-186.8751468368121Q214.57526002160114,-191.20576404592828 214.06298316543223,-194.49760683389266 L213.80684473734775,-196.14352822787484Q213.29456788117884,-199.43537101583922 213.91595394284266,-206.27517065673086 L214.22664697367458,-209.6950704771767Q214.8480330353384,-216.53487011806834 215.8280167052176,-221.07038100833213 L216.31800854015722,-223.33813645346402Q217.29799221003643,-227.8736473437278 220.9043725667083,-229.6148457787322 L222.70756274504424,-230.48544499623435Q226.31394310171612,-232.22664343123873 234.1779633484761,-232.60737208413528 L238.10997347185608,-232.79773641058352Q245.97399371861607,-233.17846506348008 252.26512383744839,-235.00021648764866 L255.41068889686454,-235.91109219973296Q261.70181901569686,-237.73284362390154 266.5372133306047,-239.1595006183452 L268.9549104880586,-239.87282911556704Q273.79030480296643,-241.2994861100107 279.6061273023229,-239.6756972083845 L282.51403855200107,-238.86380275757142Q288.3298610513575,-237.24001385594522 290.414993925942,-232.5071034836372 L291.4575603632342,-230.14064829748315Q293.5426932378187,-225.40773792517513 293.3528831282503,-217.960793201579 L293.2579780734662,-214.23732083978098Q293.0681679638978,-206.79037611618486 285.56275282164256,-204.10541880175566 L281.810045250515,-202.7629401445411Q274.30463010825974,-200.0779828301119 274.04850283738466,-201.72390684160425 L273.92043920194715,-202.54686884735045Q273.66431193107206,-204.1927928588428 269.80180711910424,-204.09755160333802 L267.8705547131203,-204.04993097558562Q264.0080499011525,-203.95468972008084 256.99264276569437,-203.53744374899836 L253.48493919796528,-203.3288207634571Q246.4695320625071,-202.9115747923746 243.71174438926872,-201.13385206464235 L242.33285055264952,-200.2449907007762Q239.57506287941112,-198.46726797304396 239.18751964837483,-195.5411493299965 L238.99374803285667,-194.0780900084728Q238.60620480182038,-191.15197136542534 239.8133734847385,-188.81113987155024 L240.41695782619755,-187.64072412461272Q241.62412650911565,-185.29989263073762 246.39356684289646,-188.23350441305377 L248.77828700978688,-189.70031030421183Q253.5477273435677,-192.63392208652797 257.68818914496933,-193.10957484155583 L259.75842004567016,-193.34740121906972Q263.89888184707183,-193.82305397409758 263.8405196165586,-190.94815678638594 L263.811338501302,-189.51070819253013Q263.75297627078874,-186.6358110048185 264.1044183320274,-181.1274397180938 L264.2801393626468,-178.37325407473145Q264.6315814238855,-172.86488278800675 263.6150499308729,-167.4808214726082 L263.1067841843666,-164.7887908149089Q262.09025269135395,-159.40472949951035 258.1181818233265,-156.76377076089264 L256.13214638931277,-155.4432913915838Q252.16007552128534,-152.8023326529661 249.5996392319369,-154.089711081331 L248.31942108726267,-154.73340029551346Q245.75898479791422,-156.02077872387835 241.86709958362562,-158.28102546407592 L239.92115697648134,-159.4111488341747Q236.02927176219274,-161.67139557437227 231.50841037042662,-161.47368453575913 L229.2479796745436,-161.37482901645257Q224.72711828277747,-161.17711797783943 219.0944172152654,-159.45777178869918 L216.27806668150936,-158.59809869412902Q210.64536561399728,-156.87875250498877 211.0034938424791,-162.16038046182132 L211.18255795671996,-164.80119444023762Q211.54068618520176,-170.08282239707017 211.54068618520176,-170.08282239707017 Z"/>
      <path class="tee"
            d="M236.8444157439947,-294.55334551818316Q236.8444157439947,-294.55334551818316 240.79471927674237,-295.1679925961194 L242.76987104311618,-295.47531613508755Q246.72017457586387,-296.0899632130238 249.10514192758743,-293.7637919544844 L250.29762560344923,-292.6007063252147Q252.6825929551728,-290.2745350666753 250.6856138636661,-287.94087582113275 L249.68712431791275,-286.7740461983614Q247.69014522640606,-284.44038695281887 242.56206365145206,-283.81105974761425 L239.99802286397505,-283.496396145012Q234.86994128902106,-282.8670689398074 235.6597310710105,-287.5415795711577 L236.05462596200525,-289.87883488683286Q236.8444157439947,-294.55334551818316 236.8444157439947,-294.55334551818316 Z"/>
      <path class="tee"
            d="M212.6139465245928,-263.3891102011079Q212.6139465245928,-263.3891102011079 213.74761509134424,-266.93707971028294 L214.31444937471994,-268.7110644648705Q215.4481179414714,-272.25903397404556 220.0714959093489,-271.79837772314704 L222.38318489328762,-271.5680495976977Q227.00656286116512,-271.1073933467992 230.27664678988938,-269.5932693966114 L231.91168875425151,-268.83620742151754Q235.18177268297578,-267.32208347132973 234.03339445465963,-264.9518809020634 L233.45920534050157,-263.76677961743025Q232.31082711218542,-261.3965770481639 228.3241324384077,-259.93323884608054 L226.33078510151887,-259.2015697450389Q222.34409042774115,-257.73823154295553 218.4520328664818,-259.99858300621645 L216.50600408585214,-261.12875873784697Q212.6139465245928,-263.3891102011079 212.6139465245928,-263.3891102011079 Z"/>
      <path class="fairway"
            d="M-252.99945434146647,242.05282441913147Q-252.99945434146647,242.05282441913147 -254.2613555085529,236.43609278185866 L-254.89230609209608,233.62772696322224Q-256.1542072591825,228.01099532594944 -253.23700045423854,223.10002160751185 L-251.77839705176655,220.64453474829304Q-248.8611902468226,215.73356102985545 -243.4446117226865,211.44331070593356 L-240.73632246061842,209.2981855439726Q-235.31974393648233,205.0079352200507 -222.57739181181793,202.5867513884661 L-216.20621574948572,201.3761594726738Q-203.46386362482133,198.9549756410892 -197.0213296301494,201.0132751725957 L-193.80006263281342,202.042424938349Q-187.3575286381415,204.10072446985552 -175.89608189865837,201.879086807296 L-170.1653585289168,200.76826797601623Q-158.70391178943368,198.54663031345672 -147.64114141835117,193.76305286853034 L-142.1097562328099,191.37126414606712Q-131.0469858617274,186.58768670114074 -118.41536372787286,182.54867223743562 L-112.09955266094559,180.52916500558305Q-99.46793052709106,176.49015054187794 -86.25066856075821,168.03826781347934 L-79.6420375775918,163.81232644928002Q-66.42477561125895,155.36044372088142 -53.66246103957472,136.51574243645416 L-47.281303753732615,127.09339179424052Q-34.51898918204839,108.24869050981326 -23.85014671796894,90.89251574353636 L-18.515725485929217,82.21442836039793Q-7.846883021849772,64.85825359412104 1.124504117119379,59.00514198354934 L5.610197686603954,56.0785861782635Q14.581584825573104,50.225474567691805 26.075061536430184,38.16666835835893 L31.821799891858724,32.137265253692505Q43.315276602715805,20.078459044359633 54.236868465792995,5.589626655310056 L59.697664397331586,-1.654789539214729Q70.61925626040878,-16.143621928264306 79.73361968231748,-23.569083704474863 L84.29080139327183,-27.28181459258014Q93.40516481518054,-34.707276368790694 101.9557589658783,-48.24576630551063 L106.23105604122718,-55.01501127387059Q114.78165019192494,-68.55350121059053 122.92888301060154,-79.703937879573 L127.00249941993985,-85.27915621406424Q135.14973223861645,-96.42959288304674 140.90133450666573,-95.58067124462414 L143.77713564069035,-95.15621042541285Q149.52873790873963,-94.30728878699026 154.977744069039,-91.6672872467202 L157.7022471491887,-90.34728647658517Q163.15125330948808,-87.70728493631512 166.3468274167128,-83.36017948743225 L167.94461447032518,-81.18662676299081Q171.1401885775499,-76.83952131410794 170.78743564095913,-70.390056415803 L170.61105917266377,-67.16532396665053Q170.258306236073,-60.71585906834559 159.01694197536688,-45.78985907279781 L153.39625984501384,-38.326859075023926Q142.15489558430772,-23.40085907947615 124.49809599980483,-6.120038453514827 L115.6696962075534,2.520371859465836Q98.01289662305051,19.80119248542716 86.79686203056882,32.39802260225058 L81.18884473432797,38.69643766066229Q69.97281014184628,51.29326777748571 57.83154852884648,59.18981613108102 L51.76091772234659,63.13809030787867Q39.61965610934679,71.03463866147398 30.404612482266042,79.0571249980718 L25.79709066872567,83.0683681663707Q16.58204704164492,91.09085450296853 10.17541569973509,98.4824877231111 L6.972100028780179,102.1783043331824Q0.5654686868703506,109.56993755332498 -0.19053337267752146,118.40735845258897 L-0.5685344024514574,122.82606890222097Q-1.3245364619993294,131.66348980148496 -3.7537735566288664,140.9551039568752 L-4.968392103943634,145.60091103457034Q-7.397629198573171,154.8925251899606 -13.913900091710577,157.84448789791784 L-17.172035538279278,159.3204692518965Q-23.688306431416684,162.27243195985375 -30.843528182519538,166.09895647579336 L-34.42113905807096,168.01221873376315Q-41.57636080917382,171.83874324970276 -45.29233731294711,177.8427632421716 L-47.15032556483375,180.84477323840602Q-50.86630206860704,186.84879323087486 -56.54996224570432,191.41515713084308 L-59.391792334252955,193.69833908082722Q-65.07545251135024,198.26470298079545 -76.72110653880308,198.13974769823307 L-82.54393355252951,198.07727005695185Q-94.18958757998236,197.95231477438946 -103.49722603361442,202.88909104245857 L-108.15104526043045,205.35747917649314Q-117.45868371406252,210.29425544456225 -130.53308370378713,217.17387043641523 L-137.0702836986494,220.61367793234174Q-150.14468368837402,227.49329292419472 -160.25991635639315,228.48667410678644 L-165.31753269040274,228.98336469808228Q-175.43276535842188,229.976745880674 -182.52904021241687,234.1818643972809 L-186.0771776394144,236.28442365558436Q-193.1734524934094,240.48954217219125 -197.7049964907317,246.23312027848596 L-199.97076848939287,249.10490933163328Q-204.50231248671517,254.848487437928 -206.14162199131025,258.010298081116 L-206.96127674360778,259.59120340270994Q-208.60058624820286,262.75301404589794 -211.91312415656606,266.3690990817078 L-213.56939311074763,268.17714159961275Q-216.88193101911082,271.7932266354226 -219.79111329925408,273.0212468266378 L-221.2457044393257,273.63525692224545Q-224.15488671946895,274.86327711346064 -226.43407596214797,270.1800269732356 L-227.57367058348748,267.83840190312304Q-229.8528598261665,263.155151762898 -233.03157801676056,260.1621389365102 L-234.6209371120576,258.6656325233163Q-237.79965530265164,255.67261969692848 -243.87957491817758,250.22470158580967 L-246.91953472594054,247.50074253025028Q-252.99945434146647,242.05282441913147 -252.99945434146647,242.05282441913147 Z"/>
      <path class="greenside-trap"
            d="M-222.23562062395345,270.07788246707133Q-222.23562062395345,270.07788246707133 -223.8688821101993,267.9800678438215 L-224.68551285332225,266.9311605321965Q-226.3187743395681,264.8333459089466 -226.2851003349736,261.69197846335965 L-226.26826333267638,260.12129474056616Q-226.23458932808188,256.9799272949792 -225.76241385123612,253.85740702281512 L-225.52632611281325,252.2961468867331Q-225.0541506359675,249.17362661456906 -223.6367600010595,247.64623849862693 L-222.9280646836055,246.88254444065583Q-221.51067404869752,245.3551563247137 -219.0120639676947,244.61770173416375 L-217.76275892719332,244.24897443888875Q-215.2641488461905,243.5115198483388 -213.13222963722419,242.65692607716485 L-212.06627003274104,242.22962919157786Q-209.93435082377474,241.37503542040392 -207.817686148498,239.3032141203619 L-206.75935381085966,238.2673034703409Q-204.64268913558294,236.19548217029887 -202.95329402122638,233.05769226049705 L-202.1085964640481,231.48879730559617Q-200.41920134969155,228.35100739579434 -199.06598985115465,227.5305351562857 L-198.3893841018862,227.1202990365314Q-197.0361726033493,226.29982679702277 -195.61475034430978,227.0367990318765 L-194.90403921479003,227.40528514930338Q-193.4826169557505,228.14225738415712 -193.69403153434683,230.70149277160638 L-193.79973882364501,231.98111046533103Q-194.01115340224135,234.5403458527803 -196.6758412795245,237.56862544349983 L-198.00818521816603,239.08276523885957Q-200.67287309544918,242.1110448295791 -203.34518358432257,244.53071263446904 L-204.68133882875924,245.74054653691402Q-207.35364931763263,248.16021434180396 -210.6686713197565,249.8087997996309 L-212.32618232081842,250.63309252854435Q-215.6412043229423,252.28167798637128 -217.23992566348835,254.8826688620563 L-218.03928633376137,256.1831642998988Q-219.63800767430743,258.78415517558386 -218.80993726694268,260.74598492865067 L-218.39590206326034,261.72689980518413Q-217.5678316558956,263.68872955825094 -217.5373227583137,266.1231861773591 L-217.52206830952278,267.34041448691323Q-217.4915594119409,269.7748711060214 -219.38918389674592,269.8960756504414 L-220.33799613914843,269.95667792265135Q-222.23562062395345,270.07788246707133 -222.23562062395345,270.07788246707133 Z"/>
      <path class="green"
            d="M-227.55948911540295,248.47459511367308Q-227.55948911540295,248.47459511367308 -229.95944411526764,249.28387076314112 L-231.15942161519996,249.68850858787516Q-233.55937661506465,250.4977842373432 -236.50052209318198,248.95205085194775 L-237.97109483224062,248.17918415924998Q-240.91224031035796,246.63345077385452 -243.2335601511548,244.0329569622911 L-244.3942200715532,242.73271005650938Q-246.71553991235004,240.13221624494597 -247.59299177890665,236.1744333340728 L-248.03171771218499,234.19554187863625Q-248.9091695787416,230.23775896776309 -247.35219163942944,226.24941768026503 L-246.57370266977338,224.255247036516Q-245.01672473046122,220.26690574901795 -243.5432626720711,217.42381526646656 L-242.80653164287605,216.00227002519088Q-241.33306958448594,213.1591795426395 -237.74905421005207,211.5561134110237 L-235.95704652283513,210.7545803452158Q-232.37303114840125,209.1515142136 -230.36597157924226,208.0549543856963 L-229.36244179466277,207.50667447174447Q-227.35538222550377,206.41011464384079 -224.6601772748623,205.81628150363585 L-223.31257479954158,205.51936493353338Q-220.6173698489001,204.92553179332845 -217.5025143458211,204.78905814834266 L-215.9450865942816,204.72082132584976Q-212.83023109120262,204.58434768086397 -209.40164691895774,204.22480576182244 L-207.68735483283533,204.04503480230164Q-204.25877066059044,203.6854928832601 -201.45002104000176,204.38071551453606 L-200.04564622970744,204.72832683017407Q-197.23689660911876,205.42354946145002 -194.8325470094128,206.87864872763424 L-193.6303722095598,207.60619836072638Q-191.22602260985383,209.0612976269106 -190.96122727761193,210.76236823835754 L-190.828829611491,211.61290354408098Q-190.56403427924909,213.31397415552792 -190.46934337045798,215.0415266715728 L-190.42199791606245,215.90530292959525Q-190.32730700727134,217.63285544564013 -189.93011505012308,220.1844594497899 L-189.73151907154895,221.4602614518648Q-189.33432711440068,224.01186545601456 -191.96533668242674,223.8987745117911 L-193.2808414664398,223.84222903967935Q-195.91185103446585,223.72913809545588 -198.13084105143278,223.4647899885783 L-199.24033605991622,223.3326159351395Q-201.45932607688314,223.06826782826192 -201.97324058023895,224.80345332546685 L-202.23019783191683,225.6710460740693Q-202.74411233527263,227.40623157127422 -204.08206847559399,229.44393568511606 L-204.75104654575466,230.462787742037Q-206.08900268607601,232.50049185587883 -207.06789831781057,234.04672285319973 L-207.55734613367784,234.8198383518602Q-208.5362417654124,236.3660693491811 -210.83063933457498,237.85576070836984 L-211.97783811915625,238.6006063879642Q-214.27223568831883,240.09029774715296 -216.89561672705042,240.58583365658382 L-218.20730724641624,240.83360161129923Q-220.83068828514783,241.3291375207301 -222.96260788642354,242.18373564142348 L-224.0285676870614,242.6110347017702Q-226.16048728833712,243.4656328224636 -226.72008801916346,245.46921773894738 L-226.99988838457662,246.4710101971893Q-227.55948911540295,248.47459511367308 -227.55948911540295,248.47459511367308 Z"/>
      <path class="trees"
            d="M-218.34702631324066,185.59486493011514Q-218.34702631324066,185.59486493011514 -217.74502371231455,183.24172524730474 L-217.44402241185148,182.06515540589953Q-216.84201981092536,179.71201572308914 -213.12360203056096,177.68064115523975 L-211.2643931403788,176.66495387131508Q-207.54597536001438,174.6335793034657 -203.7643737886335,174.04485301612436 L-201.87357300294303,173.75048987245373Q-198.09197143156214,173.1617635851124 -196.35500984337259,174.989380383707 L-195.48652904927783,175.90318878300425Q-193.74956746108828,177.73080558159884 -195.8923158876993,179.51687156715906 L-196.9636901010048,180.40990455993915Q-199.10643852761584,182.19597054549936 -203.90328928335146,184.5566218429004 L-206.30171466121928,185.73694749160094Q-211.0985654169549,188.09759878900198 -213.9979497754692,187.09650524544725 L-215.44764195472635,186.59595847366987Q-218.34702631324066,185.59486493011514 -218.34702631324066,185.59486493011514 Z"/>
      <path class="trees"
            d="M-165.45811131886308,167.6777908063063Q-165.45811131886308,167.6777908063063 -160.69617324870106,166.12954788031453 L-158.31520421362004,165.35542641731868Q-153.55326614345802,163.80718349132692 -149.19044547202404,162.8052414654698 L-147.00903513630706,162.30427045254126Q-142.64621446487308,161.30232842668414 -137.81440202156168,158.129361358661 L-135.39849579990596,156.5428778246494Q-130.56668335659455,153.36991075662624 -124.15918832996658,149.95167465789316 L-120.95544081665261,148.2425566085266Q-114.54794579002464,144.82432050979352 -106.90812491707968,138.9548601669882 L-103.08821448060719,136.02012999558556Q-95.44839360766223,130.15066965278024 -89.20213090266452,124.65954006025885 L-86.07899955016568,121.91397526399814Q-79.83273684516797,116.42284567147675 -74.51102959554055,109.13899658714335 L-71.85017597072682,105.49707204497666Q-66.5284687210994,98.21322296064326 -63.60890483533057,90.01218697693508 L-62.14912289244615,85.911668985081Q-59.22955900667732,77.71063300137281 -54.82500541691469,72.82896987215096 L-52.62272862203337,70.38813830754003Q-48.21817503227074,65.50647517831818 -42.05580964175045,60.51259242298702 L-38.97462694649031,58.015651045321434Q-32.81226155597002,53.02176828999027 -29.142788343632922,50.67534614304173 L-27.308051737464375,49.50213506956745Q-23.63857852512728,47.15571292261891 -23.183029523681014,51.11950025970313 L-22.955255022957882,53.10139392824524Q-22.499706021511617,57.06518126532946 -26.09864809864931,65.04918118846446 L-27.898119137218153,69.04118115003197Q-31.497061214355845,77.02518107316698 -34.21372788810176,83.41936438950688 L-35.57206122497472,86.61645604767685Q-38.28872789872063,93.01063936401675 -42.94525146842316,99.38398779300445 L-45.273513253274416,102.57066200749831Q-49.930036822976945,108.94401043648601 -54.83851486121001,116.809061980192 L-57.292753880326536,120.74158775204498Q-62.2012319185596,128.60663929575097 -66.67561769544211,135.1130291126107 L-68.91281058388336,138.36622402104052Q-73.38719636076587,144.87261383790025 -78.61816374586462,148.59182317316228 L-81.23364743841401,150.4514278407933Q-86.46461482351276,154.17063717605532 -90.46326040700488,155.43861893129392 L-92.46258319875093,156.07260980891323Q-96.46122878224305,157.34059156415182 -102.01472230228296,156.91397708472942 L-104.79146906230291,156.7006698450182Q-110.34496258234282,156.2740553655958 -116.81562262947782,158.24964006036123 L-120.05095265304533,159.23743240774394Q-126.52161270018033,161.21301710250935 -132.4950380278012,163.27260291173872 L-135.4817506916116,164.3023958163534Q-141.45517601923248,166.36198162558276 -147.44940321066503,170.36146014784956 L-150.4465168063813,172.36119940898297Q-156.44074399781385,176.36067793124977 -164.3332023784579,176.45963323181869 L-168.27943156877993,176.50911088210313Q-176.17188994942398,176.60806618267205 -171.88637849719962,173.03595603212574 L-169.74362277108744,171.2499009568526Q-165.45811131886308,167.6777908063063 -165.45811131886308,167.6777908063063 Z"/>
      <path class="trees"
            d="M62.440120960592594,-101.5415133434341Q62.440120960592594,-101.5415133434341 61.54798168920205,-104.46385980910514 L61.10191205350678,-105.92503304194067Q60.20977278211623,-108.8473795076117 55.22815176137159,-111.35192544848788 L52.73734125099927,-112.60419841892596Q47.75572023025463,-115.10874435980213 46.97738102656127,-118.70477192893489 L46.58821142471459,-120.50278571350125Q45.80987222102123,-124.09881328263401 47.479573684942345,-127.41986991031328 L48.314424416902895,-129.0803982241529Q49.98412588082401,-132.40145485183217 57.100628297371486,-130.22915312769197 L60.65887950564522,-129.14300226562187Q67.7753819221927,-126.97070054148168 74.10438237796602,-124.23851284573013 L77.26888260585267,-122.87241899785434Q83.59788306162599,-120.14023130210279 91.79594543673903,-119.44814726216289 L95.89497662429555,-119.10210524219295Q104.09303899940859,-118.41002120225305 107.8128130137862,-114.17845968418224 L109.67270002097501,-112.06267892514684Q113.39247403535262,-107.83111740707604 111.02079121778884,-101.99562432417174 L109.83494980900694,-99.07787778271961Q107.46326699144316,-93.24238469981532 101.10602440542199,-93.34632570155493 L97.9274031124114,-93.39829620242473Q91.57016052639023,-93.50223720416435 85.80105845649892,-95.44693979838581 L82.91650742155326,-96.41929109549653Q77.14740535166196,-98.363993689718 71.26449159523422,-99.63500155120444 L68.32303471702033,-100.27050548194767Q62.440120960592594,-101.5415133434341 62.440120960592594,-101.5415133434341 Z"/>
      <path class="trees"
            d="M-144.60869257179468,250.4691424061783Q-144.60869257179468,250.4691424061783 -137.0282044090922,245.79060291856774 L-133.237960327741,243.45133317476245Q-125.65747216503854,238.7727936871519 -120.66691733374293,237.12130353758232 L-118.17163991809514,236.29555846279754Q-113.18108508679953,234.64406831322796 -109.73722590841919,231.48412623532568 L-108.01529631922904,229.90415519637455Q-104.5714371408487,226.74421311847226 -100.44387271176689,229.3815126734938 L-98.38009049722598,230.70016245100456Q-94.25252606814416,233.3374620060261 -91.29204642896084,235.50047644799298 L-89.81180660936917,236.58198366897645Q-86.85132697018585,238.74499811094333 -80.35230865517372,235.5468172605337 L-77.10279949766763,233.94772683532887Q-70.6037811826555,230.74954598491922 -69.71255007877777,223.8325353354808 L-69.2669345268389,220.3740300107616Q-68.37570342296117,213.45701936132318 -63.29955300643206,213.760153186458 L-60.76147779816751,213.91172009902544Q-55.68532738163841,214.21485392416028 -55.381271536854754,218.9779210401183 L-55.22924361446292,221.3594545980973Q-54.92518776967927,226.12252171405532 -55.42770230469038,229.91786058197908 L-55.678959572195936,231.815530015941Q-56.181474107207045,235.61086888386475 -59.78647714968133,240.54509758344955 L-61.58897867091847,243.01221193324193Q-65.19398171339276,247.94644063282672 -68.91276869934288,253.5543527112743 L-70.77216219231794,256.3583087504981Q-74.49094917826805,261.96622082894567 -77.01443872806529,265.4201888857307 L-78.2761835029639,267.14717291412325Q-80.79967305276114,270.60114097090826 -82.96266045682685,273.56168736056605 L-84.04415415885971,275.0419605553949Q-86.20714156292543,278.0025069450527 -91.12213812981656,275.92508590654995 L-93.57963641326212,274.88637538729864Q-98.49463298015326,272.8089543487959 -99.94665799369893,269.0992065884254 L-100.67267050047177,267.2443327082401Q-102.12469551401745,263.5345849478696 -109.30739519503706,260.9355681992912 L-112.89874503554688,259.63605982500195Q-120.0814447165665,257.0370430764236 -119.37957471259162,254.5225842936018 L-119.0286397106042,253.26535490219092Q-118.32676970662932,250.75089611936914 -124.48439531156437,251.9281100385577 L-127.56320811403191,252.51671699815194Q-133.72083371896696,253.69393091734048 -138.07597726009806,252.40401551287562 L-140.25354903066358,251.75905781064316Q-144.60869257179468,250.4691424061783 -144.60869257179468,250.4691424061783 Z"/>
      <path class="tree"
            d="M-258.15856946068226,194.21384249261789Q-258.15856946068226,194.21384249261789 -252.24836642706234,190.71149259090353 L-249.29326491025236,188.96031764004636Q-243.38306187663244,185.457967738332 -238.2078920369363,184.49087029319895 L-235.62030711708826,184.0073215706324Q-230.44513727739212,183.04022412549935 -229.73754685470334,185.51225361684953 L-229.38375164335892,186.74826836252464Q-228.67616122067014,189.22029785387483 -231.31613028410325,190.9224006898987 L-232.63611481581978,191.77345210791063Q-235.2760838792529,193.4755549439345 -238.81239317473614,195.63998430308234 L-240.58054782247774,196.72219898265627Q-244.116857117961,198.8866283418041 -246.805881931581,200.27360055887127 L-248.150394338391,200.96708666740483Q-250.83941915201103,202.35405888447198 -255.89567909596457,202.01156932341644 L-258.42380906794136,201.84032454288865Q-263.4800690118949,201.4978349818331 -261.3514691914098,198.58423798614703 L-260.28716928116734,197.12743948830396Q-258.15856946068226,194.21384249261789 -258.15856946068226,194.21384249261789 Z"/>
      <use xmlns:xlink="http://www.w3.org/1999/xlink" xlink:href="#Tree"
           x="205.26764224433333"
           y="-54.891389283334384 "/>
      <use xmlns:xlink="http://www.w3.org/1999/xlink" xlink:href="#TeeSet"
           x="232.6482697389412"
           y="-276.91412366935367"
           class="tees"
           transform="rotate(-138.12825841181933 232.6482697389412 -276.91412366935367)"/>
      <use xmlns:xlink="http://www.w3.org/1999/xlink" xlink:href="#Flag"
           x="-219.12174834597667"
           y="227.0916469797746"
           transform="rotate(-138.12825841181933 -219.12174834597667 227.0916469797746)"/>
      <g clip-path="url(#HoleContour)">
         <circle cx="232.6482697389412" cy="-276.91412366935367" r="168.69763368783416"
                 class="circle-from-tee"/>
         <circle cx="232.6482697389412" cy="-276.91412366935367" r="253.04645053175125"
                 class="circle-from-tee"/>
         <circle cx="232.6482697389412" cy="-276.91412366935367" r="337.3952673756683"
                 class="circle-from-tee"/>
         <circle cx="-219.12174834597667" cy="227.0916469797746" r="168.69763368783416"
                 class="circle-from-green"/>
         <circle cx="-219.12174834597667" cy="227.0916469797746" r="253.04645053175125"
                 class="circle-from-green"/>
         <circle cx="-219.12174834597667" cy="227.0916469797746" r="337.3952673756683"
                 class="circle-from-green"/>
      </g>
   </g>
   <rect x="470" y="400" rx="4" ry="4" width="110" height="180" class="info-background"/>
   <text x="525" y="420" class="info-hole" text-anchor="middle">
					Hole 11</text>
   <text x="525" y="440" class="info-par" text-anchor="middle">
					Par 5</text>
   <circle cx="485.625" cy="457.1875" r="5.625" style="fill:blue"/>
   <text x="496.875" y="460" class="info-length">436 meters</text>
   <use xmlns:xlink="http://www.w3.org/1999/xlink" xlink:href="#Compass" x="550" y="50"
        transform="rotate(138.12825841181933 550 50)"/>
   <use xmlns:xlink="http://www.w3.org/1999/xlink" xlink:href="#GolfMLLogoSmall" x="10"
        y="575"/>
</svg>