<?xml version="1.0" encoding="UTF-8"?>
<svg xmlns="http://www.w3.org/2000/svg" width="600" height="600">
   <defs>
      <style xmlns:g="http://code.google.com/p/golfml"
             xmlns:xlink="http://www.w3.org/1999/xlink"
             xmlns:xs="http://www.w3.org/2001/XMLSchema"
             type="text/css">
/* Stylesheet for SVG elements
 *
 *
 * Classes for area of interest (surfaces)
 *
 * DRAWING
 */
.background {
		fill: url(#background-gradient);
}

.hole-limits {
	fill: none;
	stroke: #ccc;
	stroke-width: 1px;
	stroke-dasharray: 10,10;
}

.hole-contour {
	fill: #030;
	stroke: #fff;
	stroke-width: 2px;
}


/* GROUND
 */
.fairway {
	fill: url(#fairway-pattern);
	stroke: #0b0;
	stroke-width: 3px; /* fairway fringe... */
}

.tee {
	fill: #00c800;
	stroke: #0f0;
	stroke-width: 1px;
}

.fringe {
	fill: #0A0;
}

.green {
	fill: url(#green-gradient);
	stroke: #0f0;
	stroke-width: 1px;
}

.semi-rough,
.light-rough {
	fill: #080;
	stroke: #08800D;
	stroke-width: 1px;
}

.rough {
	fill: url(#rough-gradient);
	stroke: #07660A;
	stroke-width: 1px;
}

.heavy-rough {
	fill: #040;
	stroke: #074D08;
	stroke-width: 1px;
}

.ground {
	fill: #7f400c;
	stroke: #fdcc6a;
	stroke-width: 1px;
}


/* WATER
 */
.lateral-water {
	fill: url(#lateral-water-gradient);
	stroke: red;
	stroke-width: 4px;
}

.front-water, .water {
	fill: #37f;
	stroke: yellow;
	stroke-width: 3px;
}


/* SPECIAL
 */
.under-repair {
	fill: none;
	stroke: #00d;
	stroke-width: 2px;
}

.out-of-bound { /* line only */
	fill: none;
	stroke: white;
	stroke-width: 4px;
}

.out-of-bound-area {
	fill: #ccc;
	stroke: white;
	stroke-width: 4px;
}


/* TRAPS
 */
.trap,
.bunker {
	fill: #92cf94;
	stroke: #4c994c;
	stroke-width: 1px;
}

.grass-trap,
.grass-bunker {
	fill: #050;
	stroke: #0A0;
	stroke-width: 1px;
}

.sand-trap,
.sand-bunker,
.greenside-trap,
.greenside-bunker {
	fill: #eec;
	stroke: #040;
	stroke-width: 2px;
}

.fairway-trap,
.fairway-bunker {
	fill: #eec;
	stroke: #030;
	stroke-width: 2px;
}


/* OBSTACLES
 */
.tree {
	fill: #062;
	stroke: #0c6;
	stroke-width: 1px;
}

.trees {
	fill: #062;
	stroke: #0c6;
	stroke-width: 1px;
}

.bush {
	fill: #00b259;
	stroke: #7f400c;
	stroke-width: 1px;
}


.path {
	fill: #666;
	stroke: #bbb;
	stroke-width: 1px;
}

.building,
.construction {
	fill: #fdcc6a;
	stroke: #7f400C;
	stroke-width: 1px;
}

.obstruction {
	fill: #555;
	stroke: #999;
	stroke-width: 1px;
}


.other {
	fill: #ddd;
	stroke: #666;
	stroke-width: 1px;
}

/* Classes for point of interest (points)
 *
 */
.dogleg {
	fill: #000;
}

.aim {
	fill: #fff;
	stroke: #f00;
	stroke-width: 1px;
}

.tees {
	fill: #00f;
}

.tees-hollow {
	stroke: #fff;
	stroke-width: 0.5px;
}

.hole {
	fill: #fff;
}

.distance-marker-100,
.distance-marker-close {
	fill: #44f;
	stroke: #00f;
	stroke-width: 1px;
}

.distance-marker-150,
.distance-marker-135,
.distance-marker,
.distance-marker-mid {
	fill: #f44;
	stroke: #f00;
	stroke-width: 1px;
}

.distance-marker-200,
.distance-marker-far {
	fill: #dd4;
	stroke: #ff0;
	stroke-width: 1px;
}

.green-region-delimiter {
	fill: none;
	stroke: #fff;
	stroke-width: 0.5;
	stroke-dasharray: 4,2;
}

.neutral {
	fill: none;
	stroke: #888;
	stroke-width: 1px;
}
.one-tree {
	fill: #14920D;
	stroke: #165822;
	stroke-width: 3px;
	stroke-linecap: round;
	stroke-linejoin: round; 
}

/* Classes for special decorative objects
 *
 */
.compass-center {
	fill: #ddd;
	stroke: #fff;
	stroke-width: 1px;
}
.compass-needle {
	fill: #ddd;
	stroke: #fff;
	stroke-width: 1px;
}
.compass-north {
	fill: #fff;
}
.flag-pole {
	fill: none;
	stroke: #f00;
	stroke-width: 2px;
}
.flag-flag {
	fill: #ff0;
	stroke: #f00;
	stroke-width: 1px;
}
.flag-cup {
	fill: #fff;
}
/* Information box */
.info-background {
	fill: #ddd;
}
.info-hole {
	font-family: Georgia, "Times New Roman", Times, serif;
	font-size: xx-large;
}
.info-par {
	font-family: Georgia, "Times New Roman", Times, serif;
	font-size: x-large;
}
.info-length {
	font-family: Georgia, "Times New Roman", Times, serif;
	font-size: large;
}
/* Circle for distances */
.circle-from-green {
	fill: none;
	stroke: #fff;
	stroke-width: 1px;
	stroke-dasharray: 4,4;
}
.circle-from-tee {
	fill: none;
	stroke: #f00;
	stroke-width: 1px;
	stroke-dasharray: 8,8;
}
/* Dynamic objects */
.target {
	fill: none;
	stroke: #f00;
	stroke-width: 2px;
}
.target-filled {
	fill: #f00;
	fill-opacity: 0.5;
	stroke: #f00;
}
.ball {
	fill: #fff;
	stroke: none;
}
.trajectory {
	fill: none;
	stroke: #fff;
	stroke-width: 2px;
}
.distance {
	fill: #fff;
}
</style>
      <linearGradient xmlns:g="http://code.google.com/p/golfml"
                      xmlns:xlink="http://www.w3.org/1999/xlink"
                      xmlns:xs="http://www.w3.org/2001/XMLSchema"
                      id="background-straight">
         <stop offset="5%" stop-color="#002"/>
         <stop offset="95%" stop-color="#004"/>
      </linearGradient>
      <linearGradient xmlns:g="http://code.google.com/p/golfml"
                      xmlns:xlink="http://www.w3.org/1999/xlink"
                      xmlns:xs="http://www.w3.org/2001/XMLSchema"
                      id="background-gradient"
                      gradientTransform="rotate(30)"
                      xlink:href="#background-straight"/>
      <linearGradient xmlns:g="http://code.google.com/p/golfml"
                      xmlns:xlink="http://www.w3.org/1999/xlink"
                      xmlns:xs="http://www.w3.org/2001/XMLSchema"
                      id="lateral-water-straight">
         <stop offset="5%" stop-color="#006"/>
         <stop offset="95%" stop-color="#008"/>
      </linearGradient>
      <linearGradient xmlns:g="http://code.google.com/p/golfml"
                      xmlns:xlink="http://www.w3.org/1999/xlink"
                      xmlns:xs="http://www.w3.org/2001/XMLSchema"
                      id="lateral-water-gradient"
                      gradientTransform="rotate(60)"
                      xlink:href="#lateral-water-straight"/>
      <linearGradient xmlns:g="http://code.google.com/p/golfml"
                      xmlns:xlink="http://www.w3.org/1999/xlink"
                      xmlns:xs="http://www.w3.org/2001/XMLSchema"
                      id="rough-straight">
         <stop offset="0%" stop-color="#030"/>
         <stop offset="25%" stop-color="#060"/>
         <stop offset="50%" stop-color="#040"/>
         <stop offset="75%" stop-color="#060"/>
         <stop offset="100%" stop-color="#080"/>
      </linearGradient>
      <linearGradient xmlns:g="http://code.google.com/p/golfml"
                      xmlns:xlink="http://www.w3.org/1999/xlink"
                      xmlns:xs="http://www.w3.org/2001/XMLSchema"
                      id="rough-gradient"
                      gradientTransform="rotate(70)"
                      xlink:href="#rough-straight"/>
      <linearGradient xmlns:g="http://code.google.com/p/golfml"
                      xmlns:xlink="http://www.w3.org/1999/xlink"
                      xmlns:xs="http://www.w3.org/2001/XMLSchema"
                      id="green-straight">
         <stop offset="0%" stop-color="#0d0"/>
         <stop offset="25%" stop-color="#0e0"/>
         <stop offset="50%" stop-color="#0c0"/>
         <stop offset="75%" stop-color="#0e0"/>
         <stop offset="100%" stop-color="#0b0"/>
      </linearGradient>
      <linearGradient xmlns:g="http://code.google.com/p/golfml"
                      xmlns:xlink="http://www.w3.org/1999/xlink"
                      xmlns:xs="http://www.w3.org/2001/XMLSchema"
                      id="green-gradient"
                      gradientTransform="rotate(75)"
                      xlink:href="#green-straight"/>
      <pattern xmlns:g="http://code.google.com/p/golfml"
               xmlns:xlink="http://www.w3.org/1999/xlink"
               xmlns:xs="http://www.w3.org/2001/XMLSchema"
               id="fairway-straight"
               patternUnits="userSpaceOnUse"
               x="0"
               y="0"
               width="20"
               height="20"
               viewBox="0 0 20 20">
         <rect x="0" y="0" width="10" height="10" fill="#00c000"/>
         <rect x="10" y="10" width="10" height="10" fill="#00c800"/>
         <rect x="10" y="0" width="10" height="10" fill="#00bc00"/>
         <rect x="0" y="10" width="10" height="10" fill="#00b800"/>
      </pattern>
      <pattern xmlns:g="http://code.google.com/p/golfml"
               xmlns:xlink="http://www.w3.org/1999/xlink"
               xmlns:xs="http://www.w3.org/2001/XMLSchema"
               id="fairway-pattern"
               patternTransform="rotate(60)"
               xlink:href="#fairway-straight"/>
      <g xmlns:g="http://code.google.com/p/golfml"
         xmlns:xlink="http://www.w3.org/1999/xlink"
         xmlns:xs="http://www.w3.org/2001/XMLSchema"
         id="Tree"
         transform="translate(-76 -66) scale(0.4)">
         <path class="one-tree"
               d="M191.991,126.799c-11.163,0-21.022,4.032-27.033,10.191c-17.556,0.615-31.556,11.151-31.556,24.079       c0,7.537,4.759,14.266,12.203,18.693c0.876,12.855,18.43,23.128,39.939,23.128c22.07,0,39.979-10.812,39.979-24.136       c0-0.065-0.012-0.13-0.013-0.195c6.33-2.866,10.33-6.992,10.33-11.595c0-4.806-4.343-9.104-11.164-11.977       c0.31-1.318,0.478-2.67,0.478-4.054C225.154,137.612,210.297,126.799,191.991,126.799z"/>
      </g>
      <g xmlns:g="http://code.google.com/p/golfml"
         xmlns:xlink="http://www.w3.org/1999/xlink"
         xmlns:xs="http://www.w3.org/2001/XMLSchema"
         id="TeeSet">
         <circle cx="-5" cy="0" r="2"/>
         <circle cx="5" cy="0" r="2"/>
      </g>
      <g xmlns:g="http://code.google.com/p/golfml"
         xmlns:xlink="http://www.w3.org/1999/xlink"
         xmlns:xs="http://www.w3.org/2001/XMLSchema"
         id="DistanceMarker">
         <circle r="6"/>
      </g>
      <g xmlns:g="http://code.google.com/p/golfml"
         xmlns:xlink="http://www.w3.org/1999/xlink"
         xmlns:xs="http://www.w3.org/2001/XMLSchema"
         id="Dogleg">
         <circle r="4"/>
      </g>
      <g xmlns:g="http://code.google.com/p/golfml"
         xmlns:xlink="http://www.w3.org/1999/xlink"
         xmlns:xs="http://www.w3.org/2001/XMLSchema"
         id="Aim">
         <circle r="4"/>
      </g>
      <g xmlns:g="http://code.google.com/p/golfml"
         xmlns:xlink="http://www.w3.org/1999/xlink"
         xmlns:xs="http://www.w3.org/2001/XMLSchema"
         id="Hole">
         <circle r="2"/>
      </g>
      <g xmlns:g="http://code.google.com/p/golfml"
         xmlns:xlink="http://www.w3.org/1999/xlink"
         xmlns:xs="http://www.w3.org/2001/XMLSchema"
         id="Ball">
         <image xlink:href="../stylesheets/images/golf-ball.png" width="16" height="16"
                transform="translate(-8 -8)"/>
      </g>
      <g xmlns:g="http://code.google.com/p/golfml"
         xmlns:xlink="http://www.w3.org/1999/xlink"
         xmlns:xs="http://www.w3.org/2001/XMLSchema"
         id="Target">
         <circle class="target-filled" r="12"/>
      </g>
      <g xmlns:g="http://code.google.com/p/golfml"
         xmlns:xlink="http://www.w3.org/1999/xlink"
         xmlns:xs="http://www.w3.org/2001/XMLSchema"
         id="Flag"
         transform="translate(0 -30) scale(-0.2 0.2)">
         <line id="FlagPole" class="flag-pole" x1="0.5" y1="0" x2="0.5" y2="150"/>
         <circle id="FlagCup" class="flag-cup" r="10" cx="0" cy="145"/>
         <g id="FlagFlag">
            <path class="flag-flag"
                  d="M55.339,45.968c-18.28-14.516-36.559,14.516-54.839,0c0-12.097,0-24.193,0-36.29        c18.28,14.516,36.559-14.516,54.839,0C55.339,21.774,55.339,33.871,55.339,45.968z"/>
         </g>
      </g>
      <g xmlns:g="http://code.google.com/p/golfml"
         xmlns:xlink="http://www.w3.org/1999/xlink"
         xmlns:xs="http://www.w3.org/2001/XMLSchema"
         id="Compass">
         <polygon id="CompassNeedle" class="compass-needle" points="0,30 -8,0 0,-20 8,0"/>
         <circle id="CompassCenter" class="compass-center" r="10"/>
         <text id="CompassNorth" class="compass-north" x="-4.7" y="40">N</text>
      </g>
      <g xmlns:g="http://code.google.com/p/golfml"
         xmlns:xlink="http://www.w3.org/1999/xlink"
         xmlns:xs="http://www.w3.org/2001/XMLSchema"
         id="GolfMLLogoSmall">
         <image xlink:href="../stylesheets/images/golfml-small.png" width="80" height="15"/>
      </g>
   </defs>
   <rect class="background" x="0" y="0" width="600" height="600"/>
   <g transform="translate(300,300) scale(-0.9054755725044475,0.9054755725044475) rotate(154.88741103190753)">
      <path class="hole-contour"
            d="M139.56299681486075,-292.4129896808278Q139.56299681486075,-292.4129896808278 138.6474970295689,-269.496030015684 L138.189747136923,-258.03755018311216Q137.27424735163115,-235.12059051796837 135.90073892725877,-206.70373569189496 L135.21398471507257,-192.49530827885826Q133.8404762907002,-164.07845345278486 131.0924219056791,-128.32840302854777 L129.71839471316852,-110.45337781642925Q126.97034032814742,-74.70332739219216 127.88845467698114,-49.03686339012749 L128.347511851398,-36.20363138909515Q129.26562620023174,-10.537167387030474 51.81637767915558,89.3838467921704 L13.0917534186175,139.34435388177084Q-64.35749510245866,239.26536806097172 -77.64647856671712,263.5582238940361 L-84.29097029884633,275.70465181056824Q-97.5799537631048,299.99750764363256 -114.37317097615153,285.91578501995804 L-122.76977958267489,278.87492370812083Q-139.5629967957216,264.7932010844463 -110.11622164223215,216.59597364582908 L-95.39283406548742,192.4973599265205Q-65.94605891199797,144.30013248790326 -27.46248297701524,92.75639654399112 L-8.220695009523887,66.98452857203503Q30.262880925458838,15.440792628122887 43.31318846103007,-16.354572306747762 L49.83834222881569,-32.25225477418307Q62.888649764386926,-64.04761970905372 86.64580412519972,-158.4294635503457 L98.52438130560611,-205.62038547099166Q122.2815356664189,-300.00222931228365 129.19412012579565,-296.96653345970134 L132.650412355484,-295.4486855334101Q139.56299681486075,-292.4129896808278 139.56299681486075,-292.4129896808278 Z"/>
      <clipPath id="HoleContour" transform="scale(1.2)">
         <path class="hole-contour"
               d="M139.56299681486075,-292.4129896808278Q139.56299681486075,-292.4129896808278 138.6474970295689,-269.496030015684 L138.189747136923,-258.03755018311216Q137.27424735163115,-235.12059051796837 135.90073892725877,-206.70373569189496 L135.21398471507257,-192.49530827885826Q133.8404762907002,-164.07845345278486 131.0924219056791,-128.32840302854777 L129.71839471316852,-110.45337781642925Q126.97034032814742,-74.70332739219216 127.88845467698114,-49.03686339012749 L128.347511851398,-36.20363138909515Q129.26562620023174,-10.537167387030474 51.81637767915558,89.3838467921704 L13.0917534186175,139.34435388177084Q-64.35749510245866,239.26536806097172 -77.64647856671712,263.5582238940361 L-84.29097029884633,275.70465181056824Q-97.5799537631048,299.99750764363256 -114.37317097615153,285.91578501995804 L-122.76977958267489,278.87492370812083Q-139.5629967957216,264.7932010844463 -110.11622164223215,216.59597364582908 L-95.39283406548742,192.4973599265205Q-65.94605891199797,144.30013248790326 -27.46248297701524,92.75639654399112 L-8.220695009523887,66.98452857203503Q30.262880925458838,15.440792628122887 43.31318846103007,-16.354572306747762 L49.83834222881569,-32.25225477418307Q62.888649764386926,-64.04761970905372 86.64580412519972,-158.4294635503457 L98.52438130560611,-205.62038547099166Q122.2815356664189,-300.00222931228365 129.19412012579565,-296.96653345970134 L132.650412355484,-295.4486855334101Q139.56299681486075,-292.4129896808278 139.56299681486075,-292.4129896808278 Z"/>
      </clipPath>
      <path class="tee"
            d="M127.2997652772922,-290.9176472868464Q127.2997652772922,-290.9176472868464 130.23050732963398,-290.55143937813784 L131.69587835580487,-290.36833542378355Q134.62662040814664,-290.002127515075 132.42930897006954,-276.9973270682098 L131.33065325103098,-270.49492684477724Q129.1333418129539,-257.49012639791204 126.56896480139855,-257.6731784864224 L125.2867762956209,-257.76470453067753Q122.72239928406556,-257.9477566191879 124.55334568135622,-271.13571288625127 L125.46881888000154,-277.729691019783Q127.2997652772922,-290.9176472868464 127.2997652772922,-290.9176472868464 Z"/>
      <path class="tee"
            d="M130.5089443712547,-224.52061419531492Q130.5089443712547,-224.52061419531492 130.50917809180373,-220.30784384939113 L130.50929495207825,-218.2014586764292Q130.50952867262728,-213.98868833050543 128.12835875827952,-213.8054210255419 L126.93777380110565,-213.71378737306011Q124.55660388675788,-213.5305200680966 124.37319854395523,-217.74328237859336 L124.2814958725539,-219.84966353384172Q124.09809052975125,-224.0624258443385 126.66243206635262,-224.24570118472906 L127.94460283465332,-224.33733885492435Q130.5089443712547,-224.52061419531492 130.5089443712547,-224.52061419531492 Z"/>
      <path class="tee"
            d="M126.38979543804095,-186.5139576154583Q126.38979543804095,-186.5139576154583 123.82542698528343,-187.06333336273065 L122.54324275890468,-187.33802123636679Q119.97887430614716,-187.88739698363912 120.89448092641543,-191.91703780539058 L121.35228423654955,-193.9318582162663Q122.26789085681781,-197.96149903801776 124.64906499358305,-197.96160404683542 L125.83965206196568,-197.96165655124423Q128.22082619873092,-197.9617615600619 127.48841389445494,-193.38263998222047 L127.12220774231693,-191.09307919329973Q126.38979543804095,-186.5139576154583 126.38979543804095,-186.5139576154583 Z"/>
      <path class="fairway"
            d="M-55.41173709767198,162.57388443145263Q-55.41173709767198,162.57388443145263 -50.52312706750592,154.11885526989772 L-48.078822052422886,149.89134068912026Q-43.19021202225682,141.43631152756535 -39.421684796593006,137.36148343861612 L-37.537421183761104,135.32406939414153Q-33.76889395809729,131.2492413051923 -22.25647023410216,119.13564482466765 L-16.500258372104604,113.07884658440531Q-4.987834648109478,100.96525010388066 -0.4046241401375372,92.91768683856311 L1.8869811138484343,88.89390520590433Q6.470191621820375,80.84634194058678 11.868193424353837,71.06706764427418 L14.56719432562057,66.17743049611786Q19.96519612815403,56.39815619980525 33.00249160863247,39.89542673959616 L39.521139348871685,31.64406200949162Q52.55843482935012,15.141332549282529 60.40091288501489,-0.10835925318789386 L64.32215191284727,-7.733205154423107Q72.16462996851205,-22.98289695689353 75.42363166595199,-33.06759609789283 L77.05313251467194,-38.109945668392484Q80.31213421211189,-48.19464480939179 81.02455846680357,-58.075479038530176 L81.3807705941494,-63.015896153099376Q82.09319484884108,-72.89673038223776 84.43561971808005,-80.33292982430764 L85.60683215269952,-84.05102954534259Q87.9492570219385,-91.48722898741246 89.57856618042626,-100.14577149359081 L90.39322075967014,-104.47504274667997Q92.02252991815791,-113.13358525285832 93.2442606829652,-123.931284399758 L93.85512606536885,-129.33013397320784Q95.07685683017614,-140.1278331201075 96.50270623110693,-144.7118228378162 L97.2156309315723,-147.00381769667052Q98.6414803325031,-151.5878074143792 102.9197662968457,-153.21786482991664 L105.058909279017,-154.03289353768534Q109.3371952433596,-155.66295095322278 112.90264618870592,-153.32023131435352 L114.68537166137907,-152.14887149491886Q118.25082260672538,-149.8061518560496 120.3901185276723,-147.87082064057387 L121.45976648814576,-146.90315503283603Q123.59906240909268,-144.96782381736028 124.00677868618321,-140.38392984786742 L124.21063682472847,-138.091982863121Q124.618353101819,-133.50808889362813 122.37845940708458,-124.55855185939838 L121.25851255971737,-120.08378334228351Q119.01861886498295,-111.13424630805376 119.22299034770032,-100.84091515000291 L119.325176089059,-95.69424957097749Q119.52954757177636,-85.40091841292664 117.08406255979958,-76.73812040042728 L115.8613200538112,-72.40672139417758Q113.41583504183441,-63.743923381678215 110.76674200018539,-51.81992098123908 L109.44219547936088,-45.85791978101951Q106.79310243771185,-33.933917380580375 100.78076691448469,-24.455691686727718 L97.7745991528711,-19.716578839801393Q91.76226362964394,-10.238353145948738 86.55617069111308,1.4656190626136052 L83.95312422184766,7.3176051668947775Q78.7470312833168,19.02157737545712 71.7157862419557,30.538162051221516 L68.20016372127515,36.296454389103715Q61.16891867991405,47.81303906486811 54.54554154676124,61.16399195712902 L51.233852980184835,67.83946840325947Q44.61047584703203,81.1904212955204 36.15280999452403,94.74530551968637 L31.923977068270027,101.52274763176936Q23.46631121576203,115.07763185593534 16.434963870362267,121.70241922143029 L12.919290197662384,125.01481290417776Q5.887942852262621,131.6396002696727 -1.4134255770139568,139.01324650816233 L-5.0641097916522435,142.70006962740715Q-12.365478220928821,150.07371586589676 -19.49853526403527,158.53300528541257 L-23.065063785588492,162.76264999517048Q-30.198120828694943,171.2219394146863 -36.41367925895056,182.636580780328 L-39.521458474078365,188.34390146314885Q-45.737016904333984,199.75854282879055 -50.22049982090648,205.97553986824164 L-52.46224127919274,209.08403838796715Q-56.94572419576524,215.30103542741824 -62.34636330580234,221.51812400092203 L-65.0466828608209,224.62666828767394Q-70.447321970858,230.84375686117772 -75.84791576518886,237.26468143699844 L-78.54821266235427,240.47514372490878Q-83.94880645668513,246.8960683007295 -86.59820902603903,249.34219845887594 L-87.92291031071599,250.5652635379492Q-90.57231288006989,253.01139369609564 -91.79498343505573,255.5592946457763 L-92.40631871254864,256.83324512061665Q-93.62898926753448,259.3811460702973 -93.52675475918333,262.9480250755808 L-93.47563750500777,264.7314645782225Q-93.37340299665662,268.29834358350604 -95.10570483773154,269.8271856293262 L-95.971855758269,270.59160665223624Q-97.70415759934392,272.1204486980564 -101.4747383908365,272.42657298310274 L-103.36002878658279,272.5796351256259Q-107.13060957807538,272.8857594106722 -109.88217343025852,272.47840797291735 L-111.25795535635008,272.27473225404Q-114.00951920853322,271.8673808162851 -116.36987502031384,270.2720526297843 L-117.55005292620416,269.4743885365339Q-119.91040873798478,267.8790603500331 -121.08070555400342,265.92930165569317 L-121.66585396201272,264.9544223085232Q-122.83615077803135,263.00466361418324 -122.97473789261538,260.9450352341937 L-123.04403144990738,259.915221044199Q-123.1826185644914,257.85559266420944 -121.55240887978559,254.39043524660352 L-120.7373040374327,252.65785653780057Q-119.10709435272688,249.19269912019465 -116.96736810628593,245.42175650247125 L-115.89750498306545,243.5362851936096Q-113.7577787366245,239.7653425758862 -110.59895749169004,235.99429543519895 L-109.01954686922282,234.1087718648553Q-105.86072562428836,230.33772472416805 -100.7656127034031,226.66839801486955 L-98.21805624296044,224.83373466022033Q-93.12294332207517,221.16440795092183 -87.11077171422126,215.96633782162777 L-84.10468591029431,213.36730275698073Q-78.09251430244039,208.16923262768668 -76.97192852805763,203.48120020813863 L-76.41163564086627,201.13718399836463Q-75.2910498664835,196.44915157881658 -73.45719930994437,190.53810637437735 L-72.5402740316748,187.58258377215776Q-70.70642347513567,181.67153856771853 -67.85325945898782,178.10436186022932 L-66.42667745091391,176.32077350648473Q-63.57351343476607,172.75359679899552 -60.30880289992844,168.68171185197835 L-58.676447632509614,166.6457693784698Q-55.41173709767198,162.57388443145263 -55.41173709767198,162.57388443145263 Z"/>
      <path class="other"
            d="M-80.65848387107906,252.5219194545919Q-80.65848387107906,252.5219194545919 -78.88700724035574,253.05306023659534 L-78.0012689249941,253.3186306275971Q-76.22979229427078,253.84977140960052 -75.07834745279567,254.55822021545742 L-74.5026250320581,254.91244461838588Q-73.351180190583,255.62089342424278 -73.17395355172302,256.683717290687 L-73.08534023229302,257.2151292239091Q-72.90811359343304,258.2779530903534 -73.97086310422675,258.9866142655969 L-74.50223785962362,259.34094485321873Q-75.56498737041733,260.0496060284623 -76.71636899080563,260.0497185646105 L-77.2920598009998,260.0497748326846Q-78.4434414213881,260.0498873688328 -79.41777157094269,259.07571455362836 L-79.90493664572,258.5886281460261Q-80.87926679527459,257.61445533082167 -81.67640848482245,257.26025393199836 L-82.07497932959639,257.08315323258677Q-82.87212101914425,256.72895183376346 -83.93496478956703,256.3747772810581 L-84.46638667477843,256.19769000470535Q-85.52923044520122,255.843515452 -86.06058047082446,256.46355963938225 L-86.32625548363609,256.7735817330734Q-86.85760550925933,257.39362592045563 -86.50326352966708,258.1907202623568 L-86.32609253987096,258.58926743330744Q-85.9717505602787,259.3863617752086 -85.61737711659288,260.53773474244724 L-85.44019039474995,261.1134212260666Q-85.08581695106412,262.2647941933052 -85.43999198729945,263.3276679854981 L-85.61707950541711,263.85910488159453Q-85.97125454165244,264.92197867378746 -87.38835177586965,264.7449806905347 L-88.09690039297826,264.65648169890835Q-89.51399762719547,264.4794837156556 -90.48836955052289,263.0624635730164 L-90.97555551218662,262.35395350169676Q-91.94992743551404,260.93693335905755 -91.41872175462306,258.72263180006854 L-91.15311891417757,257.61548102057407Q-90.62191323328659,255.40117946158506 -88.6736525302568,252.8324507366407 L-87.69952217874192,251.54808637416855Q-85.75126147571213,248.9793576492242 -83.7141504338589,250.3963823713713 L-82.69559491293228,251.10489473244482Q-80.65848387107906,252.5219194545919 -80.65848387107906,252.5219194545919 Z"/>
      <path class="trap"
            d="M-83.67020996953063,196.8962563015426Q-83.67020996953063,196.8962563015426 -84.17425146345103,197.5684577385541 L-84.42627221041123,197.90455845705984Q-84.93031370433162,198.57675989407133 -84.93020128806484,199.8370410538105 L-84.93014507993144,200.4671816336801Q-84.93003266366465,201.72746279341928 -85.35000458248378,202.98778515993183 L-85.55999054189334,203.6179463431881Q-85.97996246071247,204.87826870970065 -86.90409533260649,205.46649330382948 L-87.36616176855351,205.76060560089388Q-88.29029464044753,206.3488301950227 -89.46655303987005,206.0968918042416 L-90.05468223958133,205.97092260885105Q-91.23094063900385,205.71898421806995 -91.90315986951394,204.79484740233832 L-92.23926948476898,204.3327789944725Q-92.91148871527908,203.40864217874088 -93.91965999572315,203.74481759664064 L-94.4237456359452,203.9129053055905Q-95.43191691638927,204.24908072349027 -96.35617962868017,203.40898841179532 L-96.81831098482562,202.98894225594785Q-97.74257369711651,202.1488499442529 -97.81912332513141,200.95329073589218 L-97.85739813913888,200.3555111317118Q-97.93394776715378,199.1599519233511 -97.04835154553362,198.18558694675764 L-96.60555343472353,197.69840445846094Q-95.71995721310337,196.7240394818675 -94.47999732531925,196.7239132682801 L-93.8600173814272,196.7238501614864Q-92.62005749364307,196.72372394789903 -91.73439564695029,196.45792191976537 L-91.29156472360388,196.32502090569855Q-90.4059028769111,196.0592188775649 -89.60884932502704,195.35057365532225 L-89.210322549085,194.99625104420096Q-88.41326899720094,194.28760582195832 -87.26191562795192,193.84463782451604 L-86.6862389433274,193.62315382579487Q-85.53488557407837,193.1801858283526 -84.78901533225928,194.6666140176286 L-84.41608021134972,195.40982811226658Q-83.67020996953063,196.8962563015426 -83.67020996953063,196.8962563015426 Z"/>
      <path class="fringe"
            d="M-90.59868461990297,229.2441111699628Q-90.59868461990297,229.2441111699628 -88.58216866371544,230.58820348881497 L-87.57391068562168,231.26024964824106Q-85.55739472943415,232.60434196709323 -84.54906193965597,234.11657235512374 L-84.04489554476687,234.87268754913896Q-83.0365627549887,236.38491793716946 -83.8765000604235,238.90554953836568 L-84.29646871314091,240.1658653389638Q-85.13640601857571,242.68649694016003 -86.90050392800714,245.37525635614847 L-87.78255288272284,246.71963606414266Q-89.54665079215427,249.4083954801311 -90.55469851709746,251.00484154775882 L-91.05872237956908,251.80306458157267Q-92.06677010451227,253.39951064920038 -93.49483548518333,255.66814468754015 L-94.20886817551887,256.80246170671Q-95.63693355618993,259.0710957450498 -96.39294558986954,260.4994802650523 L-96.77095160670933,261.2136725250536Q-97.52696364038894,262.6420570450561 -97.27480723147907,263.8182841417061 L-97.14872902702415,264.4063976900311Q-96.89657261811428,265.5826247866811 -97.65262273254135,266.59091863147626 L-98.0306477897549,267.0950655538739Q-98.78669790418196,268.10335939866906 -100.71899971942464,268.7757023959061 L-101.68515062704597,269.11187389452465Q-103.61745244228865,269.7842168917617 -105.80188017401878,269.6164083887954 L-106.89409403988385,269.53250413731223Q-109.07852177161398,269.36469563434594 -111.34700519023959,268.776808902793 L-112.48124689955239,268.48286553701655Q-114.749730318178,267.8949788054636 -115.67402515264342,266.6348066069384 L-116.13617256987615,266.00472050767576Q-117.06046740434158,264.74454830915056 -117.48072394127183,262.8961955748182 L-117.69085220973697,261.97201920765195Q-118.11110874666723,260.1236664733196 -117.85919752087452,258.6953316958124 L-117.73324190797817,257.9811643070588Q-117.48133068218546,256.5528295295516 -115.63324942322696,253.6960163729623 L-114.7092087937477,252.26760979466766Q-112.8611275347892,249.41079663807835 -112.52519830518246,247.98245180288365 L-112.35723369037908,247.26827938528626Q-112.02130446077233,245.83993455009156 -111.51739800051351,243.82344326454486 L-111.26544477038411,242.81519762177152Q-110.76153831012529,240.79870633622483 -108.40934234804119,238.02585704157454 L-107.23324436699913,236.63943239424938Q-104.88104840491503,233.8665830995991 -102.44473670983506,232.1019462766248 L-101.22658086229507,231.21962786513768Q-98.79026916721509,229.45499104216339 -96.94199911043805,228.4465808046001 L-96.01786408204954,227.94237568581843Q-94.1695940252725,226.93396544825515 -92.74123026312469,227.8580237369382 L-92.02704838205078,228.32005288127974Q-90.59868461990297,229.2441111699628 -90.59868461990297,229.2441111699628 Z"/>
      <path class="green"
            d="M-93.53741783881381,249.40879698714346Q-93.53741783881381,249.40879698714346 -94.46136394211754,251.92943517234707 L-94.92333699376941,253.18975426494887Q-95.84728309707315,255.71039245015248 -97.10736017319788,257.4749010673232 L-97.73739871126023,258.35715537590846Q-98.99747578738496,260.12166399307915 -99.0814141588039,260.96185359039254 L-99.12338334451336,261.3819483890493Q-99.2073217159323,262.22213798636267 -100.13142659642494,262.9783955819256 L-100.59347903667125,263.356524379707Q-101.5175839171639,264.11278197526997 -102.6937834761051,264.3649576281811 L-103.28188325557569,264.4910454546367Q-104.45808281451689,264.74322110754787 -106.22244822961285,264.4073328434988 L-107.10463093716082,264.2393887114743Q-108.86899635225679,263.90350044742524 -110.12929078427307,263.3155066826363 L-110.75943800028121,263.02150980024186Q-112.01973243229749,262.4335160354529 -112.94399563775202,261.50941484905275 L-113.40612724047931,261.04736425585264Q-114.33039044593384,260.1232630694525 -114.16251826363658,258.4428834663234 L-114.07858217248794,257.6026936647589Q-113.91070999019068,255.9223140616298 -112.06261093135511,253.23353827052696 L-111.13856140193731,251.88915037497554Q-109.29046234310174,249.2003745838727 -107.5263906621301,246.34357103380913 L-106.64435482164427,244.91516925877733Q-104.88028314067263,242.05836570871375 -104.12429358559886,240.37792169086998 L-103.74629880806198,239.5376996819481Q-102.99030925298821,237.85725566410434 -101.98219882397541,236.9329500971013 L-101.47814360946902,236.47079731359977Q-100.47003318045621,235.54649174659673 -99.29381997015257,235.37833432958277 L-98.70571336500073,235.2942556210758Q-97.52950015469709,235.12609820406183 -96.18523053259774,235.20998032222522 L-95.51309572154805,235.2519213813069Q-94.16882609944871,235.33580349947027 -93.16057672071152,235.92382968798498 L-92.65645203134291,236.21784278224234Q-91.64820265260572,236.80586897075705 -90.8079630065974,237.64596704065735 L-90.38784318359323,238.06601607560754Q-89.54760353758492,238.90611414550784 -89.37941069202242,240.6704818367021 L-89.29531426924117,241.55266568229925Q-89.12712142367867,243.3170333734935 -90.89123998973272,245.75373881895348 L-91.77329927275976,246.97209154168348Q-93.53741783881381,249.40879698714346 -93.53741783881381,249.40879698714346 Z"/>
      <use xmlns:xlink="http://www.w3.org/1999/xlink" xlink:href="#Dogleg"
           x="-13.35075278925812"
           y="86.43072550417793 "/>
      <use xmlns:xlink="http://www.w3.org/1999/xlink" xlink:href="#Tree"
           x="-30.79871153966724"
           y="112.60750474198385 "/>
      <use xmlns:xlink="http://www.w3.org/1999/xlink" xlink:href="#Dogleg"
           x="74.68181676780557"
           y="-1.4616282894942187 "/>
      <use xmlns:xlink="http://www.w3.org/1999/xlink" xlink:href="#TeeSet"
           x="127.30274735245924"
           y="-238.71570739283393"
           class="tees"
           transform="rotate(-154.88741103190753 127.30274735245924 -238.71570739283393)"/>
      <use xmlns:xlink="http://www.w3.org/1999/xlink" xlink:href="#Flag"
           x="-101.7287559334108"
           y="249.9346734900634"
           transform="rotate(-154.88741103190753 -101.7287559334108 249.9346734900634)"/>
      <g clip-path="url(#HoleContour)">
         <circle cx="127.30274735245924" cy="-238.71570739283393" r="117.41613398907025"
                 class="circle-from-tee"/>
         <circle cx="127.30274735245924" cy="-238.71570739283393" r="176.12420098360536"
                 class="circle-from-tee"/>
         <circle cx="127.30274735245924" cy="-238.71570739283393" r="234.8322679781405"
                 class="circle-from-tee"/>
         <circle cx="-101.7287559334108" cy="249.9346734900634" r="117.41613398907025"
                 class="circle-from-green"/>
         <circle cx="-101.7287559334108" cy="249.9346734900634" r="176.12420098360536"
                 class="circle-from-green"/>
         <circle cx="-101.7287559334108" cy="249.9346734900634" r="234.8322679781405"
                 class="circle-from-green"/>
      </g>
   </g>
   <rect x="470" y="400" rx="4" ry="4" width="110" height="180" class="info-background"/>
   <text x="525" y="420" class="info-hole" text-anchor="middle">
					Hole 17</text>
   <text x="525" y="440" class="info-par" text-anchor="middle">
					Par 5</text>
   <circle cx="485.625" cy="457.1875" r="5.625" style="fill:blue"/>
   <text x="496.875" y="460" class="info-length">497 meters</text>
   <use xmlns:xlink="http://www.w3.org/1999/xlink" xlink:href="#Compass" x="550" y="50"
        transform="rotate(154.88741103190753 550 50)"/>
   <use xmlns:xlink="http://www.w3.org/1999/xlink" xlink:href="#GolfMLLogoSmall" x="10"
        y="575"/>
</svg>