<?xml version="1.0" encoding="UTF-8"?>
<svg xmlns="http://www.w3.org/2000/svg" width="600" height="600">
   <defs>
      <style xmlns:g="http://code.google.com/p/golfml"
             xmlns:xlink="http://www.w3.org/1999/xlink"
             xmlns:xs="http://www.w3.org/2001/XMLSchema"
             type="text/css">
/* Stylesheet for SVG elements
 *
 *
 * Classes for area of interest (surfaces)
 *
 * DRAWING
 */
.background {
		fill: url(#background-gradient);
}

.hole-limits {
	fill: none;
	stroke: #ccc;
	stroke-width: 1px;
	stroke-dasharray: 10,10;
}

.hole-contour {
	fill: #030;
	stroke: #fff;
	stroke-width: 2px;
}


/* GROUND
 */
.fairway {
	fill: url(#fairway-pattern);
	stroke: #0b0;
	stroke-width: 3px; /* fairway fringe... */
}

.tee {
	fill: #00c800;
	stroke: #0f0;
	stroke-width: 1px;
}

.fringe {
	fill: #0A0;
}

.green {
	fill: url(#green-gradient);
	stroke: #0f0;
	stroke-width: 1px;
}

.semi-rough,
.light-rough {
	fill: #080;
	stroke: #08800D;
	stroke-width: 1px;
}

.rough {
	fill: url(#rough-gradient);
	stroke: #07660A;
	stroke-width: 1px;
}

.heavy-rough {
	fill: #040;
	stroke: #074D08;
	stroke-width: 1px;
}

.ground {
	fill: #7f400c;
	stroke: #fdcc6a;
	stroke-width: 1px;
}


/* WATER
 */
.lateral-water {
	fill: url(#lateral-water-gradient);
	stroke: red;
	stroke-width: 4px;
}

.front-water, .water {
	fill: #37f;
	stroke: yellow;
	stroke-width: 3px;
}


/* SPECIAL
 */
.under-repair {
	fill: none;
	stroke: #00d;
	stroke-width: 2px;
}

.out-of-bound { /* line only */
	fill: none;
	stroke: white;
	stroke-width: 4px;
}

.out-of-bound-area {
	fill: #ccc;
	stroke: white;
	stroke-width: 4px;
}


/* TRAPS
 */
.trap,
.bunker {
	fill: #92cf94;
	stroke: #4c994c;
	stroke-width: 1px;
}

.grass-trap,
.grass-bunker {
	fill: #050;
	stroke: #0A0;
	stroke-width: 1px;
}

.sand-trap,
.sand-bunker,
.greenside-trap,
.greenside-bunker {
	fill: #eec;
	stroke: #040;
	stroke-width: 2px;
}

.fairway-trap,
.fairway-bunker {
	fill: #eec;
	stroke: #030;
	stroke-width: 2px;
}


/* OBSTACLES
 */
.tree {
	fill: #062;
	stroke: #0c6;
	stroke-width: 1px;
}

.trees {
	fill: #062;
	stroke: #0c6;
	stroke-width: 1px;
}

.bush {
	fill: #00b259;
	stroke: #7f400c;
	stroke-width: 1px;
}


.path {
	fill: #666;
	stroke: #bbb;
	stroke-width: 1px;
}

.building,
.construction {
	fill: #fdcc6a;
	stroke: #7f400C;
	stroke-width: 1px;
}

.obstruction {
	fill: #555;
	stroke: #999;
	stroke-width: 1px;
}


.other {
	fill: #ddd;
	stroke: #666;
	stroke-width: 1px;
}

/* Classes for point of interest (points)
 *
 */
.dogleg {
	fill: #000;
}

.aim {
	fill: #fff;
	stroke: #f00;
	stroke-width: 1px;
}

.tees {
	fill: #00f;
}

.tees-hollow {
	stroke: #fff;
	stroke-width: 0.5px;
}

.hole {
	fill: #fff;
}

.distance-marker-100,
.distance-marker-close {
	fill: #44f;
	stroke: #00f;
	stroke-width: 1px;
}

.distance-marker-150,
.distance-marker-135,
.distance-marker,
.distance-marker-mid {
	fill: #f44;
	stroke: #f00;
	stroke-width: 1px;
}

.distance-marker-200,
.distance-marker-far {
	fill: #dd4;
	stroke: #ff0;
	stroke-width: 1px;
}

.green-region-delimiter {
	fill: none;
	stroke: #fff;
	stroke-width: 0.5;
	stroke-dasharray: 4,2;
}

.neutral {
	fill: none;
	stroke: #888;
	stroke-width: 1px;
}
.one-tree {
	fill: #14920D;
	stroke: #165822;
	stroke-width: 3px;
	stroke-linecap: round;
	stroke-linejoin: round; 
}

/* Classes for special decorative objects
 *
 */
.compass-center {
	fill: #ddd;
	stroke: #fff;
	stroke-width: 1px;
}
.compass-needle {
	fill: #ddd;
	stroke: #fff;
	stroke-width: 1px;
}
.compass-north {
	fill: #fff;
}
.flag-pole {
	fill: none;
	stroke: #f00;
	stroke-width: 2px;
}
.flag-flag {
	fill: #ff0;
	stroke: #f00;
	stroke-width: 1px;
}
.flag-cup {
	fill: #fff;
}
/* Information box */
.info-background {
	fill: #ddd;
}
.info-hole {
	font-family: Georgia, "Times New Roman", Times, serif;
	font-size: xx-large;
}
.info-par {
	font-family: Georgia, "Times New Roman", Times, serif;
	font-size: x-large;
}
.info-length {
	font-family: Georgia, "Times New Roman", Times, serif;
	font-size: large;
}
/* Circle for distances */
.circle-from-green {
	fill: none;
	stroke: #fff;
	stroke-width: 1px;
	stroke-dasharray: 4,4;
}
.circle-from-tee {
	fill: none;
	stroke: #f00;
	stroke-width: 1px;
	stroke-dasharray: 8,8;
}
/* Dynamic objects */
.target {
	fill: none;
	stroke: #f00;
	stroke-width: 2px;
}
.target-filled {
	fill: #f00;
	fill-opacity: 0.5;
	stroke: #f00;
}
.ball {
	fill: #fff;
	stroke: none;
}
.trajectory {
	fill: none;
	stroke: #fff;
	stroke-width: 2px;
}
.distance {
	fill: #fff;
}
</style>
      <linearGradient xmlns:g="http://code.google.com/p/golfml"
                      xmlns:xlink="http://www.w3.org/1999/xlink"
                      xmlns:xs="http://www.w3.org/2001/XMLSchema"
                      id="background-straight">
         <stop offset="5%" stop-color="#002"/>
         <stop offset="95%" stop-color="#004"/>
      </linearGradient>
      <linearGradient xmlns:g="http://code.google.com/p/golfml"
                      xmlns:xlink="http://www.w3.org/1999/xlink"
                      xmlns:xs="http://www.w3.org/2001/XMLSchema"
                      id="background-gradient"
                      gradientTransform="rotate(30)"
                      xlink:href="#background-straight"/>
      <linearGradient xmlns:g="http://code.google.com/p/golfml"
                      xmlns:xlink="http://www.w3.org/1999/xlink"
                      xmlns:xs="http://www.w3.org/2001/XMLSchema"
                      id="lateral-water-straight">
         <stop offset="5%" stop-color="#006"/>
         <stop offset="95%" stop-color="#008"/>
      </linearGradient>
      <linearGradient xmlns:g="http://code.google.com/p/golfml"
                      xmlns:xlink="http://www.w3.org/1999/xlink"
                      xmlns:xs="http://www.w3.org/2001/XMLSchema"
                      id="lateral-water-gradient"
                      gradientTransform="rotate(60)"
                      xlink:href="#lateral-water-straight"/>
      <linearGradient xmlns:g="http://code.google.com/p/golfml"
                      xmlns:xlink="http://www.w3.org/1999/xlink"
                      xmlns:xs="http://www.w3.org/2001/XMLSchema"
                      id="rough-straight">
         <stop offset="0%" stop-color="#030"/>
         <stop offset="25%" stop-color="#060"/>
         <stop offset="50%" stop-color="#040"/>
         <stop offset="75%" stop-color="#060"/>
         <stop offset="100%" stop-color="#080"/>
      </linearGradient>
      <linearGradient xmlns:g="http://code.google.com/p/golfml"
                      xmlns:xlink="http://www.w3.org/1999/xlink"
                      xmlns:xs="http://www.w3.org/2001/XMLSchema"
                      id="rough-gradient"
                      gradientTransform="rotate(70)"
                      xlink:href="#rough-straight"/>
      <linearGradient xmlns:g="http://code.google.com/p/golfml"
                      xmlns:xlink="http://www.w3.org/1999/xlink"
                      xmlns:xs="http://www.w3.org/2001/XMLSchema"
                      id="green-straight">
         <stop offset="0%" stop-color="#0d0"/>
         <stop offset="25%" stop-color="#0e0"/>
         <stop offset="50%" stop-color="#0c0"/>
         <stop offset="75%" stop-color="#0e0"/>
         <stop offset="100%" stop-color="#0b0"/>
      </linearGradient>
      <linearGradient xmlns:g="http://code.google.com/p/golfml"
                      xmlns:xlink="http://www.w3.org/1999/xlink"
                      xmlns:xs="http://www.w3.org/2001/XMLSchema"
                      id="green-gradient"
                      gradientTransform="rotate(75)"
                      xlink:href="#green-straight"/>
      <pattern xmlns:g="http://code.google.com/p/golfml"
               xmlns:xlink="http://www.w3.org/1999/xlink"
               xmlns:xs="http://www.w3.org/2001/XMLSchema"
               id="fairway-straight"
               patternUnits="userSpaceOnUse"
               x="0"
               y="0"
               width="20"
               height="20"
               viewBox="0 0 20 20">
         <rect x="0" y="0" width="10" height="10" fill="#00c000"/>
         <rect x="10" y="10" width="10" height="10" fill="#00c800"/>
         <rect x="10" y="0" width="10" height="10" fill="#00bc00"/>
         <rect x="0" y="10" width="10" height="10" fill="#00b800"/>
      </pattern>
      <pattern xmlns:g="http://code.google.com/p/golfml"
               xmlns:xlink="http://www.w3.org/1999/xlink"
               xmlns:xs="http://www.w3.org/2001/XMLSchema"
               id="fairway-pattern"
               patternTransform="rotate(60)"
               xlink:href="#fairway-straight"/>
      <g xmlns:g="http://code.google.com/p/golfml"
         xmlns:xlink="http://www.w3.org/1999/xlink"
         xmlns:xs="http://www.w3.org/2001/XMLSchema"
         id="Tree"
         transform="translate(-76 -66) scale(0.4)">
         <path class="one-tree"
               d="M191.991,126.799c-11.163,0-21.022,4.032-27.033,10.191c-17.556,0.615-31.556,11.151-31.556,24.079       c0,7.537,4.759,14.266,12.203,18.693c0.876,12.855,18.43,23.128,39.939,23.128c22.07,0,39.979-10.812,39.979-24.136       c0-0.065-0.012-0.13-0.013-0.195c6.33-2.866,10.33-6.992,10.33-11.595c0-4.806-4.343-9.104-11.164-11.977       c0.31-1.318,0.478-2.67,0.478-4.054C225.154,137.612,210.297,126.799,191.991,126.799z"/>
      </g>
      <g xmlns:g="http://code.google.com/p/golfml"
         xmlns:xlink="http://www.w3.org/1999/xlink"
         xmlns:xs="http://www.w3.org/2001/XMLSchema"
         id="TeeSet">
         <circle cx="-5" cy="0" r="2"/>
         <circle cx="5" cy="0" r="2"/>
      </g>
      <g xmlns:g="http://code.google.com/p/golfml"
         xmlns:xlink="http://www.w3.org/1999/xlink"
         xmlns:xs="http://www.w3.org/2001/XMLSchema"
         id="DistanceMarker">
         <circle r="6"/>
      </g>
      <g xmlns:g="http://code.google.com/p/golfml"
         xmlns:xlink="http://www.w3.org/1999/xlink"
         xmlns:xs="http://www.w3.org/2001/XMLSchema"
         id="Dogleg">
         <circle r="4"/>
      </g>
      <g xmlns:g="http://code.google.com/p/golfml"
         xmlns:xlink="http://www.w3.org/1999/xlink"
         xmlns:xs="http://www.w3.org/2001/XMLSchema"
         id="Aim">
         <circle r="4"/>
      </g>
      <g xmlns:g="http://code.google.com/p/golfml"
         xmlns:xlink="http://www.w3.org/1999/xlink"
         xmlns:xs="http://www.w3.org/2001/XMLSchema"
         id="Hole">
         <circle r="2"/>
      </g>
      <g xmlns:g="http://code.google.com/p/golfml"
         xmlns:xlink="http://www.w3.org/1999/xlink"
         xmlns:xs="http://www.w3.org/2001/XMLSchema"
         id="Ball">
         <image xlink:href="../stylesheets/images/golf-ball.png" width="16" height="16"
                transform="translate(-8 -8)"/>
      </g>
      <g xmlns:g="http://code.google.com/p/golfml"
         xmlns:xlink="http://www.w3.org/1999/xlink"
         xmlns:xs="http://www.w3.org/2001/XMLSchema"
         id="Target">
         <circle class="target-filled" r="12"/>
      </g>
      <g xmlns:g="http://code.google.com/p/golfml"
         xmlns:xlink="http://www.w3.org/1999/xlink"
         xmlns:xs="http://www.w3.org/2001/XMLSchema"
         id="Flag"
         transform="translate(0 -30) scale(-0.2 0.2)">
         <line id="FlagPole" class="flag-pole" x1="0.5" y1="0" x2="0.5" y2="150"/>
         <circle id="FlagCup" class="flag-cup" r="10" cx="0" cy="145"/>
         <g id="FlagFlag">
            <path class="flag-flag"
                  d="M55.339,45.968c-18.28-14.516-36.559,14.516-54.839,0c0-12.097,0-24.193,0-36.29        c18.28,14.516,36.559-14.516,54.839,0C55.339,21.774,55.339,33.871,55.339,45.968z"/>
         </g>
      </g>
      <g xmlns:g="http://code.google.com/p/golfml"
         xmlns:xlink="http://www.w3.org/1999/xlink"
         xmlns:xs="http://www.w3.org/2001/XMLSchema"
         id="Compass">
         <polygon id="CompassNeedle" class="compass-needle" points="0,30 -8,0 0,-20 8,0"/>
         <circle id="CompassCenter" class="compass-center" r="10"/>
         <text id="CompassNorth" class="compass-north" x="-4.7" y="40">N</text>
      </g>
      <g xmlns:g="http://code.google.com/p/golfml"
         xmlns:xlink="http://www.w3.org/1999/xlink"
         xmlns:xs="http://www.w3.org/2001/XMLSchema"
         id="GolfMLLogoSmall">
         <image xlink:href="../stylesheets/images/golfml-small.png" width="80" height="15"/>
      </g>
   </defs>
   <rect class="background" x="0" y="0" width="600" height="600"/>
   <g transform="translate(300,300) scale(-0.7799243601320549,0.7799243601320549) rotate(141.25365040909546)">
      <path class="hole-contour"
            d="M248.6249258592133,-278.45164103461906Q248.6249258592133,-278.45164103461906 238.67873093733726,-261.5455784069172 L233.70563347639927,-253.0925470930662Q223.75943855452323,-236.18648446536432 165.41247916545558,-162.92804530768186 L136.23899947092178,-126.29882572884064Q77.89204008185413,-53.04038657115818 -6.3070131343431655,54.36263019526724 L-48.40653974244181,108.06413857847994Q-132.6055929586391,215.46715534490536 -146.8590949515947,249.27975142445933 L-153.98584594807247,266.1860494642363Q-168.23934794102806,299.9986455437903 -200.39357909214954,271.8230435916247 L-216.47069466771026,257.7352426155419Q-248.62492581883174,229.55964066337629 -228.73620037429382,203.70240245107988 L-218.79183765202484,190.77378334493164Q-198.9031122074869,164.91654513263524 -188.95874592340414,145.02671317859736 L-183.98656278136278,135.08179720157844Q-174.04219649728,115.19196524754057 -126.63926741078862,53.2022175150056 L-102.93780286754296,22.207343648738117Q-55.53487378105158,-39.78240408379685 -20.064345885902824,-77.9039766312591 L-2.329081938328457,-96.96476290499024Q33.1414459568203,-135.0863354524525 78.88991144211039,-175.19629877315506 L101.76414418475541,-195.25128043350634Q147.5126096700455,-235.3612437542089 173.0396020412343,-254.255710857973 L185.8030982268287,-263.70294440985504Q211.3300905980175,-282.59741151361914 219.28672600632711,-289.5585715032928 L223.2650437104819,-293.03915149812957Q231.2216791187915,-300.00031148780323 238.18297781496022,-291.3808433065296 L241.6636271630446,-287.0711092158927Q248.6249258592133,-278.45164103461906 248.6249258592133,-278.45164103461906 Z"/>
      <clipPath id="HoleContour" transform="scale(1.2)">
         <path class="hole-contour"
               d="M248.6249258592133,-278.45164103461906Q248.6249258592133,-278.45164103461906 238.67873093733726,-261.5455784069172 L233.70563347639927,-253.0925470930662Q223.75943855452323,-236.18648446536432 165.41247916545558,-162.92804530768186 L136.23899947092178,-126.29882572884064Q77.89204008185413,-53.04038657115818 -6.3070131343431655,54.36263019526724 L-48.40653974244181,108.06413857847994Q-132.6055929586391,215.46715534490536 -146.8590949515947,249.27975142445933 L-153.98584594807247,266.1860494642363Q-168.23934794102806,299.9986455437903 -200.39357909214954,271.8230435916247 L-216.47069466771026,257.7352426155419Q-248.62492581883174,229.55964066337629 -228.73620037429382,203.70240245107988 L-218.79183765202484,190.77378334493164Q-198.9031122074869,164.91654513263524 -188.95874592340414,145.02671317859736 L-183.98656278136278,135.08179720157844Q-174.04219649728,115.19196524754057 -126.63926741078862,53.2022175150056 L-102.93780286754296,22.207343648738117Q-55.53487378105158,-39.78240408379685 -20.064345885902824,-77.9039766312591 L-2.329081938328457,-96.96476290499024Q33.1414459568203,-135.0863354524525 78.88991144211039,-175.19629877315506 L101.76414418475541,-195.25128043350634Q147.5126096700455,-235.3612437542089 173.0396020412343,-254.255710857973 L185.8030982268287,-263.70294440985504Q211.3300905980175,-282.59741151361914 219.28672600632711,-289.5585715032928 L223.2650437104819,-293.03915149812957Q231.2216791187915,-300.00031148780323 238.18297781496022,-291.3808433065296 L241.6636271630446,-287.0711092158927Q248.6249258592133,-278.45164103461906 248.6249258592133,-278.45164103461906 Z"/>
      </clipPath>
      <path class="tee"
            d="M206.96646389613161,-256.34252219428606Q206.96646389613161,-256.34252219428606 203.77857559292346,-258.82218949778485 L202.18463144131937,-260.06202314953424Q198.9967431381112,-262.541690453033 207.73463435241396,-272.22306278841677 L212.10357995956537,-277.0637489561086Q220.84147117386811,-286.74512129149235 224.14723479144638,-284.1471722069553 L225.80011660023553,-282.84819766468684Q229.1058802178138,-280.2502485801498 220.25011368914093,-270.6871580258043 L215.82223042480447,-265.90561274863154Q206.96646389613161,-256.34252219428606 206.96646389613161,-256.34252219428606 Z"/>
      <path class="tee"
            d="M155.01317871881912,-227.12259501861533Q155.01317871881912,-227.12259501861533 151.5889421366645,-223.1083483774659 L149.87682384558724,-221.1012250568912Q146.45258726343263,-217.08697841574175 143.7369897227709,-219.44850338077865 L142.37919095243998,-220.62926586329706Q139.66359341177824,-222.99079082833396 143.32398616070716,-227.3592465383404 L145.15418253517166,-229.54347439334362Q148.81457528410058,-233.91193010335004 151.294016657988,-231.19619606945616 L152.5337373449317,-229.8383290525092Q155.01317871881912,-227.12259501861533 155.01317871881912,-227.12259501861533 Z"/>
      <path class="fairway"
            d="M-166.12343376221548,199.3890160225553Q-166.12343376221548,199.3890160225553 -167.2645156530435,202.46134094416226 L-167.8350565984575,203.99750340496576Q-168.97613848928552,207.06982832657272 -166.86941758707061,210.4931858667784 L-165.81605713596315,212.20486463688124Q-163.70933623374825,215.6282221770869 -164.06041832520023,218.17384450971147 L-164.2359593709262,219.44665567602377Q-164.58704146237818,221.99227800864833 -166.34256679643553,224.97683509373917 L-167.2203294634642,226.4691136362846Q-168.97585479752155,229.45367072137543 -166.518048920255,231.03364261327033 L-165.28914598162177,231.82362855921775Q-162.83134010435523,233.40360045111265 -166.2546413828873,236.65153892463604 L-167.96629202215334,238.27550816139774Q-171.38959330068542,241.52344663492113 -172.61848246451638,241.61125931402125 L-173.23292704643183,241.65516565357134Q-174.46181621026278,241.74297833267147 -177.27069539980855,242.70863505433795 L-178.67513499458144,243.19146341517117Q-181.4840141841272,244.15712013683765 -184.81958870590512,243.19164427942607 L-186.48737596679408,242.70890635072027Q-189.822950488572,241.7434304933087 -192.98297228382373,240.69017615227577 L-194.56298318144957,240.16354898175928Q-197.7230049767013,239.11029464072635 -199.6541374594076,238.05700294629165 L-200.6197037007607,237.53035709907428Q-202.550836183467,236.47706540463957 -204.4820047231414,233.49262218998888 L-205.4475889929786,232.00040058266356Q-207.378757532653,229.01595736801286 -208.60768441234936,227.17262700381502 L-209.22214785219757,226.2509618217161Q-210.45107473189393,224.40763145751825 -210.97780826483122,220.89645992465765 L-211.24117503129986,219.14087415822738Q-211.76790856423716,215.62970262536678 -211.24130416751498,212.11849156658994 L-210.9780019691539,210.3628860372015Q-210.45139757243172,206.85167497842465 -208.52032285434348,204.13043156882256 L-207.55478549529934,202.76980986402154Q-205.6237107772111,200.04856645441944 -201.93704378081986,198.4684049350964 L-200.09371028262422,197.6783241754349Q-196.40704328623298,196.09816265611187 -193.5981356385456,195.92251296951184 L-192.19368181470193,195.8346881262118Q-189.38477416701457,195.65903843961178 -187.62921548796717,194.95674531026097 L-186.75143614844347,194.60559874558555Q-184.99587746939608,193.90330561623475 -182.4503197429375,192.58653159251094 L-181.17754087970818,191.92814458064902Q-178.6319831532496,190.6113705569252 -173.62856339683594,194.12242874317724 L-171.12685351862913,195.87795783630327Q-166.12343376221548,199.3890160225553 -166.12343376221548,199.3890160225553 Z"/>
      <path class="fairway"
            d="M138.13415648688348,-163.8373007763672Q138.13415648688348,-163.8373007763672 136.09454284027348,-158.5349896132352 L135.07473601696844,-155.8838340316692Q133.03512237035844,-150.58152286853723 127.93649355610606,-147.31868558121732 L125.38717914897987,-145.68726693755738Q120.28855033472749,-142.42442965023747 113.55834873288094,-136.71439950490296 L110.19324793195769,-133.85938443223571Q103.46304633011114,-128.1493542869012 95.10114374395933,-113.2622665676814 L90.9201924508834,-105.81872270807149Q82.55828986473159,-90.93163498885168 76.44005358865886,-86.03734225729565 L73.38093545062249,-83.59019589151764Q67.26269917454975,-78.6959031599616 58.69723260993995,-72.17017433005988 L54.414499327635056,-68.90730991510902Q45.84903276302526,-62.3815810852073 36.67172932538758,-49.533901238823645 L32.08307760656875,-43.11006131563182Q22.905774168931075,-30.262381469248158 15.971864169829953,-19.046149124680916 L12.50490917027939,-13.438032952397299Q5.5709991711782685,-2.221800607830058 -3.4021487760967446,7.362951278717773 L-7.888722749734249,12.155327221991687Q-16.861870697009262,21.74007910853952 -22.572047817220767,33.36418486827435 L-25.427136377326516,39.17623774814176Q-31.13731349753802,50.80034350787659 -43.577143285942746,60.79299767036666 L-49.79705818014511,65.7893247516117Q-62.23688796854984,75.78197891410177 -68.15087079329189,84.75499912134136 L-71.10786220566293,89.24150922496116Q-77.02184503040498,98.21452943220075 -85.17899883780773,112.48981007721007 L-89.2575757415091,119.62745039971473Q-97.41472954891185,133.90273104472405 -107.40720707400124,140.8365414968555 L-112.40344583654591,144.30344672292122Q-122.3959233616353,151.23725717505266 -125.86266424734545,157.76313095135043 L-127.59603469020053,161.02606783949935Q-131.06277557591068,167.55194161579712 -136.77273364176085,171.22283037991437 L-139.62771267468594,173.058274761973Q-145.3376707405361,176.72916352609025 -150.4358649423728,177.54501385631863 L-152.98496204329118,177.9529390214328Q-158.08315624512787,178.76878935166118 -160.3263820660825,176.93346250269423 L-161.44799497655978,176.01579907821076Q-163.6912207975144,174.1804722292438 -162.467736061989,166.02317037188084 L-161.85599369422627,161.94451944319934Q-160.63250895870087,153.78721758583637 -153.90292165351676,147.0573140705482 L-150.5381280009247,143.69236231290407Q-143.8085406957406,136.96245879761588 -138.71035714232454,131.25226876184823 L-136.16126536561652,128.3971737439644Q-131.06308181220047,122.68698370819676 -127.80026769926603,113.713935777252 L-126.16886064279882,109.22741181177963Q-122.90604652986438,100.25436388083487 -118.6235572322582,92.50489444518018 L-116.4823125834551,88.63015972735285Q-112.19982328584891,80.88069029169816 -104.6544176420174,74.15085111208477 L-100.88171482010165,70.78593152227808Q-93.33630917627015,64.05609234266468 -86.60659303930383,57.32628537995548 L-83.24173497082066,53.961381898600884Q-76.51201883385434,47.23157493589168 -70.80192518899572,38.66639930399053 L-67.94687836656641,34.38381148803995Q-62.23678472170779,25.818635856138805 -56.32271645686012,16.43773514503524 L-53.365682324436285,11.74728478948346Q-47.451614059588614,2.3663840783798986 -38.68242305507167,-8.034172605774232 L-34.2978275528132,-13.234450947851295Q-25.52863654829626,-23.635007632005426 -12.884582995321159,-35.666986246615544 L-6.562556218833612,-41.682975553920606Q6.0814973341414875,-53.714954168530724 14.239080393984477,-64.31943137773152 L18.31787192390597,-69.62166998233192Q26.47545498374896,-80.22614719153272 32.79765640971262,-88.9952491243979 L35.95875712269446,-93.37980009083049Q42.28095854865812,-102.14890202369567 47.9914017124849,-110.91802605794902 L50.8466232943983,-115.3025880750757Q56.55706645822508,-124.07171210932906 63.28715213659076,-128.96604774794915 L66.6521949757736,-131.4132155672592Q73.38228065413928,-136.30755120587926 81.13220193930952,-144.0569666857152 L85.00716258189466,-147.9316744256332Q92.7570838670649,-155.68108990546912 96.83607180513981,-161.39123344104866 L98.87556577417728,-164.2463052088384Q102.95455371225218,-169.95644874441794 106.62558326344572,-172.60754402668277 L108.4610980390425,-173.9330916678152Q112.13212759023604,-176.58418695008004 115.803087141831,-177.19590021828805 L117.63856691762847,-177.50175685239205Q121.30952646922343,-178.11347012060006 125.38831013585217,-176.88971602380755 L127.42770196916655,-176.2778389754113Q131.5064856357953,-175.0540848786188 134.15755397623056,-170.56737123771816 L135.4830881464482,-168.32401441726782Q138.13415648688348,-163.8373007763672 138.13415648688348,-163.8373007763672 Z"/>
      <path class="greenside-trap"
            d="M-133.4260763603519,179.63777364676278Q-133.4260763603519,179.63777364676278 -133.16272825523203,181.39337015038336 L-133.0310542026721,182.27116840219364Q-132.7677060975522,184.02676490581422 -133.20658347107965,186.39683368201668 L-133.42602215784336,187.58186807011793Q-133.8648995313708,189.9519368463204 -134.567114601565,191.88310998016578 L-134.9182221366621,192.84869654708845Q-135.6204372068563,194.77986968093384 -136.8493301793389,195.65769391991165 L-137.4637766655802,196.09660603940054Q-138.6926696380628,196.97443027837835 -139.7460190983872,196.27221248729933 L-140.2726938285494,195.92110359175985Q-141.3260432888738,195.21888580068082 -141.76496079995508,192.32215662420668 L-141.98441955549575,190.87379203596964Q-142.42333706657703,187.9770628594955 -142.07224550432056,185.25587407073198 L-141.8966997231923,183.89527967635024Q-141.54560816093584,181.17409088758671 -139.877819084942,179.94513517555885 L-139.04392454694505,179.33065731954488Q-137.3761354709512,178.10170160751701 -135.7961118267115,178.71613042321533 L-135.00610000459162,179.02334483106446Q-133.4260763603519,179.63777364676278 -133.4260763603519,179.63777364676278 Z"/>
      <path class="greenside-trap"
            d="M-172.04890549946344,166.0327733440748Q-172.04890549946344,166.0327733440748 -171.69776820581797,167.78836541675105 L-171.5221995589952,168.66616145308916Q-171.17106226534972,170.4217535257654 -171.6977118708335,172.265150986954 L-171.9610366735754,173.18684971754828Q-172.48768627905918,175.0302471787369 -174.33102436984422,176.17143906434345 L-175.25269341523676,176.7420350071467Q-177.0960315060218,177.88322689275327 -179.46606271289352,177.44439638549113 L-180.6510783163294,177.22498113186006Q-183.02110952320112,176.78615062459792 -184.4255922775666,175.20615188036973 L-185.12783365474937,174.41615250825566Q-186.53231640911486,172.83615376402747 -186.4445730353337,170.46608785600182 L-186.40070134844308,169.28105490198897Q-186.3129579746619,166.91098899396331 -184.99629566153124,165.50646653663213 L-184.33796450496587,164.80420530796653Q-183.0213021918352,163.39968285063534 -180.47571839380325,163.04848709252877 L-179.20292649478725,162.87288921347547Q-176.6573426967553,162.5216934553689 -174.81396781783857,163.92612541085126 L-173.89228037838018,164.62834138859245Q-172.04890549946344,166.0327733440748 -172.04890549946344,166.0327733440748 Z"/>
      <path class="fairway-trap"
            d="M69.88375663986308,-69.80829772255038Q69.88375663986308,-69.80829772255038 71.73857674003465,-69.01333682888762 L72.66598679012041,-68.61585638205624Q74.52080689029198,-67.82089548839348 75.84563958878097,-65.83355880862955 L76.50805593802545,-64.8398904687476Q77.83288863651444,-62.85255378898367 77.30288442153149,-60.99775029027822 L77.03788231404002,-60.070348540925494Q76.50787809905707,-58.21554504222004 74.25558838297755,-58.613057359578995 L73.12944352493778,-58.811813518258475Q70.87715380885827,-59.20932583561743 69.15484352036256,-60.79920577246334 L68.29368837611472,-61.59414574088629Q66.57137808761901,-63.1840256777322 66.30646313894691,-65.56879158732768 L66.17400566461085,-66.76117454212542Q65.90909071593875,-69.1459404517209 67.49895708550848,-69.4108833600527 L68.29389027029335,-69.54335481421859Q69.88375663986308,-69.80829772255038 69.88375663986308,-69.80829772255038 Z"/>
      <path class="green"
            d="M-179.94845058206582,205.53398792911392Q-179.94845058206582,205.53398792911392 -178.80730237217685,207.72845033053292 L-178.23672826723237,208.82568153124245Q-177.0955800573434,211.02014393266145 -176.5688696695142,214.00464158507148 L-176.3055144755996,215.4968904112765Q-175.77880408777042,218.48138806368652 -176.74434059854104,220.149231023384 L-177.22710885392638,220.98315250323276Q-178.192645364697,222.65099546293024 -180.4748562272026,224.05553805063866 L-181.6159616584554,224.75780934449284Q-183.898172520961,226.16235193220126 -186.3559327251029,227.8302414613234 L-187.5848128271738,228.6641862258845Q-190.0425730313157,230.33207575500663 -192.58813878187706,230.15659831630072 L-193.86092165715775,230.06885959694773Q-196.4064874077191,229.89338215824182 -198.95207930385524,228.22565241424346 L-200.22487525192332,227.3917875422443Q-202.77046714805945,225.72405779824592 -203.99939913718114,223.52960676092783 L-204.613865131742,222.4323812422688Q-205.84279712086368,220.23793020495071 -205.84284852475494,217.34119767913495 L-205.8428742267006,215.89283141622704Q-205.84292563059185,212.99609889041128 -204.43850712272518,211.06489484759223 L-203.73629786879184,210.0992928261827Q-202.33187936092517,208.16808878336366 -200.22522792334746,206.500201620308 L-199.17190220455862,205.66625803878014Q-197.0652507669809,203.99837087572448 -194.60747628466464,202.7693740895583 L-193.3785890435065,202.15487569647522Q-190.92081456119024,200.92587891030905 -188.5507916465694,201.36470504306337 L-187.36578018925894,201.5841181094405Q-184.9957572746381,202.02294424219482 -182.97683459760918,203.42736171696245 L-181.96737325909473,204.1295704543463Q-179.94845058206582,205.53398792911392 -179.94845058206582,205.53398792911392 Z"/>
      <path class="trees"
            d="M-50.61056900956531,-34.81096769840437Q-50.61056900956531,-34.81096769840437 -50.41969632805432,-31.756799782049 L-50.324259987298824,-30.229715823871317Q-50.133387305787835,-27.175547907515945 -52.233137771773826,-24.312264104123294 L-53.28301300476683,-22.88062220242697Q-55.38276347075282,-20.017338399034323 -57.67339093172506,-18.108482048617827 L-58.81870466221118,-17.154053873409577Q-61.10933212318342,-15.245197522993081 -61.681980064504536,-18.299359433418395 L-61.96830403516509,-19.826440388631053Q-62.540951976486205,-22.880602299056367 -61.01386040511974,-25.93477302986721 L-60.25031461943651,-27.46185839527263Q-58.72322304807005,-30.516029126083467 -55.47816143266815,-32.23400455501183 L-53.855630624967205,-33.09299226947601Q-50.61056900956531,-34.81096769840437 -50.61056900956531,-34.81096769840437 Z"/>
      <path class="trees"
            d="M-82.58388181118302,11.00158243076164Q-82.58388181118302,11.00158243076164 -84.11095164796988,14.437516476552402 L-84.8744865663633,16.155483499447783Q-86.40155640315017,19.591417545238542 -89.45569849454048,20.7367526347267 L-90.98276954023564,21.30942017947078Q-94.03691163162596,22.454755268958937 -97.28192556124309,26.27247626944889 L-98.90443252605164,28.181336769693868Q-102.14944645566877,31.99905777018382 -105.77621035991046,37.53474537533781 L-107.5895923120313,40.30258917791481Q-111.216356216273,45.8382767830688 -112.55254586061555,44.88387404404489 L-113.22064068278684,44.40667267453293Q-114.55683032712939,43.452269935509015 -109.78476936614946,36.58037601559673 L-107.39873888565951,33.144429055640586Q-102.62667792467958,26.272535135728305 -97.8545933428394,19.591527505559903 L-95.4685510519193,16.251023690475698Q-90.69646647007912,9.570016060307296 -88.21497144653006,8.424686196723016 L-86.97422393475554,7.852021264930875Q-84.49272891120648,6.706691401346594 -83.7291900711971,8.424647813112614 L-83.34742065119241,9.283626018995623Q-82.58388181118302,11.00158243076164 -82.58388181118302,11.00158243076164 Z"/>
      <path class="trees"
            d="M-131.25891634206195,72.56234310620701Q-131.25891634206195,72.56234310620701 -130.11357559538862,78.86148435573367 L-129.54090522205198,82.01105498049701Q-128.39556447537865,88.31019623002366 -128.58642356797907,91.74610426537411 L-128.68185311427925,93.46405828304935Q-128.87271220687967,96.8999663183998 -132.30857333326605,98.9997500648925 L-134.02650389645925,100.04964193813883Q-137.46236502284563,102.14942568463152 -139.9438428141596,100.81329237213924 L-141.18458170981663,100.14522571589309Q-143.6660595011306,98.80909240340081 -144.62051261408257,94.22790602730909 L-145.09773917055853,91.93731283926321Q-146.0521922835105,87.35612646317149 -144.14340414026776,83.15664468637458 L-143.1890100686464,81.05690379797613Q-141.28022192540368,76.85742202117922 -137.271699692067,75.13939045519034 L-135.26743857539864,74.28037467219589Q-131.25891634206195,72.56234310620701 -131.25891634206195,72.56234310620701 Z"/>
      <path class="trees"
            d="M5.699850469607736,34.86231611770724Q5.699850469607736,34.86231611770724 6.0815765813581635,38.29823782038858 L6.272439637233377,40.016198671729256Q6.654165748983804,43.4521203744106 3.790865285911853,47.46065542475607 L2.3592150543758788,49.46492294992881Q-0.504085408696072,53.473458000274285 -2.985578180224524,54.2369699053491 L-4.22632456598875,54.61872585788651Q-6.707817337517202,55.382237762961324 -8.616622621561152,52.51896089447074 L-9.571025263583127,51.08732246022544Q-11.47983054762708,48.22404559173485 -10.14360861566627,44.597257046436674 L-9.475497649685867,42.78386277378758Q-8.13927571772506,39.15707422848941 -4.5124513298803315,36.29384431749716 L-2.6990391359579693,34.86222936200104Q0.9277852518867583,31.998999451008793 2.8366113389751493,33.14432611768817 L3.7910243825193453,33.71698945102786Q5.699850469607736,34.86231611770724 5.699850469607736,34.86231611770724 Z"/>
      <use xmlns:xlink="http://www.w3.org/1999/xlink" xlink:href="#TeeSet"
           x="184.38473680849611"
           y="-251.91606188467722"
           class="tees"
           transform="rotate(-141.25365040909546 184.38473680849611 -251.91606188467722)"/>
      <use xmlns:xlink="http://www.w3.org/1999/xlink" xlink:href="#Flag"
           x="-190.810864859081"
           y="215.62898860129187"
           transform="rotate(-141.25365040909546 -190.810864859081 215.62898860129187)"/>
      <g clip-path="url(#HoleContour)">
         <circle cx="184.38473680849611" cy="-251.91606188467722" r="137.18670906707564"
                 class="circle-from-tee"/>
         <circle cx="184.38473680849611" cy="-251.91606188467722" r="205.78006360061346"
                 class="circle-from-tee"/>
         <circle cx="184.38473680849611" cy="-251.91606188467722" r="274.3734181341513"
                 class="circle-from-tee"/>
         <circle cx="-190.810864859081" cy="215.62898860129187" r="137.18670906707564"
                 class="circle-from-green"/>
         <circle cx="-190.810864859081" cy="215.62898860129187" r="205.78006360061346"
                 class="circle-from-green"/>
         <circle cx="-190.810864859081" cy="215.62898860129187" r="274.3734181341513"
                 class="circle-from-green"/>
      </g>
   </g>
   <rect x="470" y="400" rx="4" ry="4" width="110" height="180" class="info-background"/>
   <text x="525" y="420" class="info-hole" text-anchor="middle">
					Hole 1</text>
   <text x="525" y="440" class="info-par" text-anchor="middle">
					Par 5</text>
   <circle cx="485.625" cy="457.1875" r="5.625" style="fill:blue"/>
   <text x="496.875" y="460" class="info-length">470 meters</text>
   <use xmlns:xlink="http://www.w3.org/1999/xlink" xlink:href="#Compass" x="550" y="50"
        transform="rotate(141.25365040909546 550 50)"/>
   <use xmlns:xlink="http://www.w3.org/1999/xlink" xlink:href="#GolfMLLogoSmall" x="10"
        y="575"/>
</svg>