<?xml version="1.0" encoding="UTF-8"?>
<svg xmlns="http://www.w3.org/2000/svg" width="600" height="600">
   <defs>
      <style xmlns:g="http://code.google.com/p/golfml"
             xmlns:xlink="http://www.w3.org/1999/xlink"
             xmlns:xs="http://www.w3.org/2001/XMLSchema"
             type="text/css">
/* Stylesheet for SVG elements
 *
 *
 * Classes for area of interest (surfaces)
 *
 * DRAWING
 */
.background {
		fill: url(#background-gradient);
}

.hole-limits {
	fill: none;
	stroke: #ccc;
	stroke-width: 1px;
	stroke-dasharray: 10,10;
}

.hole-contour {
	fill: #030;
	stroke: #fff;
	stroke-width: 2px;
}


/* GROUND
 */
.fairway {
	fill: url(#fairway-pattern);
	stroke: #0b0;
	stroke-width: 3px; /* fairway fringe... */
}

.tee {
	fill: #00c800;
	stroke: #0f0;
	stroke-width: 1px;
}

.fringe {
	fill: #0A0;
}

.green {
	fill: url(#green-gradient);
	stroke: #0f0;
	stroke-width: 1px;
}

.semi-rough,
.light-rough {
	fill: #080;
	stroke: #08800D;
	stroke-width: 1px;
}

.rough {
	fill: url(#rough-gradient);
	stroke: #07660A;
	stroke-width: 1px;
}

.heavy-rough {
	fill: #040;
	stroke: #074D08;
	stroke-width: 1px;
}

.ground {
	fill: #7f400c;
	stroke: #fdcc6a;
	stroke-width: 1px;
}


/* WATER
 */
.lateral-water {
	fill: url(#lateral-water-gradient);
	stroke: red;
	stroke-width: 4px;
}

.front-water, .water {
	fill: #37f;
	stroke: yellow;
	stroke-width: 3px;
}


/* SPECIAL
 */
.under-repair {
	fill: none;
	stroke: #00d;
	stroke-width: 2px;
}

.out-of-bound { /* line only */
	fill: none;
	stroke: white;
	stroke-width: 4px;
}

.out-of-bound-area {
	fill: #ccc;
	stroke: white;
	stroke-width: 4px;
}


/* TRAPS
 */
.trap,
.bunker {
	fill: #92cf94;
	stroke: #4c994c;
	stroke-width: 1px;
}

.grass-trap,
.grass-bunker {
	fill: #050;
	stroke: #0A0;
	stroke-width: 1px;
}

.sand-trap,
.sand-bunker,
.greenside-trap,
.greenside-bunker {
	fill: #eec;
	stroke: #040;
	stroke-width: 2px;
}

.fairway-trap,
.fairway-bunker {
	fill: #eec;
	stroke: #030;
	stroke-width: 2px;
}


/* OBSTACLES
 */
.tree {
	fill: #062;
	stroke: #0c6;
	stroke-width: 1px;
}

.trees {
	fill: #062;
	stroke: #0c6;
	stroke-width: 1px;
}

.bush {
	fill: #00b259;
	stroke: #7f400c;
	stroke-width: 1px;
}


.path {
	fill: #666;
	stroke: #bbb;
	stroke-width: 1px;
}

.building,
.construction {
	fill: #fdcc6a;
	stroke: #7f400C;
	stroke-width: 1px;
}

.obstruction {
	fill: #555;
	stroke: #999;
	stroke-width: 1px;
}


.other {
	fill: #ddd;
	stroke: #666;
	stroke-width: 1px;
}

/* Classes for point of interest (points)
 *
 */
.dogleg {
	fill: #000;
}

.aim {
	fill: #fff;
	stroke: #f00;
	stroke-width: 1px;
}

.tees {
	fill: #00f;
}

.tees-hollow {
	stroke: #fff;
	stroke-width: 0.5px;
}

.hole {
	fill: #fff;
}

.distance-marker-100,
.distance-marker-close {
	fill: #44f;
	stroke: #00f;
	stroke-width: 1px;
}

.distance-marker-150,
.distance-marker-135,
.distance-marker,
.distance-marker-mid {
	fill: #f44;
	stroke: #f00;
	stroke-width: 1px;
}

.distance-marker-200,
.distance-marker-far {
	fill: #dd4;
	stroke: #ff0;
	stroke-width: 1px;
}

.green-region-delimiter {
	fill: none;
	stroke: #fff;
	stroke-width: 0.5;
	stroke-dasharray: 4,2;
}

.neutral {
	fill: none;
	stroke: #888;
	stroke-width: 1px;
}
.one-tree {
	fill: #14920D;
	stroke: #165822;
	stroke-width: 3px;
	stroke-linecap: round;
	stroke-linejoin: round; 
}

/* Classes for special decorative objects
 *
 */
.compass-center {
	fill: #ddd;
	stroke: #fff;
	stroke-width: 1px;
}
.compass-needle {
	fill: #ddd;
	stroke: #fff;
	stroke-width: 1px;
}
.compass-north {
	fill: #fff;
}
.flag-pole {
	fill: none;
	stroke: #f00;
	stroke-width: 2px;
}
.flag-flag {
	fill: #ff0;
	stroke: #f00;
	stroke-width: 1px;
}
.flag-cup {
	fill: #fff;
}
/* Information box */
.info-background {
	fill: #ddd;
}
.info-hole {
	font-family: Georgia, "Times New Roman", Times, serif;
	font-size: xx-large;
}
.info-par {
	font-family: Georgia, "Times New Roman", Times, serif;
	font-size: x-large;
}
.info-length {
	font-family: Georgia, "Times New Roman", Times, serif;
	font-size: large;
}
/* Circle for distances */
.circle-from-green {
	fill: none;
	stroke: #fff;
	stroke-width: 1px;
	stroke-dasharray: 4,4;
}
.circle-from-tee {
	fill: none;
	stroke: #f00;
	stroke-width: 1px;
	stroke-dasharray: 8,8;
}
/* Dynamic objects */
.target {
	fill: none;
	stroke: #f00;
	stroke-width: 2px;
}
.target-filled {
	fill: #f00;
	fill-opacity: 0.5;
	stroke: #f00;
}
.ball {
	fill: #fff;
	stroke: none;
}
.trajectory {
	fill: none;
	stroke: #fff;
	stroke-width: 2px;
}
.distance {
	fill: #fff;
}
</style>
      <linearGradient xmlns:g="http://code.google.com/p/golfml"
                      xmlns:xlink="http://www.w3.org/1999/xlink"
                      xmlns:xs="http://www.w3.org/2001/XMLSchema"
                      id="background-straight">
         <stop offset="5%" stop-color="#002"/>
         <stop offset="95%" stop-color="#004"/>
      </linearGradient>
      <linearGradient xmlns:g="http://code.google.com/p/golfml"
                      xmlns:xlink="http://www.w3.org/1999/xlink"
                      xmlns:xs="http://www.w3.org/2001/XMLSchema"
                      id="background-gradient"
                      gradientTransform="rotate(30)"
                      xlink:href="#background-straight"/>
      <linearGradient xmlns:g="http://code.google.com/p/golfml"
                      xmlns:xlink="http://www.w3.org/1999/xlink"
                      xmlns:xs="http://www.w3.org/2001/XMLSchema"
                      id="lateral-water-straight">
         <stop offset="5%" stop-color="#006"/>
         <stop offset="95%" stop-color="#008"/>
      </linearGradient>
      <linearGradient xmlns:g="http://code.google.com/p/golfml"
                      xmlns:xlink="http://www.w3.org/1999/xlink"
                      xmlns:xs="http://www.w3.org/2001/XMLSchema"
                      id="lateral-water-gradient"
                      gradientTransform="rotate(60)"
                      xlink:href="#lateral-water-straight"/>
      <linearGradient xmlns:g="http://code.google.com/p/golfml"
                      xmlns:xlink="http://www.w3.org/1999/xlink"
                      xmlns:xs="http://www.w3.org/2001/XMLSchema"
                      id="rough-straight">
         <stop offset="0%" stop-color="#030"/>
         <stop offset="25%" stop-color="#060"/>
         <stop offset="50%" stop-color="#040"/>
         <stop offset="75%" stop-color="#060"/>
         <stop offset="100%" stop-color="#080"/>
      </linearGradient>
      <linearGradient xmlns:g="http://code.google.com/p/golfml"
                      xmlns:xlink="http://www.w3.org/1999/xlink"
                      xmlns:xs="http://www.w3.org/2001/XMLSchema"
                      id="rough-gradient"
                      gradientTransform="rotate(70)"
                      xlink:href="#rough-straight"/>
      <linearGradient xmlns:g="http://code.google.com/p/golfml"
                      xmlns:xlink="http://www.w3.org/1999/xlink"
                      xmlns:xs="http://www.w3.org/2001/XMLSchema"
                      id="green-straight">
         <stop offset="0%" stop-color="#0d0"/>
         <stop offset="25%" stop-color="#0e0"/>
         <stop offset="50%" stop-color="#0c0"/>
         <stop offset="75%" stop-color="#0e0"/>
         <stop offset="100%" stop-color="#0b0"/>
      </linearGradient>
      <linearGradient xmlns:g="http://code.google.com/p/golfml"
                      xmlns:xlink="http://www.w3.org/1999/xlink"
                      xmlns:xs="http://www.w3.org/2001/XMLSchema"
                      id="green-gradient"
                      gradientTransform="rotate(75)"
                      xlink:href="#green-straight"/>
      <pattern xmlns:g="http://code.google.com/p/golfml"
               xmlns:xlink="http://www.w3.org/1999/xlink"
               xmlns:xs="http://www.w3.org/2001/XMLSchema"
               id="fairway-straight"
               patternUnits="userSpaceOnUse"
               x="0"
               y="0"
               width="20"
               height="20"
               viewBox="0 0 20 20">
         <rect x="0" y="0" width="10" height="10" fill="#00c000"/>
         <rect x="10" y="10" width="10" height="10" fill="#00c800"/>
         <rect x="10" y="0" width="10" height="10" fill="#00bc00"/>
         <rect x="0" y="10" width="10" height="10" fill="#00b800"/>
      </pattern>
      <pattern xmlns:g="http://code.google.com/p/golfml"
               xmlns:xlink="http://www.w3.org/1999/xlink"
               xmlns:xs="http://www.w3.org/2001/XMLSchema"
               id="fairway-pattern"
               patternTransform="rotate(60)"
               xlink:href="#fairway-straight"/>
      <g xmlns:g="http://code.google.com/p/golfml"
         xmlns:xlink="http://www.w3.org/1999/xlink"
         xmlns:xs="http://www.w3.org/2001/XMLSchema"
         id="Tree"
         transform="translate(-76 -66) scale(0.4)">
         <path class="one-tree"
               d="M191.991,126.799c-11.163,0-21.022,4.032-27.033,10.191c-17.556,0.615-31.556,11.151-31.556,24.079       c0,7.537,4.759,14.266,12.203,18.693c0.876,12.855,18.43,23.128,39.939,23.128c22.07,0,39.979-10.812,39.979-24.136       c0-0.065-0.012-0.13-0.013-0.195c6.33-2.866,10.33-6.992,10.33-11.595c0-4.806-4.343-9.104-11.164-11.977       c0.31-1.318,0.478-2.67,0.478-4.054C225.154,137.612,210.297,126.799,191.991,126.799z"/>
      </g>
      <g xmlns:g="http://code.google.com/p/golfml"
         xmlns:xlink="http://www.w3.org/1999/xlink"
         xmlns:xs="http://www.w3.org/2001/XMLSchema"
         id="TeeSet">
         <circle cx="-5" cy="0" r="2"/>
         <circle cx="5" cy="0" r="2"/>
      </g>
      <g xmlns:g="http://code.google.com/p/golfml"
         xmlns:xlink="http://www.w3.org/1999/xlink"
         xmlns:xs="http://www.w3.org/2001/XMLSchema"
         id="DistanceMarker">
         <circle r="6"/>
      </g>
      <g xmlns:g="http://code.google.com/p/golfml"
         xmlns:xlink="http://www.w3.org/1999/xlink"
         xmlns:xs="http://www.w3.org/2001/XMLSchema"
         id="Dogleg">
         <circle r="4"/>
      </g>
      <g xmlns:g="http://code.google.com/p/golfml"
         xmlns:xlink="http://www.w3.org/1999/xlink"
         xmlns:xs="http://www.w3.org/2001/XMLSchema"
         id="Aim">
         <circle r="4"/>
      </g>
      <g xmlns:g="http://code.google.com/p/golfml"
         xmlns:xlink="http://www.w3.org/1999/xlink"
         xmlns:xs="http://www.w3.org/2001/XMLSchema"
         id="Hole">
         <circle r="2"/>
      </g>
      <g xmlns:g="http://code.google.com/p/golfml"
         xmlns:xlink="http://www.w3.org/1999/xlink"
         xmlns:xs="http://www.w3.org/2001/XMLSchema"
         id="Ball">
         <image xlink:href="../stylesheets/images/golf-ball.png" width="16" height="16"
                transform="translate(-8 -8)"/>
      </g>
      <g xmlns:g="http://code.google.com/p/golfml"
         xmlns:xlink="http://www.w3.org/1999/xlink"
         xmlns:xs="http://www.w3.org/2001/XMLSchema"
         id="Target">
         <circle class="target-filled" r="12"/>
      </g>
      <g xmlns:g="http://code.google.com/p/golfml"
         xmlns:xlink="http://www.w3.org/1999/xlink"
         xmlns:xs="http://www.w3.org/2001/XMLSchema"
         id="Flag"
         transform="translate(0 -30) scale(-0.2 0.2)">
         <line id="FlagPole" class="flag-pole" x1="0.5" y1="0" x2="0.5" y2="150"/>
         <circle id="FlagCup" class="flag-cup" r="10" cx="0" cy="145"/>
         <g id="FlagFlag">
            <path class="flag-flag"
                  d="M55.339,45.968c-18.28-14.516-36.559,14.516-54.839,0c0-12.097,0-24.193,0-36.29        c18.28,14.516,36.559-14.516,54.839,0C55.339,21.774,55.339,33.871,55.339,45.968z"/>
         </g>
      </g>
      <g xmlns:g="http://code.google.com/p/golfml"
         xmlns:xlink="http://www.w3.org/1999/xlink"
         xmlns:xs="http://www.w3.org/2001/XMLSchema"
         id="Compass">
         <polygon id="CompassNeedle" class="compass-needle" points="0,30 -8,0 0,-20 8,0"/>
         <circle id="CompassCenter" class="compass-center" r="10"/>
         <text id="CompassNorth" class="compass-north" x="-4.7" y="40">N</text>
      </g>
      <g xmlns:g="http://code.google.com/p/golfml"
         xmlns:xlink="http://www.w3.org/1999/xlink"
         xmlns:xs="http://www.w3.org/2001/XMLSchema"
         id="GolfMLLogoSmall">
         <image xlink:href="../stylesheets/images/golfml-small.png" width="80" height="15"/>
      </g>
   </defs>
   <rect class="background" x="0" y="0" width="600" height="600"/>
   <g transform="translate(300,300) scale(-0.8048667076521161,0.8048667076521161) rotate(-53.597384515926564)">
      <path class="hole-contour"
            d="M236.94183623747938,-73.77190727325194Q236.94183623747938,-73.77190727325194 183.88072960215771,-4.953892167761765 L157.3501762844969,29.4551153849833Q104.28906964917525,98.27313049047348 -4.344320368028434,128.2000977269641 L-58.661015376630246,143.16358134520942Q-167.29440539383393,173.09054858170003 -182.09957029487882,185.0979456721844 L-189.50215274540128,191.10164421742658Q-204.30731764644617,203.10904130791096 -226.13031086210572,227.34354908428176 L-237.04180746993552,239.46080297246718Q-258.86480068559507,263.695310748838 -275.3188804071563,241.46940476981086 L-283.5459202679369,230.3564517802973Q-299.9999999894981,208.1305458012702 -187.75557654323555,114.63593128494517 L-131.63336482010425,67.88862402678268Q-19.388941373841682,-25.605990489542343 6.112132814713256,-54.86541082950285 L18.862669908990718,-69.49512099948309Q44.363744097545656,-98.75454133944359 52.75179005009176,-126.87839881120013 L56.94581302636482,-140.9403275470784Q65.33385897891092,-169.06418501883493 81.49478431485176,-198.21368685866213 L89.57524698282218,-212.7884377785757Q105.73617231876301,-241.9379396184029 130.85679861185395,-250.6408789512776 L143.4171117583994,-254.99234861771495Q168.53773805149032,-263.69528795058966 190.14182553384813,-253.6732251501606 L200.943869275027,-248.66219374994603Q222.5479567573848,-238.64013094951696 240.81129452287993,-221.41672267827192 L249.9429634056275,-212.80501854264944Q268.2063011711226,-195.5816102714044 280.9237806946678,-173.31076977713707 L287.28252045644035,-162.17534953000342Q299.99999997998555,-139.90450903573608 274.7767344829831,-113.45146833074243 L262.1651017344818,-100.2249479782456Q236.94183623747938,-73.77190727325194 236.94183623747938,-73.77190727325194 Z"/>
      <clipPath id="HoleContour" transform="scale(1.2)">
         <path class="hole-contour"
               d="M236.94183623747938,-73.77190727325194Q236.94183623747938,-73.77190727325194 183.88072960215771,-4.953892167761765 L157.3501762844969,29.4551153849833Q104.28906964917525,98.27313049047348 -4.344320368028434,128.2000977269641 L-58.661015376630246,143.16358134520942Q-167.29440539383393,173.09054858170003 -182.09957029487882,185.0979456721844 L-189.50215274540128,191.10164421742658Q-204.30731764644617,203.10904130791096 -226.13031086210572,227.34354908428176 L-237.04180746993552,239.46080297246718Q-258.86480068559507,263.695310748838 -275.3188804071563,241.46940476981086 L-283.5459202679369,230.3564517802973Q-299.9999999894981,208.1305458012702 -187.75557654323555,114.63593128494517 L-131.63336482010425,67.88862402678268Q-19.388941373841682,-25.605990489542343 6.112132814713256,-54.86541082950285 L18.862669908990718,-69.49512099948309Q44.363744097545656,-98.75454133944359 52.75179005009176,-126.87839881120013 L56.94581302636482,-140.9403275470784Q65.33385897891092,-169.06418501883493 81.49478431485176,-198.21368685866213 L89.57524698282218,-212.7884377785757Q105.73617231876301,-241.9379396184029 130.85679861185395,-250.6408789512776 L143.4171117583994,-254.99234861771495Q168.53773805149032,-263.69528795058966 190.14182553384813,-253.6732251501606 L200.943869275027,-248.66219374994603Q222.5479567573848,-238.64013094951696 240.81129452287993,-221.41672267827192 L249.9429634056275,-212.80501854264944Q268.2063011711226,-195.5816102714044 280.9237806946678,-173.31076977713707 L287.28252045644035,-162.17534953000342Q299.99999997998555,-139.90450903573608 274.7767344829831,-113.45146833074243 L262.1651017344818,-100.2249479782456Q236.94183623747938,-73.77190727325194 236.94183623747938,-73.77190727325194 Z"/>
      </clipPath>
      <path class="tee"
            d="M-170.01936085095397,154.43667973658697Q-170.01936085095397,154.43667973658697 -180.43676476810916,161.99090498657833 L-185.64546672668675,165.768017611574Q-196.06287064384193,173.32224286156537 -207.46889825851787,183.9632259803958 L-213.17191206585585,189.28371753981105Q-224.57793968053178,199.92470065864148 -225.55450548363015,204.03630941252848 L-226.0427883851793,206.09211378947197Q-227.01935418827767,210.20372254335896 -232.5776401003218,216.93193004692208 L-235.35678305634386,220.2960337987036Q-240.91506896838797,227.02424130226672 -248.32423254827444,228.9054294746156 L-252.02881433821767,229.84602356079006Q-259.43797791810414,231.72721173313894 -263.0552254344452,229.20733676619813 L-264.8638491926157,227.94739928272773Q-268.4810967089568,225.4275243157869 -270.07276329449746,220.83370400609346 L-270.86859658726786,218.53679385124673Q-272.46026317280854,213.94297354155327 -267.9268545943534,207.2268380804398 L-265.66015030512585,203.86877034988305Q-261.12674172667073,197.15263488876957 -249.70865154079905,187.53648543814174 L-243.99960644786321,182.72841071282784Q-232.58151626199154,173.1122612622 -215.32169375604204,159.0709249653049 L-206.69178250306726,152.0502568168573Q-189.43195999711776,138.0089205199622 -182.07104586435645,132.02826339329192 L-178.39058879797582,129.03793482995678Q-171.02967466521451,123.05727770328652 -165.84493103694305,128.12127702754609 L-163.2525592228073,130.65327668967586Q-158.06781559453583,135.71727601393545 -162.84843369710308,143.20503750299605 L-165.23874274838673,146.94891824752636Q-170.01936085095397,154.43667973658697 -170.01936085095397,154.43667973658697 Z"/>
      <path class="fairway"
            d="M241.821300861659,-140.58893834539492Q241.821300861659,-140.58893834539492 241.284067230731,-133.79460889478946 L241.01545041526703,-130.3974441694867Q240.47821678433903,-123.60311471888124 238.0827043481026,-117.40405602010398 L236.8849481299844,-114.30452667071536Q234.48943569374796,-108.1054679719381 229.634590859779,-101.13700675330576 L227.20716844279448,-97.65277614398958Q222.35232360882551,-90.68431492535724 216.86742869054007,-84.81921732449457 L214.12498123139733,-81.88666852406323Q208.64008631311188,-76.02157092320056 202.00251390349226,-73.72205121235774 L198.68372769868247,-72.57229135693633Q192.04615528906285,-70.27277164609352 184.87434924072542,-71.42267058608316 L181.2884462165567,-71.99762005607796Q174.11664016821928,-73.1475189960676 170.15908388810277,-73.84151106580252 L168.1803057480445,-74.18850710066998Q164.222749467928,-74.8824991704049 162.14669104830267,-73.0068262879103 L161.10866183848998,-72.068989846663Q159.03260341886465,-70.1933169641684 155.17083971706788,-62.74283567997736 L153.2399578661695,-59.01759503788183Q149.37819416437273,-51.56711375369079 143.9136758142422,-43.97437255814719 L141.18141663917694,-40.17800196037539Q135.7168982890464,-32.58526076483179 125.48476093536449,-21.110494951099206 L120.36869225852354,-15.373112044232922Q110.13655490484162,-3.898346230500342 101.69303493981563,2.248433156601188 L97.47127495730263,5.321822850151952Q89.02775499227664,11.468602237253481 80.25905789961354,21.445183480922175 L75.87470935328199,26.43347410275652Q67.10601226061888,36.41005534642521 59.664251963787514,43.77927057844731 L55.94337181537183,47.46387819445835Q48.501611518540464,54.83309342648045 44.52375411591586,52.41153661238027 L42.53482541460355,51.20075820533017Q38.556968011978945,48.77920139122998 31.82363110282351,42.93437575390928 L28.45696264824579,40.01196293524893Q21.72362573909035,34.167137297928235 17.08082886826017,27.68062469258342 L14.759430432845082,24.43736838991102Q10.116633562014902,17.950855784566205 16.806371799495565,9.603118198947781 L20.151240918235892,5.42924940613857Q26.840979155716557,-2.9184881794798527 50.835896853158175,-29.982497005847684 L62.83335570187897,-43.514501419031596Q86.8282733993206,-70.57851024539943 97.30433756460548,-82.30301854566879 L102.54236964724791,-88.16527269580347Q113.01843381253279,-99.88978099607283 121.57816853063234,-106.65501118570103 L125.85803588968213,-110.03762628051511Q134.41777060778168,-116.80285647014331 136.38352568508088,-128.05703707354232 L137.36640322373052,-133.68412737524181Q139.33215830102972,-144.93830797864084 142.9558510672525,-151.64550808953538 L144.76769745036387,-154.99910814498267Q148.39139021658664,-161.70630825587722 155.96977265999968,-167.9663229526762 L159.75896388170617,-171.09633030107568Q167.3373463251192,-177.35634499787466 176.56206356215893,-180.0565627250376 L181.17442218067882,-181.40667158861905Q190.39913941771854,-184.10688931578198 200.32647433810095,-179.53363692277563 L205.29014179829215,-177.24701072627244Q215.21747671867456,-172.67375833326608 222.44735795501833,-166.58777267015586 L226.0622985731902,-163.54477983860076Q233.29217980953396,-157.45879417549054 236.70382823038398,-150.7108518434523 L238.409652440809,-147.33688067743316Q241.821300861659,-140.58893834539492 241.821300861659,-140.58893834539492 Z"/>
      <path class="greenside-trap"
            d="M194.04969710569864,-83.56376566020508Q194.04969710569864,-83.56376566020508 189.37784709152967,-82.02784682502812 L187.0419220844452,-81.25988740743963Q182.37007207027622,-79.72396857226268 182.46009659286423,-82.56364615062516 L182.5051088541582,-83.98348493980639Q182.59513337674622,-86.82316251816887 184.17468642946477,-88.93983471427018 L184.96446295582402,-89.99817081232082Q186.54401600854257,-92.11484300842213 190.847118955667,-93.52301031685406 L192.9986704292292,-94.22709397107002Q197.30177337635365,-95.63526127950195 200.40278135983135,-94.31410071842087 L201.9532853515702,-93.65352043788035Q205.0542933350479,-92.33235987679927 205.96018424154556,-88.76387245593439 L206.41312969479438,-86.97962874550196Q207.31902060129204,-83.41114132463707 202.01129120305467,-83.47219105886427 L199.357426503936,-83.50271592597788Q194.04969710569864,-83.56376566020508 194.04969710569864,-83.56376566020508 Z"/>
      <path class="greenside-trap"
            d="M184.86761183544496,-155.9641450639849Q184.86761183544496,-155.9641450639849 181.9291712644613,-153.9549115338821 L180.4599509789695,-152.95029476883067Q177.52151040798583,-150.94106123872788 175.70385320091017,-148.08107286546846 L174.79502459737236,-146.65107867883876Q172.9773673902967,-143.79109030557933 170.8751761568795,-144.13663482310866 L169.82408054017085,-144.30940708187336Q167.72188930675364,-144.6549515994027 166.09299381562093,-146.7339203191976 L165.27854607005457,-147.77340467909508Q163.64965057892186,-149.85237339889 164.85464853615906,-152.33490623101912 L165.4571475147777,-153.5761726470837Q166.66214547201488,-156.05870547921282 170.69814545212304,-159.19161047015476 L172.7161454421771,-160.75806296562573Q176.75214542228525,-163.89096795656766 179.93158726687278,-166.39670820674598 L181.52130818916655,-167.64957833183516Q184.70075003375408,-170.15531858201348 187.28204455260285,-171.04958591019601 L188.57269181202727,-171.49671957428725Q191.15398633087605,-172.3909869024698 193.15164004707964,-170.4397654754595 L194.15046690518142,-169.46415476195438Q196.148120621385,-167.51293333494408 195.55867368257717,-165.16105191604987 L195.26395021317325,-163.98511120660277Q194.6745032743654,-161.63322978770856 190.75174669879723,-159.36559589821908 L188.79036841101313,-158.23177895347436Q184.86761183544496,-155.9641450639849 184.86761183544496,-155.9641450639849 Z"/>
      <path class="green"
            d="M202.55388385474373,-164.83565307540655Q202.55388385474373,-164.83565307540655 207.3427228847105,-163.93628028703495 L209.73714239969385,-163.48659389284916Q214.52598142966062,-162.58722110447755 219.148429530063,-159.583470484046 L221.45965358026422,-158.0815951738302Q226.0821016806666,-155.07784455339865 228.22692792785375,-151.47159506180734 L229.2993410514473,-149.6684703160117Q231.44416729863445,-146.0622208244204 232.6536942067303,-140.7248236611253 L233.25845766077822,-138.05612507947774Q234.46798456887407,-132.71872791618264 232.8131908318518,-127.15654849073027 L231.9857939633407,-124.37545877800407Q230.33100022631845,-118.8132793525517 227.51611636669833,-114.38424883418496 L226.10867443688826,-112.16973357500157Q223.29379057726814,-107.74070305663483 219.35026166263756,-101.76938321596593 L217.37849720532225,-98.78372329563148Q213.43496829069167,-92.81240345496258 207.66592056095251,-95.80267434852584 L204.7813966960829,-97.29780979530746Q199.01234896634375,-100.28808068887072 193.86378947532674,-99.27193433359302 L191.28950972981826,-98.76386115595419Q186.14095023880125,-97.74771480067649 183.10128190717887,-96.18296442711117 L181.5814477413677,-95.4005892403285Q178.54177940974532,-93.83583886676318 177.08486257603252,-87.70261009765315 L176.35640415917612,-84.63599571309813Q174.89948732546333,-78.50276694398809 170.2995334714767,-79.59547053737046 L167.99955654448337,-80.14182233406166Q163.39960269049675,-81.23452592744403 157.60358692321637,-86.517983431532 L154.70557903957618,-89.15971218357598Q148.9095632722958,-94.44316968766395 148.26208712971948,-100.74279602173706 L147.93834905843133,-103.8926091887736Q147.290872915855,-110.19223552284672 146.8547249519232,-114.77419367533659 L146.6366509699573,-117.06517275158151Q146.20050300602549,-121.64713090407139 147.87773030987708,-125.29829121464587 L148.71634396180286,-127.12387136993311Q150.39357126565446,-130.7750316805076 154.40000322681865,-131.39551783897866 L156.40321920740072,-131.70576091821417Q160.40965116856492,-132.32624707668523 164.2272268352248,-132.75337486901395 L166.1360146685547,-132.9669387651783Q169.95359033521459,-133.39406655750702 172.02202293280635,-136.28531094728643 L173.0562392316022,-137.73093314217616Q175.12467182919397,-140.62217753195557 177.57980964702097,-143.13570876082795 L178.8073785559345,-144.39247437526416Q181.26251637376149,-146.90600560413654 186.19975964529357,-149.63983289315 L188.6683812810596,-151.0067465376567Q193.60562455259168,-153.74057382667016 197.1849282734525,-158.17860552616472 L198.9745801338829,-160.397621375912Q202.55388385474373,-164.83565307540655 202.55388385474373,-164.83565307540655 Z"/>
      <use xmlns:xlink="http://www.w3.org/1999/xlink" xlink:href="#Tree"
           x="264.4860097776965"
           y="-116.59597838223347 "/>
      <use xmlns:xlink="http://www.w3.org/1999/xlink" xlink:href="#TeeSet"
           x="-215.26403938185962"
           y="177.39224581977717"
           class="tees"
           transform="rotate(53.597384515926564 -215.26403938185962 177.39224581977717)"/>
      <use xmlns:xlink="http://www.w3.org/1999/xlink" xlink:href="#Flag"
           x="190.33424378665572"
           y="-121.66917856113358"
           transform="rotate(53.597384515926564 190.33424378665572 -121.66917856113358)"/>
   </g>
   <rect x="470" y="400" rx="4" ry="4" width="110" height="180" class="info-background"/>
   <text x="525" y="420" class="info-hole" text-anchor="middle">
					Hole 12</text>
   <text x="525" y="440" class="info-par" text-anchor="middle">
					Par 3</text>
   <circle cx="485.625" cy="457.1875" r="5.625" style="fill:blue"/>
   <text x="496.875" y="460" class="info-length">185 meters</text>
   <use xmlns:xlink="http://www.w3.org/1999/xlink" xlink:href="#Compass" x="550" y="50"
        transform="rotate(-53.597384515926564 550 50)"/>
   <use xmlns:xlink="http://www.w3.org/1999/xlink" xlink:href="#GolfMLLogoSmall" x="10"
        y="575"/>
</svg>