<?xml version="1.0" encoding="UTF-8"?>
<svg xmlns="http://www.w3.org/2000/svg" width="600" height="600">
   <defs>
      <style xmlns:g="http://code.google.com/p/golfml"
             xmlns:xlink="http://www.w3.org/1999/xlink"
             xmlns:xs="http://www.w3.org/2001/XMLSchema"
             type="text/css">
/* Stylesheet for SVG elements
 *
 *
 * Classes for area of interest (surfaces)
 *
 * DRAWING
 */
.background {
		fill: url(#background-gradient);
}

.hole-limits {
	fill: none;
	stroke: #ccc;
	stroke-width: 1px;
	stroke-dasharray: 10,10;
}

.hole-contour {
	fill: #030;
	stroke: #fff;
	stroke-width: 2px;
}


/* GROUND
 */
.fairway {
	fill: url(#fairway-pattern);
	stroke: #0b0;
	stroke-width: 3px; /* fairway fringe... */
}

.tee {
	fill: #00c800;
	stroke: #0f0;
	stroke-width: 1px;
}

.fringe {
	fill: #0A0;
}

.green {
	fill: url(#green-gradient);
	stroke: #0f0;
	stroke-width: 1px;
}

.semi-rough,
.light-rough {
	fill: #080;
	stroke: #08800D;
	stroke-width: 1px;
}

.rough {
	fill: url(#rough-gradient);
	stroke: #07660A;
	stroke-width: 1px;
}

.heavy-rough {
	fill: #040;
	stroke: #074D08;
	stroke-width: 1px;
}

.ground {
	fill: #7f400c;
	stroke: #fdcc6a;
	stroke-width: 1px;
}


/* WATER
 */
.lateral-water {
	fill: url(#lateral-water-gradient);
	stroke: red;
	stroke-width: 4px;
}

.front-water, .water {
	fill: #37f;
	stroke: yellow;
	stroke-width: 3px;
}


/* SPECIAL
 */
.under-repair {
	fill: none;
	stroke: #00d;
	stroke-width: 2px;
}

.out-of-bound { /* line only */
	fill: none;
	stroke: white;
	stroke-width: 4px;
}

.out-of-bound-area {
	fill: #ccc;
	stroke: white;
	stroke-width: 4px;
}


/* TRAPS
 */
.trap,
.bunker {
	fill: #92cf94;
	stroke: #4c994c;
	stroke-width: 1px;
}

.grass-trap,
.grass-bunker {
	fill: #050;
	stroke: #0A0;
	stroke-width: 1px;
}

.sand-trap,
.sand-bunker,
.greenside-trap,
.greenside-bunker {
	fill: #eec;
	stroke: #040;
	stroke-width: 2px;
}

.fairway-trap,
.fairway-bunker {
	fill: #eec;
	stroke: #030;
	stroke-width: 2px;
}


/* OBSTACLES
 */
.tree {
	fill: #062;
	stroke: #0c6;
	stroke-width: 1px;
}

.trees {
	fill: #062;
	stroke: #0c6;
	stroke-width: 1px;
}

.bush {
	fill: #00b259;
	stroke: #7f400c;
	stroke-width: 1px;
}


.path {
	fill: #666;
	stroke: #bbb;
	stroke-width: 1px;
}

.building,
.construction {
	fill: #fdcc6a;
	stroke: #7f400C;
	stroke-width: 1px;
}

.obstruction {
	fill: #555;
	stroke: #999;
	stroke-width: 1px;
}


.other {
	fill: #ddd;
	stroke: #666;
	stroke-width: 1px;
}

/* Classes for point of interest (points)
 *
 */
.dogleg {
	fill: #000;
}

.aim {
	fill: #fff;
	stroke: #f00;
	stroke-width: 1px;
}

.tees {
	fill: #00f;
}

.tees-hollow {
	stroke: #fff;
	stroke-width: 0.5px;
}

.hole {
	fill: #fff;
}

.distance-marker-100,
.distance-marker-close {
	fill: #44f;
	stroke: #00f;
	stroke-width: 1px;
}

.distance-marker-150,
.distance-marker-135,
.distance-marker,
.distance-marker-mid {
	fill: #f44;
	stroke: #f00;
	stroke-width: 1px;
}

.distance-marker-200,
.distance-marker-far {
	fill: #dd4;
	stroke: #ff0;
	stroke-width: 1px;
}

.green-region-delimiter {
	fill: none;
	stroke: #fff;
	stroke-width: 0.5;
	stroke-dasharray: 4,2;
}

.neutral {
	fill: none;
	stroke: #888;
	stroke-width: 1px;
}
.one-tree {
	fill: #14920D;
	stroke: #165822;
	stroke-width: 3px;
	stroke-linecap: round;
	stroke-linejoin: round; 
}

/* Classes for special decorative objects
 *
 */
.compass-center {
	fill: #ddd;
	stroke: #fff;
	stroke-width: 1px;
}
.compass-needle {
	fill: #ddd;
	stroke: #fff;
	stroke-width: 1px;
}
.compass-north {
	fill: #fff;
}
.flag-pole {
	fill: none;
	stroke: #f00;
	stroke-width: 2px;
}
.flag-flag {
	fill: #ff0;
	stroke: #f00;
	stroke-width: 1px;
}
.flag-cup {
	fill: #fff;
}
/* Information box */
.info-background {
	fill: #ddd;
}
.info-hole {
	font-family: Georgia, "Times New Roman", Times, serif;
	font-size: xx-large;
}
.info-par {
	font-family: Georgia, "Times New Roman", Times, serif;
	font-size: x-large;
}
.info-length {
	font-family: Georgia, "Times New Roman", Times, serif;
	font-size: large;
}
/* Circle for distances */
.circle-from-green {
	fill: none;
	stroke: #fff;
	stroke-width: 1px;
	stroke-dasharray: 4,4;
}
.circle-from-tee {
	fill: none;
	stroke: #f00;
	stroke-width: 1px;
	stroke-dasharray: 8,8;
}
/* Dynamic objects */
.target {
	fill: none;
	stroke: #f00;
	stroke-width: 2px;
}
.target-filled {
	fill: #f00;
	fill-opacity: 0.5;
	stroke: #f00;
}
.ball {
	fill: #fff;
	stroke: none;
}
.trajectory {
	fill: none;
	stroke: #fff;
	stroke-width: 2px;
}
.distance {
	fill: #fff;
}
</style>
      <linearGradient xmlns:g="http://code.google.com/p/golfml"
                      xmlns:xlink="http://www.w3.org/1999/xlink"
                      xmlns:xs="http://www.w3.org/2001/XMLSchema"
                      id="background-straight">
         <stop offset="5%" stop-color="#002"/>
         <stop offset="95%" stop-color="#004"/>
      </linearGradient>
      <linearGradient xmlns:g="http://code.google.com/p/golfml"
                      xmlns:xlink="http://www.w3.org/1999/xlink"
                      xmlns:xs="http://www.w3.org/2001/XMLSchema"
                      id="background-gradient"
                      gradientTransform="rotate(30)"
                      xlink:href="#background-straight"/>
      <linearGradient xmlns:g="http://code.google.com/p/golfml"
                      xmlns:xlink="http://www.w3.org/1999/xlink"
                      xmlns:xs="http://www.w3.org/2001/XMLSchema"
                      id="lateral-water-straight">
         <stop offset="5%" stop-color="#006"/>
         <stop offset="95%" stop-color="#008"/>
      </linearGradient>
      <linearGradient xmlns:g="http://code.google.com/p/golfml"
                      xmlns:xlink="http://www.w3.org/1999/xlink"
                      xmlns:xs="http://www.w3.org/2001/XMLSchema"
                      id="lateral-water-gradient"
                      gradientTransform="rotate(60)"
                      xlink:href="#lateral-water-straight"/>
      <linearGradient xmlns:g="http://code.google.com/p/golfml"
                      xmlns:xlink="http://www.w3.org/1999/xlink"
                      xmlns:xs="http://www.w3.org/2001/XMLSchema"
                      id="rough-straight">
         <stop offset="0%" stop-color="#030"/>
         <stop offset="25%" stop-color="#060"/>
         <stop offset="50%" stop-color="#040"/>
         <stop offset="75%" stop-color="#060"/>
         <stop offset="100%" stop-color="#080"/>
      </linearGradient>
      <linearGradient xmlns:g="http://code.google.com/p/golfml"
                      xmlns:xlink="http://www.w3.org/1999/xlink"
                      xmlns:xs="http://www.w3.org/2001/XMLSchema"
                      id="rough-gradient"
                      gradientTransform="rotate(70)"
                      xlink:href="#rough-straight"/>
      <linearGradient xmlns:g="http://code.google.com/p/golfml"
                      xmlns:xlink="http://www.w3.org/1999/xlink"
                      xmlns:xs="http://www.w3.org/2001/XMLSchema"
                      id="green-straight">
         <stop offset="0%" stop-color="#0d0"/>
         <stop offset="25%" stop-color="#0e0"/>
         <stop offset="50%" stop-color="#0c0"/>
         <stop offset="75%" stop-color="#0e0"/>
         <stop offset="100%" stop-color="#0b0"/>
      </linearGradient>
      <linearGradient xmlns:g="http://code.google.com/p/golfml"
                      xmlns:xlink="http://www.w3.org/1999/xlink"
                      xmlns:xs="http://www.w3.org/2001/XMLSchema"
                      id="green-gradient"
                      gradientTransform="rotate(75)"
                      xlink:href="#green-straight"/>
      <pattern xmlns:g="http://code.google.com/p/golfml"
               xmlns:xlink="http://www.w3.org/1999/xlink"
               xmlns:xs="http://www.w3.org/2001/XMLSchema"
               id="fairway-straight"
               patternUnits="userSpaceOnUse"
               x="0"
               y="0"
               width="20"
               height="20"
               viewBox="0 0 20 20">
         <rect x="0" y="0" width="10" height="10" fill="#00c000"/>
         <rect x="10" y="10" width="10" height="10" fill="#00c800"/>
         <rect x="10" y="0" width="10" height="10" fill="#00bc00"/>
         <rect x="0" y="10" width="10" height="10" fill="#00b800"/>
      </pattern>
      <pattern xmlns:g="http://code.google.com/p/golfml"
               xmlns:xlink="http://www.w3.org/1999/xlink"
               xmlns:xs="http://www.w3.org/2001/XMLSchema"
               id="fairway-pattern"
               patternTransform="rotate(60)"
               xlink:href="#fairway-straight"/>
      <g xmlns:g="http://code.google.com/p/golfml"
         xmlns:xlink="http://www.w3.org/1999/xlink"
         xmlns:xs="http://www.w3.org/2001/XMLSchema"
         id="Tree"
         transform="translate(-76 -66) scale(0.4)">
         <path class="one-tree"
               d="M191.991,126.799c-11.163,0-21.022,4.032-27.033,10.191c-17.556,0.615-31.556,11.151-31.556,24.079       c0,7.537,4.759,14.266,12.203,18.693c0.876,12.855,18.43,23.128,39.939,23.128c22.07,0,39.979-10.812,39.979-24.136       c0-0.065-0.012-0.13-0.013-0.195c6.33-2.866,10.33-6.992,10.33-11.595c0-4.806-4.343-9.104-11.164-11.977       c0.31-1.318,0.478-2.67,0.478-4.054C225.154,137.612,210.297,126.799,191.991,126.799z"/>
      </g>
      <g xmlns:g="http://code.google.com/p/golfml"
         xmlns:xlink="http://www.w3.org/1999/xlink"
         xmlns:xs="http://www.w3.org/2001/XMLSchema"
         id="TeeSet">
         <circle cx="-5" cy="0" r="2"/>
         <circle cx="5" cy="0" r="2"/>
      </g>
      <g xmlns:g="http://code.google.com/p/golfml"
         xmlns:xlink="http://www.w3.org/1999/xlink"
         xmlns:xs="http://www.w3.org/2001/XMLSchema"
         id="DistanceMarker">
         <circle r="6"/>
      </g>
      <g xmlns:g="http://code.google.com/p/golfml"
         xmlns:xlink="http://www.w3.org/1999/xlink"
         xmlns:xs="http://www.w3.org/2001/XMLSchema"
         id="Dogleg">
         <circle r="4"/>
      </g>
      <g xmlns:g="http://code.google.com/p/golfml"
         xmlns:xlink="http://www.w3.org/1999/xlink"
         xmlns:xs="http://www.w3.org/2001/XMLSchema"
         id="Aim">
         <circle r="4"/>
      </g>
      <g xmlns:g="http://code.google.com/p/golfml"
         xmlns:xlink="http://www.w3.org/1999/xlink"
         xmlns:xs="http://www.w3.org/2001/XMLSchema"
         id="Hole">
         <circle r="2"/>
      </g>
      <g xmlns:g="http://code.google.com/p/golfml"
         xmlns:xlink="http://www.w3.org/1999/xlink"
         xmlns:xs="http://www.w3.org/2001/XMLSchema"
         id="Ball">
         <image xlink:href="../stylesheets/images/golf-ball.png" width="16" height="16"
                transform="translate(-8 -8)"/>
      </g>
      <g xmlns:g="http://code.google.com/p/golfml"
         xmlns:xlink="http://www.w3.org/1999/xlink"
         xmlns:xs="http://www.w3.org/2001/XMLSchema"
         id="Target">
         <circle class="target-filled" r="12"/>
      </g>
      <g xmlns:g="http://code.google.com/p/golfml"
         xmlns:xlink="http://www.w3.org/1999/xlink"
         xmlns:xs="http://www.w3.org/2001/XMLSchema"
         id="Flag"
         transform="translate(0 -30) scale(-0.2 0.2)">
         <line id="FlagPole" class="flag-pole" x1="0.5" y1="0" x2="0.5" y2="150"/>
         <circle id="FlagCup" class="flag-cup" r="10" cx="0" cy="145"/>
         <g id="FlagFlag">
            <path class="flag-flag"
                  d="M55.339,45.968c-18.28-14.516-36.559,14.516-54.839,0c0-12.097,0-24.193,0-36.29        c18.28,14.516,36.559-14.516,54.839,0C55.339,21.774,55.339,33.871,55.339,45.968z"/>
         </g>
      </g>
      <g xmlns:g="http://code.google.com/p/golfml"
         xmlns:xlink="http://www.w3.org/1999/xlink"
         xmlns:xs="http://www.w3.org/2001/XMLSchema"
         id="Compass">
         <polygon id="CompassNeedle" class="compass-needle" points="0,30 -8,0 0,-20 8,0"/>
         <circle id="CompassCenter" class="compass-center" r="10"/>
         <text id="CompassNorth" class="compass-north" x="-4.7" y="40">N</text>
      </g>
      <g xmlns:g="http://code.google.com/p/golfml"
         xmlns:xlink="http://www.w3.org/1999/xlink"
         xmlns:xs="http://www.w3.org/2001/XMLSchema"
         id="GolfMLLogoSmall">
         <image xlink:href="../stylesheets/images/golfml-small.png" width="80" height="15"/>
      </g>
   </defs>
   <rect class="background" x="0" y="0" width="600" height="600"/>
   <g transform="translate(300,300) scale(-0.8512541801755465,0.8512541801755465) rotate(31.65165592711753)">
      <path class="hole-contour"
            d="M-84.145816285161,-260.1351814207187Q-84.145816285161,-260.1351814207187 -69.92246413773456,-230.36526607826352 L-62.81078806402134,-215.48030840703592Q-48.5874359165949,-185.71039306458073 -31.245379608179572,-176.79653928096243 L-22.574351453971914,-172.3396123891533Q-5.232295145556586,-163.425758605535 16.00494750197413,-114.69535642679305 L26.623568825739483,-90.33015533742208Q47.860811473270196,-41.59975315868013 97.14653386799245,51.609010715017746 L121.78939506535355,98.21339265186666Q171.0751174600758,191.42215652556453 176.16960128297336,230.39225481545316 L178.71684319442215,249.87730396039748Q183.8113270173197,288.8474022502861 176.80016535316815,293.3079448560984 L173.2945845210924,295.5382161590046Q166.28342285694083,299.9987587648169 140.10356191856326,256.8968065764098 L127.01363144937446,235.34583048220628Q100.83377051099689,192.2438782937992 92.30422583949795,169.86074087050324 L88.03945350374849,158.66917215885528Q79.50990883224955,136.2860347355593 48.03769007526289,93.32340008587587 L32.301580696769555,71.84208276103418Q0.8293619397828896,28.87944811135075 -19.976180590954453,4.37441390111475 L-30.37895185632312,-7.878103204003249Q-51.18449438706046,-32.38313741423925 -72.73925558673027,-69.90310377468019 L-83.51663618656517,-88.66308695490065Q-105.07139738623496,-126.18305331534158 -120.929005741049,-148.37396778760913 L-128.857809918456,-159.4694250237429Q-144.71541827327005,-181.66033949601047 -160.35378176002965,-203.2460814458533 L-168.17296350340948,-214.0389524207747Q-183.81132699016908,-235.62469437061756 -164.9346448098663,-261.375447032089 L-155.49630371971494,-274.25082336282475Q-136.61962153941218,-300.0015760242962 -115.6300994377117,-284.0550181828652 L-105.13533838686148,-276.0817392621497Q-84.145816285161,-260.1351814207187 -84.145816285161,-260.1351814207187 Z"/>
      <clipPath id="HoleContour" transform="scale(1.2)">
         <path class="hole-contour"
               d="M-84.145816285161,-260.1351814207187Q-84.145816285161,-260.1351814207187 -69.92246413773456,-230.36526607826352 L-62.81078806402134,-215.48030840703592Q-48.5874359165949,-185.71039306458073 -31.245379608179572,-176.79653928096243 L-22.574351453971914,-172.3396123891533Q-5.232295145556586,-163.425758605535 16.00494750197413,-114.69535642679305 L26.623568825739483,-90.33015533742208Q47.860811473270196,-41.59975315868013 97.14653386799245,51.609010715017746 L121.78939506535355,98.21339265186666Q171.0751174600758,191.42215652556453 176.16960128297336,230.39225481545316 L178.71684319442215,249.87730396039748Q183.8113270173197,288.8474022502861 176.80016535316815,293.3079448560984 L173.2945845210924,295.5382161590046Q166.28342285694083,299.9987587648169 140.10356191856326,256.8968065764098 L127.01363144937446,235.34583048220628Q100.83377051099689,192.2438782937992 92.30422583949795,169.86074087050324 L88.03945350374849,158.66917215885528Q79.50990883224955,136.2860347355593 48.03769007526289,93.32340008587587 L32.301580696769555,71.84208276103418Q0.8293619397828896,28.87944811135075 -19.976180590954453,4.37441390111475 L-30.37895185632312,-7.878103204003249Q-51.18449438706046,-32.38313741423925 -72.73925558673027,-69.90310377468019 L-83.51663618656517,-88.66308695490065Q-105.07139738623496,-126.18305331534158 -120.929005741049,-148.37396778760913 L-128.857809918456,-159.4694250237429Q-144.71541827327005,-181.66033949601047 -160.35378176002965,-203.2460814458533 L-168.17296350340948,-214.0389524207747Q-183.81132699016908,-235.62469437061756 -164.9346448098663,-261.375447032089 L-155.49630371971494,-274.25082336282475Q-136.61962153941218,-300.0015760242962 -115.6300994377117,-284.0550181828652 L-105.13533838686148,-276.0817392621497Q-84.145816285161,-260.1351814207187 -84.145816285161,-260.1351814207187 Z"/>
      </clipPath>
      <path class="tee"
            d="M153.1232665209343,243.71439827104152Q153.1232665209343,243.71439827104152 155.12927857183553,244.3943572062884 L156.13228459728612,244.7343366739118Q158.13829664818735,245.41429560915867 160.171707368518,247.1399781163898 L161.18841272868337,248.00281937000537Q163.22182344901404,249.7285018772365 168.44941537892598,257.5444978932721 L171.06321134388193,261.4524959012898Q176.29080327379387,269.2684919173254 177.6136866830927,275.82638212348536 L178.27512838774211,279.1053272265653Q179.59801179704095,285.6632174327253 175.04080367236796,287.45687035251177 L172.76219961003147,288.35369681240496Q168.20499148535848,290.14734973219146 166.33688907771804,286.7430484151382 L165.4028378738978,285.04089775661157Q163.53473546625736,281.63659643955833 160.18390989961986,273.5621729018 L158.5084971163011,269.5249611329208Q155.1576715496636,261.4505375951625 152.82194805138144,256.1748935785053 L151.65408630224036,253.5370715701767Q149.3183628039582,248.2614275535195 150.84032429074864,246.4426158405283 L151.60130503414385,245.5332099840327Q153.1232665209343,243.71439827104152 153.1232665209343,243.71439827104152 Z"/>
      <path class="tee"
            d="M145.92740730355666,178.76184024247794Q145.92740730355666,178.76184024247794 142.82864635035392,180.3080443806124 L141.27926587375256,181.0811464496796Q138.18050492054982,182.62735058781405 136.3288001102292,179.85045243223303 L135.40294770506887,178.4620033544425Q133.55124289474824,175.68510519886146 136.01161640537333,173.73704308281233 L137.2418031606859,172.7630120247878Q139.70217667131098,170.81494990873867 142.19226892420926,173.99370604223438 L143.43731505065838,175.58308410898223Q145.92740730355666,178.76184024247794 145.92740730355666,178.76184024247794 Z"/>
      <path class="fairway"
            d="M-89.16507693614703,-200.9475129850457Q-89.16507693614703,-200.9475129850457 -81.71053931427035,-193.57314496447174 L-77.98327050333202,-189.88596095418472Q-70.52873288145534,-182.51159293361076 -65.08528276917158,-175.23895038036798 L-62.3635577130297,-171.60262910374658Q-56.920107600745936,-164.3299865505038 -49.425156045560534,-155.4117939500572 L-45.67768026796783,-150.95269764983388Q-38.18272871278243,-142.03450504938726 -32.499930880446605,-131.52390120146222 L-29.658531964278694,-126.26859927749972Q-23.975734131942872,-115.75799542957469 -20.60465708109215,-105.03228587088299 L-18.919118555666785,-99.66943109153715Q-15.548041504816062,-88.94372153284544 -9.61323135851308,-80.60257761110145 L-6.64582628536159,-76.43200565022947Q-0.711016139058607,-68.09086172848548 7.710056766541497,-59.19696068010596 L11.92059321934155,-54.7500101559162Q20.341666124941653,-45.856109107536675 26.26482901664148,-43.848599669431636 L29.226410462491398,-42.84484495037911Q35.149573354191226,-40.83733551227407 39.33697278165988,-28.433698781664745 L41.43067249539421,-22.231880416360084Q45.61807192286287,-9.828243685750758 52.64904989893055,4.972627775082335 L56.164538886964394,12.37306350549888Q63.195516863032076,27.173934966331974 71.70549093059165,39.46427747522132 L75.96047796437144,45.60944872966599Q84.47045203193102,57.89979123855534 92.37096404277492,70.5151175997681 L96.32122004819688,76.8227807803745Q104.22173205904078,89.43810714158727 102.59581387861874,98.13193826088346 L101.78285478840773,102.47885382053155Q100.1569366079857,111.17268493982775 96.2402135860593,114.98298168040552 L94.28185207509608,116.88813005069441Q90.36512905316968,120.69842679127218 86.68432776633259,121.72180572182727 L84.84392712291404,122.23349518710482Q81.16312583607694,123.2568741176599 71.56849305900614,110.84048324964473 L66.77117667047075,104.63228781563714Q57.17654389339995,92.21589694762197 50.41736607813888,81.88803143548915 L47.037777170508356,76.72409867942275Q40.27859935524729,66.39623316728994 32.67867072604374,53.464170212905394 L28.878706411441968,46.99813873571313Q21.278777782238418,34.066075781328585 15.912997067860902,23.856197936299964 L13.230106710672143,18.75125901378565Q7.864325996294627,8.541381168757026 4.729203650169415,-4.971212343200216 L3.16164247710681,-11.727509099178832Q0.02652013098159853,-25.240102611136074 -2.5245464583048136,-28.262932131135585 L-3.8000797529480197,-29.774346891135345Q-6.351146342234432,-32.797176411134856 -8.670909145492798,-32.890821468309454 L-9.830790547121982,-32.937643996896746Q-12.15055335038035,-33.031289054071344 -19.231316771570324,-37.943627028191365 L-22.77169848216531,-40.39979601525137Q-29.852461903355284,-45.31213398937139 -34.25156927872871,-54.00249157543106 L-36.451122966415426,-58.34767036846089Q-40.85023034178885,-67.03802795452056 -47.14600460059731,-83.2485197100911 L-50.29389173000153,-91.35376558787635Q-56.58966598880999,-107.5642573434469 -59.60344801353349,-116.44548117481085 L-61.11033902589524,-120.88609309049282Q-64.12412105061874,-129.76731692185678 -68.93381785518365,-136.43859805258532 L-71.33866625746609,-139.77423861794958Q-76.148363062031,-146.44551974867812 -83.39581888187284,-151.81692386494086 L-87.01954679179376,-154.5026259230722Q-94.2670026116356,-159.87403003933494 -98.37370099110281,-169.19007504988954 L-100.4270501808364,-173.84809755516687Q-104.53374856030361,-183.16414256572148 -109.4047372920665,-186.28057715232228 L-111.84023165794794,-187.83879444562265Q-116.71122038971083,-190.95522903222346 -119.65667647676376,-191.34138686797638 L-121.12940452029022,-191.53446578585286Q-124.07486060734315,-191.92062362160578 -125.53319875788851,-194.508666258427 L-126.26236783316118,-195.80268757683766Q-127.72070598370654,-198.39073021365888 -128.87028006047558,-200.98687896278776 L-129.44506709886008,-202.28495333735222Q-130.5946411756291,-204.8811020864811 -133.75526961606292,-207.57895476324606 L-135.3355838362798,-208.92788110162854Q-138.4962122767136,-211.6257337783935 -142.82709598979582,-211.8210248302958 L-144.99253784633692,-211.91867035624696Q-149.32342155941913,-212.11396140814927 -150.6719658046135,-216.40428070315872 L-151.34623792721072,-218.54944035066342Q-152.6947821724051,-222.83975964567287 -150.8052877335837,-227.3695794764142 L-149.860540514173,-229.63448939178485Q-147.9710460753516,-234.16430922252619 -144.21270512415802,-238.1252290879386 L-142.3335346485612,-240.10568902064483Q-138.5751936973676,-244.06660888605725 -133.20815453169536,-245.59789965657373 L-130.52463494885924,-246.36354504183194Q-125.157595783187,-247.89483581234842 -119.70952714602257,-246.33842938521775 L-116.98549282744034,-245.56022617165243Q-111.5374241902759,-244.00381974452176 -106.97517242168098,-240.87925194712707 L-104.69404653738353,-239.31696804842974Q-100.13179476878861,-236.19240025103505 -97.03238564125853,-229.93963981242507 L-95.4826810774935,-226.81325959312008Q-92.38327194996342,-220.5604991545101 -91.20131272279772,-216.72927077973955 L-90.61033310921489,-214.81365659235428Q-89.4283738820492,-210.98242821758373 -89.32305510368833,-206.96846212456853 L-89.2703957145079,-204.9614790780609Q-89.16507693614703,-200.9475129850457 -89.16507693614703,-200.9475129850457 Z"/>
      <path class="other"
            d="M-138.95432112486114,-210.07158945440258Q-138.95432112486114,-210.07158945440258 -138.20577476108517,-209.6306380842457 L-137.83150157919715,-209.41016239916723Q-137.08295521542118,-208.96921102901035 -135.80272177192637,-207.5749542957646 L-135.162605050179,-206.87782592914175Q-133.8823716066842,-205.483569195896 -133.24654860494468,-204.07239448395669 L-132.9286371040749,-203.36680712798704Q-132.2928141023354,-201.95563241604773 -132.07487644528797,-200.67166877463757 L-131.96590761676427,-200.02968695393247Q-131.74796995971684,-198.7457233125223 -130.81047754559998,-198.12549113170863 L-130.34173133854156,-197.81537504130182Q-129.4042389244247,-197.19514286048815 -128.91979068241858,-196.28665695003787 L-128.67756656141552,-195.83241399481275Q-128.1931183194094,-194.92392808436247 -128.35307743191976,-193.99852648819572 L-128.4330569881749,-193.53582569011232Q-128.59301610068528,-192.61042409394557 -129.85284195320898,-191.47190923686955 L-130.48275487947086,-190.90265180833154Q-131.74258073199456,-189.76413695125552 -133.15861108857447,-189.31242289157342 L-133.86662626686442,-189.08656586173234Q-135.28265662344432,-188.63485180205024 -136.739755743206,-189.74810249150553 L-137.46830530308682,-190.30472783623318Q-138.9254044228485,-191.41797852568848 -139.83981864467546,-192.9139575342721 L-140.29702575558892,-193.66194703856394Q-141.2114399774159,-195.15792604714755 -141.45112173402248,-197.27040145584763 L-141.57096261232576,-198.32663916019766Q-141.81064436893234,-200.43911456889774 -142.71298105926678,-201.474808896646 L-143.16414940443397,-201.99265606052018Q-144.0664860947684,-203.02835038826845 -144.0627346890532,-204.64055558809804 L-144.0608589861956,-205.44665818801283Q-144.0571075804804,-207.05886338784242 -143.30239454846924,-208.1380623350767 L-142.92503803246368,-208.67766180869384Q-142.17032500045252,-209.75686075592813 -140.88392345021597,-209.88275223531792 L-140.2407226750977,-209.9456979750128Q-138.95432112486114,-210.07158945440258 -138.95432112486114,-210.07158945440258 Z"/>
      <path class="other"
            d="M-9.15623547619607,-24.691757432252412Q-9.15623547619607,-24.691757432252412 -8.281133628463708,-25.009183977970025 L-7.843582704597527,-25.167897250828833Q-6.968480856865164,-25.485323796546446 -5.487854052863246,-25.17078604577465 L-4.7475406508622875,-25.013517170388752Q-3.2669138468603687,-24.698979419616958 -2.528246154732536,-23.481556654146324 L-2.1589123086686195,-22.87284527141101Q-1.4202446165407867,-21.655422505940376 -1.760354249456948,-20.026891243160005 L-1.9304090659150286,-19.21262561176982Q-2.27051869883119,-17.58409434898945 -3.6025651414813797,-16.724630111716785 L-4.268588362806474,-16.29489799308045Q-5.600634805456664,-15.435433755807786 -6.863691995375211,-15.313965302899117 L-7.495220590334485,-15.253231076444782Q-8.758277780253032,-15.131762623536114 -9.72155974992291,-15.931027292692157 L-10.20320073475785,-16.33065962727018Q-11.166482704427729,-17.12992429642622 -11.69838869764126,-18.32332033562153 L-11.964341694248024,-18.920018355219185Q-12.496247687461555,-20.113414394414495 -11.903743460978918,-21.10072125475385 L-11.6074913477376,-21.594374684923526Q-11.014987121254963,-22.58168154526288 -10.271486463231406,-23.425711900058694 L-9.899736134219626,-23.8477270774566Q-9.15623547619607,-24.691757432252412 -9.15623547619607,-24.691757432252412 Z"/>
      <path class="other"
            d="M24.37096749967561,-80.85467372378527Q24.37096749967561,-80.85467372378527 25.998457652514023,-77.61923122717198 L26.812202728933226,-76.00150997886534Q28.439692881771638,-72.76606748225205 26.755932018458523,-70.79361608319255 L25.914051586801964,-69.80739038366279Q24.23029072348885,-67.83493898460328 22.521268107412418,-66.82597629266944 L21.6667567993742,-66.32149494670253Q19.957734183297767,-65.31253225476868 18.87009989264619,-66.34457882986321 L18.326282747320406,-66.86060211741047Q17.23864845666883,-67.89264869250499 16.74208235612788,-72.12189373229045 L16.493799305857408,-74.23651625218318Q15.997233205316457,-78.46576129196863 14.676472397961856,-81.0343385350347 L14.016091994284556,-82.31862715656773Q12.695331186929955,-84.8872043996338 14.80491462120899,-85.32818279747806 L15.85970633834851,-85.54867199640019Q17.969289772627544,-85.98965039424445 18.301289793911916,-84.35929804877887 L18.4672898045541,-83.54412187604609Q18.79928982583847,-81.91376953058051 19.59535079644678,-80.97049112846383 L19.993381281750935,-80.49885192740548Q20.789442252359244,-79.5555735252888 22.22205235128579,-80.07521360468739 L22.938357400749066,-80.33503364438668Q24.37096749967561,-80.85467372378527 24.37096749967561,-80.85467372378527 Z"/>
      <path class="other"
            d="M-66.56033108871874,-229.64544550513872Q-66.56033108871874,-229.64544550513872 -67.18690874073755,-227.7966764098865 L-67.50019756674696,-226.8722918622604Q-68.12677521876577,-225.02352276700816 -66.24764334400076,-223.24049722001777 L-65.30807740661825,-222.3489844465226Q-63.42894553185325,-220.5659588995322 -62.5186050576868,-218.95039136646415 L-62.06343482060357,-218.1426075999301Q-61.153094346437115,-216.52704006686204 -61.97747412329856,-214.86596019779503 L-62.38966401172928,-214.0354202632615Q-63.21404378859073,-212.3743403941945 -62.88700105176439,-210.9363470389372 L-62.72347968335122,-210.21735036130855Q-62.39643694652489,-208.77935700605127 -60.953366998467885,-208.91365602958209 L-60.231832024439385,-208.98080554134748Q-58.78876207638238,-209.1151045648783 -55.66942623127624,-207.84680691639565 L-54.109758308723165,-207.21265809215436Q-50.99042246361702,-205.9443604436717 -52.09633821119953,-203.98658395815687 L-52.64929608499079,-203.00769571539948Q-53.755211832573295,-201.04991922988464 -52.27675170698725,-199.83501047514056 L-51.53752164419423,-199.22755609776854Q-50.05906151860818,-198.01264734302447 -48.92786473297395,-199.0067055251865 L-48.362266340156836,-199.5037346162675Q-47.231069554522605,-200.49779279842954 -45.0855817990969,-199.58969588658417 L-44.012837921384055,-199.13564743066146Q-41.86735016595835,-198.2275505188161 -42.656341843391985,-195.21727247184515 L-43.0508376821088,-193.71213344835968Q-43.839829359542435,-190.70185540138874 -42.46532880011021,-189.7735336098947 L-41.7780785203941,-189.30937271414768Q-40.40357796096187,-188.38105092265366 -38.29853938007446,-189.0148983902854 L-37.24602008963076,-189.33182212410128Q-35.14098150874335,-189.96566959173302 -34.30427516229111,-187.4802303850935 L-33.88592198906499,-186.23751078177378Q-33.04921564261275,-183.75207157513427 -30.345719649674262,-183.6301106027107 L-28.99397165320502,-183.56913011649888Q-26.29047566026653,-183.4471691440753 -24.12192419356746,-185.33637041740724 L-23.037648460217927,-186.28097105407318Q-20.869096993518855,-188.1701723274051 -18.193727644269888,-185.44364357934242 L-16.856042969645404,-184.0803792053111Q-14.180673620396437,-181.3538504572484 -16.235159549030776,-178.7925791221762 L-17.262402513347947,-177.51194345464006Q-19.316888441982286,-174.95067211956786 -16.48416505229639,-173.57840096131454 L-15.067803357453442,-172.8922653821879Q-12.235079967767545,-171.5199942239346 -8.808957125486245,-169.584656385433 L-7.095895704345596,-168.6169874661822Q-3.669772862064296,-166.6816496276806 -2.270008185021267,-164.78960274110608 L-1.5701258464997527,-163.84357929781882Q-0.17036116945672372,-161.9515324112443 -0.7817848456418159,-159.5245544904028 L-1.0874966837343618,-158.31106552998205Q-1.698920359919454,-155.88408760914055 -3.4819780058002623,-154.0050088042508 L-4.373506828740666,-153.06546940180593Q-6.156564474621475,-151.18639059691617 -8.340275104870372,-149.8754280804783 L-9.43213041999482,-149.21994682225932Q-11.615841050243716,-147.90898430582143 -14.265921215783367,-149.67179425213314 L-15.590961298553191,-150.55319922528898Q-18.24104146409284,-152.31600917160068 -19.463229377128865,-154.7913337941596 L-20.07432333364688,-156.02899610543906Q-21.296511246682904,-158.504320727998 -18.94533038299729,-160.78405767466938 L-17.769739951154484,-161.92392614800508Q-15.41855908746887,-164.20366309467647 -17.886010979914726,-166.35701426448477 L-19.119736926137655,-167.43368984938894Q-21.58718881858351,-169.58704101919724 -23.370244170116244,-167.70795355461186 L-24.26177184588261,-166.76840982231914Q-26.044827197415344,-164.88932235773376 -28.971396164069457,-166.1626846429927 L-30.434680647396515,-166.79936578562214Q-33.36124961405063,-168.07272807088108 -32.567199697091766,-170.89025573439633 L-32.17017473861234,-172.29901956615396Q-31.37612482165348,-175.1165472296692 -32.83435493908824,-175.5604844511832 L-33.563469997805626,-175.7824530619402Q-35.02170011524039,-176.2263902834542 -37.95617116375523,-174.1242164347851 L-39.423406688012655,-173.07312951045054Q-42.35787773652749,-170.97095566178143 -44.32072416656504,-172.2695923597767 L-45.30214738158382,-172.91891070877432Q-47.26499381162137,-174.2175474067696 -47.15819773174228,-177.49923802621444 L-47.10479969180273,-179.14008333593688Q-46.998003611923636,-182.42177395538172 -48.87206493171826,-184.01205417089122 L-49.80909559161558,-184.80719427864594Q-51.68315691141021,-186.39747449415543 -52.82162898064226,-189.35718487343897 L-53.390865015258285,-190.83704006308076Q-54.52933708449034,-193.7967504423643 -55.83811013326683,-192.21940565320486 L-56.49249665765508,-191.4307332586251Q-57.801269706431576,-189.85338846946567 -60.4693752039552,-188.62613064769755 L-61.803427952717016,-188.01250173681348Q-64.47153345024064,-186.78524391504536 -65.77747451788309,-188.77617687284283 L-66.43044505170431,-189.77164335174157Q-67.73638611934676,-191.76257630953904 -68.96871116997585,-194.62338457561006 L-69.58487369529038,-196.05378870864558Q-70.81719874591947,-198.9145969747166 -69.43986538054672,-201.55456654925015 L-68.75119869786033,-202.87455133651693Q-67.37386533248758,-205.51452091105048 -69.78066634896716,-205.3549324645579 L-70.98406685720694,-205.27513824131157Q-73.39086787368652,-205.11554979481897 -74.59285839301182,-206.81989883026452 L-75.19385365267448,-207.67207334798732Q-76.39584417199978,-209.37642238343287 -74.17896026461545,-213.09924465115213 L-73.0705183109233,-214.9606557850118Q-70.85363440353898,-218.68347805273106 -70.88397605391197,-219.8399443345362 L-70.89914687909847,-220.41817747543877Q-70.92948852947146,-221.5746437572439 -72.28883024165562,-221.92473025041227 L-72.9685010977477,-222.09977349699642Q-74.32784280993187,-222.44985999016478 -75.70741299515862,-223.57092245940862 L-76.39719808777198,-224.13145369403054Q-77.77676827299874,-225.25251616327438 -76.87371408881336,-227.59073272121302 L-76.42218699672068,-228.75984100018232Q-75.5191328125353,-231.09805755812096 -74.10134170981783,-232.1960839267551 L-73.39244615845908,-232.7450971110722Q-71.97465505574161,-233.84312347970635 -69.80892546893246,-232.1640522898793 L-68.72606067552789,-231.32451669496578Q-66.56033108871874,-229.64544550513872 -66.56033108871874,-229.64544550513872 Z"/>
      <path class="fairway-trap"
            d="M-29.831552383983492,-38.28426958752551Q-29.831552383983492,-38.28426958752551 -28.210732576759852,-38.23844293235481 L-27.400322673148036,-38.215529604769465Q-25.779502865924396,-38.169702949598765 -24.434433418186078,-37.40990000967348 L-23.761898694316915,-37.02999853971083Q-22.416829246578597,-36.270195599785545 -21.761036433874697,-34.84446797630884 L-21.433140027522743,-34.13160416457048Q-20.777347214818843,-32.70587654109378 -21.102690413982177,-31.637231856669537 L-21.26536201356384,-31.10290951445742Q-21.590705212727176,-30.034264830033177 -23.010260178695944,-29.14305216920265 L-23.72003766168033,-28.697445838787385Q-25.139592627649098,-27.80623317795686 -26.449156538150117,-27.212379909927662 L-27.10393849340063,-26.915453275913066Q-28.41350240390165,-26.32160000788387 -29.787226240122322,-27.05120096837712 L-30.474088158232657,-27.416001448623742Q-31.84781199445333,-28.145602409116993 -32.886933513205754,-29.590720239667686 L-33.40649427258196,-30.313279154943032Q-34.44561579133438,-31.758396985493725 -33.846069609349186,-33.5998712676701 L-33.54629651835659,-34.5206084087583Q-32.946750336371394,-36.36208269093468 -31.700671155416234,-37.13095744957101 L-31.077631564938653,-37.51539482888918Q-29.831552383983492,-38.28426958752551 -29.831552383983492,-38.28426958752551 Z"/>
      <path class="fairway-trap"
            d="M-4.565650282255482,-6.849195517435984Q-4.565650282255482,-6.849195517435984 -3.0625457587280343,-6.800272870518938 L-2.310993496964311,-6.775811547060416Q-0.8078889734368632,-6.72688890014337 -0.01808559846691593,-5.805283769241029 L0.3768160890180575,-5.344481203789858Q1.1666194639880048,-4.422876072887517 1.256343107396561,-3.2473316846714138 L1.3012049291008392,-2.659559490563362Q1.3909285725093954,-1.4840151023472594 0.42281524775221846,-0.22183304364161027 L-0.06124141462636956,0.40925798571121397Q-1.0293547393835465,1.6714400444168631 -2.448906803467432,2.562644255142332 L-3.158682835509375,3.008246360505066Q-4.5782348995932605,3.8994505712305347 -6.081337102901243,3.850529238841429 L-6.832888204555234,3.826068572646877Q-8.335990407863216,3.7771472402577713 -8.997952212006089,2.116005090195218 L-9.328933114077525,1.2854340151639414Q-9.990894918220398,-0.37570813489861227 -9.155927626820542,-2.2233482418933757 L-8.738443981120616,-3.147168295390758Q-7.90347668972076,-4.994808402385521 -6.568346126734649,-5.736563248405706 L-5.900780845241593,-6.107440671415799Q-4.565650282255482,-6.849195517435984 -4.565650282255482,-6.849195517435984 Z"/>
      <path class="green"
            d="M-127.64434588787606,-244.2228255102112Q-127.64434588787606,-244.2228255102112 -125.1866665307664,-243.59643353543476 L-123.95782685221158,-243.28323754804654Q-121.50014749510193,-242.6568455732701 -116.84164532521373,-240.66034806544744 L-114.51239424026964,-239.66209931153608Q-109.85389207038145,-237.66560180371343 -106.65143160218055,-234.98603331568376 L-105.0502013680801,-233.64624907166893Q-101.8477408998792,-230.96668058363926 -100.85710782068966,-228.3211832708274 L-100.3617912810949,-226.99843461442146Q-99.37115820190536,-224.3529373016096 -97.97230311920245,-221.94845403660068 L-97.27287557785098,-220.74621240409624Q-95.87402049514807,-218.34172913908733 -95.29644833588291,-215.63933164299286 L-95.00766225625034,-214.28813289494562Q-94.43009009698518,-211.58573539885114 -94.63622248853021,-208.90883316892214 L-94.73928868430271,-207.57038205395764Q-94.94542107584773,-204.89347982402865 -96.64622570757841,-203.0064354747649 L-97.49662802344376,-202.06291330013306Q-99.19743265517444,-200.17586895086933 -100.85824419985168,-198.52017314325602 L-101.6886499721903,-197.69232523944933Q-103.34946151686755,-196.03662943183602 -105.39782654091688,-195.10772531633617 L-106.42200905294155,-194.64327325858622Q-108.47037407699088,-193.71436914308637 -110.64461368241435,-194.0718421384099 L-111.73173348512609,-194.25057863607165Q-113.90597309054955,-194.60805163139517 -116.04022178427432,-195.1968735985586 L-117.10734613113671,-195.49128458214034Q-119.24159482486148,-196.08010654930376 -120.81383256582696,-196.31519706827999 L-121.59995143630968,-196.4327423277681Q-123.17218917727516,-196.66783284674432 -124.84614766903026,-197.26873349311114 L-125.6831269149078,-197.56918381629453Q-127.3570854066629,-198.17008446266135 -128.58041559816704,-199.15129511894932 L-129.1920806939191,-199.6419004470933Q-130.41541088542323,-200.62311110338126 -129.8072382216893,-202.02088170860327 L-129.5031518898223,-202.7197670112143Q-128.89497922608837,-204.1175376164363 -130.46346560352183,-205.96483084670473 L-131.24770879223854,-206.88847746183896Q-132.816195169672,-208.7357706921074 -134.56155167171826,-210.30205968266165 L-135.43422992274137,-211.08520417793878Q-137.17958642478763,-212.65149316849303 -138.57495847042955,-213.16758334489876 L-139.27264449325054,-213.42562843310162Q-140.66801653889246,-213.94171860950735 -142.4678617783915,-215.82899772806496 L-143.367784398141,-216.7726372873438Q-145.16762963764003,-218.6599164059014 -145.7186463585093,-220.34967978295433 L-145.9941547189439,-221.1945614714808Q-146.54517143981315,-222.8843248485337 -145.0695641903185,-226.33152918672027 L-144.33176056557116,-228.05513135581356Q-142.8561533160765,-231.50233569400012 -140.26375615777022,-234.51825531197275 L-138.96755757861706,-236.02621512095905Q-136.37516042031078,-239.04213473893168 -132.8828346073369,-241.1144110474435 L-131.13667170084994,-242.1505492016994Q-127.64434588787606,-244.2228255102112 -127.64434588787606,-244.2228255102112 Z"/>
      <use xmlns:xlink="http://www.w3.org/1999/xlink" xlink:href="#TeeSet"
           x="156.57462733999523"
           y="230.48126242386738"
           class="tees"
           transform="rotate(-31.65165592711753 156.57462733999523 230.48126242386738)"/>
      <use xmlns:xlink="http://www.w3.org/1999/xlink" xlink:href="#Flag"
           x="-120.48763076834366"
           y="-218.9685630555671"
           transform="rotate(-31.65165592711753 -120.48763076834366 -218.9685630555671)"/>
      <g clip-path="url(#HoleContour)">
         <circle cx="156.57462733999523" cy="230.48126242386738" r="152.68538022685874"
                 class="circle-from-tee"/>
         <circle cx="156.57462733999523" cy="230.48126242386738" r="229.0280703402881"
                 class="circle-from-tee"/>
         <circle cx="156.57462733999523" cy="230.48126242386738" r="305.3707604537175"
                 class="circle-from-tee"/>
         <circle cx="-120.48763076834366" cy="-218.9685630555671" r="152.68538022685874"
                 class="circle-from-green"/>
         <circle cx="-120.48763076834366" cy="-218.9685630555671" r="229.0280703402881"
                 class="circle-from-green"/>
         <circle cx="-120.48763076834366" cy="-218.9685630555671" r="305.3707604537175"
                 class="circle-from-green"/>
      </g>
   </g>
   <rect x="470" y="400" rx="4" ry="4" width="110" height="180" class="info-background"/>
   <text x="525" y="420" class="info-hole" text-anchor="middle">
					Hole 7</text>
   <text x="525" y="440" class="info-par" text-anchor="middle">
					Par 4</text>
   <circle cx="485.625" cy="457.1875" r="5.625" style="fill:blue"/>
   <text x="496.875" y="460" class="info-length">371 meters</text>
   <use xmlns:xlink="http://www.w3.org/1999/xlink" xlink:href="#Compass" x="550" y="50"
        transform="rotate(31.65165592711753 550 50)"/>
   <use xmlns:xlink="http://www.w3.org/1999/xlink" xlink:href="#GolfMLLogoSmall" x="10"
        y="575"/>
</svg>