<?xml version="1.0" encoding="UTF-8"?>
<svg xmlns="http://www.w3.org/2000/svg" width="600" height="600">
   <defs>
      <style xmlns:g="http://code.google.com/p/golfml"
             xmlns:xlink="http://www.w3.org/1999/xlink"
             xmlns:xs="http://www.w3.org/2001/XMLSchema"
             type="text/css">
/* Stylesheet for SVG elements
 *
 *
 * Classes for area of interest (surfaces)
 *
 * DRAWING
 */
.background {
		fill: url(#background-gradient);
}

.hole-limits {
	fill: none;
	stroke: #ccc;
	stroke-width: 1px;
	stroke-dasharray: 10,10;
}

.hole-contour {
	fill: #030;
	stroke: #fff;
	stroke-width: 2px;
}


/* GROUND
 */
.fairway {
	fill: url(#fairway-pattern);
	stroke: #0b0;
	stroke-width: 3px; /* fairway fringe... */
}

.tee {
	fill: #00c800;
	stroke: #0f0;
	stroke-width: 1px;
}

.fringe {
	fill: #0A0;
}

.green {
	fill: url(#green-gradient);
	stroke: #0f0;
	stroke-width: 1px;
}

.semi-rough,
.light-rough {
	fill: #080;
	stroke: #08800D;
	stroke-width: 1px;
}

.rough {
	fill: url(#rough-gradient);
	stroke: #07660A;
	stroke-width: 1px;
}

.heavy-rough {
	fill: #040;
	stroke: #074D08;
	stroke-width: 1px;
}

.ground {
	fill: #7f400c;
	stroke: #fdcc6a;
	stroke-width: 1px;
}


/* WATER
 */
.lateral-water {
	fill: url(#lateral-water-gradient);
	stroke: red;
	stroke-width: 4px;
}

.front-water, .water {
	fill: #37f;
	stroke: yellow;
	stroke-width: 3px;
}


/* SPECIAL
 */
.under-repair {
	fill: none;
	stroke: #00d;
	stroke-width: 2px;
}

.out-of-bound { /* line only */
	fill: none;
	stroke: white;
	stroke-width: 4px;
}

.out-of-bound-area {
	fill: #ccc;
	stroke: white;
	stroke-width: 4px;
}


/* TRAPS
 */
.trap,
.bunker {
	fill: #92cf94;
	stroke: #4c994c;
	stroke-width: 1px;
}

.grass-trap,
.grass-bunker {
	fill: #050;
	stroke: #0A0;
	stroke-width: 1px;
}

.sand-trap,
.sand-bunker,
.greenside-trap,
.greenside-bunker {
	fill: #eec;
	stroke: #040;
	stroke-width: 2px;
}

.fairway-trap,
.fairway-bunker {
	fill: #eec;
	stroke: #030;
	stroke-width: 2px;
}


/* OBSTACLES
 */
.tree {
	fill: #062;
	stroke: #0c6;
	stroke-width: 1px;
}

.trees {
	fill: #062;
	stroke: #0c6;
	stroke-width: 1px;
}

.bush {
	fill: #00b259;
	stroke: #7f400c;
	stroke-width: 1px;
}


.path {
	fill: #666;
	stroke: #bbb;
	stroke-width: 1px;
}

.building,
.construction {
	fill: #fdcc6a;
	stroke: #7f400C;
	stroke-width: 1px;
}

.obstruction {
	fill: #555;
	stroke: #999;
	stroke-width: 1px;
}


.other {
	fill: #ddd;
	stroke: #666;
	stroke-width: 1px;
}

/* Classes for point of interest (points)
 *
 */
.dogleg {
	fill: #000;
}

.aim {
	fill: #fff;
	stroke: #f00;
	stroke-width: 1px;
}

.tees {
	fill: #00f;
}

.tees-hollow {
	stroke: #fff;
	stroke-width: 0.5px;
}

.hole {
	fill: #fff;
}

.distance-marker-100,
.distance-marker-close {
	fill: #44f;
	stroke: #00f;
	stroke-width: 1px;
}

.distance-marker-150,
.distance-marker-135,
.distance-marker,
.distance-marker-mid {
	fill: #f44;
	stroke: #f00;
	stroke-width: 1px;
}

.distance-marker-200,
.distance-marker-far {
	fill: #dd4;
	stroke: #ff0;
	stroke-width: 1px;
}

.green-region-delimiter {
	fill: none;
	stroke: #fff;
	stroke-width: 0.5;
	stroke-dasharray: 4,2;
}

.neutral {
	fill: none;
	stroke: #888;
	stroke-width: 1px;
}
.one-tree {
	fill: #14920D;
	stroke: #165822;
	stroke-width: 3px;
	stroke-linecap: round;
	stroke-linejoin: round; 
}

/* Classes for special decorative objects
 *
 */
.compass-center {
	fill: #ddd;
	stroke: #fff;
	stroke-width: 1px;
}
.compass-needle {
	fill: #ddd;
	stroke: #fff;
	stroke-width: 1px;
}
.compass-north {
	fill: #fff;
}
.flag-pole {
	fill: none;
	stroke: #f00;
	stroke-width: 2px;
}
.flag-flag {
	fill: #ff0;
	stroke: #f00;
	stroke-width: 1px;
}
.flag-cup {
	fill: #fff;
}
/* Information box */
.info-background {
	fill: #ddd;
}
.info-hole {
	font-family: Georgia, "Times New Roman", Times, serif;
	font-size: xx-large;
}
.info-par {
	font-family: Georgia, "Times New Roman", Times, serif;
	font-size: x-large;
}
.info-length {
	font-family: Georgia, "Times New Roman", Times, serif;
	font-size: large;
}
/* Circle for distances */
.circle-from-green {
	fill: none;
	stroke: #fff;
	stroke-width: 1px;
	stroke-dasharray: 4,4;
}
.circle-from-tee {
	fill: none;
	stroke: #f00;
	stroke-width: 1px;
	stroke-dasharray: 8,8;
}
/* Dynamic objects */
.target {
	fill: none;
	stroke: #f00;
	stroke-width: 2px;
}
.target-filled {
	fill: #f00;
	fill-opacity: 0.5;
	stroke: #f00;
}
.ball {
	fill: #fff;
	stroke: none;
}
.trajectory {
	fill: none;
	stroke: #fff;
	stroke-width: 2px;
}
.distance {
	fill: #fff;
}
</style>
      <linearGradient xmlns:g="http://code.google.com/p/golfml"
                      xmlns:xlink="http://www.w3.org/1999/xlink"
                      xmlns:xs="http://www.w3.org/2001/XMLSchema"
                      id="background-straight">
         <stop offset="5%" stop-color="#002"/>
         <stop offset="95%" stop-color="#004"/>
      </linearGradient>
      <linearGradient xmlns:g="http://code.google.com/p/golfml"
                      xmlns:xlink="http://www.w3.org/1999/xlink"
                      xmlns:xs="http://www.w3.org/2001/XMLSchema"
                      id="background-gradient"
                      gradientTransform="rotate(30)"
                      xlink:href="#background-straight"/>
      <linearGradient xmlns:g="http://code.google.com/p/golfml"
                      xmlns:xlink="http://www.w3.org/1999/xlink"
                      xmlns:xs="http://www.w3.org/2001/XMLSchema"
                      id="lateral-water-straight">
         <stop offset="5%" stop-color="#006"/>
         <stop offset="95%" stop-color="#008"/>
      </linearGradient>
      <linearGradient xmlns:g="http://code.google.com/p/golfml"
                      xmlns:xlink="http://www.w3.org/1999/xlink"
                      xmlns:xs="http://www.w3.org/2001/XMLSchema"
                      id="lateral-water-gradient"
                      gradientTransform="rotate(60)"
                      xlink:href="#lateral-water-straight"/>
      <linearGradient xmlns:g="http://code.google.com/p/golfml"
                      xmlns:xlink="http://www.w3.org/1999/xlink"
                      xmlns:xs="http://www.w3.org/2001/XMLSchema"
                      id="rough-straight">
         <stop offset="0%" stop-color="#030"/>
         <stop offset="25%" stop-color="#060"/>
         <stop offset="50%" stop-color="#040"/>
         <stop offset="75%" stop-color="#060"/>
         <stop offset="100%" stop-color="#080"/>
      </linearGradient>
      <linearGradient xmlns:g="http://code.google.com/p/golfml"
                      xmlns:xlink="http://www.w3.org/1999/xlink"
                      xmlns:xs="http://www.w3.org/2001/XMLSchema"
                      id="rough-gradient"
                      gradientTransform="rotate(70)"
                      xlink:href="#rough-straight"/>
      <linearGradient xmlns:g="http://code.google.com/p/golfml"
                      xmlns:xlink="http://www.w3.org/1999/xlink"
                      xmlns:xs="http://www.w3.org/2001/XMLSchema"
                      id="green-straight">
         <stop offset="0%" stop-color="#0d0"/>
         <stop offset="25%" stop-color="#0e0"/>
         <stop offset="50%" stop-color="#0c0"/>
         <stop offset="75%" stop-color="#0e0"/>
         <stop offset="100%" stop-color="#0b0"/>
      </linearGradient>
      <linearGradient xmlns:g="http://code.google.com/p/golfml"
                      xmlns:xlink="http://www.w3.org/1999/xlink"
                      xmlns:xs="http://www.w3.org/2001/XMLSchema"
                      id="green-gradient"
                      gradientTransform="rotate(75)"
                      xlink:href="#green-straight"/>
      <pattern xmlns:g="http://code.google.com/p/golfml"
               xmlns:xlink="http://www.w3.org/1999/xlink"
               xmlns:xs="http://www.w3.org/2001/XMLSchema"
               id="fairway-straight"
               patternUnits="userSpaceOnUse"
               x="0"
               y="0"
               width="20"
               height="20"
               viewBox="0 0 20 20">
         <rect x="0" y="0" width="10" height="10" fill="#00c000"/>
         <rect x="10" y="10" width="10" height="10" fill="#00c800"/>
         <rect x="10" y="0" width="10" height="10" fill="#00bc00"/>
         <rect x="0" y="10" width="10" height="10" fill="#00b800"/>
      </pattern>
      <pattern xmlns:g="http://code.google.com/p/golfml"
               xmlns:xlink="http://www.w3.org/1999/xlink"
               xmlns:xs="http://www.w3.org/2001/XMLSchema"
               id="fairway-pattern"
               patternTransform="rotate(60)"
               xlink:href="#fairway-straight"/>
      <g xmlns:g="http://code.google.com/p/golfml"
         xmlns:xlink="http://www.w3.org/1999/xlink"
         xmlns:xs="http://www.w3.org/2001/XMLSchema"
         id="Tree"
         transform="translate(-76 -66) scale(0.4)">
         <path class="one-tree"
               d="M191.991,126.799c-11.163,0-21.022,4.032-27.033,10.191c-17.556,0.615-31.556,11.151-31.556,24.079       c0,7.537,4.759,14.266,12.203,18.693c0.876,12.855,18.43,23.128,39.939,23.128c22.07,0,39.979-10.812,39.979-24.136       c0-0.065-0.012-0.13-0.013-0.195c6.33-2.866,10.33-6.992,10.33-11.595c0-4.806-4.343-9.104-11.164-11.977       c0.31-1.318,0.478-2.67,0.478-4.054C225.154,137.612,210.297,126.799,191.991,126.799z"/>
      </g>
      <g xmlns:g="http://code.google.com/p/golfml"
         xmlns:xlink="http://www.w3.org/1999/xlink"
         xmlns:xs="http://www.w3.org/2001/XMLSchema"
         id="TeeSet">
         <circle cx="-5" cy="0" r="2"/>
         <circle cx="5" cy="0" r="2"/>
      </g>
      <g xmlns:g="http://code.google.com/p/golfml"
         xmlns:xlink="http://www.w3.org/1999/xlink"
         xmlns:xs="http://www.w3.org/2001/XMLSchema"
         id="DistanceMarker">
         <circle r="6"/>
      </g>
      <g xmlns:g="http://code.google.com/p/golfml"
         xmlns:xlink="http://www.w3.org/1999/xlink"
         xmlns:xs="http://www.w3.org/2001/XMLSchema"
         id="Dogleg">
         <circle r="4"/>
      </g>
      <g xmlns:g="http://code.google.com/p/golfml"
         xmlns:xlink="http://www.w3.org/1999/xlink"
         xmlns:xs="http://www.w3.org/2001/XMLSchema"
         id="Aim">
         <circle r="4"/>
      </g>
      <g xmlns:g="http://code.google.com/p/golfml"
         xmlns:xlink="http://www.w3.org/1999/xlink"
         xmlns:xs="http://www.w3.org/2001/XMLSchema"
         id="Hole">
         <circle r="2"/>
      </g>
      <g xmlns:g="http://code.google.com/p/golfml"
         xmlns:xlink="http://www.w3.org/1999/xlink"
         xmlns:xs="http://www.w3.org/2001/XMLSchema"
         id="Ball">
         <image xlink:href="../stylesheets/images/golf-ball.png" width="16" height="16"
                transform="translate(-8 -8)"/>
      </g>
      <g xmlns:g="http://code.google.com/p/golfml"
         xmlns:xlink="http://www.w3.org/1999/xlink"
         xmlns:xs="http://www.w3.org/2001/XMLSchema"
         id="Target">
         <circle class="target-filled" r="12"/>
      </g>
      <g xmlns:g="http://code.google.com/p/golfml"
         xmlns:xlink="http://www.w3.org/1999/xlink"
         xmlns:xs="http://www.w3.org/2001/XMLSchema"
         id="Flag"
         transform="translate(0 -30) scale(-0.2 0.2)">
         <line id="FlagPole" class="flag-pole" x1="0.5" y1="0" x2="0.5" y2="150"/>
         <circle id="FlagCup" class="flag-cup" r="10" cx="0" cy="145"/>
         <g id="FlagFlag">
            <path class="flag-flag"
                  d="M55.339,45.968c-18.28-14.516-36.559,14.516-54.839,0c0-12.097,0-24.193,0-36.29        c18.28,14.516,36.559-14.516,54.839,0C55.339,21.774,55.339,33.871,55.339,45.968z"/>
         </g>
      </g>
      <g xmlns:g="http://code.google.com/p/golfml"
         xmlns:xlink="http://www.w3.org/1999/xlink"
         xmlns:xs="http://www.w3.org/2001/XMLSchema"
         id="Compass">
         <polygon id="CompassNeedle" class="compass-needle" points="0,30 -8,0 0,-20 8,0"/>
         <circle id="CompassCenter" class="compass-center" r="10"/>
         <text id="CompassNorth" class="compass-north" x="-4.7" y="40">N</text>
      </g>
      <g xmlns:g="http://code.google.com/p/golfml"
         xmlns:xlink="http://www.w3.org/1999/xlink"
         xmlns:xs="http://www.w3.org/2001/XMLSchema"
         id="GolfMLLogoSmall">
         <image xlink:href="../stylesheets/images/golfml-small.png" width="80" height="15"/>
      </g>
   </defs>
   <rect class="background" x="0" y="0" width="600" height="600"/>
   <g transform="translate(300,300) scale(-0.7085280582422734,0.7085280582422734) rotate(-45.1152799532978)">
      <path class="hole-contour"
            d="M-288.4623672573016,238.83260911333318Q-288.4623672573016,238.83260911333318 -284.35683892697074,232.35482597686246 L-282.30407476180534,229.1159344086271Q-278.1985464314745,222.6381512721564 -265.89782168226236,207.71139316655444 L-259.74745930765624,200.24801411375347Q-247.44673455844412,185.32125600815152 -235.54108373015222,170.31037641759423 L-229.5882583160063,162.80493662231558Q-217.6826074877144,147.79405703175829 -202.5698316977854,128.25995646382705 L-195.0134438028209,118.49290617986144Q-179.90066801289188,98.9588056119302 -164.41943438149914,83.11062547127051 L-156.67881756580277,75.18653540094067Q-141.19758393441003,59.33835526028098 -119.81865966156123,38.69908551399068 L-109.12919752513683,28.379450640845537Q-87.75027325228803,7.740180894555242 -71.53160973395177,-8.47630896574272 L-63.42227797478364,-16.584553895891695Q-47.20361445644739,-32.80104375618966 -33.933267507340055,-51.96631628759834 L-27.298094032786384,-61.54895255330268Q-14.02774708367905,-80.71422508471136 4.034628509233507,-103.56491316729624 L13.065816305689776,-114.99025720858869Q31.12819189860233,-137.84094529117357 46.60976415710715,-149.63430691231198 L54.35055028635956,-155.53098772288118Q69.83212254486438,-167.3243493440196 86.41882722174458,-170.64011972967197 L94.7121795601847,-172.29800492249814Q111.2988842370649,-175.6137753081505 119.77789678355698,-192.19925955501992 L124.01740305680302,-200.4920016784546Q132.4964156032951,-217.07748592532403 139.50098252475337,-231.82021490340753 L143.0032659854825,-239.1915793924493Q150.00783290694076,-253.93430837053282 162.90938592371572,-262.77908832609967 L169.36016243210318,-267.2014783038831Q182.26171544887814,-276.0462582594499 197.74358726154486,-285.62790072583306 L205.48452316787825,-290.4187219590246Q220.96639498054498,-300.0003644254077 229.81212309173466,-294.8391800747259 L234.2349871473295,-292.25858789938496Q243.08071525851918,-287.09740354870314 262.24394699602294,-253.18528426940668 L271.82556286477484,-236.22922462975848Q290.9887946022786,-202.31710535046201 132.11675821284516,-44.94727677246178 L52.6807400181285,33.737637516538285Q-106.19129637130492,191.10746609453852 -127.56877633037112,194.05498179548178 L-138.25751630990422,195.52873964595344Q-159.63499626897044,198.4762553468967 -173.64118633983392,204.7414884408986 L-180.64428137526568,207.87410498789956Q-194.65047144612916,214.13933808190146 -206.8137729473565,220.40473090544648 L-212.89542369797016,223.53742731721903Q-225.0587251991975,229.80282014076406 -236.8538962979162,244.54564366712538 L-242.75148184727553,251.91705543030602Q-254.54665294599423,266.65987895666734 -263.7613392848715,273.294075859245 L-268.36868245431015,276.61117431053384Q-277.58336879318745,283.2453712131115 -280.5317614800193,279.55949058760723 L-282.0059578234352,277.716550274855Q-284.9543505102671,274.0306696493507 -287.3681281576073,268.15794769100347 L-288.57501698127743,265.22158671182984Q-290.98879462861765,259.3488647534826 -289.9782236800912,251.14236249742282 L-289.47293820582803,247.03911136939294Q-288.4623672573016,238.83260911333318 -288.4623672573016,238.83260911333318 Z"/>
      <clipPath id="HoleContour" transform="scale(1.2)">
         <path class="hole-contour"
               d="M-288.4623672573016,238.83260911333318Q-288.4623672573016,238.83260911333318 -284.35683892697074,232.35482597686246 L-282.30407476180534,229.1159344086271Q-278.1985464314745,222.6381512721564 -265.89782168226236,207.71139316655444 L-259.74745930765624,200.24801411375347Q-247.44673455844412,185.32125600815152 -235.54108373015222,170.31037641759423 L-229.5882583160063,162.80493662231558Q-217.6826074877144,147.79405703175829 -202.5698316977854,128.25995646382705 L-195.0134438028209,118.49290617986144Q-179.90066801289188,98.9588056119302 -164.41943438149914,83.11062547127051 L-156.67881756580277,75.18653540094067Q-141.19758393441003,59.33835526028098 -119.81865966156123,38.69908551399068 L-109.12919752513683,28.379450640845537Q-87.75027325228803,7.740180894555242 -71.53160973395177,-8.47630896574272 L-63.42227797478364,-16.584553895891695Q-47.20361445644739,-32.80104375618966 -33.933267507340055,-51.96631628759834 L-27.298094032786384,-61.54895255330268Q-14.02774708367905,-80.71422508471136 4.034628509233507,-103.56491316729624 L13.065816305689776,-114.99025720858869Q31.12819189860233,-137.84094529117357 46.60976415710715,-149.63430691231198 L54.35055028635956,-155.53098772288118Q69.83212254486438,-167.3243493440196 86.41882722174458,-170.64011972967197 L94.7121795601847,-172.29800492249814Q111.2988842370649,-175.6137753081505 119.77789678355698,-192.19925955501992 L124.01740305680302,-200.4920016784546Q132.4964156032951,-217.07748592532403 139.50098252475337,-231.82021490340753 L143.0032659854825,-239.1915793924493Q150.00783290694076,-253.93430837053282 162.90938592371572,-262.77908832609967 L169.36016243210318,-267.2014783038831Q182.26171544887814,-276.0462582594499 197.74358726154486,-285.62790072583306 L205.48452316787825,-290.4187219590246Q220.96639498054498,-300.0003644254077 229.81212309173466,-294.8391800747259 L234.2349871473295,-292.25858789938496Q243.08071525851918,-287.09740354870314 262.24394699602294,-253.18528426940668 L271.82556286477484,-236.22922462975848Q290.9887946022786,-202.31710535046201 132.11675821284516,-44.94727677246178 L52.6807400181285,33.737637516538285Q-106.19129637130492,191.10746609453852 -127.56877633037112,194.05498179548178 L-138.25751630990422,195.52873964595344Q-159.63499626897044,198.4762553468967 -173.64118633983392,204.7414884408986 L-180.64428137526568,207.87410498789956Q-194.65047144612916,214.13933808190146 -206.8137729473565,220.40473090544648 L-212.89542369797016,223.53742731721903Q-225.0587251991975,229.80282014076406 -236.8538962979162,244.54564366712538 L-242.75148184727553,251.91705543030602Q-254.54665294599423,266.65987895666734 -263.7613392848715,273.294075859245 L-268.36868245431015,276.61117431053384Q-277.58336879318745,283.2453712131115 -280.5317614800193,279.55949058760723 L-282.0059578234352,277.716550274855Q-284.9543505102671,274.0306696493507 -287.3681281576073,268.15794769100347 L-288.57501698127743,265.22158671182984Q-290.98879462861765,259.3488647534826 -289.9782236800912,251.14236249742282 L-289.47293820582803,247.03911136939294Q-288.4623672573016,238.83260911333318 -288.4623672573016,238.83260911333318 Z"/>
      </clipPath>
      <path class="water"
            d="M181.03580141495067,-208.11669134499732Q181.03580141495067,-208.11669134499732 183.03665309558377,-205.81528149336555 L184.03707893590035,-204.66457656754966Q186.03793061653346,-202.36316671591788 189.1393383113604,-199.76148180832203 L190.69004215877388,-198.4606393545241Q193.79144985360082,-195.85895444692824 196.69258526244028,-191.55640125097636 L198.14315296686001,-189.40512465300043Q201.04428837569947,-185.10257145704855 204.24569374280634,-182.00060749582937 L205.84639642635975,-180.44962551521976Q209.04780179346662,-177.34766155400058 210.84829498099234,-172.54496299970396 L211.7485415747552,-170.1436137225556Q213.5490347622809,-165.340915168259 213.5484667375223,-159.4378396593228 L213.548182725143,-156.48630190485474Q213.54761470038437,-150.58322639591856 212.24648473235837,-145.98097240365178 L211.59591974834538,-143.67984540751837Q210.29478978031938,-139.0775914152516 208.29335093339904,-135.07572563727604 L207.2926315099389,-133.07479274828827Q205.29119266301856,-129.07292697031272 202.18916882545594,-124.9711257287603 L200.63815690667462,-122.92022510798408Q197.536133069112,-118.81842386643166 195.3346917629849,-115.81709525415556 L194.23397110992138,-114.31643094801753Q192.0325298037943,-111.31510233574143 187.42974652462206,-107.41355545017554 L185.12835488503598,-105.46278200739258Q180.52557160586375,-101.56123512182668 178.02437998144293,-102.86217334117889 L176.77378416923256,-103.51264245085498Q174.27259254481174,-104.81358067020719 172.9721043848917,-106.91481117236393 L172.32186030493168,-107.96542642344231Q171.02137214501164,-110.06665692559905 169.4209561610091,-114.66922079406324 L168.62074816900784,-116.97050272829534Q167.0203321850053,-121.57306659675953 165.31975012034272,-124.97501251074667 L164.46945908801143,-126.67598546774022Q162.76887702334886,-130.07793138172735 160.96800142596211,-130.87853051541364 L160.06756362726873,-131.2788300822568Q158.26668802988198,-132.0794292159431 155.96547502704252,-132.0796598501335 L154.8148685256228,-132.07977516722875Q152.51365552278335,-132.08000580141916 151.5132100099094,-132.9805744026197 L151.0129872534724,-133.43085870322Q150.01254174059844,-134.33142730442054 150.01266915627522,-135.7321568996284 L150.0127328641136,-136.43252169723235Q150.01286027979037,-137.8332512924402 151.4137271283927,-139.23384128742035 L152.11416055269387,-139.93413628491044Q153.5150274012962,-141.3347262798906 154.5156195880823,-142.03499080034487 L155.01591568147535,-142.38512306057203Q156.01650786826144,-143.0853875810263 157.51742876954964,-144.48596581109834 L158.26788922019372,-145.18625492613432Q159.76881012148192,-146.58683315620635 160.269276534614,-148.7879285903355 L160.51950974118,-149.88847630740008Q161.01997615431208,-152.08957174152923 161.42050960277248,-155.5913542557839 L161.6207763270027,-157.34224551291126Q162.0213097754631,-160.84402802716593 161.82139681957094,-162.9451421544248 L161.72144034162488,-163.9956992180542Q161.52152738573272,-166.09681334531305 157.12020291092463,-177.2030390862088 L154.9195406735206,-182.75615195665665Q150.5182161987125,-193.8623776975524 153.01983156788805,-196.96374344698845 L154.2706392524758,-198.51442632170645Q156.77225462165134,-201.6157920711425 160.5745773038098,-204.81707536819167 L162.47573864488902,-206.41771701671624Q166.27806132704748,-209.6190003137654 170.08025000906397,-211.3194957419425 L171.98134435007222,-212.16974345603106Q175.7835330320887,-213.87023888420813 177.8844403852335,-211.5688198685238 L178.9348940618059,-210.41811036068165Q181.03580141495067,-208.11669134499732 181.03580141495067,-208.11669134499732 Z"/>
      <path class="tee"
            d="M-228.88631624765637,209.79540301967188Q-228.88631624765637,209.79540301967188 -248.5318896386113,230.4342157919924 L-258.35467633408877,240.75362217815265Q-278.00024972504366,261.39243495047316 -280.9840494035539,257.6623188396755 L-282.47594924280907,255.79726078427663Q-285.4597489213193,252.06714467347896 -266.31152962774144,231.92561891251128 L-256.73741998095255,221.85485603202747Q-237.58920068737467,201.7133302710598 -234.10804691148735,204.94615937050463 L-232.3674700235437,206.56257392022704Q-228.88631624765637,209.79540301967188 -228.88631624765637,209.79540301967188 Z"/>
      <path class="tee"
            d="M-177.28498705499348,155.09033913806823Q-177.28498705499348,155.09033913806823 -183.5019930172624,160.80946123807274 L-186.61049599839689,163.66902228807498Q-192.8275019606658,169.3881443880795 -195.3140875736368,167.89601830642982 L-196.55738038012234,167.149955265605Q-199.04396599309334,165.65782918395533 -193.32422547745293,158.6953280633782 L-190.46435521963272,155.21407750308967Q-184.7446147039923,148.25157638251255 -181.76076364439277,150.98708148473483 L-180.26883811459302,152.35483403584595Q-177.28498705499348,155.09033913806823 -177.28498705499348,155.09033913806823 Z"/>
      <path class="fairway"
            d="M117.10785894983927,-131.9409729107941Q117.10785894983927,-131.9409729107941 118.01586902842166,-124.3019370656609 L118.46987406771287,-120.4824191430943Q119.37788414629526,-112.8433832979611 114.80924528080374,-105.01981487550704 L112.52492584805799,-101.10803066428002Q107.95628698256647,-93.28446224182596 101.03880267799688,-84.89107397209472 L97.58006052571208,-80.69437983722909Q90.6625762211425,-72.30099156749785 85.12862643949487,-65.58629291618418 L82.36165154867105,-62.228943590527344Q76.82770176702341,-55.514244939213675 70.1726939914684,-44.398992557277765 L66.84519010369091,-38.84136636630981Q60.19018232813591,-27.726113984373903 52.28494119479929,-18.894135444857362 L48.33232062813098,-14.478146175099091Q40.427079494794356,-5.646167635582553 29.853397640292023,7.563831811210517 L24.56655671304086,14.168831534607047Q13.992874858538528,27.378830981400117 2.5851256304775116,40.840934008834324 L-3.1187489835529973,47.57198552255144Q-14.526498211614014,61.03408854998565 -19.599072972345333,67.18917988184273 L-22.13536035271099,70.26672554777129Q-27.20793511344231,76.42181687962838 -36.52914906968829,86.59219572885178 L-41.18975604781128,91.67738515346349Q-50.510970004057256,101.84776400268689 -62.48832705268537,112.96105572111786 L-68.47700557699943,118.51770158033334Q-80.45436262562754,129.6309932987643 -92.43163270057028,140.7443081080904 L-98.42026773804164,146.30096551275344Q-110.39753781298438,157.41428032207952 -120.27624042463009,161.8008170556092 L-125.21559173045296,163.99408542237404Q-135.09429434209866,168.38062215590372 -140.1630190815877,163.8902367310744 L-142.69738145133218,161.64504401865975Q-147.7661061908212,157.15465859383042 -151.5948436174142,153.05978646059103 L-153.5092123307107,151.0123503939713Q-157.3379497573037,146.9174782607319 -156.56756517095693,140.66211740719575 L-156.18237287778354,137.5344369804277Q-155.41198829143676,131.27907612689154 -148.99029800043388,124.24672520573594 L-145.77945285493243,120.73054974515816Q-139.35776256392955,113.69819882400256 -124.47023142110055,97.15329089935736 L-117.02646584968605,88.88083693703476Q-102.13893470685703,72.33592901238954 -87.49313185095772,56.84460383873213 L-80.17023042300809,49.09894125190341Q-65.52442756710879,33.607616078246 -58.32240161624384,26.38872926967767 L-54.721388640811355,22.779285865393504Q-47.519362689946405,15.560399056825178 -34.18094614079857,4.315964082153286 L-27.51173786622465,-1.3062534051826589Q-14.173321317076814,-12.55068837985455 -5.598085927516619,-23.335853552572765 L-1.3104682327365236,-28.72843613893187Q7.264767156823671,-39.513601311650085 12.261489881653606,-48.236787897457546 L14.759851244068573,-52.59838119036128Q19.756573968898508,-61.32156777616874 24.511489109789242,-68.99125908564599 L26.88894668023461,-72.82610474038461Q31.643861821125345,-80.49579604986185 41.08620268612469,-91.19283215497443 L45.80737311862436,-96.5413502075307Q55.24971398362371,-107.23838631264327 60.476120769474946,-113.57994261066231 L63.08932416240056,-116.75072075967184Q68.3157309482518,-123.09227705769088 72.55424768010239,-128.9952041946711 L74.6735060460277,-131.9466677631612Q78.91202277787829,-137.8495949001414 82.01919897704151,-141.2396875459834 L83.57278707662311,-142.93473386890443Q86.67996327578633,-146.32482651474643 91.07024664907476,-147.0914283861921 L93.26538833571897,-147.4747293219149Q97.6556717090074,-148.24133119336057 105.43654660534014,-141.72118788033399 L109.32698405350652,-138.46111622382068Q117.10785894983927,-131.9409729107941 117.10785894983927,-131.9409729107941 Z"/>
      <path class="fairway"
            d="M178.37730787548432,-255.74993894463293Q178.37730787548432,-255.74993894463293 184.52738215094203,-258.04772057245094 L187.60241928867086,-259.19661138635996Q193.75249356412857,-261.49439301417794 200.32573435127946,-260.33310770457257 L203.61235474485488,-259.75246504976985Q210.18559553200578,-258.5911797401645 216.6549213802671,-255.71481962114905 L219.88958430439777,-254.27663956164136Q226.3589101526591,-251.40027944262593 229.64981046355516,-247.05099108153377 L231.2952606190032,-244.8763469009877Q234.58616092989925,-240.52705853989553 238.3869681036115,-234.61160974514394 L240.28737169046767,-231.65388534776815Q244.08817886417992,-225.73843655301656 245.3886749835984,-221.5562951151732 L246.03892304330762,-219.46522439625156Q247.3394191627261,-215.28308295840822 253.8204869521806,-213.21548725905757 L257.06102084690787,-212.18168940938224Q263.54208863636234,-210.1140937100316 263.43065968325396,-203.82163972985668 L263.37494520669975,-200.67541273976926Q263.2635162535914,-194.38295875959435 259.4477202734246,-191.14359972532563 L257.53982228334115,-189.5239202081913Q253.72402630317436,-186.28456117392258 249.95430233419052,-183.49833174976115 L248.06944034969857,-182.10521703768043Q244.29971638071473,-179.318987613519 242.53215835753107,-177.1743979451554 L241.64837934593928,-176.1021031109736Q239.88082132275562,-173.95751344260998 237.30447505603848,-171.82471777384143 L236.01630192267993,-170.75831993945712Q233.4399556559628,-168.62552427068857 232.11375655022775,-165.62608264341694 L231.45065699736026,-164.12636182978113Q230.1244578916252,-161.1269202025095 230.3815592663901,-158.45954269929098 L230.51010995377257,-157.12585394768172Q230.76721132853746,-154.4584764444632 229.95735423091404,-151.6882749570554 L229.55242568210232,-150.3031742133515Q228.7425685844789,-147.5329727259437 226.61401051568004,-146.34071480855857 L225.54973148128062,-145.744585849866Q223.42117341248175,-144.5523279324809 221.18441633246854,-145.41362465756504 L220.06603779246197,-145.84427302010712Q217.82928071244876,-146.70556974519127 217.9396104173817,-150.21600291028247 L217.99477526984813,-151.97121949282806Q218.10510497478106,-155.48165265791926 216.97064841885143,-158.8721225437789 L216.40342014088662,-160.56735748670872Q215.268963584957,-163.95782737256835 214.18056713821807,-167.8014310780543 L213.6363689148486,-169.72323293079728Q212.54797246810966,-173.56683663628323 210.2319252221938,-177.11265023220145 L209.07390159923588,-178.88555703016053Q206.75785435332003,-182.43137062607875 204.12042950746311,-185.58725705190648 L202.80171708453463,-187.16520026482036Q200.16429223867772,-190.3210866906481 195.24739340290694,-195.27526116084277 L192.78894398502155,-197.75234839594015Q187.87204514925077,-202.70652286613483 184.13727664274927,-207.28647794736344 L182.2698923894985,-209.57645548797774Q178.535123882997,-214.15641056920634 175.26393528702306,-215.35054664309445 L173.62834098903608,-215.94761468003847Q170.35715239306214,-217.14175075392657 168.01475324669386,-215.81822355315407 L166.8435536735097,-215.1564599527678Q164.5011545271414,-213.8329327519953 160.45683434189783,-211.65926577197186 L158.43467424927607,-210.57243228196015Q154.3903540640325,-208.39876530193672 151.83006634685384,-210.75917027234885 L150.5499224882645,-211.9393727575549Q147.98963477108586,-214.29977772796704 147.6570922742232,-216.32602580412112 L147.4908210257919,-217.33914984219814Q147.15827852892923,-219.36539791835222 148.6947324792121,-223.3556538403616 L149.46295945435352,-225.3507818013663Q150.99941340463639,-229.3410377233757 154.3508469791159,-231.58514820470097 L156.02656376635562,-232.70720344536363Q159.37799734083512,-234.9513139266889 163.41413278760493,-238.63361944640948 L165.43220051098984,-240.4747722062698Q169.46833595775965,-244.15707772599038 173.03192472484952,-248.7942222134474 L174.81371910839445,-251.1127944571759Q178.37730787548432,-255.74993894463293 178.37730787548432,-255.74993894463293 Z"/>
      <path class="fairway"
            d="M118.29151249025034,-180.85954702766958Q118.29151249025034,-180.85954702766958 119.6412252243871,-185.4765872058773 L120.31608159145549,-187.7851072949812Q121.66579432559224,-192.40214747318893 124.69630110034694,-197.27093634165007 L126.21155448772429,-199.70533077588064Q129.24206126247898,-204.57411964434178 132.52970755643994,-206.77552180321973 L134.17353070342045,-207.87622288265874Q137.46117699738141,-210.0776250415367 141.08629894124942,-209.7091193049031 L142.8988599131834,-209.52486643658634Q146.5239818570514,-209.15636069995276 149.7409773997276,-206.50504058646356 L151.34947517106568,-205.17938052971897Q154.56647071374186,-202.52806041622978 153.28098530455134,-200.96833882746165 L152.63824259995607,-200.18847803307762Q151.35275719076554,-198.6287564443095 149.60772529946354,-195.3197028373186 L148.73520935381254,-193.66517603382317Q146.99017746251053,-190.3561224268323 147.1155370979605,-188.12473471325882 L147.17821691568545,-187.0090408564721Q147.30357655113542,-184.77765314289863 148.51840593328222,-181.48467053433544 L149.1258206243556,-179.83817923005384Q150.34065000650241,-176.54519662149065 150.78096862948192,-172.90834974545422 L151.00112794097166,-171.08992630743597Q151.44144656395116,-167.45307943139954 150.27491484012506,-161.86658804244414 L149.69164897821204,-159.07334234796642Q148.52511725438595,-153.486850959011 147.51390643383857,-149.0819348399749 L147.0083010235649,-146.87947678045688Q145.99709020301754,-142.47456066142078 145.41650935844703,-139.188014887656 L145.12621893616176,-137.54474200077365Q144.54563809159126,-134.25819622700888 142.3710318509023,-132.61277874790068 L141.2837287305578,-131.79007000834656Q139.10912248986887,-130.14465252923836 134.19751858817048,-126.17143470456544 L131.74171663732128,-124.18482579222899Q126.83011273562289,-120.21160796755608 126.25265320774702,-125.2710413484631 L125.9639234438091,-127.80075803891663Q125.38646391593322,-132.86019141982365 121.40138129353585,-136.96300039008395 L119.40883998233717,-139.01440487521413Q115.4237573599398,-143.11721384547442 110.14781828245185,-146.64690087404628 L107.50984874370786,-148.41174438833218Q102.23390966621992,-151.94143141690404 100.62809667855399,-152.77376965959627 L99.82519018472101,-153.18993878094238Q98.21937719705508,-154.02227702363462 98.85674271796576,-155.78874972302285 L99.17542547842109,-156.67198607271695Q99.81279099933177,-158.43845877210518 102.58945186085073,-159.42401465395162 L103.97778229161021,-159.91679259487483Q106.75444315312917,-160.90234847672127 109.52573388392783,-162.8745100236073 L110.91137924932715,-163.8605907970503Q113.68266998012581,-165.8327523439363 115.52620698417562,-171.84347021742963 L116.44797548620053,-174.84882915417626Q118.29151249025034,-180.85954702766958 118.29151249025034,-180.85954702766958 Z"/>
      <path class="path"
            d="M-57.01800599697006,114.49394643703266Q-57.01800599697006,114.49394643703266 -59.268387724998306,116.08450517726132 L-60.39357858901243,116.87978454737565Q-62.64396031704067,118.47034328760431 -79.30761693566728,98.78673336714093 L-87.63944524498058,88.94492840690923Q-104.3031018636072,69.26131848644584 -114.29725327642625,58.20623319715365 L-119.29432898283578,52.67869055250755Q-129.28848039565483,41.62360526321535 -127.83945978541449,40.62538388921335 L-127.11494948029431,40.12627320221235Q-125.66592887005397,39.12805182821035 -98.2067597208204,69.27440967173928 L-84.47717514620362,84.34758859350373Q-57.01800599697006,114.49394643703266 -57.01800599697006,114.49394643703266 Z"/>
      <path class="building"
            d="M-185.63898728495715,246.53841759766925Q-185.63898728495715,246.53841759766925 -182.26473223272103,247.83751714146354 L-180.57760470660295,248.48706691336068Q-177.20334965436683,249.78616645715496 -176.0670168285042,253.14713341842247 L-175.4988504155729,254.8276168990562Q-174.36251758971025,258.1885838603237 -176.49644308483744,259.7973701704865 L-177.563405832401,260.60176332556784Q-179.6973313275282,262.2105496357306 -196.34905493723122,276.3695790561639 L-204.67491674208276,283.44909376638054Q-221.32664035178578,297.6081231868138 -225.88633198395348,298.56479226619126 L-228.16617780003733,299.04312680588Q-232.72586943220503,299.9997958852574 -234.56115113626237,297.81387903098056 L-235.47879198829105,296.7209206038421Q-237.3140736923484,294.53500374956525 -237.2895272009457,291.7266557520473 L-237.2772539552444,290.3224817532883Q-237.25270746384172,287.51413375577033 -219.59529213937083,272.2981229355843 L-210.76658447713538,264.6901175254912Q-193.1091691526645,249.47410670530513 -190.12109640558157,248.29983106225077 L-188.62706003204008,247.7126932407236Q-185.63898728495715,246.53841759766925 -185.63898728495715,246.53841759766925 Z"/>
      <path class="greenside-trap"
            d="M242.56987283354266,-219.86608294191387Q242.56987283354266,-219.86608294191387 243.47010598512242,-217.3646730571066 L243.92022256091226,-216.11396811470297Q244.82045571249202,-213.61255822989568 245.5205508337058,-210.8110147826849 L245.8705983943127,-209.41024305907953Q246.5706935155265,-206.60869961186876 247.97142420857628,-206.40843313132117 L248.67178955510116,-206.30829989104737Q250.07252024815094,-206.1080334104998 251.67323737243586,-204.7071159037431 L252.47359593457836,-204.0066571503648Q254.07431305886328,-202.6057396436081 253.67387710816044,-200.4046373578634 L253.47365913280905,-199.30408621499106Q253.0732231821062,-197.10298392924636 252.17261069224395,-195.8024100631972 L251.7223044473128,-195.1521231301726Q250.82169195745055,-193.85154926412343 249.1206225084117,-192.25091142355458 L248.2700877838923,-191.45059250327017Q246.56901833485347,-189.84995466270132 244.36771350801715,-188.54953000520953 L243.26706109459897,-187.89931767646362Q241.06575626776265,-186.59889301897184 239.46474388235964,-184.99824169182057 L238.6642376896581,-184.19791602824492Q237.0632253042551,-182.59726470109365 235.96232336802396,-179.39572136454646 L235.41187239990836,-177.79494969627285Q234.31097046367722,-174.59340635972566 231.70927326149692,-171.3920329028069 L230.40842466040675,-169.79134617434755Q227.80672745822645,-166.5899727174288 225.50555386027136,-167.0904919190395 L224.3549670612938,-167.34075151984482Q222.0537934633387,-167.84127072145552 221.25354318443146,-169.64229830014997 L220.85341804497787,-170.54281208949723Q220.05316776607063,-172.3438396681917 220.55374502410535,-175.5454519584767 L220.80403365312273,-177.1462581036192Q221.30461091115745,-180.3478703939042 223.10583367521758,-183.04907665782417 L224.00644505724767,-184.39967978978413Q225.8076678213078,-187.1008860537041 227.40881611986458,-190.10227070997277 L228.20939026914294,-191.60296303810713Q229.81053856769972,-194.6043476943758 231.71187008087466,-197.80580252711715 L232.66253583746214,-199.4065299434878Q234.56386735063708,-202.60798477622916 234.76431113889686,-206.0097373158531 L234.86453303302673,-207.71061358566507Q235.0649768212865,-211.11236612528901 234.5649564201881,-213.61372873917097 L234.31494621963893,-214.86441004611194Q233.81492581854053,-217.3657726599939 233.41493896503462,-219.66701986468954 L233.21494553828168,-220.81764346703736Q232.81495868477577,-223.118890671733 233.51550305187848,-224.81970029729837 L233.86577523542982,-225.67010511008107Q234.56631960253253,-227.37091473564644 235.6669114847856,-227.37079009944355 L236.2172074259121,-227.37072778134208Q237.31779930816518,-227.3706031451392 238.4183015307291,-226.4700073426098 L238.9685526420111,-226.01970944134507Q240.06905486457504,-225.11911363881566 241.0693820521621,-223.01790136005494 L241.5695456459556,-221.9672952206746Q242.56987283354266,-219.86608294191387 242.56987283354266,-219.86608294191387 Z"/>
      <path class="fairway-trap"
            d="M19.045697576637576,34.59988297948698Q19.045697576637576,34.59988297948698 16.314132470503225,37.331024545244745 L14.948349917436051,38.696595328123635Q12.216784811301702,41.4277368938814 10.147315560826668,44.90383757959938 L9.11258093558915,46.64188792245838Q7.043111685114115,50.11798860817636 3.897653854837596,53.75954352451397 L2.324924939699337,55.58032098268277Q-0.8205328905771826,59.22187589902038 -3.285367229819024,62.03970699201991 L-4.517784399439944,63.44862253851967Q-6.9826187386817855,66.2664536315192 -10.959402280372332,70.81068591725571 L-12.947794051217606,73.08280206012397Q-16.924577592908154,77.62703434586048 -18.912693269697645,76.20672809614119 L-19.906751108092386,75.49657497128153Q-21.894866784881877,74.07626872156224 -20.190551093679428,72.37219530046961 L-19.338393248078205,71.52015858992331Q-17.634077556875756,69.81608516883068 -15.503616530211811,66.83389561845146 L-14.438386016879841,65.34280084326184Q-12.307924990215897,62.36061129288262 -9.751336180826518,58.384337482704716 L-8.47304177613183,56.39620057761576Q-5.91645296674245,52.41992676743785 -3.3598899186630415,48.86970198599883 L-2.0816083946233377,47.094589595279324Q0.4749546534560708,43.5443648138403 2.7473592794158894,41.6983187056636 L3.883561592395799,40.775295651575256Q6.155966218355617,38.929249543398555 8.854546880964747,35.5210514703568 L10.203837212269313,33.81695243383593Q12.902417874878443,30.408754360794177 15.359729755582096,32.0852058082713 L16.588385695933923,32.92343153200986Q19.045697576637576,34.59988297948698 19.045697576637576,34.59988297948698 Z"/>
      <path class="green"
            d="M220.3098389415671,-239.37878736188915Q220.3098389415671,-239.37878736188915 222.51058018364625,-234.87618876882703 L223.61095080468584,-232.624889472296Q225.811692046765,-228.12229087923387 225.61099447229836,-222.11917820475114 L225.51064568506501,-219.1176218675098Q225.30994811059838,-213.11450919302706 222.9081463495742,-207.81201030428633 L221.70724546906212,-205.16076085991594Q219.30544370803793,-199.8582619711752 218.10461793857988,-197.95740398049276 L217.50420505385088,-197.00697498515152Q216.30337928439283,-195.10611699446906 214.80242388784737,-193.5054482633841 L214.0519461895746,-192.70511389784158Q212.55099079302914,-191.10444516675662 208.64898880695975,-191.90528797345726 L206.69798781392504,-192.30570937680758Q202.79598582785565,-193.10655218350823 200.19474270100108,-194.60761458297162 L198.89412113757376,-195.3581457827033Q196.2928780107192,-196.8592081821667 193.39163400377035,-200.06118620143383 L191.94101200029596,-201.6621752110674Q189.0397679933471,-204.86415323033452 186.23857336749396,-208.0661178765656 L184.83797605456738,-209.6671001996812Q182.03678142871422,-212.86906484591228 179.73582234216462,-215.77081856928268 L178.58534279888985,-217.2216954309679Q176.28438371234026,-220.12344915433832 173.9834120962901,-222.92514932773602 L172.83292628826499,-224.32599941443485Q170.53195467221482,-227.12769958783255 170.8322825411173,-228.9286091952844 L170.98244647556854,-229.8290639990103Q171.28277434447102,-231.62997360646213 173.98460639383555,-235.7318377270192 L175.33552241851783,-237.78276978729775Q178.03735446788235,-241.88463390785483 180.13878465887527,-245.0860893774202 L181.1894997543717,-246.68681711220285Q183.2909299453646,-249.8882725817682 187.4933825823249,-251.88887634978042 L189.59460890080504,-252.8891782337865Q193.79706153776533,-254.88978200179872 197.5990531427027,-254.2890601356551 L199.50004894517141,-253.98869920258326Q203.30204055010879,-253.38797733643963 206.70362166741467,-250.7862459613129 L208.40441222606762,-249.48538027374954Q211.8059933433735,-246.8836488986228 215.20753158265094,-243.88170428392934 L216.90830070228967,-242.3807319765826Q220.3098389415671,-239.37878736188915 220.3098389415671,-239.37878736188915 Z"/>
      <path class="trees"
            d="M128.95199874249764,-92.16998626794044Q128.95199874249764,-92.16998626794044 131.6073713139611,-90.52814018614723 L132.9350575996928,-89.70721714525062Q135.59043017115627,-88.0653710634574 135.75501737986556,-84.28565702962426 L135.83731098422024,-82.3958000127077Q136.00189819292953,-78.61608597887455 137.98118615639987,-78.80686273165169 L138.97083013813506,-78.90225110804026Q140.9501181016054,-79.0930278608174 144.57007465099096,-78.84263784793875 L146.3800529256837,-78.71744284149942Q150.00000947506928,-78.46705282862077 149.73654651654905,-73.94690057483842 L149.60481503728892,-71.68682444794725Q149.3413520787687,-67.1666721941649 147.21424395102832,-64.36467991672596 L146.1506898871581,-62.96368377800649Q144.02358175941774,-60.16169150056755 133.86853817806596,-50.4930127527982 L128.79101638739004,-45.65867337891353Q118.63597280603827,-35.98999463114418 113.01652016643236,-33.15101175680024 L110.20679384662941,-31.731520319628267Q104.5873412070235,-28.892537445284326 101.39429015562563,-26.786849580369072 L99.79776462992669,-25.734005647911445Q96.60471357852882,-23.62831778299619 93.64889684132085,-24.242343649468946 L92.17098847271686,-24.54935658270532Q89.21517173550889,-25.163382449178076 88.65471218176728,-28.904925002866342 L88.37448240489648,-30.775696279710473Q87.81402285115487,-34.517238833398736 88.88227142499372,-40.013917810149174 L89.41639571191314,-42.76225729852439Q90.48464428575198,-48.25893627527483 92.18484191146231,-53.41700057590461 L93.03494072431748,-55.9960327262195Q94.73513835002781,-61.15409702684928 98.99531261346117,-65.65997246229651 L101.12539974517783,-67.91291018002012Q105.38557400861119,-72.41878561546736 108.1374970930055,-72.8838134187333 L109.51345863520267,-73.11632732036628Q112.26538171959699,-73.58135512363222 115.1209835623745,-78.15160294224626 L116.54878448376327,-80.43672685155329Q119.40438632654079,-85.00697467016732 123.22343129292352,-87.87217930927658 L125.1329537761149,-89.3047816288312Q128.95199874249764,-92.16998626794044 128.95199874249764,-92.16998626794044 Z"/>
      <path class="trees"
            d="M-155.23701945358405,87.97003795163491Q-155.23701945358405,87.97003795163491 -154.00298538195992,86.14405689135691 L-153.38596834614785,85.23106636121791Q-152.1519342745237,83.40508530093992 -153.6979468534643,81.99563199688336 L-154.4709531429346,81.29090534485509Q-156.01696572187518,79.88145204079854 -154.42602650655695,74.82974593200893 L-153.63055689889782,72.30389287761413Q-152.0396176835796,67.25218676882453 -147.87846162164038,64.99549698215998 L-145.7978835906708,63.8671520888277Q-141.6367275287316,61.61046230216315 -138.77971129125143,58.14364300100725 L-137.35120317251133,56.4102333504293Q-134.49418693503117,52.9434140492734 -130.57042747827705,51.30335832207625 L-128.6085477499,50.48333045847767Q-124.68478829314589,48.843274731280516 -125.05142412634673,52.73788736305981 L-125.23474204294715,54.68519367894946Q-125.60137787614799,58.579806310728756 -127.14899209629246,61.7719193155275 L-127.9227992063647,63.36797581792686Q-129.47041342650917,66.5600888227256 -131.9198533652754,71.17506158666028 L-133.14457333465853,73.48254796862761Q-135.59401327342476,78.09752073256229 -138.98096327991016,77.60775527239797 L-140.67443828315282,77.36287254231581Q-144.06138828963822,76.87310708215149 -144.0719042466443,79.84277624305135 L-144.0771622251473,81.32761082350127Q-144.08767818215338,84.29727998440113 -144.73345559360638,86.06653113668582 L-145.0563442993329,86.95115671282817Q-145.7021217107859,88.72040786511286 -148.02233067392393,90.05740172091677 L-149.18243515549298,90.72589864881871Q-151.50264411863103,92.06289250462262 -152.99639425261225,90.42575068342754 L-153.74326931960283,89.60717977283Q-155.23701945358405,87.97003795163491 -155.23701945358405,87.97003795163491 Z"/>
      <path class="trees"
            d="M-81.85042260377894,23.56111770394204Q-81.85042260377894,23.56111770394204 -85.61904142231626,29.119672616335986 L-87.50335083158491,31.89895007253296Q-91.27196965012223,37.457504984926906 -94.76507981416714,42.02467735901927 L-96.51163489618958,44.30826354606546Q-100.00474506023448,48.87543592015783 -103.12067247752829,46.578319537212465 L-104.67863618617518,45.429761345739784Q-107.79456360346899,43.13264496279442 -105.47798186806794,38.67891621039919 L-104.31969100036741,36.45205183420157Q-102.00310926496637,31.998323081806333 -98.7996681304485,28.275458504540218 L-97.19794756318956,26.414026215907157Q-93.99450642867168,22.69116163864104 -89.13687289871459,23.03914406476144 L-86.70805613373604,23.21313527782164Q-81.85042260377894,23.56111770394204 -81.85042260377894,23.56111770394204 Z"/>
      <path class="trees"
            d="M-47.96009215332157,-29.06073319381233Q-47.96009215332157,-29.06073319381233 -46.00123748896208,-27.987918043633076 L-45.02181015678234,-27.451510468543454Q-43.06295549242285,-26.3786953183642 -41.469130896085446,-26.0128501156051 L-40.67221859791674,-25.829927514225552Q-39.07839400157933,-25.464082311466452 -38.410326696453545,-23.153563166378138 L-38.07629304389065,-21.99830359383398Q-37.40822573876486,-19.687784448745667 -34.31010600562262,-20.654440256848822 L-32.76104613905151,-21.137768160900404Q-29.662926405909268,-22.10442396900356 -29.933975588064072,-20.297092315370307 L-30.069500179141478,-19.393426488553683Q-30.340549361296283,-17.58609483492043 -32.1114404246632,-13.630307735015286 L-32.99688595634667,-11.652414185062714Q-34.767777019713584,-7.69662708515757 -36.70354235535684,-6.990472183536932 L-37.67142502317847,-6.637394732726614Q-39.607190358821725,-5.931239831105976 -41.26218258570355,-7.701302156293395 L-42.089678699144464,-8.586333318887105Q-43.74467092602629,-10.356395644074524 -45.908124914771165,-9.702501075557635 L-46.989851909143596,-9.375553791299192Q-49.15330589788847,-8.721659222782302 -48.940614935557555,-6.515668721072657 L-48.8342694543921,-5.412673470217834Q-48.62157849206118,-3.20668296850819 -50.178133283125405,-1.6464873893405008 L-50.95641067865752,-0.8663895997566562Q-52.51296546972174,0.693805979411033 -52.24355631752798,3.488060090436175 L-52.108851741431096,4.885187145948745Q-51.839442589237336,7.679441256973887 -53.69012707845574,9.267997527461242 L-54.61546932306494,10.06227566270492Q-56.466153812283345,11.650831933192274 -57.56124152492935,9.529922388723357 L-58.10878538125236,8.469467616488897Q-59.203873093898366,6.348558072019979 -58.628972351620035,3.8439788698001465 L-58.34152198048088,2.5916892686902306Q-57.766621238202546,0.08711006647039816 -59.374622168902775,-0.4257959602943843 L-60.178622634252896,-0.6822489736767756Q-61.786623564953125,-1.195155000441558 -61.62901677383291,-4.1790154481622945 L-61.550213378272794,-5.670945672022661Q-61.39260658715258,-8.654806119743398 -58.03317322950327,-10.7599191152331 L-56.353456550678615,-11.812475612977952Q-52.99402319302931,-13.917588608467653 -52.74688308988071,-15.203099843763397 L-52.62331303830641,-15.845855461411269Q-52.37617293515781,-17.131366696707012 -53.46680867512663,-18.436324644694437 L-54.01212654511103,-19.088803618688146Q-55.10276228507985,-20.393761566675572 -54.27181095168898,-22.55194632981054 L-53.856335284993534,-23.63103871137802Q-53.02538395160266,-25.78922347451299 -50.99926723229022,-27.097827362232724 L-49.98620887263401,-27.752129306092595Q-47.96009215332157,-29.06073319381233 -47.96009215332157,-29.06073319381233 Z"/>
      <path class="tree"
            d="M136.83302537603072,-124.3930335845706Q136.83302537603072,-124.3930335845706 140.1978329140849,-124.7173527294251 L141.88023668311197,-124.87951230185236Q145.24504422116615,-125.20383144670686 149.06892227081067,-123.87436590265565 L150.98086129563293,-123.20963313063005Q154.80473934527745,-121.88016758657885 154.79046959473203,-117.88343587612052 L154.7833347194593,-115.88507002089135Q154.76906496891388,-111.88833831043301 153.0056177741753,-108.42220379484488 L152.12389417680603,-106.6891365370508Q150.36044698206746,-103.22300202146266 147.6526491866635,-101.26398671876719 L146.29875028896151,-100.28447906741944Q143.59095249355755,-98.32546376472396 140.27742056897813,-98.50550391647505 L138.62065460668842,-98.5955239923506Q135.307122682109,-98.7755641441017 133.99909223219197,-100.9468144820561 L133.34507700723347,-102.0324396510333Q132.03704655731644,-104.2036899889877 131.2655626315095,-107.02596089727223 L130.87982066860602,-108.43709635141448Q130.10833674279908,-111.259367259699 129.59202133459863,-113.50693141507773 L129.33386363049843,-114.63071349276709Q128.81754822229797,-116.87827764814581 132.02373908379107,-119.88418002271573 L133.62683451453762,-121.38713121000069Q136.83302537603072,-124.3930335845706 136.83302537603072,-124.3930335845706 Z"/>
      <path class="tree"
            d="M-182.30607527106986,103.56838317087723Q-182.30607527106986,103.56838317087723 -176.2950841114271,102.02387684468361 L-173.28958853160572,101.25162368158679Q-167.27859737196295,99.70711735539318 -165.37280823915864,103.30835992938655 L-164.4199136727565,105.10898121638323Q-162.5141245399522,108.7102237903766 -164.2804772856282,113.48197624542858 L-165.16365365846616,115.86785247295458Q-166.93000640414215,120.63960492800656 -170.16174043423192,124.06835227485952 L-171.7776074492768,125.78272594828601Q-175.00934147936655,129.21147329513897 -178.26418066382257,130.86126288480492 L-179.8916002560506,131.68615767963792Q-183.1464394405066,133.33594726930386 -186.47139687167177,131.94963636037352 L-188.13387558725438,131.25648090590832Q-191.45883301841954,129.87016999697798 -192.2590229872785,125.42014800930794 L-192.659117971708,123.19513701547292Q-193.459307940567,118.74511502780288 -188.99801487276812,112.67442228503262 L-186.76736833886872,109.63907591364749Q-182.30607527106986,103.56838317087723 -182.30607527106986,103.56838317087723 Z"/>
      <path class="tree"
            d="M-18.520414166494383,-39.32083218431835Q-18.520414166494383,-39.32083218431835 -16.846791447056688,-36.58774146180637 L-16.00998008733784,-35.22119610055037Q-14.336357367900147,-32.48810537803839 -16.42002110218613,-29.46698236056143 L-17.461852969329122,-27.95642085182295Q-19.545516703615103,-24.93529783434599 -21.87912491131353,-26.046205561963394 L-23.045929015162745,-26.601659425772095Q-25.37953722286117,-27.712567153389497 -25.08903197351825,-30.85767433588902 L-24.943779348846785,-32.43022792713878Q-24.653274099503864,-35.5753351096383 -22.20013012630007,-37.07353393951032 L-20.973558139698177,-37.82263335444633Q-18.520414166494383,-39.32083218431835 -18.520414166494383,-39.32083218431835 Z"/>
      <use xmlns:xlink="http://www.w3.org/1999/xlink" xlink:href="#TeeSet"
           x="-231.37236798180132"
           y="204.82200547233919"
           class="tees"
           transform="rotate(45.1152799532978 -231.37236798180132 204.82200547233919)"/>
      <use xmlns:xlink="http://www.w3.org/1999/xlink" xlink:href="#Flag"
           x="198.1718233577751"
           y="-222.99715583077418"
           transform="rotate(45.1152799532978 198.1718233577751 -222.99715583077418)"/>
      <g clip-path="url(#HoleContour)">
         <circle cx="-231.37236798180132" cy="204.82200547233919" r="189.43162799707204"
                 class="circle-from-tee"/>
         <circle cx="-231.37236798180132" cy="204.82200547233919" r="284.14744199560806"
                 class="circle-from-tee"/>
         <circle cx="-231.37236798180132" cy="204.82200547233919" r="378.8632559941441"
                 class="circle-from-tee"/>
         <circle cx="198.1718233577751" cy="-222.99715583077418" r="189.43162799707204"
                 class="circle-from-green"/>
         <circle cx="198.1718233577751" cy="-222.99715583077418" r="284.14744199560806"
                 class="circle-from-green"/>
         <circle cx="198.1718233577751" cy="-222.99715583077418" r="378.8632559941441"
                 class="circle-from-green"/>
      </g>
   </g>
   <rect x="470" y="400" rx="4" ry="4" width="110" height="180" class="info-background"/>
   <text x="525" y="420" class="info-hole" text-anchor="middle">
					Hole 10</text>
   <text x="525" y="440" class="info-par" text-anchor="middle">
					Par 4</text>
   <circle cx="485.625" cy="457.1875" r="5.625" style="fill:blue"/>
   <text x="496.875" y="460" class="info-length">337 meters</text>
   <use xmlns:xlink="http://www.w3.org/1999/xlink" xlink:href="#Compass" x="550" y="50"
        transform="rotate(-45.1152799532978 550 50)"/>
   <use xmlns:xlink="http://www.w3.org/1999/xlink" xlink:href="#GolfMLLogoSmall" x="10"
        y="575"/>
</svg>