<?xml version="1.0" encoding="UTF-8"?>
<svg xmlns="http://www.w3.org/2000/svg" width="600" height="600">
   <defs>
      <style xmlns:g="http://code.google.com/p/golfml"
             xmlns:xlink="http://www.w3.org/1999/xlink"
             xmlns:xs="http://www.w3.org/2001/XMLSchema"
             type="text/css">
/* Stylesheet for SVG elements
 *
 *
 * Classes for area of interest (surfaces)
 *
 * DRAWING
 */
.background {
		fill: url(#background-gradient);
}

.hole-limits {
	fill: none;
	stroke: #ccc;
	stroke-width: 1px;
	stroke-dasharray: 10,10;
}

.hole-contour {
	fill: #030;
	stroke: #fff;
	stroke-width: 2px;
}


/* GROUND
 */
.fairway {
	fill: url(#fairway-pattern);
	stroke: #0b0;
	stroke-width: 3px; /* fairway fringe... */
}

.tee {
	fill: #00c800;
	stroke: #0f0;
	stroke-width: 1px;
}

.fringe {
	fill: #0A0;
}

.green {
	fill: url(#green-gradient);
	stroke: #0f0;
	stroke-width: 1px;
}

.semi-rough,
.light-rough {
	fill: #080;
	stroke: #08800D;
	stroke-width: 1px;
}

.rough {
	fill: url(#rough-gradient);
	stroke: #07660A;
	stroke-width: 1px;
}

.heavy-rough {
	fill: #040;
	stroke: #074D08;
	stroke-width: 1px;
}

.ground {
	fill: #7f400c;
	stroke: #fdcc6a;
	stroke-width: 1px;
}


/* WATER
 */
.lateral-water {
	fill: url(#lateral-water-gradient);
	stroke: red;
	stroke-width: 4px;
}

.front-water, .water {
	fill: #37f;
	stroke: yellow;
	stroke-width: 3px;
}


/* SPECIAL
 */
.under-repair {
	fill: none;
	stroke: #00d;
	stroke-width: 2px;
}

.out-of-bound { /* line only */
	fill: none;
	stroke: white;
	stroke-width: 4px;
}

.out-of-bound-area {
	fill: #ccc;
	stroke: white;
	stroke-width: 4px;
}


/* TRAPS
 */
.trap,
.bunker {
	fill: #92cf94;
	stroke: #4c994c;
	stroke-width: 1px;
}

.grass-trap,
.grass-bunker {
	fill: #050;
	stroke: #0A0;
	stroke-width: 1px;
}

.sand-trap,
.sand-bunker,
.greenside-trap,
.greenside-bunker {
	fill: #eec;
	stroke: #040;
	stroke-width: 2px;
}

.fairway-trap,
.fairway-bunker {
	fill: #eec;
	stroke: #030;
	stroke-width: 2px;
}


/* OBSTACLES
 */
.tree {
	fill: #062;
	stroke: #0c6;
	stroke-width: 1px;
}

.trees {
	fill: #062;
	stroke: #0c6;
	stroke-width: 1px;
}

.bush {
	fill: #00b259;
	stroke: #7f400c;
	stroke-width: 1px;
}


.path {
	fill: #666;
	stroke: #bbb;
	stroke-width: 1px;
}

.building,
.construction {
	fill: #fdcc6a;
	stroke: #7f400C;
	stroke-width: 1px;
}

.obstruction {
	fill: #555;
	stroke: #999;
	stroke-width: 1px;
}


.other {
	fill: #ddd;
	stroke: #666;
	stroke-width: 1px;
}

/* Classes for point of interest (points)
 *
 */
.dogleg {
	fill: #000;
}

.aim {
	fill: #fff;
	stroke: #f00;
	stroke-width: 1px;
}

.tees {
	fill: #00f;
}

.tees-hollow {
	stroke: #fff;
	stroke-width: 0.5px;
}

.hole {
	fill: #fff;
}

.distance-marker-100,
.distance-marker-close {
	fill: #44f;
	stroke: #00f;
	stroke-width: 1px;
}

.distance-marker-150,
.distance-marker-135,
.distance-marker,
.distance-marker-mid {
	fill: #f44;
	stroke: #f00;
	stroke-width: 1px;
}

.distance-marker-200,
.distance-marker-far {
	fill: #dd4;
	stroke: #ff0;
	stroke-width: 1px;
}

.green-region-delimiter {
	fill: none;
	stroke: #fff;
	stroke-width: 0.5;
	stroke-dasharray: 4,2;
}

.neutral {
	fill: none;
	stroke: #888;
	stroke-width: 1px;
}
.one-tree {
	fill: #14920D;
	stroke: #165822;
	stroke-width: 3px;
	stroke-linecap: round;
	stroke-linejoin: round; 
}

/* Classes for special decorative objects
 *
 */
.compass-center {
	fill: #ddd;
	stroke: #fff;
	stroke-width: 1px;
}
.compass-needle {
	fill: #ddd;
	stroke: #fff;
	stroke-width: 1px;
}
.compass-north {
	fill: #fff;
}
.flag-pole {
	fill: none;
	stroke: #f00;
	stroke-width: 2px;
}
.flag-flag {
	fill: #ff0;
	stroke: #f00;
	stroke-width: 1px;
}
.flag-cup {
	fill: #fff;
}
/* Information box */
.info-background {
	fill: #ddd;
}
.info-hole {
	font-family: Georgia, "Times New Roman", Times, serif;
	font-size: xx-large;
}
.info-par {
	font-family: Georgia, "Times New Roman", Times, serif;
	font-size: x-large;
}
.info-length {
	font-family: Georgia, "Times New Roman", Times, serif;
	font-size: large;
}
/* Circle for distances */
.circle-from-green {
	fill: none;
	stroke: #fff;
	stroke-width: 1px;
	stroke-dasharray: 4,4;
}
.circle-from-tee {
	fill: none;
	stroke: #f00;
	stroke-width: 1px;
	stroke-dasharray: 8,8;
}
/* Dynamic objects */
.target {
	fill: none;
	stroke: #f00;
	stroke-width: 2px;
}
.target-filled {
	fill: #f00;
	fill-opacity: 0.5;
	stroke: #f00;
}
.ball {
	fill: #fff;
	stroke: none;
}
.trajectory {
	fill: none;
	stroke: #fff;
	stroke-width: 2px;
}
.distance {
	fill: #fff;
}
</style>
      <linearGradient xmlns:g="http://code.google.com/p/golfml"
                      xmlns:xlink="http://www.w3.org/1999/xlink"
                      xmlns:xs="http://www.w3.org/2001/XMLSchema"
                      id="background-straight">
         <stop offset="5%" stop-color="#002"/>
         <stop offset="95%" stop-color="#004"/>
      </linearGradient>
      <linearGradient xmlns:g="http://code.google.com/p/golfml"
                      xmlns:xlink="http://www.w3.org/1999/xlink"
                      xmlns:xs="http://www.w3.org/2001/XMLSchema"
                      id="background-gradient"
                      gradientTransform="rotate(30)"
                      xlink:href="#background-straight"/>
      <linearGradient xmlns:g="http://code.google.com/p/golfml"
                      xmlns:xlink="http://www.w3.org/1999/xlink"
                      xmlns:xs="http://www.w3.org/2001/XMLSchema"
                      id="lateral-water-straight">
         <stop offset="5%" stop-color="#006"/>
         <stop offset="95%" stop-color="#008"/>
      </linearGradient>
      <linearGradient xmlns:g="http://code.google.com/p/golfml"
                      xmlns:xlink="http://www.w3.org/1999/xlink"
                      xmlns:xs="http://www.w3.org/2001/XMLSchema"
                      id="lateral-water-gradient"
                      gradientTransform="rotate(60)"
                      xlink:href="#lateral-water-straight"/>
      <linearGradient xmlns:g="http://code.google.com/p/golfml"
                      xmlns:xlink="http://www.w3.org/1999/xlink"
                      xmlns:xs="http://www.w3.org/2001/XMLSchema"
                      id="rough-straight">
         <stop offset="0%" stop-color="#030"/>
         <stop offset="25%" stop-color="#060"/>
         <stop offset="50%" stop-color="#040"/>
         <stop offset="75%" stop-color="#060"/>
         <stop offset="100%" stop-color="#080"/>
      </linearGradient>
      <linearGradient xmlns:g="http://code.google.com/p/golfml"
                      xmlns:xlink="http://www.w3.org/1999/xlink"
                      xmlns:xs="http://www.w3.org/2001/XMLSchema"
                      id="rough-gradient"
                      gradientTransform="rotate(70)"
                      xlink:href="#rough-straight"/>
      <linearGradient xmlns:g="http://code.google.com/p/golfml"
                      xmlns:xlink="http://www.w3.org/1999/xlink"
                      xmlns:xs="http://www.w3.org/2001/XMLSchema"
                      id="green-straight">
         <stop offset="0%" stop-color="#0d0"/>
         <stop offset="25%" stop-color="#0e0"/>
         <stop offset="50%" stop-color="#0c0"/>
         <stop offset="75%" stop-color="#0e0"/>
         <stop offset="100%" stop-color="#0b0"/>
      </linearGradient>
      <linearGradient xmlns:g="http://code.google.com/p/golfml"
                      xmlns:xlink="http://www.w3.org/1999/xlink"
                      xmlns:xs="http://www.w3.org/2001/XMLSchema"
                      id="green-gradient"
                      gradientTransform="rotate(75)"
                      xlink:href="#green-straight"/>
      <pattern xmlns:g="http://code.google.com/p/golfml"
               xmlns:xlink="http://www.w3.org/1999/xlink"
               xmlns:xs="http://www.w3.org/2001/XMLSchema"
               id="fairway-straight"
               patternUnits="userSpaceOnUse"
               x="0"
               y="0"
               width="20"
               height="20"
               viewBox="0 0 20 20">
         <rect x="0" y="0" width="10" height="10" fill="#00c000"/>
         <rect x="10" y="10" width="10" height="10" fill="#00c800"/>
         <rect x="10" y="0" width="10" height="10" fill="#00bc00"/>
         <rect x="0" y="10" width="10" height="10" fill="#00b800"/>
      </pattern>
      <pattern xmlns:g="http://code.google.com/p/golfml"
               xmlns:xlink="http://www.w3.org/1999/xlink"
               xmlns:xs="http://www.w3.org/2001/XMLSchema"
               id="fairway-pattern"
               patternTransform="rotate(60)"
               xlink:href="#fairway-straight"/>
      <g xmlns:g="http://code.google.com/p/golfml"
         xmlns:xlink="http://www.w3.org/1999/xlink"
         xmlns:xs="http://www.w3.org/2001/XMLSchema"
         id="Tree"
         transform="translate(-76 -66) scale(0.4)">
         <path class="one-tree"
               d="M191.991,126.799c-11.163,0-21.022,4.032-27.033,10.191c-17.556,0.615-31.556,11.151-31.556,24.079       c0,7.537,4.759,14.266,12.203,18.693c0.876,12.855,18.43,23.128,39.939,23.128c22.07,0,39.979-10.812,39.979-24.136       c0-0.065-0.012-0.13-0.013-0.195c6.33-2.866,10.33-6.992,10.33-11.595c0-4.806-4.343-9.104-11.164-11.977       c0.31-1.318,0.478-2.67,0.478-4.054C225.154,137.612,210.297,126.799,191.991,126.799z"/>
      </g>
      <g xmlns:g="http://code.google.com/p/golfml"
         xmlns:xlink="http://www.w3.org/1999/xlink"
         xmlns:xs="http://www.w3.org/2001/XMLSchema"
         id="TeeSet">
         <circle cx="-5" cy="0" r="2"/>
         <circle cx="5" cy="0" r="2"/>
      </g>
      <g xmlns:g="http://code.google.com/p/golfml"
         xmlns:xlink="http://www.w3.org/1999/xlink"
         xmlns:xs="http://www.w3.org/2001/XMLSchema"
         id="DistanceMarker">
         <circle r="6"/>
      </g>
      <g xmlns:g="http://code.google.com/p/golfml"
         xmlns:xlink="http://www.w3.org/1999/xlink"
         xmlns:xs="http://www.w3.org/2001/XMLSchema"
         id="Dogleg">
         <circle r="4"/>
      </g>
      <g xmlns:g="http://code.google.com/p/golfml"
         xmlns:xlink="http://www.w3.org/1999/xlink"
         xmlns:xs="http://www.w3.org/2001/XMLSchema"
         id="Aim">
         <circle r="4"/>
      </g>
      <g xmlns:g="http://code.google.com/p/golfml"
         xmlns:xlink="http://www.w3.org/1999/xlink"
         xmlns:xs="http://www.w3.org/2001/XMLSchema"
         id="Hole">
         <circle r="2"/>
      </g>
      <g xmlns:g="http://code.google.com/p/golfml"
         xmlns:xlink="http://www.w3.org/1999/xlink"
         xmlns:xs="http://www.w3.org/2001/XMLSchema"
         id="Ball">
         <image xlink:href="../stylesheets/images/golf-ball.png" width="16" height="16"
                transform="translate(-8 -8)"/>
      </g>
      <g xmlns:g="http://code.google.com/p/golfml"
         xmlns:xlink="http://www.w3.org/1999/xlink"
         xmlns:xs="http://www.w3.org/2001/XMLSchema"
         id="Target">
         <circle class="target-filled" r="12"/>
      </g>
      <g xmlns:g="http://code.google.com/p/golfml"
         xmlns:xlink="http://www.w3.org/1999/xlink"
         xmlns:xs="http://www.w3.org/2001/XMLSchema"
         id="Flag"
         transform="translate(0 -30) scale(-0.2 0.2)">
         <line id="FlagPole" class="flag-pole" x1="0.5" y1="0" x2="0.5" y2="150"/>
         <circle id="FlagCup" class="flag-cup" r="10" cx="0" cy="145"/>
         <g id="FlagFlag">
            <path class="flag-flag"
                  d="M55.339,45.968c-18.28-14.516-36.559,14.516-54.839,0c0-12.097,0-24.193,0-36.29        c18.28,14.516,36.559-14.516,54.839,0C55.339,21.774,55.339,33.871,55.339,45.968z"/>
         </g>
      </g>
      <g xmlns:g="http://code.google.com/p/golfml"
         xmlns:xlink="http://www.w3.org/1999/xlink"
         xmlns:xs="http://www.w3.org/2001/XMLSchema"
         id="Compass">
         <polygon id="CompassNeedle" class="compass-needle" points="0,30 -8,0 0,-20 8,0"/>
         <circle id="CompassCenter" class="compass-center" r="10"/>
         <text id="CompassNorth" class="compass-north" x="-4.7" y="40">N</text>
      </g>
      <g xmlns:g="http://code.google.com/p/golfml"
         xmlns:xlink="http://www.w3.org/1999/xlink"
         xmlns:xs="http://www.w3.org/2001/XMLSchema"
         id="GolfMLLogoSmall">
         <image xlink:href="../stylesheets/images/golfml-small.png" width="80" height="15"/>
      </g>
   </defs>
   <rect class="background" x="0" y="0" width="600" height="600"/>
   <g transform="translate(300,300) scale(-0.962546398996997,0.962546398996997) rotate(-15.730745895577797)">
      <path class="hole-contour"
            d="M84.19947153245185,-144.98241780360718Q84.19947153245185,-144.98241780360718 71.24478691650503,-94.28840883600516 L64.76744460853163,-68.94140435220416Q51.81275999258482,-18.247395384602147 29.28347092619171,51.59746915056749 L18.01882639299516,86.51990141815229Q-4.510462673397951,156.36476595332192 -32.10843552423974,213.81811511587372 L-45.90742194966063,242.54478969714964Q-73.50539480050242,299.99813885970144 -88.1500351181872,292.1129914789772 L-95.47235527702959,288.1704177886151Q-110.11699559471438,280.2852704078909 -97.82970679062858,218.5812280356358 L-91.68606238858568,187.72920684950827Q-79.39877358449988,126.02516447725318 -76.85226742633442,63.27648928627064 L-75.57901434725169,31.90215169077937Q-73.03250818908623,-30.846523500203176 -43.09244209311845,-88.49984441083276 L-28.122409045134575,-117.32650486614756Q1.8176570508332017,-174.97982577677715 2.773080799057283,-184.535581403891 L3.2507926731693235,-189.31345921744793Q4.206216421393405,-198.86921484456178 1.9762869431181045,-212.24723386990013 L0.861322203980454,-218.93624338256927Q-1.3686072742948465,-232.31426240790762 0.8609143738850309,-243.78124587293604 L1.97567519797497,-249.51473760545025Q4.2051968461548475,-260.98172107047867 11.531280683034502,-270.53766431803393 L15.19432260147433,-275.31563594181154Q22.520406438353984,-284.8715791893668 31.75778292718457,-290.92373648960825 L36.37647117159987,-293.94981513972897Q45.61384766043046,-300.0019724399704 59.94785131403327,-298.09094032151495 L67.11485314083467,-297.1354242622872Q81.44885679443749,-295.2243921438317 92.27901189912856,-285.98712580404504 L97.6940894514741,-281.36849263415166Q108.52424455616519,-272.131226294365 109.16134496727568,-257.47899679889446 L109.47989517283092,-250.15288205115917Q110.11699558394142,-235.50065255568862 107.56880652143926,-219.89288927985749 L106.29471199018818,-212.0890076419419Q103.74652292768602,-196.48124436611076 95.92770236959235,-175.8817137411093 L92.01829209054551,-165.5819484286086Q84.19947153245185,-144.98241780360718 84.19947153245185,-144.98241780360718 Z"/>
      <clipPath id="HoleContour" transform="scale(1.2)">
         <path class="hole-contour"
               d="M84.19947153245185,-144.98241780360718Q84.19947153245185,-144.98241780360718 71.24478691650503,-94.28840883600516 L64.76744460853163,-68.94140435220416Q51.81275999258482,-18.247395384602147 29.28347092619171,51.59746915056749 L18.01882639299516,86.51990141815229Q-4.510462673397951,156.36476595332192 -32.10843552423974,213.81811511587372 L-45.90742194966063,242.54478969714964Q-73.50539480050242,299.99813885970144 -88.1500351181872,292.1129914789772 L-95.47235527702959,288.1704177886151Q-110.11699559471438,280.2852704078909 -97.82970679062858,218.5812280356358 L-91.68606238858568,187.72920684950827Q-79.39877358449988,126.02516447725318 -76.85226742633442,63.27648928627064 L-75.57901434725169,31.90215169077937Q-73.03250818908623,-30.846523500203176 -43.09244209311845,-88.49984441083276 L-28.122409045134575,-117.32650486614756Q1.8176570508332017,-174.97982577677715 2.773080799057283,-184.535581403891 L3.2507926731693235,-189.31345921744793Q4.206216421393405,-198.86921484456178 1.9762869431181045,-212.24723386990013 L0.861322203980454,-218.93624338256927Q-1.3686072742948465,-232.31426240790762 0.8609143738850309,-243.78124587293604 L1.97567519797497,-249.51473760545025Q4.2051968461548475,-260.98172107047867 11.531280683034502,-270.53766431803393 L15.19432260147433,-275.31563594181154Q22.520406438353984,-284.8715791893668 31.75778292718457,-290.92373648960825 L36.37647117159987,-293.94981513972897Q45.61384766043046,-300.0019724399704 59.94785131403327,-298.09094032151495 L67.11485314083467,-297.1354242622872Q81.44885679443749,-295.2243921438317 92.27901189912856,-285.98712580404504 L97.6940894514741,-281.36849263415166Q108.52424455616519,-272.131226294365 109.16134496727568,-257.47899679889446 L109.47989517283092,-250.15288205115917Q110.11699558394142,-235.50065255568862 107.56880652143926,-219.89288927985749 L106.29471199018818,-212.0890076419419Q103.74652292768602,-196.48124436611076 95.92770236959235,-175.8817137411093 L92.01829209054551,-165.5819484286086Q84.19947153245185,-144.98241780360718 84.19947153245185,-144.98241780360718 Z"/>
      </clipPath>
      <path class="semi-rough"
            d="M62.36468303115611,-112.03072128811162Q62.36468303115611,-112.03072128811162 36.218092389591334,-119.46143052238288 L23.144797068808945,-123.1767851395185Q-3.0017935727558283,-130.60749437378976 1.9521185744850693,-139.96518178944385 L4.429074648105518,-144.64402549727086Q9.382986795346415,-154.00171291292494 10.896623361946142,-160.88233550877845 L11.653441645246007,-164.3226468067052Q13.167078211845734,-171.2032694025587 13.442220000549366,-176.70775717941524 L13.579790894901183,-179.46000106784354Q13.854932683604815,-184.96448884470007 13.029158660682171,-190.6065779883255 L12.616271649220849,-193.42762256013822Q11.790497626298205,-199.06971170376366 11.790435663552156,-203.06047206899026 L11.790404682179133,-205.05585225160357Q11.790342719433085,-209.04661261683017 12.4783644807383,-212.3493258737615 L12.822375361390907,-214.0006825022272Q13.510397122696123,-217.30339575915852 15.02409479142095,-221.70702633153746 L15.780943625783365,-223.90884161772692Q17.294641294508192,-228.31247219010586 20.3220937613684,-233.8170361520841 L21.8358199947985,-236.56931813307327Q24.863272461658706,-242.07388209505152 29.542107497376286,-248.8169923160967 L31.881525015235074,-252.18854742661932Q36.56036005095265,-258.9316576476645 41.101644219571355,-261.8216003592489 L43.372286303880706,-263.2665717150411Q47.91357047249941,-266.1565144266255 54.24389202293801,-266.70704020159144 L57.409052798157305,-266.98230308907443Q63.73937434859591,-267.53282886404037 70.3449541163306,-265.60629752952633 L73.64774400019793,-264.6430318622693Q80.25332376793261,-262.7165005277553 84.79467332996434,-256.5239250142679 L87.0653481109802,-253.42763725752417Q91.60669767301192,-247.23506174403676 93.25813013777861,-236.91408345823288 L94.08384637016196,-231.75359431533096Q95.73527883492865,-221.43261602952708 92.84540990482706,-211.79971380983616 L91.40047543977629,-206.9832626999907Q88.5106065096747,-197.35036048029977 85.07028406379904,-190.60733534839807 L83.35012284086119,-187.2358227824472Q79.90980039498552,-180.4927976505455 81.56119901940951,-176.77727265525237 L82.3868983316215,-174.91951015760583Q84.03829695604549,-171.2039851623127 75.36885138608973,-147.53467961263226 L71.03412860111186,-135.70002683779205Q62.36468303115611,-112.03072128811162 62.36468303115611,-112.03072128811162 Z"/>
      <path class="tee"
            d="M-75.12116780387574,274.25734318965164Q-75.12116780387574,274.25734318965164 -79.1240198781061,273.20407766193495 L-81.12544591522129,272.67744489807666Q-85.12829798945165,271.62417937035997 -80.28319447357097,255.61241589465578 L-77.86064271563062,247.60653415680366Q-73.01553919974994,231.59477068109948 -69.01268815815908,232.01600780137562 L-67.01126263736364,232.2266263615137Q-63.00841159577278,232.64786348178984 -67.85351407901396,249.29165536493457 L-70.27606532063456,257.6135513065069Q-75.12116780387574,274.25734318965164 -75.12116780387574,274.25734318965164 Z"/>
      <path class="fairway"
            d="M71.39806723745104,-250.97237442561905Q71.39806723745104,-250.97237442561905 73.85097027062736,-249.37803519399543 L75.07742178721553,-248.58086557818362Q77.53032482039184,-246.98652634656 79.12474559393786,-242.20348289900238 L79.92195598071086,-239.8119611752236Q81.51637675425688,-235.02891772766597 82.00701563734653,-228.16095304900603 L82.25233507889135,-224.72697070967607Q82.742973961981,-217.85900603101612 82.12979641227507,-213.32124203104172 L81.82320763742212,-211.0523600310545Q81.21003008771619,-206.5145960310801 79.41430750586508,-201.76785111736694 L78.51644621493952,-199.39447866051034Q76.72072363308841,-194.6477337467972 74.22315195947932,-191.02623107599982 L72.97436612267477,-189.21547974060115Q70.47679444906568,-185.59397706980377 71.35098028339489,-182.9715239902891 L71.7880732005595,-181.6602974505318Q72.6622590348887,-179.03784437101714 77.28285019657325,-175.2914999867818 L79.59314577741553,-173.4183277946641Q84.21373693910007,-169.67198341042874 80.71715750748729,-163.30316158720353 L78.96886779168088,-160.11875067559095Q75.47228836006809,-153.74992885236574 71.8508582552,-146.13232979842155 L70.04014320276596,-142.32353027144947Q66.41871309789786,-134.70593121750528 57.67186507805403,-104.45364515253513 L53.29844106813212,-89.32750212005004Q44.55159304828829,-59.075216055079885 40.305957864924935,-39.594205595126326 L38.18314027324326,-29.853700365149543Q33.937505089879906,-10.372689905195982 26.570054918767887,11.35608269121518 L22.886329833211875,22.220468989420752Q15.518879662099854,43.94924158583191 9.650099864877493,67.67599003641241 L6.715709966266315,79.53936426170266Q0.8469301690439548,103.26611271228316 -3.8980992745941436,116.25341745989196 L-6.270613996413194,122.74706983369636Q-11.015643440051292,135.73437458130516 -17.009586836265925,139.98031650156815 L-20.00655853437324,142.10328746169964Q-26.000501930587877,146.34922938196263 -30.496028951890747,146.09957808298287 L-32.74379246254218,145.97475243349302Q-37.23931948384505,145.72510113451327 -43.4832116378794,140.97992593859098 L-46.60515771489658,138.60733834062987Q-52.849049868930926,133.86216314470758 -55.59646900978211,127.61838500474492 L-56.9701785802077,124.49649593476359Q-59.71759772105889,118.25271779480093 -60.09237106231322,112.3835084255071 L-60.27975773294038,109.44890374086019Q-60.654531074194715,103.57969437156636 -59.37473950601606,97.87096061848162 L-58.734843721926744,95.01659374193923Q-57.45505215374809,89.30785998885449 -52.910717178547856,82.94541396355322 L-50.63854969094774,79.76419095090259Q-46.094214715747505,73.40174492560132 -43.45857221221282,66.2213410528541 L-42.14075096044548,62.63113911648049Q-39.5051084569108,55.45073524373327 -39.41436957112971,48.72484590327157 L-39.36900012823917,45.36190123304072Q-39.278261242458086,38.63601189257902 -37.36975913252844,29.819592539730934 L-36.41550807756363,25.41138286330689Q-34.50700596763399,16.5949635104588 -31.170522437610607,12.580096719581817 L-29.502280672598914,10.572663324143326Q-26.165797142575535,6.557796533266342 -21.62328715991393,1.3336670597171638 L-19.352032168583126,-1.2783976770574244Q-14.809522185921518,-6.5025271506066025 -13.446817864104672,-10.8180522900898 L-12.76546570319625,-12.975814859831399Q-11.402761381379404,-17.291339999314598 -11.630048502579903,-25.92232310161788 L-11.743692063180154,-30.237814652769522Q-11.970979184380653,-38.868797755072805 -12.425497342440774,-52.72379224381854 L-12.652756421470833,-59.651289488191395Q-13.107274579530955,-73.50628397693713 -8.11145813343142,-81.70414579902895 L-5.613549910381651,-85.80307671007485Q-0.6177334642821141,-94.00093853216667 6.351892341235638,-108.33521844282272 L9.836705243994514,-115.50235839815073Q16.806331049512266,-129.83663830880678 19.699297086965675,-142.3297542542058 L21.145780105692378,-148.57631222690532Q24.038746143145787,-161.06942817230433 28.785502465023743,-174.01033973619738 L31.15888062596272,-180.4807955181439Q35.90563694784068,-193.42170708203696 35.14222334897113,-196.26696290228654 L34.76051654953635,-197.6895908124113Q33.9971029506668,-200.53484663266087 31.776326314855723,-204.0740522189033 L30.665937996950188,-205.8436550120245Q28.44516136113911,-209.38286059826692 27.820535214473825,-212.50570643896233 L27.508222141141182,-214.06712935931006Q26.883595994475897,-217.18997520000548 27.57752872895488,-220.2434433678472 L27.924495096194377,-221.77017745176806Q28.61842783067336,-224.82364561960978 29.93694594025082,-227.66893235844887 L30.59620499503955,-229.09157572786845Q31.914723104617007,-231.93686246670754 34.34361763200813,-234.29638472311646 L35.558064895703694,-235.47614585132092Q37.986959423094824,-237.83566810772984 39.236099731311484,-239.57060459889544 L39.86066988541982,-240.43807284447823Q41.10981019363648,-242.17300933564383 42.70593782873767,-244.25493513973743 L43.50400164628826,-245.2958980417842Q45.10012928138945,-247.3778238458778 46.76565903038464,-249.32095547728397 L47.59842390488224,-250.29252129298706Q49.26395365387743,-252.23565292439324 51.27648757031023,-253.207229313187 L52.28275452852663,-253.6930175075839Q54.29528844495943,-254.66459389637768 56.51602989844061,-254.59521565020168 L57.6264006251812,-254.5605265271137Q59.84714207866237,-254.4911482809377 62.20668647512971,-253.65840063054776 L63.38645867336337,-253.24202680535276Q65.7460030698307,-252.40927915496283 68.00682873687884,-251.8345172632253 L69.1372415704029,-251.54713631735657Q71.39806723745104,-250.97237442561905 71.39806723745104,-250.97237442561905 Z"/>
      <path class="greenside-trap"
            d="M43.191900528368016,-230.54905338903836Q43.191900528368016,-230.54905338903836 43.12253128669433,-228.32835304134343 L43.087846665857484,-227.21800286749598Q43.0184774241838,-224.99730251980105 42.25511581878651,-223.88694557688515 L41.87343501608786,-223.3317671054272Q41.11007341069057,-222.2214101625113 40.97130178869514,-220.41709251366237 L40.90191597769743,-219.51493368923792Q40.763144355702,-217.710616040389 41.248952673142725,-215.9063050870226 L41.49185683186308,-215.00414961033937Q41.9776651493038,-213.19983865697296 41.63069279766614,-211.95069337710876 L41.45720662184732,-211.32612073717664Q41.11023427020966,-210.07697545731244 39.44469389383937,-209.72997369887307 L38.61192370565422,-209.5564728196534Q36.94638332928393,-209.20947106121403 35.489013703555585,-210.45859565970088 L34.76032889069142,-211.08315795894427Q33.30295926496307,-212.3322825574311 32.74774052586293,-214.89995606971613 L32.47013115631287,-216.18379282585866Q31.914912417212726,-218.75146633814367 32.33126261919699,-221.31915325747934 L32.53943772018913,-222.60299671714716Q32.95578792217339,-225.17068363648283 33.64973329654027,-227.5301843395267 L33.996705983723714,-228.70993469104866Q34.69065135809059,-231.06943539409252 36.70317827524673,-231.9716176063693 L37.70944173382479,-232.42270871250773Q39.721968650980926,-233.3248909247845 41.109941401935764,-232.21455591048604 L41.80392777741318,-231.65938840333683Q43.191900528368016,-230.54905338903836 43.191900528368016,-230.54905338903836 Z"/>
      <path class="greenside-trap"
            d="M73.20683367723774,-195.5039104515488Q73.20683367723774,-195.5039104515488 72.16588679371463,-193.69959091371337 L71.64541335195307,-192.79743114479564Q70.60446646842996,-190.9931116069602 68.80013473429028,-190.2991345457363 L67.89796886722043,-189.95214601512433Q66.09363713308075,-189.25816895390042 64.5669126694047,-187.24565574706352 L63.80355043756667,-186.23939914364507Q62.276825973890624,-184.22688593680817 61.02767110677093,-184.15748063524575 L60.40309367321109,-184.12277798446453Q59.153938806091396,-184.0533726829021 57.696582050321524,-184.74732863275693 L56.96790367243659,-185.09430660768436Q55.51054691666672,-185.78826255753918 55.51052238292412,-187.87016286415604 L55.51051011605282,-188.9111130174645Q55.510485582310224,-190.99301332408135 56.75963249747054,-191.82578312468695 L57.384205955050696,-192.24216802498972Q58.63335287021101,-193.07493782559533 60.09069156595304,-194.11589861873802 L60.819360913824056,-194.63637901530933Q62.27669960956608,-195.67733980845202 62.83186700509975,-196.926484223291 L63.10945070286658,-197.55105643071047Q63.664618098400254,-198.80020084554945 64.42797657956278,-200.32693362160884 L64.80965582014406,-201.09030000963853Q65.57301430130659,-202.61703278569792 66.6833756844102,-202.75583288031487 L67.23855637596199,-202.82523292762332Q68.3489177590656,-202.96403302224027 69.94507060842847,-202.547661182906 L70.74314703310989,-202.33947526323888Q72.33929988247276,-201.92310342390462 72.68631340037875,-199.3554262349623 L72.85982015933175,-198.07158764049112Q73.20683367723774,-195.5039104515488 73.20683367723774,-195.5039104515488 Z"/>
      <path class="fairway-trap"
            d="M-19.856995637459704,-30.116623977430947Q-19.856995637459704,-30.116623977430947 -19.10046415974807,-28.711707778998154 L-18.72219842089226,-28.00924967978176Q-17.965666943180626,-26.604333481348966 -17.74947935709278,-24.33482911023971 L-17.64138556404886,-23.200076924685078Q-17.425197977961016,-20.93057255357582 -18.613960981591088,-19.41754191195939 L-19.20834248340612,-18.661026591151174Q-20.397105487036193,-17.147995949534742 -20.397065405504087,-15.09463394042286 L-20.39704536473803,-14.06795293586692Q-20.397005283205925,-12.014590926755037 -19.96467305695513,-9.745095888458838 L-19.748506943829735,-8.610348369310739Q-19.316174717578942,-6.340853331014538 -22.017954092493284,-5.692362142644047 L-23.368843779950453,-5.368116548458801Q-26.070623154864794,-4.71962536008831 -27.691711554246343,-5.3680176357176945 L-28.502255753937117,-5.692213773532386Q-30.123344153318666,-6.340606049161771 -31.63637716592546,-7.745499757899132 L-32.39289367222886,-8.447946612267812Q-33.90592668483565,-9.852840321005173 -34.98663435818882,-9.420528218469972 L-35.52698819486541,-9.20437216720237Q-36.607695868218585,-8.77206006466717 -38.01260337780845,-7.691307524308676 L-38.71505713260339,-7.150931254129429Q-40.11996464219326,-6.070178713770936 -41.8491109525659,-6.0701340565737585 L-42.71368410775222,-6.07011172797517Q-44.44283041812486,-6.070067070777992 -45.9558478544614,-6.718457186365212 L-46.712356572629666,-7.0426522441588215Q-48.225374008966206,-7.6910423597460404 -47.576976067916256,-9.095989855622056 L-47.252777097391274,-9.798463603560062Q-46.604379156341324,-11.203411099436078 -45.52370356445742,-13.040658858549829 L-44.98336576851547,-13.959282738106705Q-43.902690176631566,-15.796530497220456 -44.11887796216866,-17.741815913464084 L-44.22697185493721,-18.714458621585898Q-44.443159640474306,-20.659744037829526 -44.227049480385894,-22.1727541596456 L-44.118994400341684,-22.929259220553636Q-43.90288424025327,-24.44226934236971 -43.03833116365087,-25.41493811132702 L-42.606054625349664,-25.90127249580568Q-41.74150154874726,-26.873941264762994 -40.22849018650683,-26.6578361924832 L-39.47198450538662,-26.549783656343298Q-37.958973143146196,-26.333678584063502 -36.662095839322355,-25.68527967681417 L-36.01365718741043,-25.3610802231895Q-34.71677988358659,-24.712681315940166 -34.06831637224271,-23.199692641131616 L-33.74408461657078,-22.44319830372734Q-33.095621105226904,-20.93020962891879 -31.798750452618798,-20.497955106620623 L-31.15031512631474,-20.281827845471543Q-29.853444473706634,-19.849573323173377 -29.205030755066137,-20.714162056447652 L-28.88082389574589,-21.146456423084786Q-28.232410177105393,-22.01104515635906 -28.556657537770725,-23.524042324404427 L-28.71878121810339,-24.280540908427113Q-29.043028578768723,-25.79353807647248 -28.82691729227716,-27.4146213423399 L-28.718861649031375,-28.22516297527361Q-28.50275036253981,-29.846246241141028 -26.557465250225864,-30.386650820549114 L-25.584822694068887,-30.656853110253156Q-23.63953758175494,-31.197257689661242 -22.126520804036847,-30.765004204769124 L-21.370012415177797,-30.548877462323066Q-19.856995637459704,-30.116623977430947 -19.856995637459704,-30.116623977430947 Z"/>
      <path class="green"
            d="M75.38410674279534,-241.16100833669014Q75.38410674279534,-241.16100833669014 76.4879385888781,-237.60438637128306 L77.03985451191946,-235.8260753885795Q78.14368635800221,-232.26945342317242 78.26637505884426,-227.60904959941112 L78.32771940926527,-225.2788476875305Q78.45040811010732,-220.6184438637692 78.20515508854604,-216.93917626572556 L78.0825285777654,-215.09954246670378Q77.83727555620412,-211.42027486866016 76.73350145693105,-209.33535197064967 L76.18161440729452,-208.29289052164444Q75.07784030802145,-206.20796762363395 73.23819046758459,-205.47210731697444 L72.31836554736614,-205.10417716364466Q70.47871570692928,-204.36831685698516 69.00698753986056,-204.61359218663537 L68.27112345632621,-204.73622985146045Q66.79939528925749,-204.98150518111066 64.71446749982306,-203.50978642076547 L63.672003605105836,-202.77392704059284Q61.5870758156714,-201.30220828024764 61.096516544032596,-199.95314030355647 L60.85123690821319,-199.27860631521088Q60.36067763657439,-197.9295383385197 59.011616879979435,-196.2125396324155 L58.337086501681966,-195.3540402793634Q56.988025745087015,-193.6370415732592 55.6389545593844,-192.90117544262472 L54.9644189665331,-192.5332423773075Q53.61534778083049,-191.797376246673 53.73801363739367,-189.95774478703663 L53.799346565675265,-189.03792905721846Q53.922012422238446,-187.1982975975821 53.554105849667046,-185.23601712683714 L53.37015256338134,-184.25487689146465Q53.00224599080994,-182.2925964207197 50.67200343354445,-183.5190011972957 L49.5068821549117,-184.13220358558368Q47.17663959764621,-185.35860836215969 45.82751578864763,-188.7925771790783 L45.152953884148346,-190.50956158753763Q43.80383007514977,-193.94353040445625 42.45472217689648,-196.02843334134351 L41.780168227769835,-197.07088480978712Q40.43106032951655,-199.15578774667438 39.32724196560984,-200.99540956450863 L38.775332783656495,-201.9152204734258Q37.67151441974979,-203.75484229126005 39.7564453487527,-204.73600144170666 L40.79891081325415,-205.22658101692997Q42.88384174225706,-206.20774016737658 43.74230711089837,-209.39644725184274 L44.17153979521903,-210.99080079407582Q45.030005163860345,-214.17950787854198 44.662051131324745,-215.89649498879461 L44.47807411505695,-216.75498854392092Q44.11012008252135,-218.47197565417355 44.355388868823724,-219.9436842402088 L44.47802326197491,-220.6795385332264Q44.72329204827729,-222.15124711926165 45.94970402001456,-224.35881906031202 L46.56291000588319,-225.46260503083718Q47.78932197762046,-227.67017697188754 47.29872710547298,-229.14187868717846 L47.053429669399236,-229.8777295448239Q46.56283479725175,-231.3494312601148 44.84579961176402,-232.6984791414754 L43.987282019020164,-233.3730030821557Q42.27024683353243,-234.72205096351627 41.534375473283674,-235.21261177311817 L41.1664397931593,-235.45789217791915Q40.43056843291054,-235.94845298752105 42.02492334758976,-237.42017682997948 L42.82210080492938,-238.15603875120868Q44.4164557196086,-239.62776259366711 45.642869889583615,-241.83533537021225 L46.256076974571116,-242.93912175848484Q47.48249114454613,-245.14669453502998 49.32213731637568,-246.61841791388483 L50.24196040229045,-247.35427960331225Q52.08160657412,-248.8260029821671 54.28919871041663,-249.31659027671415 L55.39299477856493,-249.56188392398766Q57.60058691486156,-250.05247121853472 61.03463561947723,-249.43928230152002 L62.75165997178507,-249.1326878430127Q66.18570867640074,-248.519498925998 69.86506790295857,-245.57610269027487 L71.7047475162375,-244.10440457241327Q75.38410674279534,-241.16100833669014 75.38410674279534,-241.16100833669014 Z"/>
      <path class="trees"
            d="M-29.58429081231909,-68.2117008494771Q-29.58429081231909,-68.2117008494771 -30.448765358474386,-63.88883183288572 L-30.881002631552033,-61.72739732459003Q-31.74547717770733,-57.40452830799865 -33.58269443299187,-56.75605037062374 L-34.501303060634136,-56.43181140193629Q-36.33852031591868,-55.78333346456137 -36.01425593235588,-53.513825914970596 L-35.852123740574484,-52.379072140175204Q-35.527859357011685,-50.10956459058443 -38.22963253218826,-48.5964867319876 L-39.58051911977655,-47.839947802689196Q-42.28229229495312,-46.32686994409237 -43.14688626409266,-47.08335288083396 L-43.579183248662424,-47.461594349204745Q-44.44377721780196,-48.21807728594633 -46.17285548072332,-44.867798343825115 L-47.037394612184,-43.19265887276451Q-48.766472875105364,-39.8423799306433 -51.900579035870024,-40.490723745653476 L-53.46763211625235,-40.814895653158565Q-56.601738277017006,-41.463239468168744 -58.5470275211617,-41.138969660719916 L-59.51967214323405,-40.976834756995494Q-61.46496138737874,-40.652564949546665 -60.38430905065893,-43.46246592733085 L-59.843982882299024,-44.867416416222945Q-58.76333054557921,-47.677317394007126 -59.19567442056492,-49.946819659333364 L-59.41184635805778,-51.081570791996484Q-59.84419023304349,-53.35107305732272 -59.73615748303287,-54.97215734307001 L-59.682141108027565,-55.782699485943645Q-59.57410835801694,-57.40378377169093 -58.601509475502354,-59.56525754992291 L-58.11521003424505,-60.64599443903891Q-57.14261115173046,-62.80746821727089 -55.197279872300854,-61.61872681748066 L-54.22461423258605,-61.02435611758555Q-52.27928295315644,-59.83561471779532 -50.33400204934091,-60.808318083920156 L-49.36136159743315,-61.29466976698257Q-47.41608069361762,-62.267373133107405 -46.443376650055264,-59.88981041436768 L-45.95702462827409,-58.70102905499782Q-44.98432058471173,-56.32346633625809 -41.20180567020966,-59.02548152105727 L-39.310548212958615,-60.37648911345686Q-35.52803329845654,-63.07850429825604 -35.203890653856476,-64.80755722806212 L-35.04181933155645,-65.67208369296516Q-34.71767668695638,-67.40113662277123 -32.66432233710147,-67.72536231345357 L-31.637645162174007,-67.88747515879476Q-29.58429081231909,-68.2117008494771 -29.58429081231909,-68.2117008494771 Z"/>
      <path class="trees"
            d="M1.1263438400376198,-144.7127727212323Q1.1263438400376198,-144.7127727212323 -0.3873268661276028,-140.58439257569964 L-1.144162219210214,-138.5202025029333Q-2.6578329253754367,-134.39182235740063 -4.9972197304686485,-132.60282607705724 L-6.166913133015254,-131.70832793688555Q-8.506299938108466,-129.91933165654217 -13.047497983410114,-128.54312236638825 L-15.318097006060935,-127.85501772131128Q-19.859295051362583,-126.47880843115736 -19.721730457426478,-128.81820956876118 L-19.652948160458422,-129.9879101375631Q-19.515383566522317,-132.32731127516692 -17.726465628081414,-134.94197108484633 L-16.832006658860962,-136.24930098968602Q-15.04308872042006,-138.86396079936543 -13.529402536741356,-141.891450121118 L-12.772559444902004,-143.4051947819943Q-11.2588732612233,-146.43268410374688 -6.304786420718932,-145.74471955074105 L-3.8277430004667488,-145.40073727423814Q1.1263438400376198,-144.7127727212323 1.1263438400376198,-144.7127727212323 Z"/>
      <path class="tree"
            d="M-12.832970077841713,-66.86129326382834Q-12.832970077841713,-66.86129326382834 -13.481338970607249,-63.078748429477116 L-13.805523416990019,-61.18747601230151Q-14.453892309755554,-57.40493117795028 -16.615304660644185,-55.45958360113345 L-17.696010836088497,-54.48690981272504Q-19.857423186977126,-52.54156223590821 -22.2350206995413,-52.86572453030134 L-23.423819455823384,-53.0278056774979Q-25.801416968387556,-53.351967971891035 -26.449898593619814,-55.72954093072395 L-26.77413940623594,-56.918327410140414Q-27.422621031468196,-59.29590036897333 -26.558091466968126,-61.88965446564558 L-26.125826684718092,-63.1865315139817Q-25.26129712021802,-65.78028561065395 -23.424090814723193,-67.18526945031377 L-22.505487661975778,-67.88776137014369Q-20.66828135648095,-69.29274520980351 -17.534156845025255,-68.32016443141345 L-15.967094589297409,-67.83387404221841Q-12.832970077841713,-66.86129326382834 -12.832970077841713,-66.86129326382834 Z"/>
      <path class="tree"
            d="M-33.90644093547242,-34.16898630487172Q-33.90644093547242,-34.16898630487172 -35.095210428193425,-33.088238460090054 L-35.68959517455393,-32.54786453769921Q-36.87836466727494,-31.467116692917543 -38.82367671218153,-32.22357146604166 L-39.79633273463483,-32.60179885260373Q-41.741644779541424,-33.35825362572785 -41.52554305569581,-35.30355370250441 L-41.41749219377301,-36.27620374089268Q-41.2013904699274,-38.221503817669245 -39.2560956588404,-38.32962475106294 L-38.283448253296896,-38.38368521775978Q-36.3381534422099,-38.491806151153476 -35.365468439514906,-36.76267821264077 L-34.87912593816741,-35.89811424338443Q-33.90644093547242,-34.16898630487172 -33.90644093547242,-34.16898630487172 Z"/>
      <path class="tree"
            d="M0.43863603119677125,-124.75906078041511Q0.43863603119677125,-124.75906078041511 0.7139004839131886,-122.55727936165567 L0.8515327102713971,-121.45638865227596Q1.1267971629878144,-119.25460723351652 -0.6621307205818912,-117.19040061951365 L-1.5565946623667442,-116.15829731251222Q-3.3455225459364497,-114.09409069850935 -4.859278355023067,-114.91973227882072 L-5.616156259566375,-115.3325530689764Q-7.129912068652992,-116.15819464928776 -7.405188829578305,-118.9104217209823 L-7.5428272100409615,-120.28653525682955Q-7.818103970966274,-123.03876232852409 -4.515407970101056,-123.72688170928049 L-2.864059969668447,-124.07094139965871Q0.43863603119677125,-124.75906078041511 0.43863603119677125,-124.75906078041511 Z"/>
      <path class="tree"
            d="M23.143804170082273,-190.1250932915267Q23.143804170082273,-190.1250932915267 21.217199600238242,-190.53790021234863 L20.253897315316227,-190.74430367275957Q18.327292745472196,-191.1571105935815 17.91443864902372,-191.9827784674905 L17.708011600799477,-192.395612404445Q17.295157504351,-193.221280278354 18.39604183858965,-195.14786964230356 L18.946484005708975,-196.11116432427838Q20.047368339947624,-198.03775368822795 21.423514592175717,-197.76254958548702 L22.111587718289762,-197.62494753411656Q23.487733970517855,-197.34974343137563 23.350162050343624,-194.45988337543605 L23.281376090256504,-193.01495334746627Q23.143804170082273,-190.1250932915267 23.143804170082273,-190.1250932915267 Z"/>
      <use xmlns:xlink="http://www.w3.org/1999/xlink" xlink:href="#TeeSet"
           x="-74.06835479218641"
           y="252.92606722450606"
           class="tees"
           transform="rotate(15.730745895577797 -74.06835479218641 252.92606722450606)"/>
      <use xmlns:xlink="http://www.w3.org/1999/xlink" xlink:href="#Flag"
           x="58.060961265022016"
           y="-216.1724974750031"
           transform="rotate(15.730745895577797 58.060961265022016 -216.1724974750031)"/>
      <g clip-path="url(#HoleContour)">
         <circle cx="-74.06835479218641" cy="252.92606722450606" r="169.8280544528953"
                 class="circle-from-tee"/>
         <circle cx="-74.06835479218641" cy="252.92606722450606" r="254.74208167934293"
                 class="circle-from-tee"/>
         <circle cx="-74.06835479218641" cy="252.92606722450606" r="339.6561089057906"
                 class="circle-from-tee"/>
         <circle cx="58.060961265022016" cy="-216.1724974750031" r="169.8280544528953"
                 class="circle-from-green"/>
         <circle cx="58.060961265022016" cy="-216.1724974750031" r="254.74208167934293"
                 class="circle-from-green"/>
         <circle cx="58.060961265022016" cy="-216.1724974750031" r="339.6561089057906"
                 class="circle-from-green"/>
      </g>
   </g>
   <rect x="470" y="400" rx="4" ry="4" width="110" height="180" class="info-background"/>
   <text x="525" y="420" class="info-hole" text-anchor="middle">
					Hole 2</text>
   <text x="525" y="440" class="info-par" text-anchor="middle">
					Par 4</text>
   <circle cx="485.625" cy="457.1875" r="5.625" style="fill:blue"/>
   <text x="496.875" y="460" class="info-length">304 meters</text>
   <use xmlns:xlink="http://www.w3.org/1999/xlink" xlink:href="#Compass" x="550" y="50"
        transform="rotate(-15.730745895577797 550 50)"/>
   <use xmlns:xlink="http://www.w3.org/1999/xlink" xlink:href="#GolfMLLogoSmall" x="10"
        y="575"/>
</svg>