<?xml version="1.0" encoding="UTF-8"?>
<svg xmlns="http://www.w3.org/2000/svg" width="600" height="600">
   <defs>
      <style xmlns:g="http://code.google.com/p/golfml"
             xmlns:xlink="http://www.w3.org/1999/xlink"
             xmlns:xs="http://www.w3.org/2001/XMLSchema"
             type="text/css">
/* Stylesheet for SVG elements
 *
 *
 * Classes for area of interest (surfaces)
 *
 * DRAWING
 */
.background {
		fill: url(#background-gradient);
}

.hole-limits {
	fill: none;
	stroke: #ccc;
	stroke-width: 1px;
	stroke-dasharray: 10,10;
}

.hole-contour {
	fill: #030;
	stroke: #fff;
	stroke-width: 2px;
}


/* GROUND
 */
.fairway {
	fill: url(#fairway-pattern);
	stroke: #0b0;
	stroke-width: 3px; /* fairway fringe... */
}

.tee {
	fill: #00c800;
	stroke: #0f0;
	stroke-width: 1px;
}

.fringe {
	fill: #0A0;
}

.green {
	fill: url(#green-gradient);
	stroke: #0f0;
	stroke-width: 1px;
}

.semi-rough,
.light-rough {
	fill: #080;
	stroke: #08800D;
	stroke-width: 1px;
}

.rough {
	fill: url(#rough-gradient);
	stroke: #07660A;
	stroke-width: 1px;
}

.heavy-rough {
	fill: #040;
	stroke: #074D08;
	stroke-width: 1px;
}

.ground {
	fill: #7f400c;
	stroke: #fdcc6a;
	stroke-width: 1px;
}


/* WATER
 */
.lateral-water {
	fill: url(#lateral-water-gradient);
	stroke: red;
	stroke-width: 4px;
}

.front-water, .water {
	fill: #37f;
	stroke: yellow;
	stroke-width: 3px;
}


/* SPECIAL
 */
.under-repair {
	fill: none;
	stroke: #00d;
	stroke-width: 2px;
}

.out-of-bound { /* line only */
	fill: none;
	stroke: white;
	stroke-width: 4px;
}

.out-of-bound-area {
	fill: #ccc;
	stroke: white;
	stroke-width: 4px;
}


/* TRAPS
 */
.trap,
.bunker {
	fill: #92cf94;
	stroke: #4c994c;
	stroke-width: 1px;
}

.grass-trap,
.grass-bunker {
	fill: #050;
	stroke: #0A0;
	stroke-width: 1px;
}

.sand-trap,
.sand-bunker,
.greenside-trap,
.greenside-bunker {
	fill: #eec;
	stroke: #040;
	stroke-width: 2px;
}

.fairway-trap,
.fairway-bunker {
	fill: #eec;
	stroke: #030;
	stroke-width: 2px;
}


/* OBSTACLES
 */
.tree {
	fill: #062;
	stroke: #0c6;
	stroke-width: 1px;
}

.trees {
	fill: #062;
	stroke: #0c6;
	stroke-width: 1px;
}

.bush {
	fill: #00b259;
	stroke: #7f400c;
	stroke-width: 1px;
}


.path {
	fill: #666;
	stroke: #bbb;
	stroke-width: 1px;
}

.building,
.construction {
	fill: #fdcc6a;
	stroke: #7f400C;
	stroke-width: 1px;
}

.obstruction {
	fill: #555;
	stroke: #999;
	stroke-width: 1px;
}


.other {
	fill: #ddd;
	stroke: #666;
	stroke-width: 1px;
}

/* Classes for point of interest (points)
 *
 */
.dogleg {
	fill: #000;
}

.aim {
	fill: #fff;
	stroke: #f00;
	stroke-width: 1px;
}

.tees {
	fill: #00f;
}

.tees-hollow {
	stroke: #fff;
	stroke-width: 0.5px;
}

.hole {
	fill: #fff;
}

.distance-marker-100,
.distance-marker-close {
	fill: #44f;
	stroke: #00f;
	stroke-width: 1px;
}

.distance-marker-150,
.distance-marker-135,
.distance-marker,
.distance-marker-mid {
	fill: #f44;
	stroke: #f00;
	stroke-width: 1px;
}

.distance-marker-200,
.distance-marker-far {
	fill: #dd4;
	stroke: #ff0;
	stroke-width: 1px;
}

.green-region-delimiter {
	fill: none;
	stroke: #fff;
	stroke-width: 0.5;
	stroke-dasharray: 4,2;
}

.neutral {
	fill: none;
	stroke: #888;
	stroke-width: 1px;
}
.one-tree {
	fill: #14920D;
	stroke: #165822;
	stroke-width: 3px;
	stroke-linecap: round;
	stroke-linejoin: round; 
}

/* Classes for special decorative objects
 *
 */
.compass-center {
	fill: #ddd;
	stroke: #fff;
	stroke-width: 1px;
}
.compass-needle {
	fill: #ddd;
	stroke: #fff;
	stroke-width: 1px;
}
.compass-north {
	fill: #fff;
}
.flag-pole {
	fill: none;
	stroke: #f00;
	stroke-width: 2px;
}
.flag-flag {
	fill: #ff0;
	stroke: #f00;
	stroke-width: 1px;
}
.flag-cup {
	fill: #fff;
}
/* Information box */
.info-background {
	fill: #ddd;
}
.info-hole {
	font-family: Georgia, "Times New Roman", Times, serif;
	font-size: xx-large;
}
.info-par {
	font-family: Georgia, "Times New Roman", Times, serif;
	font-size: x-large;
}
.info-length {
	font-family: Georgia, "Times New Roman", Times, serif;
	font-size: large;
}
/* Circle for distances */
.circle-from-green {
	fill: none;
	stroke: #fff;
	stroke-width: 1px;
	stroke-dasharray: 4,4;
}
.circle-from-tee {
	fill: none;
	stroke: #f00;
	stroke-width: 1px;
	stroke-dasharray: 8,8;
}
/* Dynamic objects */
.target {
	fill: none;
	stroke: #f00;
	stroke-width: 2px;
}
.target-filled {
	fill: #f00;
	fill-opacity: 0.5;
	stroke: #f00;
}
.ball {
	fill: #fff;
	stroke: none;
}
.trajectory {
	fill: none;
	stroke: #fff;
	stroke-width: 2px;
}
.distance {
	fill: #fff;
}
</style>
      <linearGradient xmlns:g="http://code.google.com/p/golfml"
                      xmlns:xlink="http://www.w3.org/1999/xlink"
                      xmlns:xs="http://www.w3.org/2001/XMLSchema"
                      id="background-straight">
         <stop offset="5%" stop-color="#002"/>
         <stop offset="95%" stop-color="#004"/>
      </linearGradient>
      <linearGradient xmlns:g="http://code.google.com/p/golfml"
                      xmlns:xlink="http://www.w3.org/1999/xlink"
                      xmlns:xs="http://www.w3.org/2001/XMLSchema"
                      id="background-gradient"
                      gradientTransform="rotate(30)"
                      xlink:href="#background-straight"/>
      <linearGradient xmlns:g="http://code.google.com/p/golfml"
                      xmlns:xlink="http://www.w3.org/1999/xlink"
                      xmlns:xs="http://www.w3.org/2001/XMLSchema"
                      id="lateral-water-straight">
         <stop offset="5%" stop-color="#006"/>
         <stop offset="95%" stop-color="#008"/>
      </linearGradient>
      <linearGradient xmlns:g="http://code.google.com/p/golfml"
                      xmlns:xlink="http://www.w3.org/1999/xlink"
                      xmlns:xs="http://www.w3.org/2001/XMLSchema"
                      id="lateral-water-gradient"
                      gradientTransform="rotate(60)"
                      xlink:href="#lateral-water-straight"/>
      <linearGradient xmlns:g="http://code.google.com/p/golfml"
                      xmlns:xlink="http://www.w3.org/1999/xlink"
                      xmlns:xs="http://www.w3.org/2001/XMLSchema"
                      id="rough-straight">
         <stop offset="0%" stop-color="#030"/>
         <stop offset="25%" stop-color="#060"/>
         <stop offset="50%" stop-color="#040"/>
         <stop offset="75%" stop-color="#060"/>
         <stop offset="100%" stop-color="#080"/>
      </linearGradient>
      <linearGradient xmlns:g="http://code.google.com/p/golfml"
                      xmlns:xlink="http://www.w3.org/1999/xlink"
                      xmlns:xs="http://www.w3.org/2001/XMLSchema"
                      id="rough-gradient"
                      gradientTransform="rotate(70)"
                      xlink:href="#rough-straight"/>
      <linearGradient xmlns:g="http://code.google.com/p/golfml"
                      xmlns:xlink="http://www.w3.org/1999/xlink"
                      xmlns:xs="http://www.w3.org/2001/XMLSchema"
                      id="green-straight">
         <stop offset="0%" stop-color="#0d0"/>
         <stop offset="25%" stop-color="#0e0"/>
         <stop offset="50%" stop-color="#0c0"/>
         <stop offset="75%" stop-color="#0e0"/>
         <stop offset="100%" stop-color="#0b0"/>
      </linearGradient>
      <linearGradient xmlns:g="http://code.google.com/p/golfml"
                      xmlns:xlink="http://www.w3.org/1999/xlink"
                      xmlns:xs="http://www.w3.org/2001/XMLSchema"
                      id="green-gradient"
                      gradientTransform="rotate(75)"
                      xlink:href="#green-straight"/>
      <pattern xmlns:g="http://code.google.com/p/golfml"
               xmlns:xlink="http://www.w3.org/1999/xlink"
               xmlns:xs="http://www.w3.org/2001/XMLSchema"
               id="fairway-straight"
               patternUnits="userSpaceOnUse"
               x="0"
               y="0"
               width="20"
               height="20"
               viewBox="0 0 20 20">
         <rect x="0" y="0" width="10" height="10" fill="#00c000"/>
         <rect x="10" y="10" width="10" height="10" fill="#00c800"/>
         <rect x="10" y="0" width="10" height="10" fill="#00bc00"/>
         <rect x="0" y="10" width="10" height="10" fill="#00b800"/>
      </pattern>
      <pattern xmlns:g="http://code.google.com/p/golfml"
               xmlns:xlink="http://www.w3.org/1999/xlink"
               xmlns:xs="http://www.w3.org/2001/XMLSchema"
               id="fairway-pattern"
               patternTransform="rotate(60)"
               xlink:href="#fairway-straight"/>
      <g xmlns:g="http://code.google.com/p/golfml"
         xmlns:xlink="http://www.w3.org/1999/xlink"
         xmlns:xs="http://www.w3.org/2001/XMLSchema"
         id="Tree"
         transform="translate(-76 -66) scale(0.4)">
         <path class="one-tree"
               d="M191.991,126.799c-11.163,0-21.022,4.032-27.033,10.191c-17.556,0.615-31.556,11.151-31.556,24.079       c0,7.537,4.759,14.266,12.203,18.693c0.876,12.855,18.43,23.128,39.939,23.128c22.07,0,39.979-10.812,39.979-24.136       c0-0.065-0.012-0.13-0.013-0.195c6.33-2.866,10.33-6.992,10.33-11.595c0-4.806-4.343-9.104-11.164-11.977       c0.31-1.318,0.478-2.67,0.478-4.054C225.154,137.612,210.297,126.799,191.991,126.799z"/>
      </g>
      <g xmlns:g="http://code.google.com/p/golfml"
         xmlns:xlink="http://www.w3.org/1999/xlink"
         xmlns:xs="http://www.w3.org/2001/XMLSchema"
         id="TeeSet">
         <circle cx="-5" cy="0" r="2"/>
         <circle cx="5" cy="0" r="2"/>
      </g>
      <g xmlns:g="http://code.google.com/p/golfml"
         xmlns:xlink="http://www.w3.org/1999/xlink"
         xmlns:xs="http://www.w3.org/2001/XMLSchema"
         id="DistanceMarker">
         <circle r="6"/>
      </g>
      <g xmlns:g="http://code.google.com/p/golfml"
         xmlns:xlink="http://www.w3.org/1999/xlink"
         xmlns:xs="http://www.w3.org/2001/XMLSchema"
         id="Dogleg">
         <circle r="4"/>
      </g>
      <g xmlns:g="http://code.google.com/p/golfml"
         xmlns:xlink="http://www.w3.org/1999/xlink"
         xmlns:xs="http://www.w3.org/2001/XMLSchema"
         id="Aim">
         <circle r="4"/>
      </g>
      <g xmlns:g="http://code.google.com/p/golfml"
         xmlns:xlink="http://www.w3.org/1999/xlink"
         xmlns:xs="http://www.w3.org/2001/XMLSchema"
         id="Hole">
         <circle r="2"/>
      </g>
      <g xmlns:g="http://code.google.com/p/golfml"
         xmlns:xlink="http://www.w3.org/1999/xlink"
         xmlns:xs="http://www.w3.org/2001/XMLSchema"
         id="Ball">
         <image xlink:href="../stylesheets/images/golf-ball.png" width="16" height="16"
                transform="translate(-8 -8)"/>
      </g>
      <g xmlns:g="http://code.google.com/p/golfml"
         xmlns:xlink="http://www.w3.org/1999/xlink"
         xmlns:xs="http://www.w3.org/2001/XMLSchema"
         id="Target">
         <circle class="target-filled" r="12"/>
      </g>
      <g xmlns:g="http://code.google.com/p/golfml"
         xmlns:xlink="http://www.w3.org/1999/xlink"
         xmlns:xs="http://www.w3.org/2001/XMLSchema"
         id="Flag"
         transform="translate(0 -30) scale(-0.2 0.2)">
         <line id="FlagPole" class="flag-pole" x1="0.5" y1="0" x2="0.5" y2="150"/>
         <circle id="FlagCup" class="flag-cup" r="10" cx="0" cy="145"/>
         <g id="FlagFlag">
            <path class="flag-flag"
                  d="M55.339,45.968c-18.28-14.516-36.559,14.516-54.839,0c0-12.097,0-24.193,0-36.29        c18.28,14.516,36.559-14.516,54.839,0C55.339,21.774,55.339,33.871,55.339,45.968z"/>
         </g>
      </g>
      <g xmlns:g="http://code.google.com/p/golfml"
         xmlns:xlink="http://www.w3.org/1999/xlink"
         xmlns:xs="http://www.w3.org/2001/XMLSchema"
         id="Compass">
         <polygon id="CompassNeedle" class="compass-needle" points="0,30 -8,0 0,-20 8,0"/>
         <circle id="CompassCenter" class="compass-center" r="10"/>
         <text id="CompassNorth" class="compass-north" x="-4.7" y="40">N</text>
      </g>
      <g xmlns:g="http://code.google.com/p/golfml"
         xmlns:xlink="http://www.w3.org/1999/xlink"
         xmlns:xs="http://www.w3.org/2001/XMLSchema"
         id="GolfMLLogoSmall">
         <image xlink:href="../stylesheets/images/golfml-small.png" width="80" height="15"/>
      </g>
   </defs>
   <rect class="background" x="0" y="0" width="600" height="600"/>
   <g transform="translate(300,300) scale(-0.731674680417376,0.731674680417376) rotate(-47.0269727546179)">
      <path class="hole-contour"
            d="M-203.72309074473324,232.01999665686415Q-203.72309074473324,232.01999665686415 -216.06609801623293,245.5944888748809 L-222.23760165198274,252.38173498388932Q-234.58060892348243,265.9562272019061 -245.58361454649514,275.34732780812783 L-251.08511735800153,280.0428781112387Q-262.08812298101424,289.43397871746043 -271.62052438945216,286.0733229466719 L-276.38672509367115,284.3929950612777Q-285.91912650210907,281.0323392904892 -291.55147589733826,274.61575145109464 L-294.3676505949529,271.40745753139737Q-299.9999999901821,264.99086969200283 -267.535735373848,210.19718539228336 L-251.30360306568093,182.80034324242362Q-218.8393384493468,128.00665894270415 -207.57474462763776,101.47868735523609 L-201.94244771678325,88.21470156150205Q-190.6778538950742,61.686729974033994 -150.13152011522772,-14.287184515409919 L-129.85835322530448,-52.274141760131855Q-89.31201944545799,-128.24805624957577 -68.0564655558485,-151.88357642410028 L-57.42868861104376,-163.70133651136254Q-36.17313472143427,-187.33685668588706 -1.642188783986775,-204.4136696168129 L15.623284184736974,-212.95207608227585Q50.15423012218447,-230.0288890132017 79.73529677384127,-253.79122077501557 L94.52583009966966,-265.67238665592254Q124.10689675132645,-289.4347184177364 184.88796353996392,-279.49648913795954 L215.27849693428266,-274.52737449807114Q276.05956372292013,-264.5891452182943 285.63573822714386,-257.52355166961337 L290.4238254792557,-253.99075489527294Q299.9999999834794,-246.92516134659206 299.95039615973764,-231.41139636715332 L299.9255942478667,-223.6545138774339Q299.8759904241249,-208.14074889799517 290.7241602644199,-198.77197669371694 L286.1482451845674,-194.08759059157785Q276.99641502486236,-184.71881838729962 252.73943445495587,-180.03535441416193 L240.61094417000263,-177.6936224275931Q216.35396360009614,-173.01015845445542 192.85411491290083,-163.00996202891398 L181.10419056930317,-158.00986381614325Q157.60434188210786,-148.0096673906018 134.38778195490508,-133.61335666940857 L122.7795019913037,-126.41520130881197Q99.56294206410094,-112.01889058761876 79.42954734739108,-91.40702902654485 L69.36284998903616,-81.1010982460079Q49.229455272326305,-60.48923668493397 16.398463418846823,-17.03701394699945 L-0.017032507892913884,4.689097421967801Q-32.848024361372396,48.14132015990232 -44.93898938687332,67.50434882062072 L-50.98447189962378,77.18586315097991Q-63.0754369251247,96.54889181169831 -119.33449845296812,150.73733374976464 L-147.46402921688983,177.8315547187978Q-203.72309074473324,232.01999665686415 -203.72309074473324,232.01999665686415 Z"/>
      <clipPath id="HoleContour" transform="scale(1.2)">
         <path class="hole-contour"
               d="M-203.72309074473324,232.01999665686415Q-203.72309074473324,232.01999665686415 -216.06609801623293,245.5944888748809 L-222.23760165198274,252.38173498388932Q-234.58060892348243,265.9562272019061 -245.58361454649514,275.34732780812783 L-251.08511735800153,280.0428781112387Q-262.08812298101424,289.43397871746043 -271.62052438945216,286.0733229466719 L-276.38672509367115,284.3929950612777Q-285.91912650210907,281.0323392904892 -291.55147589733826,274.61575145109464 L-294.3676505949529,271.40745753139737Q-299.9999999901821,264.99086969200283 -267.535735373848,210.19718539228336 L-251.30360306568093,182.80034324242362Q-218.8393384493468,128.00665894270415 -207.57474462763776,101.47868735523609 L-201.94244771678325,88.21470156150205Q-190.6778538950742,61.686729974033994 -150.13152011522772,-14.287184515409919 L-129.85835322530448,-52.274141760131855Q-89.31201944545799,-128.24805624957577 -68.0564655558485,-151.88357642410028 L-57.42868861104376,-163.70133651136254Q-36.17313472143427,-187.33685668588706 -1.642188783986775,-204.4136696168129 L15.623284184736974,-212.95207608227585Q50.15423012218447,-230.0288890132017 79.73529677384127,-253.79122077501557 L94.52583009966966,-265.67238665592254Q124.10689675132645,-289.4347184177364 184.88796353996392,-279.49648913795954 L215.27849693428266,-274.52737449807114Q276.05956372292013,-264.5891452182943 285.63573822714386,-257.52355166961337 L290.4238254792557,-253.99075489527294Q299.9999999834794,-246.92516134659206 299.95039615973764,-231.41139636715332 L299.9255942478667,-223.6545138774339Q299.8759904241249,-208.14074889799517 290.7241602644199,-198.77197669371694 L286.1482451845674,-194.08759059157785Q276.99641502486236,-184.71881838729962 252.73943445495587,-180.03535441416193 L240.61094417000263,-177.6936224275931Q216.35396360009614,-173.01015845445542 192.85411491290083,-163.00996202891398 L181.10419056930317,-158.00986381614325Q157.60434188210786,-148.0096673906018 134.38778195490508,-133.61335666940857 L122.7795019913037,-126.41520130881197Q99.56294206410094,-112.01889058761876 79.42954734739108,-91.40702902654485 L69.36284998903616,-81.1010982460079Q49.229455272326305,-60.48923668493397 16.398463418846823,-17.03701394699945 L-0.017032507892913884,4.689097421967801Q-32.848024361372396,48.14132015990232 -44.93898938687332,67.50434882062072 L-50.98447189962378,77.18586315097991Q-63.0754369251247,96.54889181169831 -119.33449845296812,150.73733374976464 L-147.46402921688983,177.8315547187978Q-203.72309074473324,232.01999665686415 -203.72309074473324,232.01999665686415 Z"/>
      </clipPath>
      <path class="heavy-rough"
            d="M50.21706863736185,-24.03113337554679Q50.21706863736185,-24.03113337554679 31.074244056766144,-2.2520739031111425 L21.502831766468294,8.637455833106682Q2.360007185872591,30.41651530554233 -15.244634370109617,60.79929532678611 L-24.046955148100725,75.990685337408Q-41.651596704082934,106.37346535865177 -48.76771002387508,112.20493724901752 L-52.32576668377115,115.1206731942004Q-59.4418800035633,120.95214508456615 -65.95783733066689,116.71795320511097 L-69.2158159942187,114.60085726538337Q-75.7317733213223,110.36666538592819 -72.19061041548119,106.01417722922844 L-70.42002896256062,103.83793315087857Q-66.87886605671952,99.48544499417882 -54.87770129913064,81.38250412008165 L-48.8771189203362,72.33103368303307Q-36.87595416274733,54.22809280893589 -20.623580032101923,31.04593795135503 L-12.49739296677923,19.454860522564598Q3.754981163866174,-3.727294335016263 20.725850532552354,-26.917783819907324 L29.211285216895448,-38.51302856235285Q46.18215458558163,-61.70351804724391 65.37579737945468,-79.17223263431809 L74.97261877639122,-87.90658992785518Q94.16626157026427,-105.37530451492935 118.7858316771645,-119.67442698990965 L131.0956167306146,-126.82398822739981Q155.71518683751484,-141.1231107023801 181.5347061343242,-145.01823713845934 L194.44446578272886,-146.965800356499Q220.26398507953823,-150.86092679257823 152.24521850266768,-100.12900942576564 L118.23583521423241,-74.76305074235937Q50.21706863736185,-24.03113337554679 50.21706863736185,-24.03113337554679 Z"/>
      <path class="tee"
            d="M-203.03021922188447,180.8693687169429Q-203.03021922188447,180.8693687169429 -207.47254567384581,188.11263095425204 L-209.6937088998265,191.73426207290663Q-214.13603535178785,198.97752431021578 -218.64102394430938,200.89491736281963 L-220.89351824057013,201.85361388912153Q-225.39850683309166,203.77100694172537 -227.3220861361768,198.7333953756147 L-228.28387578771935,196.21458959255938Q-230.2074550908045,191.1769780264487 -228.94181461305047,185.5691221857855 L-228.30899437417347,182.76519426545386Q-227.04335389641943,177.15733842479065 -223.89801144593935,172.8589869558535 L-222.32534022069933,170.70981122138497Q-219.17999777021925,166.41145975244783 -214.64366085398797,167.15700732584892 L-212.37549239587233,167.52978111254947Q-207.83915547964105,168.27532868595057 -205.91558097653842,173.3129446983475 L-204.9537937249871,175.83175270454595Q-203.03021922188447,180.8693687169429 -203.03021922188447,180.8693687169429 Z"/>
      <path class="tee"
            d="M-241.6263711036891,239.25108614005032Q-241.6263711036891,239.25108614005032 -248.70021642559666,249.18871997465519 L-252.23713908655046,254.1575368919576Q-259.310984408458,264.09517072656246 -263.80342214711334,267.077780262117 L-266.049641016441,268.5690850298943Q-270.5420787550963,271.5516945654489 -274.5834359372559,267.6043860427159 L-276.60411452833574,265.6307317813493Q-280.6454717104953,261.6834232586163 -278.0327297581632,257.3913155432932 L-276.7263587819972,255.2452616856317Q-274.1136168296651,250.95315397030862 -271.25653244710196,244.79385844531342 L-269.82799025582045,241.71421068281583Q-266.9709058732573,235.55491515782063 -263.29926436858096,230.71766955151793 L-261.46344361624284,228.29904674836658Q-257.7918021115665,223.46180114206388 -254.05120927731124,224.48302788994232 L-252.1809128601836,224.99364126388156Q-248.44032002592837,226.01486801176 -245.71474045703266,231.30935526307613 L-244.35195067258482,233.9565988887342Q-241.6263711036891,239.25108614005032 -241.6263711036891,239.25108614005032 Z"/>
      <path class="fairway"
            d="M199.8631294204119,-210.045677753866Q199.8631294204119,-210.045677753866 187.6133021633448,-209.90199831340686 L181.48838853481126,-209.8301585931773Q169.23856127774417,-209.68647915271816 157.27067754780404,-208.21439177675367 L151.286735682834,-207.4783480887714Q139.31885195289388,-206.00626071280692 125.35192204409284,-193.3246903600629 L118.36845708969233,-186.9839051836909Q104.40152718089129,-174.30233483094688 94.9273646984967,-164.6031446135657 L90.19028345729942,-159.75354950487508Q80.71612097490483,-150.0543592874939 63.30315077145326,-136.0005983386844 L54.59666566972747,-128.97371786427962Q37.18369546627591,-114.91995691547012 21.656831631577443,-99.02397357248877 L13.893399714228213,-91.07598190099809Q-1.6334641204702507,-75.17999855801673 -18.13773340404318,-51.81520953018678 L-26.38986804582964,-40.13281501627179Q-42.89413732940257,-16.768025988441835 -52.029707511678055,-0.9471024032835018 L-56.597492602815805,6.963359389295661Q-65.73306278509129,22.784282974453994 -73.79087620736762,39.657869967229246 L-77.81978291850577,48.09466346361687Q-85.87759634078209,64.96825045639211 -92.73856056674889,70.37557133587828 L-96.16904267973229,73.07923177562137Q-103.03000690569908,78.48655265510753 -110.26687218342883,74.57675251754786 L-113.8853048222937,72.62185244876802Q-121.12217010002345,68.71205231120835 -127.30640727809413,63.72456002266142 L-130.39852586712948,61.23081387838795Q-136.58276304520015,56.24332158984102 -139.35219278590998,47.22068670424515 L-140.73690765626486,42.70936926144722Q-143.5063373969747,33.68673437585135 -135.9247893255681,21.612630544489058 L-132.1340152898648,15.57557862880791Q-124.55246721845822,3.5014747974456144 -116.75156482349561,-12.570159359178255 L-112.8511136260143,-20.60597643749018Q-105.05021123105169,-36.67761059411405 -93.50859848706715,-51.72791589706028 L-87.73779211507487,-59.25306854853339Q-76.19617937109032,-74.30337385147962 -65.1557778436492,-86.68444657459747 L-59.63557707992865,-92.87498293615639Q-48.59517555248754,-105.25605565927424 -36.82154497016928,-123.23869382736495 L-30.93472967901015,-132.2300129114103Q-19.16109909669189,-150.21265107950103 -10.439001687738479,-155.9081375742485 L-6.077952983261774,-158.75588082162224Q2.644144425691635,-164.45136731636973 15.14449617438753,-165.92990345274725 L21.394672048735476,-166.669171520936Q33.89502379743137,-168.14770765731353 42.3665157852982,-172.50853822016788 L46.602261779231604,-174.68895350159505Q55.07375376709843,-179.0497840644494 65.3624520774166,-187.42692669890002 L70.5068012325757,-191.61549801612534Q80.79549954289388,-199.99264065057596 90.02530073123411,-207.82466367311727 L94.64020132540422,-211.74067518438792Q103.87000251374445,-219.57269820692923 109.37789019599805,-226.8283542315351 L112.13183403712483,-230.456182243838Q117.63972171937843,-237.71183826844384 122.3518599877215,-244.69182499164728 L124.70792912189305,-248.181818353249Q129.4200673902361,-255.16180507645245 141.43800097265787,-252.3731607309194 L147.44696776386877,-250.97883855815286Q159.46490134629053,-248.19019421261982 166.13180565011206,-247.46940440449313 L169.46525780202282,-247.10900950042978Q176.13216210584434,-246.3882196923031 181.71512453150908,-247.25271116497197 L184.5066057443414,-247.6849569013064Q190.08956817000615,-248.54944837397528 192.97201770327666,-252.5782633034616 L194.4132424699119,-254.59267076820475Q197.2956920031824,-258.62148569769107 207.67211110321182,-259.54217436212133 L212.8603206532265,-260.00251869433646Q223.2367397532559,-260.9232073587667 232.29103483993475,-261.02935861678486 L236.81818238327415,-261.0824342457939Q245.872477469953,-261.188585503812 250.96658400001783,-258.31861676140505 L253.51363726505025,-256.8836323902015Q258.6077437951151,-254.01366364779454 262.11027319680846,-250.59236607629754 L263.8615378976551,-248.88171729054906Q267.3640672993485,-245.46041971905206 270.10202964941135,-239.10047709330425 L271.4710108244428,-235.92050578043032Q274.2089731745057,-229.5605631546825 272.15973290527836,-222.61186588837623 L271.1351127706647,-219.13751725522306Q269.0858725014374,-212.18881998891678 265.67079245556687,-208.15378989437946 L263.9632524326316,-206.13627484711083Q260.54817238676105,-202.1012447525735 254.1569391698437,-202.02634372081178 L250.96132256138503,-201.98889320493095Q244.57008934446768,-201.91399217316922 240.27803249574245,-204.52701303133375 L238.1320040713798,-205.83352346041605Q233.8399472226546,-208.44654431858058 231.13944876099893,-211.6108886330396 L229.7891995301711,-213.19306079026907Q227.08870106851543,-216.3574051047281 223.07231242893917,-218.17465087487335 L221.06411810915105,-219.08327375994597Q217.0477294695748,-220.90051953009123 212.52998266941623,-220.048543927337 L210.27110926933696,-219.62255612595985Q205.7533624691784,-218.7705805232056 203.3972692496718,-215.28061941546977 L202.21922263991848,-213.53563886160183Q199.8631294204119,-210.045677753866 199.8631294204119,-210.045677753866 Z"/>
      <path class="trap"
            d="M188.32912749901703,-183.87981502675012Q188.32912749901703,-183.87981502675012 185.5231995760888,-182.32622336478022 L184.1202356146247,-181.5494275337953Q181.31430769169648,-179.9958358718254 178.0612082836531,-179.52320332725117 L176.43465857963136,-179.28688705496404Q173.18155917158796,-178.81425451038982 171.4158080897004,-181.183196095172 L170.5329325487566,-182.3676668875631Q168.76718146686903,-184.7366084723453 171.1284841922344,-187.15395431706997 L172.30913555491705,-188.36262723943233Q174.6704382802824,-190.779973084157 178.9048256395972,-190.9382501977007 L181.02201931925458,-191.01738875447256Q185.25640667856936,-191.17566586801627 186.48549500674844,-188.25732553150982 L187.10003917083796,-186.79815536325657Q188.32912749901703,-183.87981502675012 188.32912749901703,-183.87981502675012 Z"/>
      <path class="trap"
            d="M164.42291463251192,-184.6856571373415Q164.42291463251192,-184.6856571373415 162.4883935622487,-182.9250387586376 L161.5211330271171,-182.04472956928564Q159.58661195685386,-180.28411119058174 157.19471833420678,-180.47329406124766 L155.99877152288323,-180.5678854965806Q153.60687790023616,-180.75706836724652 151.73889181120657,-182.58170411529426 L150.8048987666918,-183.4940219893181Q148.9369126776622,-185.31865773736584 149.23085975544663,-188.03761817971633 L149.3778332943388,-189.39709840089157Q149.67178037212324,-192.11605884324206 152.16590840879022,-192.47117816461466 L153.4129724271237,-192.64873782530097Q155.90710046379067,-193.00385714667357 158.85095390891277,-192.0608038196006 L160.32288063147382,-191.58927715606416Q163.26673407659592,-190.6462238289912 163.7292062989623,-188.26199715233133 L163.96044241014553,-187.06988381400137Q164.42291463251192,-184.6856571373415 164.42291463251192,-184.6856571373415 Z"/>
      <path class="greenside-trap"
            d="M209.25399921481426,-252.01307599118417Q209.25399921481426,-252.01307599118417 209.9515201729099,-248.11090431726075 L210.30028065195776,-246.15981848029904Q210.99780161005341,-242.25764680637562 208.42435800135456,-239.40333378001893 L207.13763619700515,-237.9761772668406Q204.5641925883063,-235.12186424048392 202.04710913038667,-236.72166289763567 L200.78856740142686,-237.52156222621156Q198.27148394350723,-239.1213608833633 198.35078001919743,-241.6205700453981 L198.3904280570425,-242.87017462641552Q198.4697241327327,-245.3693837884503 198.43404015659783,-248.41034800292618 L198.4161981685304,-249.9308301101641Q198.38051419239554,-252.97179432463997 199.45129410010134,-254.28779872884604 L199.9866840539542,-254.94580093094908Q201.05746396166,-256.26180533515515 203.44428063925074,-256.5070329433502 L204.63768897804613,-256.6296467474478Q207.02450565563686,-256.8748743556429 207.91630307930782,-254.9301550098594 L208.3622017911433,-253.95779533696765Q209.25399921481426,-252.01307599118417 209.25399921481426,-252.01307599118417 Z"/>
      <path class="greenside-trap"
            d="M222.87941619189806,-201.66415943509352Q222.87941619189806,-201.66415943509352 221.2617788208264,-200.6676108682148 L220.4529601352906,-200.16933658477544Q218.83532276421894,-199.17278801789672 217.87442797992404,-197.74945713771285 L217.39398058777655,-197.0377916976209Q216.43308580348165,-195.61446081743702 213.82651770611753,-195.58390458339758 L212.5232336574355,-195.56862646637785Q209.91666556007138,-195.5380702323384 208.27354333992926,-196.71363350268533 L207.45198222985823,-197.30141513785875Q205.8088600097161,-198.47697840820567 206.97932223974965,-200.55449352851602 L207.5645533547664,-201.59325108867117Q208.73501558479992,-203.67076620898152 208.8245068815365,-205.30112610619838 L208.86925252990483,-206.11630605480684Q208.9587438266414,-207.7466659520237 208.82082633956344,-210.24332116270068 L208.75186759602448,-211.49164876803917Q208.6139501089465,-213.98830397871615 209.47006188038287,-215.08454863814524 L209.89811776610102,-215.63267096785978Q210.75422953753738,-216.72891562728887 213.13339317659657,-217.6257718773024 L214.3229749961262,-218.0742000023092Q216.70213863518538,-218.97105625232274 218.1305971582584,-217.57573224615336 L218.84482641979494,-216.8780702430687Q220.27328494286797,-215.48274623689932 221.59950803147024,-213.54311981728765 L222.26261957577134,-212.57330660748184Q223.5888426643736,-210.63368018787017 225.341847329074,-209.35077683527695 L226.2183496614242,-208.70932515898036Q227.9713543261246,-207.42642180638714 225.934579072434,-205.1215168578697 L224.91619144558868,-203.96906438361097Q222.87941619189806,-201.66415943509352 222.87941619189806,-201.66415943509352 Z"/>
      <path class="green"
            d="M255.17080075770644,-251.64334327146778Q255.17080075770644,-251.64334327146778 259.0264064643113,-248.33850006040566 L260.9542093176138,-246.68607845487463Q264.80981502421866,-243.3812352438125 266.13172174282863,-239.41548160497118 L266.7926751021336,-237.4326047855505Q268.1145818207436,-233.46685114670916 268.0044024860985,-230.0519209999284 L267.949312818776,-228.34445592653805Q267.8391334841309,-224.92952577975728 266.7375123607719,-221.40445592903814 L266.18670179909236,-219.64192100367853Q265.08508067573337,-216.11685115295938 262.7717047885814,-213.80355296295767 L261.6150168450054,-212.64690386795684Q259.30164095785346,-210.33360567795512 256.2171502269185,-209.2320698599358 L254.67490486145098,-208.68130195092613Q251.590414130516,-207.5797661329068 246.63320675121764,-208.2407993385054 L244.15460306156845,-208.57131594130473Q239.1973956822701,-209.23234914690335 235.45195482991258,-211.98638044631286 L233.57923440373384,-213.3633960960176Q229.83379355137632,-216.11742739542711 227.4102724999251,-218.76127698967514 L226.19851197419948,-220.08320178679912Q223.77499092274826,-222.72705138104715 221.57178886782322,-226.0318506589545 L220.47018784036067,-227.6842502979082Q218.26698578543562,-230.98904957581556 217.93651092273103,-236.93764470851383 L217.77127349137874,-239.91194227486295Q217.44079862867414,-245.86053740756122 217.55096340613858,-249.49578754077086 L217.60604579487082,-251.31341260737565Q217.71621057233526,-254.9486627405853 220.80070732533812,-255.49941990480255 L222.34295570183957,-255.7747984869112Q225.42745245484244,-256.32555565112847 229.17291394726115,-256.76614108453623 L231.0456446934705,-256.9864338012401Q234.79110618588922,-257.42701923464784 239.6381700311849,-256.3253540963754 L242.0617019538327,-255.77452152723916Q246.9087657991284,-254.67285638896672 250.2135797825596,-253.46105114196715 L251.86598677427523,-252.85514851846736Q255.17080075770644,-251.64334327146778 255.17080075770644,-251.64334327146778 Z"/>
      <use xmlns:xlink="http://www.w3.org/1999/xlink" xlink:href="#Tree"
           x="85.53520660551908"
           y="-100.91335236296503 "/>
      <use xmlns:xlink="http://www.w3.org/1999/xlink" xlink:href="#Tree"
           x="26.29254952834501"
           y="-212.91380187613277 "/>
      <use xmlns:xlink="http://www.w3.org/1999/xlink" xlink:href="#Tree"
           x="105.72083377029516"
           y="-266.4720925696089 "/>
      <use xmlns:xlink="http://www.w3.org/1999/xlink" xlink:href="#Tree"
           x="88.92248057032951"
           y="-255.86090894911374 "/>
      <use xmlns:xlink="http://www.w3.org/1999/xlink" xlink:href="#TeeSet"
           x="-241.83784546243865"
           y="218.98157063863906"
           class="tees"
           transform="rotate(47.0269727546179 -241.83784546243865 218.98157063863906)"/>
      <use xmlns:xlink="http://www.w3.org/1999/xlink" xlink:href="#Flag"
           x="242.77769022261782"
           y="-232.5033889210313"
           transform="rotate(47.0269727546179 242.77769022261782 -232.5033889210313)"/>
      <g clip-path="url(#HoleContour)">
         <circle cx="-241.83784546243865" cy="218.98157063863906" r="225.99390031366286"
                 class="circle-from-tee"/>
         <circle cx="-241.83784546243865" cy="218.98157063863906" r="338.9908504704943"
                 class="circle-from-tee"/>
         <circle cx="-241.83784546243865" cy="218.98157063863906" r="451.9878006273257"
                 class="circle-from-tee"/>
         <circle cx="242.77769022261782" cy="-232.5033889210313" r="225.99390031366286"
                 class="circle-from-green"/>
         <circle cx="242.77769022261782" cy="-232.5033889210313" r="338.9908504704943"
                 class="circle-from-green"/>
         <circle cx="242.77769022261782" cy="-232.5033889210313" r="451.9878006273257"
                 class="circle-from-green"/>
      </g>
   </g>
   <rect x="470" y="400" rx="4" ry="4" width="110" height="180" class="info-background"/>
   <text x="525" y="420" class="info-hole" text-anchor="middle">
					Hole 13</text>
   <text x="525" y="440" class="info-par" text-anchor="middle">
					Par 4</text>
   <circle cx="485.625" cy="457.1875" r="5.625" style="fill:blue"/>
   <text x="496.875" y="460" class="info-length">316 meters</text>
   <use xmlns:xlink="http://www.w3.org/1999/xlink" xlink:href="#Compass" x="550" y="50"
        transform="rotate(-47.0269727546179 550 50)"/>
   <use xmlns:xlink="http://www.w3.org/1999/xlink" xlink:href="#GolfMLLogoSmall" x="10"
        y="575"/>
</svg>