<?xml version="1.0" encoding="UTF-8"?>
<svg xmlns="http://www.w3.org/2000/svg" width="600" height="600">
   <defs>
      <style xmlns:g="http://code.google.com/p/golfml"
             xmlns:xlink="http://www.w3.org/1999/xlink"
             xmlns:xs="http://www.w3.org/2001/XMLSchema"
             type="text/css">
/* Stylesheet for SVG elements
 *
 *
 * Classes for area of interest (surfaces)
 *
 * DRAWING
 */
.background {
		fill: url(#background-gradient);
}

.hole-limits {
	fill: none;
	stroke: #ccc;
	stroke-width: 1px;
	stroke-dasharray: 10,10;
}

.hole-contour {
	fill: #030;
	stroke: #fff;
	stroke-width: 2px;
}


/* GROUND
 */
.fairway {
	fill: url(#fairway-pattern);
	stroke: #0b0;
	stroke-width: 3px; /* fairway fringe... */
}

.tee {
	fill: #00c800;
	stroke: #0f0;
	stroke-width: 1px;
}

.fringe {
	fill: #0A0;
}

.green {
	fill: url(#green-gradient);
	stroke: #0f0;
	stroke-width: 1px;
}

.semi-rough,
.light-rough {
	fill: #080;
	stroke: #08800D;
	stroke-width: 1px;
}

.rough {
	fill: url(#rough-gradient);
	stroke: #07660A;
	stroke-width: 1px;
}

.heavy-rough {
	fill: #040;
	stroke: #074D08;
	stroke-width: 1px;
}

.ground {
	fill: #7f400c;
	stroke: #fdcc6a;
	stroke-width: 1px;
}


/* WATER
 */
.lateral-water {
	fill: url(#lateral-water-gradient);
	stroke: red;
	stroke-width: 4px;
}

.front-water, .water {
	fill: #37f;
	stroke: yellow;
	stroke-width: 3px;
}


/* SPECIAL
 */
.under-repair {
	fill: none;
	stroke: #00d;
	stroke-width: 2px;
}

.out-of-bound { /* line only */
	fill: none;
	stroke: white;
	stroke-width: 4px;
}

.out-of-bound-area {
	fill: #ccc;
	stroke: white;
	stroke-width: 4px;
}


/* TRAPS
 */
.trap,
.bunker {
	fill: #92cf94;
	stroke: #4c994c;
	stroke-width: 1px;
}

.grass-trap,
.grass-bunker {
	fill: #050;
	stroke: #0A0;
	stroke-width: 1px;
}

.sand-trap,
.sand-bunker,
.greenside-trap,
.greenside-bunker {
	fill: #eec;
	stroke: #040;
	stroke-width: 2px;
}

.fairway-trap,
.fairway-bunker {
	fill: #eec;
	stroke: #030;
	stroke-width: 2px;
}


/* OBSTACLES
 */
.tree {
	fill: #062;
	stroke: #0c6;
	stroke-width: 1px;
}

.trees {
	fill: #062;
	stroke: #0c6;
	stroke-width: 1px;
}

.bush {
	fill: #00b259;
	stroke: #7f400c;
	stroke-width: 1px;
}


.path {
	fill: #666;
	stroke: #bbb;
	stroke-width: 1px;
}

.building,
.construction {
	fill: #fdcc6a;
	stroke: #7f400C;
	stroke-width: 1px;
}

.obstruction {
	fill: #555;
	stroke: #999;
	stroke-width: 1px;
}


.other {
	fill: #ddd;
	stroke: #666;
	stroke-width: 1px;
}

/* Classes for point of interest (points)
 *
 */
.dogleg {
	fill: #000;
}

.aim {
	fill: #fff;
	stroke: #f00;
	stroke-width: 1px;
}

.tees {
	fill: #00f;
}

.tees-hollow {
	stroke: #fff;
	stroke-width: 0.5px;
}

.hole {
	fill: #fff;
}

.distance-marker-100,
.distance-marker-close {
	fill: #44f;
	stroke: #00f;
	stroke-width: 1px;
}

.distance-marker-150,
.distance-marker-135,
.distance-marker,
.distance-marker-mid {
	fill: #f44;
	stroke: #f00;
	stroke-width: 1px;
}

.distance-marker-200,
.distance-marker-far {
	fill: #dd4;
	stroke: #ff0;
	stroke-width: 1px;
}

.green-region-delimiter {
	fill: none;
	stroke: #fff;
	stroke-width: 0.5;
	stroke-dasharray: 4,2;
}

.neutral {
	fill: none;
	stroke: #888;
	stroke-width: 1px;
}
.one-tree {
	fill: #14920D;
	stroke: #165822;
	stroke-width: 3px;
	stroke-linecap: round;
	stroke-linejoin: round; 
}

/* Classes for special decorative objects
 *
 */
.compass-center {
	fill: #ddd;
	stroke: #fff;
	stroke-width: 1px;
}
.compass-needle {
	fill: #ddd;
	stroke: #fff;
	stroke-width: 1px;
}
.compass-north {
	fill: #fff;
}
.flag-pole {
	fill: none;
	stroke: #f00;
	stroke-width: 2px;
}
.flag-flag {
	fill: #ff0;
	stroke: #f00;
	stroke-width: 1px;
}
.flag-cup {
	fill: #fff;
}
/* Information box */
.info-background {
	fill: #ddd;
}
.info-hole {
	font-family: Georgia, "Times New Roman", Times, serif;
	font-size: xx-large;
}
.info-par {
	font-family: Georgia, "Times New Roman", Times, serif;
	font-size: x-large;
}
.info-length {
	font-family: Georgia, "Times New Roman", Times, serif;
	font-size: large;
}
/* Circle for distances */
.circle-from-green {
	fill: none;
	stroke: #fff;
	stroke-width: 1px;
	stroke-dasharray: 4,4;
}
.circle-from-tee {
	fill: none;
	stroke: #f00;
	stroke-width: 1px;
	stroke-dasharray: 8,8;
}
/* Dynamic objects */
.target {
	fill: none;
	stroke: #f00;
	stroke-width: 2px;
}
.target-filled {
	fill: #f00;
	fill-opacity: 0.5;
	stroke: #f00;
}
.ball {
	fill: #fff;
	stroke: none;
}
.trajectory {
	fill: none;
	stroke: #fff;
	stroke-width: 2px;
}
.distance {
	fill: #fff;
}
</style>
      <linearGradient xmlns:g="http://code.google.com/p/golfml"
                      xmlns:xlink="http://www.w3.org/1999/xlink"
                      xmlns:xs="http://www.w3.org/2001/XMLSchema"
                      id="background-straight">
         <stop offset="5%" stop-color="#002"/>
         <stop offset="95%" stop-color="#004"/>
      </linearGradient>
      <linearGradient xmlns:g="http://code.google.com/p/golfml"
                      xmlns:xlink="http://www.w3.org/1999/xlink"
                      xmlns:xs="http://www.w3.org/2001/XMLSchema"
                      id="background-gradient"
                      gradientTransform="rotate(30)"
                      xlink:href="#background-straight"/>
      <linearGradient xmlns:g="http://code.google.com/p/golfml"
                      xmlns:xlink="http://www.w3.org/1999/xlink"
                      xmlns:xs="http://www.w3.org/2001/XMLSchema"
                      id="lateral-water-straight">
         <stop offset="5%" stop-color="#006"/>
         <stop offset="95%" stop-color="#008"/>
      </linearGradient>
      <linearGradient xmlns:g="http://code.google.com/p/golfml"
                      xmlns:xlink="http://www.w3.org/1999/xlink"
                      xmlns:xs="http://www.w3.org/2001/XMLSchema"
                      id="lateral-water-gradient"
                      gradientTransform="rotate(60)"
                      xlink:href="#lateral-water-straight"/>
      <linearGradient xmlns:g="http://code.google.com/p/golfml"
                      xmlns:xlink="http://www.w3.org/1999/xlink"
                      xmlns:xs="http://www.w3.org/2001/XMLSchema"
                      id="rough-straight">
         <stop offset="0%" stop-color="#030"/>
         <stop offset="25%" stop-color="#060"/>
         <stop offset="50%" stop-color="#040"/>
         <stop offset="75%" stop-color="#060"/>
         <stop offset="100%" stop-color="#080"/>
      </linearGradient>
      <linearGradient xmlns:g="http://code.google.com/p/golfml"
                      xmlns:xlink="http://www.w3.org/1999/xlink"
                      xmlns:xs="http://www.w3.org/2001/XMLSchema"
                      id="rough-gradient"
                      gradientTransform="rotate(70)"
                      xlink:href="#rough-straight"/>
      <linearGradient xmlns:g="http://code.google.com/p/golfml"
                      xmlns:xlink="http://www.w3.org/1999/xlink"
                      xmlns:xs="http://www.w3.org/2001/XMLSchema"
                      id="green-straight">
         <stop offset="0%" stop-color="#0d0"/>
         <stop offset="25%" stop-color="#0e0"/>
         <stop offset="50%" stop-color="#0c0"/>
         <stop offset="75%" stop-color="#0e0"/>
         <stop offset="100%" stop-color="#0b0"/>
      </linearGradient>
      <linearGradient xmlns:g="http://code.google.com/p/golfml"
                      xmlns:xlink="http://www.w3.org/1999/xlink"
                      xmlns:xs="http://www.w3.org/2001/XMLSchema"
                      id="green-gradient"
                      gradientTransform="rotate(75)"
                      xlink:href="#green-straight"/>
      <pattern xmlns:g="http://code.google.com/p/golfml"
               xmlns:xlink="http://www.w3.org/1999/xlink"
               xmlns:xs="http://www.w3.org/2001/XMLSchema"
               id="fairway-straight"
               patternUnits="userSpaceOnUse"
               x="0"
               y="0"
               width="20"
               height="20"
               viewBox="0 0 20 20">
         <rect x="0" y="0" width="10" height="10" fill="#00c000"/>
         <rect x="10" y="10" width="10" height="10" fill="#00c800"/>
         <rect x="10" y="0" width="10" height="10" fill="#00bc00"/>
         <rect x="0" y="10" width="10" height="10" fill="#00b800"/>
      </pattern>
      <pattern xmlns:g="http://code.google.com/p/golfml"
               xmlns:xlink="http://www.w3.org/1999/xlink"
               xmlns:xs="http://www.w3.org/2001/XMLSchema"
               id="fairway-pattern"
               patternTransform="rotate(60)"
               xlink:href="#fairway-straight"/>
      <g xmlns:g="http://code.google.com/p/golfml"
         xmlns:xlink="http://www.w3.org/1999/xlink"
         xmlns:xs="http://www.w3.org/2001/XMLSchema"
         id="Tree"
         transform="translate(-76 -66) scale(0.4)">
         <path class="one-tree"
               d="M191.991,126.799c-11.163,0-21.022,4.032-27.033,10.191c-17.556,0.615-31.556,11.151-31.556,24.079       c0,7.537,4.759,14.266,12.203,18.693c0.876,12.855,18.43,23.128,39.939,23.128c22.07,0,39.979-10.812,39.979-24.136       c0-0.065-0.012-0.13-0.013-0.195c6.33-2.866,10.33-6.992,10.33-11.595c0-4.806-4.343-9.104-11.164-11.977       c0.31-1.318,0.478-2.67,0.478-4.054C225.154,137.612,210.297,126.799,191.991,126.799z"/>
      </g>
      <g xmlns:g="http://code.google.com/p/golfml"
         xmlns:xlink="http://www.w3.org/1999/xlink"
         xmlns:xs="http://www.w3.org/2001/XMLSchema"
         id="TeeSet">
         <circle cx="-5" cy="0" r="2"/>
         <circle cx="5" cy="0" r="2"/>
      </g>
      <g xmlns:g="http://code.google.com/p/golfml"
         xmlns:xlink="http://www.w3.org/1999/xlink"
         xmlns:xs="http://www.w3.org/2001/XMLSchema"
         id="DistanceMarker">
         <circle r="6"/>
      </g>
      <g xmlns:g="http://code.google.com/p/golfml"
         xmlns:xlink="http://www.w3.org/1999/xlink"
         xmlns:xs="http://www.w3.org/2001/XMLSchema"
         id="Dogleg">
         <circle r="4"/>
      </g>
      <g xmlns:g="http://code.google.com/p/golfml"
         xmlns:xlink="http://www.w3.org/1999/xlink"
         xmlns:xs="http://www.w3.org/2001/XMLSchema"
         id="Aim">
         <circle r="4"/>
      </g>
      <g xmlns:g="http://code.google.com/p/golfml"
         xmlns:xlink="http://www.w3.org/1999/xlink"
         xmlns:xs="http://www.w3.org/2001/XMLSchema"
         id="Hole">
         <circle r="2"/>
      </g>
      <g xmlns:g="http://code.google.com/p/golfml"
         xmlns:xlink="http://www.w3.org/1999/xlink"
         xmlns:xs="http://www.w3.org/2001/XMLSchema"
         id="Ball">
         <image xlink:href="../stylesheets/images/golf-ball.png" width="16" height="16"
                transform="translate(-8 -8)"/>
      </g>
      <g xmlns:g="http://code.google.com/p/golfml"
         xmlns:xlink="http://www.w3.org/1999/xlink"
         xmlns:xs="http://www.w3.org/2001/XMLSchema"
         id="Target">
         <circle class="target-filled" r="12"/>
      </g>
      <g xmlns:g="http://code.google.com/p/golfml"
         xmlns:xlink="http://www.w3.org/1999/xlink"
         xmlns:xs="http://www.w3.org/2001/XMLSchema"
         id="Flag"
         transform="translate(0 -30) scale(-0.2 0.2)">
         <line id="FlagPole" class="flag-pole" x1="0.5" y1="0" x2="0.5" y2="150"/>
         <circle id="FlagCup" class="flag-cup" r="10" cx="0" cy="145"/>
         <g id="FlagFlag">
            <path class="flag-flag"
                  d="M55.339,45.968c-18.28-14.516-36.559,14.516-54.839,0c0-12.097,0-24.193,0-36.29        c18.28,14.516,36.559-14.516,54.839,0C55.339,21.774,55.339,33.871,55.339,45.968z"/>
         </g>
      </g>
      <g xmlns:g="http://code.google.com/p/golfml"
         xmlns:xlink="http://www.w3.org/1999/xlink"
         xmlns:xs="http://www.w3.org/2001/XMLSchema"
         id="Compass">
         <polygon id="CompassNeedle" class="compass-needle" points="0,30 -8,0 0,-20 8,0"/>
         <circle id="CompassCenter" class="compass-center" r="10"/>
         <text id="CompassNorth" class="compass-north" x="-4.7" y="40">N</text>
      </g>
      <g xmlns:g="http://code.google.com/p/golfml"
         xmlns:xlink="http://www.w3.org/1999/xlink"
         xmlns:xs="http://www.w3.org/2001/XMLSchema"
         id="GolfMLLogoSmall">
         <image xlink:href="../stylesheets/images/golfml-small.png" width="80" height="15"/>
      </g>
   </defs>
   <rect class="background" x="0" y="0" width="600" height="600"/>
   <g transform="translate(300,300) scale(-0.9878737019459036,0.9878737019459036) rotate(-171.06814644490981)">
      <path class="hole-contour"
            d="M-70.36065439641924,-300.001103589884Q-70.36065439641924,-300.001103589884 -63.51942570628818,-296.01081465167937 L-60.09881136122266,-294.015670182577Q-53.257582671091605,-290.0253812443724 -48.443249225236386,-277.85009827000135 L-46.03608250230879,-271.76245678281583Q-41.22174905645357,-259.5871738084448 -36.88448505025972,-236.436276058877 L-34.715853047162796,-224.86082718409315Q-30.378589040968944,-201.70992943452538 -17.79624686252351,-164.1510150592265 L-11.505075773300797,-145.37155787157707Q1.0772664051446341,-107.81264349627821 23.557238260848294,-50.678032442626154 L34.79722418870012,-22.110726915800143Q57.27719604440378,35.023884137851915 70.4598542558424,64.45964753006191 L77.05118336156171,79.1775292261669Q90.23384157300033,108.61329261837689 94.92266633329325,128.89102633701862 L97.26707871343972,139.0298931963395Q101.95590347373263,159.30762691498123 95.77227044346806,181.4852157517413 L92.68045392833577,192.5740101701213Q86.49682089807119,214.75159900688135 75.60210761516025,227.1310138496699 L70.15475097370478,233.32072127106417Q59.260037690793844,245.70013611385272 47.78698067845335,255.7231507741645 L42.0504521722831,260.73465810432043Q30.5773951599426,270.7576727646322 13.461381850393018,282.4541243874934 L4.90337519561823,288.30235019892393Q-12.212638113931353,299.9988018217851 -32.15715610768879,290.38443661762966 L-42.12941510456751,285.57725401555194Q-62.07393309832494,275.9628888113965 -74.82570740459563,267.4658251833537 L-81.20159455773099,263.2172933693323Q-93.95336886400167,254.72022974128947 -97.15438270895919,235.80699300100662 L-98.75488963143795,226.35037463086516Q-101.95590347639546,207.4371378905823 -94.2749010149258,120.89418903642596 L-90.43439978419099,77.6227146093478Q-82.75339732272133,-8.92023424480856 -74.22922604331654,-65.01672167096272 L-69.96714040361415,-93.0649653840398Q-61.44296912420938,-149.16145281019396 -70.71662840808798,-198.29502796119738 L-75.35345805002729,-222.8618155366991Q-84.62711733390589,-271.9953906877025 -84.87433126605042,-277.7003223279926 L-84.99793823212268,-280.5527881481376Q-85.24515216426721,-286.25771978842766 -79.29135305712802,-291.7550733090102 L-76.31445350355843,-294.5037500693015Q-70.36065439641924,-300.001103589884 -70.36065439641924,-300.001103589884 Z"/>
      <clipPath id="HoleContour" transform="scale(1.2)">
         <path class="hole-contour"
               d="M-70.36065439641924,-300.001103589884Q-70.36065439641924,-300.001103589884 -63.51942570628818,-296.01081465167937 L-60.09881136122266,-294.015670182577Q-53.257582671091605,-290.0253812443724 -48.443249225236386,-277.85009827000135 L-46.03608250230879,-271.76245678281583Q-41.22174905645357,-259.5871738084448 -36.88448505025972,-236.436276058877 L-34.715853047162796,-224.86082718409315Q-30.378589040968944,-201.70992943452538 -17.79624686252351,-164.1510150592265 L-11.505075773300797,-145.37155787157707Q1.0772664051446341,-107.81264349627821 23.557238260848294,-50.678032442626154 L34.79722418870012,-22.110726915800143Q57.27719604440378,35.023884137851915 70.4598542558424,64.45964753006191 L77.05118336156171,79.1775292261669Q90.23384157300033,108.61329261837689 94.92266633329325,128.89102633701862 L97.26707871343972,139.0298931963395Q101.95590347373263,159.30762691498123 95.77227044346806,181.4852157517413 L92.68045392833577,192.5740101701213Q86.49682089807119,214.75159900688135 75.60210761516025,227.1310138496699 L70.15475097370478,233.32072127106417Q59.260037690793844,245.70013611385272 47.78698067845335,255.7231507741645 L42.0504521722831,260.73465810432043Q30.5773951599426,270.7576727646322 13.461381850393018,282.4541243874934 L4.90337519561823,288.30235019892393Q-12.212638113931353,299.9988018217851 -32.15715610768879,290.38443661762966 L-42.12941510456751,285.57725401555194Q-62.07393309832494,275.9628888113965 -74.82570740459563,267.4658251833537 L-81.20159455773099,263.2172933693323Q-93.95336886400167,254.72022974128947 -97.15438270895919,235.80699300100662 L-98.75488963143795,226.35037463086516Q-101.95590347639546,207.4371378905823 -94.2749010149258,120.89418903642596 L-90.43439978419099,77.6227146093478Q-82.75339732272133,-8.92023424480856 -74.22922604331654,-65.01672167096272 L-69.96714040361415,-93.0649653840398Q-61.44296912420938,-149.16145281019396 -70.71662840808798,-198.29502796119738 L-75.35345805002729,-222.8618155366991Q-84.62711733390589,-271.9953906877025 -84.87433126605042,-277.7003223279926 L-84.99793823212268,-280.5527881481376Q-85.24515216426721,-286.25771978842766 -79.29135305712802,-291.7550733090102 L-76.31445350355843,-294.5037500693015Q-70.36065439641924,-300.001103589884 -70.36065439641924,-300.001103589884 Z"/>
      </clipPath>
      <path class="tee"
            d="M-46.031449317949296,-233.1820861470315Q-46.031449317949296,-233.1820861470315 -45.74305405056458,-226.52634739671913 L-45.59885641687222,-223.19847802156295Q-45.31046114948751,-216.54273927125058 -44.795471454096926,-204.6575051616116 L-44.53797660640163,-198.71488810679207Q-44.022986911011046,-186.8296539971531 -42.0405668573088,-174.05541853852313 L-41.049356830457675,-167.66830080920815Q-39.066936776755426,-154.8940653505782 -44.771871482681185,-154.64686193414624 L-47.62433883564406,-154.52326022593027Q-53.32927354156982,-154.27605680949833 -54.175482880345214,-162.81281072084604 L-54.59858754973292,-167.08118767651993Q-55.444796888508314,-175.61794158786765 -57.48903505930398,-189.81841460583053 L-58.511154144701806,-196.91865111481195Q-60.55539231549747,-211.11912413277483 -62.26843045959206,-228.66809428192497 L-63.12494953163935,-237.44257935650006Q-64.83798767573394,-254.9915495056502 -60.60045551024447,-256.1277823321521 L-58.48168942749974,-256.69589874540304Q-54.24415726201027,-257.83213157190494 -50.95907408438588,-247.97211340195557 L-49.31653249557368,-243.04210431698087Q-46.031449317949296,-233.1820861470315 -46.031449317949296,-233.1820861470315 Z"/>
      <path class="fairway"
            d="M-7.277970089874387,0.7273108674183191Q-7.277970089874387,0.7273108674183191 -4.5725788053397505,5.789406794020328 L-3.2198831630724323,8.32045475732133Q-0.5144918785377957,13.38255068392334 2.5582206693729326,26.92278452553466 L4.0945769433282955,33.69290144634032Q7.167289491239024,47.23313528795164 10.077274540820799,66.58120109022703 L11.532267065611684,76.2552339913647Q14.442252115193458,95.60329979364009 18.92657132266544,108.25364206958106 L21.168730926401423,114.57881320755153Q25.653050133873403,127.2291554834925 29.725250078573847,130.36747191693934 L31.761350050924065,131.93663013366276Q35.83354999562451,135.07494656710958 41.68542092476211,141.03656411293994 L44.61135638933091,144.01737288585514Q50.46322731846851,149.9789904316855 53.24023921468394,156.69533453197332 L54.62874516279165,160.05350658211725Q57.40575705900708,166.76985068240506 59.148857183688754,173.53098396736576 L60.02040724602959,176.91155060984613Q61.76350737071127,183.67268389480682 60.86397728778226,186.81921682541707 L60.41421224631776,188.39248329072223Q59.514682163388755,191.53901622133247 59.07350747942315,195.70154949774064 L58.85292013744035,197.78281613594473Q58.411745453474744,201.9453494123529 55.52503265228283,207.0425096411173 L54.08167625168688,209.59108975549952Q51.19496345049497,214.68824998426393 48.757651245539826,220.59462696232265 L47.53899514306225,223.547815451352Q45.10168293810711,229.4541924294107 37.665805454079695,234.74844340850214 L33.947866712065995,237.39556889804788Q26.51198922803858,242.6898198771393 19.103722696450795,243.83946975465275 L15.399589430656901,244.4142946934095Q7.991322899069116,245.56394457092293 3.5772571715324624,244.0978259776851 L1.3702243077641372,243.36476668106616Q-3.0438414197725168,241.89864808782832 -10.244611112055704,238.2743991085935 L-13.844995958197295,236.46227461897612Q-21.045765650480483,232.83802563974132 -28.731073921298368,222.8124826952737 L-32.57372805670731,217.7997112230399Q-40.259036327525195,207.7741682785723 -42.855473572006694,195.6635845720033 L-44.15369219424744,189.6082927187188Q-46.75012943872894,177.49770901214978 -43.76417474191289,169.91016018595838 L-42.27119739350486,166.11638577286266Q-39.28524269668881,158.52883694667125 -32.57720865300115,150.78001114235815 L-29.22319163115732,146.9055982402016Q-22.515157587469655,139.1567724358885 -21.767951810055894,132.49491510581606 L-21.394348921349017,129.16398644077984Q-20.647143143935256,122.50212911070739 -24.250616330137795,111.0566662241162 L-26.052352923239063,105.33393478082061Q-29.6558261094416,93.88847189422943 -40.05487514346747,73.8290655412759 L-45.2543996604804,63.799362364799144Q-55.65344869450627,43.73995601184562 -56.73077061448626,33.2208512053721 L-57.269431574476265,27.96129880213534Q-58.34675349445626,17.442193995661817 -55.504840719977985,11.311047251131885 L-54.08388433273885,8.245473878866921Q-51.24197155826057,2.11432713433699 -44.53457699118674,-0.869553788544569 L-41.18087970764982,-2.3614942499853484Q-34.47348514057598,-5.345375172866907 -28.01837960994979,-4.58920686215504 L-24.790826844636694,-4.211122706799107Q-18.335721314010502,-3.4549543960872393 -13.912620824356056,-1.7820482906850161 L-11.701070579528833,-0.9455952379839041Q-7.277970089874387,0.7273108674183191 -7.277970089874387,0.7273108674183191 Z"/>
      <path class="greenside-trap"
            d="M38.24984944409515,145.36211827513839Q38.24984944409515,145.36211827513839 40.71312444055137,150.2123474791693 L41.94476193877948,152.63746208118474Q44.4080369352357,157.48769128521565 42.810792386184616,158.75857185855094 L42.01217011165907,159.39401214521857Q40.41492556260798,160.66489271855386 35.656729048206124,158.3174565362691 L33.2776307910052,157.1437384451267Q28.51943427660334,154.79630226284195 24.543355196130257,153.16603898203022 L22.555315655893715,152.35090734162438Q18.57923657542063,150.72064406081265 19.805108015253385,147.81349874610288 L20.418043735169764,146.35992608874798Q21.64391517500252,143.45278077403822 24.088827229490796,140.94352418620542 L25.311283256734935,139.68889589228903Q27.756195311223212,137.17963930445623 31.953656964371987,140.4526308927291 L34.052387790946376,142.0891266868655Q38.24984944409515,145.36211827513839 38.24984944409515,145.36211827513839 Z"/>
      <path class="greenside-trap"
            d="M-11.42522249464582,168.91931559030098Q-11.42522249464582,168.91931559030098 -12.488228910225898,172.11979286537144 L-13.019732118015938,173.72003150290664Q-14.082738533596016,176.9205087779771 -16.18874311046727,180.31638846865917 L-17.241745398902896,182.0143283140002Q-19.34774997577415,185.4102080046823 -19.817540012915067,188.43477240293632 L-20.052435031485526,189.94705460206336Q-20.522225068626444,192.9716190003174 -20.529238364974766,196.27655113594486 L-20.532745013148926,197.92901720375858Q-20.53975830949725,201.23394933938604 -23.342911769849724,202.4068841114288 L-24.744488500025962,202.9933514974502Q-27.54764196037844,204.16628626949296 -29.47020118632805,201.395594273493 L-30.431480799302854,200.010248275493Q-32.354040025252466,197.23955627949306 -33.13564358217264,193.06753237896982 L-33.52644536063273,190.9815204287082Q-34.3080489175529,186.80949652818495 -33.32949714935511,181.65993998999525 L-32.840221265256226,179.08516172090043Q-31.861669497058436,173.93560518271073 -29.514275703380285,169.1773678542986 L-28.340578806541206,166.79824919009252Q-25.993185012863055,162.0400118616804 -22.537746515803395,158.58559575282186 L-20.810027267273565,156.85838769839262Q-17.354588770213905,153.40397158953408 -14.714946694637696,155.39260973988542 L-13.39512565684959,156.3869288150611Q-10.755483581273381,158.37556696541245 -10.59256372378712,158.66892864936503 L-10.511103795043988,158.81560949134132Q-10.348183937557726,159.1089711752939 -10.778999360392964,163.03310894129675 L-10.994407071810581,164.99517782429814Q-11.42522249464582,168.91931559030098 -11.42522249464582,168.91931559030098 Z"/>
      <path class="greenside-trap"
            d="M28.5413578866407,224.6431884632519Q28.5413578866407,224.6431884632519 30.881209020689784,226.6447613823967 L32.05113458771432,227.64554784196912Q34.39098572176341,229.6471207611139 33.29549605169911,232.09795091867295 L32.74775121666696,233.3233659974525Q31.65226154660267,235.77419615501154 28.575238488229672,237.55981896191858 L27.036726959043172,238.4526303653721Q23.959703900670174,240.23825317227914 20.10706327582028,241.45664355298732 L18.180742963395335,242.06583874334143Q14.328102338545444,243.2842291240496 12.574969089238246,240.95681930650812 L11.698402464584648,239.79311439773736Q9.94526921527745,237.46570458019588 10.721413374557276,234.57807690168826 L11.109485454197188,233.13426306243443Q11.885629613477013,230.24663538392682 15.561850449622405,228.2043159053512 L17.3999608676951,227.18315616606336Q21.07618170384049,225.14083668748773 24.062252176960573,224.9417773977934 L25.555287413520617,224.84224775294624Q28.5413578866407,224.6431884632519 28.5413578866407,224.6431884632519 Z"/>
      <path class="greenside-trap"
            d="M59.46179504167827,184.24894160396224Q59.46179504167827,184.24894160396224 57.74060498895459,186.12602879191923 L56.88000996259275,187.06457238589772Q55.15881990986907,188.9416595738547 54.982377776553236,191.8033008510981 L54.89415670989531,193.2341214897198Q54.71771457657948,196.0957627669632 53.46579627221445,198.40315367882377 L52.83983712003192,199.55684913475403Q51.58791881566689,201.8642400466146 49.488930863095185,201.95517168595518 L48.439436886809325,202.0006375056255Q46.34044893423762,202.09156914496606 44.15701911515064,200.2334257082872 L43.06530420560715,199.30435398994774Q40.88187438652017,197.44621055326888 39.86538766029925,194.78646092442497 L39.35714429718878,193.45658611000303Q38.34065757096786,190.79683648115912 40.459664376386925,187.70082721123276 L41.51916777909645,186.15282257626956Q43.63817458451551,183.0568133063432 47.30379423441644,180.51426630863895 L49.1366040593669,179.24299280978684Q52.802223709267835,176.7004458120826 55.46605224223201,179.71984412883444 L56.7979665087141,181.2295432872104Q59.46179504167827,184.24894160396224 59.46179504167827,184.24894160396224 Z"/>
      <path class="green"
            d="M7.057245611684082,153.47300027034038Q7.057245611684082,153.47300027034038 12.676038044759371,154.88187740090942 L15.485434261297016,155.58631596619392Q21.104226694372304,156.99519309676296 24.70197187177665,160.29416247005037 L26.500844460478817,161.94364715669406Q30.098589637883162,165.24261652998146 31.734277868535198,168.32617102344847 L32.55212198386122,169.86794827018198Q34.187810214513256,172.951502763649 34.42814734606031,178.49887487202508 L34.54831591183383,181.27256092621315Q34.78865304338088,186.81993303458924 35.92206082924351,192.17840349282991 L36.48876472217483,194.85763872195028Q37.62217250803746,200.21610918019095 37.46521912107461,203.52753882443469 L37.38674242759319,205.18325364655658Q37.229789040630344,208.4946832908003 33.94384501119177,212.39230038438302 L32.300872996472485,214.34110893117435Q29.01492896703391,218.23872602475706 22.31366111048233,219.58053192162384 L18.963027182206538,220.25143487005724Q12.261759325654959,221.59324076692403 7.014297162188098,221.82059607893652 L4.3905660804546685,221.9342737349428Q-0.8568960830121927,222.16162904695528 -6.253765955482932,218.9406268536856 L-8.952200891718302,217.33012575705075Q-14.349070764189042,214.10912356378105 -15.697900319071282,210.7127281479623 L-16.372315096512402,209.01453044005294Q-17.721144651394642,205.6181350242342 -17.09441213868233,199.2821424352617 L-16.781045882326172,196.11414614077543Q-16.15431336961386,189.77815355180294 -14.132756826519405,184.43319690339638 L-13.121978554972177,181.7607185791931Q-11.10042201187772,176.41576193078654 -9.046382575894603,171.82045193171012 L-8.019362857903046,169.52279693217193Q-5.965323421919928,164.9274869330955 -4.446034296764035,161.8574515835453 L-3.686389734186089,160.32243390877017Q-2.167100609030196,157.25239855921996 1.522637879255515,155.7406392436681 L3.367507123398371,154.98475958589222Q7.057245611684082,153.47300027034038 7.057245611684082,153.47300027034038 Z"/>
      <path class="trees"
            d="M81.78287540591985,107.6355325850279Q81.78287540591985,107.6355325850279 84.04991110357336,112.35049856917163 L85.18342895240013,114.70798156124351Q87.45046465005365,119.42294754538725 90.13497533656634,125.83881805397125 L91.47723067982268,129.04675330826325Q94.16174136633538,135.46262381684727 91.60978073858205,140.04253683490276 L90.33380042470539,142.3324933439305Q87.78183979695206,146.912406361986 80.93367341985622,147.55285805665733 L77.5095902313083,147.87308390399298Q70.66142385421246,148.5135355986643 67.72295074860476,144.17146181656318 L66.2537141958009,142.00042492551262Q63.3152410901932,137.6583511434115 58.51233686736307,129.9590707997198 L56.11088475594801,126.10943062787393Q51.30798053311788,118.41015028418222 54.322018636242,116.56058927057403 L55.82903768780405,115.63580876376992Q58.843075790928175,113.78624775016172 62.37989231307552,108.13226411258657 L64.14830057414919,105.30527229379899Q67.68511709629654,99.65128865622384 73.32422042014586,102.84498622774547 L76.14377208207053,104.44183501350628Q81.78287540591985,107.6355325850279 81.78287540591985,107.6355325850279 Z"/>
      <path class="trees"
            d="M51.01370715399193,91.77855692240509Q51.01370715399193,91.77855692240509 48.40228465021008,94.9858725094004 L47.09657339831915,96.58953030289804Q44.4851508945373,99.79684588989335 41.66559688163445,98.20000652694384 L40.25581987518302,97.40158684546908Q37.43626586228017,95.80474748251957 40.136886270905386,94.65635522356789 L41.487196475218,94.08215909409203Q44.18781688384321,92.93376683514035 43.99454956876331,88.4727624860696 L43.89791591122336,86.24226031153424Q43.70464859614346,81.78125596246349 47.47933258610466,81.61772879822631 L49.366674581085256,81.53596521610773Q53.14135857104646,81.37243805187055 52.290298004224645,85.53488560008437 L51.864767720813745,87.61610937419127Q51.01370715399193,91.77855692240509 51.01370715399193,91.77855692240509 Z"/>
      <path class="tree"
            d="M-34.61509583281275,277.7011587009689Q-34.61509583281275,277.7011587009689 -38.107231117117664,284.3846248431631 L-39.853298759270125,287.7263579142603Q-43.34543404357504,294.4098240564545 -49.32764252778378,291.2310861911806 L-52.31874676988815,289.64171725854374Q-58.3009552540969,286.46297939326985 -57.92690128437759,279.22702828745315 L-57.73987429951794,275.60905273454483Q-57.36582032979864,268.37310162872814 -52.650947187994085,266.1060066373379 L-50.29351061709181,264.97245914164273Q-45.57863747528726,262.7053641502525 -41.193220818297455,268.70368197053904 L-39.00051248980255,271.70284088068234Q-34.61509583281275,277.7011587009689 -34.61509583281275,277.7011587009689 Z"/>
      <path class="tree"
            d="M43.67967337566802,1.8491206213682136Q43.67967337566802,1.8491206213682136 44.66331756204786,8.682493635095526 L45.15513965523778,12.099180141959183Q46.138783841617624,18.932553155686495 41.364354967119766,19.826991301078895 L38.977140529870844,20.274210373775094Q34.20271165537299,21.168648519167494 31.054852848677122,19.92983037501624 L29.480923445329193,19.310421302940615Q26.333064638633328,18.07160315878936 25.035990622323432,11.939411665107375 L24.387453614168482,8.87331591826638Q23.090379597858586,2.741124424584393 25.686947097969433,-0.8093659087032141 L26.985230848024855,-2.5846110753470164Q29.581798348135703,-6.135101408634624 35.22094835914863,-2.9414125966334885 L38.04052336465509,-1.3445681906329214Q43.67967337566802,1.8491206213682136 43.67967337566802,1.8491206213682136 Z"/>
      <use xmlns:xlink="http://www.w3.org/1999/xlink" xlink:href="#TeeSet"
           x="-51.95246222568945"
           y="-206.05406223130947"
           class="tees"
           transform="rotate(171.06814644490981 -51.95246222568945 -206.05406223130947)"/>
      <use xmlns:xlink="http://www.w3.org/1999/xlink" xlink:href="#Flag"
           x="9.950513928182868"
           y="187.81733185165587"
           transform="rotate(171.06814644490981 9.950513928182868 187.81733185165587)"/>
   </g>
   <rect x="470" y="400" rx="4" ry="4" width="110" height="180" class="info-background"/>
   <text x="525" y="420" class="info-hole" text-anchor="middle">
					Hole 9</text>
   <text x="525" y="440" class="info-par" text-anchor="middle">
					Par 3</text>
   <circle cx="485.625" cy="457.1875" r="5.625" style="fill:blue"/>
   <text x="496.875" y="460" class="info-length">143 meters</text>
   <use xmlns:xlink="http://www.w3.org/1999/xlink" xlink:href="#Compass" x="550" y="50"
        transform="rotate(-171.06814644490981 550 50)"/>
   <use xmlns:xlink="http://www.w3.org/1999/xlink" xlink:href="#GolfMLLogoSmall" x="10"
        y="575"/>
</svg>