<?xml version="1.0" encoding="UTF-8"?>
<svg xmlns="http://www.w3.org/2000/svg" width="600" height="600">
   <defs>
      <style xmlns:g="http://code.google.com/p/golfml"
             xmlns:xlink="http://www.w3.org/1999/xlink"
             xmlns:xs="http://www.w3.org/2001/XMLSchema"
             type="text/css">
/* Stylesheet for SVG elements
 *
 *
 * Classes for area of interest (surfaces)
 *
 * DRAWING
 */
.background {
		fill: url(#background-gradient);
}

.hole-limits {
	fill: none;
	stroke: #ccc;
	stroke-width: 1px;
	stroke-dasharray: 10,10;
}

.hole-contour {
	fill: #030;
	stroke: #fff;
	stroke-width: 2px;
}


/* GROUND
 */
.fairway {
	fill: url(#fairway-pattern);
	stroke: #0b0;
	stroke-width: 3px; /* fairway fringe... */
}

.tee {
	fill: #00c800;
	stroke: #0f0;
	stroke-width: 1px;
}

.fringe {
	fill: #0A0;
}

.green {
	fill: url(#green-gradient);
	stroke: #0f0;
	stroke-width: 1px;
}

.semi-rough,
.light-rough {
	fill: #080;
	stroke: #08800D;
	stroke-width: 1px;
}

.rough {
	fill: url(#rough-gradient);
	stroke: #07660A;
	stroke-width: 1px;
}

.heavy-rough {
	fill: #040;
	stroke: #074D08;
	stroke-width: 1px;
}

.ground {
	fill: #7f400c;
	stroke: #fdcc6a;
	stroke-width: 1px;
}


/* WATER
 */
.lateral-water {
	fill: url(#lateral-water-gradient);
	stroke: red;
	stroke-width: 4px;
}

.front-water, .water {
	fill: #37f;
	stroke: yellow;
	stroke-width: 3px;
}


/* SPECIAL
 */
.under-repair {
	fill: none;
	stroke: #00d;
	stroke-width: 2px;
}

.out-of-bound { /* line only */
	fill: none;
	stroke: white;
	stroke-width: 4px;
}

.out-of-bound-area {
	fill: #ccc;
	stroke: white;
	stroke-width: 4px;
}


/* TRAPS
 */
.trap,
.bunker {
	fill: #92cf94;
	stroke: #4c994c;
	stroke-width: 1px;
}

.grass-trap,
.grass-bunker {
	fill: #050;
	stroke: #0A0;
	stroke-width: 1px;
}

.sand-trap,
.sand-bunker,
.greenside-trap,
.greenside-bunker {
	fill: #eec;
	stroke: #040;
	stroke-width: 2px;
}

.fairway-trap,
.fairway-bunker {
	fill: #eec;
	stroke: #030;
	stroke-width: 2px;
}


/* OBSTACLES
 */
.tree {
	fill: #062;
	stroke: #0c6;
	stroke-width: 1px;
}

.trees {
	fill: #062;
	stroke: #0c6;
	stroke-width: 1px;
}

.bush {
	fill: #00b259;
	stroke: #7f400c;
	stroke-width: 1px;
}


.path {
	fill: #666;
	stroke: #bbb;
	stroke-width: 1px;
}

.building,
.construction {
	fill: #fdcc6a;
	stroke: #7f400C;
	stroke-width: 1px;
}

.obstruction {
	fill: #555;
	stroke: #999;
	stroke-width: 1px;
}


.other {
	fill: #ddd;
	stroke: #666;
	stroke-width: 1px;
}

/* Classes for point of interest (points)
 *
 */
.dogleg {
	fill: #000;
}

.aim {
	fill: #fff;
	stroke: #f00;
	stroke-width: 1px;
}

.tees {
	fill: #00f;
}

.tees-hollow {
	stroke: #fff;
	stroke-width: 0.5px;
}

.hole {
	fill: #fff;
}

.distance-marker-100,
.distance-marker-close {
	fill: #44f;
	stroke: #00f;
	stroke-width: 1px;
}

.distance-marker-150,
.distance-marker-135,
.distance-marker,
.distance-marker-mid {
	fill: #f44;
	stroke: #f00;
	stroke-width: 1px;
}

.distance-marker-200,
.distance-marker-far {
	fill: #dd4;
	stroke: #ff0;
	stroke-width: 1px;
}

.green-region-delimiter {
	fill: none;
	stroke: #fff;
	stroke-width: 0.5;
	stroke-dasharray: 4,2;
}

.neutral {
	fill: none;
	stroke: #888;
	stroke-width: 1px;
}
.one-tree {
	fill: #14920D;
	stroke: #165822;
	stroke-width: 3px;
	stroke-linecap: round;
	stroke-linejoin: round; 
}

/* Classes for special decorative objects
 *
 */
.compass-center {
	fill: #ddd;
	stroke: #fff;
	stroke-width: 1px;
}
.compass-needle {
	fill: #ddd;
	stroke: #fff;
	stroke-width: 1px;
}
.compass-north {
	fill: #fff;
}
.flag-pole {
	fill: none;
	stroke: #f00;
	stroke-width: 2px;
}
.flag-flag {
	fill: #ff0;
	stroke: #f00;
	stroke-width: 1px;
}
.flag-cup {
	fill: #fff;
}
/* Information box */
.info-background {
	fill: #ddd;
}
.info-hole {
	font-family: Georgia, "Times New Roman", Times, serif;
	font-size: xx-large;
}
.info-par {
	font-family: Georgia, "Times New Roman", Times, serif;
	font-size: x-large;
}
.info-length {
	font-family: Georgia, "Times New Roman", Times, serif;
	font-size: large;
}
/* Circle for distances */
.circle-from-green {
	fill: none;
	stroke: #fff;
	stroke-width: 1px;
	stroke-dasharray: 4,4;
}
.circle-from-tee {
	fill: none;
	stroke: #f00;
	stroke-width: 1px;
	stroke-dasharray: 8,8;
}
/* Dynamic objects */
.target {
	fill: none;
	stroke: #f00;
	stroke-width: 2px;
}
.target-filled {
	fill: #f00;
	fill-opacity: 0.5;
	stroke: #f00;
}
.ball {
	fill: #fff;
	stroke: none;
}
.trajectory {
	fill: none;
	stroke: #fff;
	stroke-width: 2px;
}
.distance {
	fill: #fff;
}
</style>
      <linearGradient xmlns:g="http://code.google.com/p/golfml"
                      xmlns:xlink="http://www.w3.org/1999/xlink"
                      xmlns:xs="http://www.w3.org/2001/XMLSchema"
                      id="background-straight">
         <stop offset="5%" stop-color="#002"/>
         <stop offset="95%" stop-color="#004"/>
      </linearGradient>
      <linearGradient xmlns:g="http://code.google.com/p/golfml"
                      xmlns:xlink="http://www.w3.org/1999/xlink"
                      xmlns:xs="http://www.w3.org/2001/XMLSchema"
                      id="background-gradient"
                      gradientTransform="rotate(30)"
                      xlink:href="#background-straight"/>
      <linearGradient xmlns:g="http://code.google.com/p/golfml"
                      xmlns:xlink="http://www.w3.org/1999/xlink"
                      xmlns:xs="http://www.w3.org/2001/XMLSchema"
                      id="lateral-water-straight">
         <stop offset="5%" stop-color="#006"/>
         <stop offset="95%" stop-color="#008"/>
      </linearGradient>
      <linearGradient xmlns:g="http://code.google.com/p/golfml"
                      xmlns:xlink="http://www.w3.org/1999/xlink"
                      xmlns:xs="http://www.w3.org/2001/XMLSchema"
                      id="lateral-water-gradient"
                      gradientTransform="rotate(60)"
                      xlink:href="#lateral-water-straight"/>
      <linearGradient xmlns:g="http://code.google.com/p/golfml"
                      xmlns:xlink="http://www.w3.org/1999/xlink"
                      xmlns:xs="http://www.w3.org/2001/XMLSchema"
                      id="rough-straight">
         <stop offset="0%" stop-color="#030"/>
         <stop offset="25%" stop-color="#060"/>
         <stop offset="50%" stop-color="#040"/>
         <stop offset="75%" stop-color="#060"/>
         <stop offset="100%" stop-color="#080"/>
      </linearGradient>
      <linearGradient xmlns:g="http://code.google.com/p/golfml"
                      xmlns:xlink="http://www.w3.org/1999/xlink"
                      xmlns:xs="http://www.w3.org/2001/XMLSchema"
                      id="rough-gradient"
                      gradientTransform="rotate(70)"
                      xlink:href="#rough-straight"/>
      <linearGradient xmlns:g="http://code.google.com/p/golfml"
                      xmlns:xlink="http://www.w3.org/1999/xlink"
                      xmlns:xs="http://www.w3.org/2001/XMLSchema"
                      id="green-straight">
         <stop offset="0%" stop-color="#0d0"/>
         <stop offset="25%" stop-color="#0e0"/>
         <stop offset="50%" stop-color="#0c0"/>
         <stop offset="75%" stop-color="#0e0"/>
         <stop offset="100%" stop-color="#0b0"/>
      </linearGradient>
      <linearGradient xmlns:g="http://code.google.com/p/golfml"
                      xmlns:xlink="http://www.w3.org/1999/xlink"
                      xmlns:xs="http://www.w3.org/2001/XMLSchema"
                      id="green-gradient"
                      gradientTransform="rotate(75)"
                      xlink:href="#green-straight"/>
      <pattern xmlns:g="http://code.google.com/p/golfml"
               xmlns:xlink="http://www.w3.org/1999/xlink"
               xmlns:xs="http://www.w3.org/2001/XMLSchema"
               id="fairway-straight"
               patternUnits="userSpaceOnUse"
               x="0"
               y="0"
               width="20"
               height="20"
               viewBox="0 0 20 20">
         <rect x="0" y="0" width="10" height="10" fill="#00c000"/>
         <rect x="10" y="10" width="10" height="10" fill="#00c800"/>
         <rect x="10" y="0" width="10" height="10" fill="#00bc00"/>
         <rect x="0" y="10" width="10" height="10" fill="#00b800"/>
      </pattern>
      <pattern xmlns:g="http://code.google.com/p/golfml"
               xmlns:xlink="http://www.w3.org/1999/xlink"
               xmlns:xs="http://www.w3.org/2001/XMLSchema"
               id="fairway-pattern"
               patternTransform="rotate(60)"
               xlink:href="#fairway-straight"/>
      <g xmlns:g="http://code.google.com/p/golfml"
         xmlns:xlink="http://www.w3.org/1999/xlink"
         xmlns:xs="http://www.w3.org/2001/XMLSchema"
         id="Tree"
         transform="translate(-76 -66) scale(0.4)">
         <path class="one-tree"
               d="M191.991,126.799c-11.163,0-21.022,4.032-27.033,10.191c-17.556,0.615-31.556,11.151-31.556,24.079       c0,7.537,4.759,14.266,12.203,18.693c0.876,12.855,18.43,23.128,39.939,23.128c22.07,0,39.979-10.812,39.979-24.136       c0-0.065-0.012-0.13-0.013-0.195c6.33-2.866,10.33-6.992,10.33-11.595c0-4.806-4.343-9.104-11.164-11.977       c0.31-1.318,0.478-2.67,0.478-4.054C225.154,137.612,210.297,126.799,191.991,126.799z"/>
      </g>
      <g xmlns:g="http://code.google.com/p/golfml"
         xmlns:xlink="http://www.w3.org/1999/xlink"
         xmlns:xs="http://www.w3.org/2001/XMLSchema"
         id="TeeSet">
         <circle cx="-5" cy="0" r="2"/>
         <circle cx="5" cy="0" r="2"/>
      </g>
      <g xmlns:g="http://code.google.com/p/golfml"
         xmlns:xlink="http://www.w3.org/1999/xlink"
         xmlns:xs="http://www.w3.org/2001/XMLSchema"
         id="DistanceMarker">
         <circle r="6"/>
      </g>
      <g xmlns:g="http://code.google.com/p/golfml"
         xmlns:xlink="http://www.w3.org/1999/xlink"
         xmlns:xs="http://www.w3.org/2001/XMLSchema"
         id="Dogleg">
         <circle r="4"/>
      </g>
      <g xmlns:g="http://code.google.com/p/golfml"
         xmlns:xlink="http://www.w3.org/1999/xlink"
         xmlns:xs="http://www.w3.org/2001/XMLSchema"
         id="Aim">
         <circle r="4"/>
      </g>
      <g xmlns:g="http://code.google.com/p/golfml"
         xmlns:xlink="http://www.w3.org/1999/xlink"
         xmlns:xs="http://www.w3.org/2001/XMLSchema"
         id="Hole">
         <circle r="2"/>
      </g>
      <g xmlns:g="http://code.google.com/p/golfml"
         xmlns:xlink="http://www.w3.org/1999/xlink"
         xmlns:xs="http://www.w3.org/2001/XMLSchema"
         id="Ball">
         <image xlink:href="../stylesheets/images/golf-ball.png" width="16" height="16"
                transform="translate(-8 -8)"/>
      </g>
      <g xmlns:g="http://code.google.com/p/golfml"
         xmlns:xlink="http://www.w3.org/1999/xlink"
         xmlns:xs="http://www.w3.org/2001/XMLSchema"
         id="Target">
         <circle class="target-filled" r="12"/>
      </g>
      <g xmlns:g="http://code.google.com/p/golfml"
         xmlns:xlink="http://www.w3.org/1999/xlink"
         xmlns:xs="http://www.w3.org/2001/XMLSchema"
         id="Flag"
         transform="translate(0 -30) scale(-0.2 0.2)">
         <line id="FlagPole" class="flag-pole" x1="0.5" y1="0" x2="0.5" y2="150"/>
         <circle id="FlagCup" class="flag-cup" r="10" cx="0" cy="145"/>
         <g id="FlagFlag">
            <path class="flag-flag"
                  d="M55.339,45.968c-18.28-14.516-36.559,14.516-54.839,0c0-12.097,0-24.193,0-36.29        c18.28,14.516,36.559-14.516,54.839,0C55.339,21.774,55.339,33.871,55.339,45.968z"/>
         </g>
      </g>
      <g xmlns:g="http://code.google.com/p/golfml"
         xmlns:xlink="http://www.w3.org/1999/xlink"
         xmlns:xs="http://www.w3.org/2001/XMLSchema"
         id="Compass">
         <polygon id="CompassNeedle" class="compass-needle" points="0,30 -8,0 0,-20 8,0"/>
         <circle id="CompassCenter" class="compass-center" r="10"/>
         <text id="CompassNorth" class="compass-north" x="-4.7" y="40">N</text>
      </g>
      <g xmlns:g="http://code.google.com/p/golfml"
         xmlns:xlink="http://www.w3.org/1999/xlink"
         xmlns:xs="http://www.w3.org/2001/XMLSchema"
         id="GolfMLLogoSmall">
         <image xlink:href="../stylesheets/images/golfml-small.png" width="80" height="15"/>
      </g>
   </defs>
   <rect class="background" x="0" y="0" width="600" height="600"/>
   <g transform="translate(300,300) scale(-0.8851677389097379,0.8851677389097379) rotate(152.27217037619346)">
      <path class="hole-contour"
            d="M180.1432389226089,-272.4640894388504Q180.1432389226089,-272.4640894388504 142.1937913610388,-243.89285793115874 L123.21906758025374,-229.6072421773129Q85.26962001868363,-201.03601066962122 75.89023817307663,-173.31905015859076 L71.20054725027313,-159.4605699030755Q61.821165404666125,-131.74360939204504 29.4183734928785,-70.33930863367382 L13.216977536984707,-39.63715825448821Q-19.185814374802916,21.76714250388301 -34.1064289679376,69.09899040966019 L-41.56673626450494,92.76491436254875Q-56.487350857639626,140.09676226832593 -52.64863013466073,155.87339351173935 L-50.72926977317128,163.76170913344606Q-46.890549050192384,179.53834037685948 -50.72460606982425,227.72230519788627 L-52.641634579640176,251.8142876083997Q-56.47569159927204,299.9982524294265 -100.39572174465087,280.81390943724017 L-122.35573681734027,271.221737941147Q-166.2757669627191,252.03739494896067 -168.8357432392391,232.42305078863455 L-170.11573137749912,222.61587870847148Q-172.6757076540191,203.00153454814537 -175.66272014743674,176.13840021784802 L-177.15622639414556,162.70683305269932Q-180.1432388875632,135.84369872240197 -168.23949917096135,79.4611743459779 L-162.28762931266044,51.269912157765866Q-150.3838895960586,-5.112612218658205 -135.1261108866242,-40.290846350114215 L-127.49722153190697,-57.87996341584221Q-112.23944282247257,-93.05819754729822 -85.08375860716961,-135.99702604280165 L-71.50591649951815,-157.46644029055338Q-44.350232284215195,-200.4052687860568 -25.986860801941386,-220.58176014669888 L-16.80517506080448,-230.67000582701993Q1.5581964214693278,-250.846497187662 43.71892571384348,-266.88583610953475 L64.79929036003055,-274.9055055704712Q106.96001965240471,-290.9448444923439 131.53278105830498,-294.5673012710604 L143.8191617612551,-296.37852966041856Q168.39192316715534,-300.00098643913503 173.09244946933677,-288.9862276390212 L175.44271262042747,-283.47884823896425Q180.1432389226089,-272.4640894388504 180.1432389226089,-272.4640894388504 Z"/>
      <clipPath id="HoleContour" transform="scale(1.2)">
         <path class="hole-contour"
               d="M180.1432389226089,-272.4640894388504Q180.1432389226089,-272.4640894388504 142.1937913610388,-243.89285793115874 L123.21906758025374,-229.6072421773129Q85.26962001868363,-201.03601066962122 75.89023817307663,-173.31905015859076 L71.20054725027313,-159.4605699030755Q61.821165404666125,-131.74360939204504 29.4183734928785,-70.33930863367382 L13.216977536984707,-39.63715825448821Q-19.185814374802916,21.76714250388301 -34.1064289679376,69.09899040966019 L-41.56673626450494,92.76491436254875Q-56.487350857639626,140.09676226832593 -52.64863013466073,155.87339351173935 L-50.72926977317128,163.76170913344606Q-46.890549050192384,179.53834037685948 -50.72460606982425,227.72230519788627 L-52.641634579640176,251.8142876083997Q-56.47569159927204,299.9982524294265 -100.39572174465087,280.81390943724017 L-122.35573681734027,271.221737941147Q-166.2757669627191,252.03739494896067 -168.8357432392391,232.42305078863455 L-170.11573137749912,222.61587870847148Q-172.6757076540191,203.00153454814537 -175.66272014743674,176.13840021784802 L-177.15622639414556,162.70683305269932Q-180.1432388875632,135.84369872240197 -168.23949917096135,79.4611743459779 L-162.28762931266044,51.269912157765866Q-150.3838895960586,-5.112612218658205 -135.1261108866242,-40.290846350114215 L-127.49722153190697,-57.87996341584221Q-112.23944282247257,-93.05819754729822 -85.08375860716961,-135.99702604280165 L-71.50591649951815,-157.46644029055338Q-44.350232284215195,-200.4052687860568 -25.986860801941386,-220.58176014669888 L-16.80517506080448,-230.67000582701993Q1.5581964214693278,-250.846497187662 43.71892571384348,-266.88583610953475 L64.79929036003055,-274.9055055704712Q106.96001965240471,-290.9448444923439 131.53278105830498,-294.5673012710604 L143.8191617612551,-296.37852966041856Q168.39192316715534,-300.00098643913503 173.09244946933677,-288.9862276390212 L175.44271262042747,-283.47884823896425Q180.1432389226089,-272.4640894388504 180.1432389226089,-272.4640894388504 Z"/>
      </clipPath>
      <path class="tee"
            d="M168.08843658633154,-283.98449865170187Q168.08843658633154,-283.98449865170187 156.44473952659743,-275.3893326465967 L150.62289099673038,-271.09174964404406Q138.97919393699627,-262.4965836389389 140.08830506105812,-260.5562100052987 L140.64286062308906,-259.58602318847863Q141.75197174715092,-257.6456495548384 127.8914835847983,-247.11086742989465 L120.96123950362198,-241.84347636742277Q107.10075134126934,-231.308694242479 102.6648612727409,-236.02126072205422 L100.44691623847666,-238.37754396184184Q96.01102616994821,-243.09011044141707 121.79228639713979,-263.0516429308815 L134.68291651073557,-273.03240917561374Q160.46417673792715,-292.9939416650782 163.5138806772889,-289.39016445972766 L165.03873264696978,-287.5882758570524Q168.08843658633154,-283.98449865170187 168.08843658633154,-283.98449865170187 Z"/>
      <path class="fairway"
            d="M29.627209522359728,-140.91748620886978Q29.627209522359728,-140.91748620886978 20.269843188490828,-121.42259210635584 L15.59116002155638,-111.67514505509888Q6.23379368768748,-92.18025095258494 -1.5639372898140111,-76.97425969976106 L-5.462802778564754,-69.37126407334914Q-13.260533756066245,-54.16527282052527 -24.957086208320547,-37.00975669984986 L-30.805362434447694,-28.43199863951216Q-42.501914886702,-11.276482518836756 -46.01063531572346,5.878855426244749 L-47.76499553023419,14.456524398785497Q-51.273715959255654,31.611862343867003 -60.63079632724873,46.427967617163006 L-65.30933651124526,53.836020253811Q-74.66641687923834,68.652125527107 -79.73461663526896,85.02769255293418 L-82.26871651328429,93.21547606584775Q-87.33691626931491,109.59104309167493 -87.7264690468088,124.40691006726749 L-87.92124543555576,131.81484355506376Q-88.31079821304965,146.6307105306563 -89.86992262250267,164.95562585403923 L-90.64948482722917,174.11808351573066Q-92.2086092366822,192.44299883911359 -88.30963365890429,197.90137143981653 L-86.36014587001534,200.63055774016803Q-82.46117029223744,206.08893034087097 -80.12168090103042,214.27657840509534 L-78.95193620542689,218.3704024372075Q-76.61244681421987,226.55805050143186 -82.46051124485105,235.13580655807147 L-85.38454346016664,239.42468458639127Q-91.23260789079782,248.00244064303087 -101.36949065234687,251.5117689964984 L-106.43793203312138,253.2664331732322Q-116.57481479467043,256.77576152669974 -125.15227713864428,255.60638280975488 L-129.44100831063122,255.02169345128243Q-138.01847065460507,253.85231473433757 -144.64659859898345,249.95365181512614 L-147.96066257117263,248.0043203555204Q-154.588790515551,244.10565743630897 -158.48794681357373,233.18885874933727 L-160.43752496258506,227.73045940585143Q-164.33668126060778,216.81366071887973 -157.70891653595393,207.06612546356396 L-154.395034173627,202.19235783590608Q-147.76726944897317,192.4448225805903 -140.74979787970273,174.89948105765893 L-137.24106209506752,166.12681029619327Q-130.22359052579708,148.5814687732619 -127.14448588200776,135.1463584801712 L-125.60493356011308,128.42880333362584Q-122.52582891632376,114.99369304053515 -119.4533502757007,101.26820024225327 L-117.91711095538916,94.40545384311235Q-114.8446323147661,80.67996104483048 -109.51864729681043,69.82239119850584 L-106.85565478783258,64.39360627534353Q-101.5296697698769,53.5360364290189 -105.62702439320492,44.112748214748635 L-107.67570170486894,39.401104107613506Q-111.77305632819696,29.977815893343244 -112.18296288422712,22.193263871619788 L-112.38791616224219,18.300987860758063Q-112.79782271827236,10.516435839034607 -108.08631643128649,1.9122897381083206 L-105.73056328779356,-2.3897833123548207Q-101.01905700080769,-10.993929413281107 -91.18613447283049,-22.26136574337159 L-86.26967320884188,-27.895083908416836Q-76.43675068086468,-39.16252023850732 -72.33979597590488,-49.8152316730242 L-70.29131862342497,-55.14158739028264Q-66.19436391846517,-65.79429882479951 -58.20504889621919,-76.44712148217488 L-54.2103913850962,-81.77353281086258Q-46.22107636285022,-92.42635546823794 -37.412263399976126,-103.28406626707405 L-33.00785691853909,-108.7129216664921Q-24.199043955664997,-119.5706324653282 -17.84849821728841,-130.83802620397267 L-14.673225348100114,-136.4717230732949Q-8.322679609723524,-147.73911681193937 -3.139895913097046,-153.77020082907234 L-0.548504064783808,-156.78574283763885Q4.63427963184267,-162.81682685477182 10.362602001501884,-164.3243535313808 L13.226763186331493,-165.07811686968532Q18.955085555990706,-166.5856435462943 23.477492477832186,-162.36485790349926 L25.738695938752922,-160.25446508210172Q30.261102860594402,-156.03367943930667 30.007545525300532,-149.9872021471319 L29.880766857653597,-146.96396350104453Q29.627209522359728,-140.91748620886978 29.627209522359728,-140.91748620886978 Z"/>
      <path class="greenside-trap"
            d="M-123.2942686938469,177.45013876575558Q-123.2942686938469,177.45013876575558 -120.94251753722835,180.4114628028489 L-119.76664195891908,181.89212482139553Q-117.41489080230053,184.85344885848883 -114.80205215938193,185.027512756201 L-113.49563283792264,185.11454470505709Q-110.88279419500404,185.28860860276924 -109.83761690105628,187.11760861149102 L-109.31502825408239,188.03210861585188Q-108.26985096013463,189.86110862457366 -109.1407507236447,191.864341518543 L-109.57620060539973,192.86595796552768Q-110.4471003689098,194.86919085949702 -112.71154500308651,195.74022166766508 L-113.84376732017488,196.17573707174913Q-116.10821195435159,197.04676787991718 -119.50494059183774,195.91463301856624 L-121.20330491058081,195.34856558789073Q-124.60003354806696,194.21643072653978 -127.47422053563612,192.12622711009777 L-128.9113140294207,191.0811253018768Q-131.78550101698985,188.99092168543478 -132.8307205618889,186.02969619870345 L-133.3533303343384,184.54908345533775Q-134.39854987923746,181.58785796860641 -133.17926898594158,179.75880060384358 L-132.5696285392936,178.84427192146217Q-131.35034764599772,177.01521455669933 -130.13103567812814,176.31840465040662 L-129.52137969419337,175.96999969726025Q-128.3020677263238,175.27318979096754 -126.29894811333304,176.14396938088277 L-125.29738830683766,176.57935917584035Q-123.2942686938469,177.45013876575558 -123.2942686938469,177.45013876575558 Z"/>
      <path class="fairway-trap"
            d="M-108.35915827243036,-22.109867096260437Q-108.35915827243036,-22.109867096260437 -108.45149258466161,-20.167626972039063 L-108.49765974077722,-19.196506909928377Q-108.58999405300847,-17.254266785707003 -110.4396737597805,-16.421722488865505 L-111.36451361316652,-16.005450340444757Q-113.21419331993856,-15.172906043603259 -114.9715178852271,-16.005138807063737 L-115.85018016787137,-16.421255188793978Q-117.60750473315991,-17.253487952254456 -117.42269974072438,-19.380711315582356 L-117.33029724450662,-20.444322997246303Q-117.1454922520711,-22.571546360574203 -115.01837828753705,-23.774066596997354 L-113.95482130527002,-24.37532671520893Q-111.82770734073597,-25.577846951632083 -110.44028771341372,-24.190655009483425 L-109.74657789975261,-23.497059038409095Q-108.35915827243036,-22.109867096260437 -108.35915827243036,-22.109867096260437 Z"/>
      <path class="fairway-trap"
            d="M-123.04463053034098,-10.647871459801339Q-123.04463053034098,-10.647871459801339 -121.30100834485945,-10.135103550876876 L-120.4291972521187,-9.878719596414644Q-118.68557506663717,-9.365951687490181 -117.45474347354012,-7.417253122245335 L-116.83932767699159,-6.442903839622912Q-115.60849608389454,-4.494205274378066 -117.04436664306103,-2.8531164517902763 L-117.76230192264428,-2.0325720404963823Q-119.19817248181077,-0.39148321790859286 -121.04435537435454,-0.8016825138959911 L-121.96744682062642,-1.00678216188969Q-123.81362971317019,-1.4169814578770883 -124.42908765199743,-3.9810896376251943 L-124.73681662141105,-5.263143727499246Q-125.3522745602383,-7.827251907247352 -124.42921694827938,-8.955499728268947 L-123.9676881422999,-9.519623638779745Q-123.04463053034098,-10.647871459801339 -123.04463053034098,-10.647871459801339 Z"/>
      <path class="fairway-trap"
            d="M-120.47994750035747,10.890720598792749Q-120.47994750035747,10.890720598792749 -120.8901309753766,13.865120783019512 L-121.09522271288616,15.352320875132893Q-121.50540618790528,18.326721059359656 -123.76181558036987,19.04475199444223 L-124.89002027660217,19.40376746198352Q-127.14642966906676,20.121798397066094 -128.47980896582283,18.788498541304243 L-129.14649861420085,18.121848613423317Q-130.47987791095693,16.788548757661466 -130.68505726634658,14.942384868107503 L-130.7876469440414,14.019302923330521Q-130.99282629943104,12.173139033776557 -128.53130931580196,10.532013642402237 L-127.30055082398744,9.711450946715075Q-124.83903384035837,8.070325555340755 -123.09539930435801,9.198483572721553 L-122.22358203635783,9.76256258141195Q-120.47994750035747,10.890720598792749 -120.47994750035747,10.890720598792749 Z"/>
      <path class="fairway-trap"
            d="M-125.8641269339826,29.35260640263366Q-125.8641269339826,29.35260640263366 -125.76150331630012,31.60903298734725 L-125.71019150745887,32.73724627970404Q-125.60756788977639,34.993672864417626 -127.35114435182506,35.91681710116843 L-128.22293258284938,36.37838921954383Q-129.96650904489806,37.30153345629463 -131.71012881207633,36.58363939799978 L-132.58193869566549,36.22469236885237Q-134.32555846284376,35.50679831055752 -134.94103489755722,32.63500630170402 L-135.24877311491397,31.199110297277265Q-135.86424954962743,28.327318288423758 -133.60783785680192,27.404148010377156 L-132.47963201038914,26.942562871353857Q-130.22322031756363,26.019392593307256 -128.47958296413123,27.35267811703782 L-127.60776428741501,28.0193208789031Q-125.8641269339826,29.35260640263366 -125.8641269339826,29.35260640263366 Z"/>
      <path class="green"
            d="M-100.12739383099655,200.0167540476235Q-100.12739383099655,200.0167540476235 -97.62232261917246,203.81215640394836 L-96.3697870132604,205.70985758211083Q-93.86471580143632,209.5052599384357 -92.65007725565893,213.9838856510093 L-92.04275798277023,216.22319850729608Q-90.82811943699284,220.70182421986968 -92.8775370420803,225.4082704634662 L-93.90224584462405,227.7614935852645Q-95.95166344971152,232.46793982886103 -99.59520096452579,235.12487874074034 L-101.41696972193293,236.45334819667997Q-105.0605072367472,239.11028710855928 -109.23547237646301,238.80677854815997 L-111.32295494632092,238.6550242679603Q-115.49792008603673,238.351515707561 -118.76201706416889,236.83343504455888 L-120.39406555323498,236.07439471305784Q-123.65816253136714,234.55631405005573 -127.68131939714712,234.02508610065587 L-129.6928978300371,233.75947212595597Q-133.7160546958171,233.2282441765561 -137.13195095107085,232.54518250184879 L-138.83989907869773,232.2036516644951Q-142.25579533395148,231.5205899897878 -144.60900882135832,229.62294033975368 L-145.7856155650617,228.67411551473663Q-148.13882905246854,226.77646586470252 -148.51847602559127,223.05691429578627 L-148.70829951215262,221.19713851132815Q-149.08794648527535,217.4775869424119 -148.55667448655817,214.3652774901967 L-148.2910384871996,212.80912276408907Q-147.7597664884824,209.69681331187385 -144.57171081586864,205.90122036800707 L-142.97768297956176,204.00342389607368Q-139.789627306948,200.2078309522069 -136.6774251829286,198.3099826684663 L-135.12132412091887,197.361058526596Q-132.00912199689947,195.46321024285538 -129.65593627820866,196.1463151026872 L-128.47934341886327,196.48786753260313Q-126.12615770017246,197.17097239243495 -120.73662799301395,197.92989079798235 L-118.0418631394347,198.30935000075607Q-112.6523334322762,199.06826840630347 -107.64235759176434,199.44766266283148 L-105.13736967150841,199.6373597910955Q-100.12739383099655,200.0167540476235 -100.12739383099655,200.0167540476235 Z"/>
      <path class="trees"
            d="M-117.05258016786172,-46.05013084489024Q-117.05258016786172,-46.05013084489024 -117.73819505078086,-39.87818991394167 L-118.08100249224043,-36.79221944846738Q-118.76661737515957,-30.62027851751881 -122.19529947493604,-24.619695190957533 L-123.90964052482427,-21.619403527676894Q-127.33832262460074,-15.618820201115616 -128.70993337370976,-18.533285935355174 L-129.39573874826425,-19.990518802474956Q-130.76734949737326,-22.904984536714515 -127.33858330723729,-25.64817151786319 L-125.6242002121693,-27.01976500843753Q-122.19543402203333,-29.762951989586206 -124.08139848954897,-33.706056962832974 L-125.02438072330679,-35.677609449456355Q-126.91034519082244,-39.620714422703124 -125.36743626606743,-42.36384187276207 L-124.59598180368994,-43.73540559779155Q-123.05307287893493,-46.4785330478505 -120.65287579450565,-46.3071721666664 L-119.452777252291,-46.22149172607434Q-117.05258016786172,-46.05013084489024 -117.05258016786172,-46.05013084489024 Z"/>
      <path class="tree"
            d="M-87.34140232875694,-92.178310820349Q-87.34140232875694,-92.178310820349 -91.24032117969193,-90.22872924782777 L-93.18978060515943,-89.25393846156716Q-97.08869945609442,-87.30435688904593 -97.47868522892485,-91.20328876454913 L-97.67367811534005,-93.15275470230074Q-98.06366388817048,-97.05168657780393 -94.16475900348875,-99.78106464640763 L-92.21530656114788,-101.14575368070946Q-88.31640167646616,-103.87513174931316 -87.92640193738247,-99.19640337772749 L-87.73140206784063,-96.85703919193466Q-87.34140232875694,-92.178310820349 -87.34140232875694,-92.178310820349 Z"/>
      <path class="tree"
            d="M-156.47942294733897,119.82061793138702Q-156.47942294733897,119.82061793138702 -156.47934317910085,122.56366649452353 L-156.4793032949818,123.93519077609179Q-156.47922352674368,126.6782393392283 -157.6792424647738,128.56413002298865 L-158.27925193378888,129.5070753648688Q-159.479270871819,131.39296604862915 -161.19356438199512,134.65040324459807 L-162.05071113708314,136.27912184258253Q-163.76500464725925,139.53655903855145 -165.65079190139733,140.90815877125755 L-166.59368552846635,141.59395863761057Q-168.47947278260443,142.96555837031667 -169.8510615883899,140.39401004780746 L-170.53685599128266,139.10823588655285Q-171.90844479706814,136.53668756404363 -169.8511871971692,136.1937208464248 L-168.82255839721972,136.02223748761537Q-166.76530079732078,135.67927076999655 -166.07963637694846,132.59331488473936 L-165.7368041667623,131.05033694211073Q-165.05113974639,127.96438105685354 -163.50833027852423,123.16398569934117 L-162.73692554459137,120.763788020585Q-161.1941160767256,115.96339266307263 -159.30823882497094,117.50628277039839 L-158.36530019909364,118.27772782406126Q-156.47942294733897,119.82061793138702 -156.47942294733897,119.82061793138702 Z"/>
      <path class="tree"
            d="M-125.62333717426549,6.239927105053468Q-125.62333717426549,6.239927105053468 -127.85194501421705,11.040361767112133 L-128.96624893419283,13.440579098141464Q-131.1948567741444,18.24101376020013 -133.08075417909566,16.52666866235176 L-134.0237028815713,15.669496113427575Q-135.90960028652256,13.955151015579206 -136.25260414572466,9.497684939378818 L-136.42410607532568,7.268951901278626Q-136.76710993452778,2.8114858250782384 -133.16691960072473,-0.10314526018340064 L-131.36682443382318,-1.56046080281422Q-127.76663410002014,-4.475091888075859 -126.90931532971828,-0.1890842908241277 L-126.48065594456735,1.9539195078017366Q-125.62333717426549,6.239927105053468 -125.62333717426549,6.239927105053468 Z"/>
      <path class="tree"
            d="M-136.76640765646377,28.527683330725765Q-136.76640765646377,28.527683330725765 -137.96646935473424,29.384932118415417 L-138.56650020386948,29.813556512260245Q-139.76656190213996,30.670805299949897 -140.7952494989271,29.12787229224199 L-141.30959329732065,28.356405788388038Q-142.33828089410778,26.81347278068013 -139.59527911757877,24.927522654097537 L-138.2237782293143,23.98454759080624Q-135.48077645278528,22.098597464223648 -135.99502893425668,24.670231810824497 L-136.25215517499237,25.95604898412492Q-136.76640765646377,28.527683330725765 -136.76640765646377,28.527683330725765 Z"/>
      <path class="tree"
            d="M-134.6231775735375,36.67106342523181Q-134.6231775735375,36.67106342523181 -134.7945531273868,39.07124384796389 L-134.88024090431145,40.27133405932994Q-135.05161645816074,42.67151448206202 -136.93742413584818,44.04310884055548 L-137.8803279746919,44.72890601980222Q-139.76613565237935,46.10050037829568 -139.93763789771515,43.871774194749264 L-140.02338902038304,42.75741110297606Q-140.19489126571884,40.528684919429644 -137.9662057888463,38.98563632175051 L-136.85186305041003,38.21411202291094Q-134.6231775735375,36.67106342523181 -134.6231775735375,36.67106342523181 Z"/>
      <path class="tree"
            d="M-132.47983632965762,49.100458710517536Q-132.47983632965762,49.100458710517536 -133.50837642893012,52.8721946918102 L-134.0226464785664,54.758062682456526Q-135.0511865778389,58.52979866374919 -137.2798572478374,60.41572692339596 L-138.3941925828367,61.358691053219346Q-140.6228632528352,63.244619312866114 -140.96582935026913,60.158697086227654 L-141.1373123989861,58.615735972908425Q-141.48027849642003,55.529813746269966 -140.28024363061186,53.81536129444319 L-139.68022619770775,52.958135068529806Q-138.4801913318996,51.24368261670303 -136.0800493310028,50.38639305422883 L-134.8799783305544,49.957748272991736Q-132.47983632965762,49.100458710517536 -132.47983632965762,49.100458710517536 Z"/>
      <use xmlns:xlink="http://www.w3.org/1999/xlink" xlink:href="#Dogleg"
           x="-81.8849311055549"
           y="9.4893620088136 "/>
      <use xmlns:xlink="http://www.w3.org/1999/xlink" xlink:href="#TeeSet"
           x="132.04973137588496"
           y="-262.1513339296585"
           class="tees"
           transform="rotate(-152.27217037619346 132.04973137588496 -262.1513339296585)"/>
      <use xmlns:xlink="http://www.w3.org/1999/xlink" xlink:href="#Flag"
           x="-119.95803296068962"
           y="217.2867632086003"
           transform="rotate(-152.27217037619346 -119.95803296068962 217.2867632086003)"/>
      <g clip-path="url(#HoleContour)">
         <circle cx="132.04973137588496" cy="-262.1513339296585" r="188.06479711757302"
                 class="circle-from-tee"/>
         <circle cx="132.04973137588496" cy="-262.1513339296585" r="282.09719567635955"
                 class="circle-from-tee"/>
         <circle cx="132.04973137588496" cy="-262.1513339296585" r="376.12959423514604"
                 class="circle-from-tee"/>
         <circle cx="-119.95803296068962" cy="217.2867632086003" r="188.06479711757302"
                 class="circle-from-green"/>
         <circle cx="-119.95803296068962" cy="217.2867632086003" r="282.09719567635955"
                 class="circle-from-green"/>
         <circle cx="-119.95803296068962" cy="217.2867632086003" r="376.12959423514604"
                 class="circle-from-green"/>
      </g>
   </g>
   <rect x="470" y="400" rx="4" ry="4" width="110" height="180" class="info-background"/>
   <text x="525" y="420" class="info-hole" text-anchor="middle">
					Hole 4</text>
   <text x="525" y="440" class="info-par" text-anchor="middle">
					Par 4</text>
   <circle cx="485.625" cy="457.1875" r="5.625" style="fill:blue"/>
   <text x="496.875" y="460" class="info-length">300 meters</text>
   <use xmlns:xlink="http://www.w3.org/1999/xlink" xlink:href="#Compass" x="550" y="50"
        transform="rotate(152.27217037619346 550 50)"/>
   <use xmlns:xlink="http://www.w3.org/1999/xlink" xlink:href="#GolfMLLogoSmall" x="10"
        y="575"/>
</svg>