<?xml version="1.0" encoding="UTF-8"?>
<svg xmlns="http://www.w3.org/2000/svg" width="600" height="600">
   <defs>
      <style xmlns:g="http://code.google.com/p/golfml"
             xmlns:xlink="http://www.w3.org/1999/xlink"
             xmlns:xs="http://www.w3.org/2001/XMLSchema"
             type="text/css">
/* Stylesheet for SVG elements
 *
 *
 * Classes for area of interest (surfaces)
 *
 * DRAWING
 */
.background {
		fill: url(#background-gradient);
}

.hole-limits {
	fill: none;
	stroke: #ccc;
	stroke-width: 1px;
	stroke-dasharray: 10,10;
}

.hole-contour {
	fill: #030;
	stroke: #fff;
	stroke-width: 2px;
}


/* GROUND
 */
.fairway {
	fill: url(#fairway-pattern);
	stroke: #0b0;
	stroke-width: 3px; /* fairway fringe... */
}

.tee {
	fill: #00c800;
	stroke: #0f0;
	stroke-width: 1px;
}

.fringe {
	fill: #0A0;
}

.green {
	fill: url(#green-gradient);
	stroke: #0f0;
	stroke-width: 1px;
}

.semi-rough,
.light-rough {
	fill: #080;
	stroke: #08800D;
	stroke-width: 1px;
}

.rough {
	fill: url(#rough-gradient);
	stroke: #07660A;
	stroke-width: 1px;
}

.heavy-rough {
	fill: #040;
	stroke: #074D08;
	stroke-width: 1px;
}

.ground {
	fill: #7f400c;
	stroke: #fdcc6a;
	stroke-width: 1px;
}


/* WATER
 */
.lateral-water {
	fill: url(#lateral-water-gradient);
	stroke: red;
	stroke-width: 4px;
}

.front-water, .water {
	fill: #37f;
	stroke: yellow;
	stroke-width: 3px;
}


/* SPECIAL
 */
.under-repair {
	fill: none;
	stroke: #00d;
	stroke-width: 2px;
}

.out-of-bound { /* line only */
	fill: none;
	stroke: white;
	stroke-width: 4px;
}

.out-of-bound-area {
	fill: #ccc;
	stroke: white;
	stroke-width: 4px;
}


/* TRAPS
 */
.trap,
.bunker {
	fill: #92cf94;
	stroke: #4c994c;
	stroke-width: 1px;
}

.grass-trap,
.grass-bunker {
	fill: #050;
	stroke: #0A0;
	stroke-width: 1px;
}

.sand-trap,
.sand-bunker,
.greenside-trap,
.greenside-bunker {
	fill: #eec;
	stroke: #040;
	stroke-width: 2px;
}

.fairway-trap,
.fairway-bunker {
	fill: #eec;
	stroke: #030;
	stroke-width: 2px;
}


/* OBSTACLES
 */
.tree {
	fill: #062;
	stroke: #0c6;
	stroke-width: 1px;
}

.trees {
	fill: #062;
	stroke: #0c6;
	stroke-width: 1px;
}

.bush {
	fill: #00b259;
	stroke: #7f400c;
	stroke-width: 1px;
}


.path {
	fill: #666;
	stroke: #bbb;
	stroke-width: 1px;
}

.building,
.construction {
	fill: #fdcc6a;
	stroke: #7f400C;
	stroke-width: 1px;
}

.obstruction {
	fill: #555;
	stroke: #999;
	stroke-width: 1px;
}


.other {
	fill: #ddd;
	stroke: #666;
	stroke-width: 1px;
}

/* Classes for point of interest (points)
 *
 */
.dogleg {
	fill: #000;
}

.aim {
	fill: #fff;
	stroke: #f00;
	stroke-width: 1px;
}

.tees {
	fill: #00f;
}

.tees-hollow {
	stroke: #fff;
	stroke-width: 0.5px;
}

.hole {
	fill: #fff;
}

.distance-marker-100,
.distance-marker-close {
	fill: #44f;
	stroke: #00f;
	stroke-width: 1px;
}

.distance-marker-150,
.distance-marker-135,
.distance-marker,
.distance-marker-mid {
	fill: #f44;
	stroke: #f00;
	stroke-width: 1px;
}

.distance-marker-200,
.distance-marker-far {
	fill: #dd4;
	stroke: #ff0;
	stroke-width: 1px;
}

.green-region-delimiter {
	fill: none;
	stroke: #fff;
	stroke-width: 0.5;
	stroke-dasharray: 4,2;
}

.neutral {
	fill: none;
	stroke: #888;
	stroke-width: 1px;
}
.one-tree {
	fill: #14920D;
	stroke: #165822;
	stroke-width: 3px;
	stroke-linecap: round;
	stroke-linejoin: round; 
}

/* Classes for special decorative objects
 *
 */
.compass-center {
	fill: #ddd;
	stroke: #fff;
	stroke-width: 1px;
}
.compass-needle {
	fill: #ddd;
	stroke: #fff;
	stroke-width: 1px;
}
.compass-north {
	fill: #fff;
}
.flag-pole {
	fill: none;
	stroke: #f00;
	stroke-width: 2px;
}
.flag-flag {
	fill: #ff0;
	stroke: #f00;
	stroke-width: 1px;
}
.flag-cup {
	fill: #fff;
}
/* Information box */
.info-background {
	fill: #ddd;
}
.info-hole {
	font-family: Georgia, "Times New Roman", Times, serif;
	font-size: xx-large;
}
.info-par {
	font-family: Georgia, "Times New Roman", Times, serif;
	font-size: x-large;
}
.info-length {
	font-family: Georgia, "Times New Roman", Times, serif;
	font-size: large;
}
/* Circle for distances */
.circle-from-green {
	fill: none;
	stroke: #fff;
	stroke-width: 1px;
	stroke-dasharray: 4,4;
}
.circle-from-tee {
	fill: none;
	stroke: #f00;
	stroke-width: 1px;
	stroke-dasharray: 8,8;
}
/* Dynamic objects */
.target {
	fill: none;
	stroke: #f00;
	stroke-width: 2px;
}
.target-filled {
	fill: #f00;
	fill-opacity: 0.5;
	stroke: #f00;
}
.ball {
	fill: #fff;
	stroke: none;
}
.trajectory {
	fill: none;
	stroke: #fff;
	stroke-width: 2px;
}
.distance {
	fill: #fff;
}
</style>
      <linearGradient xmlns:g="http://code.google.com/p/golfml"
                      xmlns:xlink="http://www.w3.org/1999/xlink"
                      xmlns:xs="http://www.w3.org/2001/XMLSchema"
                      id="background-straight">
         <stop offset="5%" stop-color="#002"/>
         <stop offset="95%" stop-color="#004"/>
      </linearGradient>
      <linearGradient xmlns:g="http://code.google.com/p/golfml"
                      xmlns:xlink="http://www.w3.org/1999/xlink"
                      xmlns:xs="http://www.w3.org/2001/XMLSchema"
                      id="background-gradient"
                      gradientTransform="rotate(30)"
                      xlink:href="#background-straight"/>
      <linearGradient xmlns:g="http://code.google.com/p/golfml"
                      xmlns:xlink="http://www.w3.org/1999/xlink"
                      xmlns:xs="http://www.w3.org/2001/XMLSchema"
                      id="lateral-water-straight">
         <stop offset="5%" stop-color="#006"/>
         <stop offset="95%" stop-color="#008"/>
      </linearGradient>
      <linearGradient xmlns:g="http://code.google.com/p/golfml"
                      xmlns:xlink="http://www.w3.org/1999/xlink"
                      xmlns:xs="http://www.w3.org/2001/XMLSchema"
                      id="lateral-water-gradient"
                      gradientTransform="rotate(60)"
                      xlink:href="#lateral-water-straight"/>
      <linearGradient xmlns:g="http://code.google.com/p/golfml"
                      xmlns:xlink="http://www.w3.org/1999/xlink"
                      xmlns:xs="http://www.w3.org/2001/XMLSchema"
                      id="rough-straight">
         <stop offset="0%" stop-color="#030"/>
         <stop offset="25%" stop-color="#060"/>
         <stop offset="50%" stop-color="#040"/>
         <stop offset="75%" stop-color="#060"/>
         <stop offset="100%" stop-color="#080"/>
      </linearGradient>
      <linearGradient xmlns:g="http://code.google.com/p/golfml"
                      xmlns:xlink="http://www.w3.org/1999/xlink"
                      xmlns:xs="http://www.w3.org/2001/XMLSchema"
                      id="rough-gradient"
                      gradientTransform="rotate(70)"
                      xlink:href="#rough-straight"/>
      <linearGradient xmlns:g="http://code.google.com/p/golfml"
                      xmlns:xlink="http://www.w3.org/1999/xlink"
                      xmlns:xs="http://www.w3.org/2001/XMLSchema"
                      id="green-straight">
         <stop offset="0%" stop-color="#0d0"/>
         <stop offset="25%" stop-color="#0e0"/>
         <stop offset="50%" stop-color="#0c0"/>
         <stop offset="75%" stop-color="#0e0"/>
         <stop offset="100%" stop-color="#0b0"/>
      </linearGradient>
      <linearGradient xmlns:g="http://code.google.com/p/golfml"
                      xmlns:xlink="http://www.w3.org/1999/xlink"
                      xmlns:xs="http://www.w3.org/2001/XMLSchema"
                      id="green-gradient"
                      gradientTransform="rotate(75)"
                      xlink:href="#green-straight"/>
      <pattern xmlns:g="http://code.google.com/p/golfml"
               xmlns:xlink="http://www.w3.org/1999/xlink"
               xmlns:xs="http://www.w3.org/2001/XMLSchema"
               id="fairway-straight"
               patternUnits="userSpaceOnUse"
               x="0"
               y="0"
               width="20"
               height="20"
               viewBox="0 0 20 20">
         <rect x="0" y="0" width="10" height="10" fill="#00c000"/>
         <rect x="10" y="10" width="10" height="10" fill="#00c800"/>
         <rect x="10" y="0" width="10" height="10" fill="#00bc00"/>
         <rect x="0" y="10" width="10" height="10" fill="#00b800"/>
      </pattern>
      <pattern xmlns:g="http://code.google.com/p/golfml"
               xmlns:xlink="http://www.w3.org/1999/xlink"
               xmlns:xs="http://www.w3.org/2001/XMLSchema"
               id="fairway-pattern"
               patternTransform="rotate(60)"
               xlink:href="#fairway-straight"/>
      <g xmlns:g="http://code.google.com/p/golfml"
         xmlns:xlink="http://www.w3.org/1999/xlink"
         xmlns:xs="http://www.w3.org/2001/XMLSchema"
         id="Tree"
         transform="translate(-76 -66) scale(0.4)">
         <path class="one-tree"
               d="M191.991,126.799c-11.163,0-21.022,4.032-27.033,10.191c-17.556,0.615-31.556,11.151-31.556,24.079       c0,7.537,4.759,14.266,12.203,18.693c0.876,12.855,18.43,23.128,39.939,23.128c22.07,0,39.979-10.812,39.979-24.136       c0-0.065-0.012-0.13-0.013-0.195c6.33-2.866,10.33-6.992,10.33-11.595c0-4.806-4.343-9.104-11.164-11.977       c0.31-1.318,0.478-2.67,0.478-4.054C225.154,137.612,210.297,126.799,191.991,126.799z"/>
      </g>
      <g xmlns:g="http://code.google.com/p/golfml"
         xmlns:xlink="http://www.w3.org/1999/xlink"
         xmlns:xs="http://www.w3.org/2001/XMLSchema"
         id="TeeSet">
         <circle cx="-5" cy="0" r="2"/>
         <circle cx="5" cy="0" r="2"/>
      </g>
      <g xmlns:g="http://code.google.com/p/golfml"
         xmlns:xlink="http://www.w3.org/1999/xlink"
         xmlns:xs="http://www.w3.org/2001/XMLSchema"
         id="DistanceMarker">
         <circle r="6"/>
      </g>
      <g xmlns:g="http://code.google.com/p/golfml"
         xmlns:xlink="http://www.w3.org/1999/xlink"
         xmlns:xs="http://www.w3.org/2001/XMLSchema"
         id="Dogleg">
         <circle r="4"/>
      </g>
      <g xmlns:g="http://code.google.com/p/golfml"
         xmlns:xlink="http://www.w3.org/1999/xlink"
         xmlns:xs="http://www.w3.org/2001/XMLSchema"
         id="Aim">
         <circle r="4"/>
      </g>
      <g xmlns:g="http://code.google.com/p/golfml"
         xmlns:xlink="http://www.w3.org/1999/xlink"
         xmlns:xs="http://www.w3.org/2001/XMLSchema"
         id="Hole">
         <circle r="2"/>
      </g>
      <g xmlns:g="http://code.google.com/p/golfml"
         xmlns:xlink="http://www.w3.org/1999/xlink"
         xmlns:xs="http://www.w3.org/2001/XMLSchema"
         id="Ball">
         <image xlink:href="../stylesheets/images/golf-ball.png" width="16" height="16"
                transform="translate(-8 -8)"/>
      </g>
      <g xmlns:g="http://code.google.com/p/golfml"
         xmlns:xlink="http://www.w3.org/1999/xlink"
         xmlns:xs="http://www.w3.org/2001/XMLSchema"
         id="Target">
         <circle class="target-filled" r="12"/>
      </g>
      <g xmlns:g="http://code.google.com/p/golfml"
         xmlns:xlink="http://www.w3.org/1999/xlink"
         xmlns:xs="http://www.w3.org/2001/XMLSchema"
         id="Flag"
         transform="translate(0 -30) scale(-0.2 0.2)">
         <line id="FlagPole" class="flag-pole" x1="0.5" y1="0" x2="0.5" y2="150"/>
         <circle id="FlagCup" class="flag-cup" r="10" cx="0" cy="145"/>
         <g id="FlagFlag">
            <path class="flag-flag"
                  d="M55.339,45.968c-18.28-14.516-36.559,14.516-54.839,0c0-12.097,0-24.193,0-36.29        c18.28,14.516,36.559-14.516,54.839,0C55.339,21.774,55.339,33.871,55.339,45.968z"/>
         </g>
      </g>
      <g xmlns:g="http://code.google.com/p/golfml"
         xmlns:xlink="http://www.w3.org/1999/xlink"
         xmlns:xs="http://www.w3.org/2001/XMLSchema"
         id="Compass">
         <polygon id="CompassNeedle" class="compass-needle" points="0,30 -8,0 0,-20 8,0"/>
         <circle id="CompassCenter" class="compass-center" r="10"/>
         <text id="CompassNorth" class="compass-north" x="-4.7" y="40">N</text>
      </g>
      <g xmlns:g="http://code.google.com/p/golfml"
         xmlns:xlink="http://www.w3.org/1999/xlink"
         xmlns:xs="http://www.w3.org/2001/XMLSchema"
         id="GolfMLLogoSmall">
         <image xlink:href="../stylesheets/images/golfml-small.png" width="80" height="15"/>
      </g>
   </defs>
   <rect class="background" x="0" y="0" width="600" height="600"/>
   <g transform="translate(300,300) scale(-0.8078114375450571,0.8078114375450571) rotate(36.11734922592555)">
      <path class="hole-contour"
            d="M215.84341324974622,281.0163268493396Q215.84341324974622,281.0163268493396 215.8436577246981,286.29846089717813 L215.843779962174,288.93952792109735Q215.84402443712588,294.2216619689359 210.56210212935716,296.5327279521359 L207.92114097547278,297.6882609437358Q202.63921866770406,299.9993269269358 198.34756103877115,299.66930782967114 L196.2017322243047,299.50429828103876Q191.91007459537178,299.1742791837741 191.24967571311447,296.2030950407494 L190.91947627198581,294.7175029692371Q190.2590773897285,291.7463188262124 165.4982914571886,266.9871742647939 L153.11789849091866,254.60760198408465Q128.3571125583788,229.84845742266614 83.78742434276386,190.564959978698 L61.5025802349564,170.92321125671396Q16.932892019341462,131.6397138127458 -21.365258213588252,91.03600567439005 L-40.514333330053105,70.73415160521219Q-78.81248356298282,30.130443466856438 -132.63405271667617,-71.87743438522779 L-159.54483729352285,-122.88137331126987Q-213.3664064472162,-224.8892511633541 -214.3574536323816,-231.16187495136765 L-214.8529772249643,-234.29818684537443Q-215.8440244101297,-240.570810633388 -209.24198308057208,-250.1456320329594 L-205.9409624157933,-254.93304273274515Q-199.3389210862357,-264.50786413231657 -194.05722174185695,-271.7715576890477 L-191.4163720696676,-275.4034044674132Q-186.13467272528885,-282.66709802414437 -180.52278088135435,-289.600682821949 L-177.71683495938709,-293.06747522085135Q-172.10494311545258,-300.001060018656 -149.65286567419102,-276.89289525874017 L-138.42682695356024,-265.3388128787822Q-115.97474951229869,-242.23064811886636 -80.6447086120516,-178.84650288778226 L-62.97968816192807,-147.15443027224023Q-27.649647261680983,-83.77028504115617 -6.849484248227476,-60.99225204275791 L3.550597258499277,-49.60323554355878Q24.350760271952783,-26.825202545160522 62.319159933673305,25.00389984106299 L81.30335976453357,50.91845103417475Q119.27175942625409,102.74755342039826 157.90042095565093,174.0550627919748 L177.21475172034937,209.70881747776303Q215.84341324974622,281.0163268493396 215.84341324974622,281.0163268493396 Z"/>
      <clipPath id="HoleContour" transform="scale(1.2)">
         <path class="hole-contour"
               d="M215.84341324974622,281.0163268493396Q215.84341324974622,281.0163268493396 215.8436577246981,286.29846089717813 L215.843779962174,288.93952792109735Q215.84402443712588,294.2216619689359 210.56210212935716,296.5327279521359 L207.92114097547278,297.6882609437358Q202.63921866770406,299.9993269269358 198.34756103877115,299.66930782967114 L196.2017322243047,299.50429828103876Q191.91007459537178,299.1742791837741 191.24967571311447,296.2030950407494 L190.91947627198581,294.7175029692371Q190.2590773897285,291.7463188262124 165.4982914571886,266.9871742647939 L153.11789849091866,254.60760198408465Q128.3571125583788,229.84845742266614 83.78742434276386,190.564959978698 L61.5025802349564,170.92321125671396Q16.932892019341462,131.6397138127458 -21.365258213588252,91.03600567439005 L-40.514333330053105,70.73415160521219Q-78.81248356298282,30.130443466856438 -132.63405271667617,-71.87743438522779 L-159.54483729352285,-122.88137331126987Q-213.3664064472162,-224.8892511633541 -214.3574536323816,-231.16187495136765 L-214.8529772249643,-234.29818684537443Q-215.8440244101297,-240.570810633388 -209.24198308057208,-250.1456320329594 L-205.9409624157933,-254.93304273274515Q-199.3389210862357,-264.50786413231657 -194.05722174185695,-271.7715576890477 L-191.4163720696676,-275.4034044674132Q-186.13467272528885,-282.66709802414437 -180.52278088135435,-289.600682821949 L-177.71683495938709,-293.06747522085135Q-172.10494311545258,-300.001060018656 -149.65286567419102,-276.89289525874017 L-138.42682695356024,-265.3388128787822Q-115.97474951229869,-242.23064811886636 -80.6447086120516,-178.84650288778226 L-62.97968816192807,-147.15443027224023Q-27.649647261680983,-83.77028504115617 -6.849484248227476,-60.99225204275791 L3.550597258499277,-49.60323554355878Q24.350760271952783,-26.825202545160522 62.319159933673305,25.00389984106299 L81.30335976453357,50.91845103417475Q119.27175942625409,102.74755342039826 157.90042095565093,174.0550627919748 L177.21475172034937,209.70881747776303Q215.84341324974622,281.0163268493396 215.84341324974622,281.0163268493396 Z"/>
      </clipPath>
      <path class="water"
            d="M-95.5743212492519,-192.8866603701725Q-95.5743212492519,-192.8866603701725 -96.45725771299509,-189.88384942819818 L-96.89872594486667,-188.382443957211Q-97.78166240860986,-185.37963301523666 -101.84426565374979,-185.73255261000565 L-103.87556727631974,-185.90901240739015Q-107.93817052145967,-186.26193200215914 -112.00080374531152,-186.96810802056854 L-114.03212035723743,-187.32119602977323Q-118.09475358108928,-188.02737204818263 -120.56781487689605,-190.3233658907232 L-121.80434552479944,-191.4713628119935Q-124.27740682060622,-193.76735665453407 -126.39716496629939,-195.71011079997544 L-127.45704403914598,-196.68148787269615Q-129.57680218483915,-198.62424201813752 -126.39756701882521,-200.74411116345692 L-124.80794943581826,-201.8040457361166Q-121.62871426980432,-203.923914881436 -118.80263707351575,-204.8073197197779 L-117.38959847537146,-205.24902213894882Q-114.56352127908289,-206.13242697729072 -112.7971090353387,-205.24942049736748 L-111.91390291346661,-204.80791725740585Q-110.14749066972243,-203.9249107774826 -109.61742140302631,-201.80537566261555 L-109.35238676967826,-200.74560810518201Q-108.82231750298214,-198.62607299031495 -105.99622772085343,-199.33284066543902 L-104.58318282978905,-199.68622450300109Q-101.75709304766033,-200.39299217812516 -99.28398432829695,-197.3904594549441 L-98.04742996861528,-195.88919309335355Q-95.5743212492519,-192.8866603701725 -95.5743212492519,-192.8866603701725 Z"/>
      <path class="water"
            d="M-179.03326852232175,-185.37225586274445Q-179.03326852232175,-185.37225586274445 -175.85379240174188,-184.6660386316862 L-174.26405434145192,-184.3129300161571Q-171.08457822087206,-183.60671278509886 -171.2609514317416,-180.60395795324672 L-171.3491380371764,-179.10258053732065Q-171.52551124804594,-176.0998257054685 -173.64496646400698,-174.33330370826553 L-174.70469407198752,-173.45004270966402Q-176.82414928794856,-171.68352071246105 -179.4736898244978,-172.03652375063191 L-180.7984600927724,-172.21302526971735Q-183.44800062932163,-172.56602830788822 -183.62493161236313,-175.92201229169626 L-183.7133971038839,-177.6000042836003Q-183.8903280869254,-180.95598826740834 -184.59704968526634,-183.07549836701995 L-184.95041048443684,-184.13525341682575Q-185.6571320827778,-186.25476351643735 -188.13015627826607,-187.8442037932367 L-189.36666837601018,-188.63892393163633Q-191.83969257149846,-190.22836420843566 -192.89984597594648,-194.11415942205838 L-193.4299226781705,-196.0570570288697Q-194.49007608261851,-199.94285224249242 -193.0771724726265,-201.8859456318597 L-192.3707206676305,-202.8574923265433Q-190.9578170576385,-204.8005857159106 -188.83823040268942,-205.15405994369365 L-187.7784370752149,-205.33079705758522Q-185.65885042026582,-205.68427128536828 -183.89228537908477,-203.2115977751269 L-183.00900285849426,-201.9752610200062Q-181.2424378173132,-199.50258750976482 -180.3590482837373,-197.02982816484902 L-179.9173535169494,-195.7934484923911Q-179.0339639833735,-193.3206891474753 -179.0336857989528,-190.14131583358295 L-179.03354670674244,-188.5516291766368Q-179.03326852232175,-185.37225586274445 -179.03326852232175,-185.37225586274445 Z"/>
      <path class="tee"
            d="M207.54114430782127,288.4621297446528Q207.54114430782127,288.4621297446528 206.88535530033684,290.75782204308825 L206.5574607965946,291.90566819230594Q205.90167178911017,294.20136049074137 203.60604450539952,294.0921067919913 L202.45823086354423,294.0374799426163Q200.1626035798336,293.9282262438662 189.77703769350484,281.02906097255794 L184.58425475034048,274.57947833690383Q174.19868886401173,261.68031306559556 177.0407762823384,259.165912813834 L178.46181999150173,257.90871268795314Q181.3039074098284,255.39431243619157 191.79880216902555,268.6214393595761 L197.04624954862413,275.2350028212683Q207.54114430782127,288.4621297446528 207.54114430782127,288.4621297446528 Z"/>
      <path class="fairway"
            d="M78.55703045896014,104.21252065433232Q78.55703045896014,104.21252065433232 77.29818986305972,108.55829752915291 L76.66876956510951,110.73118596656322Q75.40992896920909,115.0769628413838 72.46134394295349,118.48200693251879 L70.9870514298257,120.18452897808629Q68.0384664035701,123.58957306922127 63.534131425506224,124.87815240709114 L61.28196393647429,125.52244207602605Q56.77762895841042,126.81102141389592 52.57212136481224,124.63375688649327 L50.46936756801315,123.54512462279195Q46.26385997441497,121.3678600953893 41.708487207540415,116.66388557527223 L39.43080082410314,114.31189831521371Q34.87542805722858,109.60792379509664 32.13625760805789,104.30346292329035 L30.766672383472542,101.65123248738722Q28.02750193430185,96.34677161558093 23.628752607105852,90.9696335952555 L21.42937794350786,88.28106458509278Q17.030628616311862,82.90392656476735 12.661466412546988,78.75387645203288 L10.476885310664553,76.67885139566566Q6.107723106899678,72.5288012829312 0.6131662966955114,67.27219622341929 L-2.13411210840657,64.64389369366333Q-7.628668918610736,59.38728863415142 -10.743445332904214,51.399944117996 L-12.300833540050952,47.40627185991829Q-15.415609954344431,39.418927343762874 -23.96679845992833,34.63784839894073 L-28.24239271272028,32.247308926529655Q-36.79358121830418,27.466229981707514 -41.11964623838508,22.067807065397965 L-43.282678748425525,19.368595607243186Q-47.60874376850642,13.970172690933637 -48.020942810007696,9.296154591100727 L-48.22704233075833,6.959145541184272Q-48.639241372259605,2.2851274413513623 -47.9439134010452,-1.1125068146244788 L-47.596249415437995,-2.811323942612399Q-46.90092144422359,-6.20895819858824 -47.49384593418,-8.534506604911007 L-47.7903081791582,-9.697280808072389Q-48.38323266911461,-12.022829214395156 -50.604835874364944,-16.20074150587995 L-51.71563747699011,-18.289697651622344Q-53.93724068224044,-22.46760994310714 -58.928013420508606,-21.932097393255713 L-61.42339978964269,-21.664341118329997Q-66.41417252791085,-21.12882856847857 -73.33451922582492,-33.95234512810522 L-76.79469257478196,-40.36410340791854Q-83.71503927269603,-53.18761996754519 -90.06753314787382,-59.960361964651696 L-93.2437800854627,-63.34673296320494Q-99.59627396064049,-70.11947496031145 -106.55319654892237,-82.06162109137442 L-110.0316578430633,-88.03269415690589Q-116.98858043134518,-99.97484028796886 -122.4755630183429,-109.10029520407686 L-125.21905431184176,-113.66302266213087Q-130.70603689883947,-122.78847757823887 -137.73808873022668,-132.29683805154488 L-141.25411464592025,-137.0510182881979Q-148.28616647730746,-146.5593787615039 -153.50938980246468,-152.6743853785656 L-156.12100146504332,-155.73188868709647Q-161.34422479020054,-161.84689530415818 -163.6666046029391,-166.76508132574162 L-164.82779450930838,-169.22417433653334Q-167.15017432204692,-174.14236035811678 -168.10421733843754,-178.48296081494135 L-168.58123884663283,-180.6532610433536Q-169.53528186302344,-184.99386150017818 -175.86562038546055,-193.51369267059926 L-179.03078964667907,-197.7736082558098Q-185.36112816911617,-206.29343942623086 -186.92371711127254,-212.41176866833283 L-187.70501158235072,-215.4709332893838Q-189.2676005245071,-221.58926253148576 -185.78161434603163,-227.82703954471816 L-184.0386212567939,-230.94592805133433Q-180.55263507831845,-237.18370506456674 -175.4039205003927,-238.25933046252024 L-172.82956321142984,-238.797143161497Q-167.6808486335041,-239.8727685594505 -162.81187954969678,-239.64363101468328 L-160.3773950077931,-239.5290622422997Q-155.50842592398578,-239.29992469753248 -150.62592007111175,-236.40163058621377 L-148.1846671446747,-234.9524835305544Q-143.30216129180067,-232.05418941923568 -137.14130459278687,-227.19823078789594 L-134.06087624327995,-224.77025147222605Q-127.90001954426614,-219.9142928408863 -128.06752359477062,-215.4943073595681 L-128.15127562002283,-213.284314618909Q-128.3187796705273,-208.8643291375908 -131.08414135923556,-205.79072848576908 L-132.46682220358966,-204.2539281598582Q-135.2321838922979,-201.18032750803647 -137.22856636016348,-197.0438158179866 L-138.22675759409628,-194.97555997296166Q-140.22314006196186,-190.8390482829118 -136.3289686649766,-187.91387664895714 L-134.38188296648394,-186.4512908319798Q-130.48771156949869,-183.52611919802516 -123.7150001765425,-176.59359763990042 L-120.32864448006441,-173.12733686083803Q-113.55593308710823,-166.1948153027133 -108.53803111114826,-157.37571216816426 L-106.02908012316826,-152.96616060088976Q-101.01117814720828,-144.14705746634073 -92.16910667798128,-126.75771816835729 L-87.74807094336778,-118.06304851936557Q-78.90599947414077,-100.67370922138213 -67.08944788493594,-86.18163452066074 L-61.181172090333526,-78.93559717030004Q-49.3646205011287,-64.44352246957865 -34.8453723188284,-45.567120265679236 L-27.585748227678256,-36.128919163729535Q-13.066500045377959,-17.252516959830118 -2.991317965525676,-3.327093044174605 L2.0462730744004656,3.6356189136531523Q12.121455154252748,17.561042829308665 27.882883811487517,34.80652441608238 L35.763598140104904,43.429265209469236Q51.52502679733967,60.67474679624295 62.33782826198786,78.0898563394787 L67.74422899431195,86.79741111109658Q78.55703045896014,104.21252065433232 78.55703045896014,104.21252065433232 Z"/>
      <path class="path"
            d="M197.00151277126062,256.8711956529164Q197.00151277126062,256.8711956529164 195.8734797041501,253.6285108602004 L195.30946317059482,252.0071684638424Q194.1814301034843,248.76448367112638 192.91260756300247,249.7514355560362 L192.27819629276152,250.24491149849112Q191.00937375227969,251.23186338340093 189.59960458530807,253.06474765682907 L188.89472000182226,253.9811897935431Q187.48495083485065,255.81407406697124 186.779957481592,254.40421668391195 L186.42746080496266,253.6992879923823Q185.722467451704,252.289430609323 186.70928728962627,250.59754758441548 L187.2026972085874,249.7516060719617Q188.18951704650968,248.05972304705418 187.76646597660482,246.08590549574924 L187.55494044165238,245.09899672009675Q187.13188937174752,243.12517916879182 185.15800688164686,241.29240147001696 L184.17106563659655,240.37601262062952Q182.1971831464959,238.54323492185466 172.04569066157393,227.68753010209707 L166.96994441911295,222.2596776922183Q156.818451934191,211.4039728724607 145.11607983157327,200.68937467179813 L139.26489378026443,195.33207557146682Q127.56252167764671,184.61747737080424 128.69032961959596,183.0665630854773 L129.25423359057058,182.29110594281386Q130.38204153251982,180.74019165748692 142.50737989441657,191.59576936927732 L148.57004907536498,197.0235582251725Q160.69538743726173,207.8791359369629 170.7058765078999,218.3118895994157 L175.71112104321898,223.52826643064208Q185.72161011385714,233.96102009309487 191.64337488629175,241.99715100612343 L194.60425727250907,246.01521646263774Q200.5260220449437,254.0513473756663 199.11621833547045,255.17928668656634 L198.41131648073386,255.74325634201637Q197.00151277126062,256.8711956529164 197.00151277126062,256.8711956529164 Z"/>
      <path class="fairway-trap"
            d="M-61.372391704581005,-19.053232122590824Q-61.372391704581005,-19.053232122590824 -59.541863915555716,-18.98296829840459 L-58.626600021043075,-18.94783638631147Q-56.796072232017785,-18.877572562125234 -54.8246645126036,-17.821652586946765 L-53.8389606528965,-17.29369259935753Q-51.867552933482315,-16.237772624179062 -51.09294954550358,-14.125693494961038 L-50.705647851514215,-13.069653930352027Q-49.93104446353548,-10.957574801134003 -49.43806503837756,-8.915879261875732 L-49.1915753257986,-7.895031492246597Q-48.69859590064068,-5.853335952988325 -48.69842896547147,-3.529986468384515 L-48.69834549788686,-2.36831172608261Q-48.69817856271765,-0.044962241478799646 -49.96535859191108,1.3632236951065497 L-50.59894860650778,2.067316663399224Q-51.86612863570121,3.4755025999845732 -53.344746209866635,1.7859062561415968 L-54.084054996949355,0.9411080842201085Q-55.56267257111478,-0.7484882596228679 -56.97093855754646,-3.1421351025916797 L-57.6750715507623,-4.3389585240760855Q-59.08333753719398,-6.732605367044898 -60.42125286172918,-9.83030395745278 L-61.09021052399679,-11.379153252656721Q-62.42812584853199,-14.476851843064605 -62.005832190951594,-16.30740395487509 L-61.7946853621614,-17.222680010780337Q-61.372391704581005,-19.053232122590824 -61.372391704581005,-19.053232122590824 Z"/>
      <path class="green"
            d="M-140.78522725934369,-197.46472229041365Q-140.78522725934369,-197.46472229041365 -142.59427872886496,-195.20303780656465 L-143.49880446362562,-194.07219556464014Q-145.3078559331469,-191.81051108079114 -143.95068568976254,-188.87066408690288 L-143.27210056807033,-187.40074058995876Q-141.91493032468597,-184.4608935960705 -148.09621418467214,-181.2188096577286 L-151.18685611466523,-179.59776768855767Q-157.3681399746514,-176.35568375021577 -159.2530013006225,-179.2200915599796 L-160.195431963608,-180.65229546486154Q-162.0802932895791,-183.51670327462537 -164.34203788934298,-185.85338688875822 L-165.47291018922493,-187.02172869582466Q-167.73465478898882,-189.35841230995752 -170.59952129972427,-192.14733929225744 L-172.031954555092,-193.54180278340738Q-174.89682106582745,-196.3307297657073 -175.34934596145814,-198.8183562213629 L-175.57560840927346,-200.06216944919072Q-176.02813330490415,-202.54979590484632 -177.76215288745306,-204.43422522373115 L-178.62916267872754,-205.37643988317353Q-180.36318226127645,-207.26086920205836 -180.51429425655851,-211.18082358676085 L-180.58985025419952,-213.1408007791121Q-180.74096224948158,-217.0607551638146 -180.51510933457647,-220.52844519874688 L-180.40218287712392,-222.262290216213Q-180.1763299622188,-225.72998025114526 -177.3119241905091,-228.4440892072754 L-175.87972130465423,-229.80114368534046Q-173.01531553294453,-232.5152526414706 -169.547695181249,-233.72173336777885 L-167.8138850054012,-234.32497373093295Q-164.34626465370567,-235.5314544572412 -160.6523210445557,-234.7779637571259 L-158.80534923998067,-234.40121840706823Q-155.1114056308307,-233.6477277069529 -152.24663935810761,-232.1403127432068 L-150.8142562217461,-231.38660526133373Q-147.94948994902302,-229.87919029758763 -145.46153495185845,-226.93944065429525 L-144.21755745327619,-225.4695658326491Q-141.72960245611162,-222.52981618935672 -140.67396893537162,-219.58993518327298 L-140.14615217500162,-218.11999468023114Q-139.09051865426161,-215.1801136741474 -139.39168162753506,-210.58166209185876 L-139.54226311417182,-208.2824363007144Q-139.84342608744527,-203.68398471842576 -140.22014655620464,-201.19627974722093 L-140.4085067905843,-199.95242726161848Q-140.78522725934369,-197.46472229041365 -140.78522725934369,-197.46472229041365 Z"/>
      <path class="tree"
            d="M121.85074650722775,105.46727472969233Q121.85074650722775,105.46727472969233 115.91706188079675,106.30723464332573 L112.95021956758124,106.72721460014242Q107.01653494115024,107.56717451377581 106.27360487211683,103.68183370186675 L105.90213983760013,101.73916329591222Q105.15920976856673,97.85382248400316 104.7098370368833,94.13351110538835 L104.48515067104158,92.27335541608093Q104.03577793935816,88.55304403746612 99.86553872606876,85.15483066688711 L97.78041911942408,83.45572398159761Q93.61017990613469,80.0575106110186 83.6464386012335,65.48213451409308 L78.66456794878292,58.19444646563032Q68.70082664388173,43.619070368704804 62.5293726715608,39.84836556412926 L59.443645685400334,37.96301316184148Q53.27219171307941,34.19230835726594 50.832686364045415,26.554392388198785 L49.612933689528425,22.73543440366521Q47.17342834049443,15.09751843459806 39.06148828967015,9.791394105142034 L35.00551826425801,7.138331940414021Q26.893578213433724,1.832207610957996 26.05198811608215,-4.465909599989231 L25.63119306740636,-7.614968205462843Q24.789602970054787,-13.91308541641007 25.058898219246238,-17.249577977666874 L25.19354584384196,-18.917824258295276Q25.46284109303341,-22.254316819552084 22.25385062654343,-24.48973599885642 L20.649355393298436,-25.607445588508593Q17.440364926808453,-27.84286476781293 19.156661987343103,-29.801306377924323 L20.014810517610428,-30.780527182980023Q21.731107578145078,-32.738968793091416 24.111553189543283,-30.14999948123447 L25.301775995242384,-28.855514825305995Q27.68222160664059,-26.26654551344905 31.294602431918335,-24.202534691115527 L33.100792844557205,-23.17052927994877Q36.71317366983495,-21.10651845761525 39.46307661172342,-16.83521370324577 L40.83802808266766,-14.699561326061035Q43.587931024556134,-10.42825657169156 48.22914119655797,-3.754739659891765 L50.549746282558885,-0.4179812039918671Q55.19095645456072,6.255535707807927 54.81016775667729,8.865647552290485 L54.61977340773558,10.170703474531763Q54.23898470985215,12.780815319014321 57.32427109263906,14.108460220039838 L58.86691428403251,14.772282670552595Q61.95220066681942,16.09992757157811 64.42989673402808,16.756944701581897 L65.6687447676324,17.085453266583787Q68.14644083484106,17.742470396587574 68.21359242068849,23.15521328763682 L68.24716821361221,25.861584733161436Q68.31431979945964,31.27432762421068 70.49498993297102,32.28969392438035 L71.58532499972672,32.79737707446519Q73.7659951332381,33.81274337463486 91.73733545870644,56.67666657753978 L100.72300562144062,68.10862817899222Q118.69434594690895,90.97255138189713 119.40262180873904,93.61853371123878 L119.7567597396541,94.94152487590961Q120.46503560148419,97.58750720525126 121.01931996378161,100.7394142150277 L121.29646214493033,102.3153677199159Q121.85074650722775,105.46727472969233 121.85074650722775,105.46727472969233 Z"/>
      <path class="tree"
            d="M-42.6417350473845,-116.26855151791786Q-42.6417350473845,-116.26855151791786 -45.826846620495274,-110.26490463221838 L-47.41940240705067,-107.26308118936863Q-50.60451398016144,-101.25943430366915 -54.949702595656014,-101.28525435540666 L-57.122296903403296,-101.29816438127543Q-61.46748551889787,-101.32398443301294 -62.23891872225822,-103.91562309137434 L-62.62463532393839,-105.21144242055504Q-63.396068527298745,-107.80308107891645 -62.0895155598811,-111.68985952792136 L-61.436239076172285,-113.63324875242381Q-60.12968610875464,-117.52002720142872 -56.943275974496046,-121.05085078881137 L-55.35007090736676,-122.8162625825027Q-52.16366077310816,-126.34708616988536 -49.38589144807727,-126.92693078753324 L-47.997006785561815,-127.21685309635718Q-45.21923746053092,-127.79669771400506 -44.18823649527235,-123.18543923557019 L-43.67273601264307,-120.87980999635273Q-42.6417350473845,-116.26855151791786 -42.6417350473845,-116.26855151791786 Z"/>
      <path class="tree"
            d="M-35.32947698280929,-151.4709237157718Q-35.32947698280929,-151.4709237157718 -38.3245694045253,-147.13171172691344 L-39.822115615383304,-144.96210573248428Q-42.81720803709931,-140.62289374362592 -44.188431115957265,-136.61656897262097 L-44.87404265538624,-134.61340658711848Q-46.24526573424419,-130.60708181611352 -50.23338435501218,-131.0139152618601 L-52.22744366539617,-131.21733198473336Q-56.21556228616416,-131.62416543047993 -61.15323435456723,-132.12785691111839 L-63.62207038876876,-132.3797026514376Q-68.55974245717184,-132.88339413207606 -71.94746797786357,-134.968246317971 L-73.64133073820943,-136.01067241091843Q-77.02905625890116,-138.09552459681336 -79.0190606046243,-142.2465141443321 L-80.01406277748588,-144.3220089180915Q-82.00406712320901,-148.47299846561026 -84.04521192254825,-152.4545412970515 L-85.06578432221785,-154.44531271277214Q-87.10692912155709,-158.42685554421337 -89.5077866459029,-162.94132232672226 L-90.70821540807579,-165.19855571797672Q-93.1090729324216,-169.7130225004856 -93.28995283682583,-171.5459570976558 L-93.38039278902794,-172.4624243962409Q-93.56127269343217,-174.29535899341107 -91.90797274556455,-176.6380672863699 L-91.08132277163075,-177.8094214328493Q-89.42802282376313,-180.15212972580812 -86.69681049495154,-181.48166062955278 L-85.33120433054573,-182.14642608142512Q-82.59999200173414,-183.47595698516977 -80.54045097796609,-177.78458035049232 L-79.51068046608208,-174.9388920331536Q-77.45113944231403,-169.24751539847614 -73.18090556974904,-168.81191614335842 L-71.04578863346654,-168.59411651579958Q-66.77555476090156,-168.15851726068186 -62.38088022745024,-168.61745901631102 L-60.18354296072458,-168.8469298941256Q-55.788868427273265,-169.30587164975475 -55.51136693144617,-165.6635562081482 L-55.37261618353262,-163.84239848734492Q-55.095114687705525,-160.20008304573838 -49.967030276491464,-161.7049388358385 L-47.40298807088443,-162.4573667308886Q-42.27490365967037,-163.96222252098872 -39.49673298892594,-158.96570299890195 L-38.10764765355372,-156.46744323785856Q-35.32947698280929,-151.4709237157718 -35.32947698280929,-151.4709237157718 Z"/>
      <use xmlns:xlink="http://www.w3.org/1999/xlink" xlink:href="#TeeSet"
           x="190.86991658498576"
           y="274.79780444705017"
           class="tees"
           transform="rotate(-36.11734922592555 190.86991658498576 274.79780444705017)"/>
      <use xmlns:xlink="http://www.w3.org/1999/xlink" xlink:href="#Flag"
           x="-159.91574044868187"
           y="-205.94355967419528"
           transform="rotate(-36.11734922592555 -159.91574044868187 -205.94355967419528)"/>
      <g clip-path="url(#HoleContour)">
         <circle cx="190.86991658498576" cy="274.79780444705017" r="168.22553902942192"
                 class="circle-from-tee"/>
         <circle cx="190.86991658498576" cy="274.79780444705017" r="252.33830854413287"
                 class="circle-from-tee"/>
         <circle cx="190.86991658498576" cy="274.79780444705017" r="336.45107805884385"
                 class="circle-from-tee"/>
         <circle cx="-159.91574044868187" cy="-205.94355967419528" r="168.22553902942192"
                 class="circle-from-green"/>
         <circle cx="-159.91574044868187" cy="-205.94355967419528" r="252.33830854413287"
                 class="circle-from-green"/>
         <circle cx="-159.91574044868187" cy="-205.94355967419528" r="336.45107805884385"
                 class="circle-from-green"/>
      </g>
   </g>
   <rect x="470" y="400" rx="4" ry="4" width="110" height="180" class="info-background"/>
   <text x="525" y="420" class="info-hole" text-anchor="middle">
					Hole 5</text>
   <text x="525" y="440" class="info-par" text-anchor="middle">
					Par 4</text>
   <circle cx="485.625" cy="457.1875" r="5.625" style="fill:blue"/>
   <text x="496.875" y="460" class="info-length">338 meters</text>
   <use xmlns:xlink="http://www.w3.org/1999/xlink" xlink:href="#Compass" x="550" y="50"
        transform="rotate(36.11734922592555 550 50)"/>
   <use xmlns:xlink="http://www.w3.org/1999/xlink" xlink:href="#GolfMLLogoSmall" x="10"
        y="575"/>
</svg>