<?xml version="1.0" encoding="UTF-8"?>
<svg xmlns="http://www.w3.org/2000/svg" width="600" height="600">
   <defs>
      <style xmlns:g="http://code.google.com/p/golfml"
             xmlns:xlink="http://www.w3.org/1999/xlink"
             xmlns:xs="http://www.w3.org/2001/XMLSchema"
             type="text/css">
/* Stylesheet for SVG elements
 *
 *
 * Classes for area of interest (surfaces)
 *
 * DRAWING
 */
.background {
		fill: url(#background-gradient);
}

.hole-limits {
	fill: none;
	stroke: #ccc;
	stroke-width: 1px;
	stroke-dasharray: 10,10;
}

.hole-contour {
	fill: #030;
	stroke: #fff;
	stroke-width: 2px;
}


/* GROUND
 */
.fairway {
	fill: url(#fairway-pattern);
	stroke: #0b0;
	stroke-width: 3px; /* fairway fringe... */
}

.tee {
	fill: #00c800;
	stroke: #0f0;
	stroke-width: 1px;
}

.fringe {
	fill: #0A0;
}

.green {
	fill: url(#green-gradient);
	stroke: #0f0;
	stroke-width: 1px;
}

.semi-rough,
.light-rough {
	fill: #080;
	stroke: #08800D;
	stroke-width: 1px;
}

.rough {
	fill: url(#rough-gradient);
	stroke: #07660A;
	stroke-width: 1px;
}

.heavy-rough {
	fill: #040;
	stroke: #074D08;
	stroke-width: 1px;
}

.ground {
	fill: #7f400c;
	stroke: #fdcc6a;
	stroke-width: 1px;
}


/* WATER
 */
.lateral-water {
	fill: url(#lateral-water-gradient);
	stroke: red;
	stroke-width: 4px;
}

.front-water, .water {
	fill: #37f;
	stroke: yellow;
	stroke-width: 3px;
}


/* SPECIAL
 */
.under-repair {
	fill: none;
	stroke: #00d;
	stroke-width: 2px;
}

.out-of-bound { /* line only */
	fill: none;
	stroke: white;
	stroke-width: 4px;
}

.out-of-bound-area {
	fill: #ccc;
	stroke: white;
	stroke-width: 4px;
}


/* TRAPS
 */
.trap,
.bunker {
	fill: #92cf94;
	stroke: #4c994c;
	stroke-width: 1px;
}

.grass-trap,
.grass-bunker {
	fill: #050;
	stroke: #0A0;
	stroke-width: 1px;
}

.sand-trap,
.sand-bunker,
.greenside-trap,
.greenside-bunker {
	fill: #eec;
	stroke: #040;
	stroke-width: 2px;
}

.fairway-trap,
.fairway-bunker {
	fill: #eec;
	stroke: #030;
	stroke-width: 2px;
}


/* OBSTACLES
 */
.tree {
	fill: #062;
	stroke: #0c6;
	stroke-width: 1px;
}

.trees {
	fill: #062;
	stroke: #0c6;
	stroke-width: 1px;
}

.bush {
	fill: #00b259;
	stroke: #7f400c;
	stroke-width: 1px;
}


.path {
	fill: #666;
	stroke: #bbb;
	stroke-width: 1px;
}

.building,
.construction {
	fill: #fdcc6a;
	stroke: #7f400C;
	stroke-width: 1px;
}

.obstruction {
	fill: #555;
	stroke: #999;
	stroke-width: 1px;
}


.other {
	fill: #ddd;
	stroke: #666;
	stroke-width: 1px;
}

/* Classes for point of interest (points)
 *
 */
.dogleg {
	fill: #000;
}

.aim {
	fill: #fff;
	stroke: #f00;
	stroke-width: 1px;
}

.tees {
	fill: #00f;
}

.tees-hollow {
	stroke: #fff;
	stroke-width: 0.5px;
}

.hole {
	fill: #fff;
}

.distance-marker-100,
.distance-marker-close {
	fill: #44f;
	stroke: #00f;
	stroke-width: 1px;
}

.distance-marker-150,
.distance-marker-135,
.distance-marker,
.distance-marker-mid {
	fill: #f44;
	stroke: #f00;
	stroke-width: 1px;
}

.distance-marker-200,
.distance-marker-far {
	fill: #dd4;
	stroke: #ff0;
	stroke-width: 1px;
}

.green-region-delimiter {
	fill: none;
	stroke: #fff;
	stroke-width: 0.5;
	stroke-dasharray: 4,2;
}

.neutral {
	fill: none;
	stroke: #888;
	stroke-width: 1px;
}
.one-tree {
	fill: #14920D;
	stroke: #165822;
	stroke-width: 3px;
	stroke-linecap: round;
	stroke-linejoin: round; 
}

/* Classes for special decorative objects
 *
 */
.compass-center {
	fill: #ddd;
	stroke: #fff;
	stroke-width: 1px;
}
.compass-needle {
	fill: #ddd;
	stroke: #fff;
	stroke-width: 1px;
}
.compass-north {
	fill: #fff;
}
.flag-pole {
	fill: none;
	stroke: #f00;
	stroke-width: 2px;
}
.flag-flag {
	fill: #ff0;
	stroke: #f00;
	stroke-width: 1px;
}
.flag-cup {
	fill: #fff;
}
/* Information box */
.info-background {
	fill: #ddd;
}
.info-hole {
	font-family: Georgia, "Times New Roman", Times, serif;
	font-size: xx-large;
}
.info-par {
	font-family: Georgia, "Times New Roman", Times, serif;
	font-size: x-large;
}
.info-length {
	font-family: Georgia, "Times New Roman", Times, serif;
	font-size: large;
}
/* Circle for distances */
.circle-from-green {
	fill: none;
	stroke: #fff;
	stroke-width: 1px;
	stroke-dasharray: 4,4;
}
.circle-from-tee {
	fill: none;
	stroke: #f00;
	stroke-width: 1px;
	stroke-dasharray: 8,8;
}
/* Dynamic objects */
.target {
	fill: none;
	stroke: #f00;
	stroke-width: 2px;
}
.target-filled {
	fill: #f00;
	fill-opacity: 0.5;
	stroke: #f00;
}
.ball {
	fill: #fff;
	stroke: none;
}
.trajectory {
	fill: none;
	stroke: #fff;
	stroke-width: 2px;
}
.distance {
	fill: #fff;
}
</style>
      <linearGradient xmlns:g="http://code.google.com/p/golfml"
                      xmlns:xlink="http://www.w3.org/1999/xlink"
                      xmlns:xs="http://www.w3.org/2001/XMLSchema"
                      id="background-straight">
         <stop offset="5%" stop-color="#002"/>
         <stop offset="95%" stop-color="#004"/>
      </linearGradient>
      <linearGradient xmlns:g="http://code.google.com/p/golfml"
                      xmlns:xlink="http://www.w3.org/1999/xlink"
                      xmlns:xs="http://www.w3.org/2001/XMLSchema"
                      id="background-gradient"
                      gradientTransform="rotate(30)"
                      xlink:href="#background-straight"/>
      <linearGradient xmlns:g="http://code.google.com/p/golfml"
                      xmlns:xlink="http://www.w3.org/1999/xlink"
                      xmlns:xs="http://www.w3.org/2001/XMLSchema"
                      id="lateral-water-straight">
         <stop offset="5%" stop-color="#006"/>
         <stop offset="95%" stop-color="#008"/>
      </linearGradient>
      <linearGradient xmlns:g="http://code.google.com/p/golfml"
                      xmlns:xlink="http://www.w3.org/1999/xlink"
                      xmlns:xs="http://www.w3.org/2001/XMLSchema"
                      id="lateral-water-gradient"
                      gradientTransform="rotate(60)"
                      xlink:href="#lateral-water-straight"/>
      <linearGradient xmlns:g="http://code.google.com/p/golfml"
                      xmlns:xlink="http://www.w3.org/1999/xlink"
                      xmlns:xs="http://www.w3.org/2001/XMLSchema"
                      id="rough-straight">
         <stop offset="0%" stop-color="#030"/>
         <stop offset="25%" stop-color="#060"/>
         <stop offset="50%" stop-color="#040"/>
         <stop offset="75%" stop-color="#060"/>
         <stop offset="100%" stop-color="#080"/>
      </linearGradient>
      <linearGradient xmlns:g="http://code.google.com/p/golfml"
                      xmlns:xlink="http://www.w3.org/1999/xlink"
                      xmlns:xs="http://www.w3.org/2001/XMLSchema"
                      id="rough-gradient"
                      gradientTransform="rotate(70)"
                      xlink:href="#rough-straight"/>
      <linearGradient xmlns:g="http://code.google.com/p/golfml"
                      xmlns:xlink="http://www.w3.org/1999/xlink"
                      xmlns:xs="http://www.w3.org/2001/XMLSchema"
                      id="green-straight">
         <stop offset="0%" stop-color="#0d0"/>
         <stop offset="25%" stop-color="#0e0"/>
         <stop offset="50%" stop-color="#0c0"/>
         <stop offset="75%" stop-color="#0e0"/>
         <stop offset="100%" stop-color="#0b0"/>
      </linearGradient>
      <linearGradient xmlns:g="http://code.google.com/p/golfml"
                      xmlns:xlink="http://www.w3.org/1999/xlink"
                      xmlns:xs="http://www.w3.org/2001/XMLSchema"
                      id="green-gradient"
                      gradientTransform="rotate(75)"
                      xlink:href="#green-straight"/>
      <pattern xmlns:g="http://code.google.com/p/golfml"
               xmlns:xlink="http://www.w3.org/1999/xlink"
               xmlns:xs="http://www.w3.org/2001/XMLSchema"
               id="fairway-straight"
               patternUnits="userSpaceOnUse"
               x="0"
               y="0"
               width="20"
               height="20"
               viewBox="0 0 20 20">
         <rect x="0" y="0" width="10" height="10" fill="#00c000"/>
         <rect x="10" y="10" width="10" height="10" fill="#00c800"/>
         <rect x="10" y="0" width="10" height="10" fill="#00bc00"/>
         <rect x="0" y="10" width="10" height="10" fill="#00b800"/>
      </pattern>
      <pattern xmlns:g="http://code.google.com/p/golfml"
               xmlns:xlink="http://www.w3.org/1999/xlink"
               xmlns:xs="http://www.w3.org/2001/XMLSchema"
               id="fairway-pattern"
               patternTransform="rotate(60)"
               xlink:href="#fairway-straight"/>
      <g xmlns:g="http://code.google.com/p/golfml"
         xmlns:xlink="http://www.w3.org/1999/xlink"
         xmlns:xs="http://www.w3.org/2001/XMLSchema"
         id="Tree"
         transform="translate(-76 -66) scale(0.4)">
         <path class="one-tree"
               d="M191.991,126.799c-11.163,0-21.022,4.032-27.033,10.191c-17.556,0.615-31.556,11.151-31.556,24.079       c0,7.537,4.759,14.266,12.203,18.693c0.876,12.855,18.43,23.128,39.939,23.128c22.07,0,39.979-10.812,39.979-24.136       c0-0.065-0.012-0.13-0.013-0.195c6.33-2.866,10.33-6.992,10.33-11.595c0-4.806-4.343-9.104-11.164-11.977       c0.31-1.318,0.478-2.67,0.478-4.054C225.154,137.612,210.297,126.799,191.991,126.799z"/>
      </g>
      <g xmlns:g="http://code.google.com/p/golfml"
         xmlns:xlink="http://www.w3.org/1999/xlink"
         xmlns:xs="http://www.w3.org/2001/XMLSchema"
         id="TeeSet">
         <circle cx="-5" cy="0" r="2"/>
         <circle cx="5" cy="0" r="2"/>
      </g>
      <g xmlns:g="http://code.google.com/p/golfml"
         xmlns:xlink="http://www.w3.org/1999/xlink"
         xmlns:xs="http://www.w3.org/2001/XMLSchema"
         id="DistanceMarker">
         <circle r="6"/>
      </g>
      <g xmlns:g="http://code.google.com/p/golfml"
         xmlns:xlink="http://www.w3.org/1999/xlink"
         xmlns:xs="http://www.w3.org/2001/XMLSchema"
         id="Dogleg">
         <circle r="4"/>
      </g>
      <g xmlns:g="http://code.google.com/p/golfml"
         xmlns:xlink="http://www.w3.org/1999/xlink"
         xmlns:xs="http://www.w3.org/2001/XMLSchema"
         id="Aim">
         <circle r="4"/>
      </g>
      <g xmlns:g="http://code.google.com/p/golfml"
         xmlns:xlink="http://www.w3.org/1999/xlink"
         xmlns:xs="http://www.w3.org/2001/XMLSchema"
         id="Hole">
         <circle r="2"/>
      </g>
      <g xmlns:g="http://code.google.com/p/golfml"
         xmlns:xlink="http://www.w3.org/1999/xlink"
         xmlns:xs="http://www.w3.org/2001/XMLSchema"
         id="Ball">
         <image xlink:href="../stylesheets/images/golf-ball.png" width="16" height="16"
                transform="translate(-8 -8)"/>
      </g>
      <g xmlns:g="http://code.google.com/p/golfml"
         xmlns:xlink="http://www.w3.org/1999/xlink"
         xmlns:xs="http://www.w3.org/2001/XMLSchema"
         id="Target">
         <circle class="target-filled" r="12"/>
      </g>
      <g xmlns:g="http://code.google.com/p/golfml"
         xmlns:xlink="http://www.w3.org/1999/xlink"
         xmlns:xs="http://www.w3.org/2001/XMLSchema"
         id="Flag"
         transform="translate(0 -30) scale(-0.2 0.2)">
         <line id="FlagPole" class="flag-pole" x1="0.5" y1="0" x2="0.5" y2="150"/>
         <circle id="FlagCup" class="flag-cup" r="10" cx="0" cy="145"/>
         <g id="FlagFlag">
            <path class="flag-flag"
                  d="M55.339,45.968c-18.28-14.516-36.559,14.516-54.839,0c0-12.097,0-24.193,0-36.29        c18.28,14.516,36.559-14.516,54.839,0C55.339,21.774,55.339,33.871,55.339,45.968z"/>
         </g>
      </g>
      <g xmlns:g="http://code.google.com/p/golfml"
         xmlns:xlink="http://www.w3.org/1999/xlink"
         xmlns:xs="http://www.w3.org/2001/XMLSchema"
         id="Compass">
         <polygon id="CompassNeedle" class="compass-needle" points="0,30 -8,0 0,-20 8,0"/>
         <circle id="CompassCenter" class="compass-center" r="10"/>
         <text id="CompassNorth" class="compass-north" x="-4.7" y="40">N</text>
      </g>
      <g xmlns:g="http://code.google.com/p/golfml"
         xmlns:xlink="http://www.w3.org/1999/xlink"
         xmlns:xs="http://www.w3.org/2001/XMLSchema"
         id="GolfMLLogoSmall">
         <image xlink:href="../stylesheets/images/golfml-small.png" width="80" height="15"/>
      </g>
   </defs>
   <rect class="background" x="0" y="0" width="600" height="600"/>
   <g transform="translate(300,300) scale(-0.7880851176117388,0.7880851176117388) rotate(-142.00692112991283)">
      <path class="hole-contour"
            d="M-188.19956659680915,-299.66672177025174Q-188.19956659680915,-299.66672177025174 -157.7519551324568,-240.58774991099557 L-142.52814940028063,-211.0482639813675Q-112.08053793592829,-151.96929212211134 -79.84786703337925,-92.9377106272222 L-63.731531582104715,-63.42191987977763Q-31.49886067955567,-4.390338384888489 -19.874197386862527,7.220511996368149 L-14.061865740515959,13.025937186996464Q-2.437202447822819,24.6367875682531 26.953094946532293,54.8470068167627 L41.64824364370985,69.9521164410175Q71.03854103806496,100.1623356895271 119.80155785236562,130.75874125852027 L144.18306625951595,146.05694404301687Q192.9460830738166,176.65334961201006 211.07931918607377,197.92450977008798 L220.1459372422024,208.56008984912694Q238.27917335445957,229.83125000720486 224.41835755016896,257.89853109895057 L217.48794964802366,271.9321716448235Q203.62713384373305,299.9994527365692 70.10648673281287,218.00593999837838 L3.3461631773527927,177.009183629283Q-130.1744839335674,95.0156708910922 -157.98826364758153,22.761326161037942 L-171.8951535045886,-13.365846203989165Q-199.70893321860274,-85.62019093404342 -213.9079147659667,-161.21207095543232 L-221.0074055396487,-199.00801096612676Q-235.20638708701264,-274.59989098751566 -233.5921804775944,-281.1961843154522 L-232.78507717288528,-284.4943309794204Q-231.17087056346705,-291.0906243073569 -220.24189864104923,-294.6545924907054 L-214.7774126798403,-296.4365765823796Q-203.84844075742248,-300.0005447657281 -197.58889109317715,-299.8670155675375 L-194.45911626105448,-299.8002509684423Q-188.19956659680915,-299.66672177025174 -188.19956659680915,-299.66672177025174 Z"/>
      <clipPath id="HoleContour" transform="scale(1.2)">
         <path class="hole-contour"
               d="M-188.19956659680915,-299.66672177025174Q-188.19956659680915,-299.66672177025174 -157.7519551324568,-240.58774991099557 L-142.52814940028063,-211.0482639813675Q-112.08053793592829,-151.96929212211134 -79.84786703337925,-92.9377106272222 L-63.731531582104715,-63.42191987977763Q-31.49886067955567,-4.390338384888489 -19.874197386862527,7.220511996368149 L-14.061865740515959,13.025937186996464Q-2.437202447822819,24.6367875682531 26.953094946532293,54.8470068167627 L41.64824364370985,69.9521164410175Q71.03854103806496,100.1623356895271 119.80155785236562,130.75874125852027 L144.18306625951595,146.05694404301687Q192.9460830738166,176.65334961201006 211.07931918607377,197.92450977008798 L220.1459372422024,208.56008984912694Q238.27917335445957,229.83125000720486 224.41835755016896,257.89853109895057 L217.48794964802366,271.9321716448235Q203.62713384373305,299.9994527365692 70.10648673281287,218.00593999837838 L3.3461631773527927,177.009183629283Q-130.1744839335674,95.0156708910922 -157.98826364758153,22.761326161037942 L-171.8951535045886,-13.365846203989165Q-199.70893321860274,-85.62019093404342 -213.9079147659667,-161.21207095543232 L-221.0074055396487,-199.00801096612676Q-235.20638708701264,-274.59989098751566 -233.5921804775944,-281.1961843154522 L-232.78507717288528,-284.4943309794204Q-231.17087056346705,-291.0906243073569 -220.24189864104923,-294.6545924907054 L-214.7774126798403,-296.4365765823796Q-203.84844075742248,-300.0005447657281 -197.58889109317715,-299.8670155675375 L-194.45911626105448,-299.8002509684423Q-188.19956659680915,-299.66672177025174 -188.19956659680915,-299.66672177025174 Z"/>
      </clipPath>
      <path class="tee"
            d="M-200.9221653838892,-263.79561576246755Q-200.9221653838892,-263.79561576246755 -193.6089294986445,-254.27578595030002 L-189.95231155602218,-249.51587104421625Q-182.6390756707775,-239.99604123204873 -176.68407359320534,-231.76489045720567 L-173.70657255441927,-227.6493150697841Q-167.75157047684712,-219.41816429494105 -165.58689803827448,-212.6325532603874 L-164.50456181898818,-209.2397477431106Q-162.33988938041554,-202.45413670855694 -166.01439073792395,-199.48823278912656 L-167.85164141667815,-198.00528082941136Q-171.52614277418655,-195.03937690998097 -176.45985932184192,-197.9999504042364 L-178.92671759566963,-199.48023715136407Q-183.860434143325,-202.44081064561948 -188.28878269902447,-211.3742108906259 L-190.50295697687423,-215.84091101312913Q-194.9313055325737,-224.77431125813555 -199.55129643560448,-232.59905960707655 L-201.86129188711985,-236.51143378154705Q-206.48128279015063,-244.33618213048806 -208.6459995611755,-251.12179696218033 L-209.72835794668796,-254.5146043780265Q-211.89307471771284,-261.30021920971876 -207.5047109841834,-262.29837783081825 L-205.31052911741864,-262.79745714136806Q-200.9221653838892,-263.79561576246755 -200.9221653838892,-263.79561576246755 Z"/>
      <path class="fairway"
            d="M-113.27013630043969,-69.21884311907019Q-113.27013630043969,-69.21884311907019 -107.24729343673955,-66.70661525132503 L-104.23587200488949,-65.45050131745245Q-98.21302914118935,-62.93827344970729 -93.43555903376296,-57.004093965167236 L-91.04682398004975,-54.03700422289722Q-86.26935387262336,-48.102824738357164 -83.10471190778438,-37.09379790950555 L-81.52239092536487,-31.58928449507974Q-78.3577489605259,-20.580257666228118 -72.30693091263075,-6.191421238325891 L-69.28152188868319,1.0029969756252193Q-63.23070384078804,15.391833403527446 -55.32640497214226,30.8981818258991 L-51.374255537819366,38.65135603708492Q-43.469956669173584,54.15770445945658 -30.40954942244373,66.5503268967222 L-23.87934579907881,72.746638115355Q-10.818938552348959,85.13926055262061 8.91625262256334,100.48031003890769 L18.78384821001948,108.15083478205123Q38.51903938493178,123.49188426833831 68.47195940818446,144.10870728861303 L83.44841941981079,154.41711879875038Q113.40133944306346,175.0339418190251 128.1560849469532,179.27803116747677 L135.53345769889808,181.40007584170257Q150.28820320278783,185.64416519015424 148.4875553151483,188.57002304931933 L147.58723137132853,190.03295197890188Q145.78658348368901,192.95880983806697 147.339913517857,194.9206376284209 L148.116578534941,195.90155152359787Q149.669908569109,197.8633793139518 152.08890129605948,199.42703823173582 L153.29839765953471,200.20886769062784Q155.7173903864852,201.77252660841185 157.51430231551257,203.4776524774944 L158.41275828002625,204.33021541203567Q160.20967020905363,206.0353412811182 162.73733357280457,206.97036189796424 L164.00116525468007,207.43787220638723Q166.52882861843102,208.37289282323326 168.63209036448958,207.44165470617023 L169.68372123751885,206.9760356476387Q171.78698298357742,206.04479753057566 172.32380674731886,202.65143298687764 L172.59221862918955,200.95475071502864Q173.12904239293098,197.5613861713306 176.06143445996966,199.61223550870713 L177.527630493489,200.63766017739542Q180.46002256052768,202.68850951477194 185.35701709117842,208.06716589004438 L187.80551435650378,210.7564940776806Q192.70250888715452,216.13515045295304 196.00307303161324,222.68207864706335 L197.6533551038426,225.95554274411853Q200.95391924830133,232.50247093822884 202.72083424446018,237.8379958108363 L203.60429174253963,240.50575824714005Q205.37120673869848,245.84128311974752 204.2385308148914,250.37667955846374 L203.67219285298785,252.64437777782186Q202.53951692918076,257.1797742165381 197.8917414905647,261.306646641689 L195.56785377125664,263.3700828542644Q190.92007833264057,267.4969552794153 186.9440427618233,268.6024241722112 L184.9560249764147,269.1551586186091Q180.97998940559745,270.260627511405 174.56248685028723,264.1708911063748 L171.35373557263213,261.1260229038597Q164.9362330173219,255.0362864988295 156.65621825028765,244.7399874165908 L152.5162108667705,239.5918378754714Q144.23619609973625,229.2955387932327 131.1341149271762,221.2533768507851 L124.58307434089616,217.2322958795613Q111.48099316833611,209.19013393711367 104.17546204667906,204.03912419636816 L100.52269648585055,201.4636193259954Q93.21716536419349,196.3126095852499 58.62045028838465,175.49225178060237 L41.32209275048023,165.0820728782786Q6.725377674671394,144.26171507363105 -27.37276897919358,123.9151411966019 L-44.42184230612607,113.74185425808732Q-78.51998895999104,93.39528038105816 -84.34856326370215,87.54879785260854 L-87.2628504155577,84.62555658838374Q-93.0914247192688,78.77907405993413 -96.71105014874279,70.60454445881923 L-98.52086286347976,66.51727965826178Q-102.14048829295375,58.34275005714688 -104.88147787531157,46.57788331063455 L-106.25197266649049,40.695449937378385Q-108.99296224884831,28.930583190866056 -110.95823632637156,22.00978918659459 L-111.94087336513317,18.549392184458856Q-113.90614744265642,11.628598180187389 -119.79434263106441,3.513590356601471 L-122.73844022526839,-0.5439135551914909Q-128.62663541367638,-8.658921378777409 -132.7111854034861,-16.010544438717254 L-134.75346039839096,-19.68635596868717Q-138.83801038820067,-27.037979028627014 -138.79081566206364,-31.417248069546858 L-138.76721829899515,-33.606882590006784Q-138.7200235728581,-37.98615163092663 -136.1227554724495,-44.053864339214584 L-134.8241214222452,-47.087720693358555Q-132.22685332183661,-53.15543340164651 -128.78961519232016,-58.11015593496499 L-127.07099612756191,-60.58751720162423Q-123.63375799804545,-65.54223973494271 -119.48830931900315,-67.0128810885937 L-117.41558497948199,-67.7482017654192Q-113.27013630043969,-69.21884311907019 -113.27013630043969,-69.21884311907019 Z"/>
      <path class="greenside-trap"
            d="M158.1671221730138,184.6522841328435Q158.1671221730138,184.6522841328435 158.86007600506036,185.95189304359207 L159.20655292108367,186.60169749896633Q159.89950675313023,187.9013064097149 162.09672699332035,188.46142193820634 L163.19533711341543,188.7414797024521Q165.39255735360555,189.30159523094355 166.14530629463363,188.1699961349834 L166.52168076514764,187.60419658700334Q167.2744297061757,186.4725974910432 167.3536476467672,184.78212681540134 L167.39325661706295,183.93689147758045Q167.47247455765444,182.2464208019386 168.7591170498228,181.0596482864366 L169.40243829590702,180.4662620286856Q170.6890807880754,179.27948951318362 172.22140222561183,179.6099524288721 L172.98756294438004,179.77518388671635Q174.51988438191648,180.10564680240483 176.1983173321685,181.2970686810268 L177.0375338072945,181.89277962033773Q178.7159667575465,183.0842014989597 179.79115013794546,184.82677857025922 L180.32874182814496,185.69806710590902Q181.4039252085439,187.44064417720855 182.30710342742262,187.33461328329633 L182.75869253686196,187.28159783634024Q183.66187075574067,187.17556694242802 185.80822844219702,187.36639961995104 L186.8814072854252,187.46181595871255Q189.02776497188157,187.65264863623557 190.8113099657393,188.14125301350296 L191.70308246266814,188.3855552021367Q193.48662745652587,188.87415957940408 194.38641329819632,190.20953096733427 L194.8363062190315,190.87721666129934Q195.73609206070196,192.21258804922954 195.9796090531357,193.64751831646961 L196.1013675493526,194.36498345008968Q196.34488454178634,195.79991371732976 195.17414332626873,196.6953811920304 L194.58877271850994,197.14311492938074Q193.41803150299233,198.03858240408138 191.43844019442946,197.92573865386694 L190.44864454014805,197.86931677875975Q188.46905323158518,197.75647302854532 187.18888438639254,199.1901530206085 L186.5487999637962,199.9069930166401Q185.26863111860357,201.34067300870328 184.31890841303988,201.2420216916712 L183.84404706025805,201.19269603315516Q182.89432435469436,201.09404471612308 181.8006477976834,200.21674053613742 L181.25380951917793,199.77808844614458Q180.16013296216698,198.90078426615892 180.1363973538432,197.9954390616177 L180.1245295496813,197.5427664593471Q180.10079394135752,196.63742125480587 179.08726225186786,195.67565602887416 L178.58049640712304,195.19477341590832Q177.56696471763337,194.2330081899766 176.46342404401946,194.55019283368256 L175.91165370721254,194.7087851555355Q174.80811303359863,195.02596979924147 173.9221988655759,195.79043418378032 L173.4792417815645,196.17266637604973Q172.59332761354176,196.9371307605886 172.0853301129976,197.9799530485674 L171.8313313627255,198.50136419255682Q171.32333386218136,199.54418648053564 171.11526620877328,201.03213116598783 L171.0112323820692,201.77610350871396Q170.80316472866113,203.26404819416615 169.38336031099905,204.08368643043684 L168.67345810216798,204.4935055485722Q167.2536536845059,205.31314378484288 165.81011272121606,205.22743810081857 L165.08834223957115,205.1845852588064Q163.6448012762813,205.0988795747821 161.8624873751945,203.08657931079776 L160.9713304246511,202.0804291788056Q159.18901652356428,200.06812891482124 157.394681640806,199.16801276483616 L156.49751419942683,198.7179546898436Q154.70317931666855,197.8178385398585 153.60734179106424,196.85823432087025 L153.0594230282621,196.37843221137612Q151.9635855026578,195.41882799238786 151.13336138752027,193.58766747742706 L150.71824932995153,192.67208721994663Q149.888025214814,190.84092670498583 150.7369926459062,188.67704256821455 L151.16147636145232,187.59510049982887Q152.01044379254452,185.4312163630576 154.47311514473225,185.11964347097197 L155.70445082082608,184.96385702492913Q158.1671221730138,184.6522841328435 158.1671221730138,184.6522841328435 Z"/>
      <path class="green"
            d="M185.53559633207198,217.58857715786567Q185.53559633207198,217.58857715786567 187.4245749630417,220.03663048275547 L188.36906427852654,221.26065714520038Q190.25804290949625,223.70871047009018 193.05659182521495,227.83547591159783 L194.45586628307427,229.89885863235162Q197.25441519879297,234.02562407385926 198.65392282560424,237.87275486253424 L199.3536766390099,239.79632025687175Q200.75318426582118,243.64345104554673 200.05406253811594,246.5115225711528 L199.70450167426335,247.9455583339558Q199.00537994655812,250.81362985956187 197.46686981324882,253.75175284596668 L196.69761474659418,255.2208143391691Q195.15910461328488,258.1589373255739 191.7317464564857,259.55837268794676 L190.01806737808613,260.25809036913324Q186.59070922128694,261.6575257315061 181.90400519199605,261.1684487269799 L179.56065317735062,260.92391022471674Q174.87394914805972,260.4348332201905 172.42553582549198,259.17602402907517 L171.20132916420812,258.54661943351744Q168.75291584164037,257.2878102424021 168.82242211023836,254.00011127056382 L168.85717524453736,252.35626178464466Q168.92668151313535,249.0685628128064 168.5066142992001,246.34053115233678 L168.29658069223245,244.976515322102Q167.8765134782972,242.24848366163238 166.54722795403433,240.49987849388134 L165.88258519190288,239.6255759100058Q164.55329966764,237.87697074225477 161.12556126294254,236.47838666173826 L159.4116920605938,235.77909462148003Q155.98395365589633,234.3805105409635 154.16516806266165,233.75118438616798 L153.25577526604434,233.43652130877024Q151.43698967280966,232.8071951539747 149.4781019617782,230.70891855960008 L148.49865810626247,229.6597802624128Q146.53977039523102,227.56150366803817 147.02916216375124,225.67276462351202 L147.27385804801136,224.72839510124896Q147.76324981653158,222.83965605672282 146.7835168075825,219.69198804312427 L146.29365030310794,218.11815403632502Q145.31391729415884,214.97048602272648 146.78264993602141,213.36142366552113 L147.5170162569527,212.55689248691843Q148.98574889881527,210.94783012971308 148.77567826258414,209.33898296299506 L148.6706429444686,208.53455937963608Q148.46057230823746,206.92571221291806 149.4395881688212,204.8270534336301 L149.92909609911305,203.77772404398615Q150.90811195969678,201.6790652646982 151.53769275480553,201.88883869426652 L151.8524831523599,201.99372540905068Q152.48206394746865,202.203498838619 154.51082971933997,203.74216438284432 L155.5252126052756,204.511497154957Q157.55397837714693,206.05016269918232 159.0930911136236,207.58889103619842 L159.8626474818619,208.35825520470647Q161.40176021833855,209.89698354172256 163.01063299945227,210.03668147981202 L163.8150693900091,210.10653044885674Q165.42394217112283,210.2462283869462 167.03273036409811,209.75636770934938 L167.83712446058578,209.51143737055096Q169.44591265356107,209.02157669295414 170.42516852561945,208.67169879845736 L170.91479646164868,208.496759851209Q171.89405233370707,208.1468819567122 172.45355041624597,207.37735100557418 L172.73329945751541,206.9925855300052Q173.29279754005432,206.22305457886716 173.50244160553626,204.6841041222807 L173.60726363827726,203.91462889398744Q173.8169077037592,202.37567843740098 175.00611829352442,202.79523595741492 L175.60072358840705,203.0050147174219Q176.78993417817227,203.42457223743583 178.7489599982402,206.5721271975293 L179.72847290827417,208.14590467757603Q181.6874987283421,211.2934596376695 183.22673776983405,213.81150664574798 L183.99635729058002,215.0705301497872Q185.53559633207198,217.58857715786567 185.53559633207198,217.58857715786567 Z"/>
      <path class="trees"
            d="M-226.76456956925028,-272.3223435761826Q-226.76456956925028,-272.3223435761826 -219.96666637991257,-262.30655144974605 L-216.56771478524368,-257.2986553865278Q-209.76981159590596,-247.28286326009126 -199.54934616193637,-226.37851928597863 L-194.43911344495157,-215.92634729892234Q-184.21864801098198,-195.0220033248097 -191.77324646416218,-194.0394387510725 L-195.5505456907523,-193.54815646420388Q-203.1051441439325,-192.5655918904667 -200.7548169927648,-182.6944650430003 L-199.57965341718094,-177.7589016192671Q-197.22932626601323,-167.8877747718007 -190.64477226266882,-156.0367453496529 L-187.35249526099665,-150.111230638579Q-180.76794125765224,-138.2602012164312 -180.02606785758383,-129.91521578206033 L-179.65513115754965,-125.74272306487488Q-178.91325775748123,-117.39773763050401 -183.9865999163342,-111.51395010070915 L-186.52327099576067,-108.57205633581174Q-191.59661315461364,-102.68826880601688 -195.8308438807059,-104.66817846540411 L-197.94795924375202,-105.65813329509771Q-202.1821899698443,-107.63804295448494 -216.62098332839727,-169.73128547174107 L-223.8403800076738,-200.77790673036915Q-238.27917336622676,-262.8711492476253 -233.67333184743617,-266.6516269790482 L-231.37041108804087,-268.5418658447597Q-226.76456956925028,-272.3223435761826 -226.76456956925028,-272.3223435761826 Z"/>
      <path class="trees"
            d="M-182.19862384642462,-68.30105550427693Q-182.19862384642462,-68.30105550427693 -176.01937928152782,-61.92861445853207 L-172.92975699907944,-58.74239393565964Q-166.75051243418264,-52.36995288991478 -167.6170611934984,-45.551111652080465 L-168.05033557315625,-42.14169103316331Q-168.916884332472,-35.322849795329 -170.41556237671332,-32.669618235511024 L-171.16490139883396,-31.343002455602033Q-172.6635794430753,-28.689770895784054 -169.72857619421393,-26.4143533655477 L-168.26107456978323,-25.27664460042952Q-165.32607132092187,-23.001227070193167 -160.5009047540172,-18.422949329840446 L-158.08832147056486,-16.133810459664083Q-153.2631549036602,-11.555532719311364 -152.61731812332724,-6.867517027349354 L-152.2943997331608,-4.52350918136835Q-151.64856295282783,0.1645065105936592 -151.49771902598417,5.911063648585253 L-151.42229706256236,8.784342217581049Q-151.2714531357187,14.530899355572641 -152.16843568983634,19.27551396749111 L-152.6169269668952,21.647821273450347Q-153.51390952101283,26.39243588536882 -149.74375754952078,25.808080373284305 L-147.85868156377472,25.515902617242045Q-144.08852959228267,24.93154710515753 -141.9318640789105,29.43703412304831 L-140.8535313222244,31.6897776319937Q-138.69686580885224,36.19526464988448 -136.68341356636012,42.64560639886197 L-135.67668744511403,45.870777273350726Q-133.6632352026219,52.32111902232822 -131.1594871668377,55.26421383057554 L-129.9076131489456,56.7357612346992Q-127.40386511316139,59.67885604294652 -128.53978113869587,64.46537666764605 L-129.1077391514631,66.85863697999581Q-130.24365517699758,71.64515760469534 -134.40197059372287,72.23932833813498 L-136.48112830208552,72.53641370485481Q-140.6394437188108,73.13058443829445 -142.67332752874782,65.90418323508493 L-143.6902694337163,62.29098263348017Q-145.72415324365332,55.06458143027065 -150.19062778968086,47.61085048781382 L-152.4238650626946,43.88398501658541Q-156.89033960872214,36.430254074128584 -156.504612689629,32.63468127530035 L-156.3117492300824,30.736894875886236Q-155.92602231098925,26.941322077058 -161.13799058550185,20.671848633995275 L-163.74397472275814,17.53711191246391Q-168.95594299727074,11.267638469401184 -172.37332452855063,3.1068541983527673 L-174.08201529419054,-0.9735379371714377Q-177.49939682547043,-9.134322208219855 -176.51874622425973,-16.14873967688643 L-176.02842092365435,-19.65594841121971Q-175.04777032244365,-26.670365879886287 -180.27776697414188,-29.930256657771334 L-182.892765299991,-31.560202046713854Q-188.12276195168923,-34.8200928245989 -186.50922921216687,-39.90986410885812 L-185.7024628424057,-42.45474975098774Q-184.08893010288335,-47.54452103524696 -187.3128777997407,-48.33362011406353 L-188.9248516481694,-48.72816965347182Q-192.14879934502676,-49.517268732288386 -191.4209039666485,-55.068989389635085 L-191.0569562774594,-57.84484971830843Q-190.32906089908113,-63.39657037565513 -187.07688607801853,-65.35836442710385 L-185.45079866748722,-66.33926145282821Q-182.19862384642462,-68.30105550427693 -182.19862384642462,-68.30105550427693 Z"/>
      <path class="trees"
            d="M-74.10616392057483,110.31276308604832Q-74.10616392057483,110.31276308604832 -66.25760275499785,110.97691238089944 L-62.333322172209364,111.30898702832499Q-54.48476100663238,111.9731363231761 -52.57458962567238,118.44898959621831 L-51.61950393519238,121.68691623273942Q-49.709332554232375,128.16276950578163 -44.10304480018888,126.27539211821058 L-41.29990092316714,125.33170342442504Q-35.693613169123644,123.444326036854 -31.87835553376358,127.91240001507515 L-29.97072671608355,130.1464370041857Q-26.15546908072349,134.61451098240687 -20.38949406464777,138.81387563290713 L-17.506506556609914,140.91355795815727Q-11.740531540534198,145.11292260865753 -5.419372111027569,145.5996818468068 L-2.2587923962742575,145.84306146588145Q4.062367033232371,146.3298207040307 6.161365330437938,151.71306802054042 L7.210864479040723,154.40469167879525Q9.309862776246291,159.78793899530496 29.41652080444894,171.6598954733856 L39.46984981855026,177.5958737124259Q59.57650784675291,189.46783019050656 64.18140689800035,190.869794632071 L66.48385642362406,191.57077685285324Q71.0887554748715,192.9727412944177 72.27258374273023,196.63974647646003 L72.86449787665961,198.47324906748122Q74.04832614451834,202.14025424952357 70.46119699043575,206.367436427905 L68.66763241339447,208.48102751709573Q65.08050325931188,212.70820969547717 33.47620238199248,193.7417743540984 L17.674051943332767,184.25855668340904Q-13.93024893398664,165.29212134203027 -41.34181300130027,148.60885791564542 L-55.04759503495707,140.267226202453Q-82.45915910227069,123.58396277606816 -79.11796102959235,118.27548290006023 L-77.44736199325317,115.62124296205626Q-74.10616392057483,110.31276308604832 -74.10616392057483,110.31276308604832 Z"/>
      <path class="trees"
            d="M91.97001167036828,208.42670745395083Q91.97001167036828,208.42670745395083 97.09758231917392,211.69889618373278 L99.66136764357674,213.33499054862378Q104.78893829238238,216.60717927840574 109.63701824669351,219.61417250825835 L112.06105822384907,221.11766912318467Q116.9091381781602,224.12466235303728 122.71397055848779,227.24284715592245 L125.61638674865156,228.80193955736502Q131.42121912897915,231.92012436025018 134.90044599691245,234.69048708890907 L136.6400594308791,236.07566845323848Q140.1192862988124,238.84603118189736 143.4444868863034,240.93910936908702 L145.1070871800489,241.98564846268187Q148.4322877675399,244.07872664987153 154.3268562470241,245.42313739187296 L157.27414048676619,246.09534276287368Q163.1687089662504,247.4397535048751 165.55856688298343,250.23868248069104 L166.75349584134992,251.638146968599Q169.14335375808295,254.43707594441491 166.10071130495325,257.9234507780988 L164.57939007838837,259.66663819494073Q161.53674762525867,263.1530130286246 158.53387995906712,262.9591921153366 L157.03244612597135,262.8622816586925Q154.0295784597798,262.66846074540445 149.48957053385166,261.0160200818399 L147.21956657088762,260.18979975005766Q142.67955864495949,258.5373590864931 137.14708345843923,255.41202816469342 L134.3808458651791,253.8493627037936Q128.84837067865885,250.72403178199392 124.27978765670261,247.98223609436891 L121.99549614572447,246.61133825055643Q117.42691312376823,243.86954256293143 118.83550898053122,240.42598413818877 L119.5398069089127,238.7042049258174Q120.94840276567568,235.26064650107475 117.07137289459074,232.9095187526 L115.13285795904825,231.73395487836262Q111.25582808796331,229.3828271298879 108.94451204041552,229.57969160900305 L107.78885401664164,229.67812384856066Q105.47753796909385,229.87498832767582 100.93750763126309,228.22257878436938 L98.66749246234772,227.39637401271617Q94.12746212451697,225.74396446940972 91.72329260562128,222.40037270955494 L90.52120784617345,220.72857682962757Q88.11703832727777,217.3849850697728 89.65822766451397,213.801674023444 L90.42882233313208,212.0100185002796Q91.97001167036828,208.42670745395083 91.97001167036828,208.42670745395083 Z"/>
      <use xmlns:xlink="http://www.w3.org/1999/xlink" xlink:href="#Tree"
           x="-95.12825136989966"
           y="96.72490405975711 "/>
      <use xmlns:xlink="http://www.w3.org/1999/xlink" xlink:href="#Dogleg"
           x="-52.24684044883655"
           y="85.70649090050135 "/>
      <use xmlns:xlink="http://www.w3.org/1999/xlink" xlink:href="#TeeSet"
           x="-187.1164820467456"
           y="-229.4174705882481"
           class="tees"
           transform="rotate(142.00692112991283 -187.1164820467456 -229.4174705882481)"/>
      <use xmlns:xlink="http://www.w3.org/1999/xlink" xlink:href="#Flag"
           x="173.03355077962894"
           y="231.66834474712502"
           transform="rotate(142.00692112991283 173.03355077962894 231.66834474712502)"/>
      <g clip-path="url(#HoleContour)">
         <circle cx="-187.1164820467456" cy="-229.4174705882481" r="202.73012142828875"
                 class="circle-from-tee"/>
         <circle cx="-187.1164820467456" cy="-229.4174705882481" r="304.09518214243315"
                 class="circle-from-tee"/>
         <circle cx="-187.1164820467456" cy="-229.4174705882481" r="405.4602428565775"
                 class="circle-from-tee"/>
         <circle cx="173.03355077962894" cy="231.66834474712502" r="202.73012142828875"
                 class="circle-from-green"/>
         <circle cx="173.03355077962894" cy="231.66834474712502" r="304.09518214243315"
                 class="circle-from-green"/>
         <circle cx="173.03355077962894" cy="231.66834474712502" r="405.4602428565775"
                 class="circle-from-green"/>
      </g>
   </g>
   <rect x="470" y="400" rx="4" ry="4" width="110" height="180" class="info-background"/>
   <text x="525" y="420" class="info-hole" text-anchor="middle">
					Hole 6</text>
   <text x="525" y="440" class="info-par" text-anchor="middle">
					Par 4</text>
   <circle cx="485.625" cy="457.1875" r="5.625" style="fill:blue"/>
   <text x="496.875" y="460" class="info-length">314 meters</text>
   <use xmlns:xlink="http://www.w3.org/1999/xlink" xlink:href="#Compass" x="550" y="50"
        transform="rotate(-142.00692112991283 550 50)"/>
   <use xmlns:xlink="http://www.w3.org/1999/xlink" xlink:href="#GolfMLLogoSmall" x="10"
        y="575"/>
</svg>