<?xml version="1.0" encoding="UTF-8"?>
<svg xmlns="http://www.w3.org/2000/svg" width="600" height="600">
   <defs>
      <style xmlns:g="http://code.google.com/p/golfml"
             xmlns:xlink="http://www.w3.org/1999/xlink"
             xmlns:xs="http://www.w3.org/2001/XMLSchema"
             type="text/css">
/* Stylesheet for SVG elements
 *
 *
 * Classes for area of interest (surfaces)
 *
 * DRAWING
 */
.background {
		fill: url(#background-gradient);
}

.hole-limits {
	fill: none;
	stroke: #ccc;
	stroke-width: 1px;
	stroke-dasharray: 10,10;
}

.hole-contour {
	fill: #030;
	stroke: #fff;
	stroke-width: 2px;
}


/* GROUND
 */
.fairway {
	fill: url(#fairway-pattern);
	stroke: #0b0;
	stroke-width: 3px; /* fairway fringe... */
}

.tee {
	fill: #00c800;
	stroke: #0f0;
	stroke-width: 1px;
}

.fringe {
	fill: #0A0;
}

.green {
	fill: url(#green-gradient);
	stroke: #0f0;
	stroke-width: 1px;
}

.semi-rough,
.light-rough {
	fill: #080;
	stroke: #08800D;
	stroke-width: 1px;
}

.rough {
	fill: url(#rough-gradient);
	stroke: #07660A;
	stroke-width: 1px;
}

.heavy-rough {
	fill: #040;
	stroke: #074D08;
	stroke-width: 1px;
}

.ground {
	fill: #7f400c;
	stroke: #fdcc6a;
	stroke-width: 1px;
}


/* WATER
 */
.lateral-water {
	fill: url(#lateral-water-gradient);
	stroke: red;
	stroke-width: 4px;
}

.front-water, .water {
	fill: #37f;
	stroke: yellow;
	stroke-width: 3px;
}


/* SPECIAL
 */
.under-repair {
	fill: none;
	stroke: #00d;
	stroke-width: 2px;
}

.out-of-bound { /* line only */
	fill: none;
	stroke: white;
	stroke-width: 4px;
}

.out-of-bound-area {
	fill: #ccc;
	stroke: white;
	stroke-width: 4px;
}


/* TRAPS
 */
.trap,
.bunker {
	fill: #92cf94;
	stroke: #4c994c;
	stroke-width: 1px;
}

.grass-trap,
.grass-bunker {
	fill: #050;
	stroke: #0A0;
	stroke-width: 1px;
}

.sand-trap,
.sand-bunker,
.greenside-trap,
.greenside-bunker {
	fill: #eec;
	stroke: #040;
	stroke-width: 2px;
}

.fairway-trap,
.fairway-bunker {
	fill: #eec;
	stroke: #030;
	stroke-width: 2px;
}


/* OBSTACLES
 */
.tree {
	fill: #062;
	stroke: #0c6;
	stroke-width: 1px;
}

.trees {
	fill: #062;
	stroke: #0c6;
	stroke-width: 1px;
}

.bush {
	fill: #00b259;
	stroke: #7f400c;
	stroke-width: 1px;
}


.path {
	fill: #666;
	stroke: #bbb;
	stroke-width: 1px;
}

.building,
.construction {
	fill: #fdcc6a;
	stroke: #7f400C;
	stroke-width: 1px;
}

.obstruction {
	fill: #555;
	stroke: #999;
	stroke-width: 1px;
}


.other {
	fill: #ddd;
	stroke: #666;
	stroke-width: 1px;
}

/* Classes for point of interest (points)
 *
 */
.dogleg {
	fill: #000;
}

.aim {
	fill: #fff;
	stroke: #f00;
	stroke-width: 1px;
}

.tees {
	fill: #00f;
}

.tees-hollow {
	stroke: #fff;
	stroke-width: 0.5px;
}

.hole {
	fill: #fff;
}

.distance-marker-100,
.distance-marker-close {
	fill: #44f;
	stroke: #00f;
	stroke-width: 1px;
}

.distance-marker-150,
.distance-marker-135,
.distance-marker,
.distance-marker-mid {
	fill: #f44;
	stroke: #f00;
	stroke-width: 1px;
}

.distance-marker-200,
.distance-marker-far {
	fill: #dd4;
	stroke: #ff0;
	stroke-width: 1px;
}

.green-region-delimiter {
	fill: none;
	stroke: #fff;
	stroke-width: 0.5;
	stroke-dasharray: 4,2;
}

.neutral {
	fill: none;
	stroke: #888;
	stroke-width: 1px;
}
.one-tree {
	fill: #14920D;
	stroke: #165822;
	stroke-width: 3px;
	stroke-linecap: round;
	stroke-linejoin: round; 
}

/* Classes for special decorative objects
 *
 */
.compass-center {
	fill: #ddd;
	stroke: #fff;
	stroke-width: 1px;
}
.compass-needle {
	fill: #ddd;
	stroke: #fff;
	stroke-width: 1px;
}
.compass-north {
	fill: #fff;
}
.flag-pole {
	fill: none;
	stroke: #f00;
	stroke-width: 2px;
}
.flag-flag {
	fill: #ff0;
	stroke: #f00;
	stroke-width: 1px;
}
.flag-cup {
	fill: #fff;
}
/* Information box */
.info-background {
	fill: #ddd;
}
.info-hole {
	font-family: Georgia, "Times New Roman", Times, serif;
	font-size: xx-large;
}
.info-par {
	font-family: Georgia, "Times New Roman", Times, serif;
	font-size: x-large;
}
.info-length {
	font-family: Georgia, "Times New Roman", Times, serif;
	font-size: large;
}
/* Circle for distances */
.circle-from-green {
	fill: none;
	stroke: #fff;
	stroke-width: 1px;
	stroke-dasharray: 4,4;
}
.circle-from-tee {
	fill: none;
	stroke: #f00;
	stroke-width: 1px;
	stroke-dasharray: 8,8;
}
/* Dynamic objects */
.target {
	fill: none;
	stroke: #f00;
	stroke-width: 2px;
}
.target-filled {
	fill: #f00;
	fill-opacity: 0.5;
	stroke: #f00;
}
.ball {
	fill: #fff;
	stroke: none;
}
.trajectory {
	fill: none;
	stroke: #fff;
	stroke-width: 2px;
}
.distance {
	fill: #fff;
}
</style>
      <linearGradient xmlns:g="http://code.google.com/p/golfml"
                      xmlns:xlink="http://www.w3.org/1999/xlink"
                      xmlns:xs="http://www.w3.org/2001/XMLSchema"
                      id="background-straight">
         <stop offset="5%" stop-color="#002"/>
         <stop offset="95%" stop-color="#004"/>
      </linearGradient>
      <linearGradient xmlns:g="http://code.google.com/p/golfml"
                      xmlns:xlink="http://www.w3.org/1999/xlink"
                      xmlns:xs="http://www.w3.org/2001/XMLSchema"
                      id="background-gradient"
                      gradientTransform="rotate(30)"
                      xlink:href="#background-straight"/>
      <linearGradient xmlns:g="http://code.google.com/p/golfml"
                      xmlns:xlink="http://www.w3.org/1999/xlink"
                      xmlns:xs="http://www.w3.org/2001/XMLSchema"
                      id="lateral-water-straight">
         <stop offset="5%" stop-color="#006"/>
         <stop offset="95%" stop-color="#008"/>
      </linearGradient>
      <linearGradient xmlns:g="http://code.google.com/p/golfml"
                      xmlns:xlink="http://www.w3.org/1999/xlink"
                      xmlns:xs="http://www.w3.org/2001/XMLSchema"
                      id="lateral-water-gradient"
                      gradientTransform="rotate(60)"
                      xlink:href="#lateral-water-straight"/>
      <linearGradient xmlns:g="http://code.google.com/p/golfml"
                      xmlns:xlink="http://www.w3.org/1999/xlink"
                      xmlns:xs="http://www.w3.org/2001/XMLSchema"
                      id="rough-straight">
         <stop offset="0%" stop-color="#030"/>
         <stop offset="25%" stop-color="#060"/>
         <stop offset="50%" stop-color="#040"/>
         <stop offset="75%" stop-color="#060"/>
         <stop offset="100%" stop-color="#080"/>
      </linearGradient>
      <linearGradient xmlns:g="http://code.google.com/p/golfml"
                      xmlns:xlink="http://www.w3.org/1999/xlink"
                      xmlns:xs="http://www.w3.org/2001/XMLSchema"
                      id="rough-gradient"
                      gradientTransform="rotate(70)"
                      xlink:href="#rough-straight"/>
      <linearGradient xmlns:g="http://code.google.com/p/golfml"
                      xmlns:xlink="http://www.w3.org/1999/xlink"
                      xmlns:xs="http://www.w3.org/2001/XMLSchema"
                      id="green-straight">
         <stop offset="0%" stop-color="#0d0"/>
         <stop offset="25%" stop-color="#0e0"/>
         <stop offset="50%" stop-color="#0c0"/>
         <stop offset="75%" stop-color="#0e0"/>
         <stop offset="100%" stop-color="#0b0"/>
      </linearGradient>
      <linearGradient xmlns:g="http://code.google.com/p/golfml"
                      xmlns:xlink="http://www.w3.org/1999/xlink"
                      xmlns:xs="http://www.w3.org/2001/XMLSchema"
                      id="green-gradient"
                      gradientTransform="rotate(75)"
                      xlink:href="#green-straight"/>
      <pattern xmlns:g="http://code.google.com/p/golfml"
               xmlns:xlink="http://www.w3.org/1999/xlink"
               xmlns:xs="http://www.w3.org/2001/XMLSchema"
               id="fairway-straight"
               patternUnits="userSpaceOnUse"
               x="0"
               y="0"
               width="20"
               height="20"
               viewBox="0 0 20 20">
         <rect x="0" y="0" width="10" height="10" fill="#00c000"/>
         <rect x="10" y="10" width="10" height="10" fill="#00c800"/>
         <rect x="10" y="0" width="10" height="10" fill="#00bc00"/>
         <rect x="0" y="10" width="10" height="10" fill="#00b800"/>
      </pattern>
      <pattern xmlns:g="http://code.google.com/p/golfml"
               xmlns:xlink="http://www.w3.org/1999/xlink"
               xmlns:xs="http://www.w3.org/2001/XMLSchema"
               id="fairway-pattern"
               patternTransform="rotate(60)"
               xlink:href="#fairway-straight"/>
      <g xmlns:g="http://code.google.com/p/golfml"
         xmlns:xlink="http://www.w3.org/1999/xlink"
         xmlns:xs="http://www.w3.org/2001/XMLSchema"
         id="Tree"
         transform="translate(-76 -66) scale(0.4)">
         <path class="one-tree"
               d="M191.991,126.799c-11.163,0-21.022,4.032-27.033,10.191c-17.556,0.615-31.556,11.151-31.556,24.079       c0,7.537,4.759,14.266,12.203,18.693c0.876,12.855,18.43,23.128,39.939,23.128c22.07,0,39.979-10.812,39.979-24.136       c0-0.065-0.012-0.13-0.013-0.195c6.33-2.866,10.33-6.992,10.33-11.595c0-4.806-4.343-9.104-11.164-11.977       c0.31-1.318,0.478-2.67,0.478-4.054C225.154,137.612,210.297,126.799,191.991,126.799z"/>
      </g>
      <g xmlns:g="http://code.google.com/p/golfml"
         xmlns:xlink="http://www.w3.org/1999/xlink"
         xmlns:xs="http://www.w3.org/2001/XMLSchema"
         id="TeeSet">
         <circle cx="-5" cy="0" r="2"/>
         <circle cx="5" cy="0" r="2"/>
      </g>
      <g xmlns:g="http://code.google.com/p/golfml"
         xmlns:xlink="http://www.w3.org/1999/xlink"
         xmlns:xs="http://www.w3.org/2001/XMLSchema"
         id="DistanceMarker">
         <circle r="6"/>
      </g>
      <g xmlns:g="http://code.google.com/p/golfml"
         xmlns:xlink="http://www.w3.org/1999/xlink"
         xmlns:xs="http://www.w3.org/2001/XMLSchema"
         id="Dogleg">
         <circle r="4"/>
      </g>
      <g xmlns:g="http://code.google.com/p/golfml"
         xmlns:xlink="http://www.w3.org/1999/xlink"
         xmlns:xs="http://www.w3.org/2001/XMLSchema"
         id="Aim">
         <circle r="4"/>
      </g>
      <g xmlns:g="http://code.google.com/p/golfml"
         xmlns:xlink="http://www.w3.org/1999/xlink"
         xmlns:xs="http://www.w3.org/2001/XMLSchema"
         id="Hole">
         <circle r="2"/>
      </g>
      <g xmlns:g="http://code.google.com/p/golfml"
         xmlns:xlink="http://www.w3.org/1999/xlink"
         xmlns:xs="http://www.w3.org/2001/XMLSchema"
         id="Ball">
         <image xlink:href="../stylesheets/images/golf-ball.png" width="16" height="16"
                transform="translate(-8 -8)"/>
      </g>
      <g xmlns:g="http://code.google.com/p/golfml"
         xmlns:xlink="http://www.w3.org/1999/xlink"
         xmlns:xs="http://www.w3.org/2001/XMLSchema"
         id="Target">
         <circle class="target-filled" r="12"/>
      </g>
      <g xmlns:g="http://code.google.com/p/golfml"
         xmlns:xlink="http://www.w3.org/1999/xlink"
         xmlns:xs="http://www.w3.org/2001/XMLSchema"
         id="Flag"
         transform="translate(0 -30) scale(-0.2 0.2)">
         <line id="FlagPole" class="flag-pole" x1="0.5" y1="0" x2="0.5" y2="150"/>
         <circle id="FlagCup" class="flag-cup" r="10" cx="0" cy="145"/>
         <g id="FlagFlag">
            <path class="flag-flag"
                  d="M55.339,45.968c-18.28-14.516-36.559,14.516-54.839,0c0-12.097,0-24.193,0-36.29        c18.28,14.516,36.559-14.516,54.839,0C55.339,21.774,55.339,33.871,55.339,45.968z"/>
         </g>
      </g>
      <g xmlns:g="http://code.google.com/p/golfml"
         xmlns:xlink="http://www.w3.org/1999/xlink"
         xmlns:xs="http://www.w3.org/2001/XMLSchema"
         id="Compass">
         <polygon id="CompassNeedle" class="compass-needle" points="0,30 -8,0 0,-20 8,0"/>
         <circle id="CompassCenter" class="compass-center" r="10"/>
         <text id="CompassNorth" class="compass-north" x="-4.7" y="40">N</text>
      </g>
      <g xmlns:g="http://code.google.com/p/golfml"
         xmlns:xlink="http://www.w3.org/1999/xlink"
         xmlns:xs="http://www.w3.org/2001/XMLSchema"
         id="GolfMLLogoSmall">
         <image xlink:href="../stylesheets/images/golfml-small.png" width="80" height="15"/>
      </g>
   </defs>
   <rect class="background" x="0" y="0" width="600" height="600"/>
   <g transform="translate(300,300) scale(-0.9946266963312409,0.9946266963312409) rotate(95.94227820918087)">
      <path class="hole-contour"
            d="M284.543204675942,30.389182402901206Q284.543204675942,30.389182402901206 250.9275580417595,19.069236174354796 L234.1197347246683,13.409263060081594Q200.50408809048582,2.0893168315351835 160.43984321339565,-5.164864639121532 L140.4077207748506,-8.791955374449891Q100.3434758977604,-16.046136845106606 87.63053488636093,-3.664765531862802 L81.2740643806612,2.5259201247591Q68.56112336926174,14.907291438002904 42.62460231255079,16.97851856177071 L29.656341784195313,18.01413212365461Q3.71982072748437,20.085359247422414 -23.88046765797418,27.434300926931165 L-37.68061185070344,31.10877176668554Q-65.280900236162,38.45771344619429 -90.232542005896,52.316871598010025 L-102.708362890763,59.24645067391789Q-127.660004660497,73.10560882573363 -160.76454885025655,95.3633643287608 L-177.31682094513633,106.49224208027437Q-210.42136513489586,128.74999758330154 -218.24476634353147,122.93800687081865 L-222.15646694784925,120.0320115145772Q-229.97986815648486,114.22002080209433 -248.64430440578477,87.58464052469577 L-257.97652253043475,74.26695038599651Q-276.64095877973466,47.631570108597955 -276.02434012850904,40.0335344696508 L-275.71603080289617,36.234516650177234Q-275.09941215167055,28.636481011230085 -268.8970150118681,18.9030845313483 L-265.79581644196685,14.036386291407403Q-259.5934193021644,4.302989811525616 -247.84704762319947,2.373389362139185 L-241.97386178371698,1.4085891374459698Q-230.22749010475204,-0.521011311940461 -166.95236615843737,-58.15920650476366 L-135.31480418528005,-86.97830410117527Q-72.03968023896539,-144.61649929399846 -19.11991145382543,-135.55500011579846 L7.339972938744552,-131.02425052669844Q60.25974172388451,-121.96275134849844 103.42453918359242,-108.69157025823372 L125.00693791344636,-102.05597971310137Q168.17173537315426,-88.78479862283665 197.76184221543554,-72.08533286977966 L212.55689563657614,-63.735599993251185Q242.14700247885742,-47.0361342401942 265.2882014769418,-26.27122342977522 L276.8588009759841,-15.888768024565735Q299.9999999740685,4.876142785853248 293.8172818548179,15.081358632672433 L290.72592279519256,20.18396655608202Q284.543204675942,30.389182402901206 284.543204675942,30.389182402901206 Z"/>
      <clipPath id="HoleContour" transform="scale(1.2)">
         <path class="hole-contour"
               d="M284.543204675942,30.389182402901206Q284.543204675942,30.389182402901206 250.9275580417595,19.069236174354796 L234.1197347246683,13.409263060081594Q200.50408809048582,2.0893168315351835 160.43984321339565,-5.164864639121532 L140.4077207748506,-8.791955374449891Q100.3434758977604,-16.046136845106606 87.63053488636093,-3.664765531862802 L81.2740643806612,2.5259201247591Q68.56112336926174,14.907291438002904 42.62460231255079,16.97851856177071 L29.656341784195313,18.01413212365461Q3.71982072748437,20.085359247422414 -23.88046765797418,27.434300926931165 L-37.68061185070344,31.10877176668554Q-65.280900236162,38.45771344619429 -90.232542005896,52.316871598010025 L-102.708362890763,59.24645067391789Q-127.660004660497,73.10560882573363 -160.76454885025655,95.3633643287608 L-177.31682094513633,106.49224208027437Q-210.42136513489586,128.74999758330154 -218.24476634353147,122.93800687081865 L-222.15646694784925,120.0320115145772Q-229.97986815648486,114.22002080209433 -248.64430440578477,87.58464052469577 L-257.97652253043475,74.26695038599651Q-276.64095877973466,47.631570108597955 -276.02434012850904,40.0335344696508 L-275.71603080289617,36.234516650177234Q-275.09941215167055,28.636481011230085 -268.8970150118681,18.9030845313483 L-265.79581644196685,14.036386291407403Q-259.5934193021644,4.302989811525616 -247.84704762319947,2.373389362139185 L-241.97386178371698,1.4085891374459698Q-230.22749010475204,-0.521011311940461 -166.95236615843737,-58.15920650476366 L-135.31480418528005,-86.97830410117527Q-72.03968023896539,-144.61649929399846 -19.11991145382543,-135.55500011579846 L7.339972938744552,-131.02425052669844Q60.25974172388451,-121.96275134849844 103.42453918359242,-108.69157025823372 L125.00693791344636,-102.05597971310137Q168.17173537315426,-88.78479862283665 197.76184221543554,-72.08533286977966 L212.55689563657614,-63.735599993251185Q242.14700247885742,-47.0361342401942 265.2882014769418,-26.27122342977522 L276.8588009759841,-15.888768024565735Q299.9999999740685,4.876142785853248 293.8172818548179,15.081358632672433 L290.72592279519256,20.18396655608202Q284.543204675942,30.389182402901206 284.543204675942,30.389182402901206 Z"/>
      </clipPath>
      <path class="tee"
            d="M293.66200906890964,3.9970421455127862Q293.66200906890964,3.9970421455127862 292.0330323865291,7.255160627011574 L291.21854404533883,8.884219867760969Q289.5895673629583,12.142338349259756 275.5794387239317,5.952173914337231 L268.57437440441834,2.8570916968759694Q254.56424576539175,-3.3330727380465555 241.85744745200293,-7.2425125098993215 L235.5040482953085,-9.197232395825704Q222.7972499819197,-13.10667216767847 224.7520088908706,-16.364816524865596 L225.72938834534608,-17.99388870345916Q227.684147254297,-21.252033060646287 241.36842324021111,-16.36517076227379 L248.2105612331682,-13.921739613087542Q261.8948372190823,-9.034877314715045 274.60170595901326,-3.822109530623912 L280.9551403289787,-1.2157256385783466Q293.66200906890964,3.9970421455127862 293.66200906890964,3.9970421455127862 Z"/>
      <path class="fairway"
            d="M108.15206282007641,-75.56198601489908Q108.15206282007641,-75.56198601489908 110.87995098242118,-70.4729698690156 L112.24389506359356,-67.92846179607385Q114.97178322593832,-62.83944565019037 114.67805747729228,-56.26939024408264 L114.53119460296925,-52.98436254102878Q114.23746885432321,-46.41430713492105 111.36611467993018,-41.46826391124985 L109.93043759273367,-38.995242299414244Q107.05908341834063,-34.04919907574304 101.64400174041684,-34.3929990374324 L98.93646090145495,-34.56489901827708Q93.52137922353116,-34.908698979966445 85.70447443910616,-37.2698195280061 L81.79602204689368,-38.450379802025935Q73.97911726246869,-40.81150035006559 63.877241809888574,-42.49491683155216 L58.826304083598515,-43.33662507229544Q48.7244286310184,-45.02004155378201 34.019249366100425,-46.11804221759579 L26.666659733641435,-46.66704254950268Q11.961480468723462,-47.76504321331647 -2.4338327481804374,-50.612150943435964 L-9.631489356632384,-52.035704808495716Q-24.026802573536283,-54.88281253861521 -36.74016449892585,-54.52415264906066 L-43.09684546162063,-54.34482270428338Q-55.810207387010195,-53.98616281472883 -64.33909356307609,-50.530345868661136 L-68.60353665110902,-48.80243739562729Q-77.13242282717492,-45.346620449559595 -84.02942815112687,-39.84010451429929 L-87.47793081310283,-37.08684654666914Q-94.37493613705477,-31.58033061140884 -99.86596226321758,-24.78477715022183 L-102.611475326299,-21.38700041962833Q-108.10250145246181,-14.59144695844132 -110.74778490413246,-8.883681647464744 L-112.07042662996778,-6.029798991976456Q-114.71571008163843,-0.3220336809998788 -120.66687179474417,4.757746787609213 L-123.64245265129705,7.29763702191376Q-129.59361436440278,12.377417490522852 -136.49890445794242,17.691481394868614 L-139.95154950471226,20.348513347041493Q-146.8568395982519,25.662577251387255 -151.03333901344942,27.193866866353037 L-153.1215887210482,27.959511673835927Q-157.29808813624572,29.49080128880171 -161.00567829872665,28.49455222811819 L-162.85947337996714,27.996427697776433Q-166.56706354244807,27.000178637092915 -169.16181061991,29.427133771236512 L-170.459184158641,30.64061133830831Q-173.05393123610293,33.06756647245191 -173.087721558721,36.7333937291843 L-173.10461672003,38.5663073575505Q-173.13840704264808,42.23213461428289 -174.1513965472541,45.55474116907058 L-174.65789129955715,47.21604444646443Q-175.67088080416318,50.53865100125212 -178.08982733069672,52.57225700191977 L-179.29930059396347,53.5890600022536Q-181.718247120497,55.62266600292126 -184.78151628089205,56.14135532004006 L-186.31315086108955,56.40069997859946Q-189.3764200214846,56.91938929571827 -191.89597504118737,61.07884104448796 L-193.15575255103877,63.1585669188728Q-195.67530757074155,67.31801866764249 -199.62588665550132,69.61098625928187 L-201.60117619788122,70.75747005510156Q-205.55175528264098,73.05043764674095 -209.94579691540415,74.01263643103752 L-212.14281773178573,74.4937358231858Q-216.5368593645489,75.45593460748238 -220.2528060641786,74.26723054570004 L-222.11077941399344,73.67287851480889Q-225.82672611362315,72.48417445302655 -231.15786109622476,69.62985041737902 L-233.82342858752557,68.20268839955524Q-239.15456357012718,65.3483643639077 -241.02072065824984,62.343605692981065 L-241.9537992023112,60.84122635751774Q-243.81995629043385,57.8364676865911 -243.41790407813727,53.768922110582054 L-243.21687797198896,51.735149322577534Q-242.81482575969238,47.66760374656849 -240.92289998651353,42.37820361148072 L-239.97693709992407,39.73350354393684Q-238.08501132674522,34.444103408849074 -234.8455863319753,29.09620351982562 L-233.22587383459035,26.4222535753139Q-229.98644883982044,21.074353686290447 -225.0482942012775,19.317083047847436 L-222.57921688200605,18.438447728625935Q-217.64106224346313,16.681177090182924 -210.72778900168078,15.995348253830267 L-207.2711523807896,15.652433835653937Q-200.35787913900725,14.96660499930128 -193.9298523063439,11.987523348243611 L-190.7158388900122,10.497982522714777Q-184.28781205734884,7.518900871657108 -175.83379196097934,-2.1053858171704967 L-171.60678191279462,-6.917529161584296Q-163.1527618164251,-16.5418158504119 -155.02562526507947,-20.366040461016166 L-150.96205698940665,-22.278152766318296Q-142.834920438061,-26.10237737692256 -135.72038948202822,-31.0398042433998 L-132.16312400401185,-33.50851767663842Q-125.04859304797907,-38.44594454311566 -116.89596825603566,-46.12846556027683 L-112.81965586006395,-49.96972606885741Q-104.66703106812054,-57.65224708601858 -100.11342288115502,-63.82855677212749 L-97.83661878767225,-66.91671161518194Q-93.28301060070673,-73.09302130129085 -87.35682515928441,-78.7502968668738 L-84.39373243857325,-81.57893464966527Q-78.46754699715093,-87.23621021524822 -71.98053841314407,-93.30353776819307 L-68.73703412114065,-96.3372015446655Q-62.25002553713379,-102.40452909761035 -49.92993759319977,-102.93900367506198 L-43.769893621232754,-103.2062409637878Q-31.449805677298738,-103.74071554123944 -16.644354441723156,-100.33281661172998 L-9.241628823935368,-98.62886714697527Q5.563822411640213,-95.22096821746581 17.27254168764922,-92.06440501045823 L23.126901325653726,-90.48612340695445Q34.83562060166273,-87.32956019994687 47.38997994062913,-86.9096967872823 L53.66715961011233,-86.69976508095Q66.22151894907873,-86.27990166828543 78.24847540325253,-84.67992765561603 L84.26195363033943,-83.87994064928134Q96.28891008451323,-82.27996663661193 101.0341711787385,-79.5927743879268 L103.40680172585114,-78.24917826358421Q108.15206282007641,-75.56198601489908 108.15206282007641,-75.56198601489908 Z"/>
      <path class="greenside-trap"
            d="M-158.0974864881751,32.48695698423313Q-158.0974864881751,32.48695698423313 -157.39530299645594,34.35898005918999 L-157.0442112505964,35.29499159666841Q-156.34202775887724,37.16701467162527 -157.51196464989943,38.68818708559079 L-158.09693309541052,39.44877329257355Q-159.2668699864327,40.96994570653907 -161.48998705586496,40.853138986065694 L-162.6015455905811,40.794735625829Q-164.82466266001336,40.67792890535562 -166.34607597172254,38.22093311737343 L-167.10678262757713,36.99243522338234Q-168.62819593928631,34.53543943540014 -166.4051936613599,32.5461524793535 L-165.29369252239673,31.55150900133018Q-163.0706902444703,29.56222204528354 -161.08140874195223,30.732116020863376 L-160.08676799069318,31.317063008653296Q-158.0974864881751,32.48695698423313 -158.0974864881751,32.48695698423313 Z"/>
      <path class="greenside-trap"
            d="M-157.97861815182813,51.4894026857711Q-157.97861815182813,51.4894026857711 -157.55501883257287,53.89656466988704 L-157.34321917294523,55.10014566194502Q-156.91961985368997,57.507307646060966 -158.60108588044685,58.473908045632335 L-159.44181889382526,58.957208245418016Q-161.12328492058214,59.923808644989386 -162.85727610298704,59.67991699110481 L-163.72427169418947,59.55797116416252Q-165.45826287659438,59.31407951027794 -166.77392962031593,58.41373057540991 L-167.4317629921767,57.9635561079759Q-168.74742973589824,57.06320717310786 -168.38163203241842,55.19625575373295 L-168.1987331806785,54.26278004404549Q-167.83293547719867,52.39582862467058 -165.83015390323615,51.4791096468849 L-164.82876311625486,51.020750157992055Q-162.82598154229234,50.10403118020638 -160.88703618610666,50.65817978243226 L-159.9175635080138,50.93525408354521Q-157.97861815182813,51.4894026857711 -157.97861815182813,51.4894026857711 Z"/>
      <path class="greenside-trap"
            d="M-182.20133387764452,41.21087751754555Q-182.20133387764452,41.21087751754555 -181.31504310983541,42.512843861205056 L-180.87189772593086,43.163827033034806Q-179.98560695812176,44.465793376694315 -180.7281343695807,46.47676022515835 L-181.09939807531018,47.48224364939036Q-181.8419254867691,49.4932104978544 -183.4180893378317,49.94460607270148 L-184.20617126336302,50.17030386012502Q-185.78233511442562,50.6216994349721 -187.03153404411964,49.78229846877589 L-187.65613350896666,49.36259798567778Q-188.90533243866068,48.52319701948157 -189.3095883922493,46.56200586044335 L-189.51171636904363,45.58141028092423Q-189.91597232263226,43.62021912188601 -188.0183706941394,41.750603850969824 L-187.06956987989298,40.81579621551174Q-185.17196825140013,38.946180944595554 -183.98371450189788,39.85205957377555 L-183.38958762714677,40.30499888836555Q-182.20133387764452,41.21087751754555 -182.20133387764452,41.21087751754555 Z"/>
      <path class="fringe"
            d="M-194.73062844464798,28.36768080044428Q-194.73062844464798,28.36768080044428 -193.4032654103746,30.157443486533502 L-192.73958389323792,31.052324829578115Q-191.41222085896453,32.84208751566734 -191.40761836648488,34.20025577985163 L-191.4053171202451,34.87933991194378Q-191.40071462776544,36.237508176128074 -191.6932668635743,38.26059073814202 L-191.83954298147876,39.272132019149Q-192.13209521728763,41.295214581162945 -193.40082885942743,43.36067052518961 L-194.03519568049737,44.393398497202945Q-195.30392932263717,46.45885444122961 -195.95482103392126,47.73680552825328 L-196.28026688956334,48.375781071765104Q-196.93115860084743,49.65373215878877 -195.37980885900018,51.59677252420471 L-194.60413398807654,52.568292706912686Q-193.0527842462293,54.511333072328625 -195.07606077525168,56.718210177457216 L-196.08769903976287,57.82164873002151Q-198.11097556878525,60.0285258351501 -201.03972272724099,62.655052494016815 L-202.50409630646882,63.968315823450176Q-205.43284346492456,66.59484248231689 -208.38031316325166,67.53781299755819 L-209.85404801241523,68.00929825517883Q-212.80151771074233,68.95226877042013 -215.786642687,69.02752409261556 L-217.27920517512888,69.0651517537133Q-220.26433015138656,69.14040707590873 -223.17864889703102,68.34323907129381 L-224.63580826985324,67.94465506898635Q-227.5501270154977,67.14748706437143 -230.0564790951398,65.73492993727191 L-231.30965513496082,65.02865137372214Q-233.8160072146029,63.61609424662262 -235.2683139868803,61.451426995081064 L-235.99446737301898,60.369093369310285Q-237.44677414529636,58.204426117768726 -237.49139668331821,55.92430860888296 L-237.51370795232916,54.784249854440084Q-237.558330490351,52.50413234555432 -237.34826693784848,49.8326140946208 L-237.2432351615972,48.496854969154036Q-237.03317160909467,45.82533671822052 -235.92469389325163,42.57146521714696 L-235.37045503533008,40.94452946661017Q-234.26197731948704,37.69065796553661 -232.53811152556312,34.84474687325541 L-231.67617862860115,33.42179132711481Q-229.95231283467723,30.575880234833615 -228.14596786076294,28.378405554827005 L-227.2427953738058,27.2796682148237Q-225.4364503998915,25.08219353481709 -222.929887643534,23.9953510706606 L-221.67660626535522,23.45192983858236Q-219.1700435089977,22.36508737442587 -216.7507623823061,21.771048376648245 L-215.5411218189603,21.474028877759437Q-213.1218406922687,20.879989879981814 -210.0612842756765,21.29047680546065 L-208.5310060673804,21.495720268200063Q-205.4704496507882,21.9062071936789 -203.2022005774904,22.840104594367947 L-202.06807604084148,23.307053294712468Q-199.79982696754368,24.240950695401516 -197.7721475583854,25.89164273741862 L-196.75830785380626,26.716988758427174Q-194.73062844464798,28.36768080044428 -194.73062844464798,28.36768080044428 Z"/>
      <path class="green"
            d="M-198.9218789414527,28.821292362189322Q-198.9218789414527,28.821292362189322 -197.08053559477298,31.186424326894606 L-196.1598639214331,32.368990309247245Q-194.3185205747534,34.73412227395253 -194.34226309782554,36.691202501373844 L-194.35413435936158,37.66974261508451Q-194.37787688243372,39.626822842505824 -195.18440634994963,41.074534276673674 L-195.58767108370756,41.7983899937576Q-196.39420055122346,43.24610142792545 -197.60634707316567,45.3634362921142 L-198.21242033413674,46.42210372420858Q-199.42456685607894,48.53943858839733 -198.65129695275354,50.08157639815637 L-198.26466200109084,50.852645303035885Q-197.49139209776544,52.394783112794926 -199.58783014808887,55.41985722830219 L-200.63604917325057,56.93239428605582Q-202.732487223574,59.957468401563084 -204.87834479392816,61.843661950607164 L-205.95127357910522,62.786758725129204Q-208.0971311494594,64.67295227417328 -212.31547757927578,65.1277494933997 L-214.42465079418395,65.35514810301292Q-218.64299722400034,65.80994532223934 -222.983830099819,64.69436449767824 L-225.1542465377283,64.13657408539768Q-229.49507941354696,63.020993260836576 -231.72546676511786,60.455428217447576 L-232.8406604409033,59.172645695753076Q-235.0710477924742,56.607080652364075 -235.3089640720815,53.629004363903164 L-235.42792221188517,52.13996621967271Q-235.66583849149248,49.161889931211796 -234.98651225013484,46.03532102279614 L-234.64684912945603,44.47203656858831Q-233.9675228880984,41.34546766017265 -232.24836499376394,38.3910921667309 L-231.38878604659675,36.91390442001002Q-229.6696281522623,33.95952892656827 -226.82570660372596,30.630315495314246 L-225.4037458294578,28.965708779687237Q-222.55982428092145,25.636495348433215 -218.73756012479436,24.81854554758386 L-216.82642804673083,24.409570647159185Q-213.00416389060373,23.59162084630983 -209.6111531277489,24.15067984638702 L-207.91464774632152,24.43020934642562Q-204.5216369834667,24.98926834650281 -202.2817337666611,26.522077952777416 L-201.1617821582583,27.288482755914718Q-198.9218789414527,28.821292362189322 -198.9218789414527,28.821292362189322 Z"/>
      <path class="trees"
            d="M-268.9050321625173,24.21055203052971Q-268.9050321625173,24.21055203052971 -262.61169084327605,31.458903203903358 L-259.46502018365544,35.08307879059018Q-253.1716788644142,42.33142996396383 -250.9208613201508,49.75530055811388 L-249.79545254801914,53.46723585518891Q-247.54463500375576,60.89110644933896 -239.61111800059663,70.38258244605036 L-235.64435949901704,75.12832044440606Q-227.71084249585792,84.61979644111746 -221.59340022161055,92.26151715076118 L-218.53467908448684,96.08237750558304Q-212.41723681023947,103.72409821522676 -205.91483614124945,111.34911614799478 L-202.66363580675446,115.16162511437878Q-196.16123513776444,122.7866430471468 -195.0905414605431,129.6831580503211 L-194.55519462193246,133.13141555190828Q-193.48450094471113,140.0279305550826 -203.41081413450738,142.38747565287326 L-208.3739707294055,143.56724820176856Q-218.30028391920175,145.92679329955922 -228.70313570961105,141.74979590982298 L-233.9045616048157,139.66129721495489Q-244.307413395225,135.48429982521864 -251.6299875814397,126.73777579187845 L-255.29127467454708,122.36451377520835Q-262.6138488607618,113.61798974186816 -271.19172984707006,102.61165325251449 L-275.4806703402242,97.10848500783766Q-284.0585513265325,86.102148518484 -290.4351307868171,72.49301667044321 L-293.6234205169594,65.68845074642283Q-299.99999997724404,52.07931889838205 -299.4552801021523,42.41256567147153 L-299.18292016460646,37.579189058016276Q-298.6382002895147,27.91243583110576 -292.84614293820124,23.61081671385813 L-289.9501142625445,21.460007155234315Q-284.15805691123103,17.158388037986686 -278.0568470117455,19.979253635003897 L-275.0062420620028,21.389686433512498Q-268.9050321625173,24.21055203052971 -268.9050321625173,24.21055203052971 Z"/>
      <path class="trees"
            d="M169.419295292254,-85.93263666863788Q169.419295292254,-85.93263666863788 167.64446546281616,-82.38416306110678 L166.75705054809725,-80.60992625734123Q164.98222071865942,-77.06145264981012 162.47132691174647,-77.14546807829421 L161.21588000829,-77.18747579253626Q158.70498620137704,-77.27149122102036 146.9878626893655,-80.620787700357 L141.1293009333597,-82.29543594002533Q129.41217742134816,-85.64473241936197 120.57426823931209,-89.31167499898726 L116.15531364829407,-91.1451462887999Q107.317404466258,-94.81208886842519 100.25375167384377,-97.59161674746649 L96.72192527763664,-98.98138068698715Q89.65827248522241,-101.76090856602845 82.09223346137553,-102.78286548291004 L78.3092139494521,-103.29384394135084Q70.74317492560522,-104.31580085823244 62.901168506821776,-107.2543992807535 L58.980165297430055,-108.72369849201405Q51.138158878646614,-111.66229691453512 47.59798282497356,-113.24453177646913 L45.82789479813704,-114.03564920743615Q42.28771874446399,-115.61788406937016 38.345349122947496,-113.1325445709323 L36.37416431218925,-111.88987482171338Q32.43179469067276,-109.40453532327551 26.648383664024884,-109.3465661322835 L23.75667815070095,-109.3175815367875Q17.973267124053073,-109.25961234579549 10.717110986984256,-112.03069233530387 L7.089032918449851,-113.41623233005807Q-0.16712321861896662,-116.18731231956644 -8.929906208622963,-118.1215686828822 L-13.311297703624957,-119.08869686454008Q-22.074080693628954,-121.02295322785584 -29.029200136180922,-121.29982880612303 L-32.506759857456906,-121.43826659525664Q-39.461879300008874,-121.71514217352383 -45.36219341117857,-124.35212378408654 L-48.31235046676342,-125.67061458936791Q-54.21266457793312,-128.30759619993063 -56.572793229042794,-129.36238377948962 L-57.75285755459764,-129.88977756926909Q-60.112986205707315,-130.94456514882808 -62.43179302852685,-126.60097200722923 L-63.59119643993662,-124.4291754364298Q-65.91000326275615,-120.08558229483096 -70.77307760078821,-116.59591620369902 L-73.20461476980425,-114.85108315813305Q-78.06768910783632,-111.36141706700111 -81.06378059555952,-113.73864459809683 L-82.56182633942113,-114.9272583636447Q-85.55791782714434,-117.30448589474041 -85.32323962015313,-120.78620830431055 L-85.20590051665754,-122.52706950909563Q-84.97122230966633,-126.00879191866576 -85.32240213058421,-129.65796583885367 L-85.49799204104315,-131.4825527989476Q-85.84917186196103,-135.13172671913551 -81.01113820321689,-139.19890790013426 L-78.59212137384483,-141.23249849063365Q-73.7540877151007,-145.2996796716324 -67.97901395017594,-145.55023320156846 L-65.09147706771356,-145.67550996653648Q-59.31640330278881,-145.92606349647255 -39.48910097100904,-142.35031823367692 L-29.575449805119156,-140.56244560227913Q-9.748147473339385,-136.9867003394835 6.404888858903645,-133.6371884917704 L14.481407025025163,-131.96243256791382Q30.634443357268193,-128.61292072020072 40.895528453586124,-127.70788884056137 L46.02607100174508,-127.25537290074168Q56.28715609806301,-126.35034102110232 71.36030375397422,-121.21807536954688 L78.89687758192981,-118.65194254376917Q93.97002523784103,-113.51967689221372 108.02224055382766,-109.69309480610123 L115.04834821182097,-107.779803763045Q129.1005635278076,-103.9532216769325 139.49522060711917,-99.96800718790237 L144.69254914677492,-97.97539994338732Q155.0872062260865,-93.99018545435719 159.94153637334665,-93.23630677955242 L162.36870144697673,-92.85936744215005Q167.2230315942369,-92.10548876734528 168.10153707344372,-89.63634792786232 L168.54078981304716,-88.40177750812084Q169.419295292254,-85.93263666863788 169.419295292254,-85.93263666863788 Z"/>
      <path class="trees"
            d="M27.333462763959787,17.623294042814283Q27.333462763959787,17.623294042814283 19.683597528318973,19.11224066381317 L15.858664910498568,19.856713974312616Q8.208799674857755,21.345660595311504 1.303896506768421,22.22373626939615 L-2.1485550772762476,22.66277410643847Q-9.053458245365581,23.540849780523114 -14.426716803006919,24.159645384024106 L-17.113346081827586,24.469043185774602Q-22.486604639468922,25.087838789275594 -26.228023866786742,27.757327647043315 L-28.09873348044565,29.092072075927177Q-31.84015270776347,31.7615609336949 -36.778303416298435,33.51866676234048 L-39.247378770565916,34.39721967666327Q-44.185529479100886,36.15432550530885 -43.73329022361846,33.241794321441134 L-43.50717059587725,31.785528729507277Q-43.05493134039482,28.87299754563956 -39.924411758231344,25.458558242069934 L-38.35915196714961,23.75133859028512Q-35.22863238498613,20.336899286715493 -31.64630980996485,18.445752210638393 L-29.855148522454215,17.50017867259984Q-26.27282594743294,15.609031596522739 -20.405562370687996,13.040193504791691 L-17.471930582315522,11.755774458926169Q-11.60466700557058,9.186936367195122 -6.633090693333723,8.199850612854718 L-4.147302537215295,7.706307735684517Q0.8242737750215617,6.719221981344114 6.415094918207524,6.669594116897077 L9.210505489800504,6.644780184673558Q14.801326632986466,6.595152320226521 20.626396834272306,7.499684414447967 L23.538931934915226,7.951950461558689Q29.36400213620107,8.856482555780135 28.551786387304556,12.363207150593794 L28.1456785128563,14.116569448000623Q27.333462763959787,17.623294042814283 27.333462763959787,17.623294042814283 Z"/>
      <path class="trees"
            d="M47.81963197457344,0.8238147413018279Q47.81963197457344,0.8238147413018279 44.28785053551814,-0.5659138157018594 L42.52195981599049,-1.2607780942037026Q38.99017837693519,-2.65050665120739 36.621742594265555,-3.897821405473083 L35.43752470293074,-4.5214787826059295Q33.0690889202611,-5.768793536871622 27.093254712536016,-5.702484705932818 L24.105337608673477,-5.669330290463416Q18.12950340094839,-5.603021459524612 16.06210278436413,-4.356187069332768 L15.028402476071996,-3.732769874236846Q12.961001859487732,-2.485935484045002 9.202859954542607,-0.20146228849927672 L7.323789002070045,0.9407743092735852Q3.56564709712492,3.2252475048193103 -1.0710301276831427,3.040638750591782 L-3.389368740087173,2.9483343734780174Q-8.026045964895236,2.763725619250489 -14.144264030856093,3.9934196950463745 L-17.20337306383652,4.608266732944317Q-23.321591129797376,5.837960808740203 -26.468822263253433,8.867399017818162 L-28.042437829981463,10.38211812235714Q-31.18966896343752,13.411556331435099 -34.261296220554165,13.737664859462289 L-35.797109849112495,13.900719123475884Q-38.86873710622914,14.226827651503074 -42.886156559320426,14.97969259247602 L-44.89486628586607,15.356125062962493Q-48.91228573895736,16.10899000393544 -51.48200679181913,19.113386056254246 L-52.76686731825002,20.61558408241365Q-55.336588371111795,23.619980134732458 -61.64727910136452,24.85807355531245 L-64.80262446649088,25.477120265602448Q-71.1133151967436,26.71521368618244 -73.05542558261217,30.849553457703237 L-74.02648077554646,32.91672334346364Q-75.96859116141503,37.05106311498443 -80.98189198195514,37.07572087080026 L-83.4885423922252,37.08804974870818Q-88.50184321276531,37.11270750452401 -87.94898183098447,32.074336683919995 L-87.67255114009404,29.555151273617984Q-87.1196897583132,24.516780453013965 -83.58748763699958,21.470609720930543 L-81.82138657634277,19.94752435488883Q-78.28918445502916,16.90135362280541 -74.44713635455554,12.105995061582654 L-72.52611230431873,9.708315780971276Q-68.68406420384511,4.91295721974852 -63.72041389528417,-0.7025028575290913 L-61.238588741003696,-3.5102328961678966Q-56.27493843244275,-9.125692973445508 -50.34042405841198,-14.590402203012943 L-47.37316687139659,-17.32275681779666Q-41.43865249736582,-22.78746604736409 -35.14461955947263,-24.41053101928827 L-31.99760309052603,-25.222063505250365Q-25.703570152632835,-26.845128477174544 -22.01267763620966,-26.2337860668977 L-20.16723137799807,-25.928114861759276Q-16.47633886157489,-25.316772451482432 -10.442054596494007,-24.035622450902455 L-7.424912463953566,-23.395047450612463Q-1.390628198872681,-22.113897450032486 4.811109871294706,-21.418579652416252 L7.911978906378399,-21.070920753608135Q14.113716976545787,-20.3756029559919 20.68375731342318,-20.081965849659316 L23.96877748186187,-19.93514729649302Q30.538817818739265,-19.641510190160435 40.280694236414945,-17.363926276998733 L45.15163244525278,-16.22513432041788Q54.893508862928456,-13.947550407256179 52.06395810758645,-8.039004347832975 L50.649182729915445,-5.084731318121375Q47.81963197457344,0.8238147413018279 47.81963197457344,0.8238147413018279 Z"/>
      <use xmlns:xlink="http://www.w3.org/1999/xlink" xlink:href="#Tree"
           x="-187.29140999616249"
           y="-14.71809778522479 "/>
      <use xmlns:xlink="http://www.w3.org/1999/xlink" xlink:href="#Dogleg"
           x="-58.14420773279158"
           y="-76.71453967617114 "/>
      <use xmlns:xlink="http://www.w3.org/1999/xlink" xlink:href="#TeeSet"
           x="258.2296295246031"
           y="-4.554879381375481"
           class="tees"
           transform="rotate(-95.94227820918087 258.2296295246031 -4.554879381375481)"/>
      <use xmlns:xlink="http://www.w3.org/1999/xlink" xlink:href="#Flag"
           x="-214.99217953298472"
           y="44.700780981562744"
           transform="rotate(-95.94227820918087 -214.99217953298472 44.700780981562744)"/>
      <g clip-path="url(#HoleContour)">
         <circle cx="258.2296295246031" cy="-4.554879381375481" r="174.04000734663092"
                 class="circle-from-tee"/>
         <circle cx="258.2296295246031" cy="-4.554879381375481" r="261.0600110199464"
                 class="circle-from-tee"/>
         <circle cx="258.2296295246031" cy="-4.554879381375481" r="348.08001469326183"
                 class="circle-from-tee"/>
         <circle cx="-214.99217953298472" cy="44.700780981562744" r="174.04000734663092"
                 class="circle-from-green"/>
         <circle cx="-214.99217953298472" cy="44.700780981562744" r="261.0600110199464"
                 class="circle-from-green"/>
         <circle cx="-214.99217953298472" cy="44.700780981562744" r="348.08001469326183"
                 class="circle-from-green"/>
      </g>
   </g>
   <rect x="470" y="400" rx="4" ry="4" width="110" height="180" class="info-background"/>
   <text x="525" y="420" class="info-hole" text-anchor="middle">
					Hole 15</text>
   <text x="525" y="440" class="info-par" text-anchor="middle">
					Par 4</text>
   <circle cx="485.625" cy="457.1875" r="5.625" style="fill:blue"/>
   <text x="496.875" y="460" class="info-length">305 meters</text>
   <circle cx="485.625" cy="477.1875" r="5.625" style="fill:blue"/>
   <text x="496.875" y="480" class="info-length">333 yards</text>
   <use xmlns:xlink="http://www.w3.org/1999/xlink" xlink:href="#Compass" x="550" y="50"
        transform="rotate(95.94227820918087 550 50)"/>
   <use xmlns:xlink="http://www.w3.org/1999/xlink" xlink:href="#GolfMLLogoSmall" x="10"
        y="575"/>
</svg>