<?xml version="1.0" encoding="UTF-8"?>
	<svg xmlns="http://www.w3.org/2000/svg" width="600" height="600">
   <defs xmlns:g="http://code.google.com/p/golfml"
         xmlns:xlink="http://www.w3.org/1999/xlink"
         xmlns:xs="http://www.w3.org/2001/XMLSchema">
      <style type="text/css">
/* Stylesheet for SVG elements
 *
 *
 * Classes for area of interest (surfaces)
 *
 * DRAWING
 */
.background {
		fill: url(#background-gradient);
}

.hole-limits {
	fill: none;
	stroke: #ccc;
	stroke-width: 1px;
	stroke-dasharray: 10,10;
}

.hole-contour {
	fill: #030;
	stroke: #fff;
	stroke-width: 2px;
}


/* GROUND
 */
.fairway {
	fill: url(#fairway-pattern);
	stroke: #0b0;
	stroke-width: 3px; /* fairway fringe... */
}

.tee {
	fill: #00c800;
	stroke: #0f0;
	stroke-width: 1px;
}

.fringe {
	fill: #0A0;
}

.green {
	fill: url(#green-gradient);
	stroke: #0f0;
	stroke-width: 1px;
}

.semi-rough,
.light-rough {
	fill: #080;
	stroke: #08800D;
	stroke-width: 1px;
}

.rough {
	fill: url(#rough-gradient);
	stroke: #07660A;
	stroke-width: 1px;
}

.heavy-rough {
	fill: #040;
	stroke: #074D08;
	stroke-width: 1px;
}

.ground {
	fill: #7f400c;
	stroke: #fdcc6a;
	stroke-width: 1px;
}


/* WATER
 */
.lateral-water {
	fill: url(#lateral-water-gradient);
	stroke: red;
	stroke-width: 4px;
}

.front-water, .water {
	fill: #37f;
	stroke: yellow;
	stroke-width: 3px;
}


/* SPECIAL
 */
.under-repair {
	fill: none;
	stroke: #00d;
	stroke-width: 2px;
}

.out-of-bound { /* line only */
	fill: none;
	stroke: white;
	stroke-width: 4px;
}

.out-of-bound-area {
	fill: #ccc;
	stroke: white;
	stroke-width: 4px;
}


/* TRAPS
 */
.trap,
.bunker {
	fill: #92cf94;
	stroke: #4c994c;
	stroke-width: 1px;
}

.grass-trap,
.grass-bunker {
	fill: #050;
	stroke: #0A0;
	stroke-width: 1px;
}

.sand-trap,
.sand-bunker,
.greenside-trap,
.greenside-bunker {
	fill: #eec;
	stroke: #040;
	stroke-width: 2px;
}

.fairway-trap,
.fairway-bunker {
	fill: #eec;
	stroke: #030;
	stroke-width: 2px;
}


/* OBSTACLES
 */
.tree {
	fill: #062;
	stroke: #0c6;
	stroke-width: 1px;
}

.trees {
	fill: #062;
	stroke: #0c6;
	stroke-width: 1px;
}

.bush {
	fill: #00b259;
	stroke: #7f400c;
	stroke-width: 1px;
}


.path {
	fill: #666;
	stroke: #bbb;
	stroke-width: 1px;
}

.building,
.construction {
	fill: #fdcc6a;
	stroke: #7f400C;
	stroke-width: 1px;
}

.obstruction {
	fill: #555;
	stroke: #999;
	stroke-width: 1px;
}


.other {
	fill: #ddd;
	stroke: #666;
	stroke-width: 1px;
}

/* Classes for point of interest (points)
 *
 */
.dogleg {
	fill: #000;
}

.aim {
	fill: #fff;
	stroke: #f00;
	stroke-width: 1px;
}

.tees {
	fill: #00f;
}

.tees-hollow {
	stroke: #fff;
	stroke-width: 0.5px;
}

.hole {
	fill: #fff;
}

.distance-marker-100,
.distance-marker-close {
	fill: #44f;
	stroke: #00f;
	stroke-width: 1px;
}

.distance-marker-150,
.distance-marker-135,
.distance-marker,
.distance-marker-mid {
	fill: #f44;
	stroke: #f00;
	stroke-width: 1px;
}

.distance-marker-200,
.distance-marker-far {
	fill: #dd4;
	stroke: #ff0;
	stroke-width: 1px;
}

.green-region-delimiter {
	fill: none;
	stroke: #fff;
	stroke-width: 0.5;
	stroke-dasharray: 4,2;
}

.neutral {
	fill: none;
	stroke: #888;
	stroke-width: 1px;
}


/* Classes for special decorative objects
 *
 */
.compass-center {
	fill: #ddd;
	stroke: #fff;
	stroke-width: 1px;
}
.compass-needle {
	fill: #ddd;
	stroke: #fff;
	stroke-width: 1px;
}
.compass-north {
	fill: #fff;
}
.flag-pole {
	fill: none;
	stroke: #f00;
	stroke-width: 2px;
}
.flag-flag {
	fill: #ff0;
	stroke: #f00;
	stroke-width: 1px;
}
.flag-cup {
	fill: #fff;
}

     </style>
      <linearGradient id="background-straight">
         <stop offset="5%" stop-color="#002"/>
         <stop offset="95%" stop-color="#004"/>
      </linearGradient>
      <linearGradient id="background-gradient" gradientTransform="rotate(30)"
                      xlink:href="#background-straight"/>
      <linearGradient id="lateral-water-straight">
         <stop offset="5%" stop-color="#006"/>
         <stop offset="95%" stop-color="#008"/>
      </linearGradient>
      <linearGradient id="lateral-water-gradient" gradientTransform="rotate(60)"
                      xlink:href="#lateral-water-straight"/>
      <linearGradient id="rough-straight">
         <stop offset="0%" stop-color="#030"/>
         <stop offset="25%" stop-color="#060"/>
         <stop offset="50%" stop-color="#040"/>
         <stop offset="75%" stop-color="#060"/>
         <stop offset="100%" stop-color="#080"/>
      </linearGradient>
      <linearGradient id="rough-gradient" gradientTransform="rotate(70)" xlink:href="#rough-straight"/>
      <linearGradient id="green-straight">
         <stop offset="0%" stop-color="#0d0"/>
         <stop offset="25%" stop-color="#0e0"/>
         <stop offset="50%" stop-color="#0c0"/>
         <stop offset="75%" stop-color="#0e0"/>
         <stop offset="100%" stop-color="#0b0"/>
      </linearGradient>
      <linearGradient id="green-gradient" gradientTransform="rotate(75)" xlink:href="#green-straight"/>
      <pattern id="fairway-straight" patternUnits="userSpaceOnUse" x="0" y="0" width="20"
               height="20"
               viewBox="0 0 20 20">
         <rect x="0" y="0" width="10" height="10" fill="#00c000"/>
         <rect x="10" y="10" width="10" height="10" fill="#00c800"/>
         <rect x="10" y="0" width="10" height="10" fill="#00bc00"/>
         <rect x="0" y="10" width="10" height="10" fill="#00b800"/>
      </pattern>
      <pattern id="fairway-pattern" patternTransform="rotate(60)"
               xlink:href="#fairway-straight"/>
      <g id="TeeSet">
         <circle cx="-5" cy="0" r="2"/>
         <circle cx="5" cy="0" r="2"/>
      </g>
      <g id="DistanceMarker">
         <circle r="6"/>
      </g>
      <g id="Dogleg">
         <circle r="4"/>
      </g>
      <g id="Aim">
         <circle r="4"/>
      </g>
      <g id="Hole">
         <circle r="2"/>
      </g>
      <g id="Flag" transform="translate(0 -30) scale(-0.2 0.2)">
         <line id="FlagPole" class="flag-pole" x1="0.5" y1="0" x2="0.5" y2="150"/>
         <circle id="FlagCup" class="flag-cup" r="10" cx="0" cy="145"/>
         <g id="FlagFlag">
            <path class="flag-flag"
                  d="M55.339,45.968c-18.28-14.516-36.559,14.516-54.839,0c0-12.097,0-24.193,0-36.29      c18.28,14.516,36.559-14.516,54.839,0C55.339,21.774,55.339,33.871,55.339,45.968z"/>
         </g>
      </g>
      <g id="Compass">
         <polygon id="CompassNeedle" class="compass-needle" points="0,30 -8,0 0,-20 8,0"/>
         <circle id="CompassCenter" class="compass-center" r="10"/>
         <text id="CompassNorth" class="compass-north" x="-4.7" y="40">N</text>
      </g>
      <g id="GolfMLLogoSmall">
         <image xlink:href="../stylesheets/images/golfml-small.png" width="80" height="15"/>
      </g>
   </defs>
   <rect class="background" x="0" y="0" width="600" height="600"/>
				<!-- debug information: mode course
				min_lat: 50.54182240667064
				max_lat: 50.5471554618407
				min_lon: 4.494216965161302
				max_lon: 4.507059667174231
				mid_lat: 50.54448893425567
				mid_lon: 4.500638316167766
				deltax: 0.00014244096087799002
				deltay: 0.00009307937163377522
				scalex: 4.212271500428442E6
				scaley: 6.446111415112746E6
				scale: 4.212271500428442E6
				minx: -0.00007122048043898972
				maxx: 0.0000712204804390003
				miny: -0.00004653838010404421 
				maxy: 0.00004654099152973101 
				minx: -299.9999999999777
				maxx: 300.0000000000223
				miny: -196.03229218837146
				maxy: 196.04329222236746MODIFICATION
			
				rotation: 0
				scaling: 1
				x,y: ROTATION=0,x1=0,y1=0,x2=0,y2=0
				-->
			<g transform="translate(300,300) scale(-1,1) rotate(0)">
      <path class="other"
            d="M 133.4383558778335,101.2497396536672 L 268.06007050459675,3.148026815663994 299.9999997020421,56.46013306842323 160.19401275709424,148.33617321514106 133.4383558778335,101.2497396536672 Z"/>
      <path class="other"
            d="M 157.4975194009144,150.41026289352357 L 140.90380991903035,160.57322077184594 130.53297740142796,158.70597648881866 112.69581040357721,123.2358470091924 131.77891285777352,104.56844324871444 157.4975194009144,150.41026289352357 Z"/>
      <path class="other"
            d="M 92.16263096677145,17.241498442411768 L 95.0665369582234,20.56038541359218 86.976928816732,27.405190931039634 83.6581788041495,22.84175758068269 87.18442675835779,18.90076676051907 83.8656623588029,15.167027748018619 89.46618058773389,9.566681260243485 93.8220529788419,14.752442116805659 92.16263096677145,17.241498442411768 Z"/>
      <path class="other"
            d="M 106.47451080206437,44.4145713349259 L 100.25176564321565,49.39255054234615 98.38498540728457,47.73310142138326 95.48103138037766,51.05180201174018 88.84358782605084,43.79177785503285 91.74754462588953,40.26564048804297 90.29561368779773,37.36165991969454 96.31095223703343,31.761365065593434 106.47451080206437,44.4145713349259 Z"/>
      <path class="building"
            d="M 6.921386214141428,42.402124320428385 L -11.667283497082831,23.58341344818858 -4.234627058347142,16.38971895285274 -1.8367241691882403,19.266914561041464 3.1983128863148,14.231349801247786 9.12825658619317,20.465882844932565 17.154018469283145,28.491390028758545 7.724012835807961,37.854639297841786 9.529904983069748,39.72742897839472 6.921386214141428,42.402124320428385 Z"/>
      <path class="hole-contour"
            d="M -118.1316437434202,-5.352833491203101 L -151.50717038048663,19.77623506743527 -159.75608647901407,44.15319913037384 -188.25347751322153,98.15837315339809 -201.37576003188417,139.78652786889847 -197.9997075914226,153.66176466544465 -201.37165853154124,196.0390408196298 -239.99815327793988,179.16786597872846 -242.2495840809267,161.91737545151275 -244.87658183524354,138.29167989267737 -234.40756026178616,88.70365566822898 -220.98875092188217,57.7644370842905 -197.10605113302373,19.999550001212828 -180.9559558404057,2.2540839668990613 -143.87671927259146,-11.85346350600064 -122.2656312197502,-15.040041698446139 -118.1316437434202,-5.352833491203101 Z"/>
      <path class="tee"
            d="M -122.37239455765871,-9.405521211951527 L -132.6127154648981,-1.8458647764155667 -131.6372818219182,-0.1393618246393806 -143.8272113620126,9.126222632366837 -147.7284583286588,4.9817034153787585 -125.05452780727339,-12.574912720987035 -122.37239455765871,-9.405521211951527 Z"/>
      <path class="fairway"
            d="M -171.08157658796793,40.92623043509837 L -179.31113063626466,58.07199332353948 -186.16902700065503,71.44567907433904 -196.45583283885387,86.53405363035212 -199.5416588619094,101.62204673286232 -207.77096142232116,114.65287562758877 -212.22830791290377,129.05511314215664 -212.57090920795434,142.08548630743556 -213.9421175576542,158.20205399720143 -210.5130725659898,163.00251474772332 -208.4555540746779,170.20338060712118 -213.59877073641394,177.74756610990522 -222.51388869175162,180.83425303111625 -230.05753798527246,179.80603508142738 -235.88679967525874,176.37739363743142 -239.3160035952551,166.77631808416132 -233.48706132388506,158.2033055779212 -227.31538226919722,142.77221309476514 -224.6073918629928,130.95612366614893 -221.9052288512283,118.88464677983201 -217.22116710724615,109.33540900277313 -220.82468117418608,101.047861942978 -221.18518304604575,94.20146085266438 -217.04153895729277,86.63409684304717 -208.39374591902504,76.72426310542174 -204.7905835518618,67.35522937232295 -197.7641941328472,57.985990976321524 -190.0170781405809,48.436533626081186 -184.4319425885964,38.52683293053114 -179.8738226000151,33.222430644734914 -174.83591590501723,31.896423281643905 -170.85857967459833,35.608425268667965 -171.08157658796793,40.92623043509837 Z"/>
      <path class="bunker"
            d="M -224.8777208130193,152.9279850572051 L -222.80941841750067,155.53236651312795 -220.51149653891355,155.68538173100777 -219.59229099593176,157.293934782416 -220.35822410651622,159.05577598537963 -222.34974275088953,159.82189841714504 -225.33707496492764,158.82629375332903 -227.86484573713548,156.9880657268196 -228.78408843686023,154.3837350826652 -227.71176341730632,152.77506943253331 -226.63941107031837,152.16220070688084 -224.8777208130193,152.9279850572051 Z"/>
      <path class="bunker"
            d="M -219.6237082493016,82.7236483389324 L -219.70491381529598,84.43182582286124 -221.33165777021927,85.16408848501766 -222.87717784061434,84.4321988211422 -222.7146467782225,82.56132844440214 -220.8439067950098,81.50366913601226 -219.6237082493016,82.7236483389324 Z"/>
      <path class="bunker"
            d="M -224.78990067538749,86.75608006453446 L -223.25643148214414,87.20700491639887 -222.1739479354835,88.92082619573247 -223.43675778607567,90.36418190215913 -225.06042638506204,90.00346762811161 -225.60170521980965,87.74838469895438 -224.78990067538749,86.75608006453446 Z"/>
      <path class="bunker"
            d="M -223.88767256353879,94.33321663252676 L -224.24841798960784,96.94917420084724 -226.23286985204234,97.58073501353932 -227.40554136873246,96.40815171665658 -227.58599113582574,94.78448019927252 -225.421152618121,93.341064178072 -223.88767256353879,94.33321663252676 Z"/>
      <path class="bunker"
            d="M -225.7817694381474,100.82807120883727 L -225.69151470681558,102.81256625010734 -227.2249436892092,103.62450746945444 -228.7584107554618,102.99317683474693 -229.29970585620782,100.46748997616366 -227.3152519703506,99.6555117778473 -225.7817694381474,100.82807120883727 Z"/>
      <path class="green"
            d="M -216.727861477011,160.8665486545788 L -214.52471818480757,164.20448694562305 -213.45647599631621,168.1433467196934 -215.25888411180802,172.28266128366454 -218.46327815539743,174.6195045382492 -222.13504861221926,174.35268729890763 -225.0057348197002,173.01764467700332 -228.54399394934453,172.55054702689262 -231.54818357276793,171.94989692094882 -233.617772050792,170.28100330539112 -233.9516614286286,167.009716458176 -233.48442187407252,164.27246615672553 -230.68061195706352,160.9342039808757 -227.9435132157113,159.26498565322888 -225.87394915748044,159.8657029092078 -221.13400156768049,160.5330138516193 -216.727861477011,160.8665486545788 Z"/>
      <path class="tree"
            d="M -212.22988598167672,58.07370328625209 L -215.65888109180602,59.78844196698662 -216.00186317181135,56.35939275424628 -212.5728803442503,53.9588331890892 -212.22988598167672,58.07370328625209 Z"/>
      <path class="tree"
            d="M -236.55190390751903,132.65458354409807 L -236.5518337574628,135.06705910684346 -237.60721840106714,136.72570839397494 -239.11489381273248,139.59062913184633 -240.7733933941941,140.7969850342595 -241.97966915254895,138.53537935102935 -240.17036597819975,138.2336881113172 -239.56734240862525,135.51961119235835 -238.21048263508266,131.29768351035085 -236.55190390751903,132.65458354409807 Z"/>
      <path class="tree"
            d="M -222.68196129016343,74.30168344630395 L -223.28494129344756,79.72984410849301 -226.30037573137025,85.0073732804907 -227.50667078898803,82.44417619066404 -224.49116239889523,80.03148477213536 -226.1498178284983,76.56362695750569 -224.79287059037114,74.15103966120039 -222.68196129016343,74.30168344630395 Z"/>
      <path class="tree"
            d="M -225.69706216041885,92.69714812883277 L -227.65706330342783,96.9191292047718 -229.31565975518228,95.41143673629158 -229.6173224936049,91.4911626626467 -226.4510511420123,88.927683677451 -225.69706216041885,92.69714812883277 Z"/>
      <path class="tree"
            d="M -229.61707545078278,100.53798726202427 L -230.67249769883946,101.29195937127652 -231.57720099404207,99.93499807809015 -229.16480411026265,98.276254157711 -229.61707545078278,100.53798726202427 Z"/>
      <path class="tree"
            d="M -228.8631099830544,103.40276251746701 L -229.0138302132916,105.51369471311911 -230.67234775585916,106.72004589033526 -230.823179402502,104.75991488230119 -228.8631099830544,103.40276251746701 Z"/>
      <path class="tree"
            d="M -228.10910541216302,107.7753356372747 L -229.01367899351493,111.09255665030905 -230.9737353913217,112.75126722119778 -231.27536492023413,110.03724813913703 -230.21996626946463,108.52937654762185 -228.10910541216302,107.7753356372747 Z"/>
      <path class="hole-contour"
            d="M 75.66799142855916,-7.845022737722713 L 79.25282922087236,-13.501052611315481 89.99349386206451,-26.534169123157138 100.38919050048409,-39.64074758098574 113.5852630887524,-56.69673496305165 127.10306323782682,-70.53431571996953 145.7705695046345,-88.55512619040458 159.9322737669632,-102.71428057477797 171.5195866732176,-119.44827099821875 187.29117114574498,-139.40009048991124 200.8092669967641,-149.69716744085048 215.29233498031974,-152.5919248241926 222.69598253674778,-167.0734752197615 228.81218351246102,-179.94604519360698 240.07747540392552,-187.6686080565265 253.59583282790538,-196.03450114433093 261.31968659737714,-191.52772907320806 278.05250920320793,-161.9165284578392 139.32968573797552,-24.51175838393637 120.66344062402615,-21.93867300301374 108.43360916424356,-16.468495514870604 97.81293883355934,-10.998129737633338 87.51371015265413,1.8743959204204639 79.4676919106675,7.6668646376729725 76.8932340837491,4.448424426868211 74.78558784376267,-0.679463157295008 75.66799142855916,-7.845022737722713 Z"/>
      <path class="water"
            d="M 239.64930118412317,-163.9432792921763 L 241.39639148398476,-161.93372815073988 244.10445793155398,-159.6619598018898 246.63765195954258,-155.90506726100278 249.43303370579187,-153.19647279890685 251.00517631114948,-149.00290268894696 251.00468031760457,-143.84857557481288 249.86856833720736,-139.83010772680566 248.12096532953663,-136.33589317323168 245.4123608723851,-132.7544481633787 243.49012105538876,-130.133867551879 239.4710934958382,-126.72731631471397 237.28711970469405,-127.86330928698787 236.15156814428326,-129.69805335169116 234.7541276137158,-133.71686863659943 233.26922473238935,-136.68735546611592 231.69674821046542,-137.38645400433185 229.68739041429677,-137.38671634629867 228.81382808630997,-138.17308298149626 228.81393934429656,-139.39614348989448 230.0371389024707,-140.61904499803123 230.91082930454144,-141.23046118880782 232.2213933920748,-142.4533497732688 232.65838731455293,-144.37524415413304 233.00812244058858,-147.43284861018282 232.83356378454283,-149.26746190491775 228.9904447006794,-158.96508627777405 231.17478850157755,-161.6730073256362 234.49487522493058,-164.46813788252626 237.81484494058088,-165.95284108658439 239.64930118412317,-163.9432792921763 Z"/>
      <path class="tee"
            d="M 96.47607868116712,-17.98603774519764 L 79.32208818397358,0.03441965518501025 76.71671391677421,-3.222646132585625 93.43642808694045,-20.808905772460903 96.47607868116712,-17.98603774519764 Z"/>
      <path class="tee"
            d="M 114.49884021464513,-37.09199197374995 L 109.07031648846484,-32.09845021530888 106.89909627751615,-33.40138031957585 111.89342108361004,-39.48060359830396 114.49884021464513,-37.09199197374995 Z"/>
      <path class="fairway"
            d="M 183.07112641005241,-79.17287170486455 L 180.68599663878885,-76.78822155124324 178.87899130283756,-73.75308563976867 176.132461447753,-70.57351027959129 173.98023386586223,-68.11315926527354 170.5078125803229,-64.14542450400036 168.771843017569,-65.38563122672198 170.26000600674433,-66.8735141692115 172.12026773355095,-69.47738520892007 174.352612871375,-72.94923918871793 176.58493551505373,-76.04908436364245 178.56913860523315,-77.66091707311406 180.9254672409387,-80.63674649969391 183.07112641005241,-79.17287170486455 Z"/>
      <path class="fairway"
            d="M 217.32123164787015,-137.33853236236843 L 218.11408181179803,-130.6684107211671 214.12486823928094,-123.83730776865868 208.0847054987508,-116.50872336201921 203.2526081926363,-110.64586628115147 197.44163295356378,-100.9406531020228 190.53898730769274,-93.22913554758593 181.30633041921237,-81.69497763666077 171.34538815680872,-69.94071515204193 166.916151215069,-64.56647235564934 158.77711588615182,-55.6863552076325 148.31880728032328,-45.98299498290877 137.86057462014574,-36.279614592621016 129.23475507855463,-32.44972955832846 124.80887987809568,-36.37068703651011 121.46572851443894,-39.94626543434812 122.1384077809324,-45.408173498444654 127.74565640370335,-51.54836820469836 140.7450513818036,-65.99431925058454 153.5333756736397,-79.5203307878094 159.82199257938748,-85.82338042152229 171.46874203375415,-95.64121357928002 178.95640878861943,-105.05815707283803 183.31941376268202,-112.67475893614409 187.47127880597327,-119.37149767656389 195.71607893129038,-128.71146745315994 200.27963789958537,-134.24851984734167 203.98059763049278,-139.40260514306365 206.69370099032864,-142.36261481479323 210.5271792968957,-143.0318643043638 217.32123164787015,-137.33853236236843 Z"/>
      <path class="fairway"
            d="M 238.72077096647254,-180.5798786876482 L 244.09085174149737,-182.58604587974017 249.83043021795467,-181.57188431095418 255.47927293909797,-179.06019143813185 258.3527992798578,-175.2624813135788 261.6715626858727,-170.09724964234795 262.80712119188377,-166.44553819032734 268.4662166644377,-164.64002543566116 268.3689198641083,-159.14571170511616 265.0370686155073,-156.3173353095695 261.7454462188611,-153.88461216855188 260.20206170862514,-152.01208990847698 257.9524648830989,-150.14988711840437 256.7944632026599,-147.5309309608074 257.0189572591547,-145.20187784054227 256.31181164446116,-142.78307123535913 254.45321152796595,-141.7420961616216 252.500134924963,-142.49420493123029 252.5964718852432,-145.55937047300446 251.6058946939899,-148.51982190131938 250.655535961984,-151.87593025947243 248.63322530607064,-154.97205284335934 246.33029630380165,-157.72771528403413 242.0369914341599,-162.0536306047744 238.7758912276447,-166.05276135226202 235.91957662467763,-167.0955194043237 233.87425618424135,-165.93993095856052 230.3428636994847,-164.04207987929786 228.1072887786834,-166.10315799692327 227.8169215462467,-167.87240479370573 229.15851214902455,-171.35649440934642 232.08489453218698,-173.31587226497905 235.60914032477794,-176.53100580520373 238.72077096647254,-180.5798786876482 Z"/>
      <path class="fairway"
            d="M 217.73464555257894,-154.42400913001183 L 218.91317870796257,-158.45538639216588 221.55933637563655,-162.70653591651316 224.43002140677044,-164.62862427995046 227.59538116722007,-164.30676391828842 230.40437583944663,-161.99165304956418 229.28192427506517,-160.62980120433357 227.7582089807039,-157.74051546424283 227.86766966615696,-155.7921545097919 228.92842626508133,-152.91682290531836 229.3129007330559,-149.74126342785866 228.29431634716192,-144.86339566883217 227.41135403194903,-141.01722760110349 226.90440632402968,-138.147563944133 225.00559817233423,-136.71090946220014 220.71691668501006,-133.2417862356883 220.21269443925934,-137.65949442965402 216.73302662399237,-141.24200709483156 212.12621739237247,-144.32412702378292 210.72406433697728,-145.0509337026195 211.28059490697348,-146.5933294372501 213.70510108938075,-147.45380347268045 216.1249182184311,-149.175741871699 217.73464555257894,-154.42400913001183 Z"/>
      <path class="path"
            d="M 156.50440779930895,-51.26956984665925 L 154.5394345171898,-49.8808178042635 139.9891741750101,-67.06819247938901 131.26254782415072,-76.7213112389628 132.5277939595945,-77.59287944358313 156.50440779930895,-51.26956984665925 Z"/>
      <path class="building"
            d="M 111.58104417769704,-5.15257291536515 L 114.52735365841674,-4.018162274041665 115.51956916340275,-1.0834715572301843 113.65628235850556,0.32119915067986143 99.11644160711958,12.68385072146932 95.13504053584955,13.519054741255125 93.53252151974607,11.610351806696187 93.55395485979196,9.158216401135398 108.9719387824531,-4.127322001261668 111.58104417769704,-5.15257291536515 Z"/>
      <path class="bunker"
            d="M 261.1412649547468,-168.04626492813867 L 261.9273245195445,-165.86211099196586 262.53862889548213,-163.41589785276727 263.76170956422425,-163.24099614255263 265.15941304683594,-162.01772914856218 264.80976305452486,-160.09582613710498 264.02337225478135,-158.9602414218084 262.53804379432245,-157.56267416751643 260.6159231490496,-156.42725419249206 259.21796184709405,-155.029672512413 258.2566836435069,-152.2342433356033 255.9849510557721,-149.4390022489001 253.97562766734276,-149.87609636275135 253.27687047786554,-151.4487021063731 253.71396118928652,-154.24420739444372 255.2867408539618,-156.6027438948808 256.6848208340669,-159.22338934338862 258.34501278862797,-162.01872003720578 258.52003496269145,-164.9889876587802 258.0834304937319,-167.1730897180978 257.7341726492658,-169.1824564332793 258.345869302947,-170.66751614980626 259.3068767703037,-170.66737816577523 260.26780594754695,-169.8809851295213 261.1412649547468,-168.04626492813867 Z"/>
      <path class="green"
            d="M 253.36651789404036,-174.86158298768697 L 255.28814642162155,-170.93003744029787 255.1129026433982,-165.68836721644533 253.01571341745338,-161.0585029651256 251.96718439086604,-159.39878234852958 250.65659018207393,-158.00118282059 247.24946615654565,-158.70054978544601 244.97813006319956,-160.01128576065963 242.44484120844263,-162.80720050851903 239.9989128039289,-165.60310092879908 237.98977672531717,-168.1368560451908 235.98062970613722,-170.58324844140785 236.24286799152858,-172.1557220219138 238.60203565818165,-175.7372325356525 240.43694843967555,-178.53255848533254 244.10641796272847,-180.2792935679732 247.42621559232938,-179.75466677439934 250.3963854635194,-177.4828498994499 253.36651789404036,-174.86158298768697 Z"/>
      <path class="tree"
            d="M 224.2106272603574,-134.7021010304049 L 227.14868742759464,-134.98519427197343 230.48759571495847,-133.82425735141143 230.47513574395614,-130.3344730142556 228.93534069883742,-127.30803105589828 226.5709639073238,-125.5975697445053 223.67767623853507,-125.75486131270405 222.53553895175085,-127.65074407008031 221.8618997752434,-130.11505748339425 221.41106693949524,-132.07755341069068 224.2106272603574,-134.7021010304049 Z"/>
      <path class="tree"
            d="M 221.4580263693339,-123.44783912432932 L 223.77662684924775,-122.01417509024822 223.920340003823,-118.71387708490188 225.64860144481125,-118.88040320752775 228.80945092018473,-118.66167686377062 228.57940208856064,-114.71486944834514 226.72206802094536,-112.26833930402958 217.8549548997659,-103.82630852242656 212.94819878388077,-101.34757219667705 210.1601117971892,-99.50905518139113 207.57917148685118,-100.04527607177869 207.0897931619333,-103.31225476946435 208.02255932056778,-108.11170456305109 209.50712653023743,-112.61547295469491 213.22699703713198,-116.54970855292304 215.62990285135876,-116.95567914845 218.12333819622862,-120.94615931955862 221.4580263693339,-123.44783912432932 Z"/>
      <path class="tree"
            d="M 112.7451281132646,-55.08680166564151 L 117.99376521154758,-56.43524297938447 119.65784943211729,-53.29073291640187 118.11551734276512,-49.12427817357276 115.29365341500713,-46.130520071560014 112.45161468332441,-44.69007665105226 109.5483505698534,-45.90063542963608 108.84964603992093,-49.78623611076716 112.7451281132646,-55.08680166564151 Z"/>
      <path class="tree"
            d="M 122.19951903298809,-60.53445287589716 L 123.2770446589763,-62.12879310445363 121.92710772540575,-63.359511763401706 123.31627340125367,-67.77041537667091 126.9496838496448,-69.74075552972745 129.44435420031198,-72.76776644946231 132.87047626722006,-74.19969293333094 132.55033963834305,-70.79908418187257 131.1990041925839,-68.01190101894758 129.0602185909783,-63.982358065750546 126.10282421428558,-64.41009120931831 126.09364196025314,-61.817096307948 125.52976635434173,-60.272274760790594 123.50382179401339,-59.10492718425352 122.19951903298809,-60.53445287589716 Z"/>
      <path class="tree"
            d="M 147.8312063690341,-83.0293824402077 L 144.54054896524568,-78.175976610969 141.49045836854688,-74.18819867711538 138.7697136860831,-76.19403047445036 140.79249105019136,-80.08278518672424 143.5896503788673,-83.33335532366394 147.8312063690341,-83.0293824402077 Z"/>
      <path class="tree"
            d="M 159.66805930926404,-101.40793333909703 L 161.37847893681396,-100.47114258504092 162.77016404896614,-100.15165910738824 163.3535025931468,-98.13418940415326 166.05869808351528,-98.97815214531903 165.8220251681041,-97.40007031571317 164.27573033791322,-93.94608369087995 162.58547169478982,-93.32954902908722 161.14037664075204,-94.87513980829891 159.25130634080722,-94.30424279077864 159.43702241264714,-92.37805534065676 158.0778802987286,-91.015796806032 158.31312118031087,-88.57595982709302 156.69715286178217,-87.18894567255742 155.7409514908194,-89.04086724221861 156.24293948165123,-91.22774942293636 154.83887597275023,-91.67564084865373 154.9764940197358,-94.2810231110365 157.90986159547458,-96.11903376749228 158.1256577405256,-97.24148371499754 157.17334371283397,-98.38094918495646 157.89890824807003,-100.2653669473581 159.66805930926404,-101.40793333909703 Z"/>
      <path class="tree"
            d="M 169.95043584646842,-104.9911030161728 L 171.41179854860033,-102.60463423971473 169.59239896770316,-99.96676682945898 167.55475454495297,-100.93682841207584 167.80841598034488,-103.68300128990553 169.95043584646842,-104.9911030161728 Z"/>
      <path class="hole-contour"
            d="M -77.78148870655433,-77.87497901325291 L -109.72959314053216,-88.63219940891399 -147.806405810978,-95.52520534349254 -159.8887069875328,-83.75782057446 -184.53861756576453,-81.78858103712855 -210.76976241017377,-74.8034605317465 -234.48364974749586,-61.63124587636547 -265.9460055517369,-40.47693080011758 -273.381318097749,-46.000288411625085 -291.1198839025403,-71.31343390454741 -290.5338533264049,-78.53446805580558 -284.6391331244392,-87.78507460180629 -273.475453500544,-89.61928382181223 -213.33916372917415,-144.39935162563137 -163.04453992720286,-135.78909917769596 -122.02098107364344,-123.17775589791455 -93.89872495796386,-107.30782943088676 -71.9054713221207,-87.57399232349935 -77.78148870655433,-77.87497901325291 Z"/>
      <path class="tee"
            d="M -74.31490639867103,-87.90810687900046 L -75.86307584749487,-84.8116091647885 -89.17821619757834,-90.69418721956514 -101.2546793989552,-94.40925148407665 -99.39688852008433,-97.50578369002899 -86.39143653203614,-92.86182704361161 -74.31490639867103,-87.90810687900046 Z"/>
      <path class="fairway"
            d="M -144.83791257913273,-118.15035154685853 L -142.24534439111738,-113.31393909702571 -142.52449953577363,-107.06988583002787 -145.25341693282337,-102.36918170694297 -150.39987735649368,-102.69575748251175 -157.8290157355721,-104.93947989129661 -167.42977622718792,-106.53905697099115 -181.40548843720893,-107.58212710047766 -195.08670585831155,-110.28752171165715 -207.1694070820546,-109.94627241026664 -215.27520820666103,-106.66167648066511 -221.8300797726382,-101.42818837882204 -227.04871732814422,-94.96966849064025 -229.56277849527117,-89.54504637717952 -235.21872609368978,-84.71714755695585 -241.78147145476134,-79.66656162305883 -245.7507908901758,-78.21112881620066 -249.27446184957844,-79.15783057260263 -251.74049356039936,-76.8512239125558 -251.7726076719419,-73.36729672579712 -252.73534668280723,-70.20952961441573 -255.03429862841043,-68.27675915133197 -257.945610856298,-67.7837144902665 -260.34018049486156,-63.830581282544244 -264.09478663283335,-61.65127239851881 -268.2708568588287,-60.736685098890106 -271.8024698201589,-61.86629184133366 -276.86914782455733,-64.57882015669864 -278.64273208274545,-67.43442373337282 -278.2606241298191,-71.30014686629947 -276.46254948077853,-76.32714049793506 -273.3838198334273,-81.40977203396383 -268.69062794339084,-83.07999566551914 -262.1202954413089,-83.73200326651622 -256.0111381542496,-86.56345601015263 -247.9764892992928,-95.71043531049955 -240.25250855444034,-99.34514602805326 -233.49090196047916,-104.03779029664182 -225.74269735332157,-111.3393466379538 -221.41497605959054,-117.20932160173415 -215.78276575824214,-122.58605902414133 -209.61755258143748,-128.352518392585 -197.90861653743062,-128.86084637587723 -183.83760645532112,-125.62249991260548 -172.70971144216568,-122.62292358882301 -160.7781253022819,-122.22427566724909 -149.34777962992658,-120.70405908693445 -144.83791257913273,-118.15035154685853 Z"/>
      <path class="bunker"
            d="M -246.0546882058516,-77.07212541663809 L -245.38733731862996,-75.2930148708831 -246.49923816510403,-73.84728861578401 -248.61207499751703,-73.95823173520377 -250.05801688340094,-76.29326331257978 -247.94528915033047,-78.18390791873404 -246.0546882058516,-77.07212541663809 Z"/>
      <path class="bunker"
            d="M -246.00949950288285,-69.84831482139336 L -245.60691330473497,-67.5606108930777 -247.20496830607837,-66.64192282764526 -248.85294289447492,-66.87365969676894 -250.10334450186966,-67.72929265723307 -249.75569260913375,-69.50361566482229 -247.8522612817422,-70.37490722748815 -246.00949950288285,-69.84831482139336 Z"/>
      <path class="bunker"
            d="M -255.21794771122867,-73.75541917322849 L -254.37562239816907,-72.51808431129886 -255.08131589531905,-70.60688057906803 -256.57929235508175,-70.17783568872127 -257.76652335962586,-70.97554698513821 -258.1507257414195,-72.83941008220081 -256.3472567902947,-74.61631131260262 -255.21794771122867,-73.75541917322849 Z"/>
      <path class="fringe"
            d="M -259.9810536116838,-78.6376299261375 L -258.7195359201885,-76.93671694699397 -258.7151617380493,-75.64594215092167 -258.9932015870571,-73.72323757039517 -260.198998259466,-71.76023254053037 -260.8176017497613,-70.54567456309336 -259.3432084647227,-68.69909646548005 -261.266118070484,-66.6016647666541 -264.04958141042334,-64.10537932099238 -266.85083853920116,-63.20911013248728 -269.68788301416856,-63.137498313456625 -272.45763368264187,-63.89502167391168 -274.8396553337827,-65.23741048491972 -276.21991878820916,-67.29462118636951 -276.2623277772973,-69.46159619824817 -276.0626846679599,-72.00055809432287 -275.0091942468009,-75.09300373905728 -273.370842768824,-77.7977509795363 -271.65410358313466,-79.88624021654502 -269.2718817087986,-80.91922892092444 -266.9726117595885,-81.48386478346694 -264.06387770542483,-81.09383954235297 -261.90814769202376,-80.20635176660235 -259.9810536116838,-78.6376299261375 Z"/>
      <path class="green"
            d="M -261.5743891214462,-78.46513776828156 L -259.8243876916808,-76.21742138599873 -259.84695243787877,-74.35745222518659 -260.61347309724397,-72.98155280688772 -261.76548971751356,-70.96924484665216 -261.0305787408292,-69.50365257177252 -263.0230206070088,-66.62862118894067 -265.0624304832356,-64.83595676271644 -269.0715210661512,-64.40359872054397 -273.19702201810344,-65.46369166441156 -275.31676848498705,-67.90188366168415 -275.5428826617622,-70.73217834061809 -274.8972551705907,-73.70362520002405 -273.2633780516185,-76.51145461428871 -270.56053245223706,-79.6755564092781 -266.92787603396823,-80.45303509241738 -263.7031794072872,-79.92182013839117 -261.5743891214462,-78.46513776828156 Z"/>
      <path class="trees"
            d="M -288.1790130231268,-80.21706778394133 L -282.1978600090861,-73.32857649687733 -280.05869680645793,-66.27315233606272 -272.518730878392,-57.25289160705472 -266.7047512412883,-49.990544726991686 -260.52490950730703,-42.744083517202014 -259.50732879612093,-36.18981129905681 -268.94123598826246,-33.947046928180335 -278.82804255012985,-37.916462419919846 -285.7873721680572,-46.228754829430635 -293.93973767636504,-56.68868795249571 -299.99999971610134,-69.62233067506408 -299.4823012988943,-78.80942890965349 -293.97756550884935,-82.89777448877068 -288.1790130231268,-80.21706778394133 Z"/>
      <path class="trees"
            d="M -121.54671175360934,-122.09351684644007 L -123.2334991376356,-118.72106721296262 -125.61983721579894,-118.80083742256113 -136.75571955958623,-121.9835831958738 -145.15521425964852,-125.46830073801044 -151.86846656565956,-128.10969168336374 -159.05918366412206,-129.08070838407824 -166.51217848534893,-131.87325301796452 -169.87674010252596,-133.37686860664297 -173.62354401558343,-131.01473369749925 -179.12006239510703,-130.9594652112459 -186.01626870161397,-133.59282160510273 -194.34436393101515,-135.43083239858174 -200.95446680624377,-135.69375782109023 -206.56208916542872,-138.19971110523917 -208.8051409667031,-139.2020876049406 -211.00892074773245,-135.07395633535376 -215.63075677727625,-131.7573022903129 -218.47822376127985,-134.01647895289554 -218.2551870374387,-137.32544281972605 -218.58894619174404,-140.79353132278692 -213.99090867125483,-144.6590429654998 -208.50231397304094,-144.8973393597925 -189.6585673962573,-141.49962785396582 -174.30682070028072,-138.31681222078487 -164.5547483379272,-137.4570005582282 -150.22932121952672,-132.5798598767369 -136.87418194050747,-128.94358273532052 -126.99516358422593,-125.15643348834594 -122.38163797661394,-124.44011037114485 -121.54671175360934,-122.09351684644007 Z"/>
      <path class="trees"
            d="M -175.56171332540194,-82.72482637442016 L -182.832098338488,-81.30952990819765 -189.3944759710335,-80.47481515487989 -194.50118795749268,-79.88656135083134 -198.05700984840462,-77.34942082226694 -202.75019800212553,-75.67935382252888 -202.320392589075,-78.44737677187166 -199.345165975835,-81.69248418095552 -195.94054856711026,-83.48989999529665 -190.3643372410736,-85.93144873251379 -185.6393815980278,-86.86970564730717 -180.32589946386713,-86.91704085415743 -174.78978846058425,-86.05756935364386 -175.56171332540194,-82.72482637442016 Z"/>
      <path class="trees"
            d="M -167.77374148872232,-89.11142604192327 L -171.13032491411298,-90.43208789071228 -173.38127176079323,-91.6174379715477 -179.06066795068162,-91.55423781860328 -181.0255128192711,-90.36920945288304 -184.59722784061813,-88.19797931128159 -189.003897445442,-88.3732867246037 -194.81861438050169,-87.2044250467354 -197.80972354986363,-84.32521418129302 -200.7289792611829,-84.01519405062089 -204.54711007613992,-83.29956473652338 -206.9893572059697,-80.44417096860552 -212.98699898136877,-79.26732087935882 -214.83276878047988,-75.3380711211411 -219.59737914171802,-75.31448453948268 -219.0719430789835,-80.10286442681225 -215.71495984307535,-82.99798923420867 -212.06350089013878,-87.55551527735231 -207.3460780765613,-92.89248287241793 -201.70595200790052,-98.08620949691876 -195.72414169659132,-99.62892805594477 -192.21634007873678,-99.04803308688801 -186.48139331078082,-97.83063810189758 -180.58729947402944,-97.1700109764176 -174.34317342185113,-96.89114403801723 -165.08455380535025,-94.72687161787688 -167.77374148872232,-89.11142604192327 Z"/>
      <path class="tree"
            d="M -255.08774049739424,-94.8516869318522 L -255.8992862421467,-92.43364500188248 -259.04120354652656,-93.03033544976238 -259.5023745536758,-95.2098044133995 -258.5158201838139,-97.81874358328538 -255.75567928785867,-97.57205143981494 -255.08774049739424,-94.8516869318522 Z"/>
      <path class="hole-contour"
            d="M -105.48666774836106,-91.84842212155328 L -96.03201500052153,-90.95968039640485 -80.8301249518731,-77.33255612264054 -85.46662666518951,-71.93652083278532 -94.86601286048291,-64.06113864399883 -105.60382109714405,-57.101740137316014 -121.2449446299783,-50.90367525688488 -233.89949835371092,-35.62415962203544 -236.5336550130912,-43.951663241673 -233.60214420387254,-51.22213476320134 -212.7327985139336,-64.1418366257395 -186.25556286155964,-75.03191130715763 -151.8597007268902,-83.0183621658227 -131.14644556136054,-84.56637309167392 -111.88406147342803,-89.62283750576196 -105.48666774836106,-91.84842212155328 Z"/>
      <path class="rough"
            d="M -102.70565786353576,-86.86698991723893 L -98.56047311540853,-84.8270567257263 -96.12941444371945,-81.71774848441488 -93.9675266019055,-77.75481354920481 -95.19722189040331,-72.57323360768373 -97.95796563912012,-69.16225073499821 -101.4725257418883,-67.24939719839766 -106.94671753516235,-66.39966902494821 -111.39106957575379,-66.51308323091375 -116.59277736594805,-66.44055720574234 -119.47603796581733,-65.85625349315109 -122.3063010017091,-64.04958867474525 -126.71420914900258,-63.322599727886605 -133.4008108191917,-62.19058702070797 -140.91454236341858,-60.71650216354874 -149.60095534449195,-58.04339066533291 -154.9821683899996,-56.81486080052155 -160.84145630731274,-57.785262358586735 -163.35558564418946,-61.043970392235686 -164.42126228935655,-66.20252518725275 -163.15853732339193,-70.62017002200353 -159.84980617659426,-73.74885565731628 -154.62467706330793,-75.04715911534778 -150.2865163432511,-75.61809516180773 -144.41376360882734,-76.10252033065858 -136.24906016482424,-76.68636028625184 -131.92415892473932,-77.56284919270392 -127.4597095286888,-78.75154783160689 -123.22114040516601,-79.85389860471608 -119.11217997322026,-80.41483214770909 -115.42164272824023,-81.79956202536303 -112.27229470244608,-85.07434538744265 -107.30946114167405,-87.12657660245753 -102.70565786353576,-86.86698991723893 Z"/>
      <path class="rough"
            d="M -108.57136152159333,-89.75079216741447 L -104.01391920911576,-90.56077626851187 -98.9318418941471,-89.86267755304131 -96.47074465131757,-87.82624779653403 -93.66100367052579,-84.80989786153974 -92.3527495834101,-81.11610628771753 -93.11412301380298,-75.72520808252575 -94.46989175401977,-71.6862797441242 -98.21057235773533,-67.92663953459693 -103.0272140243963,-66.03386115895422 -109.96290706012353,-65.35036727530371 -112.45755440302565,-64.62984507228451 -114.25158634115101,-61.87310111986934 -118.70939583912872,-60.531637862676845 -123.60550035064753,-60.47235014692509 -130.64758874595398,-58.71259791269888 -139.5265412081766,-56.94967061473147 -146.69140224429526,-56.25610760603026 -154.3612457003356,-54.85173609349065 -159.75902544991933,-54.00517681282659 -163.93403711135872,-56.73256213209548 -166.41153031541106,-60.91135225783433 -167.04883507443694,-65.01692068935044 -166.048636014476,-68.42813977231633 -162.832672380456,-73.69595982021266 -159.07236862654028,-75.23687383565587 -153.7110042198847,-76.92379209084334 -143.82887299727284,-78.50067099116065 -138.8662783666123,-78.79251086332883 -133.67780158789225,-79.1706797208457 -127.9942860918852,-80.4888047713301 -122.61304862269755,-81.717262383277 -117.84630730271677,-82.99559604443475 -114.42139506673533,-85.21075748070693 -111.3152513143369,-87.71832850532175 -108.57136152159333,-89.75079216741447 Z"/>
      <path class="tee"
            d="M -200.05036511969948,-54.37677650327517 L -201.5444621632182,-51.622671118376424 -211.81476601835257,-48.66681706242931 -222.23296768671912,-44.98735438486718 -230.0445840432313,-43.21386491695372 -232.94658025452614,-43.98424921572928 -231.84921505023297,-47.61757047281951 -223.33731881037855,-49.7800402677023 -212.56120648456925,-53.47504550001271 -202.28312726501306,-56.25195629081313 -200.05036511969948,-54.37677650327517 Z"/>
      <path class="fairway"
            d="M -105.80158119335174,-85.89077058331411 L -101.63298965217346,-85.07651864464141 -99.49073609637507,-83.3324314419527 -97.7139225910186,-81.18978899122496 -96.49199898652995,-77.72188370646334 -96.71171974442272,-73.96184038534477 -100.28304096344402,-69.82683445913602 -104.33901127225192,-68.04357981246042 -108.92622835819198,-67.9211806854806 -112.5233544818059,-69.67869684787864 -113.0579226493576,-71.4159551999232 -115.27347612362948,-71.31986197135838 -118.65509567556536,-69.8719925059637 -121.47873725954209,-67.91253356765218 -126.24876759503432,-66.71059290871237 -133.77244325212902,-65.46572712066663 -145.6841542125209,-63.035420580753964 -152.1815295070631,-61.06960365506427 -156.82526745910224,-60.48539823653248 -160.03048988236114,-62.03021648273944 -162.28229630531834,-64.53489951710407 -161.76367869987982,-68.46100443128266 -158.78042087444692,-72.03481159130244 -153.5919377345587,-72.4130291909758 -149.18732174510725,-73.2164708281671 -143.46405761804027,-73.61786711097994 -130.7651432757397,-75.5465183910282 -125.11806888279413,-77.7050062136372 -117.660825499638,-78.71733764940114 -114.89038456700374,-80.13869965614245 -112.63794982985833,-82.91533317014529 -110.04348363536353,-84.86484701304737 -105.80158119335174,-85.89077058331411 Z"/>
      <path class="bunker"
            d="M -113.98154736087014,-69.76853457729834 L -114.80558826559141,-67.58964625708765 -116.72217049201741,-67.65960067537705 -117.55902102971832,-69.30720561201936 -115.6256586204906,-70.61571771070624 -113.98154736087014,-69.76853457729834 Z"/>
      <path class="bunker"
            d="M -115.89878756403208,-64.55713332381407 L -115.4638022424733,-63.35134431503706 -116.85906095012881,-61.98963083450953 -118.85203781438929,-62.056270442197096 -119.01124155566059,-63.96288910445481 -117.51123825376365,-65.23008373698073 -115.89878756403208,-64.55713332381407 Z"/>
      <path class="green"
            d="M -100.01251172870288,-81.24319186549387 L -97.93032894389178,-77.35334656450893 -97.7181495959638,-74.22436156944462 -99.52213932773171,-71.69681687108715 -102.41888917505706,-69.65767024132636 -105.62100072265048,-69.36572144761426 -108.57713371466274,-70.46217399772951 -110.6330446757147,-71.98037079785472 -111.76886435487936,-73.46193014626488 -113.2367749149839,-75.54141407619548 -113.4290956996168,-78.21201038906628 -111.39923277435317,-80.82590550755505 -108.2898469439186,-83.25699589821726 -103.03157903426568,-83.79120538694171 -100.01251172870288,-81.24319186549387 Z"/>
      <path class="trees"
            d="M -135.57861069106545,-86.56272534756594 L -134.3017773939662,-84.91075828569849 -133.13367812203958,-85.76484122440169 -131.6778993666481,-86.93267979446073 -130.0262653318268,-85.8996404204803 -130.14851256332108,-84.08666658623811 -131.80042251880445,-82.80989508672549 -133.65688014552026,-83.93447340673421 -136.08896890403548,-82.12172339877172 -137.8582280153011,-83.55136029295178 -137.74033153509714,-85.46457113516585 -135.57861069106545,-86.56272534756594 Z"/>
      <path class="trees"
            d="M -88.73456568992083,-79.91202259525615 L -86.64958761172255,-76.75554695869796 -86.4107818193755,-71.24620777639943 -92.27335208666395,-64.1735628804988 -101.06668087859545,-57.2985023540877 -110.36669487964403,-54.62236761129918 -121.45662080936482,-48.296996137425054 -150.2857244584106,-46.72163059205987 -160.24789457847302,-44.341228825495996 -210.53744619515714,-35.98926764561524 -210.76237891733837,-41.17451256364628 -115.66439283745345,-56.990095549675694 -104.74396951641918,-59.7365281683691 -98.10683382388562,-63.92060413970297 -89.9897435686137,-71.4157111648213 -88.79174602047067,-73.74047177257333 -91.21485374711293,-77.20697031347186 -88.73456568992083,-79.91202259525615 Z"/>
      <path class="tree"
            d="M -94.64615015114768,-87.53455971337054 L -95.43968173375356,-84.98949521877392 -97.87149876503189,-85.48659585705114 -98.8127598099686,-86.34961280983212 -98.91269817331104,-88.65508243847637 -96.51129274615697,-88.8596457378641 -94.64615015114768,-87.53455971337054 Z"/>
      <path class="hole-contour"
            d="M -80.1173712232894,-11.974597927025114 L -82.34980423858666,-2.454840407832367 -92.14479267593964,15.65853099266268 -88.0922374072225,21.434106870720928 -86.12137703177804,36.39219367566114 -85.68611730596903,54.061845238079385 -86.34864379890175,73.10158434101534 -86.70110725589541,80.22533302176453 -89.06268139592405,90.5771511636319 -93.82622790486117,91.2796494991215 -94.98023810816957,83.72528249914247 -99.50480778374954,67.0595515226956 -108.24600273440555,37.02100435446393 -115.5552356000339,28.57639615652124 -122.51258092932996,16.810248795657117 -128.5304980258328,7.648366817541347 -127.89819054452929,-0.6448001196221561 -118.47722847264487,-12.129556802375856 -106.91208528945384,-16.102779613912517 -97.05468392405434,-17.522157408515252 -80.1173712232894,-11.974597927025114 Z"/>
      <path class="tee"
            d="M -91.09590873467235,58.925187736266444 L -90.78121009613702,66.18532024140515 -90.48081645543914,73.11544552998652 -90.34542352171964,80.0527267305715 -89.81566044768802,88.46072913898642 -91.63066276514667,88.53943143721868 -93.50904307473327,79.52865528584198 -94.01070057169801,75.58289526126774 -95.05693309829184,66.70135420781263 -96.89241398880367,58.68060703918911 -96.26767617654352,54.02474664777273 -92.02054849966223,52.84869540677223 -91.09590873467235,58.925187736266444 Z"/>
      <path class="fairway"
            d="M -88.55074220305806,-2.215204274738297 L -90.09589516545347,3.1901441252433 -91.90976270230696,9.53554817554639 -95.12342769527525,13.930101697472598 -99.97872200020609,17.93183140481255 -105.18615891609306,17.383850251455733 -108.17058887483404,14.573312334747554 -111.18223944559539,14.703901477069998 -110.28615522961091,17.52762486180197 -110.03485307506826,21.539822107243275 -112.14349859626803,22.86915290381275 -115.63856445490626,22.556542037488114 -118.84795890221673,19.910526779737026 -118.49845515765473,17.264880866469944 -120.34442516206202,12.161343615324006 -116.80181441003077,8.216686010458183 -120.42076952689816,5.046863174269407 -120.1143522249347,-2.161593256802531 -118.78060781989342,-8.873046418866819 -115.80219001636466,-11.555359030592575 -109.63755503846112,-13.911654980225348 -103.3387795072391,-14.958503641302164 -97.60097278296814,-14.665552476586736 -91.05075970814552,-9.921172370290265 -88.55074220305806,-2.215204274738297 Z"/>
      <path class="path"
            d="M -89.99259514855788,15.730520924027369 L -107.11341144493188,44.08036112785601 -108.08148212004336,40.81607855235445 -91.7356102989647,13.657019026672222 -89.99259514855788,15.730520924027369 Z"/>
      <path class="path"
            d="M -103.72559041827633,30.70835573807448 L -102.03362379571966,39.23128303615553 -101.9053624608311,46.00356867483544 -101.75564399625362,53.27085861466596 -103.77955390677248,59.9711598050149 -105.1424814355546,59.038388754660474 -103.52725744790372,50.537365070271 -103.75566137140218,41.455038237244544 -106.32938479396437,27.845632766087913 -109.49209211603888,19.717106551400292 -107.72712874813067,18.48336092463564 -103.72559041827633,30.70835573807448 Z"/>
      <path class="bunker"
            d="M -100.76411286759749,-10.892310385200977 L -97.94393265926705,-10.086200994311081 -95.85246328690977,-8.242709963698744 -93.56972859841424,-5.556470462570643 -92.72409728614821,-2.1116055914134506 -92.16392602375981,1.8872064935840616 -93.48386514684252,5.3486049409474665 -94.96494030352892,8.662255590610314 -96.71784731721282,11.059286678948057 -98.82985115946879,12.311382744030539 -100.37429051496495,12.378358745388502 -101.66675037092091,11.11916499756397 -100.7164244634221,9.840076552820369 -99.2927236621937,8.772561482322343 -97.95293838754831,7.553952036579693 -96.6196152127019,4.401441081880864 -95.95451081480697,1.8968448594497958 -96.17567095893152,-1.4203604064351862 -97.53843051655731,-4.301225972606447 -99.96222098906733,-6.6718739583560085 -102.57081598140911,-7.951361367282963 -104.59198928761627,-8.17317705365555 -106.83143960847971,-8.07605476799463 -108.9735809829461,-7.5189455426943175 -110.86061998095266,-6.4313267802424665 -112.04908585722784,-7.076088626890988 -112.25039996564027,-8.15050202208516 -111.1389323743364,-9.28185278663368 -108.08685902198363,-10.265265525251575 -105.95141086709918,-10.976818447546462 -103.33923626596075,-11.399574212405279 -100.76411286759749,-10.892310385200977 Z"/>
      <path class="green"
            d="M -101.80886367297074,-6.437055712904376 L -99.56964407403417,-4.754712325772631 -97.36078501566087,-1.9879073076578275 -97.04901153381265,1.634838337881452 -98.48322023338349,6.0296023307650035 -100.68272058363182,8.832840274481608 -104.96363507837631,10.024267356917202 -108.1364321906829,10.00713471841599 -110.74501731061636,8.727659527705624 -112.76261013221621,6.803616703474268 -114.32669401486542,2.8483547977599217 -113.82586785840962,-1.6606741170712793 -111.86138656728788,-4.531103642245871 -108.39285175180297,-6.6157227088185016 -104.86070789423432,-7.233113973214249 -101.80886367297074,-6.437055712904376 Z"/>
      <path class="tree"
            d="M -94.6218333302425,30.974817421771593 L -92.2474250094881,32.35967702535166 -92.95800086803953,35.035506170558 -95.3181023081441,33.98065441861223 -94.6218333302425,30.974817421771593 Z"/>
      <path class="tree"
            d="M -92.58558046394563,39.81344706715017 L -93.33906841672143,41.49925457928629 -95.00339473100466,41.240799306114816 -95.5770783170712,39.447229319073976 -94.31427951845194,38.06996186293518 -92.58558046394563,39.81344706715017 Z"/>
      <path class="tree"
            d="M -104.9163841494699,29.9334101262547 L -106.5740371688513,33.64222064954029 -109.73769783429785,33.118174781389484 -111.1435569440449,31.19538474653504 -109.63659403658534,27.823752911897333 -106.72376737932446,26.37491328835164 -104.9163841494699,29.9334101262547 Z"/>
      <path class="tree"
            d="M -112.61284716120525,20.18308369146241 L -114.89427831008797,20.943290063597168 -117.27585945101669,19.39344861025598 -115.91244169092276,16.523971517430166 -112.79168218665612,16.05798977493073 -112.61284716120525,20.18308369146241 Z"/>
      <path class="hole-contour"
            d="M -39.8222112753906,-40.07063421205912 L -35.90320019772049,-37.7847941838728 -33.145299978093284,-30.810136651099597 -30.660689908947774,-17.54804486767706 -23.452870872963118,3.9677285327956757 -10.575175546493705,36.69750979528473 -3.023464310833831,53.559896111785584 -0.3374619846701835,65.17608139238689 -3.8797681188580455,77.88063309779295 -10.12082568151271,84.97226521708266 -16.69318856752463,90.71402363157158 -26.49812987588282,97.4144315443117 -37.92338555824827,91.90684326146845 -45.22826411654357,87.03928970920886 -47.061971083216775,76.20475954149845 -42.66189397185549,26.6282016551329 -37.7788059775504,-5.50695793061521 -43.09123962224055,-33.65333854315705 -43.232856601127686,-36.9214351958523 -39.8222112753906,-40.07063421205912 Z"/>
      <path class="tee"
            d="M -34.247398414303234,-24.759620126612685 L -34.08219062792693,-20.94684919480493 -33.78717778551397,-14.13833749655366 -32.651544626167514,-6.820560572832384 -35.919627498896965,-6.678935600480722 -36.404380154118996,-11.569253714261384 -37.57542594132225,-19.704057464516307 -38.556743153182005,-29.757064499130436 -36.1292646620212,-30.40797077239604 -34.247398414303234,-24.759620126612685 Z"/>
      <path class="fairway"
            d="M -25.367396223629502,28.83878801828217 L -23.81760759737082,31.738627435216895 -22.05739827564608,39.49520763183508 -20.390407716102317,50.57883237624611 -17.82155679110138,57.82563066061343 -15.488789181976346,59.62342065196269 -12.136533609688737,63.03854796204736 -10.545716977660087,66.88603114882302 -9.547178702355898,70.7591744460952 -10.06247624915274,72.56168290397628 -10.31520401977176,74.94621092336645 -11.968863027777351,77.86615014813742 -13.36508203567055,81.24965198825853 -17.624738825237937,84.28250620665129 -21.868578627132457,84.9411059038943 -24.397184710871542,84.1012431975858 -28.522159547005568,82.02509173952274 -32.92470324395563,76.28192971072524 -34.412077337227984,69.34433028397328 -32.70156741727192,64.99775987179042 -28.85885714928134,60.55879248672965 -28.43081887512526,56.742514079368 -30.49507545426166,50.18593462874093 -36.45219079220349,38.69483254931374 -37.06933673592968,32.66891583435833 -35.441341509932606,29.156652620701497 -31.59899756789425,27.44730657950454 -27.901177888140236,27.88046612270234 -25.367396223629502,28.83878801828217 Z"/>
      <path class="bunker"
            d="M -14.935116458380419,61.98064049616723 L -13.524024615720627,64.7591116182069 -14.43900924292744,65.48714533072939 -17.16475131297622,64.14241645380756 -19.442455899312172,63.208521660264225 -18.74021307545502,61.54314677580699 -17.339640479300044,60.105701493989066 -14.935116458380419,61.98064049616723 Z"/>
      <path class="bunker"
            d="M -26.317700848654063,67.37862790409335 L -26.926646128633404,69.21203901802328 -28.133074921296636,71.15738977059577 -28.402195052290732,72.89002697159763 -28.406212632860722,74.7832730839916 -30.01200451080977,75.45520089231313 -31.11334627926371,73.86800128971979 -31.561089387315732,71.47803937580942 -31.000524115188583,68.52808913111258 -29.655815043030998,65.80230476158563 -27.676360420946295,63.82341799256448 -26.16423635601745,64.96261265504619 -26.070907400771596,65.13066591094146 -26.317700848654063,67.37862790409335 Z"/>
      <path class="bunker"
            d="M -17.159727721395427,80.14726484857573 L -15.819339476752852,81.29386995517133 -16.44689285181891,82.69784222761051 -18.209571458384683,83.72075193074429 -20.41656408704807,84.4187216505337 -21.420849857345818,83.0854579572857 -20.976234175344025,81.43126489222549 -18.870303963600424,80.26130388164655 -17.159727721395427,80.14726484857573 Z"/>
      <path class="bunker"
            d="M -10.074594844987436,70.89122138348912 L -11.060581893576492,71.96652372625148 -11.161657110809376,73.60582895788214 -11.8788209313472,74.9276317411314 -13.081230237024771,74.97972726365316 -14.332012229056748,73.91528605378222 -14.914308614768073,72.39163819849693 -13.700431470410335,70.61806961322925 -11.600574168754633,69.16155091222558 -10.074594844987436,70.89122138348912 Z"/>
      <path class="green"
            d="M -22.082613816902064,63.83921255969209 L -18.863877711397933,64.64628140829424 -16.802902432767663,66.53610330919498 -15.865895268434883,68.30252835079327 -15.72821767834785,71.48036629240336 -15.078942837760712,74.54998893965114 -15.16885388901602,76.4469575313129 -17.051213277754982,78.67973369660562 -20.890047522088206,79.44840923267408 -23.896066365078322,79.578663054363 -26.9876737027459,77.7335092260244 -27.76035332015349,75.78787110276546 -27.401328388477587,72.15826614346497 -26.243275815079308,69.09637757985102 -25.06661535376897,66.46392759093003 -24.19628764170455,64.70523968909808 -22.082613816902064,63.83921255969209 Z"/>
      <path class="trees"
            d="M -4.959925232073096,53.33585820859768 L -3.661249450980121,56.03684361070402 -2.123422315650587,59.71219928650241 -3.5853178939155943,62.33583020419537 -7.5083032394801466,62.70273199141766 -9.191613237490424,60.215361229035814 -11.942966204536337,55.80480307050739 -10.216368651458403,54.74526620783358 -8.190296470509487,51.50634652681246 -4.959925232073096,53.33585820859768 Z"/>
      <path class="trees"
            d="M -12.010396233827713,49.70238936462647 L -13.506354662657433,51.5397214528108 -15.121541628633473,50.624971010423074 -13.57448600766606,49.9671027373447 -13.685199562538353,47.41159562416863 -11.522864543058407,47.31790949814612 -12.010396233827713,49.70238936462647 Z"/>
      <path class="tree"
            d="M -31.631446357415093,92.30512809018485 L -33.63192280545328,96.13379161638188 -37.05884249828426,94.31285047444341 -36.84456495812875,90.16770058745499 -34.14364076538552,88.86897342927324 -31.631446357415093,92.30512809018485 Z"/>
      <path class="tree"
            d="M -13.690922403227624,29.09579405308548 L -13.127439929953711,33.0103219962499 -15.86248073883065,33.522716288679646 -17.665737740466014,32.813060770798685 -18.408769097603738,29.30020872903252 -16.921320386422543,27.26628738878235 -13.690922403227624,29.09579405308548 Z"/>
      <use xmlns:xlink="http://www.w3.org/1999/xlink" x="171.1652478243142"
           y="-83.50860854336264 "
           xlink:href="#Dogleg"/>
   </g>
   <use xmlns:xlink="http://www.w3.org/1999/xlink" xlink:href="#Compass" x="550" y="50"
        transform="rotate(0 550 50)"/>
   <use xmlns:xlink="http://www.w3.org/1999/xlink" xlink:href="#GolfMLLogoSmall" x="10"
        y="575"/>
</svg>
