<?xml version="1.0" encoding="UTF-8"?>
<svg xmlns="http://www.w3.org/2000/svg" width="600" height="600">
   <defs xmlns:g="http://code.google.com/p/golfml"
         xmlns:xlink="http://www.w3.org/1999/xlink"
         xmlns:xs="http://www.w3.org/2001/XMLSchema">
      <style type="text/css">
/* Stylesheet for SVG elements
 *
 *
 * Classes for area of interest (surfaces)
 *
 * DRAWING
 */
.background {
		fill: url(#background-gradient);
}

.hole-limits {
	fill: none;
	stroke: #ccc;
	stroke-width: 1px;
	stroke-dasharray: 10,10;
}

.hole-contour {
	fill: #030;
	stroke: #fff;
	stroke-width: 2px;
}


/* GROUND
 */
.fairway {
	fill: url(#fairway-pattern);
	stroke: #0b0;
	stroke-width: 3px; /* fairway fringe... */
}

.tee {
	fill: #00c800;
	stroke: #0f0;
	stroke-width: 1px;
}

.fringe {
	fill: #0A0;
}

.green {
	fill: url(#green-gradient);
	stroke: #0f0;
	stroke-width: 1px;
}

.semi-rough,
.light-rough {
	fill: #080;
	stroke: #08800D;
	stroke-width: 1px;
}

.rough {
	fill: url(#rough-gradient);
	stroke: #07660A;
	stroke-width: 1px;
}

.heavy-rough {
	fill: #040;
	stroke: #074D08;
	stroke-width: 1px;
}

.ground {
	fill: #7f400c;
	stroke: #fdcc6a;
	stroke-width: 1px;
}


/* WATER
 */
.lateral-water {
	fill: url(#lateral-water-gradient);
	stroke: red;
	stroke-width: 4px;
}

.front-water, .water {
	fill: #37f;
	stroke: yellow;
	stroke-width: 3px;
}


/* SPECIAL
 */
.under-repair {
	fill: none;
	stroke: #00d;
	stroke-width: 2px;
}

.out-of-bound { /* line only */
	fill: none;
	stroke: white;
	stroke-width: 4px;
}

.out-of-bound-area {
	fill: #ccc;
	stroke: white;
	stroke-width: 4px;
}


/* TRAPS
 */
.trap,
.bunker {
	fill: #92cf94;
	stroke: #4c994c;
	stroke-width: 1px;
}

.grass-trap,
.grass-bunker {
	fill: #050;
	stroke: #0A0;
	stroke-width: 1px;
}

.sand-trap,
.sand-bunker,
.greenside-trap,
.greenside-bunker {
	fill: #eec;
	stroke: #040;
	stroke-width: 2px;
}

.fairway-trap,
.fairway-bunker {
	fill: #eec;
	stroke: #030;
	stroke-width: 2px;
}


/* OBSTACLES
 */
.tree {
	fill: #062;
	stroke: #0c6;
	stroke-width: 1px;
}

.trees {
	fill: #062;
	stroke: #0c6;
	stroke-width: 1px;
}

.bush {
	fill: #00b259;
	stroke: #7f400c;
	stroke-width: 1px;
}


.path {
	fill: #666;
	stroke: #bbb;
	stroke-width: 1px;
}

.building,
.construction {
	fill: #fdcc6a;
	stroke: #7f400C;
	stroke-width: 1px;
}

.obstruction {
	fill: #555;
	stroke: #999;
	stroke-width: 1px;
}


.other {
	fill: #ddd;
	stroke: #666;
	stroke-width: 1px;
}

/* Classes for point of interest (points)
 *
 */
.dogleg {
	fill: #000;
}

.aim {
	fill: #fff;
	stroke: #f00;
	stroke-width: 1px;
}

.tees {
	fill: #00f;
}

.tees-hollow {
	stroke: #fff;
	stroke-width: 0.5px;
}

.hole {
	fill: #fff;
}

.distance-marker-100,
.distance-marker-close {
	fill: #44f;
	stroke: #00f;
	stroke-width: 1px;
}

.distance-marker-150,
.distance-marker-135,
.distance-marker,
.distance-marker-mid {
	fill: #f44;
	stroke: #f00;
	stroke-width: 1px;
}

.distance-marker-200,
.distance-marker-far {
	fill: #dd4;
	stroke: #ff0;
	stroke-width: 1px;
}

.green-region-delimiter {
	fill: none;
	stroke: #fff;
	stroke-width: 0.5;
	stroke-dasharray: 4,2;
}

.neutral {
	fill: none;
	stroke: #888;
	stroke-width: 1px;
}


/* Classes for special decorative objects
 *
 */
.compass-center {
	fill: #ddd;
	stroke: #fff;
	stroke-width: 1px;
}
.compass-needle {
	fill: #ddd;
	stroke: #fff;
	stroke-width: 1px;
}
.compass-north {
	fill: #fff;
}
.flag-pole {
	fill: none;
	stroke: #f00;
	stroke-width: 2px;
}
.flag-flag {
	fill: #ff0;
	stroke: #f00;
	stroke-width: 1px;
}
.flag-cup {
	fill: #fff;
}
/* Information box */
.info-background {
	fill: #ddd;
}
.info-hole {
	font-family: Georgia, "Times New Roman", Times, serif;
	font-size: xx-large;
}
.info-par {
	font-family: Georgia, "Times New Roman", Times, serif;
	font-size: x-large;
}
.info-length {
	font-family: Georgia, "Times New Roman", Times, serif;
	font-size: large;
}
/* Circle for distances */
.circle-from-green {
	fill: none;
	stroke: #fff;
	stroke-width: 1px;
	stroke-dasharray: 4,4;
}
.circle-from-tee {
	fill: none;
	stroke: #f00;
	stroke-width: 1px;
	stroke-dasharray: 8,8;
}

     </style>
      <linearGradient id="background-straight">
         <stop offset="5%" stop-color="#002"/>
         <stop offset="95%" stop-color="#004"/>
      </linearGradient>
      <linearGradient id="background-gradient" gradientTransform="rotate(30)"
                      xlink:href="#background-straight"/>
      <linearGradient id="lateral-water-straight">
         <stop offset="5%" stop-color="#006"/>
         <stop offset="95%" stop-color="#008"/>
      </linearGradient>
      <linearGradient id="lateral-water-gradient" gradientTransform="rotate(60)"
                      xlink:href="#lateral-water-straight"/>
      <linearGradient id="rough-straight">
         <stop offset="0%" stop-color="#030"/>
         <stop offset="25%" stop-color="#060"/>
         <stop offset="50%" stop-color="#040"/>
         <stop offset="75%" stop-color="#060"/>
         <stop offset="100%" stop-color="#080"/>
      </linearGradient>
      <linearGradient id="rough-gradient" gradientTransform="rotate(70)" xlink:href="#rough-straight"/>
      <linearGradient id="green-straight">
         <stop offset="0%" stop-color="#0d0"/>
         <stop offset="25%" stop-color="#0e0"/>
         <stop offset="50%" stop-color="#0c0"/>
         <stop offset="75%" stop-color="#0e0"/>
         <stop offset="100%" stop-color="#0b0"/>
      </linearGradient>
      <linearGradient id="green-gradient" gradientTransform="rotate(75)" xlink:href="#green-straight"/>
      <pattern id="fairway-straight" patternUnits="userSpaceOnUse" x="0" y="0" width="20"
               height="20"
               viewBox="0 0 20 20">
         <rect x="0" y="0" width="10" height="10" fill="#00c000"/>
         <rect x="10" y="10" width="10" height="10" fill="#00c800"/>
         <rect x="10" y="0" width="10" height="10" fill="#00bc00"/>
         <rect x="0" y="10" width="10" height="10" fill="#00b800"/>
      </pattern>
      <pattern id="fairway-pattern" patternTransform="rotate(60)"
               xlink:href="#fairway-straight"/>
      <g id="TeeSet">
         <circle cx="-5" cy="0" r="2"/>
         <circle cx="5" cy="0" r="2"/>
      </g>
      <g id="DistanceMarker">
         <circle r="6"/>
      </g>
      <g id="Dogleg">
         <circle r="4"/>
      </g>
      <g id="Aim">
         <circle r="4"/>
      </g>
      <g id="Hole">
         <circle r="2"/>
      </g>
      <g id="Flag" transform="translate(0 -30) scale(-0.2 0.2)">
         <line id="FlagPole" class="flag-pole" x1="0.5" y1="0" x2="0.5" y2="150"/>
         <circle id="FlagCup" class="flag-cup" r="10" cx="0" cy="145"/>
         <g id="FlagFlag">
            <path class="flag-flag"
                  d="M55.339,45.968c-18.28-14.516-36.559,14.516-54.839,0c0-12.097,0-24.193,0-36.29      c18.28,14.516,36.559-14.516,54.839,0C55.339,21.774,55.339,33.871,55.339,45.968z"/>
         </g>
      </g>
      <g id="Compass">
         <polygon id="CompassNeedle" class="compass-needle" points="0,30 -8,0 0,-20 8,0"/>
         <circle id="CompassCenter" class="compass-center" r="10"/>
         <text id="CompassNorth" class="compass-north" x="-4.7" y="40">N</text>
      </g>
      <g id="GolfMLLogoSmall">
         <image xlink:href="../stylesheets/images/golfml-small.png" width="80" height="15"/>
      </g>
   </defs>
   <rect class="background" x="0" y="0" width="600" height="600"/>
				<!-- debug information: mode course
				min_lat: 50.54495076939484
				max_lat: 50.54645987798984
				min_lon: 4.502177417071891
				max_lon: 4.507059667174231
				mid_lat: 50.54570532369234
				mid_lon: 4.504618542123062
				deltax: 0.00005414860949424926
				deltay: 0.00002633891374131947
				scalex: 1.1080616946659023E7
				scaley: 2.277998272414489E7
				scale: 1.1080616946659023E7
				minx: -0.000027074304747119543
				maxx: 0.000027074304747129714
				miny: -0.000013169233916754397 
				maxy: 0.000013169679824565073 
				minx: -299.99999999994367
				maxx: 300.00000000005633
				miny: -145.92323651250555
				maxy: 145.92817744614916
				calibration: 1.740400074696505
			
			MODIFICATION
			
				rotation: 95.94227820918087
				reduction: 0.9946266963312409
				x,y: 
							Green
							green_lat_min: 50.54536504046654
							green_lat_max: 50.54558334347728
							green_lon_min: 4.506199728151521
							green_lon_max: 4.506536174730078
							green_mid_lat: 50.54547419197191
							green_mid_lon: 4.506367951440799
							green_mid_x: -0.000019402545956415196
							green_mid_y: 0.0000040341418890976755 
							Tee
							tee_lat_min: 50.54564255210961
							tee_lat_max: 50.54581522265595
							tee_lon_min: 4.502228989833132
							tee_lon_max: 4.502805622295312
							tee_mid_lat: 50.54572888738278
							tee_mid_lon: 4.502517306064222
							tee_mid_x: 0.00002330462561495399
							tee_mid_y: -4.1106730819251425E-7 
							x1&gt;x2: Yes
							y1&gt;y2: No
							Angle-temp: ROTATION=95.94227820918087,$tee_mid_x=0.00002330462561495399,$tee_mid_y=-4.1106730819251425E-7 ,$green_mid_x=-0.000019402545956415196,$green_mid_y=0.0000040341418890976755 ,
				-->
			<g transform="translate(300,300) scale(-0.9946266963312409,0.9946266963312409) rotate(95.94227820918087)">
      <path class="hole-contour"
            d="M 284.543204675942,30.389182402901206 L 200.50408809048582,2.0893168315351835 100.3434758977604,-16.046136845106606 68.56112336926174,14.907291438002904 3.71982072748437,20.085359247422414 -65.280900236162,38.45771344619429 -127.660004660497,73.10560882573363 -210.42136513489586,128.74999758330154 -229.97986815648486,114.22002080209433 -276.64095877973466,47.631570108597955 -275.09941215167055,28.636481011230085 -259.5934193021644,4.302989811525616 -230.22749010475204,-0.521011311940461 -72.03968023896539,-144.61649929399846 60.25974172388451,-121.96275134849844 168.17173537315426,-88.78479862283665 242.14700247885742,-47.0361342401942 299.9999999740685,4.876142785853248 284.543204675942,30.389182402901206 Z"/>
      <clipPath id="HoleContour" transform="scale(1.2)">
         <path class="hole-contour"
               d="M 284.543204675942,30.389182402901206 L 200.50408809048582,2.0893168315351835 100.3434758977604,-16.046136845106606 68.56112336926174,14.907291438002904 3.71982072748437,20.085359247422414 -65.280900236162,38.45771344619429 -127.660004660497,73.10560882573363 -210.42136513489586,128.74999758330154 -229.97986815648486,114.22002080209433 -276.64095877973466,47.631570108597955 -275.09941215167055,28.636481011230085 -259.5934193021644,4.302989811525616 -230.22749010475204,-0.521011311940461 -72.03968023896539,-144.61649929399846 60.25974172388451,-121.96275134849844 168.17173537315426,-88.78479862283665 242.14700247885742,-47.0361342401942 299.9999999740685,4.876142785853248 284.543204675942,30.389182402901206 Z"/>
      </clipPath>
      <path class="tee"
            d="M 293.66200906890964,3.9970421455127862 L 289.5895673629583,12.142338349259756 254.56424576539175,-3.3330727380465555 222.7972499819197,-13.10667216767847 227.684147254297,-21.252033060646287 261.8948372190823,-9.034877314715045 293.66200906890964,3.9970421455127862 Z"/>
      <path class="fairway"
            d="M 108.15206282007641,-75.56198601489908 L 114.97178322593832,-62.83944565019037 114.23746885432321,-46.41430713492105 107.05908341834063,-34.04919907574304 93.52137922353116,-34.908698979966445 73.97911726246869,-40.81150035006559 48.7244286310184,-45.02004155378201 11.961480468723462,-47.76504321331647 -24.026802573536283,-54.88281253861521 -55.810207387010195,-53.98616281472883 -77.13242282717492,-45.346620449559595 -94.37493613705477,-31.58033061140884 -108.10250145246181,-14.59144695844132 -114.71571008163843,-0.3220336809998788 -129.59361436440278,12.377417489292656 -146.8568395982519,25.662577251387255 -157.29808813624572,29.49080128880171 -166.56706354244807,27.000178637092915 -173.05393123610293,33.06756647245191 -173.13840704264808,42.23213461428289 -175.6708808041632,50.53865099756153 -181.718247120497,55.62266600292126 -189.3764200214846,56.91938929571827 -195.67530757074155,67.31801866764249 -205.55175528264098,73.05043764674095 -216.5368593645489,75.45593460748238 -225.82672611362315,72.48417445302655 -239.15456357012718,65.3483643639077 -243.81995629043385,57.8364676865911 -242.81482575969238,47.66760374656849 -238.08501132674522,34.444103408849074 -229.98644883982044,21.074353688750836 -217.64106224346313,16.681177090182924 -200.35787913900725,14.96660499930128 -184.28781205734884,7.518900871657108 -163.1527618164251,-16.5418158504119 -142.834920438061,-26.10237737692256 -125.04859304797907,-38.44594454311566 -104.66703106812054,-57.65224708601858 -93.28301060070673,-73.09302130129085 -78.46754699715093,-87.23621021524822 -62.25002553713379,-102.40452909761035 -31.449805677298738,-103.74071554123944 5.563822411640213,-95.22096821746581 34.83562060166273,-87.32956019994687 66.22151894907873,-86.27990166828543 96.28891008451323,-82.27996663661193 108.15206282007641,-75.56198601489908 Z"/>
      <path class="bunker"
            d="M -158.0974864881751,32.48695698423313 L -156.34202775887724,37.16701467162527 -159.2668699864327,40.96994570653907 -164.82466266001336,40.67792890535562 -168.62819593928631,34.53543943540014 -163.0706902444703,29.56222204528354 -158.0974864881751,32.48695698423313 Z"/>
      <path class="bunker"
            d="M -157.97861815182813,51.4894026857711 L -156.91961985368997,57.507307646060966 -161.12328492058214,59.923808644989386 -165.45826287659438,59.31407951027794 -168.74742973589824,57.06320717310786 -167.83293547719867,52.39582862467058 -162.82598154229234,50.10403118020638 -157.97861815182813,51.4894026857711 Z"/>
      <path class="bunker"
            d="M -182.20133387764452,41.21087751754555 L -179.98560695812176,44.465793376694315 -181.8419254867691,49.4932104978544 -185.78233511442562,50.6216994349721 -188.90533243866068,48.52319701948157 -189.91597232263226,43.62021912188601 -185.17196825140013,38.946180944595554 -182.20133387764452,41.21087751754555 Z"/>
      <path class="fringe"
            d="M -194.73062844464798,28.36768080044428 L -191.41222085896453,32.84208751566734 -191.40071462776544,36.237508176128074 -192.13209521728763,41.295214581162945 -195.30392932263717,46.45885444122961 -196.93115860084743,49.65373215878877 -193.0527842462293,54.511333072328625 -198.11097556878525,60.0285258351501 -205.43284346492456,66.59484248231689 -212.80151771074233,68.95226877042013 -220.26433015138656,69.14040707590873 -227.5501270154977,67.14748706437143 -233.8160072146029,63.61609424662262 -237.44677414529636,58.204426117768726 -237.558330490351,52.50413234555432 -237.03317160909467,45.82533671822052 -234.26197731948704,37.69065796553661 -229.95231283467723,30.575880234833615 -225.4364503998915,25.08219353481709 -219.1700435089977,22.36508737442587 -213.1218406922687,20.879989879981814 -205.4704496507882,21.9062071936789 -199.79982696754368,24.240950695401516 -194.73062844464798,28.36768080044428 Z"/>
      <path class="green"
            d="M -198.9218789414527,28.821292362189322 L -194.3185205747534,34.73412227395253 -194.37787688243372,39.626822842505824 -196.39420055122346,43.24610142792545 -199.42456685607894,48.53943858839733 -197.49139209776544,52.394783112794926 -202.732487223574,59.957468401563084 -208.0971311494594,64.67295227417328 -218.64299722400034,65.80994532223934 -229.49507941354696,63.020993260836576 -235.0710477924742,56.607080652364075 -235.66583849149248,49.161889931211796 -233.9675228880984,41.34546766017265 -229.6696281522623,33.95952892533807 -222.55982428092145,25.636495348433215 -213.00416389060373,23.59162084630983 -204.5216369834667,24.98926834650281 -198.9218789414527,28.821292362189322 Z"/>
      <path class="trees"
            d="M -268.9050321625173,24.21055203052971 L -253.1716788644142,42.33142996396383 -247.54463500375576,60.89110644933896 -227.71084249585792,84.61979644111746 -212.41723681023947,103.72409821522676 -196.16123513776444,122.7866430471468 -193.48450094471113,140.0279305550826 -218.30028391920177,145.9267932970988 -244.307413395225,135.48429982521864 -262.6138488607618,113.61798974186816 -284.0585513265325,86.102148518484 -299.99999997724404,52.07931889838205 -298.6382002895147,27.91243583110576 -284.15805691123103,17.158388037986686 -268.9050321625173,24.21055203052971 Z"/>
      <path class="trees"
            d="M 169.419295292254,-85.93263666863788 L 164.98222071865942,-77.06145264981012 158.704986201377,-77.27149122102036 129.41217742134816,-85.64473241936197 107.317404466258,-94.81208886842519 89.65827248522241,-101.76090856602845 70.74317492560522,-104.31580085823244 51.138158878646614,-111.66229691453512 42.28771874446399,-115.61788406937016 32.43179469067276,-109.40453532327551 17.973267124053073,-109.25961234579549 -0.16712321861896662,-116.18731231956644 -22.074080693628954,-121.02295322785584 -39.461879300008874,-121.71514217352383 -54.21266457793312,-128.30759619993063 -60.112986205707315,-130.94456514882808 -65.91000326275615,-120.08558229483096 -78.06768910783632,-111.36141706700111 -85.55791782714432,-117.3044858959706 -84.97122230966633,-126.00879191866576 -85.84917186196103,-135.13172671913551 -73.7540877151007,-145.2996796716324 -59.31640330278881,-145.92606349647255 -9.748147473339385,-136.9867003394835 30.634443357268193,-128.61292072020072 56.28715609806301,-126.35034102110232 93.97002523784103,-113.51967689221372 129.1005635278076,-103.9532216750872 155.0872062260865,-93.99018545435719 167.2230315942369,-92.10548876734528 169.419295292254,-85.93263666863788 Z"/>
      <path class="trees"
            d="M 27.333462763959787,17.623294042814283 L 8.208799674857755,21.345660595311504 -9.053458245365581,23.540849780523114 -22.486604639468922,25.087838789275594 -31.84015270776347,31.7615609336949 -44.185529479100886,36.15432550530885 -43.05493134039482,28.87299754563956 -35.22863238498613,20.336899286715493 -26.27282594743294,15.609031596522739 -11.60466700557058,9.186936367195122 0.8242737750215617,6.719221981344114 14.801326632986466,6.59515232084162 29.36400213620107,8.856482555780135 27.333462763959787,17.623294042814283 Z"/>
      <path class="trees"
            d="M 47.81963197457344,0.8238147413018279 L 38.99017837693519,-2.65050665120739 33.0690889202611,-5.768793536871622 18.12950340094839,-5.603021459524612 12.961001859487732,-2.485935484045002 3.56564709712492,3.2252475048193103 -8.026045964895236,2.763725619250489 -23.321591129797376,5.837960808740203 -31.18966896343752,13.411556331435099 -38.86873710622914,14.226827651503074 -48.91228573895736,16.10899000393544 -55.336588371111795,23.619980134732458 -71.1133151967436,26.71521368618244 -75.96859116141503,37.05106311498443 -88.50184321276531,37.11270750452401 -87.1196897583132,24.516780453013965 -78.28918445502916,16.90135362280541 -68.68406420384511,4.91295721974852 -56.27493843244275,-9.125692973445508 -41.43865249736582,-22.78746604736409 -25.703570152632835,-26.845128477174544 -16.47633886157489,-25.316772451482432 -1.390628198872681,-22.113897450032486 14.113716976545787,-20.3756029559919 30.538817818739265,-19.641510190160435 54.893508862928456,-13.947550407256179 47.81963197457344,0.8238147413018279 Z"/>
      <path class="tree"
            d="M -181.8588252501719,-14.283451690891487 L -183.9935868857023,-7.922790992650098 -192.2583637493778,-9.492666703776685 -193.47146870323803,-15.225861399322214 -190.8763489172995,-22.088668065867413 -183.615830447256,-21.43950509527009 -181.8588252501719,-14.283451690891487 Z"/>
      <use xmlns:xlink="http://www.w3.org/1999/xlink" xlink:href="#TeeSet"
           x="258.2296295246031"
           y="-4.554879381375481"
           class="tees"
           transform="rotate(-95.94227820918087 258.2296295246031 -4.554879381375481)"/>
      <use xmlns:xlink="http://www.w3.org/1999/xlink" xlink:href="#Flag"
           x="-214.99217953298472"
           y="44.700780981562744"
           transform="rotate(-95.94227820918087 -214.99217953298472 44.700780981562744)"/>
      <g clip-path="url(#HoleContour)">
         <circle cx="258.2296295246031" cy="-4.554879381375481" r="174.04000746965048"
                 class="circle-from-tee"/>
         <circle cx="258.2296295246031" cy="-4.554879381375481" r="261.0600112044757"
                 class="circle-from-tee"/>
         <circle cx="258.2296295246031" cy="-4.554879381375481" r="348.08001493930095"
                 class="circle-from-tee"/>
         <circle cx="-214.99217953298472" cy="44.700780981562744" r="174.04000746965048"
                 class="circle-from-green"/>
         <circle cx="-214.99217953298472" cy="44.700780981562744" r="261.0600112044757"
                 class="circle-from-green"/>
         <circle cx="-214.99217953298472" cy="44.700780981562744" r="348.08001493930095"
                 class="circle-from-green"/>
      </g>
   </g>
   <rect x="470" y="400" rx="4" ry="4" width="110" height="180" class="info-background"/>
   <text x="525" y="420" class="info-hole" text-anchor="middle">
					Hole 15</text>
   <text x="525" y="440" class="info-par" text-anchor="middle">
					Par 4</text>
   <circle cx="485.625" cy="457.1875" r="5.625" style="fill:blue"/>
   <text x="496.875" y="460" class="info-length">305 meters</text>
   <circle cx="485.625" cy="477.1875" r="5.625" style="fill:blue"/>
   <text x="496.875" y="480" class="info-length">333 yards</text>
   <use xmlns:xlink="http://www.w3.org/1999/xlink" xlink:href="#Compass" x="550" y="50"
        transform="rotate(95.94227820918087 550 50)"/>
   <use xmlns:xlink="http://www.w3.org/1999/xlink" xlink:href="#GolfMLLogoSmall" x="10"
        y="575"/>
</svg>