<?xml version="1.0" encoding="UTF-8"?>
<svg xmlns="http://www.w3.org/2000/svg" width="600" height="600">
   <defs xmlns:g="http://code.google.com/p/golfml"
         xmlns:xlink="http://www.w3.org/1999/xlink"
         xmlns:xs="http://www.w3.org/2001/XMLSchema">
      <style type="text/css">
/* Stylesheet for SVG elements
 *
 *
 * Classes for area of interest (surfaces)
 *
 * DRAWING
 */
.background {
		fill: url(#background-gradient);
}

.hole-limits {
	fill: none;
	stroke: #ccc;
	stroke-width: 1px;
	stroke-dasharray: 10,10;
}

.hole-contour {
	fill: #030;
	stroke: #fff;
	stroke-width: 2px;
}


/* GROUND
 */
.fairway {
	fill: url(#fairway-pattern);
	stroke: #0b0;
	stroke-width: 3px; /* fairway fringe... */
}

.tee {
	fill: #00c800;
	stroke: #0f0;
	stroke-width: 1px;
}

.fringe {
	fill: #0A0;
}

.green {
	fill: url(#green-gradient);
	stroke: #0f0;
	stroke-width: 1px;
}

.semi-rough,
.light-rough {
	fill: #080;
	stroke: #08800D;
	stroke-width: 1px;
}

.rough {
	fill: url(#rough-gradient);
	stroke: #07660A;
	stroke-width: 1px;
}

.heavy-rough {
	fill: #040;
	stroke: #074D08;
	stroke-width: 1px;
}

.ground {
	fill: #7f400c;
	stroke: #fdcc6a;
	stroke-width: 1px;
}


/* WATER
 */
.lateral-water {
	fill: url(#lateral-water-gradient);
	stroke: red;
	stroke-width: 4px;
}

.front-water, .water {
	fill: #37f;
	stroke: yellow;
	stroke-width: 3px;
}


/* SPECIAL
 */
.under-repair {
	fill: none;
	stroke: #00d;
	stroke-width: 2px;
}

.out-of-bound { /* line only */
	fill: none;
	stroke: white;
	stroke-width: 4px;
}

.out-of-bound-area {
	fill: #ccc;
	stroke: white;
	stroke-width: 4px;
}


/* TRAPS
 */
.trap,
.bunker {
	fill: #92cf94;
	stroke: #4c994c;
	stroke-width: 1px;
}

.grass-trap,
.grass-bunker {
	fill: #050;
	stroke: #0A0;
	stroke-width: 1px;
}

.sand-trap,
.sand-bunker,
.greenside-trap,
.greenside-bunker {
	fill: #eec;
	stroke: #040;
	stroke-width: 2px;
}

.fairway-trap,
.fairway-bunker {
	fill: #eec;
	stroke: #030;
	stroke-width: 2px;
}


/* OBSTACLES
 */
.tree {
	fill: #062;
	stroke: #0c6;
	stroke-width: 1px;
}

.trees {
	fill: #062;
	stroke: #0c6;
	stroke-width: 1px;
}

.bush {
	fill: #00b259;
	stroke: #7f400c;
	stroke-width: 1px;
}


.path {
	fill: #666;
	stroke: #bbb;
	stroke-width: 1px;
}

.building,
.construction {
	fill: #fdcc6a;
	stroke: #7f400C;
	stroke-width: 1px;
}

.obstruction {
	fill: #555;
	stroke: #999;
	stroke-width: 1px;
}


.other {
	fill: #ddd;
	stroke: #666;
	stroke-width: 1px;
}

/* Classes for point of interest (points)
 *
 */
.dogleg {
	fill: #000;
}

.aim {
	fill: #fff;
	stroke: #f00;
	stroke-width: 1px;
}

.tees {
	fill: #00f;
}

.tees-hollow {
	stroke: #fff;
	stroke-width: 0.5px;
}

.hole {
	fill: #fff;
}

.distance-marker-100,
.distance-marker-close {
	fill: #44f;
	stroke: #00f;
	stroke-width: 1px;
}

.distance-marker-150,
.distance-marker-135,
.distance-marker,
.distance-marker-mid {
	fill: #f44;
	stroke: #f00;
	stroke-width: 1px;
}

.distance-marker-200,
.distance-marker-far {
	fill: #dd4;
	stroke: #ff0;
	stroke-width: 1px;
}

.green-region-delimiter {
	fill: none;
	stroke: #fff;
	stroke-width: 0.5;
	stroke-dasharray: 4,2;
}

.neutral {
	fill: none;
	stroke: #888;
	stroke-width: 1px;
}


/* Classes for special decorative objects
 *
 */
.compass-center {
	fill: #ddd;
	stroke: #fff;
	stroke-width: 1px;
}
.compass-needle {
	fill: #ddd;
	stroke: #fff;
	stroke-width: 1px;
}
.compass-north {
	fill: #fff;
}
.flag-pole {
	fill: none;
	stroke: #f00;
	stroke-width: 2px;
}
.flag-flag {
	fill: #ff0;
	stroke: #f00;
	stroke-width: 1px;
}
.flag-cup {
	fill: #fff;
}
/* Information box */
.info-background {
	fill: #ddd;
}
.info-hole {
	font-family: Georgia, "Times New Roman", Times, serif;
	font-size: xx-large;
}
.info-par {
	font-family: Georgia, "Times New Roman", Times, serif;
	font-size: x-large;
}
.info-length {
	font-family: Georgia, "Times New Roman", Times, serif;
	font-size: large;
}
/* Circle for distances */
.circle-from-green {
	fill: none;
	stroke: #fff;
	stroke-width: 1px;
	stroke-dasharray: 4,4;
}
.circle-from-tee {
	fill: none;
	stroke: #f00;
	stroke-width: 1px;
	stroke-dasharray: 8,8;
}

     </style>
      <linearGradient id="background-straight">
         <stop offset="5%" stop-color="#002"/>
         <stop offset="95%" stop-color="#004"/>
      </linearGradient>
      <linearGradient id="background-gradient" gradientTransform="rotate(30)"
                      xlink:href="#background-straight"/>
      <linearGradient id="lateral-water-straight">
         <stop offset="5%" stop-color="#006"/>
         <stop offset="95%" stop-color="#008"/>
      </linearGradient>
      <linearGradient id="lateral-water-gradient" gradientTransform="rotate(60)"
                      xlink:href="#lateral-water-straight"/>
      <linearGradient id="rough-straight">
         <stop offset="0%" stop-color="#030"/>
         <stop offset="25%" stop-color="#060"/>
         <stop offset="50%" stop-color="#040"/>
         <stop offset="75%" stop-color="#060"/>
         <stop offset="100%" stop-color="#080"/>
      </linearGradient>
      <linearGradient id="rough-gradient" gradientTransform="rotate(70)" xlink:href="#rough-straight"/>
      <linearGradient id="green-straight">
         <stop offset="0%" stop-color="#0d0"/>
         <stop offset="25%" stop-color="#0e0"/>
         <stop offset="50%" stop-color="#0c0"/>
         <stop offset="75%" stop-color="#0e0"/>
         <stop offset="100%" stop-color="#0b0"/>
      </linearGradient>
      <linearGradient id="green-gradient" gradientTransform="rotate(75)" xlink:href="#green-straight"/>
      <pattern id="fairway-straight" patternUnits="userSpaceOnUse" x="0" y="0" width="20"
               height="20"
               viewBox="0 0 20 20">
         <rect x="0" y="0" width="10" height="10" fill="#00c000"/>
         <rect x="10" y="10" width="10" height="10" fill="#00c800"/>
         <rect x="10" y="0" width="10" height="10" fill="#00bc00"/>
         <rect x="0" y="10" width="10" height="10" fill="#00b800"/>
      </pattern>
      <pattern id="fairway-pattern" patternTransform="rotate(60)"
               xlink:href="#fairway-straight"/>
      <g id="TeeSet">
         <circle cx="-5" cy="0" r="2"/>
         <circle cx="5" cy="0" r="2"/>
      </g>
      <g id="DistanceMarker">
         <circle r="6"/>
      </g>
      <g id="Dogleg">
         <circle r="4"/>
      </g>
      <g id="Aim">
         <circle r="4"/>
      </g>
      <g id="Hole">
         <circle r="2"/>
      </g>
      <g id="Flag" transform="translate(0 -30) scale(-0.2 0.2)">
         <line id="FlagPole" class="flag-pole" x1="0.5" y1="0" x2="0.5" y2="150"/>
         <circle id="FlagCup" class="flag-cup" r="10" cx="0" cy="145"/>
         <g id="FlagFlag">
            <path class="flag-flag"
                  d="M55.339,45.968c-18.28-14.516-36.559,14.516-54.839,0c0-12.097,0-24.193,0-36.29      c18.28,14.516,36.559-14.516,54.839,0C55.339,21.774,55.339,33.871,55.339,45.968z"/>
         </g>
      </g>
      <g id="Compass">
         <polygon id="CompassNeedle" class="compass-needle" points="0,30 -8,0 0,-20 8,0"/>
         <circle id="CompassCenter" class="compass-center" r="10"/>
         <text id="CompassNorth" class="compass-north" x="-4.7" y="40">N</text>
      </g>
      <g id="GolfMLLogoSmall">
         <image xlink:href="../stylesheets/images/golfml-small.png" width="80" height="15"/>
      </g>
   </defs>
   <rect class="background" x="0" y="0" width="600" height="600"/>
				<!-- debug information: mode course
				min_lat: 50.54430505702868
				max_lat: 50.5471554618407
				min_lon: 4.494686740299272
				max_lon: 4.499037567799469
				mid_lat: 50.54573025943469
				mid_lon: 4.496862154049371
				deltax: 0.00004825462231809311
				deltay: 0.000049748948968197926
				scalex: 1.2434041987621764E7
				scaley: 1.2060556302074859E7
				scale: 1.2060556302074859E7
				minx: -0.00002412731115904634
				maxx: 0.00002412731115904677
				miny: -0.00002487441543003177 
				maxy: 0.000024874533538166155 
				minx: -290.9887946513574
				maxx: 290.9887946513626
				miny: -299.9992877750978
				maxy: 300.00071222490226
				calibration: 1.8943162799707205
			
			MODIFICATION
			
				rotation: -45.1152799532978
				reduction: 0.7085280582422734
				x,y: 
							Green
							green_lat_min: 50.54663813740116
							green_lat_max: 50.54694115694983
							green_lon_min: 4.495174000179136
							green_lon_max: 4.495587267985353
							green_mid_lat: 50.546789647175494
							green_mid_lon: 4.495380634082244
							green_mid_x: 0.000016431399878601144
							green_mid_y: -0.000018489790209130774 
							Tee
							tee_lat_min: 50.54448847343439
							tee_lat_max: 50.54502596716927
							tee_lon_min: 4.498187525354775
							tee_lon_max: 4.498996233004902
							tee_mid_lat: 50.54475722030183
							tee_mid_lon: 4.4985918791798385
							tee_mid_x: -0.00001918422021229624
							tee_mid_y: 0.000016982799163012263 
							x1&gt;x2: No
							y1&gt;y2: Yes
							Angle-temp: ROTATION=-45.1152799532978,$tee_mid_x=-0.00001918422021229624,$tee_mid_y=0.000016982799163012263 ,$green_mid_x=0.000016431399878601144,$green_mid_y=-0.000018489790209130774 ,
				-->
			<g transform="translate(300,300) scale(-0.7085280582422734,0.7085280582422734) rotate(-45.1152799532978)">
      <path class="hole-contour"
            d="M -288.4623672573016,238.83260911333318 L -278.1985464314745,222.6381512721564 -247.44673455844412,185.32125600815152 -217.6826074877144,147.79405703175829 -179.90066801289188,98.9588056119302 -141.19758393441003,59.33835526028098 -87.75027325228803,7.740180894555242 -47.20361445644739,-32.80104375618966 -14.02774708367905,-80.71422508471136 31.12819189860233,-137.84094529117357 69.83212254486438,-167.3243493440196 111.2988842370649,-175.6137753081505 132.4964156032951,-217.07748592532403 150.00783290694076,-253.93430837053282 182.26171544887814,-276.0462582594499 220.96639498054498,-300.0003644254077 243.08071525851918,-287.09740354870314 290.9887946022786,-202.31710535046201 -106.19129637130492,191.10746609453852 -159.63499626897044,198.4762553468967 -194.65047144612916,214.13933808190146 -225.0587251991975,229.80282014076406 -254.54665294599423,266.65987895666734 -277.58336879318745,283.2453712131115 -284.9543505102671,274.0306696493507 -290.98879462861765,259.3488647534826 -288.4623672573016,238.83260911333318 Z"/>
      <clipPath id="HoleContour" transform="scale(1.2)">
         <path class="hole-contour"
               d="M -288.4623672573016,238.83260911333318 L -278.1985464314745,222.6381512721564 -247.44673455844412,185.32125600815152 -217.6826074877144,147.79405703175829 -179.90066801289188,98.9588056119302 -141.19758393441003,59.33835526028098 -87.75027325228803,7.740180894555242 -47.20361445644739,-32.80104375618966 -14.02774708367905,-80.71422508471136 31.12819189860233,-137.84094529117357 69.83212254486438,-167.3243493440196 111.2988842370649,-175.6137753081505 132.4964156032951,-217.07748592532403 150.00783290694076,-253.93430837053282 182.26171544887814,-276.0462582594499 220.96639498054498,-300.0003644254077 243.08071525851918,-287.09740354870314 290.9887946022786,-202.31710535046201 -106.19129637130492,191.10746609453852 -159.63499626897044,198.4762553468967 -194.65047144612916,214.13933808190146 -225.0587251991975,229.80282014076406 -254.54665294599423,266.65987895666734 -277.58336879318745,283.2453712131115 -284.9543505102671,274.0306696493507 -290.98879462861765,259.3488647534826 -288.4623672573016,238.83260911333318 Z"/>
      </clipPath>
      <path class="water"
            d="M 181.03580141495067,-208.11669134499732 L 186.03793061653346,-202.36316671591788 193.79144985360082,-195.85895444692824 201.04428837569947,-185.10257145704855 209.04780179346662,-177.34766155400058 213.5490347622809,-165.340915168259 213.54761470038437,-150.58322639591856 210.29478978031938,-139.0775914152516 205.29119266301856,-129.07292697031272 197.536133069112,-118.81842386643166 192.0325298037943,-111.31510233574143 180.52557160586375,-101.56123512182668 174.27259254481174,-104.81358067020719 171.02137214501164,-110.06665692559905 167.0203321850053,-121.57306659675953 162.76887702334886,-130.07793138172735 158.26668802988198,-132.0794292159431 152.51365552278335,-132.08000580141916 150.01254174059844,-134.33142730442054 150.01286027979037,-137.8332512924402 153.5150274012962,-141.3347262798906 156.01650786826144,-143.0853875810263 159.76881012148192,-146.58683315620635 161.01997615431208,-152.08957174152923 162.0213097754631,-160.84402802716593 161.52152738573272,-166.09681334531305 150.5182161987125,-193.8623776975524 156.77225462165134,-201.6157920711425 166.27806132704748,-209.6190003137654 175.7835330320887,-213.87023888420813 181.03580141495067,-208.11669134499732 Z"/>
      <path class="tee"
            d="M -228.88631624765637,209.79540301967188 L -278.00024972504366,261.39243495047316 -285.4597489213193,252.06714467347896 -237.58920068737467,201.7133302710598 -228.88631624765637,209.79540301967188 Z"/>
      <path class="tee"
            d="M -177.28498705499348,155.09033913806823 L -192.8275019606658,169.3881443880795 -199.04396599309334,165.65782918395533 -184.7446147039923,148.25157638251255 -177.28498705499348,155.09033913806823 Z"/>
      <path class="fairway"
            d="M 19.045697576637576,34.59988297948698 L 12.216784811301702,41.4277368938814 7.043111685114115,50.11798860817636 -0.8205328905771826,59.22187589902038 -6.9826187386817855,66.2664536315192 -16.924577592908154,77.62703434586048 -21.894866784881877,74.07626872156224 -17.634077556875756,69.81608516883068 -12.307924990215897,62.36061129288262 -5.91645296674245,52.41992676743785 0.4749546534560708,43.5443648138403 6.155966218355617,38.929249543398555 12.902417874878443,30.408754360794177 19.045697576637576,34.59988297948698 Z"/>
      <path class="fairway"
            d="M 117.10785894983927,-131.9409729107941 L 119.37788414629526,-112.8433832979611 107.95628698256647,-93.28446224182596 90.6625762211425,-72.30099156749785 76.82770176702341,-55.514244939213675 60.19018232813591,-27.726113984373903 40.427079494794356,-5.646167635582553 13.992874858538528,27.378830981400117 -14.526498211614014,61.03408854998565 -27.20793511344231,76.42181687962838 -50.510970004057256,101.84776400268689 -80.45436262562754,129.6309932987643 -110.39753781298438,157.41428032207952 -135.09429434209866,168.38062215590372 -147.7661061908212,157.15465859383042 -157.3379497573037,146.9174782607319 -155.41198829143676,131.27907612689154 -139.35776256392955,113.69819882400256 -102.13893470685703,72.33592901238954 -65.52442756710879,33.607616078246 -47.519362689946405,15.560399056825178 -14.173321317076814,-12.55068837985455 7.264767156823671,-39.513601311650085 19.756573968898508,-61.32156777616874 31.643861821125345,-80.49579604986185 55.24971398362371,-107.23838631264327 68.3157309482518,-123.09227705769088 78.91202277787829,-137.8495949001414 86.67996327578633,-146.32482651474643 97.6556717090074,-148.24133119336057 117.10785894983927,-131.9409729107941 Z"/>
      <path class="fairway"
            d="M 178.37730787548432,-255.74993894463293 L 193.75249356412857,-261.49439301417794 210.18559553200578,-258.5911797401645 226.3589101526591,-251.40027944262593 234.58616092989925,-240.52705853989553 244.08817886417992,-225.73843655301656 247.3394191627261,-215.28308295840822 263.54208863636234,-210.1140937100316 263.2635162535914,-194.38295875959435 253.72402630317436,-186.28456117392258 244.29971638071473,-179.318987613519 239.88082132275562,-173.95751344260998 233.4399556559628,-168.62552427068857 230.1244578916252,-161.1269202025095 230.76721132853746,-154.4584764444632 228.7425685844789,-147.5329727259437 223.42117341248175,-144.5523279324809 217.82928071244876,-146.70556974519127 218.10510497478106,-155.48165265791926 215.268963584957,-163.95782737256835 212.54797246810966,-173.56683663628323 206.75785435332003,-182.43137062607875 200.16429223867772,-190.3210866906481 187.87204514925077,-202.70652286613483 178.535123882997,-214.15641056920634 170.35715239306214,-217.14175075392657 164.5011545271414,-213.8329327519953 154.3903540640325,-208.39876530193672 147.98963477108586,-214.29977772796704 147.15827852892923,-219.36539791835222 150.99941340463639,-229.3410377233757 159.37799734083512,-234.9513139266889 169.46833595775965,-244.15707772599038 178.37730787548432,-255.74993894463293 Z"/>
      <path class="fairway"
            d="M 118.29151249025034,-180.85954702766958 L 121.66579432559224,-192.40214747318893 129.24206126247898,-204.57411964434178 137.46117699738141,-210.0776250415367 146.5239818570514,-209.15636069995276 154.56647071374186,-202.52806041622978 151.35275719076554,-198.6287564443095 146.99017746251053,-190.3561224268323 147.30357655113542,-184.77765314289863 150.34065000650241,-176.54519662149065 151.44144656395116,-167.45307943139954 148.52511725438595,-153.486850959011 145.99709020301754,-142.47456066142078 144.54563809159126,-134.25819622700888 139.10912248986887,-130.14465252923836 126.83011273562289,-120.21160796755608 125.38646391593322,-132.86019141982365 115.4237573599398,-143.11721384547442 102.23390966621992,-151.94143141690404 98.21937719705508,-154.02227702363462 99.81279099933177,-158.43845877210518 106.75444315312917,-160.90234847672127 113.68266998012581,-165.8327523439363 118.29151249025034,-180.85954702766958 Z"/>
      <path class="path"
            d="M -57.01800599697006,114.49394643703266 L -62.64396031704067,118.47034328760431 -104.3031018636072,69.26131848644584 -129.28848039565483,41.62360526321535 -125.66592887005397,39.12805182821035 -57.01800599697006,114.49394643703266 Z"/>
      <path class="building"
            d="M -185.63898728495715,246.53841759766925 L -177.20334965436683,249.78616645715496 -174.36251758971025,258.1885838603237 -179.6973313275282,262.2105496357306 -221.32664035178578,297.6081231868138 -232.72586943220503,299.9997958852574 -237.3140736923484,294.53500374956525 -237.25270746384172,287.51413375577033 -193.1091691526645,249.47410670530513 -185.63898728495715,246.53841759766925 Z"/>
      <path class="bunker"
            d="M 242.56987283354266,-219.86608294191387 L 244.82045571249202,-213.61255822989568 246.5706935155265,-206.60869961186876 250.07252024815094,-206.1080334104998 254.07431305886328,-202.6057396436081 253.0732231821062,-197.10298392924636 250.82169195745055,-193.85154926412343 246.56901833485347,-189.84995466270132 241.06575626776265,-186.59889301897184 237.0632253042551,-182.59726470109365 234.31097046367722,-174.59340635972566 227.80672745822645,-166.5899727174288 222.0537934633387,-167.84127072145552 220.05316776607063,-172.3438396681917 221.30461091115745,-180.3478703939042 225.8076678213078,-187.1008860537041 229.81053856769972,-194.6043476943758 234.56386735063708,-202.60798477622916 235.0649768212865,-211.11236612528901 233.81492581854053,-217.3657726599939 232.81495868477577,-223.118890671733 234.56631960253253,-227.37091473564644 237.31779930816518,-227.3706031451392 240.06905486457504,-225.11911363881566 242.56987283354266,-219.86608294191387 Z"/>
      <path class="green"
            d="M 220.3098389415671,-239.37878736188915 L 225.811692046765,-228.12229087923387 225.30994811059838,-213.11450919302706 219.30544370803793,-199.8582619711752 216.30337928439283,-195.10611699446906 212.55099079302914,-191.10444516675662 202.79598582785565,-193.10655218350823 196.2928780107192,-196.8592081821667 189.0397679933471,-204.86415323033452 182.03678142871422,-212.86906484591228 176.28438371234026,-220.12344915433832 170.53195467221482,-227.12769958783255 171.28277434447102,-231.62997360646213 178.03735446788235,-241.88463390785483 183.2909299453646,-249.8882725817682 193.79706153776533,-254.88978200179872 203.30204055010879,-253.38797733643963 211.8059933433735,-246.8836488986228 220.3098389415671,-239.37878736188915 Z"/>
      <path class="tree"
            d="M 136.83302537603072,-124.3930335845706 L 145.24504422116615,-125.20383144670686 154.80473934527745,-121.88016758657885 154.76906496891388,-111.88833831043301 150.36044698206746,-103.22300202146266 143.59095249355755,-98.32546376472396 135.307122682109,-98.7755641441017 132.03704655731644,-104.2036899889877 130.10833674279908,-111.259367259699 128.81754822229797,-116.87827764814581 136.83302537603072,-124.3930335845706 Z"/>
      <path class="tree"
            d="M 128.95199874249764,-92.16998626794044 L 135.59043017115627,-88.0653710634574 136.00189819292953,-78.61608597887455 140.9501181016054,-79.0930278608174 150.00000947506928,-78.46705282862077 149.3413520787687,-67.1666721941649 144.02358175941774,-60.16169150056755 118.63597280603827,-35.98999463114418 104.5873412070235,-28.892537445284326 96.60471357852882,-23.62831778299619 89.21517173550889,-25.163382449178076 87.81402285115487,-34.517238833398736 90.48464428575198,-48.25893627527483 94.73513835002781,-61.15409702684928 105.38557400861119,-72.41878561546736 112.26538171959699,-73.58135512363222 119.40438632654079,-85.00697467016732 128.95199874249764,-92.16998626794044 Z"/>
      <path class="tree"
            d="M -182.30607527106986,103.56838317087723 L -167.27859737196295,99.70711735539318 -162.5141245399522,108.7102237903766 -166.93000640414215,120.63960492800656 -175.00934147936655,129.21147329513897 -183.1464394405066,133.33594726930386 -191.45883301841954,129.87016999697798 -193.459307940567,118.74511502780288 -182.30607527106986,103.56838317087723 Z"/>
      <path class="tree"
            d="M -155.23701945358405,87.97003795163491 L -152.1519342745237,83.40508530093992 -156.01696572187518,79.88145204079854 -152.0396176835796,67.25218676882453 -141.6367275287316,61.61046230216315 -134.49418693503117,52.9434140492734 -124.68478829314589,48.843274731280516 -125.60137787614799,58.579806310728756 -129.47041342650917,66.5600888227256 -135.59401327342476,78.09752073256229 -144.06138828963822,76.87310708215149 -144.08767818215338,84.29727998440113 -145.7021217107859,88.72040786511286 -151.50264411863103,92.06289250462262 -155.23701945358405,87.97003795163491 Z"/>
      <path class="tree"
            d="M -81.85042260377894,23.56111770394204 L -91.27196965012223,37.457504984926906 -100.00474506023448,48.87543592015783 -107.79456360346899,43.13264496279442 -102.00310926496637,31.998323081806333 -93.99450642867168,22.69116163864104 -81.85042260377894,23.56111770394204 Z"/>
      <path class="tree"
            d="M -47.96009215332157,-29.06073319381233 L -43.06295549242285,-26.3786953183642 -39.07839400157933,-25.464082311466452 -37.40822573876486,-19.687784448745667 -29.662926405909268,-22.10442396900356 -30.340549361296283,-17.58609483492043 -34.767777019713584,-7.69662708515757 -39.607190358821725,-5.931239831105976 -43.74467092602629,-10.356395644074524 -49.15330589788847,-8.721659222782302 -48.62157849206118,-3.20668296850819 -52.51296546972174,0.693805979411033 -51.839442589237336,7.679441256973887 -56.466153812283345,11.650831933192274 -59.203873093898366,6.348558072019979 -57.766621238202546,0.08711006647039816 -61.786623564953125,-1.195155000441558 -61.39260658715258,-8.654806119743398 -52.99402319302931,-13.917588608467653 -52.37617293515781,-17.131366696707012 -55.10276228507985,-20.393761566675572 -53.02538395160266,-25.78922347451299 -47.96009215332157,-29.06073319381233 Z"/>
      <path class="tree"
            d="M -18.520414166494383,-39.32083218431835 L -14.336357367900147,-32.48810537803839 -19.545516703615103,-24.93529783434599 -25.37953722286117,-27.712567153389497 -24.653274099503864,-35.5753351096383 -18.520414166494383,-39.32083218431835 Z"/>
      <use xmlns:xlink="http://www.w3.org/1999/xlink" x="-15.04226163053925"
           y="22.18698743755286 "
           xlink:href="#Dogleg"/>
      <use xmlns:xlink="http://www.w3.org/1999/xlink" xlink:href="#TeeSet"
           x="-231.37236798180132"
           y="204.82200547233919"
           class="tees"
           transform="rotate(45.1152799532978 -231.37236798180132 204.82200547233919)"/>
      <use xmlns:xlink="http://www.w3.org/1999/xlink" xlink:href="#Flag"
           x="198.1718233577751"
           y="-222.99715583077418"
           transform="rotate(45.1152799532978 198.1718233577751 -222.99715583077418)"/>
      <g clip-path="url(#HoleContour)">
         <circle cx="-231.37236798180132" cy="204.82200547233919" r="189.43162799707204"
                 class="circle-from-tee"/>
         <circle cx="-231.37236798180132" cy="204.82200547233919" r="284.14744199560806"
                 class="circle-from-tee"/>
         <circle cx="-231.37236798180132" cy="204.82200547233919" r="378.8632559941441"
                 class="circle-from-tee"/>
         <circle cx="198.1718233577751" cy="-222.99715583077418" r="189.43162799707204"
                 class="circle-from-green"/>
         <circle cx="198.1718233577751" cy="-222.99715583077418" r="284.14744199560806"
                 class="circle-from-green"/>
         <circle cx="198.1718233577751" cy="-222.99715583077418" r="378.8632559941441"
                 class="circle-from-green"/>
      </g>
   </g>
   <rect x="470" y="400" rx="4" ry="4" width="110" height="180" class="info-background"/>
   <text x="525" y="420" class="info-hole" text-anchor="middle">
					Hole 10</text>
   <text x="525" y="440" class="info-par" text-anchor="middle">
					Par 4</text>
   <circle cx="485.625" cy="457.1875" r="5.625" style="fill:blue"/>
   <text x="496.875" y="460" class="info-length">337 </text>
   <use xmlns:xlink="http://www.w3.org/1999/xlink" xlink:href="#Compass" x="550" y="50"
        transform="rotate(-45.1152799532978 550 50)"/>
   <use xmlns:xlink="http://www.w3.org/1999/xlink" xlink:href="#GolfMLLogoSmall" x="10"
        y="575"/>
</svg>