<?xml version="1.0" encoding="UTF-8"?>
<svg xmlns="http://www.w3.org/2000/svg" width="600" height="600">
   <defs xmlns:g="http://code.google.com/p/golfml"
         xmlns:xlink="http://www.w3.org/1999/xlink"
         xmlns:xs="http://www.w3.org/2001/XMLSchema">
      <style type="text/css">
/* Stylesheet for SVG elements
 *
 *
 * Classes for area of interest (surfaces)
 *
 * DRAWING
 */
.background {
		fill: url(#background-gradient);
}

.hole-limits {
	fill: none;
	stroke: #ccc;
	stroke-width: 1px;
	stroke-dasharray: 10,10;
}

.hole-contour {
	fill: #030;
	stroke: #fff;
	stroke-width: 2px;
}


/* GROUND
 */
.fairway {
	fill: url(#fairway-pattern);
	stroke: #0b0;
	stroke-width: 3px; /* fairway fringe... */
}

.tee {
	fill: #00c800;
	stroke: #0f0;
	stroke-width: 1px;
}

.fringe {
	fill: #0A0;
}

.green {
	fill: url(#green-gradient);
	stroke: #0f0;
	stroke-width: 1px;
}

.semi-rough,
.light-rough {
	fill: #080;
	stroke: #08800D;
	stroke-width: 1px;
}

.rough {
	fill: url(#rough-gradient);
	stroke: #07660A;
	stroke-width: 1px;
}

.heavy-rough {
	fill: #040;
	stroke: #074D08;
	stroke-width: 1px;
}

.ground {
	fill: #7f400c;
	stroke: #fdcc6a;
	stroke-width: 1px;
}


/* WATER
 */
.lateral-water {
	fill: url(#lateral-water-gradient);
	stroke: red;
	stroke-width: 4px;
}

.front-water, .water {
	fill: #37f;
	stroke: yellow;
	stroke-width: 3px;
}


/* SPECIAL
 */
.under-repair {
	fill: none;
	stroke: #00d;
	stroke-width: 2px;
}

.out-of-bound { /* line only */
	fill: none;
	stroke: white;
	stroke-width: 4px;
}

.out-of-bound-area {
	fill: #ccc;
	stroke: white;
	stroke-width: 4px;
}


/* TRAPS
 */
.trap,
.bunker {
	fill: #92cf94;
	stroke: #4c994c;
	stroke-width: 1px;
}

.grass-trap,
.grass-bunker {
	fill: #050;
	stroke: #0A0;
	stroke-width: 1px;
}

.sand-trap,
.sand-bunker,
.greenside-trap,
.greenside-bunker {
	fill: #eec;
	stroke: #040;
	stroke-width: 2px;
}

.fairway-trap,
.fairway-bunker {
	fill: #eec;
	stroke: #030;
	stroke-width: 2px;
}


/* OBSTACLES
 */
.tree {
	fill: #062;
	stroke: #0c6;
	stroke-width: 1px;
}

.trees {
	fill: #062;
	stroke: #0c6;
	stroke-width: 1px;
}

.bush {
	fill: #00b259;
	stroke: #7f400c;
	stroke-width: 1px;
}


.path {
	fill: #666;
	stroke: #bbb;
	stroke-width: 1px;
}

.building,
.construction {
	fill: #fdcc6a;
	stroke: #7f400C;
	stroke-width: 1px;
}

.obstruction {
	fill: #555;
	stroke: #999;
	stroke-width: 1px;
}


.other {
	fill: #ddd;
	stroke: #666;
	stroke-width: 1px;
}

/* Classes for point of interest (points)
 *
 */
.dogleg {
	fill: #000;
}

.aim {
	fill: #fff;
	stroke: #f00;
	stroke-width: 1px;
}

.tees {
	fill: #00f;
}

.tees-hollow {
	stroke: #fff;
	stroke-width: 0.5px;
}

.hole {
	fill: #fff;
}

.distance-marker-close {
	fill: #44f;
	stroke: #00f;
	stroke-width: 1px;
}

.distance-marker,
.distance-marker-mid {
	fill: #f44;
	stroke: #f00;
	stroke-width: 1px;
}

.distance-marker-far {
	fill: #dd4;
	stroke: #ff0;
	stroke-width: 1px;
}

.green-region-delimiter {
	fill: none;
	stroke: #fff;
	stroke-width: 0.5;
	stroke-dasharray: 4,2;
}

.neutral {
	fill: none;
	stroke: #888;
	stroke-width: 1px;
}


/* Classes for special decorative objects
 *
 */
.compass-center {
	fill: #ddd;
	stroke: #fff;
	stroke-width: 1px;
}
.compass-needle {
	fill: #ddd;
	stroke: #fff;
	stroke-width: 1px;
}
.compass-north {
	fill: #fff;
}
.flag-pole {
	fill: none;
	stroke: #f00;
	stroke-width: 2px;
}
.flag-flag {
	fill: #ff0;
	stroke: #f00;
	stroke-width: 1px;
}
.flag-cup {
	fill: #fff;
}

     </style>
      <linearGradient id="background-straight">
         <stop offset="5%" stop-color="#002"/>
         <stop offset="95%" stop-color="#004"/>
      </linearGradient>
      <linearGradient id="background-gradient" gradientTransform="rotate(30)"
                      xlink:href="#background-straight"/>
      <linearGradient id="lateral-water-straight">
         <stop offset="5%" stop-color="#006"/>
         <stop offset="95%" stop-color="#008"/>
      </linearGradient>
      <linearGradient id="lateral-water-gradient" gradientTransform="rotate(60)"
                      xlink:href="#lateral-water-straight"/>
      <linearGradient id="rough-straight">
         <stop offset="0%" stop-color="#030"/>
         <stop offset="25%" stop-color="#060"/>
         <stop offset="50%" stop-color="#040"/>
         <stop offset="75%" stop-color="#060"/>
         <stop offset="100%" stop-color="#080"/>
      </linearGradient>
      <linearGradient id="rough-gradient" gradientTransform="rotate(70)" xlink:href="#rough-straight"/>
      <linearGradient id="green-straight">
         <stop offset="0%" stop-color="#0d0"/>
         <stop offset="25%" stop-color="#0e0"/>
         <stop offset="50%" stop-color="#0c0"/>
         <stop offset="75%" stop-color="#0e0"/>
         <stop offset="100%" stop-color="#0b0"/>
      </linearGradient>
      <linearGradient id="green-gradient" gradientTransform="rotate(75)" xlink:href="#green-straight"/>
      <pattern id="fairway-straight" patternUnits="userSpaceOnUse" x="0" y="0" width="20"
               height="20"
               viewBox="0 0 20 20">
         <rect x="0" y="0" width="10" height="10" fill="#00c000"/>
         <rect x="10" y="10" width="10" height="10" fill="#00c800"/>
         <rect x="10" y="0" width="10" height="10" fill="#00bc00"/>
         <rect x="0" y="10" width="10" height="10" fill="#00b800"/>
      </pattern>
      <pattern id="fairway-pattern" patternTransform="rotate(60)"
               xlink:href="#fairway-straight"/>
      <g id="TeeSet">
         <circle cx="-5" cy="0" r="2"/>
         <circle cx="5" cy="0" r="2"/>
      </g>
      <g id="DistanceMarker">
         <circle r="6"/>
      </g>
      <g id="Dogleg">
         <circle r="4"/>
      </g>
      <g id="Hole">
         <circle r="2"/>
      </g>
      <g id="Flag" transform="translate(0 -30) scale(-0.2 0.2)">
         <line id="FlagPole" class="flag-pole" x1="0.5" y1="0" x2="0.5" y2="150"/>
         <circle id="FlagCup" class="flag-cup" r="10" cx="0" cy="145"/>
         <g id="FlagFlag">
            <path class="flag-flag"
                  d="M55.339,45.968c-18.28-14.516-36.559,14.516-54.839,0c0-12.097,0-24.193,0-36.29      c18.28,14.516,36.559-14.516,54.839,0C55.339,21.774,55.339,33.871,55.339,45.968z"/>
         </g>
      </g>
      <g id="Compass">
         <polygon id="CompassNeedle" class="compass-needle" points="0,30 -8,0 0,-20 8,0"/>
         <circle id="CompassCenter" class="compass-center" r="10"/>
         <text id="CompassNorth" class="compass-north" x="-4.7" y="40">N</text>
      </g>
   </defs>
   <rect class="background" x="0" y="0" width="600" height="600"/>
				<!-- debug information: mode course
				min_lat: 50.54497356096572
				max_lat: 50.54573827291052
				min_lon: 4.502368444850767
				max_lon: 4.505701201586092
				mid_lat: 50.54535591693812
				mid_lon: 4.504034823218429
				deltax: 0.00003696358777427537
				deltay: 0.000013346741263353668
				scalex: 1.6232190545571636E7
				scaley: 4.495479369540401E7
				scale: 1.6232190545571636E7
				minx: -0.00001848179388713766
				maxx: 0.00001848179388713771
				miny: -0.0000066732578393180475 
				maxy: 0.00000667348342403562 
				minx: -299.9999999999996
				maxx: 300.00000000000045
				miny: -108.32159280754021
				maxy: 108.32525454166003MODIFICATION
			
				rotation: -76.39646344015937
				scaling: 0.9719464846709764
				x,y: 
							Green
							green_lat_min: 50.54543246365152
							green_lat_max: 50.54562867828606
							green_lon_min: 4.502729924631394
							green_lon_max: 4.503066209630342
							green_mid_lat: 50.54553057096879
							green_mid_lon: 4.502898067130868
							green_mid_x: 0.000012607755907812908
							green_mid_y: -0.000003048232593227951 
							Tee
							tee_lat_min: 50.54507679440503
							tee_lat_max: 50.54525412489156
							tee_lon_min: 4.50492029488445
							tee_lon_max: 4.505624422032337
							tee_mid_lat: 50.54516545964829
							tee_mid_lon: 4.505272358458393
							tee_mid_x: -0.000013725496967700754
							tee_mid_y: 0.0000033241723147448 
							x1&gt;x2: No
							y1&gt;y2: Yes
							Angle-temp: ROTATION=-76.39646344015937,x1=-0.000013725496967700754,y1=0.0000033241723147448 ,x2=0.000012607755907812908,y2=-0.000003048232593227951 
				-->
			<g transform="translate(300,300) scale(-0.9719464846709764,0.9719464846709764) rotate(-76.39646344015937)">
      <path class="hole-contour"
            d="M 204.98657500139882,-108.32266343171493 L 241.4198636129075,-104.89688571777968 299.99999999488193,-52.382899118115525 282.1333464343615,-31.589659893264386 245.91302620402087,-1.2427100790584278 204.53512718160283,25.574338089657214 144.26241455786567,49.45705674469226 -289.84933744452655,108.32512094307252 -299.9999999966286,76.2346469809795 -288.70348997455875,48.218051997007635 -208.28394258502567,-1.5660755983802797 -106.25451920211634,-43.52840570263759 26.289150624738724,-74.30073229402629 106.10720673057008,-80.26384434415716 180.33436426245106,-99.74700261568918 204.98657500139882,-108.32266343171493 Z"/>
      <path class="rough"
            d="M 215.70313311972524,-89.12632524620312 L 231.6765079516298,-81.26496718654096 241.04453706164367,-69.28293185397352 249.3753225201029,-54.01145778388662 244.63671977763886,-34.044268159775456 233.9982567342881,-20.900269722903992 220.45497957455478,-13.529421046586908 199.36030641451353,-10.255552666815483 182.2340972431927,-10.693063857141702 162.18943497324165,-10.414130397590542 151.078856045024,-8.162807882583557 140.1725020182222,-1.2010875317960235 123.18672855771928,1.5999149788525786 97.42006160526404,5.961444802977717 68.46606855812651,11.6410693240994 34.993174353088904,21.94104298467457 14.256792678828537,26.674640820197208 -8.321839599485028,22.9345634378534 -18.009979619533766,10.376804360430045 -22.11654024101812,-9.501898798684559 -17.250658389700334,-26.525246191754825 -4.50053841386233,-38.58134912656117 15.634377388694471,-43.58383727011667 32.35138072723773,-45.7834942323159 54.981899373726435,-47.64961847730494 86.44439777820719,-49.89859852205494 103.11030601518716,-53.27571076067196 120.31395988769228,-57.85591458919153 136.64718928460243,-62.10339899419065 152.48097454517438,-64.2645352162462 166.70237560508883,-69.60023061230154 178.83831636300815,-82.21934072518515 197.96248224444668,-90.1271316985282 215.70313311972524,-89.12632524620312 Z"/>
      <path class="rough"
            d="M 193.09977793259745,-100.23973003726428 L 210.66177788684547,-103.36054026044796 230.24544684814626,-100.66986888995046 239.72922890815184,-92.82218847665332 250.5565016549913,-81.19832996240838 255.59782891915455,-66.96409482732439 252.66389376938204,-46.190243962887955 247.43946985975276,-30.62629774051702 233.02484250648246,-16.13884452894821 214.46402375274607,-8.84549279555027 187.7374889056351,-6.212365163430328 178.12442229472043,-3.436081186581811 171.211161155449,7.1868965228452755 154.033093977216,12.355782477100593 135.16606696822393,12.583733993183829 108.02954003106935,19.364232893834792 73.81469932935782,26.15677381396129 46.2050708258569,28.82867892020314 16.64950409035278,34.239645301464634 -4.1507169990194965,37.50131033011491 -20.239029156961358,26.990839005567235 -29.78599267307611,10.887529570771607 -32.24183200914921,-4.933425139160313 -28.387587748237134,-18.07851895703836 -15.994945260610454,-38.37782765577706 -1.5047005522509689,-44.31537432716661 19.15519484540323,-50.81538281268663 57.23576200401712,-56.89087711932972 76.35900716742964,-58.01496589495788 96.35268403439457,-59.47170133199799 118.25398130436649,-64.55052416293316 138.99045709612116,-69.2838435595616 157.3589860000066,-74.2094258992791 170.55680715117632,-82.74523336828953 182.5262612258917,-92.40788038123634 193.09977793259745,-100.23973003726428 Z"/>
      <path class="tee"
            d="M -159.41247495173133,36.065106888467355 L -165.16994381915424,46.67794837690751 -204.74632535528437,58.0673094326416 -244.89262773992667,72.2450948182052 -274.9945131045575,79.07844951075829 -286.1772892758936,76.1094534924293 -281.94861749491963,62.108494839544356 -249.14821958039892,53.77627053921765 -207.62271664536377,39.53862925422984 -168.01637292063123,28.838830368331177 -159.41247495173133,36.065106888467355 Z"/>
      <path class="fairway"
            d="M 203.7730632134312,-85.36477063775813 L 219.83663559063456,-82.22659662687197 228.09176077936723,-75.50549745117003 234.93867107231048,-67.24859631417006 239.64732579229627,-53.88482745837307 238.80063685900856,-39.39545060357322 225.038632029272,-23.461500506592483 209.4090429953975,-16.59012059889335 191.73230663140978,-16.118935556012183 177.8708632011119,-22.891936477763437 175.81091696909775,-29.58655148674474 167.2733322135006,-29.216487343328502 154.24233843422434,-23.637449833721718 143.3615000208854,-16.086933680314146 124.98029697083943,-11.455733600274485 95.9879845115413,-6.659410262424301 50.08647814380845,2.7045706173145736 25.048990712048273,10.279201091851515 7.154452482869401,12.529959707951502 -5.19679897841444,6.576635545001927 -13.874083637115483,-3.075445964844826 -11.875602520355114,-18.204712974814836 -0.3796865600246378,-31.97613457597512 19.614014818193517,-33.4330578450585 36.58710202156749,-36.52867263090714 58.64156973100769,-38.074859170846075 107.57654636552147,-45.50561897842601 129.33741867863523,-53.822799902271676 158.07373588604628,-57.72305458065426 168.7495668026868,-63.200009350708704 177.42927266875438,-73.8995836680387 187.42698894901872,-81.41180029880091 203.7730632134312,-85.36477063775813 Z"/>
      <path class="bunker"
            d="M 172.25175021688304,-23.23828124968633 L 169.07632739084215,-14.841979441076441 161.69082151671765,-15.111751690632953 158.46603706909937,-21.460917309539095 165.91620499715867,-26.50309079515775 172.25175021688304,-23.23828124968633 Z"/>
      <path class="bunker"
            d="M 164.86370883535247,-3.156246912646452 L 166.5399148439513,1.49033019117932 161.16331725076415,6.737572814957215 153.48342638292962,6.4805662223413565 152.86993840196703,-0.866642564752921 158.650166898735,-5.749643956495566 164.86370883535247,-3.156246912646452 Z"/>
      <path class="green"
            d="M 226.0811102825421,-67.45462703651351 L 234.1047541224965,-52.46481367371883 234.92238239243648,-40.40718691829097 227.97074912238193,-30.66743403296509 216.80818968386424,-22.809847501606793 204.4689259044543,-21.68515387535207 193.07753487845324,-25.91066592482104 185.1551289072953,-31.761282967852893 180.77827369510157,-37.4706201267853 175.12171385266316,-45.48410619709902 174.3806101031431,-55.77532117799716 182.20264057063798,-65.84780333100684 194.18458791879098,-75.21573039568263 214.44720331898392,-77.27376409765064 226.0811102825421,-67.45462703651351 Z"/>
      <path class="trees"
            d="M 89.02795955036633,-87.95729260531752 L 93.9482075190484,-81.59127118006481 98.4494514096263,-84.88237353974255 104.05926162574262,-89.38250906679932 110.42379568604498,-85.40149809752458 109.95271876456042,-78.41518107061384 103.58712144435879,-73.49529100910325 96.4333043468879,-77.82907062330074 87.061305811562,-70.843859008982 80.24350620446054,-76.35317859394459 80.69781760554211,-83.72576133788367 89.02795955036633,-87.95729260531752 Z"/>
      <path class="trees"
            d="M 269.54041798666884,-62.32375446098045 L 277.57483342835224,-50.15999504926197 278.49506609131043,-28.929624407039324 255.9037853342395,-1.67566642771169 222.01889348080016,24.816588166523434 186.18150174225906,35.128147430612856 143.44672522778626,59.501923099124745 32.35443217984422,65.56959331969661 -6.034563046480871,74.74147019926188 -199.8242025937487,106.9206266923503 -200.69097569492206,86.93916102199037 165.76694355414014,26.003504758000123 207.8485456302421,15.42122165841589 233.42459657371,-0.7014984265032704 264.70361865909183,-29.583185351450197 269.3200748773296,-38.54156952832337 259.98268455147394,-51.9000437767736 269.54041798666884,-62.32375446098045 Z"/>
      <path class="tree"
            d="M 246.76026217790823,-91.69797091503963 L 243.70240632684775,-81.89059890412508 234.33145489024844,-83.8064415876824 230.70432693438892,-87.13219315601626 230.31921673682385,-96.01637564999184 239.57297775222614,-96.80441177559533 246.76026217790823,-91.69797091503963 Z"/>
      <use xmlns:xlink="http://www.w3.org/1999/xlink" xlink:href="#TeeSet"
           x="-222.79488211238436"
           y="53.95859841925152"
           class="tees"
           transform="rotate(76.39646344015937 -222.79488211238436 53.95859841925152)"/>
      <use xmlns:xlink="http://www.w3.org/1999/xlink" xlink:href="#Flag"
           x="204.65149624767562"
           y="-49.47949228049806"
           transform="rotate(76.39646344015937 204.65149624767562 -49.47949228049806)"/>
   </g>
   <use xmlns:xlink="http://www.w3.org/1999/xlink" xlink:href="#Compass" x="550" y="50"
        transform="rotate(-76.39646344015937 550 50)"/>
</svg>